<?xml version="1.0" standalone="no"?>
<!DOCTYPE svg PUBLIC "-//W3C//DTD SVG 20010904//EN"
 "http://www.w3.org/TR/2001/REC-SVG-20010904/DTD/svg10.dtd">
<svg version="1.0" xmlns="http://www.w3.org/2000/svg"
 width="920.000000pt" height="920.000000pt" viewBox="0 0 920.000000 920.000000"
 preserveAspectRatio="xMidYMid meet">
<metadata>
Created by potrace 1.11, written by Peter Selinger 2001-2013
</metadata>
<g transform="translate(0.000000,920.000000) scale(0.100000,-0.100000)"
fill="#000000" stroke="none">
<path d="M4325 9133 c-60 -36 -135 -79 -165 -95 -30 -17 -62 -37 -71 -44 -8
-8 -19 -14 -23 -14 -4 0 -72 -38 -152 -85 -80 -47 -147 -85 -150 -85 -2 0 -33
-17 -67 -38 -58 -36 -146 -87 -702 -406 -121 -69 -227 -130 -235 -136 -8 -5
-49 -28 -90 -52 -41 -23 -83 -47 -92 -53 -17 -11 -41 -24 -123 -70 -27 -15
-70 -40 -95 -55 -41 -25 -114 -67 -240 -138 -25 -14 -57 -34 -72 -44 -16 -11
-28 -16 -28 -13 0 4 -7 -1 -16 -9 -8 -9 -21 -16 -29 -16 -7 0 -15 -3 -17 -8
-3 -7 -408 -242 -433 -251 -5 -2 -17 -9 -25 -16 -8 -7 -40 -25 -70 -41 -30
-16 -57 -31 -60 -35 -3 -3 -30 -19 -60 -36 -127 -69 -175 -97 -180 -102 -3 -3
-14 -11 -25 -17 -82 -45 -145 -80 -175 -99 -19 -12 -42 -25 -50 -28 -8 -4 -33
-18 -55 -31 l-40 -24 0 -2122 0 -2122 45 -25 c24 -14 68 -41 98 -60 30 -19 57
-31 61 -28 3 4 6 954 7 2112 0 2074 0 2106 20 2120 10 8 147 88 304 177 157
90 388 223 513 295 126 73 243 141 262 151 19 10 51 30 72 43 21 13 53 30 71
38 17 8 32 17 32 20 0 3 23 16 50 29 28 13 50 27 50 32 0 4 5 8 11 8 6 0 52
24 102 54 96 56 147 85 209 120 21 12 124 71 230 132 106 62 209 120 228 130
19 11 37 21 40 24 3 3 48 30 100 59 52 30 109 62 125 71 82 48 236 136 375
216 85 49 157 91 160 94 3 3 23 14 45 25 22 11 42 22 45 25 3 3 19 12 35 22
17 9 91 51 165 93 74 43 151 87 170 98 l35 19 445 -257 c245 -142 465 -269
490 -283 25 -14 62 -36 82 -49 21 -12 40 -23 43 -23 2 0 34 -18 70 -40 36 -22
68 -40 70 -40 3 0 40 -22 83 -48 42 -26 88 -53 102 -60 14 -7 41 -22 60 -33
133 -80 220 -129 229 -129 5 0 11 -3 13 -8 4 -10 165 -102 178 -102 5 0 10 -4
10 -10 0 -5 6 -10 14 -10 7 0 19 -7 26 -15 7 -9 15 -14 17 -11 3 2 40 -18 84
-45 43 -27 83 -49 89 -49 5 0 10 -4 10 -10 0 -5 5 -10 11 -10 6 0 64 -31 129
-70 65 -38 123 -70 129 -70 5 0 11 -4 13 -8 2 -4 30 -23 63 -41 33 -19 76 -43
95 -54 19 -10 72 -41 118 -68 45 -27 87 -49 92 -49 6 0 10 -4 10 -10 0 -5 4
-10 9 -10 9 0 53 -25 166 -93 17 -9 38 -20 48 -23 9 -4 17 -10 17 -15 0 -5 5
-9 11 -9 6 0 76 -38 156 -85 80 -47 149 -85 154 -85 5 0 9 -4 9 -9 0 -5 10
-12 23 -15 12 -3 33 -14 45 -24 l24 -18 0 -410 c0 -225 -1 -413 -2 -419 -1 -5
-2 -12 -1 -15 3 -7 3 -933 1 -945 -1 -5 -2 -12 -1 -15 3 -7 3 -933 1 -945 -1
-5 -2 -14 -1 -20 2 -9 3 -1243 2 -1270 -1 -5 -30 -25 -64 -43 -80 -41 -145
-106 -183 -180 -16 -31 -29 -59 -30 -62 0 -3 -4 -30 -9 -60 -18 -118 12 -248
73 -320 114 -134 241 -182 417 -157 73 10 147 51 211 114 113 115 149 277 94
438 -36 107 -148 218 -250 245 l-35 9 1 2094 1 2093 -55 32 c-29 18 -58 32
-63 32 -5 0 -9 5 -9 10 0 6 -4 10 -9 10 -6 0 -60 29 -121 65 -61 36 -130 76
-153 89 -23 13 -145 83 -272 156 -126 73 -266 154 -310 179 -44 25 -89 51
-100 58 -11 7 -27 16 -35 20 -8 4 -49 27 -90 51 -41 25 -90 53 -107 63 -18 11
-49 28 -68 39 -19 11 -51 29 -70 40 -81 46 -106 61 -222 129 -68 39 -125 71
-127 71 -3 0 -25 14 -49 30 -25 17 -48 30 -51 30 -3 0 -35 18 -71 40 -36 22
-68 40 -71 40 -3 0 -30 16 -60 35 -30 19 -56 35 -58 35 -2 0 -50 27 -105 60
-56 33 -106 60 -111 60 -6 0 -10 4 -10 8 0 4 -15 15 -32 23 -18 8 -118 65
-223 125 -104 61 -197 114 -205 117 -8 4 -28 16 -45 27 -16 11 -37 23 -45 27
-8 3 -26 14 -40 23 -14 9 -50 30 -80 47 -30 16 -111 63 -180 103 -69 41 -140
81 -158 91 -18 9 -38 22 -45 27 -7 5 -37 23 -67 39 -30 17 -76 42 -102 57 -26
14 -48 26 -50 25 -2 -1 -52 -30 -113 -66z"/>
<path d="M4219 8468 c-123 -71 -241 -139 -262 -150 -20 -11 -40 -24 -43 -29
-3 -5 -14 -9 -25 -9 -10 0 -19 -4 -19 -8 0 -5 -12 -15 -27 -23 -41 -21 -426
-242 -453 -259 -8 -6 -26 -16 -40 -22 -14 -7 -27 -15 -30 -18 -9 -9 -84 -51
-112 -63 -16 -6 -28 -15 -28 -19 0 -4 -4 -8 -10 -8 -5 0 -39 -18 -75 -40 -36
-22 -67 -40 -69 -40 -2 0 -48 -26 -103 -58 -54 -32 -105 -61 -113 -65 -8 -4
-28 -16 -45 -27 -16 -11 -37 -23 -45 -27 -8 -4 -37 -20 -65 -36 -27 -17 -63
-37 -80 -47 -61 -35 -365 -210 -530 -305 -93 -55 -180 -104 -192 -109 -13 -6
-23 -14 -23 -18 0 -5 -5 -8 -11 -8 -10 0 -124 -64 -179 -100 -8 -6 -21 -13
-29 -17 -8 -4 -75 -42 -149 -85 -74 -43 -136 -78 -139 -78 -28 0 -29 -50 -28
-2395 0 -1418 4 -2376 9 -2384 6 -10 5 -16 -3 -19 -32 -11 -123 -82 -156 -121
-75 -91 -105 -179 -100 -297 5 -124 71 -239 181 -315 120 -82 283 -96 409 -34
174 84 268 275 232 465 -7 37 -39 113 -54 128 -7 7 -13 17 -13 21 0 15 -93
100 -134 122 l-42 22 3 2301 c2 1266 5 2306 7 2312 4 10 220 141 301 182 17 9
35 21 41 27 6 6 30 19 53 29 22 11 41 23 41 28 0 4 4 8 10 8 5 0 74 38 153 85
80 46 159 92 176 102 16 10 115 68 218 128 103 61 194 111 201 113 6 2 12 8
12 13 0 6 4 8 9 5 5 -4 11 -3 13 1 3 8 105 73 114 73 3 0 40 21 81 46 42 25
90 54 107 64 17 9 120 70 230 134 109 64 200 116 202 116 2 0 23 14 47 30 25
17 48 30 51 30 4 0 25 12 49 27 23 15 51 33 62 39 86 48 128 72 183 106 34 21
64 38 66 38 1 0 63 36 136 80 127 75 135 79 157 65 34 -22 83 -52 126 -75 21
-12 52 -29 69 -40 l31 -18 -39 -21 c-22 -12 -52 -30 -69 -40 -28 -17 -170
-101 -240 -141 -106 -61 -212 -122 -225 -130 -42 -25 -320 -188 -360 -211 -25
-14 -92 -54 -148 -87 -57 -34 -106 -62 -108 -62 -2 0 -32 -18 -66 -40 -35 -22
-68 -40 -75 -40 -6 0 -13 -3 -15 -8 -1 -4 -68 -45 -148 -91 -80 -46 -161 -94
-180 -106 -19 -12 -69 -41 -110 -65 -79 -45 -284 -164 -310 -180 -8 -5 -55
-33 -105 -61 -49 -29 -123 -72 -163 -96 -40 -24 -77 -43 -82 -43 -6 0 -10 -4
-10 -10 0 -5 -11 -12 -25 -16 -14 -3 -25 -12 -25 -18 0 -10 111 -81 206 -132
11 -6 56 -33 100 -59 43 -27 84 -48 89 -48 9 0 98 50 302 169 17 11 69 41 115
68 46 27 93 54 105 60 13 6 23 15 23 19 0 5 4 6 9 3 5 -3 14 1 21 9 7 8 19 15
26 15 8 0 14 4 14 8 0 5 16 14 35 22 19 8 35 17 35 20 0 4 23 17 50 30 28 13
50 27 50 32 0 4 4 8 9 8 5 0 30 12 56 28 26 15 64 36 84 48 20 11 77 45 126
74 50 29 104 60 120 70 17 9 92 54 169 99 76 44 140 81 143 81 2 0 9 5 16 10
10 9 360 215 497 292 19 11 73 43 120 71 119 70 151 88 185 105 17 9 32 18 35
22 3 3 25 18 50 31 25 14 62 35 83 47 l38 22 43 -24 c80 -45 91 -51 96 -56 3
-3 26 -16 53 -30 26 -13 46 -29 44 -34 -1 -4 -84 -56 -182 -114 -99 -57 -193
-113 -210 -123 -16 -10 -37 -22 -45 -26 -8 -4 -55 -31 -103 -60 -48 -29 -89
-53 -91 -53 -2 0 -44 -24 -93 -54 -49 -29 -109 -64 -133 -78 -52 -30 -501
-292 -545 -319 -16 -10 -43 -26 -60 -35 -16 -9 -174 -101 -350 -204 -176 -103
-383 -224 -460 -269 -77 -44 -147 -86 -155 -91 -8 -6 -25 -15 -37 -22 -33 -17
-28 -31 20 -56 23 -12 60 -33 82 -47 22 -14 47 -28 55 -32 8 -4 49 -27 90 -53
139 -84 99 -90 345 54 119 69 220 126 226 126 5 0 9 4 9 8 0 4 19 18 43 30 23
12 49 26 57 32 36 24 290 170 295 170 3 0 11 5 18 11 11 9 554 330 587 346 44
22 256 148 261 156 3 5 8 7 10 6 4 -2 54 27 339 194 47 27 99 58 115 67 59 34
190 110 205 120 41 26 125 70 133 70 8 0 43 -20 148 -85 9 -5 34 -20 55 -32
35 -19 37 -22 19 -29 -11 -4 -22 -11 -25 -15 -3 -4 -21 -16 -40 -26 -53 -30
-281 -163 -312 -182 -64 -39 -145 -87 -168 -98 -14 -7 -38 -21 -55 -32 -45
-28 -254 -150 -305 -179 -25 -14 -57 -33 -72 -43 -14 -11 -29 -19 -32 -19 -4
0 -23 -11 -44 -24 -60 -38 -312 -186 -318 -186 -3 0 -17 -9 -32 -19 -15 -10
-74 -46 -132 -79 -58 -34 -110 -66 -117 -72 -7 -5 -15 -10 -18 -10 -6 0 -59
-30 -348 -202 -82 -48 -151 -88 -154 -88 -4 0 -14 -6 -22 -14 -9 -8 -38 -26
-66 -41 -27 -14 -83 -46 -123 -71 -41 -24 -77 -44 -82 -44 -4 0 -10 -6 -13
-14 -3 -8 7 -20 26 -29 18 -9 50 -28 72 -42 22 -14 47 -28 55 -32 8 -4 66 -37
129 -75 l114 -68 41 23 c23 12 43 24 46 27 3 3 14 10 25 16 55 30 121 67 225
129 102 60 369 215 457 266 17 10 50 29 72 43 22 15 45 26 50 26 5 0 14 7 21
15 7 8 21 15 30 15 10 0 20 4 22 8 4 10 245 152 259 152 5 0 9 5 9 10 0 6 5
10 10 10 6 0 43 20 83 44 39 24 92 54 117 68 25 14 149 86 275 160 539 315
736 428 745 428 5 0 10 5 10 10 0 6 5 10 11 10 15 0 248 -133 249 -141 0 -3
-20 -17 -45 -30 -25 -13 -45 -27 -45 -31 0 -5 -5 -8 -11 -8 -6 0 -48 -22 -93
-49 -44 -27 -97 -58 -116 -69 -19 -10 -144 -83 -277 -161 -134 -77 -245 -141
-248 -141 -3 0 -11 -5 -18 -11 -26 -22 -176 -106 -182 -101 -3 3 -5 0 -5 -6 0
-7 -4 -12 -10 -12 -5 0 -61 -31 -125 -70 -64 -38 -120 -70 -125 -70 -6 0 -10
-5 -10 -10 0 -6 -3 -9 -7 -8 -5 1 -19 -5 -33 -14 -22 -14 -298 -174 -373 -217
-16 -9 -36 -20 -45 -26 -21 -12 -525 -306 -550 -320 -109 -62 -182 -106 -182
-110 0 -2 25 -18 56 -37 53 -31 73 -43 164 -93 19 -11 37 -22 40 -25 11 -12
132 -80 142 -80 13 0 89 41 106 58 7 6 18 12 24 12 6 0 19 6 27 14 9 7 41 26
71 42 30 16 60 33 65 37 11 9 437 257 441 257 1 0 48 27 103 60 56 33 106 60
111 60 6 0 10 5 10 10 0 6 4 10 9 10 4 0 41 19 80 43 116 68 123 72 334 194
111 64 273 158 360 209 86 51 157 89 157 86 0 -4 4 -2 8 3 6 10 107 71 247
151 22 12 114 65 205 118 136 79 167 93 180 83 16 -13 35 -24 120 -70 30 -17
72 -41 92 -54 21 -13 42 -23 47 -23 5 0 11 -8 13 -17 2 -10 4 -800 3 -1756 0
-1509 2 -1737 14 -1732 8 3 69 38 135 78 67 39 124 70 129 69 4 -1 7 2 7 6 0
5 10 13 23 19 l22 10 0 1812 c0 1599 -2 1813 -15 1821 -8 6 -64 38 -125 72
-60 34 -112 64 -115 67 -3 4 -21 14 -40 25 -29 15 -117 66 -378 217 -15 9 -48
27 -74 42 -25 14 -64 37 -87 51 -22 14 -45 26 -50 26 -5 0 -11 3 -13 8 -1 4
-19 15 -38 26 -19 10 -106 60 -193 110 -86 50 -169 98 -184 106 -15 8 -67 39
-115 68 -49 28 -91 52 -94 52 -3 0 -18 8 -32 19 -15 10 -47 29 -72 43 -25 14
-61 34 -80 45 -111 64 -169 98 -205 118 -22 13 -144 83 -271 157 -126 74 -237
137 -245 141 -8 4 -27 15 -44 26 -16 10 -46 27 -65 38 -19 11 -75 44 -123 72
-49 28 -93 51 -98 51 -5 0 -9 5 -9 10 0 6 -4 10 -10 10 -5 0 -33 14 -62 31
-57 34 -97 57 -167 97 -25 14 -66 37 -92 52 l-47 28 -223 -130z"/>
<path d="M1985 4490 c0 -1808 0 -1820 20 -1833 11 -8 40 -25 65 -39 25 -14 70
-40 100 -58 30 -18 70 -41 88 -51 l32 -19 0 1825 0 1824 -97 57 c-54 31 -111
64 -128 73 -16 9 -32 19 -35 22 -3 4 -14 9 -25 13 -20 6 -20 2 -20 -1814z"/>
<path d="M6746 6230 c-76 -44 -143 -83 -148 -88 -6 -6 -10 -815 -10 -2171 l0
-2160 -46 -28 c-154 -90 -230 -281 -177 -445 79 -244 306 -375 522 -302 148
50 272 199 290 349 4 33 7 62 6 65 -1 3 -4 29 -8 58 -15 125 -140 279 -246
305 l-27 7 0 2232 c-1 2512 0 2258 -9 2257 -5 0 -71 -36 -147 -79z"/>
<path d="M2629 5923 c0 -5 0 -1121 -1 -2481 l0 -2472 -61 -30 c-63 -31 -125
-82 -163 -136 -28 -39 -56 -94 -48 -94 4 0 0 -7 -7 -17 -21 -25 -18 -185 4
-252 73 -216 309 -342 508 -273 178 63 295 215 303 394 4 91 -27 193 -77 254
-26 33 -97 94 -108 94 -4 0 -14 7 -22 15 -13 13 -15 310 -16 2397 0 1311 0
2397 0 2413 -1 25 -8 34 -33 47 -33 15 -119 63 -213 118 -52 31 -65 35 -66 23z
m206 -5179 c17 -8 41 -25 55 -37 27 -24 66 -87 54 -87 -3 0 -2 -6 3 -12 28
-37 -11 -164 -64 -209 -29 -23 -100 -49 -137 -49 -40 0 -112 29 -142 58 -41
39 -67 108 -61 162 16 149 163 236 292 174z"/>
<path d="M6195 5911 c-16 -10 -79 -47 -140 -81 -60 -35 -112 -67 -115 -71 -6
-8 -5 -3538 1 -3543 4 -3 224 115 244 131 6 4 21 13 35 19 l25 11 -1 1774 c0
1102 -4 1774 -10 1775 -5 1 -22 -6 -39 -15z"/>
<path d="M3303 3838 l0 -1700 38 -24 c21 -13 41 -24 43 -24 2 0 50 -27 105
-60 56 -33 105 -60 110 -60 6 0 9 692 9 1699 l0 1698 -135 79 c-75 43 -144 82
-153 86 -16 6 -17 -99 -17 -1694z"/>
<path d="M5418 5453 l-148 -86 0 -2283 0 -2283 -22 -7 c-35 -10 -109 -64 -145
-104 -108 -119 -127 -316 -45 -476 41 -81 135 -159 232 -192 80 -28 211 -24
295 10 40 15 125 76 148 105 10 13 24 29 31 36 26 27 67 139 72 199 4 35 6 65
7 68 0 3 -3 28 -8 55 -17 111 -113 241 -207 284 -25 11 -47 26 -50 33 -2 7 -4
1074 -3 2371 0 1296 -2 2357 -5 2357 -3 0 -71 -39 -152 -87z"/>
<path d="M3952 3443 c0 -945 -1 -1727 -1 -1739 -1 -14 -14 -26 -40 -38 -79
-34 -159 -132 -200 -242 -44 -116 -2 -301 92 -405 27 -30 111 -89 126 -89 6 0
11 -4 11 -8 0 -5 6 -9 13 -10 6 0 23 -4 37 -7 14 -4 59 -10 100 -12 120 -8
236 40 322 132 36 39 85 125 94 168 42 189 -33 369 -196 468 l-55 34 2 1647 1
1647 -138 81 c-77 44 -145 83 -153 86 -12 4 -14 -256 -15 -1713z"/>
<path d="M4890 5145 c-14 -8 -33 -18 -42 -21 -10 -3 -18 -10 -18 -15 0 -5 -3
-8 -7 -7 -8 2 -54 -21 -63 -31 -5 -6 -43 -28 -102 -58 -15 -8 -30 -18 -33 -23
-3 -4 -4 -635 -4 -1401 0 -767 1 -1402 1 -1411 -1 -10 2 -18 5 -18 6 0 157 82
238 130 l60 35 0 1412 c0 776 -2 1414 -5 1417 -3 3 -17 -1 -30 -9z"/>
</g>
</svg>
