<svg xmlns="http://www.w3.org/2000/svg" viewBox="0 0 572 399">
  <g fill="none">
    <g transform="translate(0 85)">
      <path fill="#E3EAFF" d="M461.834272,304.934241 L34.9054472,304.934241 C23.3995639,304.934241 14.0131855,296.358682 14.0131855,285.846705 L14.0131855,19.7277197 C14.0131855,9.21574319 23.3995639,0.640183373 34.9054472,0.640183373 L461.834272,0.640183373 C473.340155,0.640183373 482.726534,9.21574319 482.726534,19.7277197 L482.726534,285.846705 C482.726534,296.358682 473.340155,304.934241 461.834272,304.934241 Z"/>
      <path fill="#624FB5" d="M460.017554,300.784777 L36.7221656,300.784777 C27.6385735,300.784777 20.0689135,293.869003 20.0689135,285.570074 L20.0689135,19.4510888 C20.0689135,11.1521599 27.6385735,4.23638588 36.7221656,4.23638588 L460.017554,4.23638588 C469.101146,4.23638588 476.670806,11.1521599 476.670806,19.4510888 L476.670806,285.570074 C476.670806,294.145634 469.101146,300.784777 460.017554,300.784777 Z"/>
      <path fill="#DDD6FF" d="M446.694952,274.781467 L50.0447672,274.781467 C44.2918256,274.781467 39.7500296,270.632002 39.7500296,265.376014 L39.7500296,27.7500176 C39.7500296,22.4940294 44.2918256,18.3445649 50.0447672,18.3445649 L446.694952,18.3445649 C452.447894,18.3445649 456.98969,22.4940294 456.98969,27.7500176 L456.98969,265.376014 C456.98969,270.632002 452.447894,274.781467 446.694952,274.781467 Z"/>
      <path fill="#E3EAFF" d="M2.50730229,289.166277 C1.29615669,291.379324 0.387797487,293.869003 0.387797487,296.911943 C0.387797487,305.764134 8.2602439,312.956539 17.9494087,312.956539 L478.79031,312.956539 C488.479475,312.956539 496.351922,305.764134 496.351922,296.911943 C496.351922,294.145634 495.443562,291.655955 494.232417,289.166277 L2.50730229,289.166277 Z"/>
      <path fill="#C8D6F2" d="M2.50730229,304.380979 C5.5351663,309.360337 11.2881079,312.956539 17.9494087,312.956539 L478.79031,312.956539 C485.451611,312.956539 491.204553,309.636968 494.232417,304.380979 L2.50730229,304.380979 Z"/>
    </g>
    <path fill="#9570EE" d="M531.553719,259 L183.446281,259 C178.921488,259 175,255.703125 175,251.307292 L175,55.6927083 C175,51.5716146 178.619835,48 183.446281,48 L531.553719,48 C536.078512,48 540,51.296875 540,55.6927083 L540,251.307292 C540,255.428385 536.380165,259 531.553719,259 Z"/>
    <path fill="#424261" d="M106.019108,193 L69.9808917,193 C67.0509554,193 65,190.756098 65,188.231707 L65,151.768293 C65,148.963415 67.343949,147 69.9808917,147 L106.019108,147 C108.949045,147 111,149.243902 111,151.768293 L111,188.231707 C111,190.756098 108.656051,193 106.019108,193 Z" opacity=".2"/>
    <path fill="#6DB8FF" d="M103.019108 259L66.9808917 259C64.0509554 259 62 256.756098 62 254.231707L62 217.768293C62 214.963415 64.343949 213 66.9808917 213L103.019108 213C105.949045 213 108 215.243902 108 217.768293L108 254.231707C108 256.756098 105.656051 259 103.019108 259zM103.019108 324L66.9808917 324C64.0509554 324 62 321.756098 62 319.231707L62 282.768293C62 279.963415 64.343949 278 66.9808917 278L103.019108 278C105.949045 278 108 280.243902 108 282.768293L108 319.231707C108 321.756098 105.656051 324 103.019108 324z"/>
    <g transform="translate(73 284)">
      <path fill="#9570EE" d="M23.3333333,10.2692308 C23.3333333,4.61538462 18.0444444,0.307692308 11.8222222,0.307692308 C5.28888889,0.307692308 0.311111111,4.88461538 0.311111111,10.2692308 C0.311111111,10.2692308 -1.24444444,21.0384615 11.8222222,29.3846154 C24.8888889,20.7692308 23.3333333,10.2692308 23.3333333,10.2692308 Z"/>
      <path fill="#F9FBFC" d="M12.4444444,17.5384615 C7.15555556,17.8076923 3.11111111,14.0384615 3.42222222,9.73076923 C3.73333333,6.23076923 7.15555556,3.26923077 11.2,3 C16.4888889,2.73076923 20.5333333,6.5 20.2222222,10.8076923 C19.6,14.3076923 16.4888889,17.2692308 12.4444444,17.5384615 Z"/>
    </g>
    <g transform="translate(70 220)">
      <path fill="#9570EE" d="M33.3651106,14.3404306 C33.3651106,22.1870813 26.0638821,28.4102871 16.8579853,28.4102871 C7.65208845,28.4102871 0.350859951,22.1870813 0.350859951,14.3404306 C0.350859951,6.4937799 7.65208845,0.270574163 16.8579853,0.270574163 C26.0638821,0.270574163 33.3651106,6.76435407 33.3651106,14.3404306 Z"/>
      <path fill="#F9FBFC" d="M30.1906634,14.3404306 C30.1906634,20.5636364 24.1592138,25.7045455 16.8579853,25.7045455 C9.55675676,25.7045455 3.52530713,20.5636364 3.52530713,14.3404306 C3.52530713,8.11722488 9.55675676,2.97631579 16.8579853,2.97631579 C24.4766585,3.24688995 30.1906634,8.11722488 30.1906634,14.3404306 Z"/>
      <path fill="#BB87EE" d="M17.17543,3.24688995 C23.2068796,3.24688995 28.2859951,6.76435407 29.8732187,11.3641148 C29.8732187,11.634689 30.1906634,11.634689 30.5081081,11.634689 C30.8255528,11.634689 31.1429975,11.3641148 31.1429975,11.0935407 C29.2383292,5.95263158 23.841769,2.43516746 17.4928747,2.43516746 C11.1439803,2.43516746 5.42997543,6.22320574 3.84275184,11.0935407 C3.84275184,11.3641148 3.84275184,11.634689 4.47764128,11.634689 C4.795086,11.634689 4.795086,11.634689 5.11253071,11.3641148 C6.06486486,6.4937799 11.1439803,3.24688995 17.17543,3.24688995 Z"/>
      <path fill="#7F57EE" d="M31.777887,14.8815789 C31.1429975,14.8815789 30.1906634,15.4227273 30.1906634,15.9638756 C29.2383292,21.3753589 23.841769,25.7045455 17.17543,25.7045455 C10.5090909,25.7045455 4.795086,21.3753589 4.16019656,15.9638756 C4.16019656,15.4227273 3.52530713,14.8815789 2.57297297,14.8815789 C1.62063882,14.8815789 0.985749386,15.6933014 0.985749386,16.5050239 C1.93808354,23.269378 8.92186732,28.6808612 17.17543,28.6808612 C25.4289926,28.6808612 32.4127764,23.5399522 33.3651106,16.5050239 C33.3651106,15.4227273 32.7302211,14.8815789 31.777887,14.8815789 Z"/>
      <path fill="#F9FBFC" d="M30.1906634,14.3404306 C30.1906634,20.5636364 24.1592138,25.7045455 16.8579853,25.7045455 C9.55675676,25.7045455 3.52530713,20.5636364 3.52530713,14.3404306 C3.52530713,8.11722488 9.55675676,2.97631579 16.8579853,2.97631579 C24.4766585,3.24688995 30.1906634,8.11722488 30.1906634,14.3404306 Z"/>
      <path fill="#9570EE" d="M29.8732187 18.1284689C29.555774 18.1284689 29.555774 18.1284689 29.2383292 18.3990431 27.3336609 22.7282297 22.5719902 25.7045455 16.8579853 25.7045455 11.1439803 25.7045455 6.38230958 22.7282297 4.47764128 18.3990431 4.47764128 18.1284689 4.16019656 18.1284689 3.84275184 18.1284689 3.52530713 18.1284689 3.20786241 18.3990431 3.20786241 18.6696172 5.11253071 23.269378 10.5090909 26.5162679 16.5405405 26.5162679 22.5719902 26.5162679 27.9685504 23.269378 29.8732187 18.6696172 30.5081081 18.3990431 30.5081081 18.1284689 29.8732187 18.1284689zM17.17543 15.4227273C16.8579853 15.4227273 16.5405405 15.1521531 16.5405405 14.8815789L16.5405405 7.03492823C16.5405405 6.76435407 16.8579853 6.4937799 17.17543 6.4937799 17.4928747 6.4937799 17.8103194 6.76435407 17.8103194 7.03492823L17.8103194 14.8815789C17.8103194 15.1521531 17.4928747 15.4227273 17.17543 15.4227273z"/>
      <path fill="#9570EE" d="M16.5405405,14.6110048 C16.8579853,14.3404306 17.17543,14.3404306 17.4928747,14.6110048 L23.2068796,18.6696172 C23.5243243,18.9401914 23.5243243,19.2107656 23.2068796,19.4813397 C22.8894349,19.7519139 22.5719902,19.7519139 22.2545455,19.4813397 L16.5405405,15.4227273 C16.5405405,15.1521531 16.2230958,14.8815789 16.5405405,14.6110048 Z"/>
      <g fill="#CED6FF" transform="translate(16.791 3.469)">
        <rect width="1" height="1.082" x=".067" y=".59"/>
        <rect width="1" height="1.082" x=".067" y="20.342"/>
      </g>
      <g fill="#CED6FF" transform="translate(4.093 13.112)">
        <rect width="1" height="1.082" x=".716" y=".471" transform="rotate(-90 1.216 1.012)"/>
        <rect width="1" height="1.082" x="23.91" y=".489" transform="rotate(-90 24.41 1.03)"/>
      </g>
      <g fill="#CED6FF" transform="translate(8.163 5.758)">
        <rect width="1" height="1.082" x=".261" y=".807" transform="rotate(-44.976 .76 1.349)"/>
        <rect width="1" height="1.082" x="16.586" y="14.975" transform="rotate(-45 17.086 15.516)"/>
      </g>
      <g fill="#CED6FF" transform="translate(7.268 6.486)">
        <rect width="1" height="1.082" x=".674" y="14.083" transform="rotate(-135 1.174 14.624)"/>
        <rect width="1" height="1.082" x="17.266" y=".295" transform="rotate(-135.024 17.766 .837)"/>
      </g>
    </g>
    <g transform="translate(5 145)">
      <path fill="#6DB8FF" d="M100.503518,45.4547001 L62.9442267,45.4547001 C59.8906257,45.4547001 57.7531051,43.2373976 57.7531051,40.7429324 L57.7531051,4.71176769 C57.7531051,1.94013964 60.1959858,2.84217094e-14 62.9442267,2.84217094e-14 L100.503518,2.84217094e-14 C103.557119,2.84217094e-14 105.69464,2.21730244 105.69464,4.71176769 L105.69464,40.7429324 C105.69464,43.2373976 103.251759,45.4547001 100.503518,45.4547001 Z"/>
      <g transform="translate(0 23.752)">
        <polyline fill="#F7D3A9" points="55.31 16.991 59.28 14.497 61.112 8.676 59.28 8.122 58.058 10.339 59.28 .084 57.142 .638 55.31 10.339 52.867 15.051 55.005 16.437"/>
        <polygon fill="#F7D3A9" points="78.823 27.8 79.434 23.366 85.236 18.1 86.457 19.763 84.319 21.98 95.312 19.485 95.312 21.703 85.236 25.306 83.098 28.632"/>
        <g transform="translate(0 13.069)">
          <polygon fill="#544DB8" points="6.453 121.162 28.133 217.061 44.623 215.398 33.324 211.794 37.599 210.686 31.797 121.162"/>
          <path fill="#544DB8" d="M40.9582999,119.499215 C40.9582999,119.499215 68.4407084,142.780891 64.1656671,170.774334 C59.5852656,192.947359 49.5083825,201.539406 49.5083825,201.539406 L46.4547816,200.98508 L51.035183,211.79443 L37.9046989,199.044941 C37.9046989,199.044941 54.0887839,178.812056 44.0119008,157.747683 C33.9350177,136.683309 11.9490909,129.199914 11.9490909,129.199914 C11.9490909,129.199914 30.8814168,113.678797 32.1028571,114.233122 C33.9350177,114.787448 40.9582999,119.499215 40.9582999,119.499215 Z"/>
          <path fill="#FE9887" d="M52.5619835,0.319209175 C52.5619835,0.319209175 7.36868949,49.9313513 2.17756789,59.9092123 C2.17756789,59.9092123 0.0400472255,63.5123288 0.0400472255,73.7673526 C0.0400472255,84.0223763 4.00972845,122.270843 4.00972845,122.270843 L49.8137426,124.765309 C49.8137426,124.765309 34.851098,78.2019574 34.5457379,77.0933062 C34.2403778,75.984655 26.6063754,68.7784221 19.5830933,67.1154452 L58.0584652,3.92232564 L52.5619835,0.319209175 Z"/>
          <g fill="#F7D3A9" transform="translate(11.338 37.61)">
            <path d="M12.825124,24.516466 C12.825124,24.516466 14.6572845,29.7825593 15.8787249,32.8313501 C15.8787249,32.8313501 6.41256198,32.5541873 3.05360094,28.673908 L6.41256198,21.1905123 L12.825124,24.516466 Z"/>
            <path d="M19.8484061,8.44102327 C19.8484061,8.44102327 22.596647,23.1306519 19.8484061,26.4566056 C17.1001653,29.7825593 7.63400236,24.2393032 3.66432113,18.6960471 C-0.305360094,13.4299538 -1.22144038,1.23479033 5.4964817,0.403301915 C12.5197639,-0.428186501 18.3216057,3.17492997 19.8484061,8.44102327 Z"/>
          </g>
          <path fill="#FE9887" d="M26.9117355,73.2130269 C26.9117355,73.2130269 62.9442267,52.7029794 65.9978276,48.2683745 C69.0514286,44.1109324 76.990791,12.5143726 76.990791,12.5143726 L84.0140732,14.1773494 C84.0140732,14.1773494 80.044392,49.3770257 78.8229516,52.9801422 C77.6015112,56.5832586 42.1797403,90.9514465 33.9350177,90.9514465 C25.6902952,91.2286093 22.9420543,81.8050739 26.9117355,73.2130269 Z"/>
          <path fill="#544DB8" d="M11.6437308,38.8448391 C11.6437308,38.8448391 16.5294923,32.7472574 24.7742149,34.4102342 C33.3242975,35.7960482 35.4618182,34.1330714 35.4618182,34.1330714 C35.4618182,34.1330714 33.6296576,42.4479556 27.8278158,44.3880952 C22.025974,46.3282348 20.4991736,45.7739092 20.4991736,45.7739092 C20.4991736,45.7739092 23.5527745,48.5455373 24.4688548,50.7628397 C25.3849351,52.9801422 21.7206139,47.9912117 20.4991736,49.9313513 C19.2777332,51.5943281 20.4991736,55.1974446 23.2474144,54.9202818 C25.9956553,54.643119 24.1634947,56.5832586 23.2474144,58.5233983 C22.3313341,60.4635379 20.4991736,62.9580032 18.9723731,62.1265147 C17.4455726,61.2950263 11.9490909,58.5233983 9.81157025,52.4258166 C7.67404959,46.3282348 7.0633294,40.7849787 11.6437308,38.8448391 Z"/>
        </g>
      </g>
    </g>
    <path fill="#E3EAFF" d="M303.132231,238 L202.867769,238 C200.785124,238 199,236.352941 199,234.431373 L199,73.5686275 C199,71.6470588 200.785124,70 202.867769,70 L303.132231,70 C305.214876,70 307,71.6470588 307,73.5686275 L307,234.431373 C307,236.352941 305.512397,238 303.132231,238 Z"/>
    <path fill="#00C0CD" d="M283.971897 99L219.989817 99C218.195927 99 217 97.627451 217 96.254902L217 87.745098C217 86.0980392 218.494908 85 219.989817 85L283.971897 85C285.765787 85 286.961714 86.372549 286.961714 87.745098L286.961714 96.254902C287.260695 97.627451 285.765787 99 283.971897 99zM238.252874 177L224.747126 177C221.586207 177 219 174.975 219 172.5 219 170.025 221.586207 168 224.747126 168L238.252874 168C241.413793 168 244 170.025 244 172.5 244 174.975 241.413793 177 238.252874 177zM281.252874 177L267.747126 177C264.586207 177 262 174.975 262 172.5 262 170.025 264.586207 168 267.747126 168L281.252874 168C284.413793 168 287 170.025 287 172.5 287 174.975 284.413793 177 281.252874 177z"/>
    <rect width="78" height="9" x="215" y="112" fill="#F9FBFC"/>
    <rect width="78" height="9" x="215" y="131" fill="#F9FBFC"/>
    <rect width="44" height="3" x="231" y="148" fill="#CDD4FF"/>
    <path fill="#624FB5" d="M531.589928,208 L394.410072,208 C385.94964,208 379,201.460784 379,193.5 C379,185.539216 385.94964,179 394.410072,179 L531.589928,179 C540.05036,179 547,185.539216 547,193.5 C547,201.745098 540.05036,208 531.589928,208 Z"/>
    <g transform="translate(317 66)">
      <path fill="#E3EAFF" d="M97.9992187,21.6903704 L12.4359375,21.6903704 C5.48203125,21.6903704 0.03984375,16.7362963 0.03984375,11 C0.03984375,5.00296296 5.784375,0.30962963 12.4359375,0.30962963 L97.9992187,0.30962963 C104.953125,0.30962963 110.395312,5.2637037 110.395312,11 C110.395312,16.7362963 104.650781,21.6903704 97.9992187,21.6903704 Z"/>
      <path fill="#FFC240" d="M32.6929687,10.7392593 C32.6929687,12.5644444 30.8789062,14.1288889 28.7625,14.1288889 C26.6460937,14.1288889 24.8320312,12.5644444 24.8320312,10.7392593 C24.8320312,8.91407407 26.6460937,7.34962963 28.7625,7.34962963 C31.18125,7.34962963 32.6929687,8.91407407 32.6929687,10.7392593 Z"/>
      <path fill="#90C240" d="M59.6015625,10.7392593 C59.6015625,12.5644444 57.7875,14.1288889 55.6710937,14.1288889 C53.5546875,14.1288889 51.740625,12.5644444 51.740625,10.7392593 C51.740625,8.91407407 53.5546875,7.34962963 55.6710937,7.34962963 C57.7875,7.34962963 59.6015625,8.91407407 59.6015625,10.7392593 Z"/>
      <path fill="#EB4F24" d="M84.39375,10.7392593 C84.39375,12.5644444 82.5796875,14.1288889 80.4632812,14.1288889 C78.346875,14.1288889 76.5328125,12.5644444 76.5328125,10.7392593 C76.5328125,8.91407407 78.346875,7.34962963 80.4632812,7.34962963 C82.8820312,7.34962963 84.39375,8.91407407 84.39375,10.7392593 Z"/>
    </g>
    <g transform="translate(70 155)">
      <ellipse cx="15.337" cy="14.891" fill="#FFF" rx="9.754" ry="9.164"/>
      <path fill="#9570EE" d="M25.0909091,4.00909091 L23.2620321,4.00909091 L20.8235294,0.859090909 C20.5187166,0.572727273 20.2139037,0.572727273 19.9090909,0.572727273 L10.1550802,0.572727273 C9.85026738,0.572727273 9.54545455,0.859090909 9.24064171,0.859090909 L6.80213904,4.00909091 L4.97326203,4.00909091 C2.22994652,4.00909091 0.0962566845,6.01363636 0.0962566845,8.59090909 L0.0962566845,21.7636364 C0.0962566845,24.3409091 2.22994652,26.3454545 4.97326203,26.3454545 L24.4812834,26.3454545 C27.2245989,26.3454545 29.3582888,24.3409091 29.3582888,21.7636364 L29.3582888,8.59090909 C29.9679144,6.01363636 27.8342246,4.00909091 25.0909091,4.00909091 Z M15.3368984,21.4772727 C11.3743316,21.4772727 8.32620321,18.6136364 8.32620321,14.8909091 C8.32620321,11.1681818 11.3743316,8.30454545 15.3368984,8.30454545 C19.2994652,8.30454545 22.3475936,11.1681818 22.3475936,14.8909091 C22.3475936,18.6136364 19.2994652,21.4772727 15.3368984,21.4772727 Z"/>
      <ellipse cx="15.337" cy="14.891" fill="#6DB8FF" rx="4.572" ry="4.295"/>
    </g>
    <g transform="translate(351 112)">
      <path fill="#E3EAFF" d="M77.2670103,49.6396761 L5.98969072,49.6396761 C2.69536082,49.6396761 0,47.1983806 0,44.2145749 L0,5.69635628 C0,2.71255061 2.69536082,0.271255061 5.98969072,0.271255061 L76.9675258,0.271255061 C80.2618557,0.271255061 82.9572165,2.71255061 82.9572165,5.69635628 L82.9572165,44.2145749 C83.256701,47.1983806 80.5613402,49.6396761 77.2670103,49.6396761 Z"/>
      <path fill="#FD4940" d="M41.6283505,24.6842105 C41.0293814,24.6842105 40.7298969,24.6842105 40.4304124,24.4129555 L8.38556701,8.13765182 C7.18762887,7.5951417 6.88814433,6.51012146 7.4871134,5.42510121 C8.08608247,4.34008097 9.28402062,4.06882591 10.4819588,4.61133603 L41.6283505,20.3441296 L72.7747423,4.61133603 C73.9726804,4.06882591 75.1706186,4.34008097 75.7695876,5.42510121 C76.3685567,6.51012146 76.0690722,7.5951417 74.871134,8.13765182 L42.8262887,24.4129555 C42.5268041,24.4129555 42.2273196,24.6842105 41.6283505,24.6842105 Z"/>
    </g>
    <path fill="#544DB8" d="M552.55814,158 L459.44186,158 C456.418605,158 454,155.775785 454,152.995516 L454,39.0044843 C454,36.2242152 456.418605,34 459.44186,34 L552.55814,34 C555.581395,34 558,36.2242152 558,39.0044843 L558,152.995516 C558,155.775785 555.581395,158 552.55814,158 Z"/>
    <g transform="translate(468 48)">
      <path fill="#0CF" d="M7.38028169 2.45853659L.623742455 2.45853659C.329979879 2.45853659.0362173038 1.91219512.0362173038 1.36585366.0362173038.819512195.329979879.273170732.623742455.273170732L7.38028169.273170732C7.67404427.273170732 7.96780684.819512195 7.96780684 1.36585366 7.96780684 1.91219512 7.67404427 2.45853659 7.38028169 2.45853659zM49.0945674 2.45853659L10.61167 2.45853659C10.3179074 2.45853659 10.0241449 1.91219512 10.0241449 1.36585366 10.0241449.819512195 10.3179074.273170732 10.61167.273170732L49.0945674.273170732C49.38833.273170732 49.6820926.819512195 49.6820926 1.36585366 49.6820926 1.91219512 49.38833 2.45853659 49.0945674 2.45853659z"/>
      <path fill="#FF56A9" d="M22.9496982,7.37560976 L10.61167,7.37560976 C10.3179074,7.37560976 10.0241449,6.82926829 10.0241449,6.28292683 C10.0241449,5.73658537 10.3179074,5.1902439 10.61167,5.1902439 L22.9496982,5.1902439 C23.2434608,5.1902439 23.5372233,5.73658537 23.5372233,6.28292683 C23.5372233,6.82926829 23.2434608,7.37560976 22.9496982,7.37560976 Z"/>
      <path fill="#E3EAFF" d="M43.2193159 7.37560976L25.5935614 7.37560976C25.2997988 7.37560976 25.0060362 6.82926829 25.0060362 6.28292683 25.0060362 5.73658537 25.2997988 5.1902439 25.5935614 5.1902439L43.2193159 5.1902439C43.5130785 5.1902439 43.806841 5.73658537 43.806841 6.28292683 43.806841 6.82926829 43.5130785 7.37560976 43.2193159 7.37560976zM49.0945674 31.6878049L10.61167 31.6878049C10.3179074 31.6878049 10.0241449 31.1414634 10.0241449 30.595122 10.0241449 30.0487805 10.3179074 29.502439 10.61167 29.502439L49.0945674 29.502439C49.38833 29.502439 49.6820926 30.0487805 49.6820926 30.595122 49.6820926 31.1414634 49.38833 31.6878049 49.0945674 31.6878049z"/>
      <path fill="#0CF" d="M7.38028169,36.8780488 L0.623742455,36.8780488 C0.329979879,36.8780488 0.0362173038,36.3317073 0.0362173038,35.7853659 C0.0362173038,35.2390244 0.329979879,34.6926829 0.623742455,34.6926829 L7.38028169,34.6926829 C7.67404427,34.6926829 7.96780684,35.2390244 7.96780684,35.7853659 C7.96780684,36.3317073 7.67404427,36.8780488 7.38028169,36.8780488 Z"/>
      <path fill="#E3EAFF" d="M22.9496982,36.8780488 L10.61167,36.8780488 C10.3179074,36.8780488 10.0241449,36.3317073 10.0241449,35.7853659 C10.0241449,35.2390244 10.3179074,34.6926829 10.61167,34.6926829 L22.9496982,34.6926829 C23.2434608,34.6926829 23.5372233,35.2390244 23.5372233,35.7853659 C23.5372233,36.3317073 23.2434608,36.8780488 22.9496982,36.8780488 Z"/>
      <path fill="#FF56A9" d="M43.2193159 36.8780488L25.5935614 36.8780488C25.2997988 36.8780488 25.0060362 36.3317073 25.0060362 35.7853659 25.0060362 35.2390244 25.2997988 34.6926829 25.5935614 34.6926829L43.2193159 34.6926829C43.5130785 34.6926829 43.806841 35.2390244 43.806841 35.7853659 43.806841 36.3317073 43.5130785 36.8780488 43.2193159 36.8780488zM58.7887324 12.2926829L10.61167 12.2926829C10.3179074 12.2926829 10.0241449 11.7463415 10.0241449 11.2 10.0241449 10.6536585 10.3179074 10.1073171 10.61167 10.1073171L58.7887324 10.1073171C59.082495 10.1073171 59.3762575 10.6536585 59.3762575 11.2 59.3762575 11.7463415 59.082495 12.2926829 58.7887324 12.2926829z"/>
      <path fill="#0CF" d="M48.5070423,17.4829268 L37.3440644,17.4829268 C37.0503018,17.4829268 36.7565392,17.2097561 36.7565392,16.9365854 L36.7565392,15.8439024 C36.7565392,15.5707317 37.0503018,15.297561 37.3440644,15.297561 L48.5070423,15.297561 C48.8008048,15.297561 49.0945674,15.5707317 49.0945674,15.8439024 L49.0945674,16.9365854 C49.38833,17.2097561 49.0945674,17.4829268 48.5070423,17.4829268 Z"/>
      <path fill="#E3EAFF" d="M26.4748491,17.4829268 L10.61167,17.4829268 C10.3179074,17.4829268 10.0241449,16.9365854 10.0241449,16.3902439 C10.0241449,15.8439024 10.3179074,15.297561 10.61167,15.297561 L26.4748491,15.297561 C26.7686117,15.297561 27.0623742,15.8439024 27.0623742,16.3902439 C27.0623742,16.9365854 27.0623742,17.4829268 26.4748491,17.4829268 Z"/>
      <path fill="#0CF" d="M34.9939638,17.4829268 L28.5311871,17.4829268 C28.2374245,17.4829268 27.943662,16.9365854 27.943662,16.3902439 C27.943662,15.8439024 28.2374245,15.297561 28.5311871,15.297561 L34.9939638,15.297561 C35.2877264,15.297561 35.5814889,15.8439024 35.5814889,16.3902439 C35.5814889,16.9365854 35.2877264,17.4829268 34.9939638,17.4829268 Z"/>
      <path fill="#E3EAFF" d="M7.38028169 22.1268293L.623742455 22.1268293C.329979879 22.1268293.0362173038 21.5804878.0362173038 21.0341463.0362173038 20.4878049.329979879 19.9414634.623742455 19.9414634L7.38028169 19.9414634C7.67404427 19.9414634 7.96780684 20.4878049 7.96780684 21.0341463 7.96780684 21.5804878 7.67404427 22.1268293 7.38028169 22.1268293zM58.7887324 22.1268293L10.61167 22.1268293C10.3179074 22.1268293 10.0241449 21.5804878 10.0241449 21.0341463 10.0241449 20.4878049 10.3179074 19.9414634 10.61167 19.9414634L58.7887324 19.9414634C59.082495 19.9414634 59.3762575 20.4878049 59.3762575 21.0341463 59.3762575 21.5804878 59.082495 22.1268293 58.7887324 22.1268293zM7.38028169 41.5219512L.623742455 41.5219512C.329979879 41.5219512.0362173038 40.9756098.0362173038 40.4292683.0362173038 39.8829268.329979879 39.3365854.623742455 39.3365854L7.38028169 39.3365854C7.67404427 39.3365854 7.96780684 39.8829268 7.96780684 40.4292683 7.96780684 40.9756098 7.67404427 41.5219512 7.38028169 41.5219512zM53.2072435 41.5219512L37.3440644 41.5219512C36.7565392 41.5219512 36.4627767 41.2487805 36.4627767 40.702439L36.4627767 39.8829268C36.4627767 39.3365854 36.7565392 39.0634146 37.3440644 39.0634146L53.2072435 39.0634146C53.7947686 39.0634146 54.0885312 39.3365854 54.0885312 39.8829268L54.0885312 40.702439C54.0885312 41.2487805 53.7947686 41.5219512 53.2072435 41.5219512zM26.4748491 41.5219512L10.61167 41.5219512C10.3179074 41.5219512 10.0241449 40.9756098 10.0241449 40.4292683 10.0241449 39.8829268 10.3179074 39.3365854 10.61167 39.3365854L26.4748491 39.3365854C26.7686117 39.3365854 27.0623742 39.8829268 27.0623742 40.4292683 27.0623742 40.9756098 27.0623742 41.5219512 26.4748491 41.5219512zM34.9939638 41.5219512L28.5311871 41.5219512C28.2374245 41.5219512 27.943662 40.9756098 27.943662 40.4292683 27.943662 39.8829268 28.2374245 39.3365854 28.5311871 39.3365854L34.9939638 39.3365854C35.2877264 39.3365854 35.5814889 39.8829268 35.5814889 40.4292683 35.5814889 40.9756098 35.2877264 41.5219512 34.9939638 41.5219512z"/>
      <path fill="#FFC359" d="M7.38028169,46.1658537 L0.623742455,46.1658537 C0.329979879,46.1658537 0.0362173038,45.6195122 0.0362173038,45.0731707 C0.0362173038,44.5268293 0.329979879,43.9804878 0.623742455,43.9804878 L7.38028169,43.9804878 C7.67404427,43.9804878 7.96780684,44.5268293 7.96780684,45.0731707 C7.96780684,45.8926829 7.67404427,46.1658537 7.38028169,46.1658537 Z"/>
      <path fill="#0CF" d="M18.8370221 46.1658537L10.61167 46.1658537C10.3179074 46.1658537 10.0241449 45.6195122 10.0241449 45.0731707 10.0241449 44.5268293 10.3179074 43.9804878 10.61167 43.9804878L18.8370221 43.9804878C19.1307847 43.9804878 19.4245473 44.5268293 19.4245473 45.0731707 19.4245473 45.8926829 19.1307847 46.1658537 18.8370221 46.1658537zM.623742455 27.3170732C.329979879 27.3170732.0362173038 26.7707317.0362173038 26.2243902.0362173038 25.6780488.329979879 25.1317073.623742455 25.1317073L7.38028169 25.1317073C7.67404427 25.1317073 7.96780684 25.6780488 7.96780684 26.2243902 7.96780684 26.7707317 7.67404427 27.3170732 7.38028169 27.3170732"/>
      <path fill="#E3EAFF" d="M55.5573441,27.3170732 L37.637827,27.3170732 C37.0503018,27.3170732 36.7565392,27.0439024 36.7565392,26.497561 L36.7565392,25.6780488 C36.7565392,25.1317073 37.0503018,24.8585366 37.637827,24.8585366 L55.5573441,24.8585366 C56.1448692,24.8585366 56.4386318,25.1317073 56.4386318,25.6780488 L56.4386318,26.497561 C56.4386318,27.0439024 56.1448692,27.3170732 55.5573441,27.3170732 Z"/>
      <path fill="#FFC359" d="M26.4748491 27.3170732L10.61167 27.3170732C10.3179074 27.3170732 10.0241449 26.7707317 10.0241449 26.2243902 10.0241449 25.6780488 10.3179074 25.1317073 10.61167 25.1317073L26.4748491 25.1317073C26.7686117 25.1317073 27.0623742 25.6780488 27.0623742 26.2243902 27.0623742 26.7707317 27.0623742 27.3170732 26.4748491 27.3170732zM34.9939638 27.3170732L28.5311871 27.3170732C28.2374245 27.3170732 27.943662 26.7707317 27.943662 26.2243902 27.943662 25.6780488 28.2374245 25.1317073 28.5311871 25.1317073L34.9939638 25.1317073C35.2877264 25.1317073 35.5814889 25.6780488 35.5814889 26.2243902 35.5814889 26.7707317 35.2877264 27.3170732 34.9939638 27.3170732z"/>
      <path fill="#E3EAFF" d="M49.0945674 51.3560976L10.61167 51.3560976C10.3179074 51.3560976 10.0241449 50.8097561 10.0241449 50.2634146 10.0241449 49.7170732 10.3179074 49.1707317 10.61167 49.1707317L49.0945674 49.1707317C49.38833 49.1707317 49.6820926 49.7170732 49.6820926 50.2634146 49.6820926 50.8097561 49.38833 51.3560976 49.0945674 51.3560976zM22.9496982 56.5463415L10.61167 56.5463415C10.3179074 56.5463415 10.0241449 56 10.0241449 55.4536585 10.0241449 54.9073171 10.3179074 54.3609756 10.61167 54.3609756L22.9496982 54.3609756C23.2434608 54.3609756 23.5372233 54.9073171 23.5372233 55.4536585 23.5372233 56 23.2434608 56.5463415 22.9496982 56.5463415zM43.2193159 56.5463415L25.5935614 56.5463415C25.2997988 56.5463415 25.0060362 56 25.0060362 55.4536585 25.0060362 54.9073171 25.2997988 54.3609756 25.5935614 54.3609756L43.2193159 54.3609756C43.5130785 54.3609756 43.806841 54.9073171 43.806841 55.4536585 43.806841 56 43.5130785 56.5463415 43.2193159 56.5463415zM49.0945674 80.8585366L10.61167 80.8585366C10.3179074 80.8585366 10.0241449 80.3121951 10.0241449 79.7658537 10.0241449 79.2195122 10.3179074 78.6731707 10.61167 78.6731707L49.0945674 78.6731707C49.38833 78.6731707 49.6820926 79.2195122 49.6820926 79.7658537 49.6820926 80.3121951 49.38833 80.8585366 49.0945674 80.8585366z"/>
      <path fill="#FF56A9" d="M7.38028169,85.7756098 L0.623742455,85.7756098 C0.329979879,85.7756098 0.0362173038,85.2292683 0.0362173038,84.6829268 C0.0362173038,84.1365854 0.329979879,83.5902439 0.623742455,83.5902439 L7.38028169,83.5902439 C7.67404427,83.5902439 7.96780684,84.1365854 7.96780684,84.6829268 C7.96780684,85.2292683 7.67404427,85.7756098 7.38028169,85.7756098 Z"/>
      <path fill="#0CF" d="M22.9496982,85.7756098 L10.61167,85.7756098 C10.3179074,85.7756098 10.0241449,85.2292683 10.0241449,84.6829268 C10.0241449,84.1365854 10.3179074,83.5902439 10.61167,83.5902439 L22.9496982,83.5902439 C23.2434608,83.5902439 23.5372233,84.1365854 23.5372233,84.6829268 C23.5372233,85.2292683 23.2434608,85.7756098 22.9496982,85.7756098 Z"/>
      <path fill="#E3EAFF" d="M43.2193159,85.7756098 L25.5935614,85.7756098 C25.2997988,85.7756098 25.0060362,85.2292683 25.0060362,84.6829268 C25.0060362,84.1365854 25.2997988,83.5902439 25.5935614,83.5902439 L43.2193159,83.5902439 C43.5130785,83.5902439 43.806841,84.1365854 43.806841,84.6829268 C43.806841,85.2292683 43.5130785,85.7756098 43.2193159,85.7756098 Z"/>
      <path fill="#FF56A9" d="M7.38028169 61.4634146L.623742455 61.4634146C.329979879 61.4634146.0362173038 60.9170732.0362173038 60.3707317.0362173038 59.8243902.329979879 59.2780488.623742455 59.2780488L7.38028169 59.2780488C7.67404427 59.2780488 7.96780684 59.8243902 7.96780684 60.3707317 7.96780684 60.9170732 7.67404427 61.4634146 7.38028169 61.4634146zM44.9818913 61.4634146L10.61167 61.4634146C10.3179074 61.4634146 9.73038229 61.1902439 9.73038229 60.6439024L9.73038229 59.5512195C9.73038229 59.2780488 10.0241449 58.7317073 10.61167 58.7317073L44.9818913 58.7317073C45.2756539 58.7317073 45.8631791 59.004878 45.8631791 59.5512195L45.8631791 60.6439024C45.8631791 61.1902439 45.5694165 61.4634146 44.9818913 61.4634146z"/>
      <path fill="#E3EAFF" d="M7.38028169 66.3804878L.623742455 66.3804878C.329979879 66.3804878.0362173038 65.8341463.0362173038 65.2878049.0362173038 64.7414634.329979879 64.195122.623742455 64.195122L7.38028169 64.195122C7.67404427 64.195122 7.96780684 64.7414634 7.96780684 65.2878049 7.96780684 65.8341463 7.67404427 66.3804878 7.38028169 66.3804878zM26.4748491 66.3804878L10.61167 66.3804878C10.3179074 66.3804878 10.0241449 65.8341463 10.0241449 65.2878049 10.0241449 64.7414634 10.3179074 64.195122 10.61167 64.195122L26.4748491 64.195122C26.7686117 64.195122 27.0623742 64.7414634 27.0623742 65.2878049 27.0623742 65.8341463 27.0623742 66.3804878 26.4748491 66.3804878zM34.9939638 66.3804878L28.5311871 66.3804878C28.2374245 66.3804878 27.943662 65.8341463 27.943662 65.2878049 27.943662 64.7414634 28.2374245 64.195122 28.5311871 64.195122L34.9939638 64.195122C35.2877264 64.195122 35.5814889 64.7414634 35.5814889 65.2878049 35.5814889 65.8341463 35.2877264 66.3804878 34.9939638 66.3804878zM7.38028169 71.297561L.623742455 71.297561C.329979879 71.297561.0362173038 70.7512195.0362173038 70.204878.0362173038 69.6585366.329979879 69.1121951.623742455 69.1121951L7.38028169 69.1121951C7.67404427 69.1121951 7.96780684 69.6585366 7.96780684 70.204878 7.96780684 70.7512195 7.67404427 71.297561 7.38028169 71.297561zM54.0885312 71.297561L10.9054326 71.297561C10.3179074 71.297561 10.0241449 71.0243902 10.0241449 70.4780488L10.0241449 69.6585366C10.0241449 69.1121951 10.3179074 68.8390244 10.9054326 68.8390244L54.3822938 68.8390244C54.9698189 68.8390244 55.2635815 69.1121951 55.2635815 69.6585366L55.2635815 70.4780488C54.9698189 71.0243902 54.6760563 71.297561 54.0885312 71.297561zM7.38028169 90.4195122L.623742455 90.4195122C.329979879 90.4195122.0362173038 89.8731707.0362173038 89.3268293.0362173038 88.7804878.329979879 88.2341463.623742455 88.2341463L7.38028169 88.2341463C7.67404427 88.2341463 7.96780684 88.7804878 7.96780684 89.3268293 7.96780684 89.8731707 7.67404427 90.4195122 7.38028169 90.4195122zM58.7887324 90.4195122L37.3440644 90.4195122C37.0503018 90.4195122 36.7565392 89.8731707 36.7565392 89.3268293 36.7565392 88.7804878 37.0503018 88.2341463 37.3440644 88.2341463L58.7887324 88.2341463C59.082495 88.2341463 59.3762575 88.7804878 59.3762575 89.3268293 59.3762575 89.8731707 59.082495 90.4195122 58.7887324 90.4195122zM26.4748491 90.4195122L10.61167 90.4195122C10.3179074 90.4195122 10.0241449 89.8731707 10.0241449 89.3268293 10.0241449 88.7804878 10.3179074 88.2341463 10.61167 88.2341463L26.4748491 88.2341463C26.7686117 88.2341463 27.0623742 88.7804878 27.0623742 89.3268293 27.0623742 89.8731707 27.0623742 90.4195122 26.4748491 90.4195122zM34.9939638 90.4195122L28.5311871 90.4195122C28.2374245 90.4195122 27.943662 89.8731707 27.943662 89.3268293 27.943662 88.7804878 28.2374245 88.2341463 28.5311871 88.2341463L34.9939638 88.2341463C35.2877264 88.2341463 35.5814889 88.7804878 35.5814889 89.3268293 35.5814889 89.8731707 35.2877264 90.4195122 34.9939638 90.4195122z"/>
      <path fill="#FFC359" d="M39.1066398,95.3365854 L10.61167,95.3365854 C10.3179074,95.3365854 10.0241449,95.0634146 10.0241449,94.7902439 L10.0241449,93.697561 C10.0241449,93.4243902 10.3179074,93.1512195 10.61167,93.1512195 L39.1066398,93.1512195 C39.4004024,93.1512195 39.694165,93.4243902 39.694165,93.697561 L39.694165,94.7902439 C39.694165,95.0634146 39.4004024,95.3365854 39.1066398,95.3365854 Z"/>
      <path fill="#FF56A9" d="M56.7323944,76.4878049 L37.637827,76.4878049 C37.0503018,76.4878049 36.7565392,76.2146341 36.7565392,75.6682927 L36.7565392,74.8487805 C36.7565392,74.302439 37.0503018,74.0292683 37.637827,74.0292683 L56.7323944,74.0292683 C57.3199195,74.0292683 57.6136821,74.302439 57.6136821,74.8487805 L57.6136821,75.6682927 C57.6136821,75.9414634 57.0261569,76.4878049 56.7323944,76.4878049 Z"/>
      <path fill="#FFC359" d="M26.4748491 76.4878049L10.61167 76.4878049C10.3179074 76.4878049 10.0241449 75.9414634 10.0241449 75.395122 10.0241449 74.8487805 10.3179074 74.302439 10.61167 74.302439L26.4748491 74.302439C26.7686117 74.302439 27.0623742 74.8487805 27.0623742 75.395122 27.0623742 75.9414634 27.0623742 76.4878049 26.4748491 76.4878049zM34.9939638 76.4878049L28.5311871 76.4878049C28.2374245 76.4878049 27.943662 75.9414634 27.943662 75.395122 27.943662 74.8487805 28.2374245 74.302439 28.5311871 74.302439L34.9939638 74.302439C35.2877264 74.302439 35.5814889 74.8487805 35.5814889 75.395122 35.5814889 75.9414634 35.2877264 76.4878049 34.9939638 76.4878049z"/>
    </g>
    <g transform="translate(528 17)">
      <ellipse cx="22.254" cy="21.242" fill="#FF4DD1" rx="21.619" ry="20.637"/>
      <g fill="#F9FBFC" transform="translate(8.038 16.154)">
        <polygon points="12.735 3.11 4.146 6.219 12.735 9.046 12.735 12.156 .592 7.633 .592 4.523 12.735 0"/>
        <polygon points="15.4 .283 27.542 4.806 27.542 7.915 15.4 12.438 15.4 9.329 23.988 6.502 15.4 3.392"/>
      </g>
    </g>
    <g transform="translate(372 343)">
      <ellipse cx="32.104" cy="32.228" fill="#FFD474" rx="23.938" ry="21.835" transform="rotate(-34.146 32.104 32.228)"/>
      <path fill="#FFF" d="M44.5280389,30.9271085 C44.5280389,32.3090684 44.2250268,33.4146362 43.9220148,34.5202041 C43.3159906,35.625772 42.7099664,36.4549479 41.8009301,37.2841238 C40.8918938,37.8369078 39.9828576,38.1132997 38.7708092,38.1132997 C37.8617729,38.1132997 37.2557487,37.8369078 36.6497246,37.5605158 C36.0437004,37.2841238 35.7406883,36.7313399 35.4376762,36.1785559 L35.1346641,36.1785559 C33.9226157,37.2841238 32.7105674,38.1132997 30.8924948,38.1132997 C29.0744223,38.1132997 27.5593618,37.5605158 26.6503255,36.7313399 C25.7412893,35.625772 25.1352651,34.2438122 25.1352651,32.5854603 C25.1352651,30.6507165 25.7412893,28.9923647 27.2563497,27.8867968 C28.7714102,26.781229 30.2864706,25.952053 32.7105674,25.952053 C33.6196036,25.952053 34.5286399,25.952053 35.7406883,26.228445 C36.9527366,26.504837 37.5587608,26.504837 38.4677971,26.781229 L38.164785,33.6910282 C38.164785,35.0729881 38.4677971,35.625772 39.3768334,35.625772 C39.9828576,35.625772 40.5888817,35.0729881 40.8918938,34.2438122 C41.1949059,33.4146362 41.497918,32.3090684 41.497918,30.9271085 C41.497918,29.5451487 41.1949059,28.1631888 40.5888817,27.0576209 C39.9828576,25.952053 39.0738213,25.1228771 37.5587608,24.2937012 C36.3467125,23.7409173 34.831652,23.4645253 33.3165915,23.4645253 C31.1955069,23.4645253 29.3774344,23.7409173 27.8623739,24.5700932 C26.3473134,25.3992691 25.1352651,26.504837 24.2262288,27.8867968 C23.3171925,29.2687567 23.0141804,30.9271085 23.0141804,32.8618523 C23.0141804,35.34938 23.9232167,37.5605158 25.4382772,38.9424757 C26.9533376,40.3244355 29.0744223,41.1536114 32.1045432,41.1536114 C33.3165915,41.1536114 34.5286399,41.1536114 35.7406883,40.8772194 C36.9527366,40.6008275 38.4677971,40.3244355 39.6798455,40.0480435 L39.6798455,42.8119632 C37.5587608,43.6411391 35.1346641,44.1939231 32.4075553,44.1939231 C28.4683981,44.1939231 25.4382772,43.3647472 23.3171925,41.4300034 C21.1961079,39.4952596 19.9840595,37.0077319 19.9840595,33.6910282 C19.9840595,31.4798925 20.5900837,29.2687567 21.8021321,27.3340129 C23.0141804,25.3992691 24.5292409,24.0173093 26.6503255,22.9117414 C28.7714102,21.8061735 31.1955069,21.2533895 33.6196036,21.2533895 C35.7406883,21.2533895 37.8617729,21.8061735 39.6798455,22.6353494 C41.497918,23.4645253 42.7099664,24.5700932 43.9220148,26.228445 C44.2250268,27.3340129 44.5280389,28.9923647 44.5280389,30.9271085 Z M28.7714102,32.8618523 C28.7714102,34.7965961 29.6804464,35.902164 31.498519,35.902164 C32.4075553,35.902164 33.0135795,35.625772 33.6196036,35.0729881 C34.2256278,34.5202041 34.5286399,33.4146362 34.5286399,32.0326764 L34.831652,28.9923647 C34.2256278,28.9923647 33.6196036,28.7159727 33.0135795,28.7159727 C31.8015311,28.7159727 30.5894827,28.9923647 29.9834585,29.8215406 C29.0744223,30.6507165 28.7714102,31.4798925 28.7714102,32.8618523 Z"/>
    </g>
    <g transform="translate(111)">
      <path fill="#9570EE" d="M172.140357,0 L22.7257143,0 C10.6273626,0 0.646222527,8.90945724 0.646222527,19.7087993 C0.646222527,30.5081414 10.6273626,39.4175987 22.7257143,39.4175987 L33.6142308,39.4175987 L44.2002885,48.867023 L54.7863462,39.4175987 L171.837898,39.4175987 C183.93625,39.4175987 193.91739,30.5081414 193.91739,19.7087993 C194.219849,8.63947368 184.238709,0 172.140357,0 Z"/>
      <path fill="#FFF" d="M129.493668 25.9184211L31.1945604 25.9184211C29.9847253 25.9184211 28.7748901 24.8384868 28.7748901 23.7585526 28.7748901 22.6786184 29.9847253 21.5986842 31.1945604 21.5986842L129.493668 21.5986842C130.703503 21.5986842 131.913338 22.6786184 131.913338 23.7585526 131.913338 24.8384868 130.703503 25.9184211 129.493668 25.9184211zM98.6428709 13.7691612L31.1945604 13.7691612C29.9847253 13.7691612 28.7748901 12.689227 28.7748901 11.6092928 28.7748901 10.5293586 29.9847253 9.44942434 31.1945604 9.44942434L98.6428709 9.44942434C99.852706 9.44942434 101.062541 10.5293586 101.062541 11.6092928 101.062541 12.689227 100.155165 13.7691612 98.6428709 13.7691612z"/>
    </g>
    <g transform="translate(446 203)">
      <path fill="#F7D3A9" d="M41.4069088,49.816776 C41.4069088,49.816776 39.5934675,54.7583051 38.6867469,57.7781284 C38.6867469,57.7781284 47.7539532,57.503599 50.7763553,53.9347169 L47.451713,46.7969527 L41.4069088,49.816776 Z"/>
      <g transform="translate(31.951 185.117)">
        <polygon fill="#F79A74" points="8.247 .591 8.851 3.611 13.989 3.886 12.78 .042"/>
        <path fill="#544DB8" d="M8.85132044,3.61120084 C8.85132044,3.61120084 0.690834766,7.45461231 0.690834766,7.72914171 C0.690834766,8.0036711 14.5938844,6.63102414 14.5938844,6.63102414 L13.6871638,3.88573023 L8.85132044,3.61120084 Z"/>
      </g>
      <g transform="translate(77.287 176.882)">
        <polygon fill="#F79A74" points="4.62 2.513 6.433 5.258 11.269 3.886 8.851 .591"/>
        <path fill="#544DB8" d="M6.43339876,5.25837719 C6.43339876,5.25837719 0.388594556,11.5725532 0.388594556,11.8470826 C0.690834766,12.121612 13.0826834,6.35649475 13.0826834,6.35649475 L11.2692421,3.88573023 L6.43339876,5.25837719 Z"/>
      </g>
      <path fill="#FFD474" d="M30.8285014,103.899066 C30.8285014,103.899066 16.6232116,145.902063 39.2912273,186.532413 L45.9405119,186.532413 C45.9405119,186.532413 32.6419427,140.686004 49.2651543,103.350007 L30.8285014,103.899066 Z"/>
      <path fill="#FFD474" d="M43.2203501,105.271713 C43.2203501,105.271713 45.3360315,149.196416 81.6048567,180.492766 L87.9519012,178.57106 C87.9519012,178.57106 58.3323606,139.313357 60.448042,99.2320664 L43.2203501,105.271713 Z"/>
      <path fill="#F79A74" d="M36.8733056,6.16660288 L36.8733056,3.69583836 C36.8733056,3.69583836 36.8733056,3.42130897 36.8733056,3.42130897 L36.2688252,1.49960323 L34.7576242,1.77413263 L33.2464231,0.40148567 C32.6419427,-0.147573111 31.4329819,0.12695628 31.1307416,0.676015061 C30.5262612,1.77413263 29.9217808,2.87225019 29.9217808,3.97036775 C29.9217808,4.24489714 29.9217808,4.79395592 30.224021,5.06848532 L32.6419427,7.53924983 C32.9441829,7.81377922 33.5486633,8.08830862 34.1531437,7.81377922 L36.2688252,7.26472044 C36.2688252,7.26472044 36.8733056,6.71566166 36.8733056,6.16660288 Z"/>
      <path fill="#FF4F72" d="M61.3547627,62.9941868 C61.3547627,62.9941868 42.9181098,44.875247 41.709149,38.2865416 C40.5001882,31.4233068 37.7800263,6.44113227 37.7800263,6.44113227 L32.0374623,7.53924983 C32.0374623,7.53924983 30.224021,43.5026 31.7352221,47.6205409 C33.5486633,51.7384818 44.7315511,72.8772449 51.9853161,74.7989506 C58.936841,76.7206563 64.0749246,70.131951 61.3547627,62.9941868 Z"/>
      <path fill="#F79A74" d="M35.6643448,33.3450126 C35.6643448,33.3450126 31.4329819,45.9733646 34.1531437,49.2677173 C36.8733056,52.5620699 46.5449924,49.5422466 50.1718749,44.6007176 C54.1009976,39.3846592 54.705478,28.1289542 48.3584336,27.0308366 C42.0113892,25.932719 37.1755458,28.1289542 35.6643448,33.3450126 Z"/>
      <path fill="#FF4F72" d="M60.7502822,107.193419 C60.7502822,107.193419 64.3771648,70.6810097 64.3771648,60.7979517 C64.3771648,60.2488929 64.3771648,59.9743635 64.3771648,59.4253047 C61.6570029,53.1111287 54.705478,53.1111287 51.9853161,53.6601875 C49.2651543,54.2092463 38.3845067,57.2290696 38.3845067,57.7781284 C34.7576242,60.2488929 31.7352221,63.2687162 31.4329819,63.817775 C31.4329819,63.817775 21.4590549,82.7603029 30.224021,105.546242 L60.7502822,107.193419 Z"/>
      <path fill="#F79A74" d="M7.55600525,8.08830862 L6.95152483,5.6175441 C6.95152483,5.6175441 6.95152483,5.34301471 6.95152483,5.34301471 L6.0448042,3.69583836 L4.53360315,4.24489714 L2.72016189,3.14677958 C1.81344126,2.5977208 0.90672063,3.14677958 0.60448042,3.97036775 C0.30224021,5.06848532 0,6.44113227 0,7.26472044 C0,7.53924983 0.30224021,8.08830862 0.60448042,8.36283801 L3.62688252,10.5590731 C3.92912273,10.8336025 4.53360315,10.8336025 5.13808357,10.5590731 L6.95152483,9.73548496 C7.25376504,9.18642618 7.55600525,8.6373674 7.55600525,8.08830862 Z"/>
      <path fill="#FF4F72" d="M42.6158696,60.2488929 C42.6158696,60.2488929 20.8545745,45.4243058 18.4366528,39.1101298 C16.0187311,32.7959538 8.46272588,8.36283801 8.46272588,8.36283801 L3.0224021,10.2845437 C3.0224021,10.2845437 8.16048567,45.9733646 10.5784074,49.816776 C12.996329,53.6601875 28.1083395,72.6027155 35.6643448,73.4263037 C43.2203501,73.700833 46.8472326,66.5630689 42.6158696,60.2488929 Z"/>
      <path fill="#624FB5" d="M51.0785955,26.7563072 C51.0785955,26.7563072 39.8957077,22.3638369 34.7576242,31.4233068 C32.0374623,36.9138947 40.8024284,31.6978362 42.6158696,33.3450126 C44.4293109,34.9921889 40.5001882,38.561071 41.4069088,39.933718 C42.6158696,41.3063649 44.4293109,37.7374828 45.6382717,39.6591886 C46.8472326,41.5808943 43.8248305,41.8554237 42.0113892,44.3261882 C40.197948,46.5224233 43.8248305,49.816776 40.8024284,52.0130112 C38.0822665,53.9347169 30.224021,55.5818932 35.0598644,66.5630689 C39.8957077,77.5442445 27.2016189,80.2895384 32.6419427,95.1141255 C38.0822665,109.938713 73.7466113,118.449124 80.3958959,100.604713 C87.0451805,83.0348323 64.679405,78.6423621 66.190606,70.6810097 C67.7018071,62.7196574 72.5376504,60.7979517 65.8883658,53.1111287 C59.2390812,45.1497764 55.0077182,40.7573061 57.1233997,35.5412477 C58.936841,30.3251893 53.4965172,26.7563072 51.0785955,26.7563072 Z"/>
    </g>
    <path fill="#FFD474" d="M527,168 C514.189873,168 504,177.968354 504,190.5 C504,203.031646 514.189873,213 527,213 C539.810127,213 550,203.031646 550,190.5 C550,177.968354 539.810127,168 527,168 Z M515.35443,188.791139 C515.35443,187.367089 516.518987,185.943038 518.265823,185.943038 C520.012658,185.943038 521.177215,187.082278 521.177215,188.791139 C521.177215,190.5 520.012658,191.639241 518.265823,191.639241 C516.518987,191.639241 515.35443,190.5 515.35443,188.791139 Z M527,203.031646 C523.21519,203.031646 520.303797,200.468354 519.721519,196.765823 L534.278481,196.765823 C533.987342,200.183544 530.78481,203.031646 527,203.031646 Z M536.025316,191.639241 C534.56962,191.639241 533.113924,190.5 533.113924,188.791139 C533.113924,187.082278 534.278481,185.943038 536.025316,185.943038 C537.481013,185.943038 538.936709,187.082278 538.936709,188.791139 C538.936709,190.5 537.481013,191.639241 536.025316,191.639241 Z"/>
    <polygon fill="#F9FBFC" points="174.518 347 173 344.448 211.257 326.582 259.231 327.149 311.455 309 351.231 309 394.043 295.672 394.347 295.672 428.353 299.358 447.785 290 449 292.552 428.96 302.194 428.657 302.194 394.347 298.507 351.535 311.836 311.759 311.836 259.838 330.269 259.535 330.269 211.865 329.418"/>
    <g transform="translate(287 143)">
      <path fill="#544DB8" d="M28.0059243,135.467749 C28.0059243,135.467749 66.1129239,191.48838 61.5032062,230.314559 L87.6249399,230.869219 L76.5616174,225.045292 L79.6347625,224.490632 C79.6347625,224.490632 70.1080126,164.310054 61.1958917,142.955655 C51.6691418,120.491937 48.9033112,128.811833 48.9033112,128.811833 L28.0059243,135.467749 Z"/>
      <path fill="#544DB8" d="M14.1767712,132.139791 C14.1767712,132.139791 16.3279728,170.965971 13.2548276,185.941783 C10.1816825,200.917595 0.65493257,230.037229 0.65493257,230.037229 L24.9327791,230.591889 L18.4791743,226.431941 L14.4840857,224.213303 C14.4840857,224.213303 32.0010129,182.059165 33.5375855,161.814086 C35.0741581,141.569006 37.8399887,130.198482 37.8399887,130.198482 L14.1767712,132.139791 Z"/>
      <g transform="translate(8.338)">
        <polyline fill="#835622" points="55.624 17.048 59.619 14.552 61.463 8.728 59.619 8.451 58.39 10.392 59.619 .131 57.468 .685 55.624 10.392 53.165 15.107 55.317 16.493"/>
        <polygon fill="#835622" points="79.287 27.864 79.902 23.426 85.741 18.157 86.97 19.821 84.819 22.04 95.882 19.544 95.882 21.763 85.741 25.368 83.59 28.696"/>
        <g transform="translate(0 13.078)">
          <path fill="#58BB85" d="M52.8580963,0.364517165 C52.8580963,0.364517165 7.37554832,50.0065609 2.15120159,59.9904357 C2.15120159,59.9904357 0,63.5957238 0,73.8569283 C0,84.1181329 3.99508867,122.389653 3.99508867,122.389653 L50.0922657,124.885621 C50.0922657,124.885621 35.0338545,78.294206 34.72654,77.1848866 C34.4192255,76.0755672 26.7363627,68.864991 19.6681289,67.2010118 L58.3897576,3.96980526 L52.8580963,0.364517165 Z"/>
          <g fill="#835622" transform="translate(11.864 38.038)">
            <path d="M12.4134912,24.4486208 C12.4134912,24.4486208 14.2573782,29.717888 15.4866363,32.7685164 C15.4866363,32.7685164 5.95988638,32.4911865 2.57942674,28.6085686 L5.95988638,21.1206625 L12.4134912,24.4486208 Z"/>
            <path d="M19.481725,8.36348926 C19.481725,8.36348926 22.2475556,23.0619715 19.481725,26.3899297 C16.7158944,29.717888 7.18914444,24.1712909 3.19405576,18.6246938 C-0.801032912,13.3554266 -1.72297645,1.15291307 5.03794284,0.320923509 C12.1061767,-0.788395904 17.9451524,2.81689219 19.481725,8.36348926 Z"/>
          </g>
          <path fill="#58BB85" d="M27.0436772,73.3022686 C27.0436772,73.3022686 63.3067898,52.7798595 66.3799349,48.3425818 C69.45308,44.182634 77.4432574,12.5670307 77.4432574,12.5670307 L84.5114912,14.2310098 C84.5114912,14.2310098 80.5164025,49.4519012 79.2871445,53.0571893 C78.0578864,56.6624774 42.4094029,91.0513792 34.111911,91.0513792 C25.8144191,91.3287091 23.0485885,81.8994941 27.0436772,73.3022686 Z"/>
        </g>
      </g>
      <path fill="#544DB8" d="M37.2253597,56.1514114 C37.2253597,56.1514114 39.0692467,50.3274844 35.0741581,47.5541859 C31.0790694,44.7808874 24.3181501,45.0582172 23.0888921,46.1675366 C23.0888921,47.8315158 27.3912952,48.9408352 26.1620372,49.7728247 C25.2400936,50.6048143 19.4011179,49.7728247 18.1718598,54.7647621 C16.9426018,59.7566995 18.7864889,60.8660189 18.7864889,60.8660189 C18.7864889,60.8660189 15.7133437,63.9166473 19.4011179,68.3539249 C22.7815775,72.7912026 30.7717549,76.1191608 32.615642,75.841831 C34.459529,75.2871713 33.5375855,68.6312548 33.5375855,68.6312548 C33.5375855,68.6312548 28.9278678,68.0765951 28.6205533,65.5806264 C28.3132388,62.8073278 30.7717549,62.8073278 31.6936984,63.6393174 C32.615642,64.471307 32.9229565,66.6899458 33.8449,66.4126159 C34.7668436,65.8579562 33.5375855,60.8660189 33.5375855,60.8660189 C33.5375855,60.8660189 36.6107306,58.3700502 37.2253597,56.1514114 Z"/>
    </g>
    <g transform="translate(304 343)">
      <path fill="#9570EE" d="M36.9,1.21904762 L10.2,7.9847619 C3,9.95809524 -1.5,17.0057143 0.6,24.0533333 L5.7,41.2495238 C7.8,48.0152381 15.3,52.2438095 22.8,50.2704762 L30.9,48.2971429 L38.7,55.6266667 L41.4,45.4780952 L49.5,43.5047619 C56.7,41.5314286 61.2,34.4838095 59.1,27.4361905 L54,10.24 C51.9,3.47428571 44.4,-0.754285714 36.9,1.21904762 Z"/>
      <g fill="#FFF" transform="translate(12.857 19.733)">
        <path d="M6.64285714 9.95809524C6.94285714 11.367619 6.04285714 13.0590476 4.54285714 13.6228571 3.04285714 13.9047619 1.24285714 13.0590476.642857143 11.6495238.342857143 10.24 1.24285714 8.54857143 2.74285714 7.9847619 4.54285714 7.42095238 6.04285714 8.26666667 6.64285714 9.95809524zM19.8428571 6.29333333C20.1428571 7.70285714 19.2428571 9.39428571 17.7428571 9.95809524 16.2428571 10.24 14.4428571 9.39428571 13.8428571 7.9847619 13.5428571 6.5752381 14.4428571 4.88380952 15.9428571 4.32 17.4428571 3.75619048 19.5428571 4.88380952 19.8428571 6.29333333zM33.3428571 2.91047619C33.6428571 4.32 32.7428571 6.01142857 31.2428571 6.5752381 29.7428571 6.85714286 27.9428571 6.01142857 27.3428571 4.60190476 27.0428571 3.19238095 27.9428571 1.50095238 29.4428571.937142857 31.2428571.373333333 33.0428571 1.50095238 33.3428571 2.91047619z"/>
      </g>
    </g>
    <ellipse cx="209" cy="325.5" fill="#FFC240" rx="5" ry="4.5"/>
    <ellipse cx="392" cy="297.5" fill="#FF4F72" rx="5" ry="4.5"/>
  </g>
</svg>
