<svg xmlns="http://www.w3.org/2000/svg" viewBox="0 0 500 315">
  <defs>
    <linearGradient id="computer-analysis-a" x1="50.009%" x2="50.009%" y1="50.003%" y2="126.682%">
      <stop offset="0%" stop-color="#E6FBFC"/>
      <stop offset="26.02%" stop-color="#DAF2F7"/>
      <stop offset="73.24%" stop-color="#B9DAE9"/>
      <stop offset="100%" stop-color="#A4CBE0"/>
    </linearGradient>
    <linearGradient id="computer-analysis-b" x1="50.012%" x2="50.012%" y1="50.003%" y2="126.682%">
      <stop offset="0%" stop-color="#E6FBFC"/>
      <stop offset="26.02%" stop-color="#DAF2F7"/>
      <stop offset="73.24%" stop-color="#B9DAE9"/>
      <stop offset="100%" stop-color="#A4CBE0"/>
    </linearGradient>
    <linearGradient id="computer-analysis-c" x1="21.428%" x2="121.583%" y1="25.159%" y2="112.129%">
      <stop offset="0%" stop-color="#FFAC00"/>
      <stop offset="99.87%" stop-color="#FF5E00"/>
    </linearGradient>
    <linearGradient id="computer-analysis-d" x1="21.634%" x2="121.79%" y1="25.159%" y2="112.129%">
      <stop offset="0%" stop-color="#FFAC00"/>
      <stop offset="99.87%" stop-color="#FF5E00"/>
    </linearGradient>
    <linearGradient id="computer-analysis-e" x1=".027%" x2="100.002%" y1="49.914%" y2="49.914%">
      <stop offset="0%" stop-color="#4E9CFF"/>
      <stop offset="100%" stop-color="#176AD4"/>
    </linearGradient>
    <linearGradient id="computer-analysis-f" x1="-1.367%" x2="104.477%" y1="18.926%" y2="88.037%">
      <stop offset="0%" stop-color="#FFAC00"/>
      <stop offset="100%" stop-color="#FF5E00"/>
    </linearGradient>
    <linearGradient id="computer-analysis-g" x1="43.773%" x2="55.244%" y1="8.418%" y2="123.537%">
      <stop offset="0%" stop-color="#1C2B6B"/>
      <stop offset="23.26%" stop-color="#19265F"/>
      <stop offset="65.49%" stop-color="#11193E"/>
      <stop offset="72.72%" stop-color="#0F1638"/>
      <stop offset="100%" stop-color="#080C1F"/>
    </linearGradient>
    <linearGradient id="computer-analysis-h" x1="36.768%" x2="66.707%" y1="18.259%" y2="111.844%">
      <stop offset="0%" stop-color="#1C2B6B"/>
      <stop offset="23.26%" stop-color="#19265F"/>
      <stop offset="65.49%" stop-color="#11193E"/>
      <stop offset="72.72%" stop-color="#0F1638"/>
      <stop offset="100%" stop-color="#080C1F"/>
    </linearGradient>
    <linearGradient id="computer-analysis-i" x1="45.431%" x2="58.622%" y1="8.093%" y2="115.981%">
      <stop offset="0%" stop-color="#FFAC00"/>
      <stop offset="99.87%" stop-color="#FF5E00"/>
    </linearGradient>
    <linearGradient id="computer-analysis-j" x1="-1.972%" x2="102.935%" y1="53.402%" y2="45.684%">
      <stop offset="0%" stop-color="#1C2B6B"/>
      <stop offset="23.25%" stop-color="#19265F"/>
      <stop offset="65.42%" stop-color="#10193E"/>
      <stop offset="100%" stop-color="#080C1F"/>
    </linearGradient>
    <linearGradient id="computer-analysis-k" x1="66.112%" x2="40.178%" y1="-20.414%" y2="125.674%">
      <stop offset="0%" stop-color="#1C2B6B"/>
      <stop offset="23.25%" stop-color="#19265F"/>
      <stop offset="65.42%" stop-color="#10193E"/>
      <stop offset="100%" stop-color="#080C1F"/>
    </linearGradient>
    <linearGradient id="computer-analysis-l" x1="-.126%" x2="100.206%" y1="49.966%" y2="49.966%">
      <stop offset="0%" stop-color="#1C2B6B"/>
      <stop offset="23.25%" stop-color="#19265F"/>
      <stop offset="65.42%" stop-color="#10193E"/>
      <stop offset="100%" stop-color="#080C1F"/>
    </linearGradient>
    <linearGradient id="computer-analysis-m" x1="-63.622%" x2="219.749%" y1="35.593%" y2="74.995%">
      <stop offset="0%" stop-color="#FFAC00"/>
      <stop offset="99.87%" stop-color="#FF5E00"/>
    </linearGradient>
    <linearGradient id="computer-analysis-n" x1="49.589%" x2="52.14%" y1="-1.011%" y2="166.519%">
      <stop offset="0%" stop-color="#FFAC00"/>
      <stop offset="99.87%" stop-color="#FF5E00"/>
    </linearGradient>
    <linearGradient id="computer-analysis-o" x1="50.309%" x2="50.309%" y1="73.448%" y2="-49.007%">
      <stop offset="0%" stop-color="#F2DAD4"/>
      <stop offset="23.25%" stop-color="#F1D0C8"/>
      <stop offset="65.42%" stop-color="#EEB5A7"/>
      <stop offset="100%" stop-color="#EB9C88"/>
    </linearGradient>
    <linearGradient id="computer-analysis-p" x1="137.79%" x2="-140.832%" y1="32.744%" y2="82.487%">
      <stop offset="0%" stop-color="#FFAC00"/>
      <stop offset="99.87%" stop-color="#FF5E00"/>
    </linearGradient>
    <linearGradient id="computer-analysis-q" x1="-23.046%" x2="92.884%" y1="-54.343%" y2="81.197%">
      <stop offset="0%" stop-color="#1C2B6B"/>
      <stop offset="23.25%" stop-color="#19265F"/>
      <stop offset="65.42%" stop-color="#10193E"/>
      <stop offset="100%" stop-color="#080C1F"/>
    </linearGradient>
    <linearGradient id="computer-analysis-r" x1="-6.255%" x2="110.519%" y1="-7.186%" y2="101.43%">
      <stop offset="0%" stop-color="#1C2B6B"/>
      <stop offset="23.25%" stop-color="#19265F"/>
      <stop offset="65.42%" stop-color="#10193E"/>
      <stop offset="100%" stop-color="#080C1F"/>
    </linearGradient>
    <linearGradient id="computer-analysis-s" x1="50.286%" x2="71.799%" y1="49.648%" y2="-2.261%">
      <stop offset="0%" stop-color="#1C2B6B"/>
      <stop offset="23.25%" stop-color="#19265F"/>
      <stop offset="65.42%" stop-color="#10193E"/>
      <stop offset="100%" stop-color="#080C1F"/>
    </linearGradient>
  </defs>
  <g fill="none">
    <path fill="#A8A1DE" fill-opacity=".7" d="M496.498615,314.705882 L3.52985458,314.705882 C-0.401119839,314.705882 -1.38386344,309.04048 2.30142507,307.640044 L78.3412115,278.676471 L414.623789,278.676471 L497.604202,307.640044 C501.350912,308.913168 500.491011,314.705882 496.498615,314.705882 Z" opacity=".2"/>
    <path fill="#624FB5" d="M413.909279,273.529412 L85.2941176,273.529412 L85.2941176,61.8181966 C85.2941176,52.0828943 92.9577175,44.1176471 102.460581,44.1176471 L396.804125,44.1176471 C406.24568,44.1176471 413.970588,52.0196781 413.970588,61.8181966 L413.970588,273.529412 L413.909279,273.529412 Z"/>
    <polygon fill="#DDD6FF" fill-opacity=".5" points="94.118 58.824 407.353 58.824 407.353 260.294 94.118 260.294"/>
    <path fill="#CFC9E9" d="M446.41601,281.861475 C437.251645,284.128315 427.841257,285.294118 418.369363,285.294118 L250.397012,285.294118 L82.73219,285.294118 C72.8297555,285.294118 62.9888268,284.063548 53.3939214,281.537641 L47.0588235,279.91847 L47.0588235,272.794118 L454.411765,272.794118 L454.411765,279.853703 L446.41601,281.861475 Z"/>
    <g transform="translate(103.676 67.647)">
      <polygon fill="url(#computer-analysis-a)" points=".184 .126 200.705 .126 200.705 192.142 .184 192.142" opacity=".15"/>
      <polygon fill="url(#computer-analysis-b)" points="208.694 .126 295.527 .126 295.527 192.142 208.694 192.142" opacity=".15"/>
      <g transform="translate(19.665 16.422)">
        <path fill="#9BD0ED" d="M151.174025,105.734812 L10.3855326,105.734812 C4.67041702,105.734812 0,100.997589 0,95.06027 L0,11.0535198 C0,5.17936355 4.60896417,0.378977821 10.3855326,0.378977821 L151.174025,0.378977821 C156.88914,0.378977821 161.559557,5.11620058 161.559557,11.0535198 L161.559557,95.06027 C161.559557,100.934426 156.88914,105.734812 151.174025,105.734812 Z"/>
        <path fill="#4AB6D6" d="M41.9723004,17.1171649 L15.2403082,17.1171649 C13.6425339,17.1171649 12.352024,15.7907425 12.352024,14.1485053 C12.352024,12.5062681 13.6425339,11.1798457 15.2403082,11.1798457 L41.9723004,11.1798457 C43.5700746,11.1798457 44.8605846,12.5062681 44.8605846,14.1485053 C44.9220374,15.7907425 43.5700746,17.1171649 41.9723004,17.1171649 Z"/>
        <path fill="#FFF" d="M60.5925156 86.2806172L15.2403082 86.2806172C13.6425339 86.2806172 12.352024 84.9541948 12.352024 83.3119576 12.352024 81.6697203 13.6425339 80.343298 15.2403082 80.343298L60.5925156 80.343298C62.1902898 80.343298 63.4807998 81.6697203 63.4807998 83.3119576 63.4807998 84.9541948 62.1902898 86.2806172 60.5925156 86.2806172zM36.1342791 61.331244L15.1788553 61.331244C12.4749297 61.331244 10.2626269 59.057377 10.2626269 56.2782064 10.2626269 53.4990357 12.4749297 51.2251688 15.1788553 51.2251688L36.1342791 51.2251688C38.8382047 51.2251688 41.0505075 53.4990357 41.0505075 56.2782064 41.0505075 59.057377 38.8382047 61.331244 36.1342791 61.331244zM72.8830867 61.331244L51.927663 61.331244C49.2237373 61.331244 47.0114345 59.057377 47.0114345 56.2782064 47.0114345 53.4990357 49.2237373 51.2251688 51.927663 51.2251688L72.8830867 51.2251688C75.5870124 51.2251688 77.7993152 53.4990357 77.7993152 56.2782064 77.7993152 59.057377 75.5870124 61.331244 72.8830867 61.331244zM109.631894 61.331244L88.6764706 61.331244C85.9725449 61.331244 83.7602421 59.057377 83.7602421 56.2782064 83.7602421 53.4990357 85.9725449 51.2251688 88.6764706 51.2251688L109.631894 51.2251688C112.33582 51.2251688 114.548123 53.4990357 114.548123 56.2782064 114.548123 59.057377 112.397273 61.331244 109.631894 61.331244zM146.380702 61.331244L125.425278 61.331244C122.721353 61.331244 120.50905 59.057377 120.50905 56.2782064 120.50905 53.4990357 122.721353 51.2251688 125.425278 51.2251688L146.380702 51.2251688C149.084628 51.2251688 151.29693 53.4990357 151.29693 56.2782064 151.358383 59.057377 149.14608 61.331244 146.380702 61.331244z" opacity=".77"/>
        <ellipse cx="117.744" cy="87.86" fill="url(#computer-analysis-c)" opacity=".74" rx="10.693" ry="10.99"/>
        <ellipse cx="128.375" cy="87.86" fill="url(#computer-analysis-d)" opacity=".74" rx="10.693" ry="10.99"/>
      </g>
      <path fill="#FFF" d="M107.542497,137.695275 L21.3855937,137.695275 C20.4638009,137.695275 19.7263666,136.937319 19.7263666,135.989875 C19.7263666,135.04243 20.4638009,134.284474 21.3855937,134.284474 L107.542497,134.284474 C108.46429,134.284474 109.201724,135.04243 109.201724,135.989875 C109.263177,136.937319 108.525743,137.695275 107.542497,137.695275 Z"/>
      <g transform="translate(19.665 150.328)">
        <path fill="#FFF" d="M46.8270759,1.76856316 L0.675981411,1.76856316 C0.307264278,1.76856316 0.0614528556,1.51591128 0.0614528556,1.13693346 C0.0614528556,0.757955641 0.307264278,0.505303761 0.675981411,0.505303761 L46.8270759,0.505303761 C47.1957931,0.505303761 47.4416045,0.757955641 47.4416045,1.13693346 C47.4416045,1.45274831 47.1343402,1.76856316 46.8270759,1.76856316 Z"/>
        <path fill="#4EE2FF" d="M55.6148343,8.84281581 L0.675981411,8.84281581 C0.307264278,8.84281581 0.0614528556,8.59016393 0.0614528556,8.21118611 C0.0614528556,7.83220829 0.307264278,7.57955641 0.675981411,7.57955641 L55.6148343,7.57955641 C55.9835514,7.57955641 56.2293628,7.83220829 56.2293628,8.21118611 C56.2293628,8.59016393 55.9835514,8.84281581 55.6148343,8.84281581 Z"/>
        <path fill="#FFF" d="M39.6370918,15.9802314 L0.675981411,15.9802314 C0.307264278,15.9802314 0.0614528556,15.7275796 0.0614528556,15.3486017 C0.0614528556,14.9696239 0.307264278,14.716972 0.675981411,14.716972 L39.6370918,14.716972 C40.005809,14.716972 40.2516204,14.9696239 40.2516204,15.3486017 C40.2516204,15.6644166 40.005809,15.9802314 39.6370918,15.9802314 Z"/>
      </g>
      <g transform="translate(215.085 27.16)">
        <path fill="url(#computer-analysis-e)" d="M0.491622845,10.3587271 L0.491622845,52.0462874 L73.5590681,52.0462874 L73.5590681,18.0014465 C73.5590681,18.0014465 70.8551425,13.2010608 64.4640455,13.0747348 C58.0729485,13.0115718 56.4137214,16.1697203 52.2963801,14.716972 C48.2404916,13.2642237 40.9276018,6.88476374 37.4862419,6.82160077 C34.044882,6.7584378 32.324202,8.27434908 30.0504464,7.64271938 C27.7766907,7.01108968 25.0727651,2.46335583 22.7990094,2.46335583 C20.5252538,2.46335583 18.8045738,7.01108968 15.1174025,6.94792671 C11.3687783,6.88476374 9.70955118,6.1268081 7.68160695,7.01108968 C5.65366271,7.89537126 5.59220986,10.7377049 3.07264278,10.548216 C0.491622845,10.3587271 1.35196282,9.60077146 0.491622845,10.3587271 Z"/>
        <path fill="url(#computer-analysis-f)" d="M0.491622845,14.9064609 L0.491622845,52.0462874 L73.5590681,52.0462874 L73.5590681,3.15814851 C73.5590681,3.15814851 63.9109698,5.30568949 61.2070441,7.20057859 C58.5031185,9.0954677 57.2740614,6.63211186 53.8327015,6.56894889 C50.3913416,6.50578592 42.2181118,3.03182257 40.005809,1.64223722 C37.7935062,0.25265188 35.8270148,-0.315814851 33.7376177,3.03182257 C31.6482206,6.37945998 27.7152379,13.8958534 23.9051608,13.1378978 C20.0950838,12.3799421 17.5755167,11.0535198 14.3185153,12.9484089 C11.0000611,14.716972 5.03913416,17.8751205 0.491622845,14.9064609 Z"/>
      </g>
      <g fill="#4EE2FF" transform="translate(218.158 16.422)">
        <path d="M.675981411 48.9513018C.5530757 48.9513018.491622845 49.0144648.491622845 49.1407907L.491622845 51.3514947C.491622845 51.4778206.5530757 51.5409836.675981411 51.5409836.798887122 51.5409836.860339978 51.4778206.860339978 51.3514947L.860339978 49.1407907C.860339978 49.0144648.798887122 48.9513018.675981411 48.9513018zM.614528556 53.3727097C.491622845 53.3727097.430169989 53.4358727.430169989 53.5621986L.430169989 55.7729026C.430169989 55.8992285.491622845 55.9623915.614528556 55.9623915.737434267 55.9623915.798887122 55.8992285.798887122 55.7729026L.798887122 53.5621986C.798887122 53.4358727.737434267 53.3727097.614528556 53.3727097zM.798887122 40.108486C.675981411 40.108486.614528556 40.171649.614528556 40.2979749L.614528556 42.5086789C.614528556 42.6350048.675981411 42.6981678.798887122 42.6981678.921792834 42.6981678.983245689 42.6350048.983245689 42.5086789L.983245689 40.2979749C.983245689 40.234812.921792834 40.108486.798887122 40.108486zM.737434267 44.5298939C.614528556 44.5298939.5530757 44.5930569.5530757 44.7193828L.5530757 46.9300868C.5530757 47.0564127.614528556 47.1195757.737434267 47.1195757.860339978 47.1195757.921792834 47.0564127.921792834 46.9300868L.921792834 44.7193828C.921792834 44.5930569.860339978 44.5298939.737434267 44.5298939zM.860339978 35.7502411C.737434267 35.7502411.675981411 35.8134041.675981411 35.93973L.675981411 38.1504339C.675981411 38.2767599.737434267 38.3399229.860339978 38.3399229.983245689 38.3399229 1.04469854 38.2767599 1.04469854 38.1504339L1.04469854 35.93973C1.04469854 35.8134041.983245689 35.7502411.860339978 35.7502411zM.491622845 66.5737705C.368717133 66.5737705.307264278 66.6369335.307264278 66.7632594L.307264278 68.9739634C.307264278 69.1002893.368717133 69.1634523.491622845 69.1634523.614528556 69.1634523.675981411 69.1002893.675981411 68.9739634L.675981411 66.7632594C.614528556 66.6369335.5530757 66.5737705.491622845 66.5737705zM.5530757 57.7309547C.430169989 57.7309547.368717133 57.7941176.368717133 57.9204436L.368717133 60.1311475C.368717133 60.2574735.430169989 60.3206365.5530757 60.3206365.675981411 60.3206365.737434267 60.2574735.737434267 60.1311475L.737434267 57.9204436C.737434267 57.8572806.675981411 57.7309547.5530757 57.7309547zM.491622845 62.1523626C.368717133 62.1523626.307264278 62.2155256.307264278 62.3418515L.307264278 64.5525554C.307264278 64.6788814.368717133 64.7420444.491622845 64.7420444.614528556 64.7420444.675981411 64.6788814.675981411 64.5525554L.675981411 62.3418515C.675981411 62.2155256.614528556 62.1523626.491622845 62.1523626zM1.16760426 13.7063645C1.04469854 13.7063645.983245689 13.7695275.983245689 13.8958534L.983245689 16.1065574C.983245689 16.2328833 1.04469854 16.2960463 1.16760426 16.2960463 1.29050997 16.2960463 1.35196282 16.2328833 1.35196282 16.1065574L1.35196282 13.8958534C1.35196282 13.7695275 1.29050997 13.7063645 1.16760426 13.7063645zM1.22905711 9.28495661C1.1061514 9.28495661 1.04469854 9.34811958 1.04469854 9.47444552L1.04469854 11.6851495C1.04469854 11.8114754 1.1061514 11.8746384 1.22905711 11.8746384 1.35196282 11.8746384 1.41341568 11.8114754 1.41341568 11.6851495L1.41341568 9.47444552C1.41341568 9.41128255 1.35196282 9.28495661 1.22905711 9.28495661zM.921792834 31.3288332C.798887122 31.3288332.737434267 31.3919961.737434267 31.5183221L.737434267 33.729026C.737434267 33.855352.798887122 33.9185149.921792834 33.9185149 1.04469854 33.9185149 1.1061514 33.855352 1.1061514 33.729026L1.1061514 31.5183221C1.1061514 31.3919961 1.04469854 31.3288332.921792834 31.3288332zM1.29050997 4.92671167C1.16760426 4.92671167 1.1061514 4.98987464 1.1061514 5.11620058L1.1061514 7.32690453C1.1061514 7.45323047 1.16760426 7.51639344 1.29050997 7.51639344 1.41341568 7.51639344 1.47486853 7.45323047 1.47486853 7.32690453L1.47486853 5.11620058C1.47486853 4.98987464 1.41341568 4.92671167 1.29050997 4.92671167zM1.1061514 18.1277724C.983245689 18.1277724.921792834 18.1909354.921792834 18.3172613L.921792834 20.5279653C.921792834 20.6542912.983245689 20.7174542 1.1061514 20.7174542 1.22905711 20.7174542 1.29050997 20.6542912 1.29050997 20.5279653L1.29050997 18.3172613C1.29050997 18.1909354 1.22905711 18.1277724 1.1061514 18.1277724zM1.04469854 22.4860174C.921792834 22.4860174.860339978 22.5491803.860339978 22.6755063L.860339978 24.8862102C.860339978 25.0125362.921792834 25.0756991 1.04469854 25.0756991 1.16760426 25.0756991 1.22905711 25.0125362 1.22905711 24.8862102L1.22905711 22.6755063C1.22905711 22.6123433 1.16760426 22.4860174 1.04469854 22.4860174zM.983245689 26.9074253C.860339978 26.9074253.798887122 26.9705882.798887122 27.0969142L.798887122 29.3076181C.798887122 29.4339441.860339978 29.497107.983245689 29.497107 1.1061514 29.497107 1.16760426 29.4339441 1.16760426 29.3076181L1.16760426 27.0969142C1.16760426 26.9705882 1.1061514 26.9074253.983245689 26.9074253zM1.35196282.442140791C.614528556.442140791 0 1.01060752 0 1.76856316 0 2.5265188.5530757 3.15814851 1.29050997 3.15814851 2.02794423 3.15814851 2.64247279 2.58968177 2.64247279 1.83172613 2.70392565 1.07377049 2.08939709.442140791 1.35196282.442140791z"/>
      </g>
      <g fill="#4EE2FF" transform="translate(283.912 20.844)">
        <path d="M.737434267 44.5298939C.614528556 44.5298939.5530757 44.5930569.5530757 44.7193828L.5530757 46.9300868C.5530757 47.0564127.614528556 47.1195757.737434267 47.1195757.860339978 47.1195757.921792834 47.0564127.921792834 46.9300868L.921792834 44.7193828C.921792834 44.5930569.798887122 44.5298939.737434267 44.5298939zM.675981411 48.9513018C.5530757 48.9513018.491622845 49.0144648.491622845 49.1407907L.491622845 51.3514947C.491622845 51.4778206.5530757 51.5409836.675981411 51.5409836.798887122 51.5409836.860339978 51.4778206.860339978 51.3514947L.860339978 49.1407907C.860339978 49.0144648.737434267 48.9513018.675981411 48.9513018zM.860339978 35.6870781C.737434267 35.6870781.675981411 35.7502411.675981411 35.876567L.675981411 38.087271C.675981411 38.2135969.737434267 38.2767599.860339978 38.2767599.983245689 38.2767599 1.04469854 38.2135969 1.04469854 38.087271L1.04469854 35.876567C1.04469854 35.8134041.921792834 35.6870781.860339978 35.6870781zM.798887122 40.108486C.675981411 40.108486.614528556 40.171649.614528556 40.2979749L.614528556 42.5086789C.614528556 42.6350048.675981411 42.6981678.798887122 42.6981678.921792834 42.6981678.983245689 42.6350048.983245689 42.5086789L.983245689 40.2979749C.983245689 40.171649.860339978 40.108486.798887122 40.108486zM.921792834 31.3288332C.798887122 31.3288332.737434267 31.3919961.737434267 31.5183221L.737434267 33.729026C.737434267 33.855352.798887122 33.9185149.921792834 33.9185149 1.04469854 33.9185149 1.1061514 33.855352 1.1061514 33.729026L1.1061514 31.5183221C1.1061514 31.3919961.983245689 31.3288332.921792834 31.3288332zM.491622845 62.1523626C.368717133 62.1523626.307264278 62.2155256.307264278 62.3418515L.307264278 64.5525554C.307264278 64.6788814.368717133 64.7420444.491622845 64.7420444.614528556 64.7420444.675981411 64.6788814.675981411 64.5525554L.675981411 62.3418515C.675981411 62.2155256.5530757 62.1523626.491622845 62.1523626zM.614528556 53.3095468C.491622845 53.3095468.430169989 53.3727097.430169989 53.4990357L.430169989 55.7097396C.430169989 55.8360656.491622845 55.8992285.614528556 55.8992285.737434267 55.8992285.798887122 55.8360656.798887122 55.7097396L.798887122 53.4990357C.798887122 53.4358727.675981411 53.3095468.614528556 53.3095468zM.5530757 57.7309547C.430169989 57.7309547.368717133 57.7941176.368717133 57.9204436L.368717133 60.1311475C.368717133 60.2574735.430169989 60.3206365.5530757 60.3206365.675981411 60.3206365.737434267 60.2574735.737434267 60.1311475L.737434267 57.9204436C.737434267 57.7941176.614528556 57.7309547.5530757 57.7309547zM1.22905711 9.28495661C1.1061514 9.28495661 1.04469854 9.34811958 1.04469854 9.47444552L1.04469854 11.6851495C1.04469854 11.8114754 1.1061514 11.8746384 1.22905711 11.8746384 1.35196282 11.8746384 1.41341568 11.8114754 1.41341568 11.6851495L1.41341568 9.47444552C1.41341568 9.34811958 1.29050997 9.28495661 1.22905711 9.28495661zM1.29050997 4.8635487C1.16760426 4.8635487 1.1061514 4.92671167 1.1061514 5.05303761L1.1061514 7.26374156C1.1061514 7.3900675 1.16760426 7.45323047 1.29050997 7.45323047 1.41341568 7.45323047 1.47486853 7.3900675 1.47486853 7.26374156L1.47486853 5.05303761C1.47486853 4.98987464 1.35196282 4.8635487 1.29050997 4.8635487zM.983245689 26.9074253C.860339978 26.9074253.798887122 26.9705882.798887122 27.0969142L.798887122 29.3076181C.798887122 29.4339441.860339978 29.497107.983245689 29.497107 1.1061514 29.497107 1.16760426 29.4339441 1.16760426 29.3076181L1.16760426 27.0969142C1.16760426 26.9705882 1.04469854 26.9074253.983245689 26.9074253zM1.35196282.505303761C1.22905711.505303761 1.16760426.568466731 1.16760426.694792671L1.16760426 2.90549662C1.16760426 3.03182257 1.22905711 3.09498554 1.35196282 3.09498554 1.47486853 3.09498554 1.53632139 3.03182257 1.53632139 2.90549662L1.53632139.694792671C1.53632139.568466731 1.41341568.505303761 1.35196282.505303761zM1.16760426 13.7063645C1.04469854 13.7063645.983245689 13.7695275.983245689 13.8958534L.983245689 16.1065574C.983245689 16.2328833 1.04469854 16.2960463 1.16760426 16.2960463 1.29050997 16.2960463 1.35196282 16.2328833 1.35196282 16.1065574L1.35196282 13.8958534C1.35196282 13.7695275 1.22905711 13.7063645 1.16760426 13.7063645zM1.1061514 18.0646095C.983245689 18.0646095.921792834 18.1277724.921792834 18.2540984L.921792834 20.4648023C.921792834 20.5911283.983245689 20.6542912 1.1061514 20.6542912 1.22905711 20.6542912 1.29050997 20.5911283 1.29050997 20.4648023L1.29050997 18.2540984C1.29050997 18.1909354 1.16760426 18.0646095 1.1061514 18.0646095zM1.04469854 22.4860174C.921792834 22.4860174.860339978 22.5491803.860339978 22.6755063L.860339978 24.8862102C.860339978 25.0125362.921792834 25.0756991 1.04469854 25.0756991 1.16760426 25.0756991 1.22905711 25.0125362 1.22905711 24.8862102L1.22905711 22.6755063C1.22905711 22.5491803 1.1061514 22.4860174 1.04469854 22.4860174z"/>
        <path d="M1.41341568,26.7810993 C0.675981411,26.7810993 0.0614528556,27.3495661 0.0614528556,28.1075217 C0.0614528556,28.8654773 0.614528556,29.497107 1.35196282,29.497107 C2.08939709,29.497107 2.70392565,28.9286403 2.70392565,28.1706847 C2.70392565,27.412729 2.15084994,26.8442623 1.41341568,26.7810993 Z"/>
      </g>
      <g fill="#FFF" transform="translate(214.47 99.166)">
        <path d="M45.4136603 1.64223722L.491622845 1.64223722C.245811422 1.64223722 0 1.38958534 0 1.01060752 0 .631629701.245811422.378977821.491622845.378977821L45.4136603.378977821C45.6594717.378977821 45.9052831.631629701 45.9052831 1.01060752 45.966736 1.38958534 45.7209245 1.64223722 45.4136603 1.64223722zM39.8829033 8.77965284L.491622845 8.77965284C.245811422 8.77965284 0 8.52700096 0 8.14802314 0 7.76904532.245811422 7.51639344.491622845 7.51639344L39.8829033 7.51639344C40.1287147 7.51639344 40.3745261 7.76904532 40.3745261 8.14802314 40.3745261 8.46383799 40.1287147 8.77965284 39.8829033 8.77965284zM48.486303 15.8539055L.491622845 15.8539055C.245811422 15.8539055 0 15.6012536 0 15.2222758 0 14.843298.245811422 14.5906461.491622845 14.5906461L48.486303 14.5906461C48.7321145 14.5906461 48.9779259 14.843298 48.9779259 15.2222758 48.9779259 15.6012536 48.7321145 15.8539055 48.486303 15.8539055zM36.3186376 22.9913211L.491622845 22.9913211C.245811422 22.9913211 1.13686838e-13 22.7386692 1.13686838e-13 22.3596914 1.13686838e-13 21.9807136.245811422 21.7280617.491622845 21.7280617L36.3186376 21.7280617C36.5644491 21.7280617 36.8102605 21.9807136 36.8102605 22.3596914 36.8102605 22.6755063 36.6259019 22.9913211 36.3186376 22.9913211z"/>
      </g>
      <g fill="#FFF" transform="translate(214.47 162.329)">
        <path d="M55.8606457 1.57907425L.614528556 1.57907425C.245811422 1.57907425 0 1.32642237 0 .947444552 0 .568466731.245811422.315814851.614528556.315814851L55.7991929.315814851C56.16791.315814851 56.4137214.568466731 56.4137214.947444552 56.4751743 1.2632594 56.16791 1.57907425 55.8606457 1.57907425zM48.9779259 8.6533269L.614528556 8.6533269C.245811422 8.6533269 0 8.40067502 0 8.0216972 0 7.64271938.245811422 7.3900675.614528556 7.3900675L48.9779259 7.3900675C49.346643 7.3900675 49.5924544 7.64271938 49.5924544 8.0216972 49.5924544 8.40067502 49.346643 8.6533269 48.9779259 8.6533269z"/>
      </g>
      <polygon fill="#FFF" points="214.47 130.368 235.18 130.368 235.18 151.654 214.47 151.654" opacity=".45"/>
      <polygon fill="#FFF" points="240.957 130.368 261.666 130.368 261.666 151.654 240.957 151.654" opacity=".45"/>
    </g>
    <g transform="translate(298.53 207.353)">
      <path fill="#1C2B6B" d="M16.9117647,95.5521472 C16.9117647,95.5521472 17.0955882,97.8256947 17.4019608,98.1414652 C17.7083333,98.4572357 18.872549,98.8361602 18.8112745,99.972934 C18.6887255,101.109708 18.6887255,102.435944 18.3210784,102.499098 C17.9534314,102.499098 14.1544118,102.941176 14.0318627,102.499098 C13.9093137,102.057019 13.9705882,100.036088 13.9093137,99.6571635 C13.8480392,99.2782389 12.9901961,98.5835438 12.8676471,97.7625406 C12.745098,96.8783833 12.745098,95.362685 13.1127451,94.731144 C13.4803922,94.099603 13.8480392,93.6575244 14.2156863,93.6575244 C14.5833333,93.6575244 16.6666667,93.404908 16.7279412,94.0364489 C16.6666667,94.6048358 16.9117647,95.5521472 16.9117647,95.5521472 Z"/>
      <path fill="#F2DAD4" d="M20.2205882,72.0588235 C20.2205882,72.0588235 20.1593137,78.94262 19.6691176,81.595092 C19.1789216,84.2475641 17.6470588,89.8051245 17.6470588,91.5734392 C17.6470588,93.3417539 17.0343137,96.688921 17.0343137,96.688921 C17.0343137,96.688921 16.3602941,94.5416817 15.4411765,94.1627571 C14.5833333,93.7838326 13.7254902,94.3522194 13.7254902,93.7838326 C13.7254902,93.2785998 14.5220588,86.3316492 14.5833333,84.5001804 C14.6446078,82.6687117 14.0318627,79.1320823 14.1544118,77.8058463 C14.2156863,76.4796102 14.4607843,72.9429809 14.7671569,72.7535186 C15.1348039,72.5640563 20.2205882,72.0588235 20.2205882,72.0588235 Z"/>
      <path fill="#1C2B6B" d="M8.63970588,95.4889931 C8.63970588,95.4889931 7.96568627,98.3309275 8.02696078,99.4677012 C8.1495098,100.604475 8.27205882,102.625406 8.94607843,102.625406 C9.62009804,102.68856 11.3357843,102.878022 11.6421569,102.625406 C11.9485294,102.37279 12.622549,100.288704 12.5,98.9624684 C12.377451,97.5730783 11.8872549,94.3522194 11.5196078,93.4680621 C11.2132353,92.5839047 9.25245098,93.0891375 9.25245098,93.0891375 L8.63970588,95.4889931 Z"/>
      <path fill="#F2DAD4" d="M7.59803922,72.0588235 C7.59803922,72.0588235 6.67892157,76.9216889 6.98529412,79.4478528 C7.23039216,82.0371707 8.45588235,89.2367376 8.63970588,90.2472032 C8.82352941,91.3208228 8.45588235,95.2363768 8.63970588,95.425839 C8.82352941,95.6153013 9.31372549,93.6575244 10.4166667,93.7206785 C11.4583333,93.7838326 11.8872549,95.1732227 11.9485294,94.6679899 C12.0098039,94.1627571 11.8872549,89.8682786 11.9485294,87.6578852 C12.0098039,85.4474919 12.745098,82.1003248 12.8676471,80.268856 C12.9289216,78.4373872 12.8063725,73.7639841 12.6838235,72.9429809 C12.5,72.2482858 7.59803922,72.0588235 7.59803922,72.0588235 Z"/>
      <path fill="#1C2B6B" d="M4.65686275,47.1129556 C4.65686275,47.1129556 2.81862745,52.5442079 3.67647059,54.8809094 C4.59558824,57.217611 5.69852941,58.1649224 5.75980392,63.0909419 C5.82107843,67.9538073 3.92156863,71.1115121 4.59558824,72.1219776 C5.26960784,73.1324432 9.19117647,74.2060628 14.6446078,73.8271382 C20.0980392,73.4482136 24.8161765,73.0692891 24.877451,71.2378203 C24.9387255,69.4063515 22.120098,64.9224107 22.4264706,61.5120895 C22.7941176,58.1017683 24.9387255,53.302057 24.3259804,49.323349 C23.7132353,45.407795 22.7941176,44.081559 22.1813725,43.6394803 C21.5686275,43.1974017 4.65686275,47.1129556 4.65686275,47.1129556 Z"/>
      <path fill="#FE9887" d="M0.857843137,20.6513894 C-0.245098039,24.8827138 0.490196078,42.0606279 0.428921569,44.2078672 C0.367647059,46.3551065 0.612745098,52.5442079 1.8995098,53.1757488 C3.18627451,53.7441357 3.92156863,53.5546734 3.92156863,53.5546734 C3.92156863,53.5546734 4.84068627,42.3132443 4.96323529,40.5449296 C5.14705882,38.7766149 5.82107843,33.6611332 5.75980392,32.5243594 C5.6372549,31.3244316 1.28676471,19.3883075 0.857843137,20.6513894 Z"/>
      <path fill="#F2DAD4" d="M9.12990196 12.1887405C9.12990196 12.1887405 9.86519608 14.9675208 9.86519608 15.788524 9.86519608 16.6095272 15.379902 15.788524 15.379902 15.788524 15.379902 15.788524 15.2573529 13.136052 15.379902 12.6308192 15.502451 12.1887405 15.6862745 11.3045832 15.6862745 11.3045832L9.12990196 12.1887405zM20.1593137 3.0945507C20.2205882 3.59978347 19.9142157 4.23132443 20.4044118 4.86286539 20.8946078 5.49440635 22.120098 6.94695056 22.3039216 7.45218333 22.4877451 7.9574161 22.9166667 9.15734392 22.9166667 9.15734392L24.6936275 8.58895706C24.6936275 8.58895706 25.1838235 5.11548178 24.6936275 4.16817034 24.2034314 3.2208589 23.2230392 2.71562613 22.8553922 2.27354746 22.4877451 1.83146878 22.3651961 1.26308192 21.752451 1.26308192 21.1397059 1.26308192 19.9142157 1.32623602 20.1593137 3.0945507z"/>
      <path fill="#FE9887" d="M9.31372549,15.5359076 C8.88480392,16.420065 7.65931373,17.9357633 6.92401961,17.9989174 C6.18872549,18.0620715 1.04166667,18.5673042 0.796568627,20.5882353 C-0.367647059,30.5665825 4.77941176,32.0191267 5.6372549,35.2399856 C7.84313725,43.5131721 2.38970588,41.4922411 3.67647059,48.6286539 C3.79901961,49.2601949 7.53676471,49.7022735 13.7867647,48.2497293 C20.0367647,46.734031 24.877451,43.450018 24.5098039,42.8816312 C24.2034314,42.3132443 19.7916667,37.7661494 20.1593137,33.2190545 C20.5269608,28.6719596 23.5906863,24.8827138 26.2254902,23.051245 C28.8602941,21.2197763 30.2083333,20.398773 28.6764706,16.6095272 C27.1446078,12.8202815 26.0416667,7.76795381 25.4289216,7.70479971 C24.8161765,7.57849152 22.2426471,8.21003248 22.2426471,8.90472754 C22.2426471,9.59942259 22.7328431,11.9992782 23.0392157,13.0097438 C23.3455882,13.9570552 24.5710784,16.6726813 24.5098039,17.2410682 C24.4485294,17.8094551 23.4068627,16.4832191 22.7941176,16.0411404 C22.1813725,15.5990617 19.7303922,16.420065 18.872549,16.6095272 C17.9534314,16.7989895 16.9117647,17.2410682 16.7279412,16.7358354 C16.5441176,16.2306027 16.1764706,15.2201371 15.6862745,15.2201371 C15.1348039,15.2201371 9.80392157,14.5885962 9.31372549,15.5359076 Z"/>
      <path fill="#1C2B6B" d="M11.9485294,0.568386864 C9.31372549,0.442078672 6.61764706,3.53662938 6.61764706,6.3154096 C6.61764706,9.09418982 8.08823529,12.1255864 8.94607843,12.7571274 C9.86519608,13.3886684 10.2941176,13.9570552 10.3553922,14.7149044 C10.4166667,15.4727535 10.2328431,19.072537 12.3161765,19.072537 C14.4607843,19.0093829 15.0122549,17.3673764 14.5833333,16.420065 C14.1544118,15.4727535 13.3578431,14.462288 14.1544118,13.830747 C15.0122549,13.1992061 16.9730392,10.7993504 17.3406863,8.84157344 C17.8308824,6.94695056 18.1372549,0.821003248 11.9485294,0.568386864 Z"/>
    </g>
    <g transform="translate(105.147 201.47)">
      <path fill="url(#computer-analysis-g)" d="M16.461714,99.99742 C16.461714,99.99742 16.2132353,102.46259 16.1511156,102.968266 C16.0889959,103.473942 15.9026369,105.117389 16.1511156,105.623065 C16.3995943,106.128741 16.9586714,106.381579 17.5798682,106.318369 C18.2010649,106.318369 20.1267748,106.381579 20.3131339,106.002322 C20.4994929,105.623065 20.4994929,102.968266 20.3131339,101.956914 C20.1267748,100.945562 20.0025355,99.871001 19.7540568,99.3653251 C19.5676978,98.8596491 18.573783,98.3539732 18.0768256,98.4171827 C17.5177485,98.4803922 16.7101927,99.3021156 16.461714,99.99742 Z"/>
      <path fill="url(#computer-analysis-h)" d="M6.77104462,99.6181631 C6.77104462,99.6181631 6.08772819,101.1984 5.77712982,101.640867 C5.46653144,102.083333 5.15593306,103.094685 5.77712982,103.663571 C6.39832657,104.232456 7.081643,107.266512 7.51648073,107.45614 C7.95131846,107.645769 10.2497465,108.025026 10.8709432,107.835397 C11.49214,107.645769 12.051217,106.950464 12.051217,106.444788 C12.051217,105.939112 11.4300203,105.243808 10.9951826,104.295666 C10.5603448,103.347523 9.13159229,100.06063 8.57251521,99.6181631 C8.07555781,99.1756966 7.01952333,99.0492776 6.77104462,99.6181631 Z"/>
      <path fill="#F2DAD4" d="M22.6115619 70.4153767C22.6115619 70.4153767 22.6736815 74.8400413 22.6115619 76.0410217 22.5494422 77.2420021 23.1085193 80.5288958 22.9842799 82.0459236 22.8600406 83.626161 21.431288 91.0848813 20.872211 93.0443756 20.3131339 95.00387 19.8161765 97.1529928 19.8782961 97.4690402 19.9404158 97.7850877 20.0646552 98.5436017 20.0646552 98.8596491 20.0646552 99.1756966 20.1888945 100.06063 19.8782961 99.871001 19.5055781 99.6813725 19.3192191 98.6068111 18.2010649 98.6700206 17.0829108 98.7332301 16.648073 100.06063 16.5238337 99.871001 16.3995943 99.6813725 17.3313895 96.5841073 17.2692698 96.0152219 17.2071501 95.4463364 16.3995943 84.005418 16.648073 82.3619711 16.8965517 80.7185243 17.1450304 77.1155831 16.7723124 75.8513932 16.3995943 74.5872033 16.275355 72.122033 16.461714 71.1106811 16.7101927 70.1625387 22.6115619 70.4153767 22.6115619 70.4153767zM9.00735294 71.3003096C9.00735294 71.3003096 9.13159229 75.2825077 9.00735294 76.1674407 8.88311359 77.0523736 6.89528398 80.3392673 6.95740365 84.7007224 7.01952333 89.0621775 7.26800203 96.7737358 7.26800203 97.4690402 7.26800203 98.1643447 6.8331643 99.5549536 6.8331643 99.5549536 6.8331643 99.6181631 7.95131846 99.0492776 8.69675456 100.06063 9.44219067 101.071981 11.1194219 104.738132 11.1194219 104.232456 11.1194219 103.72678 11.1194219 99.9342105 10.8088235 98.4171827 10.5603448 96.9001548 10.1255071 95.130289 10.3739858 94.118937 10.6224645 93.1075851 12.7345335 85.3960268 12.7345335 84.0686275 12.7345335 82.7412281 13.2314909 78.6958204 13.790568 77.747678 14.2875254 76.7995356 15.4056795 73.7022704 15.0329615 70.7946336L9.00735294 71.3003096zM29.3204868 2.90763674C29.0098884 3.09726522 29.1962475 6.06811146 29.3204868 6.51057792 29.4447262 6.95304438 30.2522819 8.9125387 30.5007606 9.54463364 30.7492394 10.1767286 31.1840771 12.0098039 31.4325558 12.0098039 31.6810345 12.0098039 33.3582657 11.9465944 33.4203854 11.7569659 33.4825051 11.5673375 33.6688641 10.8088235 33.4203854 10.3663571 33.1719067 9.92389061 33.0476673 7.96439628 33.2340264 7.26909185 33.3582657 6.6369969 33.4825051 5.11996904 33.2340264 4.17182663 32.9855477 3.22368421 32.3643509 2.65479876 31.9916329 2.46517028 31.6189148 2.2755418 31.0598377 2.2755418 30.9355984 2.02270382 30.811359 1.76986584 30.438641 1.26418989 30.3144016 1.01135191 29.6932049.126418989 29.6932049.948142415 29.8174442 1.39060888 29.8795639 1.64344685 30.0038032 2.65479876 30.0659229 2.97084623 30.0038032 3.22368421 29.6932049 2.71800826 29.3204868 2.90763674zM2.7953854 54.6762126C2.7953854 54.6762126 2.60902637 57.9631063 2.7953854 58.5319917 2.98174442 59.0376677 3.66506085 60.5546956 4.59685598 60.9339525 5.52865112 61.376419 6.64680527 62.0717234 6.77104462 61.8820949 6.89528398 61.6924665 6.39832657 60.5546956 6.3362069 60.1122291 6.27408722 59.6697626 6.46044625 60.0490196 6.64680527 59.8593911 6.8331643 59.7329721 7.20588235 56.5092879 6.52256592 55.6875645 5.83924949 54.8658411 5.40441176 54.2969556 5.15593306 54.2969556 4.90745436 54.2969556 2.7953854 54.6762126 2.7953854 54.6762126z"/>
      <path fill="#1C2B6B" d="M20.6858519,38.494582 C20.6858519,38.494582 24.1024341,44.246646 24.9721095,48.1024252 C25.7796653,51.9582043 24.7857505,60.2386481 24.9721095,62.3877709 C25.1584686,64.5368937 25.841785,70.5417957 25.2827079,70.7314241 C24.7857505,70.8578431 19.3813387,71.7427761 18.3253043,71.5531476 C17.2692698,71.3635191 14.4738844,71.6795666 13.3557302,71.869195 C12.2375761,71.995614 9.00735294,73.2598039 8.69675456,72.3116615 C8.44827586,71.4267286 5.46653144,53.6016512 5.71501014,51.6421569 C5.96348884,49.6826625 7.39224138,41.2125903 8.32403651,40.1380289 C9.31795132,39.1898865 20.6858519,38.494582 20.6858519,38.494582 Z"/>
      <path fill="url(#computer-analysis-i)" d="M6.02560852,20.9855521 C4.09989858,21.8072755 1.67723124,23.0714654 1.24239351,25.4734262 C0.807555781,27.8121775 0.248478702,40.2644479 0.372718053,42.2239422 C0.496957404,44.1834365 0.807555781,47.9127967 1.11815416,48.6713106 C1.42875254,49.4298246 2.29842799,51.1364809 2.29842799,51.5157379 C2.29842799,51.8949948 2.04994929,54.7394221 2.36054767,54.8658411 C2.67114604,55.0554696 3.66506085,55.497936 4.47261663,55.3083075 C5.28017241,55.1186791 5.90136917,54.4865841 5.65289047,53.9809082 C5.46653144,53.4752322 4.84533469,48.4816821 4.96957404,46.9014448 C5.09381339,45.3212074 4.90745436,39.0634675 5.03169371,37.5464396 C5.15593306,36.0294118 5.40441176,33.3114035 5.59077079,34.1963364 C5.77712982,35.0812693 6.27408722,40.4540764 7.26800203,40.8965428 C8.26191684,41.2757998 11.9890974,42.0343137 14.6602434,41.5286378 C17.3313895,41.0229618 21.3691684,40.1380289 21.4934077,38.9370485 C21.6176471,37.7360681 21.6797667,29.7716718 22.6115619,28.6971104 C23.543357,27.6857585 25.1584686,27.2432921 26.3387424,27.0536636 C27.5190162,26.8640351 33.4825051,24.3356553 34.6006592,23.7035604 C35.7188134,23.0714654 36.0915314,21.1119711 35.4703347,17.6354489 C34.8491379,14.2221362 34.1658215,11.3144995 33.5446247,11.25129 C32.923428,11.124871 31.1219574,11.3144995 31.1219574,11.5673375 C31.1219574,11.8201754 31.8052738,16.8137255 31.9295132,17.5722394 C32.0537525,18.3307534 31.4325558,19.4685243 30.3144016,19.7845717 C29.1962475,20.1006192 26.0902637,21.6808566 24.7236308,21.5544376 C23.2948783,21.3648091 21.1828093,20.3534572 19.6919371,20.2270382 C18.1389452,20.1638287 8.32403651,19.9742002 6.02560852,20.9855521 Z"/>
      <path fill="#F2DAD4" d="M16.834432,7.26909185 C17.5177485,8.02760578 18.2631846,8.65970072 18.2631846,9.10216718 C18.2631846,9.54463364 18.1389452,10.4927761 18.2631846,10.6824045 C18.3874239,10.872033 18.8222617,11.25129 18.8222617,11.8201754 C18.8222617,12.3890609 18.573783,15.2966976 18.3874239,15.6127451 C18.2010649,15.9287926 16.9586714,15.6127451 16.5859533,15.6127451 C15.7162779,15.5495356 10.2497465,16.0552116 10.0633874,10.2399381 C9.8770284,5.49922601 14.9708418,6.13132095 15.4056795,6.25773994 C15.9026369,6.38415893 16.834432,7.26909185 16.834432,7.26909185 Z"/>
      <path fill="#1C2B6B" d="M15.2814402,5.62564499 C14.7223631,5.62564499 15.2193205,4.55108359 13.4178499,4.99355005 C12.3618154,5.24638803 7.51648073,6.7002064 7.20588235,10.1135191 C6.89528398,13.5900413 6.39832657,18.0147059 6.21196755,18.7100103 C5.83924949,19.9742002 3.97565923,21.8072755 4.0377789,23.6403509 C4.22413793,27.622549 5.09381339,39.505934 11.49214,39.253096 C17.8904665,39.000258 16.1511156,28.5706914 16.7101927,27.0536636 C17.2071501,25.5366357 19.3813387,22.6922085 18.6359026,20.6062951 C17.8904665,18.5203818 16.834432,14.3485552 17.0207911,13.5900413 C17.2071501,12.8315273 17.7041075,11.1880805 17.2692698,9.92389061 C16.834432,8.65970072 17.5177485,7.90118679 17.2692698,7.39551084 C17.0207911,6.82662539 16.461714,5.68885449 15.2814402,5.62564499 Z"/>
    </g>
    <g transform="translate(235.294)">
      <path fill="url(#computer-analysis-j)" d="M4.28921569,68.156554 C4.28921569,68.156554 2.45098039,69.6080361 2.32843137,69.9866836 C2.26715686,70.3653312 2.45098039,72.3216767 2.45098039,72.3216767 L2.81862745,72.6372163 C2.81862745,72.6372163 2.26715686,73.5207272 2.20588235,73.646943 C2.14460784,73.8362668 0.919117647,74.8459935 1.16421569,76.1081519 C1.40931373,77.3703103 1.83823529,77.8751737 2.08333333,78.0644975 C2.26715686,78.2538212 4.47303922,80.020843 4.96323529,79.8315192 C5.45343137,79.6421955 6.37254902,77.6858499 6.55637255,76.9285549 C6.74019608,76.2343678 7.41421569,73.646943 7.90441176,72.889648 C8.39460784,72.1323529 9.25245098,71.3750579 9.00735294,70.9964104 C8.7622549,70.6177629 7.10784314,69.2924965 6.55637255,69.0400648 C6.00490196,68.913849 5.14705882,68.093446 4.28921569,68.156554 Z"/>
      <path fill="url(#computer-analysis-k)" d="M12.9289216,72.889648 C12.9289216,72.889648 13.2352941,73.7100509 13.4803922,74.2149143 C13.6642157,74.7197777 13.7867647,74.9091014 13.7867647,74.9091014 L14.0318627,74.9091014 L14.2156863,76.6761232 L11.4583333,77.9382816 L8.88480392,77.5596341 L8.88480392,76.802339 C8.88480392,76.802339 6.25,78.1276054 5.08578431,76.9285549 C3.92156863,75.7295044 4.22794118,74.3411302 4.65686275,73.8362668 C5.08578431,73.3314034 6.25,72.889648 7.29166667,72.889648 C8.33333333,72.8265401 8.63970588,72.5110005 8.57843137,72.3216767 C8.51715686,72.1323529 8.1495098,71.1857341 8.7622549,70.9964104 C9.375,70.7439787 10.2941176,70.8070866 10.7843137,71.2488421 C11.3357843,71.6905975 12.6838235,72.4478925 12.6838235,72.4478925 L12.9289216,72.889648 Z"/>
      <path fill="url(#computer-analysis-l)" d="M5.51470588,43.4813571 C5.51470588,43.4813571 2.87990196,48.9086383 3.06372549,51.6222788 C3.24754902,54.2728115 6.12745098,70.8701945 7.10784314,71.8168133 C8.1495098,72.7634321 9.62009804,70.7439787 10.9068627,71.8168133 C12.1936275,72.889648 12.5612745,73.4576193 13.1127451,72.6372163 C13.6642157,71.8168133 10.8455882,53.1999768 10.5392157,52.1271422 C10.2328431,51.0543075 11.7034314,49.097962 13.2352941,47.4571561 C14.7671569,45.8163502 18.5661765,41.6512274 18.5661765,41.6512274 L21.8137255,34.078277 L17.0343137,32.3112552 C17.0955882,32.3112552 6.74019608,40.9570403 5.51470588,43.4813571 Z"/>
      <path fill="#1C2B6B" d="M25.8578431,36.9812413 C25.8578431,36.9812413 27.8186275,41.1463641 26.0416667,43.7337888 C24.2647059,46.3212135 19.8529412,50.8018759 18.8112745,53.1368689 C17.7083333,55.471862 9.80392157,70.7439787 9.25245098,71.2488421 C8.70098039,71.7537054 3.98284314,69.1031728 4.16666667,68.4089856 C4.3504902,67.6516906 4.71813725,62.0981936 7.90441176,58.1223946 C11.0906863,54.1465956 11.7034314,52.0009264 12.0710784,50.2970125 C12.4387255,48.5930987 15.9313725,42.7240621 17.1568627,40.7046086 C18.4436275,38.6851552 18.5661765,34.6462483 19.9754902,33.8889532 C21.3235294,33.0685503 25.8578431,36.9812413 25.8578431,36.9812413 Z"/>
      <path fill="#4EE2FF" d="M6.18872549,39.1900185 L23.4068627,39.1900185 C23.7132353,39.1900185 23.9583333,39.568666 23.7745098,39.8842057 L20.7107843,44.8066234 L5.88235294,44.4279759 L6.18872549,39.1900185 Z"/>
      <path fill="url(#computer-analysis-m)" d="M9.25245098,17.4808939 C9.25245098,17.4808939 7.96568627,18.995484 7.59803922,21.5198008 C7.23039216,23.9810097 6.43382353,31.4908522 6.12745098,33.8889532 C5.75980392,36.2870542 5.6372549,37.6123205 7.72058824,37.8647522 C9.80392157,38.1171839 10.7843137,37.2967809 11.0906863,36.5394859 C11.3970588,35.8452987 12.1323529,26.5053265 12.0710784,23.6654701 C11.8872549,20.7625058 11.0294118,17.8595415 9.25245098,17.4808939 Z"/>
      <path fill="url(#computer-analysis-n)" d="M16.5441176,12.7477999 C16.5441176,12.7477999 15.9313725,12.8740157 15.3186275,13.7575266 C14.7058824,14.6410375 12.9901961,15.5245484 12.0710784,15.9663038 C11.1519608,16.4080593 9.31372549,17.1653543 9.19117647,17.7333256 C9.06862745,18.3012969 10.7843137,20.0052107 10.8455882,21.5198008 C10.9068627,23.0343909 10.6617647,30.2918018 10.8455882,31.3015285 C11.0906863,32.3112552 10.1715686,35.0248958 12.1323529,35.2773275 C14.0931373,35.5297591 17.5857843,34.078277 19.3014706,34.5200324 C21.0171569,34.9617879 26.1029412,38.7482631 26.8382353,38.4327235 C27.5735294,38.1802918 29.5343137,25.7480315 29.3504902,21.4566929 C29.1666667,17.1653543 28.4926471,16.7867068 26.8995098,15.7769801 C25.3063725,14.7672534 24.5098039,14.4517138 24.1421569,13.6313108 C23.7132353,12.8109078 23.0392157,12.0536128 22.4877451,11.9905049 C21.875,11.9273969 16.5441176,12.7477999 16.5441176,12.7477999 Z"/>
      <path fill="url(#computer-analysis-o)" d="M22.4264706,12.0536128 C22.4264706,12.0536128 22.6102941,12.8740157 22.6102941,13.6944187 C22.6102941,14.5148217 22.3651961,15.7138722 22.1813725,16.1556276 C21.997549,16.5342751 19.3014706,21.4566929 18.9338235,21.5198008 C18.5661765,21.5829088 16.8504902,17.1022464 16.3602941,16.3449514 C15.870098,15.5876563 15.9313725,14.0730662 15.9926471,13.9468504 C16.0539216,13.8206346 16.4215686,13.7575266 16.4215686,13.7575266 L16.5441176,12.8109078 L22.4264706,12.0536128 Z"/>
      <path fill="#1C2B6B" d="M15.3186275,8.58267717 C15.3186275,8.58267717 14.5833333,5.04863363 15.1348039,3.66025938 C15.6862745,2.27188513 16.5441176,1.70391385 17.4019608,1.38837425 C18.2598039,1.07283465 19.7303922,-0.0631079203 21.2009804,0.883510885 C22.6102941,1.83012969 23.5294118,3.0922881 23.4681373,4.54377026 C23.4681373,5.99525243 23.4681373,7.32051876 22.9166667,9.08754053 C22.3651961,10.8545623 15.3186275,8.58267717 15.3186275,8.58267717 Z"/>
      <path fill="#F2DAD4" d="M15.379902 8.89821677C15.379902 8.89821677 16.8504902 15.5876563 18.75 15.5876563 21.1397059 15.5876563 22.5490196 12.0536128 22.6715686 11.0438861 22.7941176 10.0341593 23.2230392 10.0341593 23.5906863 8.89821677 23.9583333 7.7622742 23.8357843 6.68943956 23.5906863 6.8156554 23.3455882 6.94187124 23.1004902 8.58267717 22.7941176 8.58267717 22.4877451 8.64578509 22.1813725 5.61660491 21.2009804 5.86903659 20.2205882 6.12146827 19.7916667 6.94187124 18.8112745 6.94187124 17.8308824 6.94187124 16.9730392 5.80592867 16.5441176 5.86903659 16.1764706 5.86903659 15.0122549 6.18457619 15.379902 8.89821677zM29.7794118 36.3501621C29.7794118 36.3501621 27.5735294 38.1802918 26.1642157 38.6220472 24.754902 39.0638027 23.4681373 39.2531264 23.1004902 39.2531264 22.7328431 39.2531264 21.997549 39.2531264 21.752451 39.568666 21.5073529 39.8842057 21.5686275 40.3259611 20.8333333 40.7046086 20.0980392 41.0832561 19.1176471 41.7143353 18.504902 41.6512274 17.8921569 41.5881195 16.5441176 38.4327235 17.2181373 38.1802918 17.8921569 37.9278601 21.5073529 36.6025938 21.997549 36.3501621 22.4877451 36.0977304 25.3676471 34.4569245 25.7352941 34.1413849 26.1642157 33.8889532 26.4093137 33.257874 27.1446078 33.4471978 27.9411765 33.6365215 29.7181373 34.3307087 29.7794118 36.3501621z"/>
      <path fill="url(#computer-analysis-p)" d="M28.4313725,17.1022464 C28.4313725,17.1022464 31.127451,18.8061603 32.5367647,22.7188513 C34.0073529,26.6315424 31.25,35.4035433 30.6985294,36.1608384 C30.1470588,36.9181334 29.1053922,37.6123205 28.4313725,37.4861047 C27.7573529,37.3598888 29.5343137,37.1074572 29.3504902,36.2239463 C29.1053922,35.3404354 28.5539216,34.2676007 27.6348039,33.9520611 C26.7156863,33.6365215 25.9803922,34.0151691 25.9803922,34.0151691 C25.9803922,34.0151691 25.9803922,32.5636869 26.4705882,31.3646364 C26.9607843,30.1655859 25.5514706,27.9568087 25.9191176,25.8742473 C26.2867647,23.8547939 25.6740196,19.3741315 28.4313725,17.1022464 Z"/>
      <path fill="#1C80FF" d="M0.428921569,33.8889532 L2.20588235,43.9231126 C2.26715686,44.3017601 2.57352941,44.5541918 2.94117647,44.5541918 L19.9142157,44.9959472 C20.4044118,44.9959472 20.7720588,44.6172997 20.7107843,44.1124363 L19.5465686,33.8258453 C19.4852941,33.3840899 19.1176471,33.0685503 18.6887255,33.0685503 L1.28676471,32.8161186 C0.735294118,32.8161186 0.306372549,33.3209819 0.428921569,33.8889532 Z"/>
    </g>
    <g transform="translate(377.206 197.794)">
      <path fill="url(#computer-analysis-q)" d="M19.5244055,100.496646 C18.7312265,100.05418 17.2058824,99.1692466 16.3516896,99.8645511 C15.4974969,100.559856 16.4737171,103.088235 17.5109512,103.530702 C18.5481852,103.973168 20.0735294,103.530702 20.6836671,103.846749 C21.2938048,104.162797 20.9887359,104.98452 21.1107635,105.237358 C21.232791,105.490196 21.8429287,106.501548 23.6123279,106.501548 C25.3817272,106.501548 25.2596996,104.478844 25.3817272,103.973168 C25.5037547,103.467492 25.7478098,101.381579 25.3817272,101.065531 C25.0766583,100.686275 19.5244055,100.496646 19.5244055,100.496646 Z"/>
      <path fill="url(#computer-analysis-r)" d="M8.54192741,102.961816 C7.56570713,103.846749 5.73529412,104.921311 5.24718398,104.858101 C4.75907384,104.794892 1.52534418,103.846749 0.854192741,104.415635 C0.183041302,104.98452 0.305068836,106.059082 0.671151439,106.375129 C1.03723404,106.691176 3.5387985,109.156347 6.22340426,108.966718 C8.90801001,108.77709 10.0672716,108.524252 10.0672716,108.77709 C10.0672716,109.029928 10.0672716,109.472394 10.0672716,109.472394 C10.0672716,109.472394 12.6908636,110.673375 13.8501252,110.104489 C15.0093867,109.535604 14.948373,108.397833 14.948373,107.765738 C15.0093867,107.133643 15.0093867,106.059082 14.8263454,105.553406 C14.7653317,105.237358 8.54192741,102.961816 8.54192741,102.961816 Z"/>
      <path fill="url(#computer-analysis-s)" d="M25.1986859,54.2905057 C25.1986859,54.2905057 26.2969337,74.6439628 26.5409887,80.5856553 C26.7850438,86.5273478 26.7850438,99.8013416 26.4189612,101.19195 C26.1138924,102.45614 24.3444931,102.772188 22.3310388,102.203302 C20.3175845,101.634417 18.609199,101.697626 19.2803504,99.0428277 C19.9515019,96.3880289 21.8429287,94.3021156 20.9277222,90.2567079 C20.0125156,86.2113003 15.0704005,60.9907121 15.0093867,58.5887513 C14.948373,56.25 25.1986859,54.2905057 25.1986859,54.2905057 Z"/>
      <path fill="#1C2B6B" d="M8.96902378,54.2905057 C8.96902378,54.2905057 7.87077597,70.9146027 7.93178974,75.6553148 C7.9928035,80.3960268 8.11483104,89.877451 8.41989987,92.2794118 C8.72496871,94.6813725 8.84699625,101.381579 8.41989987,101.887255 C7.9928035,102.392931 7.74874844,103.909959 8.96902378,104.98452 C10.1892991,106.059082 13.7891114,108.081785 14.6433041,107.386481 C15.4974969,106.691176 15.8025657,93.2907637 16.3516896,91.3312693 C16.9008135,89.371775 16.6567584,77.4883901 17.2668961,74.5175439 C18.609199,67.880547 24.649562,63.5190918 25.2596996,61.1803406 C25.686796,59.4736842 26.479975,55.744324 25.1986859,54.2905057 C23.9173967,52.8366873 8.96902378,54.2905057 8.96902378,54.2905057 Z"/>
      <path fill="#835622" d="M9.82321652,8.52683179 C9.57916145,10.2334881 9.70118899,12.1929825 9.82321652,12.4458204 C9.94524406,12.6986584 11.0434919,13.2675439 11.0434919,14.2788958 C11.0434919,15.2902477 11.4095745,16.1751806 11.5926158,16.744066 C11.7756571,17.3129515 13.6060701,19.3356553 14.2772215,19.3356553 C15.0093867,19.3356553 14.948373,17.5657895 16.778786,16.996904 C18.4261577,16.4912281 21.3548185,16.9336945 21.1717772,16.1119711 C20.9887359,15.2902477 19.9515019,14.4053148 19.7074468,13.4571723 C19.4633917,12.5090299 21.4158323,4.41821465 16.4127034,3.47007224 C11.4095745,2.52192982 10.0672716,6.69375645 9.82321652,8.52683179 Z"/>
      <path fill="#1C2B6B" d="M16.4391888,0.0176390578 C14.2543847,0.0975499021 10.9771785,2.17523185 9.9576033,3.85335958 C8.93802806,5.53148732 9.01085486,7.28952589 9.37498888,7.68908011 C9.73912289,8.08863433 10.3945641,8.32836687 10.2489105,9.12747531 C10.1760837,10.0064946 10.4673909,10.6457814 10.7586981,11.1252464 C11.0500054,11.5248006 11.4141394,11.6846223 11.6326198,12.4837308 C11.7782734,13.2828392 11.9967538,13.3627501 12.2152342,13.3627501 C12.4337146,13.4426609 13.016329,12.2439982 12.8706754,11.2850681 C12.7250218,10.326138 12.7978486,9.12747531 13.8174239,10.0064946 C14.9098259,10.8855139 17.5315908,13.922126 17.822898,14.5614127 C18.1142053,15.2006995 22.1196794,14.8011453 22.3381598,14.5614127 C22.5566403,14.3216802 23.6490423,5.61139816 21.3914114,2.73460776 C19.2066073,0.0176390578 18.0413785,-0.0622717865 16.4391888,0.0176390578 Z"/>
      <path fill="#FE9887" d="M20.5616395,14.9109907 C20.5616395,14.9109907 17.2058824,14.8477812 16.1076345,15.9855521 C15.0093867,17.123323 14.7043179,18.7667699 14.3992491,18.9563983 C14.0941802,19.1460268 11.1045056,20.4734262 10.494368,20.7262642 C9.88423029,20.9158927 7.56570713,25.2773478 7.4436796,26.4783282 C7.32165207,27.6793086 6.40644556,31.0926213 5.91833542,32.0407637 C5.43022528,32.9889061 2.50156446,35.7069143 4.02690864,38.1720846 C5.55225282,40.6372549 7.56570713,40.6372549 8.29787234,40.4476264 C8.96902378,40.1947884 10.9824781,36.4022188 11.0434919,37.7296182 C11.1045056,38.993808 10.1892991,42.8495872 9.64017522,45.1883385 C9.09105131,47.5270898 6.95556946,55.0490196 7.87077597,55.2386481 C8.35888611,55.3650671 20.8056946,57.2613519 23.0021902,57.0717234 C25.1986859,56.8820949 26.5409887,57.0085139 26.2969337,54.1640867 C26.1749061,52.7102683 25.8088235,50.0554696 25.2596996,47.7799278 C24.7715895,45.7572239 23.6733417,44.3666151 25.1986859,41.7750258 C26.6630163,39.1834365 28.4934293,30.4605263 28.5544431,29.2595459 C28.6154568,28.0585655 28.9815394,24.2027864 27.8832916,23.001806 C26.7850438,21.8008256 23.2462453,19.4620743 22.8191489,18.4507224 C22.3310388,17.4393705 21.5988736,14.7845717 20.5616395,14.9109907 Z"/>
    </g>
  </g>
</svg>
