<svg xmlns="http://www.w3.org/2000/svg" viewBox="0 0 680 428">
  <defs>
    <linearGradient id="computer-analysis-a" x1="14.072%" x2="129.425%" y1="14.074%" y2="129.386%">
      <stop offset="0%" stop-color="#624FB5"/>
      <stop offset="23.25%" stop-color="#19265F"/>
      <stop offset="65.42%" stop-color="#10193E"/>
      <stop offset="100%" stop-color="#080C1F"/>
    </linearGradient>
    <linearGradient id="computer-analysis-b" x1="50.009%" x2="50.009%" y1="50.003%" y2="126.682%">
      <stop offset="0%" stop-color="#E6FBFC"/>
      <stop offset="26.02%" stop-color="#DAF2F7"/>
      <stop offset="73.24%" stop-color="#B9DAE9"/>
      <stop offset="100%" stop-color="#A4CBE0"/>
    </linearGradient>
    <linearGradient id="computer-analysis-c" x1="50.012%" x2="50.012%" y1="50.003%" y2="126.682%">
      <stop offset="0%" stop-color="#E6FBFC"/>
      <stop offset="26.02%" stop-color="#DAF2F7"/>
      <stop offset="73.24%" stop-color="#B9DAE9"/>
      <stop offset="100%" stop-color="#A4CBE0"/>
    </linearGradient>
    <linearGradient id="computer-analysis-d" x1="21.428%" x2="121.583%" y1="25.159%" y2="112.129%">
      <stop offset="0%" stop-color="#FFAC00"/>
      <stop offset="99.87%" stop-color="#FF5E00"/>
    </linearGradient>
    <linearGradient id="computer-analysis-e" x1="21.634%" x2="121.79%" y1="25.159%" y2="112.129%">
      <stop offset="0%" stop-color="#FFAC00"/>
      <stop offset="99.87%" stop-color="#FF5E00"/>
    </linearGradient>
    <linearGradient id="computer-analysis-f" x1=".027%" x2="100.002%" y1="49.914%" y2="49.914%">
      <stop offset="0%" stop-color="#4E9CFF"/>
      <stop offset="100%" stop-color="#176AD4"/>
    </linearGradient>
    <linearGradient id="computer-analysis-g" x1="-1.367%" x2="104.477%" y1="18.926%" y2="88.037%">
      <stop offset="0%" stop-color="#FFAC00"/>
      <stop offset="100%" stop-color="#FF5E00"/>
    </linearGradient>
    <linearGradient id="computer-analysis-h" x1="43.773%" x2="55.244%" y1="8.418%" y2="123.537%">
      <stop offset="0%" stop-color="#1C2B6B"/>
      <stop offset="23.26%" stop-color="#19265F"/>
      <stop offset="65.49%" stop-color="#11193E"/>
      <stop offset="72.72%" stop-color="#0F1638"/>
      <stop offset="100%" stop-color="#080C1F"/>
    </linearGradient>
    <linearGradient id="computer-analysis-i" x1="36.768%" x2="66.707%" y1="18.259%" y2="111.844%">
      <stop offset="0%" stop-color="#1C2B6B"/>
      <stop offset="23.26%" stop-color="#19265F"/>
      <stop offset="65.49%" stop-color="#11193E"/>
      <stop offset="72.72%" stop-color="#0F1638"/>
      <stop offset="100%" stop-color="#080C1F"/>
    </linearGradient>
    <linearGradient id="computer-analysis-j" x1="45.431%" x2="58.622%" y1="8.093%" y2="115.981%">
      <stop offset="0%" stop-color="#FFAC00"/>
      <stop offset="99.87%" stop-color="#FF5E00"/>
    </linearGradient>
    <linearGradient id="computer-analysis-k" x1="-1.972%" x2="102.935%" y1="53.402%" y2="45.684%">
      <stop offset="0%" stop-color="#1C2B6B"/>
      <stop offset="23.25%" stop-color="#19265F"/>
      <stop offset="65.42%" stop-color="#10193E"/>
      <stop offset="100%" stop-color="#080C1F"/>
    </linearGradient>
    <linearGradient id="computer-analysis-l" x1="66.112%" x2="40.178%" y1="-20.414%" y2="125.674%">
      <stop offset="0%" stop-color="#1C2B6B"/>
      <stop offset="23.25%" stop-color="#19265F"/>
      <stop offset="65.42%" stop-color="#10193E"/>
      <stop offset="100%" stop-color="#080C1F"/>
    </linearGradient>
    <linearGradient id="computer-analysis-m" x1="-.126%" x2="100.206%" y1="49.966%" y2="49.966%">
      <stop offset="0%" stop-color="#1C2B6B"/>
      <stop offset="23.25%" stop-color="#19265F"/>
      <stop offset="65.42%" stop-color="#10193E"/>
      <stop offset="100%" stop-color="#080C1F"/>
    </linearGradient>
    <linearGradient id="computer-analysis-n" x1="-63.622%" x2="219.749%" y1="35.593%" y2="74.995%">
      <stop offset="0%" stop-color="#FFAC00"/>
      <stop offset="99.87%" stop-color="#FF5E00"/>
    </linearGradient>
    <linearGradient id="computer-analysis-o" x1="49.589%" x2="52.14%" y1="-1.011%" y2="166.519%">
      <stop offset="0%" stop-color="#FFAC00"/>
      <stop offset="99.87%" stop-color="#FF5E00"/>
    </linearGradient>
    <linearGradient id="computer-analysis-p" x1="50.309%" x2="50.309%" y1="73.448%" y2="-49.007%">
      <stop offset="0%" stop-color="#F2DAD4"/>
      <stop offset="23.25%" stop-color="#F1D0C8"/>
      <stop offset="65.42%" stop-color="#EEB5A7"/>
      <stop offset="100%" stop-color="#EB9C88"/>
    </linearGradient>
    <linearGradient id="computer-analysis-q" x1="137.79%" x2="-140.832%" y1="32.744%" y2="82.487%">
      <stop offset="0%" stop-color="#FFAC00"/>
      <stop offset="99.87%" stop-color="#FF5E00"/>
    </linearGradient>
    <linearGradient id="computer-analysis-r" x1="-23.046%" x2="92.884%" y1="-54.343%" y2="81.197%">
      <stop offset="0%" stop-color="#1C2B6B"/>
      <stop offset="23.25%" stop-color="#19265F"/>
      <stop offset="65.42%" stop-color="#10193E"/>
      <stop offset="100%" stop-color="#080C1F"/>
    </linearGradient>
    <linearGradient id="computer-analysis-s" x1="-6.255%" x2="110.519%" y1="-7.186%" y2="101.43%">
      <stop offset="0%" stop-color="#1C2B6B"/>
      <stop offset="23.25%" stop-color="#19265F"/>
      <stop offset="65.42%" stop-color="#10193E"/>
      <stop offset="100%" stop-color="#080C1F"/>
    </linearGradient>
    <linearGradient id="computer-analysis-t" x1="50.286%" x2="71.799%" y1="49.648%" y2="-2.261%">
      <stop offset="0%" stop-color="#1C2B6B"/>
      <stop offset="23.25%" stop-color="#19265F"/>
      <stop offset="65.42%" stop-color="#10193E"/>
      <stop offset="100%" stop-color="#080C1F"/>
    </linearGradient>
  </defs>
  <g fill="none">
    <path fill="#1C2B6B" d="M675.238117,428 L4.80060223,428 C-0.545522981,428 -1.88205428,420.295053 3.1299381,418.390459 L106.544048,379 L563.888353,379 L676.741715,418.390459 C681.83724,420.121908 680.667775,428 675.238117,428 Z" opacity=".2"/>
    <path fill="#DDD6FF" d="M562.91662,372 L116,372 L116,84.0727473 C116,70.8327363 126.422496,60 139.346391,60 L539.653609,60 C552.494124,60 563,70.7467622 563,84.0727473 L563,372 L562.91662,372 Z"/>
    <rect width="426" height="274" x="128" y="80" fill="url(#computer-analysis-a)"/>
    <path fill="#CFC9E9" d="M607.125774,383.331606 C594.662238,386.414508 581.86411,388 568.982334,388 L340.539937,388 L112.515778,388 C99.0484675,388 85.6648045,386.326425 72.6157331,382.891192 L64,380.689119 L64,371 L618,371 L618,380.601036 L607.125774,383.331606 Z"/>
    <g transform="translate(141 92)">
      <rect width="272.708" height="261.141" x=".251" y=".172" fill="url(#computer-analysis-b)" opacity=".15"/>
      <rect width="118.093" height="261.141" x="283.824" y=".172" fill="url(#computer-analysis-c)" opacity=".15"/>
      <g transform="translate(26.744 22.334)">
        <path fill="#9BD0ED" d="M205.596674,143.799344 L14.1243243,143.799344 C6.35176715,143.799344 0,137.356721 0,129.281967 L0,15.0327869 C0,7.04393443 6.26819127,0.515409836 14.1243243,0.515409836 L205.596674,0.515409836 C213.369231,0.515409836 219.720998,6.95803279 219.720998,15.0327869 L219.720998,129.281967 C219.720998,137.27082 213.369231,143.799344 205.596674,143.799344 Z"/>
        <path fill="#4AB6D6" d="M57.0823285,23.2793443 L20.7268191,23.2793443 C18.5538462,23.2793443 16.7987526,21.4754098 16.7987526,19.2419672 C16.7987526,17.0085246 18.5538462,15.2045902 20.7268191,15.2045902 L57.0823285,15.2045902 C59.2553015,15.2045902 61.010395,17.0085246 61.010395,19.2419672 C61.0939709,21.4754098 59.2553015,23.2793443 57.0823285,23.2793443 Z"/>
        <path fill="#FFF" d="M82.4058212 117.341639L20.7268191 117.341639C18.5538462 117.341639 16.7987526 115.537705 16.7987526 113.304262 16.7987526 111.07082 18.5538462 109.266885 20.7268191 109.266885L82.4058212 109.266885C84.5787942 109.266885 86.3338877 111.07082 86.3338877 113.304262 86.3338877 115.537705 84.5787942 117.341639 82.4058212 117.341639zM49.1426195 83.4104918L20.6432432 83.4104918C16.9659044 83.4104918 13.9571726 80.3180328 13.9571726 76.5383607 13.9571726 72.7586885 16.9659044 69.6662295 20.6432432 69.6662295L49.1426195 69.6662295C52.8199584 69.6662295 55.8286902 72.7586885 55.8286902 76.5383607 55.8286902 80.3180328 52.8199584 83.4104918 49.1426195 83.4104918zM99.1209979 83.4104918L70.6216216 83.4104918C66.9442827 83.4104918 63.9355509 80.3180328 63.9355509 76.5383607 63.9355509 72.7586885 66.9442827 69.6662295 70.6216216 69.6662295L99.1209979 69.6662295C102.798337 69.6662295 105.807069 72.7586885 105.807069 76.5383607 105.807069 80.3180328 102.798337 83.4104918 99.1209979 83.4104918zM149.099376 83.4104918L120.6 83.4104918C116.922661 83.4104918 113.913929 80.3180328 113.913929 76.5383607 113.913929 72.7586885 116.922661 69.6662295 120.6 69.6662295L149.099376 69.6662295C152.776715 69.6662295 155.785447 72.7586885 155.785447 76.5383607 155.785447 80.3180328 152.860291 83.4104918 149.099376 83.4104918zM199.077755 83.4104918L170.578378 83.4104918C166.90104 83.4104918 163.892308 80.3180328 163.892308 76.5383607 163.892308 72.7586885 166.90104 69.6662295 170.578378 69.6662295L199.077755 69.6662295C202.755094 69.6662295 205.763825 72.7586885 205.763825 76.5383607 205.847401 80.3180328 202.838669 83.4104918 199.077755 83.4104918z" opacity=".77"/>
        <ellipse cx="160.131" cy="119.489" fill="url(#computer-analysis-d)" opacity=".74" rx="14.542" ry="14.947"/>
        <ellipse cx="174.59" cy="119.489" fill="url(#computer-analysis-e)" opacity=".74" rx="14.542" ry="14.947"/>
      </g>
      <path fill="#FFF" d="M146.257796,187.265574 L29.0844075,187.265574 C27.8307692,187.265574 26.8278586,186.234754 26.8278586,184.94623 C26.8278586,183.657705 27.8307692,182.626885 29.0844075,182.626885 L146.257796,182.626885 C147.511435,182.626885 148.514345,183.657705 148.514345,184.94623 C148.597921,186.234754 147.59501,187.265574 146.257796,187.265574 Z"/>
      <g transform="translate(26.744 204.446)">
        <path fill="#FFF" d="M63.6848233,2.4052459 L0.919334719,2.4052459 C0.417879418,2.4052459 0.0835758836,2.06163934 0.0835758836,1.54622951 C0.0835758836,1.03081967 0.417879418,0.687213115 0.919334719,0.687213115 L63.6848233,0.687213115 C64.1862786,0.687213115 64.5205821,1.03081967 64.5205821,1.54622951 C64.5205821,1.9757377 64.1027027,2.4052459 63.6848233,2.4052459 Z"/>
        <path fill="#4EE2FF" d="M75.6361746,12.0262295 L0.919334719,12.0262295 C0.417879418,12.0262295 0.0835758836,11.682623 0.0835758836,11.1672131 C0.0835758836,10.6518033 0.417879418,10.3081967 0.919334719,10.3081967 L75.6361746,10.3081967 C76.1376299,10.3081967 76.4719335,10.6518033 76.4719335,11.1672131 C76.4719335,11.682623 76.1376299,12.0262295 75.6361746,12.0262295 Z"/>
        <path fill="#FFF" d="M53.9064449,21.7331148 L0.919334719,21.7331148 C0.417879418,21.7331148 0.0835758836,21.3895082 0.0835758836,20.8740984 C0.0835758836,20.3586885 0.417879418,20.015082 0.919334719,20.015082 L53.9064449,20.015082 C54.4079002,20.015082 54.7422037,20.3586885 54.7422037,20.8740984 C54.7422037,21.3036066 54.4079002,21.7331148 53.9064449,21.7331148 Z"/>
      </g>
      <g transform="translate(292.516 36.938)">
        <path fill="url(#computer-analysis-f)" d="M0.668607069,14.0878689 L0.668607069,70.7829508 L100.040333,70.7829508 L100.040333,24.4819672 C100.040333,24.4819672 96.3629938,17.9534426 87.6711019,17.7816393 C78.97921,17.6957377 76.7226611,21.9908197 71.1230769,20.015082 C65.6070686,18.0393443 55.6615385,9.36327869 50.981289,9.27737705 C46.3010395,9.19147541 43.9609148,11.2531148 40.8686071,10.3940984 C37.7762994,9.53508197 34.0989605,3.35016393 31.0066528,3.35016393 C27.9143451,3.35016393 25.5742204,9.53508197 20.5596674,9.44918033 C15.4615385,9.36327869 13.2049896,8.33245902 10.4469854,9.53508197 C7.68898129,10.7377049 7.60540541,14.6032787 4.17879418,14.3455738 C0.668607069,14.0878689 1.83866944,13.0570492 0.668607069,14.0878689 Z"/>
        <path fill="url(#computer-analysis-g)" d="M0.668607069,20.2727869 L0.668607069,70.7829508 L100.040333,70.7829508 L100.040333,4.29508197 C100.040333,4.29508197 86.9189189,7.2157377 83.24158,9.79278689 C79.5642412,12.3698361 77.8927235,9.01967213 73.212474,8.93377049 C68.5322245,8.84786885 57.416632,4.12327869 54.4079002,2.23344262 C51.3991684,0.343606557 48.7247401,-0.429508197 45.8831601,4.12327869 C43.04158,8.67606557 37.6927235,18.8983607 32.5110187,17.867541 C27.3293139,16.8367213 23.9027027,15.0327869 19.4731809,17.6098361 C14.9600832,20.015082 6.85322245,24.3101639 0.668607069,20.2727869 Z"/>
      </g>
      <g fill="#4EE2FF" transform="translate(296.694 22.334)">
        <path d="M.919334719 66.5737705C.752182952 66.5737705.668607069 66.6596721.668607069 66.8314754L.668607069 69.8380328C.668607069 70.0098361.752182952 70.0957377.919334719 70.0957377 1.08648649 70.0957377 1.17006237 70.0098361 1.17006237 69.8380328L1.17006237 66.8314754C1.17006237 66.6596721 1.08648649 66.5737705.919334719 66.5737705zM.835758836 72.5868852C.668607069 72.5868852.585031185 72.6727869.585031185 72.8445902L.585031185 75.8511475C.585031185 76.0229508.668607069 76.1088525.835758836 76.1088525 1.0029106 76.1088525 1.08648649 76.0229508 1.08648649 75.8511475L1.08648649 72.8445902C1.08648649 72.6727869 1.0029106 72.5868852.835758836 72.5868852zM1.08648649 54.547541C.919334719 54.547541.835758836 54.6334426.835758836 54.8052459L.835758836 57.8118033C.835758836 57.9836066.919334719 58.0695082 1.08648649 58.0695082 1.25363825 58.0695082 1.33721414 57.9836066 1.33721414 57.8118033L1.33721414 54.8052459C1.33721414 54.7193443 1.25363825 54.547541 1.08648649 54.547541zM1.0029106 60.5606557C.835758836 60.5606557.752182952 60.6465574.752182952 60.8183607L.752182952 63.824918C.752182952 63.9967213.835758836 64.082623 1.0029106 64.082623 1.17006237 64.082623 1.25363825 63.9967213 1.25363825 63.824918L1.25363825 60.8183607C1.25363825 60.6465574 1.17006237 60.5606557 1.0029106 60.5606557zM1.17006237 48.6203279C1.0029106 48.6203279.919334719 48.7062295.919334719 48.8780328L.919334719 51.8845902C.919334719 52.0563934 1.0029106 52.1422951 1.17006237 52.1422951 1.33721414 52.1422951 1.42079002 52.0563934 1.42079002 51.8845902L1.42079002 48.8780328C1.42079002 48.7062295 1.33721414 48.6203279 1.17006237 48.6203279zM.668607069 90.5403279C.501455301 90.5403279.417879418 90.6262295.417879418 90.7980328L.417879418 93.8045902C.417879418 93.9763934.501455301 94.0622951.668607069 94.0622951.835758836 94.0622951.919334719 93.9763934.919334719 93.8045902L.919334719 90.7980328C.835758836 90.6262295.752182952 90.5403279.668607069 90.5403279zM.752182952 78.5140984C.585031185 78.5140984.501455301 78.6.501455301 78.7718033L.501455301 81.7783607C.501455301 81.9501639.585031185 82.0360656.752182952 82.0360656.919334719 82.0360656 1.0029106 81.9501639 1.0029106 81.7783607L1.0029106 78.7718033C1.0029106 78.6859016.919334719 78.5140984.752182952 78.5140984zM.668607069 84.5272131C.501455301 84.5272131.417879418 84.6131148.417879418 84.784918L.417879418 87.7914754C.417879418 87.9632787.501455301 88.0491803.668607069 88.0491803.835758836 88.0491803.919334719 87.9632787.919334719 87.7914754L.919334719 84.784918C.919334719 84.6131148.835758836 84.5272131.668607069 84.5272131zM1.58794179 18.6406557C1.42079002 18.6406557 1.33721414 18.7265574 1.33721414 18.8983607L1.33721414 21.904918C1.33721414 22.0767213 1.42079002 22.162623 1.58794179 22.162623 1.75509356 22.162623 1.83866944 22.0767213 1.83866944 21.904918L1.83866944 18.8983607C1.83866944 18.7265574 1.75509356 18.6406557 1.58794179 18.6406557zM1.67151767 12.627541C1.5043659 12.627541 1.42079002 12.7134426 1.42079002 12.8852459L1.42079002 15.8918033C1.42079002 16.0636066 1.5043659 16.1495082 1.67151767 16.1495082 1.83866944 16.1495082 1.92224532 16.0636066 1.92224532 15.8918033L1.92224532 12.8852459C1.92224532 12.7993443 1.83866944 12.627541 1.67151767 12.627541zM1.25363825 42.6072131C1.08648649 42.6072131 1.0029106 42.6931148 1.0029106 42.864918L1.0029106 45.8714754C1.0029106 46.0432787 1.08648649 46.1291803 1.25363825 46.1291803 1.42079002 46.1291803 1.5043659 46.0432787 1.5043659 45.8714754L1.5043659 42.864918C1.5043659 42.6931148 1.42079002 42.6072131 1.25363825 42.6072131zM1.75509356 6.70032787C1.58794179 6.70032787 1.5043659 6.78622951 1.5043659 6.95803279L1.5043659 9.96459016C1.5043659 10.1363934 1.58794179 10.2222951 1.75509356 10.2222951 1.92224532 10.2222951 2.00582121 10.1363934 2.00582121 9.96459016L2.00582121 6.95803279C2.00582121 6.78622951 1.92224532 6.70032787 1.75509356 6.70032787zM1.5043659 24.6537705C1.33721414 24.6537705 1.25363825 24.7396721 1.25363825 24.9114754L1.25363825 27.9180328C1.25363825 28.0898361 1.33721414 28.1757377 1.5043659 28.1757377 1.67151767 28.1757377 1.75509356 28.0898361 1.75509356 27.9180328L1.75509356 24.9114754C1.75509356 24.7396721 1.67151767 24.6537705 1.5043659 24.6537705zM1.42079002 30.5809836C1.25363825 30.5809836 1.17006237 30.6668852 1.17006237 30.8386885L1.17006237 33.8452459C1.17006237 34.0170492 1.25363825 34.1029508 1.42079002 34.1029508 1.58794179 34.1029508 1.67151767 34.0170492 1.67151767 33.8452459L1.67151767 30.8386885C1.67151767 30.7527869 1.58794179 30.5809836 1.42079002 30.5809836zM1.33721414 36.5940984C1.17006237 36.5940984 1.08648649 36.68 1.08648649 36.8518033L1.08648649 39.8583607C1.08648649 40.0301639 1.17006237 40.1160656 1.33721414 40.1160656 1.5043659 40.1160656 1.58794179 40.0301639 1.58794179 39.8583607L1.58794179 36.8518033C1.58794179 36.68 1.5043659 36.5940984 1.33721414 36.5940984zM1.83866944.601311475C.835758836.601311475 0 1.37442623 0 2.4052459 0 3.43606557.752182952 4.29508197 1.75509356 4.29508197 2.75800416 4.29508197 3.59376299 3.52196721 3.59376299 2.49114754 3.67733888 1.46032787 2.84158004.601311475 1.83866944.601311475z"/>
      </g>
      <g fill="#4EE2FF" transform="translate(386.12 28.348)">
        <path d="M1.0029106 60.5606557C.835758836 60.5606557.752182952 60.6465574.752182952 60.8183607L.752182952 63.824918C.752182952 63.9967213.835758836 64.082623 1.0029106 64.082623 1.17006237 64.082623 1.25363825 63.9967213 1.25363825 63.824918L1.25363825 60.8183607C1.25363825 60.6465574 1.08648649 60.5606557 1.0029106 60.5606557zM.919334719 66.5737705C.752182952 66.5737705.668607069 66.6596721.668607069 66.8314754L.668607069 69.8380328C.668607069 70.0098361.752182952 70.0957377.919334719 70.0957377 1.08648649 70.0957377 1.17006237 70.0098361 1.17006237 69.8380328L1.17006237 66.8314754C1.17006237 66.6596721 1.0029106 66.5737705.919334719 66.5737705zM1.17006237 48.5344262C1.0029106 48.5344262.919334719 48.6203279.919334719 48.7921311L.919334719 51.7986885C.919334719 51.9704918 1.0029106 52.0563934 1.17006237 52.0563934 1.33721414 52.0563934 1.42079002 51.9704918 1.42079002 51.7986885L1.42079002 48.7921311C1.42079002 48.7062295 1.25363825 48.5344262 1.17006237 48.5344262zM1.08648649 54.547541C.919334719 54.547541.835758836 54.6334426.835758836 54.8052459L.835758836 57.8118033C.835758836 57.9836066.919334719 58.0695082 1.08648649 58.0695082 1.25363825 58.0695082 1.33721414 57.9836066 1.33721414 57.8118033L1.33721414 54.8052459C1.33721414 54.6334426 1.17006237 54.547541 1.08648649 54.547541zM1.25363825 42.6072131C1.08648649 42.6072131 1.0029106 42.6931148 1.0029106 42.864918L1.0029106 45.8714754C1.0029106 46.0432787 1.08648649 46.1291803 1.25363825 46.1291803 1.42079002 46.1291803 1.5043659 46.0432787 1.5043659 45.8714754L1.5043659 42.864918C1.5043659 42.6931148 1.33721414 42.6072131 1.25363825 42.6072131zM.668607069 84.5272131C.501455301 84.5272131.417879418 84.6131148.417879418 84.784918L.417879418 87.7914754C.417879418 87.9632787.501455301 88.0491803.668607069 88.0491803.835758836 88.0491803.919334719 87.9632787.919334719 87.7914754L.919334719 84.784918C.919334719 84.6131148.752182952 84.5272131.668607069 84.5272131zM.835758836 72.5009836C.668607069 72.5009836.585031185 72.5868852.585031185 72.7586885L.585031185 75.7652459C.585031185 75.9370492.668607069 76.0229508.835758836 76.0229508 1.0029106 76.0229508 1.08648649 75.9370492 1.08648649 75.7652459L1.08648649 72.7586885C1.08648649 72.6727869.919334719 72.5009836.835758836 72.5009836zM.752182952 78.5140984C.585031185 78.5140984.501455301 78.6.501455301 78.7718033L.501455301 81.7783607C.501455301 81.9501639.585031185 82.0360656.752182952 82.0360656.919334719 82.0360656 1.0029106 81.9501639 1.0029106 81.7783607L1.0029106 78.7718033C1.0029106 78.6.835758836 78.5140984.752182952 78.5140984zM1.67151767 12.627541C1.5043659 12.627541 1.42079002 12.7134426 1.42079002 12.8852459L1.42079002 15.8918033C1.42079002 16.0636066 1.5043659 16.1495082 1.67151767 16.1495082 1.83866944 16.1495082 1.92224532 16.0636066 1.92224532 15.8918033L1.92224532 12.8852459C1.92224532 12.7134426 1.75509356 12.627541 1.67151767 12.627541zM1.75509356 6.61442623C1.58794179 6.61442623 1.5043659 6.70032787 1.5043659 6.87213115L1.5043659 9.87868852C1.5043659 10.0504918 1.58794179 10.1363934 1.75509356 10.1363934 1.92224532 10.1363934 2.00582121 10.0504918 2.00582121 9.87868852L2.00582121 6.87213115C2.00582121 6.78622951 1.83866944 6.61442623 1.75509356 6.61442623zM1.33721414 36.5940984C1.17006237 36.5940984 1.08648649 36.68 1.08648649 36.8518033L1.08648649 39.8583607C1.08648649 40.0301639 1.17006237 40.1160656 1.33721414 40.1160656 1.5043659 40.1160656 1.58794179 40.0301639 1.58794179 39.8583607L1.58794179 36.8518033C1.58794179 36.68 1.42079002 36.5940984 1.33721414 36.5940984zM1.83866944.687213115C1.67151767.687213115 1.58794179.773114754 1.58794179.944918033L1.58794179 3.95147541C1.58794179 4.12327869 1.67151767 4.20918033 1.83866944 4.20918033 2.00582121 4.20918033 2.08939709 4.12327869 2.08939709 3.95147541L2.08939709.944918033C2.08939709.773114754 1.92224532.687213115 1.83866944.687213115zM1.58794179 18.6406557C1.42079002 18.6406557 1.33721414 18.7265574 1.33721414 18.8983607L1.33721414 21.904918C1.33721414 22.0767213 1.42079002 22.162623 1.58794179 22.162623 1.75509356 22.162623 1.83866944 22.0767213 1.83866944 21.904918L1.83866944 18.8983607C1.83866944 18.7265574 1.67151767 18.6406557 1.58794179 18.6406557zM1.5043659 24.5678689C1.33721414 24.5678689 1.25363825 24.6537705 1.25363825 24.8255738L1.25363825 27.8321311C1.25363825 28.0039344 1.33721414 28.0898361 1.5043659 28.0898361 1.67151767 28.0898361 1.75509356 28.0039344 1.75509356 27.8321311L1.75509356 24.8255738C1.75509356 24.7396721 1.58794179 24.5678689 1.5043659 24.5678689zM1.42079002 30.5809836C1.25363825 30.5809836 1.17006237 30.6668852 1.17006237 30.8386885L1.17006237 33.8452459C1.17006237 34.0170492 1.25363825 34.1029508 1.42079002 34.1029508 1.58794179 34.1029508 1.67151767 34.0170492 1.67151767 33.8452459L1.67151767 30.8386885C1.67151767 30.6668852 1.5043659 30.5809836 1.42079002 30.5809836z"/>
        <path d="M1.92224532,36.4222951 C0.919334719,36.4222951 0.0835758836,37.1954098 0.0835758836,38.2262295 C0.0835758836,39.2570492 0.835758836,40.1160656 1.83866944,40.1160656 C2.84158004,40.1160656 3.67733888,39.3429508 3.67733888,38.3121311 C3.67733888,37.2813115 2.92515593,36.5081967 1.92224532,36.4222951 Z"/>
      </g>
      <g fill="#FFF" transform="translate(291.68 134.866)">
        <path d="M61.762578 2.23344262L.668607069 2.23344262C.334303534 2.23344262 0 1.88983607 0 1.37442623 0 .859016393.334303534.515409836.668607069.515409836L61.762578.515409836C62.0968815.515409836 62.431185.859016393 62.431185 1.37442623 62.5147609 1.88983607 62.1804574 2.23344262 61.762578 2.23344262zM54.2407484 11.9403279L.668607069 11.9403279C.334303534 11.9403279 0 11.5967213 0 11.0813115 0 10.5659016.334303534 10.2222951.668607069 10.2222951L54.2407484 10.2222951C54.575052 10.2222951 54.9093555 10.5659016 54.9093555 11.0813115 54.9093555 11.5108197 54.575052 11.9403279 54.2407484 11.9403279zM65.9413721 21.5613115L.668607069 21.5613115C.334303534 21.5613115 0 21.2177049 0 20.7022951 0 20.1868852.334303534 19.8432787.668607069 19.8432787L65.9413721 19.8432787C66.2756757 19.8432787 66.6099792 20.1868852 66.6099792 20.7022951 66.6099792 21.2177049 66.2756757 21.5613115 65.9413721 21.5613115zM49.3933472 31.2681967L.668607069 31.2681967C.334303534 31.2681967 1.13686838e-13 30.9245902 1.13686838e-13 30.4091803 1.13686838e-13 29.8937705.334303534 29.5501639.668607069 29.5501639L49.3933472 29.5501639C49.7276507 29.5501639 50.0619543 29.8937705 50.0619543 30.4091803 50.0619543 30.8386885 49.8112266 31.2681967 49.3933472 31.2681967z"/>
      </g>
      <g fill="#FFF" transform="translate(291.68 220.767)">
        <path d="M75.9704782 2.14754098L.835758836 2.14754098C.334303534 2.14754098 0 1.80393443 0 1.28852459 0 .773114754.334303534.429508197.835758836.429508197L75.8869023.429508197C76.3883576.429508197 76.7226611.773114754 76.7226611 1.28852459 76.806237 1.71803279 76.3883576 2.14754098 75.9704782 2.14754098zM66.6099792 11.7685246L.835758836 11.7685246C.334303534 11.7685246 0 11.424918 0 10.9095082 0 10.3940984.334303534 10.0504918.835758836 10.0504918L66.6099792 10.0504918C67.1114345 10.0504918 67.445738 10.3940984 67.445738 10.9095082 67.445738 11.424918 67.1114345 11.7685246 66.6099792 11.7685246z"/>
      </g>
      <rect width="28.165" height="28.949" x="291.68" y="177.301" fill="#FFF" opacity=".45"/>
      <rect width="28.165" height="28.949" x="327.701" y="177.301" fill="#FFF" opacity=".45"/>
    </g>
    <g transform="translate(406 282)">
      <path fill="#1C2B6B" d="M23,129.95092 C23,129.95092 23.25,133.042945 23.6666667,133.472393 C24.0833333,133.90184 25.6666667,134.417178 25.5833333,135.96319 C25.4166667,137.509202 25.4166667,139.312883 24.9166667,139.398773 C24.4166667,139.398773 19.25,140 19.0833333,139.398773 C18.9166667,138.797546 19,136.04908 18.9166667,135.533742 C18.8333333,135.018405 17.6666667,134.07362 17.5,132.957055 C17.3333333,131.754601 17.3333333,129.693252 17.8333333,128.834356 C18.3333333,127.97546 18.8333333,127.374233 19.3333333,127.374233 C19.8333333,127.374233 22.6666667,127.030675 22.75,127.889571 C22.6666667,128.662577 23,129.95092 23,129.95092 Z"/>
      <path fill="#F2DAD4" d="M27.5,98 C27.5,98 27.4166667,107.361963 26.75,110.969325 C26.0833333,114.576687 24,122.134969 24,124.539877 C24,126.944785 23.1666667,131.496933 23.1666667,131.496933 C23.1666667,131.496933 22.25,128.576687 21,128.06135 C19.8333333,127.546012 18.6666667,128.319018 18.6666667,127.546012 C18.6666667,126.858896 19.75,117.411043 19.8333333,114.920245 C19.9166667,112.429448 19.0833333,107.619632 19.25,105.815951 C19.3333333,104.01227 19.6666667,99.202454 20.0833333,98.9447853 C20.5833333,98.6871166 27.5,98 27.5,98 Z"/>
      <path fill="#1C2B6B" d="M11.75,129.865031 C11.75,129.865031 10.8333333,133.730061 10.9166667,135.276074 C11.0833333,136.822086 11.25,139.570552 12.1666667,139.570552 C13.0833333,139.656442 15.4166667,139.91411 15.8333333,139.570552 C16.25,139.226994 17.1666667,136.392638 17,134.588957 C16.8333333,132.699387 16.1666667,128.319018 15.6666667,127.116564 C15.25,125.91411 12.5833333,126.601227 12.5833333,126.601227 L11.75,129.865031 Z"/>
      <path fill="#F2DAD4" d="M10.3333333,98 C10.3333333,98 9.08333333,104.613497 9.5,108.04908 C9.83333333,111.570552 11.5,121.361963 11.75,122.736196 C12,124.196319 11.5,129.521472 11.75,129.779141 C12,130.03681 12.6666667,127.374233 14.1666667,127.460123 C15.5833333,127.546012 16.1666667,129.435583 16.25,128.748466 C16.3333333,128.06135 16.1666667,122.220859 16.25,119.214724 C16.3333333,116.208589 17.3333333,111.656442 17.5,109.165644 C17.5833333,106.674847 17.4166667,100.319018 17.25,99.202454 C17,98.2576687 10.3333333,98 10.3333333,98 Z"/>
      <path fill="#1C2B6B" d="M6.33333333,64.0736196 C6.33333333,64.0736196 3.83333333,71.4601227 5,74.6380368 C6.25,77.8159509 7.75,79.1042945 7.83333333,85.803681 C7.91666667,92.4171779 5.33333333,96.7116564 6.25,98.0858896 C7.16666667,99.4601227 12.5,100.920245 19.9166667,100.404908 C27.3333333,99.8895706 33.75,99.3742331 33.8333333,96.8834356 C33.9166667,94.392638 30.0833333,88.2944785 30.5,83.6564417 C31,79.0184049 33.9166667,72.4907975 33.0833333,67.0797546 C32.25,61.7546012 31,59.9509202 30.1666667,59.3496933 C29.3333333,58.7484663 6.33333333,64.0736196 6.33333333,64.0736196 Z"/>
      <path fill="#FE9887" d="M1.16666667,28.0858896 C-0.333333333,33.8404908 0.666666667,57.202454 0.583333333,60.1226994 C0.5,63.0429448 0.833333333,71.4601227 2.58333333,72.3190184 C4.33333333,73.0920245 5.33333333,72.8343558 5.33333333,72.8343558 C5.33333333,72.8343558 6.58333333,57.5460123 6.75,55.1411043 C7,52.7361963 7.91666667,45.7791411 7.83333333,44.2331288 C7.66666667,42.601227 1.75,26.3680982 1.16666667,28.0858896 Z"/>
      <path fill="#F2DAD4" d="M12.4166667 16.5766871C12.4166667 16.5766871 13.4166667 20.3558282 13.4166667 21.4723926 13.4166667 22.5889571 20.9166667 21.4723926 20.9166667 21.4723926 20.9166667 21.4723926 20.75 17.8650307 20.9166667 17.1779141 21.0833333 16.5766871 21.3333333 15.3742331 21.3333333 15.3742331L12.4166667 16.5766871zM27.4166667 4.20858896C27.5 4.89570552 27.0833333 5.75460123 27.75 6.61349693 28.4166667 7.47239264 30.0833333 9.44785276 30.3333333 10.1349693 30.5833333 10.8220859 31.1666667 12.4539877 31.1666667 12.4539877L33.5833333 11.6809816C33.5833333 11.6809816 34.25 6.95705521 33.5833333 5.66871166 32.9166667 4.3803681 31.5833333 3.69325153 31.0833333 3.09202454 30.5833333 2.49079755 30.4166667 1.71779141 29.5833333 1.71779141 28.75 1.71779141 27.0833333 1.80368098 27.4166667 4.20858896z"/>
      <path fill="#FE9887" d="M12.6666667,21.1288344 C12.0833333,22.3312883 10.4166667,24.392638 9.41666667,24.4785276 C8.41666667,24.5644172 1.41666667,25.2515337 1.08333333,28 C-0.5,41.5705521 6.5,43.5460123 7.66666667,47.9263804 C10.6666667,59.1779141 3.25,56.4294479 5,66.1349693 C5.16666667,66.993865 10.25,67.595092 18.75,65.6196319 C27.25,63.5582822 33.8333333,59.0920245 33.3333333,58.3190184 C32.9166667,57.5460123 26.9166667,51.3619632 27.4166667,45.1779141 C27.9166667,38.993865 32.0833333,33.8404908 35.6666667,31.3496933 C39.25,28.8588957 41.0833333,27.7423313 39,22.5889571 C36.9166667,17.4355828 35.4166667,10.5644172 34.5833333,10.4785276 C33.75,10.3067485 30.25,11.1656442 30.25,12.1104294 C30.25,13.0552147 30.9166667,16.3190184 31.3333333,17.6932515 C31.75,18.9815951 33.4166667,22.6748466 33.3333333,23.4478528 C33.25,24.2208589 31.8333333,22.4171779 31,21.8159509 C30.1666667,21.2147239 26.8333333,22.3312883 25.6666667,22.5889571 C24.4166667,22.8466258 23,23.4478528 22.75,22.7607362 C22.5,22.0736196 22,20.6993865 21.3333333,20.6993865 C20.5833333,20.6993865 13.3333333,19.8404908 12.6666667,21.1288344 Z"/>
      <path fill="#1C2B6B" d="M16.25,0.773006135 C12.6666667,0.601226994 9,4.80981595 9,8.58895706 C9,12.3680982 11,16.4907975 12.1666667,17.3496933 C13.4166667,18.208589 14,18.9815951 14.0833333,20.0122699 C14.1666667,21.0429448 13.9166667,25.9386503 16.75,25.9386503 C19.6666667,25.8527607 20.4166667,23.6196319 19.8333333,22.3312883 C19.25,21.0429448 18.1666667,19.6687117 19.25,18.809816 C20.4166667,17.9509202 23.0833333,14.6871166 23.5833333,12.0245399 C24.25,9.44785276 24.6666667,1.11656442 16.25,0.773006135 Z"/>
    </g>
    <g transform="translate(143 274)">
      <path fill="url(#computer-analysis-h)" d="M22.387931,135.996491 C22.387931,135.996491 22.05,139.349123 21.9655172,140.036842 C21.8810345,140.724561 21.6275862,142.959649 21.9655172,143.647368 C22.3034483,144.335088 23.0637931,144.678947 23.9086207,144.592982 C24.7534483,144.592982 27.3724138,144.678947 27.6258621,144.163158 C27.8793103,143.647368 27.8793103,140.036842 27.6258621,138.661404 C27.3724138,137.285965 27.2034483,135.824561 26.8655172,135.136842 C26.612069,134.449123 25.2603448,133.761404 24.5844828,133.847368 C23.8241379,133.933333 22.7258621,135.050877 22.387931,135.996491 Z"/>
      <path fill="url(#computer-analysis-i)" d="M9.20862069,135.480702 C9.20862069,135.480702 8.27931034,137.629825 7.85689655,138.231579 C7.43448276,138.833333 7.01206897,140.208772 7.85689655,140.982456 C8.70172414,141.75614 9.63103448,145.882456 10.2224138,146.140351 C10.8137931,146.398246 13.9396552,146.914035 14.7844828,146.65614 C15.6293103,146.398246 16.3896552,145.452632 16.3896552,144.764912 C16.3896552,144.077193 15.5448276,143.131579 14.9534483,141.842105 C14.362069,140.552632 12.4189655,136.082456 11.6586207,135.480702 C10.9827586,134.878947 9.54655172,134.707018 9.20862069,135.480702 Z"/>
      <path fill="#F2DAD4" d="M30.7517241 95.7649123C30.7517241 95.7649123 30.8362069 101.782456 30.7517241 103.415789 30.6672414 105.049123 31.4275862 109.519298 31.2586207 111.582456 31.0896552 113.731579 29.1465517 123.875439 28.3862069 126.540351 27.6258621 129.205263 26.95 132.12807 27.0344828 132.557895 27.1189655 132.987719 27.287931 134.019298 27.287931 134.449123 27.287931 134.878947 27.4568966 136.082456 27.0344828 135.824561 26.5275862 135.566667 26.2741379 134.105263 24.7534483 134.191228 23.2327586 134.277193 22.6413793 136.082456 22.4724138 135.824561 22.3034483 135.566667 23.5706897 131.354386 23.4862069 130.580702 23.4017241 129.807018 22.3034483 114.247368 22.6413793 112.012281 22.9793103 109.777193 23.3172414 104.877193 22.8103448 103.157895 22.3034483 101.438596 22.1344828 98.0859649 22.387931 96.7105263 22.7258621 95.4210526 30.7517241 95.7649123 30.7517241 95.7649123zM12.25 96.9684211C12.25 96.9684211 12.4189655 102.384211 12.25 103.587719 12.0810345 104.791228 9.37758621 109.261404 9.46206897 115.192982 9.54655172 121.124561 9.88448276 131.612281 9.88448276 132.557895 9.88448276 133.503509 9.29310345 135.394737 9.29310345 135.394737 9.29310345 135.480702 10.8137931 134.707018 11.8275862 136.082456 12.8413793 137.457895 15.1224138 142.44386 15.1224138 141.75614 15.1224138 141.068421 15.1224138 135.910526 14.7 133.847368 14.362069 131.784211 13.7706897 129.377193 14.1086207 128.001754 14.4465517 126.626316 17.3189655 116.138596 17.3189655 114.333333 17.3189655 112.52807 17.9948276 107.026316 18.7551724 105.736842 19.4310345 104.447368 20.9517241 100.235088 20.4448276 96.2807018L12.25 96.9684211zM39.8758621 3.95438596C39.4534483 4.2122807 39.7068966 8.25263158 39.8758621 8.85438596 40.0448276 9.45614035 41.1431034 12.1210526 41.4810345 12.9807018 41.8189655 13.8403509 42.4103448 16.3333333 42.7482759 16.3333333 43.0862069 16.3333333 45.3672414 16.2473684 45.4517241 15.9894737 45.5362069 15.7315789 45.7896552 14.7 45.4517241 14.0982456 45.1137931 13.4964912 44.9448276 10.8315789 45.1982759 9.88596491 45.3672414 9.02631579 45.5362069 6.96315789 45.1982759 5.67368421 44.8603448 4.38421053 44.0155172 3.61052632 43.5086207 3.35263158 43.0017241 3.09473684 42.2413793 3.09473684 42.0724138 2.75087719 41.9034483 2.40701754 41.3965517 1.71929825 41.2275862 1.3754386 40.3827586.171929825 40.3827586 1.28947368 40.5517241 1.89122807 40.6362069 2.23508772 40.8051724 3.61052632 40.8896552 4.04035088 40.8051724 4.38421053 40.3827586 3.69649123 39.8758621 3.95438596zM3.80172414 74.3596491C3.80172414 74.3596491 3.54827586 78.8298246 3.80172414 79.6035088 4.05517241 80.2912281 4.98448276 82.354386 6.25172414 82.8701754 7.51896552 83.4719298 9.03965517 84.4175439 9.20862069 84.1596491 9.37758621 83.9017544 8.70172414 82.354386 8.61724138 81.7526316 8.53275862 81.1508772 8.7862069 81.6666667 9.03965517 81.4087719 9.29310345 81.2368421 9.8 76.8526316 8.87068966 75.7350877 7.94137931 74.6175439 7.35 73.8438596 7.01206897 73.8438596 6.67413793 73.8438596 3.80172414 74.3596491 3.80172414 74.3596491z"/>
      <path fill="#1C2B6B" d="M28.1327586,52.3526316 C28.1327586,52.3526316 32.7793103,60.1754386 33.962069,65.4192982 C35.0603448,70.6631579 33.7086207,81.9245614 33.962069,84.8473684 C34.2155172,87.7701754 35.1448276,95.9368421 34.3844828,96.1947368 C33.7086207,96.3666667 26.3586207,97.5701754 24.9224138,97.3122807 C23.4862069,97.054386 19.6844828,97.4842105 18.1637931,97.7421053 C16.6431034,97.9140351 12.25,99.6333333 11.8275862,98.3438596 C11.4896552,97.1403509 7.43448276,72.8982456 7.77241379,70.2333333 C8.11034483,67.5684211 10.0534483,56.0491228 11.3206897,54.5877193 C12.6724138,53.2982456 28.1327586,52.3526316 28.1327586,52.3526316 Z"/>
      <path fill="url(#computer-analysis-j)" d="M8.19482759,28.5403509 C5.57586207,29.6578947 2.28103448,31.377193 1.68965517,34.6438596 C1.09827586,37.8245614 0.337931034,54.7596491 0.506896552,57.4245614 C0.675862069,60.0894737 1.09827586,65.1614035 1.52068966,66.1929825 C1.94310345,67.2245614 3.12586207,69.545614 3.12586207,70.0614035 C3.12586207,70.577193 2.78793103,74.445614 3.21034483,74.6175439 C3.63275862,74.8754386 4.98448276,75.477193 6.08275862,75.2192982 C7.18103448,74.9614035 8.02586207,74.1017544 7.68793103,73.4140351 C7.43448276,72.7263158 6.58965517,65.9350877 6.75862069,63.7859649 C6.92758621,61.6368421 6.67413793,53.1263158 6.84310345,51.0631579 C7.01206897,49 7.35,45.3035088 7.60344828,46.5070175 C7.85689655,47.7105263 8.53275862,55.0175439 9.88448276,55.6192982 C11.2362069,56.1350877 16.3051724,57.1666667 19.937931,56.4789474 C23.5706897,55.7912281 29.062069,54.5877193 29.2310345,52.954386 C29.4,51.3210526 29.4844828,40.4894737 30.7517241,39.0280702 C32.0189655,37.6526316 34.2155172,37.0508772 35.8206897,36.7929825 C37.4258621,36.5350877 45.5362069,33.0964912 47.0568966,32.2368421 C48.5775862,31.377193 49.0844828,28.7122807 48.2396552,23.9842105 C47.3948276,19.3421053 46.4655172,15.3877193 45.6206897,15.3017544 C44.7758621,15.1298246 42.3258621,15.3877193 42.3258621,15.7315789 C42.3258621,16.0754386 43.2551724,22.8666667 43.4241379,23.8982456 C43.5931034,24.9298246 42.7482759,26.477193 41.2275862,26.9070175 C39.7068966,27.3368421 35.4827586,29.4859649 33.6241379,29.3140351 C31.6810345,29.0561404 28.8086207,27.6807018 26.7810345,27.5087719 C24.6689655,27.422807 11.3206897,27.1649123 8.19482759,28.5403509 Z"/>
      <path fill="#F2DAD4" d="M22.8948276,9.88596491 C23.8241379,10.9175439 24.837931,11.777193 24.837931,12.3789474 C24.837931,12.9807018 24.6689655,14.2701754 24.837931,14.5280702 C25.0068966,14.7859649 25.5982759,15.3017544 25.5982759,16.0754386 C25.5982759,16.8491228 25.2603448,20.8035088 25.0068966,21.2333333 C24.7534483,21.6631579 23.0637931,21.2333333 22.5568966,21.2333333 C21.3741379,21.1473684 13.9396552,21.8350877 13.6862069,13.9263158 C13.4327586,7.47894737 20.3603448,8.33859649 20.9517241,8.51052632 C21.6275862,8.68245614 22.8948276,9.88596491 22.8948276,9.88596491 Z"/>
      <path fill="#1C2B6B" d="M20.7827586,7.65087719 C20.0224138,7.65087719 20.6982759,6.18947368 18.2482759,6.79122807 C16.812069,7.13508772 10.2224138,9.1122807 9.8,13.754386 C9.37758621,18.4824561 8.70172414,24.5 8.44827586,25.445614 C7.94137931,27.1649123 5.40689655,29.6578947 5.49137931,32.1508772 C5.74482759,37.5666667 6.92758621,53.7280702 15.6293103,53.3842105 C24.3310345,53.0403509 21.9655172,38.8561404 22.7258621,36.7929825 C23.4017241,34.7298246 26.3586207,30.8614035 25.3448276,28.0245614 C24.3310345,25.1877193 22.8948276,19.5140351 23.1482759,18.4824561 C23.4017241,17.4508772 24.0775862,15.2157895 23.4862069,13.4964912 C22.8948276,11.777193 23.8241379,10.745614 23.4862069,10.0578947 C23.1482759,9.28421053 22.387931,7.73684211 20.7827586,7.65087719 Z"/>
    </g>
    <g transform="translate(320)">
      <path fill="url(#computer-analysis-k)" d="M5.83333333,92.6929134 C5.83333333,92.6929134 3.33333333,94.6669291 3.16666667,95.1818898 C3.08333333,95.6968504 3.33333333,98.3574803 3.33333333,98.3574803 L3.83333333,98.7866142 C3.83333333,98.7866142 3.08333333,99.988189 3,100.159843 C2.91666667,100.417323 1.25,101.790551 1.58333333,103.507087 C1.91666667,105.223622 2.5,105.910236 2.83333333,106.167717 C3.08333333,106.425197 6.08333333,108.828346 6.75,108.570866 C7.41666667,108.313386 8.66666667,105.652756 8.91666667,104.622835 C9.16666667,103.67874 10.0833333,100.159843 10.75,99.1299213 C11.4166667,98.1 12.5833333,97.0700787 12.25,96.5551181 C11.9166667,96.0401575 9.66666667,94.2377953 8.91666667,93.8944882 C8.16666667,93.7228346 7,92.6070866 5.83333333,92.6929134 Z"/>
      <path fill="url(#computer-analysis-l)" d="M17.5833333,99.1299213 C17.5833333,99.1299213 18,100.245669 18.3333333,100.932283 C18.5833333,101.618898 18.75,101.876378 18.75,101.876378 L19.0833333,101.876378 L19.3333333,104.279528 L15.5833333,105.996063 L12.0833333,105.481102 L12.0833333,104.451181 C12.0833333,104.451181 8.5,106.253543 6.91666667,104.622835 C5.33333333,102.992126 5.75,101.103937 6.33333333,100.417323 C6.91666667,99.7307087 8.5,99.1299213 9.91666667,99.1299213 C11.3333333,99.0440945 11.75,98.6149606 11.6666667,98.3574803 C11.5833333,98.1 11.0833333,96.8125984 11.9166667,96.5551181 C12.75,96.211811 14,96.2976378 14.6666667,96.8984252 C15.4166667,97.4992126 17.25,98.5291339 17.25,98.5291339 L17.5833333,99.1299213 Z"/>
      <path fill="url(#computer-analysis-m)" d="M7.5,59.1346457 C7.5,59.1346457 3.91666667,66.515748 4.16666667,70.2062992 C4.41666667,73.8110236 8.33333333,96.3834646 9.66666667,97.6708661 C11.0833333,98.9582677 13.0833333,96.211811 14.8333333,97.6708661 C16.5833333,99.1299213 17.0833333,99.9023622 17.8333333,98.7866142 C18.5833333,97.6708661 14.75,72.3519685 14.3333333,70.8929134 C13.9166667,69.4338583 15.9166667,66.7732283 18,64.5417323 C20.0833333,62.3102362 25.25,56.6456693 25.25,56.6456693 L29.6666667,46.3464567 L23.1666667,43.9433071 C23.25,43.9433071 9.16666667,55.7015748 7.5,59.1346457 Z"/>
      <path fill="#1C2B6B" d="M35.1666667,50.2944882 C35.1666667,50.2944882 37.8333333,55.9590551 35.4166667,59.4779528 C33,62.9968504 27,69.0905512 25.5833333,72.2661417 C24.0833333,75.4417323 13.3333333,96.211811 12.5833333,96.8984252 C11.8333333,97.5850394 5.41666667,93.980315 5.66666667,93.0362205 C5.91666667,92.0062992 6.41666667,84.4535433 10.75,79.0464567 C15.0833333,73.6393701 15.9166667,70.7212598 16.4166667,68.403937 C16.9166667,66.0866142 21.6666667,58.1047244 23.3333333,55.3582677 C25.0833333,52.611811 25.25,47.1188976 27.1666667,46.0889764 C29,44.9732283 35.1666667,50.2944882 35.1666667,50.2944882 Z"/>
      <path fill="#4EE2FF" d="M8.41666667,53.2984252 L31.8333333,53.2984252 C32.25,53.2984252 32.5833333,53.8133858 32.3333333,54.2425197 L28.1666667,60.9370079 L8,60.4220472 L8.41666667,53.2984252 Z"/>
      <path fill="url(#computer-analysis-n)" d="M12.5833333,23.7740157 C12.5833333,23.7740157 10.8333333,25.8338583 10.3333333,29.2669291 C9.83333333,32.6141732 8.75,42.8275591 8.33333333,46.0889764 C7.83333333,49.3503937 7.66666667,51.1527559 10.5,51.496063 C13.3333333,51.8393701 14.6666667,50.723622 15.0833333,49.6937008 C15.5,48.7496063 16.5,36.0472441 16.4166667,32.1850394 C16.1666667,28.2370079 15,24.2889764 12.5833333,23.7740157 Z"/>
      <path fill="url(#computer-analysis-o)" d="M22.5,17.3370079 C22.5,17.3370079 21.6666667,17.5086614 20.8333333,18.7102362 C20,19.911811 17.6666667,21.1133858 16.4166667,21.7141732 C15.1666667,22.3149606 12.6666667,23.3448819 12.5,24.1173228 C12.3333333,24.8897638 14.6666667,27.2070866 14.75,29.2669291 C14.8333333,31.3267717 14.5,41.1968504 14.75,42.5700787 C15.0833333,43.9433071 13.8333333,47.6338583 16.5,47.9771654 C19.1666667,48.3204724 23.9166667,46.3464567 26.25,46.9472441 C28.5833333,47.5480315 35.5,52.6976378 36.5,52.2685039 C37.5,51.9251969 40.1666667,35.0173228 39.9166667,29.1811024 C39.6666667,23.3448819 38.75,22.8299213 36.5833333,21.4566929 C34.4166667,20.0834646 33.3333333,19.6543307 32.8333333,18.5385827 C32.25,17.4228346 31.3333333,16.3929134 30.5833333,16.3070866 C29.75,16.2212598 22.5,17.3370079 22.5,17.3370079 Z"/>
      <path fill="url(#computer-analysis-p)" d="M30.5,16.3929134 C30.5,16.3929134 30.75,17.5086614 30.75,18.6244094 C30.75,19.7401575 30.4166667,21.3708661 30.1666667,21.9716535 C29.9166667,22.4866142 26.25,29.1811024 25.75,29.2669291 C25.25,29.3527559 22.9166667,23.2590551 22.25,22.2291339 C21.5833333,21.1992126 21.6666667,19.1393701 21.75,18.9677165 C21.8333333,18.796063 22.3333333,18.7102362 22.3333333,18.7102362 L22.5,17.4228346 L30.5,16.3929134 Z"/>
      <path fill="#1C2B6B" d="M20.8333333,11.6724409 C20.8333333,11.6724409 19.8333333,6.86614173 20.5833333,4.97795276 C21.3333333,3.08976378 22.5,2.31732283 23.6666667,1.88818898 C24.8333333,1.45905512 26.8333333,-0.0858267717 28.8333333,1.2015748 C30.75,2.48897638 32,4.20551181 31.9166667,6.17952756 C31.9166667,8.15354331 31.9166667,9.95590551 31.1666667,12.3590551 C30.4166667,14.7622047 20.8333333,11.6724409 20.8333333,11.6724409 Z"/>
      <path fill="#F2DAD4" d="M20.9166667 12.1015748C20.9166667 12.1015748 22.9166667 21.1992126 25.5 21.1992126 28.75 21.1992126 30.6666667 16.3929134 30.8333333 15.019685 31 13.6464567 31.5833333 13.6464567 32.0833333 12.1015748 32.5833333 10.5566929 32.4166667 9.0976378 32.0833333 9.26929134 31.75 9.44094488 31.4166667 11.6724409 31 11.6724409 30.5833333 11.7582677 30.1666667 7.63858268 28.8333333 7.98188976 27.5 8.32519685 26.9166667 9.44094488 25.5833333 9.44094488 24.25 9.44094488 23.0833333 7.89606299 22.5 7.98188976 22 7.98188976 20.4166667 8.41102362 20.9166667 12.1015748zM40.5 49.4362205C40.5 49.4362205 37.5 51.9251969 35.5833333 52.5259843 33.6666667 53.1267717 31.9166667 53.384252 31.4166667 53.384252 30.9166667 53.384252 29.9166667 53.384252 29.5833333 53.8133858 29.25 54.2425197 29.3333333 54.8433071 28.3333333 55.3582677 27.3333333 55.8732283 26 56.7314961 25.1666667 56.6456693 24.3333333 56.5598425 22.5 52.2685039 23.4166667 51.9251969 24.3333333 51.5818898 29.25 49.7795276 29.9166667 49.4362205 30.5833333 49.0929134 34.5 46.8614173 35 46.4322835 35.5833333 46.0889764 35.9166667 45.2307087 36.9166667 45.488189 38 45.7456693 40.4166667 46.6897638 40.5 49.4362205z"/>
      <path fill="url(#computer-analysis-q)" d="M38.6666667,23.2590551 C38.6666667,23.2590551 42.3333333,25.576378 44.25,30.8976378 C46.25,36.2188976 42.5,48.1488189 41.75,49.1787402 C41,50.2086614 39.5833333,51.1527559 38.6666667,50.9811024 C37.75,50.8094488 40.1666667,50.4661417 39.9166667,49.2645669 C39.5833333,48.0629921 38.8333333,46.603937 37.5833333,46.1748031 C36.3333333,45.7456693 35.3333333,46.2606299 35.3333333,46.2606299 C35.3333333,46.2606299 35.3333333,44.2866142 36,42.6559055 C36.6666667,41.0251969 34.75,38.0212598 35.25,35.1889764 C35.75,32.4425197 34.9166667,26.3488189 38.6666667,23.2590551 Z"/>
      <path fill="#1C80FF" d="M0.583333333,46.0889764 L3,59.7354331 C3.08333333,60.2503937 3.5,60.5937008 4,60.5937008 L27.0833333,61.1944882 C27.75,61.1944882 28.25,60.6795276 28.1666667,59.9929134 L26.5833333,46.0031496 C26.5,45.4023622 26,44.9732283 25.4166667,44.9732283 L1.75,44.6299213 C1,44.6299213 0.416666667,45.3165354 0.583333333,46.0889764 Z"/>
    </g>
    <g transform="translate(513 269)">
      <path fill="url(#computer-analysis-r)" d="M26.5531915,136.675439 C25.4744681,136.073684 23.4,134.870175 22.2382979,135.815789 C21.0765957,136.761404 22.4042553,140.2 23.8148936,140.801754 C25.2255319,141.403509 27.3,140.801754 28.1297872,141.231579 C28.9595745,141.661404 28.5446809,142.778947 28.7106383,143.122807 C28.8765957,143.466667 29.706383,144.842105 32.112766,144.842105 C34.5191489,144.842105 34.3531915,142.091228 34.5191489,141.403509 C34.6851064,140.715789 35.0170213,137.878947 34.5191489,137.449123 C34.1042553,136.933333 26.5531915,136.675439 26.5531915,136.675439 Z"/>
      <path fill="url(#computer-analysis-s)" d="M11.6170213,140.02807 C10.2893617,141.231579 7.8,142.692982 7.13617021,142.607018 C6.47234043,142.521053 2.07446809,141.231579 1.16170213,142.005263 C0.24893617,142.778947 0.414893617,144.240351 0.912765957,144.670175 C1.4106383,145.1 4.81276596,148.452632 8.46382979,148.194737 C12.1148936,147.936842 13.6914894,147.592982 13.6914894,147.936842 C13.6914894,148.280702 13.6914894,148.882456 13.6914894,148.882456 C13.6914894,148.882456 17.2595745,150.515789 18.8361702,149.742105 C20.412766,148.968421 20.3297872,147.421053 20.3297872,146.561404 C20.412766,145.701754 20.412766,144.240351 20.1638298,143.552632 C20.0808511,143.122807 11.6170213,140.02807 11.6170213,140.02807 Z"/>
      <path fill="url(#computer-analysis-t)" d="M34.2702128,73.8350877 C34.2702128,73.8350877 35.7638298,101.515789 36.0957447,109.596491 C36.4276596,117.677193 36.4276596,135.729825 35.9297872,137.621053 C35.5148936,139.340351 33.1085106,139.770175 30.3702128,138.996491 C27.6319149,138.222807 25.3085106,138.308772 26.2212766,134.698246 C27.1340426,131.087719 29.706383,128.250877 28.4617021,122.749123 C27.2170213,117.247368 20.4957447,82.9473684 20.412766,79.6807018 C20.3297872,76.5 34.2702128,73.8350877 34.2702128,73.8350877 Z"/>
      <path fill="#1C2B6B" d="M12.1978723,73.8350877 C12.1978723,73.8350877 10.7042553,96.4438596 10.787234,102.891228 C10.8702128,109.338596 11.0361702,122.233333 11.4510638,125.5 C11.8659574,128.766667 12.0319149,137.878947 11.4510638,138.566667 C10.8702128,139.254386 10.5382979,141.317544 12.1978723,142.778947 C13.8574468,144.240351 18.7531915,146.991228 19.9148936,146.045614 C21.0765957,145.1 21.4914894,126.875439 22.2382979,124.210526 C22.9851064,121.545614 22.6531915,105.384211 23.4829787,101.34386 C25.3085106,92.3175439 33.5234043,86.3859649 34.3531915,83.2052632 C34.9340426,80.8842105 36.012766,75.8122807 34.2702128,73.8350877 C32.5276596,71.8578947 12.1978723,73.8350877 12.1978723,73.8350877 Z"/>
      <path fill="#835622" d="M13.3595745,11.5964912 C13.0276596,13.9175439 13.193617,16.5824561 13.3595745,16.9263158 C13.5255319,17.2701754 15.0191489,18.0438596 15.0191489,19.4192982 C15.0191489,20.7947368 15.5170213,21.9982456 15.7659574,22.7719298 C16.0148936,23.545614 18.5042553,26.2964912 19.4170213,26.2964912 C20.412766,26.2964912 20.3297872,23.8894737 22.8191489,23.1157895 C25.0595745,22.4280702 29.0425532,23.0298246 28.793617,21.9122807 C28.5446809,20.7947368 27.1340426,19.5912281 26.8021277,18.3017544 C26.4702128,17.0122807 29.1255319,6.00877193 22.3212766,4.71929825 C15.5170213,3.42982456 13.6914894,9.10350877 13.3595745,11.5964912 Z"/>
      <path fill="#1C2B6B" d="M22.3572967,0.0239891187 C19.3859632,0.132667867 14.9289628,2.95831532 13.5423405,5.24056904 C12.1557182,7.52282275 12.2547626,9.91375521 12.7499849,10.457149 C13.2452071,11.0005427 14.1366072,11.3265789 13.9385183,12.4133664 C13.8394738,13.6088327 14.2356517,14.4782626 14.6318295,15.1303351 C15.0280073,15.6737289 15.5232295,15.8910864 15.8203629,16.9778738 C16.0184518,18.0646613 16.3155852,18.1733401 16.6127185,18.1733401 C16.9098519,18.2820188 17.7022075,16.6518376 17.5041186,15.3476926 C17.3060297,14.0435476 17.4050741,12.4133664 18.7916965,13.6088327 C20.2773633,14.8042989 23.8429635,18.9340913 24.2391413,19.8035213 C24.6353192,20.6729513 30.082764,20.1295575 30.3798974,19.8035213 C30.6770307,19.4774851 32.1626975,7.6315015 29.0923195,3.71906656 C26.1209859,0.0239891187 24.5362747,-0.0846896296 22.3572967,0.0239891187 Z"/>
      <path fill="#FE9887" d="M27.9638298,20.2789474 C27.9638298,20.2789474 23.4,20.1929825 21.906383,21.7403509 C20.412766,23.2877193 19.9978723,25.522807 19.5829787,25.7807018 C19.1680851,26.0385965 15.1021277,27.8438596 14.2723404,28.1877193 C13.4425532,28.445614 10.2893617,34.377193 10.1234043,36.0105263 C9.95744681,37.6438596 8.71276596,42.2859649 8.04893617,43.5754386 C7.38510638,44.8649123 3.40212766,48.5614035 5.47659574,51.9140351 C7.55106383,55.2666667 10.2893617,55.2666667 11.2851064,55.0087719 C12.1978723,54.6649123 14.9361702,49.5070175 15.0191489,51.3122807 C15.1021277,53.0315789 13.8574468,58.2754386 13.1106383,61.4561404 C12.3638298,64.6368421 9.45957447,74.8666667 10.7042553,75.1245614 C11.3680851,75.2964912 28.2957447,77.8754386 31.2829787,77.6175439 C34.2702128,77.3596491 36.0957447,77.5315789 35.7638298,73.6631579 C35.5978723,71.6859649 35.1,68.0754386 34.3531915,64.9807018 C33.6893617,62.2298246 32.1957447,60.3385965 34.2702128,56.8140351 C36.2617021,53.2894737 38.7510638,41.4263158 38.8340426,39.7929825 C38.9170213,38.1596491 39.4148936,32.9157895 37.9212766,31.2824561 C36.4276596,29.6491228 31.6148936,26.4684211 31.0340426,25.0929825 C30.3702128,23.7175439 29.3744681,20.1070175 27.9638298,20.2789474 Z"/>
    </g>
  </g>
</svg>
