<svg xmlns="http://www.w3.org/2000/svg" viewBox="0 0 500 486">
  <g fill="none">
    <ellipse cx="240.099" cy="478.218" fill="#EDEDED" rx="202.393" ry="6.931"/>
    <g transform="translate(56.93)">
      <path fill="#FD806F" d="M92.6567657,137.871287 L89.9339934,136.138614 L58.2508251,147.277228 L57.1782178,150.330033 C57.0132013,150.907591 52.3927393,164.356436 59.8184818,175.577558 C65.0165017,183.49835 74.5049505,187.953795 87.7887789,188.861386 L90.6765677,189.026403 L92.8217822,187.046205 C102.640264,177.970297 107.260726,168.646865 106.353135,159.158416 C105.115512,145.792079 93.1518152,138.20132 92.6567657,137.871287 Z"/>
      <polygon fill="#7736F6" points="83.746 74.917 91.172 117.574 139.191 129.785 124.917 89.274"/>
      <polygon fill="#7736F6" points="101.073 122.607 69.472 128.63 41.089 143.729 45.71 166.007 112.376 142.574"/>
      <polygon fill="#7736F6" points="24.752 95.627 1.65 132.673 15.842 173.185 45.627 133.581"/>
      <path fill="#DDD6FF" d="M28.7128713,1.23762376 L24.1749175,0 L21.4521452,3.79537954 C20.2145215,5.52805281 -9.40594059,47.029703 3.96039604,85.2310231 C11.9636964,108.0033 36.9636964,138.778878 38.0363036,140.09901 L41.0066007,143.811881 L100.990099,122.689769 L100.990099,117.90429 C100.990099,116.254125 101.237624,76.5676568 93.2343234,53.7953795 C79.8679868,15.5940594 30.8580858,1.81518152 28.7128713,1.23762376 Z"/>
      <g transform="translate(28.878 51.155)">
        <circle cx="20.532" cy="20.353" r="13.532" fill="#70A09B" transform="rotate(-55.466 20.532 20.353)"/>
        <path fill="#FFF" d="M13.7788779,1.23762376 C3.21782178,4.95049505 -2.31023102,16.5841584 1.40264026,27.0627063 C5.11551155,37.6237624 16.7491749,43.1518152 27.2277228,39.4389439 C37.7887789,35.7260726 43.3168317,24.0924092 39.6039604,13.6138614 C35.9735974,3.13531353 24.339934,-2.47524752 13.7788779,1.23762376 Z M22.7722772,26.7326733 C19.2244224,27.970297 15.3465347,26.1551155 14.1914191,22.6072607 C12.9537954,19.0594059 14.7689769,15.1815182 18.3168317,14.0264026 C21.8646865,12.7887789 25.7425743,14.6039604 26.8976898,18.1518152 C28.1353135,21.6171617 26.320132,25.4950495 22.7722772,26.7326733 Z"/>
      </g>
    </g>
    <path fill="#FFD474" d="M56.6831683,363.118812 C57.0132013,361.633663 57.1782178,360.148515 57.1782178,358.663366 C57.1782178,357.178218 57.0132013,355.610561 56.6831683,354.207921 L57.2607261,353.877888 L60.9735974,351.732673 L58.8283828,348.10231 L56.6831683,344.471947 L54.5379538,340.841584 L50.8250825,342.986799 L50.2475248,343.316832 C49.1749175,342.326733 48.2673267,341.419142 46.9471947,340.676568 C45.5445545,339.933993 44.6369637,339.273927 42.9867987,338.778878 L42.9867987,338.118812 L42.9867987,333.333333 L38.1188119,333.333333 L33.8283828,333.333333 L29.7029703,333.333333 L29.7029703,338.036304 L29.7029703,338.69637 C27.2277228,339.191419 26.650165,339.768977 25.2475248,340.594059 C23.9273927,341.336634 22.689769,342.244224 21.5346535,343.234323 L20.8745875,342.90429 L17.1617162,340.759076 L15.0165017,344.389439 L12.8712871,348.019802 L10.7260726,351.650165 L14.4389439,353.79538 L15.0165017,354.125413 C14.6864686,355.610561 14.5214521,357.09571 14.5214521,358.580858 C14.5214521,360.066007 14.6864686,361.633663 15.0165017,363.036304 L14.4389439,363.366337 L10.7260726,365.511551 L12.8712871,369.141914 L15.0165017,372.772277 L17.1617162,376.40264 L20.8745875,374.257426 L21.4521452,373.927393 C22.5247525,374.917492 23.9273927,375.825083 25.2475248,376.567657 C26.650165,377.310231 27.2277228,377.970297 29.7029703,378.465347 L29.7029703,379.125413 L29.7029703,383.663366 L33.7458746,383.663366 L38.0363036,383.663366 L42.9042904,383.663366 L42.9042904,379.125413 L42.9042904,378.465347 C44.5544554,377.970297 45.5445545,377.392739 46.8646865,376.567657 C48.1848185,375.825083 49.2574257,374.917492 50.330033,373.927393 L50.8250825,374.257426 L54.5379538,376.40264 L56.6831683,372.772277 L58.8283828,369.141914 L60.9735974,365.511551 L57.2607261,363.366337 L56.6831683,363.118812 Z M35.8910891,370.544554 C29.2079208,370.544554 23.679868,365.181518 23.679868,358.580858 C23.679868,351.980198 29.1254125,346.617162 35.8910891,346.617162 C42.5742574,346.617162 48.1023102,351.980198 48.1023102,358.580858 C48.019802,365.181518 42.5742574,370.544554 35.8910891,370.544554 Z"/>
    <g transform="translate(344.884 187.294)">
      <path fill="#E4E4E4" d="M86.2211221,199.422442 L8.25082508,171.452145 C2.31023102,169.306931 -0.742574257,162.788779 1.40264026,156.848185 L54.7854785,7.75577558 C56.9306931,1.81518152 63.4488449,-1.23762376 69.3894389,0.907590759 L147.359736,28.7953795 C153.30033,30.9405941 156.353135,37.4587459 154.207921,43.3993399 L100.825083,192.491749 C98.5973597,198.432343 92.0792079,201.485149 86.2211221,199.422442 Z"/>
      <g transform="translate(6.6 13.201)">
        <g fill="#AADDD9">
          <rect width="131.432" height="105.525" x="6.861" y="27.7" transform="rotate(-70.293 72.577 80.462)"/>
          <polyline points="1.98 124.835 101.403 160.479 145.71 36.716"/>
        </g>
        <rect width="131.432" height="105.525" x="6.861" y="27.7" fill="#15CEDA" transform="rotate(-70.293 72.577 80.462)"/>
        <polyline fill="#00C0CD" points="1.98 124.835 101.403 160.479 145.71 36.716"/>
      </g>
      <circle cx="53.799" cy="170.982" r="9.571" fill="#FFF" transform="rotate(-31.36 53.799 170.982)"/>
    </g>
    <g transform="translate(386.139 106.436)">
      <path fill="#00C0CD" d="M0,10.5610561 L0,47.359736 C0,53.960396 3.13531353,62.7062706 10.2310231,62.7062706 L26.980198,62.7062706 L57.7557756,76.0726073 L57.7557756,62.7062706 L68.1518152,62.7062706 C75.2475248,62.7062706 80.0330033,53.7953795 80.0330033,47.359736 L80.0330033,10.5610561 C80.0330033,4.04290429 75.4125413,-2.84217094e-14 68.1518152,-2.84217094e-14 L10.2310231,-2.84217094e-14 C3.13531353,-4.97145412e-15 0,3.87788779 0,10.5610561 Z"/>
      <circle cx="55.611" cy="30.033" r="5.363" fill="#FFF"/>
      <circle cx="39.439" cy="30.033" r="5.363" fill="#FFF"/>
      <circle cx="23.102" cy="30.033" r="5.363" fill="#FFF"/>
    </g>
    <g transform="translate(301.155 75.908)">
      <path fill="#DDD6FF" d="M85.8910891,0 L14.5214521,0 C5.52805281,0 0.0825082508,5.61056106 0.0825082508,13.6138614 L0.0825082508,58.9933993 C0.0825082508,66.9141914 5.85808581,77.5577558 14.5214521,77.5577558 L27.2277228,77.5577558 L27.2277228,94.3894389 L65.1815182,77.5577558 L85.8085809,77.5577558 C94.4719472,77.5577558 99.7524752,67.1617162 99.7524752,58.9933993 L99.7524752,13.6138614 C99.8349835,5.44554455 94.5544554,0 85.8910891,0 Z"/>
      <circle cx="29.89" cy="37.633" r="6.601" fill="#FFF" transform="rotate(-45 29.89 37.633)"/>
      <circle cx="49.844" cy="37.603" r="6.601" fill="#FFF" transform="rotate(-45 49.844 37.603)"/>
      <circle cx="70.066" cy="37.6" r="6.6" fill="#FFF" transform="rotate(-76.761 70.066 37.6)"/>
    </g>
    <g transform="translate(0 206.27)">
      <circle cx="86.462" cy="86.209" r="79.041" fill="#00C0CD" transform="rotate(-5.423 86.462 86.21)"/>
      <path fill="#95D5CF" d="M17.3267327,44.6369637 C16.4191419,51.1551155 18.6468647,54.5379538 17.3267327,57.7557756 C16.0066007,60.8910891 14.3564356,66.5841584 15.7590759,70.379538 C17.0792079,74.1749175 19.1419142,82.5907591 20.9570957,82.7557756 C22.7722772,83.0033003 19.6369637,73.7623762 21.369637,76.650165 C23.1848185,79.620462 23.1848185,83.9108911 26.320132,86.9636964 C29.4554455,89.9339934 33.7458746,89.5214521 37.1287129,92.4917492 C40.5115512,95.4620462 43.8943894,99.669967 47.029703,99.2574257 C47.029703,99.2574257 46.7821782,101.485149 45.2145215,105.363036 C43.6468647,109.158416 43.3993399,113.69637 45.4620462,116.419142 C47.5247525,119.141914 49.5049505,123.184818 51.320132,125.247525 C53.1353135,127.310231 54.4554455,138.118812 54.0429043,143.481848 C53.630363,148.927393 56.1056106,161.056106 61.7161716,163.778878 C67.3267327,166.50165 61.7161716,162.458746 60.5610561,159.075908 C59.4059406,155.693069 61.4686469,147.772277 64.1914191,146.69967 C66.9141914,145.544554 69.3894389,141.089109 71.4521452,137.871287 C73.5148515,134.735974 78.630363,133.333333 80.2805281,129.537954 C81.8481848,125.742574 81.1881188,121.20462 82.0957096,119.141914 C83.0033003,117.079208 85.4785479,112.623762 80.0330033,109.90099 C74.5874587,107.178218 72.359736,108.580858 72.1122112,106.105611 C71.8646865,103.630363 70.5445545,100.907591 66.6666667,99.7524752 C62.8712871,98.5973597 59.4884488,96.4521452 55.1980198,95.9570957 C50.9075908,95.4620462 50,98.8448845 47.7722772,97.029703 C45.5445545,95.2145215 43.7293729,93.3993399 42.8217822,91.1716172 C41.9141914,88.9438944 39.1914191,90.2640264 39.4389439,88.9438944 C39.6864686,87.6237624 43.2343234,83.7458746 39.1914191,85.1485149 C35.1485149,86.4686469 31.5181518,86.0561056 31.7656766,82.4257426 C32.0132013,78.7953795 36.9636964,77.4752475 38.9438944,76.980198 C41.0066007,76.5676568 42.5742574,79.0429043 45.049505,80.6105611 C47.5247525,82.1782178 45.2970297,78.3828383 46.6171617,75.660066 C47.9372937,72.9372937 53.1353135,73.1848185 53.7953795,69.3069307 C54.4554455,65.5115512 53.5478548,62.2937294 57.5907591,61.8811881 C61.6336634,61.4686469 65.9240924,62.1287129 66.4191419,60.0660066 C66.8316832,58.0033003 61.7161716,60.7260726 61.4686469,58.2508251 C61.2211221,55.7755776 66.0066007,52.3927393 67.3267327,54.8679868 C68.6468647,57.3432343 72.029703,57.5907591 72.5247525,56.6831683 C72.9372937,55.7755776 72.5247525,54.2079208 70.9570957,50.330033 C69.3894389,46.5346535 67.8217822,47.6072607 66.4191419,43.3168317 C65.0990099,39.0264026 62.7887789,43.5643564 60.5610561,41.2541254 C58.3333333,39.0264026 55.6105611,34.2409241 55.1155116,38.2838284 C54.7029703,42.3267327 54.7029703,44.6369637 52.640264,47.7722772 C50.5775578,50.9075908 49.669967,48.4323432 47.9372937,46.4521452 C46.1221122,44.3894389 42.0792079,42.4092409 43.3993399,40.5940594 C44.7194719,38.7788779 46.1221122,34.0759076 48.1023102,35.3960396 C50.1650165,36.7161716 53.30033,36.7161716 52.8052805,34.4884488 C52.3927393,32.2607261 52.8052805,31.3531353 53.7128713,30.1980198 C54.620462,29.0429043 57.7557756,27.0627063 57.7557756,31.1056106 C57.7557756,35.1485149 57.3432343,36.3036304 60.4785479,36.7161716 C63.6138614,37.1287129 67.2442244,37.3762376 66.9966997,35.3960396 C66.7491749,33.3333333 67.9042904,33.8283828 66.9966997,30.4455446 C66.0891089,27.0627063 63.3663366,26.8151815 60.4785479,25.2475248 C57.5082508,23.679868 55.9405941,21.2046205 53.4653465,22.1122112 C50.990099,23.019802 50.7425743,23.9273927 50.4950495,26.4026403 C50.2475248,28.8778878 48.9273927,29.7854785 48.019802,28.630363 C47.1122112,27.4752475 48.2673267,23.9273927 44.8844884,26.1551155 C41.5016502,28.3828383 40.1815182,32.2607261 38.3663366,29.5379538 C36.5511551,26.8151815 41.0891089,22.1122112 36.3036304,24.0924092 C31.6006601,26.1551155 28.2178218,28.3828383 30.6930693,29.290429 C33.1683168,30.1980198 35.6435644,31.7656766 33.1683168,32.6732673 C30.6930693,33.5808581 25.7425743,32.0132013 23.9273927,33.8283828 C22.2772277,35.5610561 17.3267327,44.6369637 17.3267327,44.6369637 Z"/>
      <path fill="#95D5CF" d="M43.8943894,20.2970297 C43.8943894,22.8547855 44.5544554,24.8349835 46.8646865,22.5247525 C49.0924092,20.2970297 50.4950495,17.5742574 52.0627063,18.7293729 C53.630363,19.8844884 56.3531353,19.5544554 57.5082508,19.4719472 C58.6633663,19.3894389 58.8283828,16.0066007 62.0462046,16.5016502 C65.1815182,16.9141914 64.1089109,15.8415842 67.4917492,14.0264026 C70.8745875,12.2112211 78.1353135,9.07590759 70.6270627,9.98349835 C63.2013201,10.8910891 62.7062706,8.82838284 57.5082508,12.2112211 C52.310231,15.5940594 51.1551155,15.5940594 49.8349835,16.5016502 C48.5148515,17.4092409 46.8646865,13.7788779 45.1320132,16.5016502 C43.2343234,19.1419142 43.8943894,17.6567657 43.8943894,20.2970297 Z"/>
      <path fill="#95D5CF" d="M70.9570957 13.2838284C68.3168317 15.5940594 64.1914191 18.8943894 67.3267327 18.8943894 70.4620462 18.8943894 72.029703 17.2442244 73.7623762 19.3894389 75.4950495 21.5346535 74.8349835 24.9174917 74.8349835 26.5676568 74.8349835 28.1353135 73.9273927 31.7656766 76.1551155 36.3036304 78.3828383 40.8415842 78.630363 43.7293729 80.8580858 40.8415842 83.0858086 37.8712871 88.5313531 32.2607261 91.2541254 31.8481848 93.9768977 31.4356436 96.69967 30.2805281 98.019802 28.0528053 99.339934 25.8250825 98.019802 23.5973597 100.247525 22.029703 102.475248 20.379538 102.062706 18.3993399 102.722772 15.9240924 103.382838 13.4488449 109.488449 13.4488449 106.765677 12.1287129 104.042904 10.8085809 99.0924092 9.9009901 93.2343234 10.5610561 87.4587459 10.9735974 75.990099 8.99339934 70.9570957 13.2838284zM46.2046205 83.0033003C44.8019802 85.3135314 45.5445545 85.4785479 47.1122112 85.9735974 48.679868 86.3861386 46.4521452 89.1089109 48.2673267 89.3564356 50.0825083 89.6039604 54.1254125 90.6765677 55.2805281 89.3564356 56.4356436 88.0363036 53.4653465 88.5313531 51.4851485 87.0462046 49.339934 85.4785479 47.1947195 81.2706271 46.2046205 83.0033003zM155.363036 119.719472C152.970297 120.957096 154.042904 122.854785 151.732673 124.257426 149.50495 125.577558 150.412541 126.072607 149.669967 129.207921 149.009901 132.343234 149.917492 134.158416 151.485149 131.683168 153.135314 129.207921 158.085809 118.39934 155.363036 119.719472zM168.234323 81.8481848C167.574257 78.0528053 162.623762 43.2343234 162.623762 43.2343234 162.623762 43.2343234 149.339934 34.6534653 147.029703 36.4686469 144.80198 38.2838284 140.924092 38.0363036 141.419142 36.2211221 141.831683 34.4059406 144.80198 34.9009901 139.851485 31.5181518 134.90099 28.1353135 133.993399 25.1650165 130.115512 29.4554455 126.320132 33.7458746 125.412541 37.3762376 123.10231 38.4488449 120.874587 39.6039604 119.059406 43.1518152 121.534653 44.0594059 124.009901 44.9669967 124.257426 44.0594059 126.237624 45.8745875 128.30033 47.689769 130.940594 47.1947195 131.435644 46.1221122 131.848185 44.9669967 132.343234 41.4191419 132.590759 40.0165017 132.838284 38.6963696 135.148515 34.1584158 134.90099 37.7887789 134.653465 41.4191419 138.036304 41.4191419 135.808581 43.8943894 133.580858 46.369637 134.90099 48.4323432 130.363036 48.8448845 125.825083 49.2574257 125.660066 46.6171617 123.184818 47.9372937 120.709571 49.2574257 120.957096 50.1650165 120.049505 51.5676568 119.141914 52.8877888 114.438944 55.6105611 114.438944 55.6105611 114.438944 55.6105611 110.643564 54.290429 112.376238 56.7656766 114.191419 59.2409241 115.759076 62.2112211 114.191419 62.3762376 112.623762 62.6237624 108.333333 60.1485149 108.333333 62.7887789 108.333333 65.5115512 107.673267 68.3993399 109.488449 69.1419142 110.726073 69.6369637 111.551155 70.6270627 112.788779 70.5445545 111.881188 70.9570957 111.056106 71.5346535 110.39604 72.359736 108.663366 74.669967 109.735974 78.7128713 106.105611 80.0330033 102.475248 81.3531353 102.475248 83.0033003 101.815182 85.8910891 101.155116 88.8613861 101.815182 96.2871287 102.722772 96.9471947 103.630363 97.6072607 105.19802 103.30033 109.075908 102.805281 112.871287 102.392739 116.9967 102.145215 118.316832 102.805281 119.636964 103.465347 121.947195 101.40264 122.607261 106.60066 123.267327 111.79868 124.834983 112.458746 125.742574 115.181518 126.650165 117.90429 125.330033 123.514851 125.742574 126.89769 126.155116 130.280528 129.372937 136.138614 129.372937 139.108911 129.372937 142.079208 132.755776 143.39934 134.570957 142.244224 136.386139 141.089109 140.181518 138.861386 141.749175 135.231023 143.316832 131.60066 143.316832 129.785479 145.792079 125.082508 148.267327 120.379538 147.607261 116.9967 148.762376 113.366337 149.917492 109.735974 152.640264 107.260726 156.353135 103.217822 160.066007 99.1749175 159.405941 96.8646865 156.353135 97.1122112 153.30033 97.359736 151.237624 94.3894389 149.669967 90.7590759 148.10231 87.1287129 146.287129 78.1353135 147.607261 81.0231023 148.927393 83.9933993 151.650165 92.0792079 154.372937 93.3993399 157.09571 94.7194719 162.046205 91.0891089 163.20132 89.7689769 164.356436 88.4488449 163.861386 84.5709571 160.973597 83.0033003 158.0033 81.4356436 159.818482 80.0330033 162.788779 81.8481848 165.511551 83.9108911 168.894389 85.6435644 168.234323 81.8481848zM144.306931 72.1122112C144.059406 73.9273927 144.966997 76.8151815 140.016502 75.7425743 135.066007 74.5874587 135.066007 71.9471947 133.0033 73.9273927 130.940594 75.990099 128.465347 77.7227723 125.577558 74.5874587 122.607261 71.4521452 123.10231 70.5445545 121.534653 70.2970297 120.379538 70.1320132 116.666667 69.3069307 113.531353 70.2145215 113.778878 70.049505 114.026403 69.8844884 114.273927 69.6369637 116.50165 67.5742574 116.089109 66.9141914 118.564356 64.6864686 121.039604 62.4587459 122.854785 60.3960396 124.669967 62.4587459 126.485149 64.5214521 130.280528 64.9339934 128.960396 67.1617162 127.640264 69.3894389 128.547855 70.7920792 130.115512 69.3894389 131.683168 68.0693069 133.910891 67.1617162 132.343234 65.3465347 130.775578 63.5313531 129.207921 58.8283828 131.435644 61.9636964 133.663366 65.0990099 134.405941 66.6666667 135.726073 68.4818482 137.046205 70.2970297 138.448845 71.4521452 138.861386 70.2970297 139.273927 69.1419142 138.613861 66.6666667 139.273927 66.2541254 139.933993 65.8415842 139.273927 70.049505 141.336634 70.2970297 143.39934 70.5445545 144.554455 70.2970297 144.306931 72.1122112zM149.50495 64.4389439C147.937294 63.5313531 144.966997 64.4389439 141.419142 65.5940594 137.788779 66.7491749 140.676568 63.1188119 142.326733 60.6435644 143.811881 58.4158416 142.986799 61.3036304 146.122112 61.5511551 149.257426 61.7986799 151.072607 65.3465347 149.50495 64.4389439zM157.425743 71.4521452C156.765677 72.1122112 155.610561 68.3168317 154.950495 66.5016502 154.290429 64.6864686 154.290429 61.5511551 156.188119 59.8184818 158.580858 57.6732673 157.425743 62.7062706 157.425743 65.3465347 157.425743 68.0693069 158.085809 70.7920792 157.425743 71.4521452z"/>
      <path fill="#95D5CF" d="M113.861386 43.9768977C112.458746 44.3894389 111.386139 47.1122112 112.046205 48.5148515 112.706271 49.8349835 111.386139 47.8547855 109.570957 48.9273927 107.755776 50.0825083 105.115512 53.2178218 107.590759 53.4653465 110.066007 53.7128713 109.570957 51.650165 111.881188 52.5577558 114.108911 53.4653465 116.584158 53.2178218 116.584158 50.990099 116.584158 48.679868 116.089109 43.2343234 113.861386 43.9768977zM99.1749175 33.5808581C97.8547855 33.7458746 97.359736 37.2112211 100.330033 37.6237624 103.30033 38.0363036 108.49835 36.9636964 106.60066 35.1485149 104.620462 33.3333333 102.310231 33.0858086 99.1749175 33.5808581z"/>
    </g>
    <g transform="translate(113 134)">
      <polygon fill="#FFB4BB" points="132.921 216.337 270.297 114.109 .33 114.109"/>
      <path fill="#EDEDED" d="M5.28052805,277.392739 C5.28052805,277.392739 16.5841584,286.79868 24.2574257,286.79868 L246.287129,286.79868 C259.488449,286.79868 270.214521,276.072607 270.214521,262.871287 L270.214521,114.108911 L5.28052805,277.392739 Z"/>
      <path fill="#E4E4E4" d="M265.346535,277.392739 C260.973597,283.085809 254.042904,286.79868 246.369637,286.79868 L24.2574257,286.79868 C11.0561056,286.79868 0.330033003,276.072607 0.330033003,262.871287 L0.330033003,114.108911 C0.330033003,114.108911 249.009901,268.481848 265.346535,277.392739 Z"/>
      <path fill="#D2D2D2" d="M5.28052805,277.392739 C5.52805281,277.722772 5.85808581,278.052805 6.10561056,278.382838 C6.10561056,278.382838 6.18811881,278.465347 6.18811881,278.465347 C6.43564356,278.79538 6.68316832,279.042904 7.01320132,279.372937 C7.01320132,279.372937 7.09570957,279.455446 7.09570957,279.455446 C7.42574257,279.785479 7.67326733,280.033003 8.00330033,280.363036 C8.00330033,280.363036 8.00330033,280.363036 8.00330033,280.363036 C8.99339934,281.270627 9.98349835,282.09571 11.1386139,282.838284 C11.2211221,282.838284 11.2211221,282.920792 11.3036304,282.920792 C11.6336634,283.085809 11.8811881,283.333333 12.2112211,283.49835 C12.2937294,283.580858 12.3762376,283.580858 12.4587459,283.663366 C12.7887789,283.828383 13.0363036,283.993399 13.3663366,284.158416 C13.4488449,284.240924 13.5313531,284.240924 13.6138614,284.323432 C13.9438944,284.488449 14.2739274,284.653465 14.6039604,284.735974 C14.6864686,284.735974 14.7689769,284.818482 14.8514851,284.818482 C15.6765677,285.148515 16.5016502,285.478548 17.3267327,285.726073 C17.4092409,285.726073 17.4917492,285.808581 17.5742574,285.808581 C17.9042904,285.891089 18.2343234,285.973597 18.5643564,286.056106 C18.7293729,286.056106 18.8118812,286.138614 18.9768977,286.138614 C19.2244224,286.221122 19.5544554,286.30363 19.8019802,286.30363 C19.9669967,286.30363 20.1320132,286.386139 20.2970297,286.386139 C20.5445545,286.468647 20.8745875,286.468647 21.1221122,286.551155 C21.2871287,286.551155 21.4521452,286.633663 21.6171617,286.633663 C21.9471947,286.633663 22.1947195,286.716172 22.5247525,286.716172 C22.689769,286.716172 22.7722772,286.881188 22.9372937,286.881188 C23.349835,286.881188 23.8448845,287.046205 24.2574257,287.046205 L246.287129,287.046205 C246.69967,287.046205 247.194719,286.881188 247.607261,286.881188 C247.772277,286.881188 247.854785,286.79868 248.019802,286.79868 C248.349835,286.79868 248.59736,286.716172 248.927393,286.716172 C249.092409,286.716172 249.257426,286.633663 249.422442,286.633663 C249.669967,286.633663 250,286.551155 250.247525,286.468647 C250.412541,286.468647 250.577558,286.386139 250.742574,286.386139 C250.990099,286.30363 251.320132,286.30363 251.567657,286.221122 C251.732673,286.221122 251.815182,286.138614 251.980198,286.138614 C252.310231,286.056106 252.640264,285.973597 252.970297,285.891089 C253.052805,285.891089 253.135314,285.808581 253.217822,285.808581 C254.042904,285.561056 254.867987,285.231023 255.693069,284.90099 C255.775578,284.90099 255.858086,284.818482 255.940594,284.818482 C256.270627,284.653465 256.60066,284.488449 256.930693,284.405941 C257.013201,284.323432 257.09571,284.323432 257.178218,284.240924 C257.508251,284.075908 257.755776,283.910891 258.085809,283.745875 C258.168317,283.663366 258.250825,283.663366 258.333333,283.580858 C258.663366,283.415842 258.993399,283.168317 259.240924,283.0033 C259.323432,283.0033 259.323432,282.920792 259.405941,282.920792 C260.478548,282.178218 261.551155,281.353135 262.541254,280.445545 C262.541254,280.445545 262.541254,280.445545 262.541254,280.445545 C262.871287,280.115512 263.118812,279.867987 263.448845,279.537954 C263.448845,279.537954 263.531353,279.455446 263.531353,279.455446 C263.778878,279.125413 264.108911,278.877888 264.356436,278.547855 C264.356436,278.547855 264.438944,278.465347 264.438944,278.465347 C264.686469,278.135314 265.016502,277.805281 265.264026,277.475248 C257.09571,273.019802 135.231023,198.184818 135.231023,198.184818 C135.231023,198.184818 13.4488449,272.937294 5.28052805,277.392739 Z"/>
      <path fill="#FFE2E1" d="M0.330033003,114.273927 L122.937294,4.78547855 C130.280528,-0.742574257 140.346535,-0.742574257 147.689769,4.78547855 L270.29703,114.273927 L0.330033003,114.273927 Z"/>
    </g>
    <g transform="translate(195.545 18.977)">
      <polygon fill="#F577B6" points="53.878 32.178 27.145 .083 .33 32.178 10.726 32.178 10.726 73.432 43.729 73.432 43.729 32.178"/>
      <polygon fill="#FD806F" points="84.983 82.508 84.983 41.254 51.155 41.254 51.155 82.508 41.749 82.508 68.564 114.604 95.297 82.508"/>
    </g>
    <g transform="translate(269.802 335.809)">
      <circle cx="63.215" cy="100.505" r="15.759" fill="#95D5CF" transform="rotate(-74.687 63.215 100.505)"/>
      <path fill="#FFBF0D" d="M59.8184818,4.7029703 C49.7524752,1.2101431e-14 38.5313531,-0.495049505 28.0528053,3.30033003 C27.970297,3.30033003 27.8877888,3.38283828 27.8052805,3.38283828 C17.6567657,7.17821782 9.40594059,14.6864686 4.7029703,24.5049505 C7.10542736e-15,34.3234323 -0.742574257,45.4620462 2.72277228,55.7755776 C6.35313531,66.5841584 14.0264026,75.2475248 24.2574257,80.1155116 C29.8679868,82.7557756 34.1584158,87.4587459 36.1386139,92.9867987 L37.6237624,97.029703 L80.6105611,81.5181518 L79.1254125,77.4752475 C77.1452145,71.9471947 77.3927393,65.5940594 79.950495,60.1485149 C84.6534653,50.0825083 85.1485149,38.7788779 81.3531353,28.3828383 C77.640264,17.8217822 69.9669967,9.40594059 59.8184818,4.7029703 Z"/>
      <path fill="#00C0CD" d="M36.2211221,92.9867987 L38.6963696,99.7524752 C40.5940594,104.950495 46.2871287,107.590759 51.4851485,105.693069 L75.7425743,96.9471947 C80.9405941,95.049505 83.5808581,89.3564356 81.6831683,84.1584158 L79.2079208,77.3927393 L36.2211221,92.9867987 Z"/>
      <path fill="#FFDB2D" d="M35.5610561,31.1881188 C33.0033003,36.7161716 26.4026403,39.1089109 20.8745875,36.5511551 C15.3465347,33.9933993 12.9537954,27.3927393 15.5115512,21.8646865 C18.0693069,16.3366337 24.669967,13.9438944 30.1980198,16.5016502 C35.7260726,19.0594059 38.1188119,25.660066 35.5610561,31.1881188 Z"/>
      <circle cx="27.568" cy="45.974" r="18.977" fill="#FFDB2D" transform="rotate(-88.135 27.568 45.974)"/>
      <path fill="#FFF" d="M28.8778878,38.0363036 C33.1683168,38.7788779 36.0561056,42.9042904 35.2310231,47.1947195 C34.4884488,51.4851485 30.3630363,54.3729373 26.0726073,53.5478548 C21.7821782,52.8052805 18.8943894,48.679868 19.7194719,44.3894389 C20.4620462,40.0990099 24.5874587,37.2112211 28.8778878,38.0363036 Z"/>
    </g>
    <path fill="#9570EE" d="M150,425.412541 C151.567657,422.772277 152.805281,419.966997 153.712871,416.9967 C154.70297,414.026403 155.280528,411.056106 155.610561,408.0033 L156.930693,407.755776 L165.346535,405.940594 L163.531353,397.524752 L161.716172,389.108911 L159.90099,380.693069 L151.485149,382.508251 L150.165017,382.755776 C148.679868,380.115512 146.039604,377.392739 143.976898,375.165017 C141.831683,372.772277 139.273927,370.627063 136.056106,368.646865 L136.468647,367.409241 L139.60396,357.673267 L133.168317,355.610561 L125,352.970297 L114.686469,349.669967 L111.551155,359.405941 L111.138614,360.643564 C109.158416,360.973597 105.940594,361.30363 102.887789,362.046205 C99.9174917,362.706271 97.6072607,363.861386 94.8844884,365.09901 L94.2244224,364.191419 L88.6138614,357.838284 L82.2607261,363.613861 L75.9075908,369.389439 L69.5544554,375.165017 L75.330033,381.518152 L76.2376238,382.508251 C74.669967,385.148515 73.4323432,387.953795 72.5247525,390.924092 C71.5346535,393.894389 70.9570957,396.864686 70.6270627,399.917492 L69.3069307,400.165017 L60.8910891,401.980198 L62.7062706,410.39604 L64.5214521,418.811881 L66.3366337,427.227723 L74.7524752,425.412541 L76.0726073,425.165017 C77.5577558,427.805281 78.2178218,429.867987 80.2805281,432.09571 C82.4257426,434.488449 84.7359736,436.551155 86.2211221,438.036304 L85.8085809,439.273927 L83.3333333,446.864686 L93.6468647,450.165017 L101.815182,452.805281 L108.250825,454.867987 L110.726073,447.277228 L111.138614,446.039604 C114.851485,446.20462 118.234323,445.957096 121.369637,445.29703 C124.339934,444.636964 127.640264,443.811881 130.363036,442.574257 L131.518152,443.646865 L137.376238,450.082508 L143.811881,444.306931 L150.247525,438.531353 L156.683168,432.755776 L150.907591,426.40264 L150,425.412541 Z M105.610561,427.227723 C92.8217822,423.10231 85.7260726,409.323432 89.8514851,396.534653 C93.9768977,383.745875 107.755776,376.650165 120.544554,380.775578 C133.333333,384.90099 140.429043,398.679868 136.30363,411.468647 C132.178218,424.257426 118.39934,431.353135 105.610561,427.227723 Z"/>
  </g>
</svg>
