<svg xmlns="http://www.w3.org/2000/svg" viewBox="0 0 500 466">
  <defs>
    <linearGradient id="hero-app-a" x1="48.963%" x2="61.175%" y1="16.282%" y2="64.688%">
      <stop offset=".325%" stop-color="#241084"/>
      <stop offset="98.96%" stop-color="#0A5DE2"/>
    </linearGradient>
    <linearGradient id="hero-app-b" x1="58.266%" x2="17.801%" y1="28.991%" y2="85.61%">
      <stop offset=".325%" stop-color="#241084"/>
      <stop offset="98.96%" stop-color="#0A5DE2"/>
    </linearGradient>
    <linearGradient id="hero-app-c" x1="70.937%" x2="-12.368%" y1="34.755%" y2="115.397%">
      <stop offset="0%" stop-color="#241084" stop-opacity=".8"/>
      <stop offset="98.96%" stop-color="#0A5DE2" stop-opacity="0"/>
    </linearGradient>
  </defs>
  <g fill="none" fill-rule="evenodd">
    <g fill-rule="nonzero" transform="translate(0 263.605)">
      <polygon fill="#FFD474" points="46.989 64.047 45.529 76.72 36.9 99.75 44.865 102.203 50.971 78.219 51.768 64.592"/>
      <polygon fill="url(#hero-app-a)" points="28.538 125.096 32.387 165.296 31.06 200.59 44.467 200.59 45.131 198.001 35.971 196.638 40.883 165.432 45.263 126.595"/>
      <polygon fill="#3878FF" points="24.157 124.687 21.104 158.891 .662 186.69 3.051 199.772 9.157 199.772 5.573 197.047 4.909 188.598 24.423 166.114 42.077 125.778"/>
      <polygon fill="#A86C28" points="51.768 64.592 51.502 51.919 48.98 51.51 46.989 64.047"/>
      <g transform="translate(22.88 73.248)">
        <path fill="#A86C28" d="M4.59604669,9.05927801 C3.66684635,13.6924692 3.66684635,20.7785263 10.4367345,21.8686889 C17.2066227,22.9588515 21.1889098,18.598201 22.1181102,13.9650098 C23.0473105,9.33181866 21.4543956,3.47219454 14.5517646,2.51830224 C9.90576289,1.8369506 5.39250412,5.24370881 4.59604669,9.05927801 Z"/>
        <path fill="#1F1F89" d="M7.83501764,21.4598779 C1.70061255,19.9327715 -0.684989425,14.5878991 0.167011282,9.24302675 C1.18941213,2.67646926 8.51661821,-0.988586087 14.310223,0.233099027 C14.6510233,0.233099027 14.9918236,0.385809667 15.3326239,0.538520306 C15.503024,1.3020735 15.3326239,2.21833734 15.1622237,2.8291799 C14.1398229,5.42526077 11.5838208,7.56320972 8.68701835,8.32676291 C8.68701835,8.17405227 6.8126168,19.7800609 7.83501764,21.4598779 Z"/>
        <path fill="#A86C28" d="M8.97656256,10.4219813 C8.31284803,10.285711 7.64913351,10.5582516 6.98541898,10.8307923 C4.99427541,11.9209549 5.65798993,14.9189021 7.3836477,15.8727944 C7.91461932,16.1453351 8.57833384,16.2816054 9.24204837,16.4178757 C9.77301999,16.4178757 10.3039916,16.4178757 10.8349632,16.1453351 C11.2331919,15.8727944 11.6314207,15.3277131 11.6314207,14.7826318 C11.7641636,14.2375505 11.6314207,13.6924692 11.4986778,13.1473879 C11.2331919,12.0572252 10.1712487,10.6945219 8.97656256,10.4219813 Z"/>
      </g>
      <path fill="#8E574A" d="M47.652671,50.1474809 C47.652671,51.7827248 48.8473571,53.0091578 50.440272,53.0091578 C52.0331868,53.0091578 53.227873,51.7827248 53.227873,50.1474809 C53.227873,48.5122369 52.0331868,47.285804 50.440272,47.285804 C48.8473571,47.285804 47.652671,48.5122369 47.652671,50.1474809 Z"/>
      <path fill="#FFD474" d="M60.7942186,69.4978675 L56.5464456,70.9968411 C54.8207878,76.1751136 51.9004439,80.8083048 48.1836426,84.623874 L40.2190683,92.527553 L30.3960933,99.3410694 L23.0952335,127.140216 L45.9270132,129.320542 L46.7234706,98.7959881 L55.2190165,87.8943618 C58.6703321,83.397441 61.0597044,78.2191685 62.1216476,72.4958147 L60.7942186,69.4978675 Z"/>
      <path fill="#00C0CD" d="M71.5463939,0.272540657 L39.8208395,0.272540657 C34.3783804,0.272540657 29.9978646,4.7694615 29.9978646,10.356545 L29.9978646,42.9251535 C29.9978646,48.5122369 34.3783804,53.0091578 39.8208395,53.0091578 L71.5463939,53.0091578 C76.988853,53.0091578 81.3693688,48.5122369 81.3693688,42.9251535 L81.3693688,10.356545 C81.3693688,4.7694615 76.988853,0.272540657 71.5463939,0.272540657 Z"/>
      <polygon fill="#A86C28" points="56.015 72.36 61.723 74.404 66.237 53.418 62.918 52.6"/>
      <path fill="#835622" d="M61.590676,52.0552655 C61.590676,53.6905094 62.7853621,54.9169424 64.378277,54.9169424 C65.9711919,54.9169424 67.165878,53.6905094 67.165878,52.0552655 C67.165878,50.4200215 65.9711919,49.1935886 64.378277,49.1935886 C62.918105,49.1935886 61.590676,50.4200215 61.590676,52.0552655 Z"/>
      <path fill="#FFF" d="M68.0950783,20.0317383 C68.0950783,27.390336 55.0862736,47.0132633 55.0862736,47.0132633 C55.0862736,47.0132633 42.0774689,27.390336 42.0774689,20.0317383 C42.0774689,12.6731405 47.9181568,6.67724609 55.0862736,6.67724609 C62.2543905,6.67724609 68.0950783,12.6731405 68.0950783,20.0317383 Z"/>
      <path fill="#00C0CD" d="M61.3251902,18.9415757 C61.3251902,22.4846042 58.5375892,25.3462811 55.0862736,25.3462811 C51.6349581,25.3462811 48.8473571,22.4846042 48.8473571,18.9415757 C48.8473571,15.3985471 51.6349581,12.5368702 55.0862736,12.5368702 C58.5375892,12.5368702 61.3251902,15.3985471 61.3251902,18.9415757 Z"/>
    </g>
    <g transform="translate(188.166 63.139)">
      <path fill="#84B4FE" fill-rule="nonzero" d="M123.981873,0 L12.4778331,0 C6.23891654,0 1.06194324,5.17827248 1.06194324,11.7192482 L1.06194324,285.350068 C1.06194324,291.754773 6.10617363,297.069316 12.4778331,297.069316 L123.981873,297.069316 C130.22079,297.069316 135.397763,291.891044 135.397763,285.350068 L135.397763,11.7192482 C135.397763,5.17827248 130.353533,0 123.981873,0 Z"/>
      <path fill="#214A81" fill-rule="nonzero" d="M123.981873 0L12.4778331 0C6.23891654 0 1.06194324 5.17827248 1.06194324 11.7192482L1.06194324 23.5747668 135.397763 23.5747668 135.397763 11.7192482C135.397763 5.17827248 130.353533 0 123.981873 0zM1.19468615 270.496602L1.19468615 285.486338C1.19468615 291.891044 6.23891654 297.205586 12.610576 297.205586L124.114616 297.205586C130.353533 297.205586 135.530506 292.027314 135.530506 285.486338L135.530506 270.496602 1.19468615 270.496602z"/>
      <path fill="#F76D59" fill-rule="nonzero" d="M114.291641,31.6147162 L82.566087,31.6147162 C77.1236279,31.6147162 72.743112,36.111637 72.743112,41.6987205 L72.743112,74.267329 C72.743112,79.8544125 77.1236279,84.3513333 82.566087,84.3513333 L114.291641,84.3513333 C119.7341,84.3513333 124.114616,79.8544125 124.114616,74.267329 L124.114616,41.6987205 C124.114616,36.111637 119.7341,31.6147162 114.291641,31.6147162 Z"/>
      <path fill="#1F1F89" fill-rule="nonzero" d="M114.291641,191.732352 L82.566087,191.732352 C77.1236279,191.732352 72.743112,196.229273 72.743112,201.816356 L72.743112,234.384965 C72.743112,239.972048 77.1236279,244.468969 82.566087,244.468969 L114.291641,244.468969 C119.7341,244.468969 124.114616,239.972048 124.114616,234.384965 L124.114616,201.816356 C124.114616,196.229273 119.7341,191.732352 114.291641,191.732352 Z"/>
      <path fill="#F76D59" fill-rule="nonzero" d="M53.6281337,191.732352 L21.9025793,191.732352 C16.4601202,191.732352 12.0796044,196.229273 12.0796044,201.816356 L12.0796044,234.384965 C12.0796044,239.972048 16.4601202,244.468969 21.9025793,244.468969 L53.6281337,244.468969 C59.0705928,244.468969 63.4511086,239.972048 63.4511086,234.384965 L63.4511086,201.816356 C63.4511086,196.229273 59.0705928,191.732352 53.6281337,191.732352 Z"/>
      <path stroke="#0A5DE2" stroke-linecap="round" stroke-width="2" d="M0.53097162,298.432019 L145.353481,298.432019" opacity=".5"/>
    </g>
    <g fill-rule="nonzero" transform="translate(304.98 256.642)">
      <g fill="#1F1F89" transform="translate(18.386 1.363)">
        <polygon points="41.92 -.28 43.248 -.28 43.248 110.103 41.92 110.103" transform="rotate(-9.439 42.584 54.912)"/>
        <polygon points="9.525 -.268 10.853 -.268 10.853 110.116 9.525 110.116" transform="rotate(-9.439 10.19 54.924)"/>
        <polygon points="5.109 22.893 37.764 22.893 37.764 24.256 5.109 24.256"/>
        <polygon points="7.366 37.474 40.021 37.474 40.021 38.837 7.366 38.837"/>
        <polygon points="9.755 51.919 42.41 51.919 42.41 53.282 9.755 53.282"/>
        <polygon points="12.012 66.5 44.667 66.5 44.667 67.863 12.012 67.863"/>
        <polygon points="14.401 81.081 47.056 81.081 47.056 82.444 14.401 82.444"/>
        <polygon points="16.658 95.526 49.313 95.526 49.313 96.888 16.658 96.888"/>
      </g>
      <g fill="#3878FF" transform="translate(0 2.455)">
        <polygon points="-43.746 53.139 63.771 53.139 63.771 54.501 -43.746 54.501" transform="rotate(-80.555 10.012 53.82)"/>
        <polygon points="-11.397 53.086 96.12 53.086 96.12 54.449 -11.397 54.449" transform="rotate(-80.555 42.362 53.768)"/>
        <polygon points="14.734 21.801 47.389 21.801 47.389 23.164 14.734 23.164"/>
        <polygon points="12.478 36.382 45.133 36.382 45.133 37.745 12.478 37.745"/>
        <polygon points="10.088 50.827 42.743 50.827 42.743 52.19 10.088 52.19"/>
        <polygon points="7.832 65.408 40.487 65.408 40.487 66.771 7.832 66.771"/>
        <polygon points="5.442 79.989 38.097 79.989 38.097 81.352 5.442 81.352"/>
        <polygon points="3.186 94.433 35.841 94.433 35.841 95.796 3.186 95.796"/>
      </g>
      <polygon fill="#0A5DE2" points="16.195 .136 56.018 .136 56.018 4.224 16.195 4.224"/>
    </g>
    <g transform="translate(340.468 108.108)">
      <polygon fill="#FFD474" fill-rule="nonzero" points="55.308 130.274 51.325 89.121 46.281 45.105 50.263 44.56 59.157 86.259 73.095 87.349 87.564 45.105 91.414 45.651 80.927 90.756 81.458 129.184"/>
      <path fill="#F76D59" fill-rule="nonzero" d="M60.2191282,73.9947883 C59.1571849,77.9466279 60.8828427,84.215063 64.7323869,85.3052256 C68.5819312,86.3953882 73.09519,81.7621971 74.1571332,77.8103575 C75.2190764,73.858518 72.962447,69.7704082 69.1129028,68.6802455 C65.2633586,67.7263532 61.2810714,70.0429488 60.2191282,73.9947883 Z"/>
      <path fill="#2B159B" fill-rule="nonzero" d="M65.3961015,71.8144631 C64.599644,71.5419224 63.5377008,70.9968411 63.1394721,70.3154895 C63.1394721,70.1792191 63.1394721,70.1792191 63.0067292,70.0429488 C64.7323869,68.8165159 66.9890163,68.2714346 69.1129028,68.8165159 C72.962447,69.9066785 75.2190764,73.9947883 74.1571332,77.9466279 C73.3606758,80.8083048 70.8385606,83.9425223 68.0509596,85.0326849 C68.0509596,84.215063 68.3164454,83.397441 68.4491883,82.7160894 C69.2456457,79.5818718 70.174846,76.4476543 71.1040464,73.449707 C69.1129028,73.040896 67.2545021,72.4958147 65.3961015,71.8144631 Z"/>
      <path fill="#F76D59" fill-rule="nonzero" d="M69.7766173,77.8103575 C70.3075889,77.4015466 70.9713035,77.2652762 71.635018,77.5378169 C71.7677609,77.5378169 71.9005038,77.6740872 72.0332467,77.8103575 C72.2987325,78.0828982 72.4314754,78.4917092 72.4314754,78.9005202 C72.2987325,79.9906828 71.3695322,80.9445751 70.3075889,81.3533861 C70.0421031,81.4896564 69.6438744,81.4896564 69.3783886,81.4896564 C69.1129028,81.4896564 68.7146741,81.2171158 68.5819312,81.0808454 C67.9182167,79.9906828 69.1129028,78.3554389 69.7766173,77.8103575 Z"/>
      <polygon fill="#3878FF" fill-rule="nonzero" points="81.458 129.184 77.608 192.277 73.361 192.277 69.644 129.593 65.927 129.866 63.538 193.776 60.219 193.776 55.308 130.274 54.511 122.507 81.325 122.78"/>
      <polygon fill="#3878FF" fill-rule="nonzero" points="77.608 192.277 86.9 193.368 86.635 194.867 72.83 194.867 73.361 192.277"/>
      <polygon fill="#3878FF" fill-rule="nonzero" points="63.538 193.776 63.538 195.548 50.662 196.093 50.662 194.458 60.219 193.776"/>
      <path fill="#2B159B" fill-rule="nonzero" d="M67.1217592,79.4456015 C64.7323869,79.7181421 62.8739863,77.2652762 60.6173569,76.9927356 C60.484614,76.9927356 60.3518711,76.9927356 60.2191282,76.9927356 C60.0863853,77.1290059 59.9536423,77.2652762 59.8208994,77.4015466 C59.5554136,77.9466279 59.2899278,78.6279795 58.8916991,79.1730608 C58.6262133,79.7181421 58.2279846,80.3994938 58.0952417,81.0808454 C57.9624988,81.8984674 58.0952417,82.7160894 58.2279846,83.5337113 C58.3607275,84.215063 58.4934704,84.7601443 58.7589562,85.4414959 C59.2899278,86.5316586 60.2191282,87.2130102 61.2810714,87.6218212 C62.3430146,88.0306322 63.5377008,88.0306322 64.599644,88.0306322 C65.3961015,87.8943618 66.1925589,87.7580915 66.8562734,87.4855509 C68.3164454,86.6679289 69.2456457,84.8964146 68.9801599,83.1249004 C68.9801599,82.7160894 68.847417,82.3072784 68.847417,81.8984674 C68.847417,81.4896564 69.1129028,81.0808454 69.2456457,80.6720344 C69.5111315,80.2632235 70.9713035,78.2191685 69.7766173,78.2191685 C69.3783886,78.2191685 68.847417,78.9005202 68.5819312,79.0367905 C68.1837025,79.1730608 67.6527308,79.3093312 67.1217592,79.4456015 Z"/>
      <g fill="#AFC6F5" fill-rule="nonzero" opacity=".4" transform="translate(46.262 44.515)">
        <polygon points="36.258 15.171 41.966 15.171 45.151 1.136 41.302 .591"/>
        <polygon points="4.001 .045 .019 .591 1.744 15.171 7.187 15.171"/>
      </g>
      <path fill="#3878FF" fill-rule="nonzero" d="M145.440073,0 L15.617512,0 C9.2458526,0 4.0688793,5.31454281 4.0688793,11.8555186 L4.0688793,31.7509865 C4.0688793,38.2919623 9.2458526,43.6065051 15.617512,43.6065051 L145.440073,43.6065051 C151.811733,43.6065051 156.988706,38.2919623 156.988706,31.7509865 L156.988706,11.8555186 C156.988706,5.31454281 151.811733,0 145.440073,0 Z"/>
      <path fill="#84B4FE" fill-rule="nonzero" d="M141.590529,0 L11.7679678,0 C5.39630835,0 0.219335051,5.31454281 0.219335051,11.8555186 L0.219335051,31.7509865 C0.219335051,38.2919623 5.39630835,43.6065051 11.7679678,43.6065051 L141.590529,43.6065051 C147.962188,43.6065051 153.139162,38.2919623 153.139162,31.7509865 L153.139162,11.8555186 C153.139162,5.31454281 147.962188,0 141.590529,0 Z"/>
      <path fill="#FFF" fill-rule="nonzero" d="M143.44893,33.5225008 L137.210013,26.8452547 C138.802928,24.9374701 139.732128,22.4846042 139.732128,19.895468 C139.732128,13.8995735 134.953384,8.99384168 129.112696,8.99384168 C123.272008,8.99384168 118.493263,13.8995735 118.493263,19.895468 C118.493263,25.8913624 123.272008,30.7970942 129.112696,30.7970942 C131.236582,30.7970942 133.360469,30.1157426 135.21887,28.8893096 L141.457786,35.5665557 C141.723272,35.8390964 142.121501,35.9753667 142.386986,35.9753667 C142.785215,35.9753667 143.050701,35.8390964 143.316187,35.5665557 C143.979901,34.8852041 143.979901,34.0675821 143.44893,33.5225008 Z M129.112696,11.8555186 C133.360469,11.8555186 136.944527,15.3985471 136.944527,19.895468 C136.944527,24.2561185 133.493212,27.9354173 129.112696,27.9354173 C124.864923,27.9354173 121.280865,24.3923888 121.280865,19.895468 C121.413607,15.3985471 124.864923,11.8555186 129.112696,11.8555186 Z"/>
      <path stroke="#0A5DE2" stroke-linecap="round" stroke-width="2" d="M12.829911,196.229273 L150.882532,196.229273" opacity=".5"/>
      <path fill="#F76D59" fill-rule="nonzero" d="M51.1926106 42.7888831C51.1926106 44.6966677 49.7324387 46.1956413 47.874038 46.1956413 46.0156373 46.1956413 44.5554654 44.6966677 44.5554654 42.7888831 44.5554654 40.8810985 46.0156373 39.3821249 47.874038 39.3821249 49.5996957 39.3821249 51.1926106 40.8810985 51.1926106 42.7888831zM91.4137109 43.7427754C91.4137109 45.65056 89.9535389 47.1495336 88.0951382 47.1495336 86.2367376 47.1495336 84.7765656 45.65056 84.7765656 43.7427754 84.7765656 41.8349908 86.2367376 40.3360172 88.0951382 40.3360172 89.9535389 40.3360172 91.4137109 41.8349908 91.4137109 43.7427754z"/>
    </g>
    <g transform="translate(40.821)">
      <path fill="#AFC6F5" fill-rule="nonzero" d="M228.185054,161.934574 C228.848768,163.842358 227.919568,166.022683 226.061167,166.840305 C224.202767,167.657927 222.07888,166.567765 221.282423,164.65998 C220.618708,162.752196 221.547909,160.57187 223.406309,159.754248 C225.397453,159.072897 227.521339,160.026789 228.185054,161.934574 Z"/>
      <path fill="#EBF5FF" fill-rule="nonzero" d="M217.167393,145.582134 L185.840067,139.995051 C180.530351,139.041158 175.353378,142.720457 174.424177,148.17127 L168.981718,180.331068 C168.052518,185.781881 171.636576,191.096424 176.946293,192.050316 L208.273618,197.6374 C213.583334,198.591292 218.760308,194.911993 219.689508,189.46118 L225.131967,157.301382 C226.061167,151.850569 222.477109,146.536027 217.167393,145.582134 Z"/>
      <path fill="#3878FF" fill-rule="nonzero" d="M65.707738,327.775563 L88.6722606,327.775563 C89.2032322,327.775563 89.7342038,327.503023 89.8669468,326.957941 C90.1324326,326.41286 89.9996897,325.867779 89.6014609,325.458968 L67.4333958,300.930309 L65.4422522,302.838093 L85.4864309,325.050157 L65.5749951,325.050157 L65.5749951,327.775563 L65.707738,327.775563 Z"/>
      <g fill-rule="nonzero" transform="translate(216.37 151.714)">
        <polygon fill="#D64536" points="11.018 10.629 20.841 14.581 49.646 17.443 39.956 24.392 19.779 19.35 9.557 14.581"/>
        <path fill="#AFC6F5" d="M45.6635594,6.13216478 C47.2564742,10.356545 45.1325877,15.1260065 41.0175577,16.7612504 C36.9025276,18.3964943 32.2565259,16.2161691 30.6636111,11.9917889 C29.0706962,7.76740872 31.1945827,2.99794723 35.3096128,1.36270328 C39.4246428,-0.272540657 44.0706445,1.9077846 45.6635594,6.13216478 Z"/>
        <polygon fill="url(#hero-app-b)" points="75.796 40.336 72.478 74.812 73.672 105.064 62.256 105.064 61.593 102.748 69.425 101.658 65.31 74.949 61.46 41.562"/>
        <path fill="#F76D59" d="M6.37165944,14.1721142 C10.6194324,15.9436284 24.6901803,19.7591976 29.2034391,19.3503866 L38.6281854,18.5327647 L48.4511604,15.9436284 L69.955511,26.7089844 L58.5396212,43.0614238 L38.8936712,26.3001734 L27.3450385,25.7550921 C22.5662939,25.4825514 9.02651755,20.3042789 4.91148749,17.7151427 L6.37165944,14.1721142 Z"/>
        <path fill="#1F1F89" d="M46.9909884,4.08810985 C45.2653306,0.136270328 38.6281854,-0.817621971 34.7786411,1.09016263 C34.5131553,1.22643296 34.3804124,1.36270328 34.1149266,1.49897361 C34.1149266,2.18032526 34.3804124,2.72540657 34.6458982,3.27048788 C35.7078415,5.17827248 37.831728,6.40470544 39.9556144,6.54097577 C39.9556144,6.54097577 40.0883573,6.94978675 40.3538432,7.63113839 C40.619329,7.35859774 40.8848148,7.08605708 41.1503006,6.94978675 C41.6812722,6.67724609 42.3449867,6.67724609 43.0087013,6.94978675 C44.9998448,7.49486806 44.8671019,10.356545 43.5396729,11.4467076 C43.1414442,11.8555186 42.6104725,12.1280592 42.0795009,12.2643296 C42.0795009,12.2643296 41.946758,12.2643296 41.8140151,12.2643296 C41.6812722,14.9897361 41.8140151,15.2622768 42.3449867,16.0798988 C45.6635594,13.7633032 49.1148749,9.13011201 46.9909884,4.08810985 Z"/>
        <polygon fill="#3878FF" points="110.973 35.839 91.725 44.424 69.557 26.845 58.141 42.925 91.725 53.554 111.504 39.791 115.752 44.697 117.212 43.198"/>
        <path fill="#AFC6F5" d="M7.56634559,14.0358438 C8.23006012,15.9436284 7.30085978,18.1239537 5.44245911,18.9415757 C3.58405844,19.6229273 1.46017196,18.669035 0.663714526,16.7612504 C-1.83186799e-15,14.8534658 0.929200336,12.6731405 2.78760101,11.8555186 C4.77874458,11.1741669 6.90263107,12.1280592 7.56634559,14.0358438 Z"/>
      </g>
      <path fill="#3878FF" fill-rule="nonzero" d="M64.5130519,70.7697239 L90.5306613,70.7697239 L90.5306613,338.81346 L64.5130519,338.81346 L64.5130519,70.7697239 Z M87.8758032,73.4951305 L67.16791,73.4951305 L67.16791,336.088053 L87.8758032,336.088053 L87.8758032,73.4951305 Z"/>
      <polygon fill="#F7F5EF" fill-rule="nonzero" points="61.09 324.393 94.143 324.393 94.143 348.785 61.09 348.785" transform="rotate(-180 77.617 336.589)"/>
      <path fill="#3878FF" fill-rule="nonzero" d="M65.707738,227.071791 L88.6722606,227.071791 C89.2032322,227.071791 89.7342038,226.79925 89.8669468,226.254169 C89.9996897,225.709087 89.9996897,225.164006 89.6014609,224.755195 L67.4333958,200.226536 L65.4422522,202.134321 L85.4864309,224.346384 L65.5749951,224.346384 L65.5749951,227.071791 L65.707738,227.071791 Z"/>
      <path fill="#3878FF" fill-rule="nonzero" d="M65.707738,252.145531 L88.6722606,252.145531 C89.2032322,252.145531 89.7342038,251.87299 89.8669468,251.327909 C90.1324326,250.782828 89.9996897,250.237746 89.6014609,249.828935 L67.4333958,225.300276 L65.4422522,227.208061 L85.4864309,249.420124 L65.5749951,249.420124 L65.5749951,252.145531 L65.707738,252.145531 Z"/>
      <path fill="#3878FF" fill-rule="nonzero" d="M65.707738,277.355542 L88.6722606,277.355542 C89.2032322,277.355542 89.7342038,277.083001 89.8669468,276.53792 C90.1324326,275.992839 89.9996897,275.447757 89.6014609,275.038946 L67.4333958,250.510287 L65.4422522,252.418072 L85.4864309,274.630135 L65.5749951,274.630135 L65.5749951,277.355542 L65.707738,277.355542 Z"/>
      <path fill="#3878FF" fill-rule="nonzero" d="M65.707738 302.565553L88.6722606 302.565553C89.2032322 302.565553 89.7342038 302.293012 89.8669468 301.747931 89.9996897 301.202849 89.9996897 300.657768 89.6014609 300.248957L67.4333958 275.720298 65.4422522 277.628082 85.4864309 299.840146 65.5749951 299.840146 65.5749951 302.565553 65.707738 302.565553zM65.707738 202.406861L88.6722606 202.406861C89.2032322 202.406861 89.7342038 202.134321 89.8669468 201.589239 90.1324326 201.044158 89.9996897 200.499077 89.6014609 200.090266L67.4333958 175.561606 65.4422522 177.469391 85.4864309 199.681455 65.5749951 199.681455 65.5749951 202.406861 65.707738 202.406861z"/>
      <path fill="#3878FF" fill-rule="nonzero" d="M65.707738,177.878202 L88.6722606,177.878202 C89.2032322,177.878202 89.7342038,177.605661 89.8669468,177.06058 C90.1324326,176.515499 89.9996897,175.970417 89.6014609,175.561606 L67.4333958,151.032947 L65.4422522,152.940732 L85.4864309,175.152795 L65.5749951,175.152795 L65.5749951,177.878202 L65.707738,177.878202 Z"/>
      <path fill="#3878FF" fill-rule="nonzero" d="M65.707738,153.213273 L88.6722606,153.213273 C89.2032322,153.213273 89.7342038,152.940732 89.8669468,152.395651 C90.1324326,151.850569 89.9996897,151.305488 89.6014609,150.896677 L67.4333958,126.368018 L65.4422522,128.275803 L85.4864309,150.487866 L65.5749951,150.487866 L65.5749951,153.213273 L65.707738,153.213273 Z"/>
      <path fill="#3878FF" fill-rule="nonzero" d="M65.707738,128.684613 L88.6722606,128.684613 C89.2032322,128.684613 89.7342038,128.412073 89.8669468,127.866992 C90.1324326,127.32191 89.9996897,126.776829 89.6014609,126.368018 L67.4333958,101.839359 L65.4422522,103.747143 L85.4864309,125.959207 L65.5749951,125.959207 L65.5749951,128.684613 L65.707738,128.684613 Z"/>
      <path fill="#3878FF" fill-rule="nonzero" d="M65.707738,104.019684 L88.6722606,104.019684 C89.2032322,104.019684 89.7342038,103.747143 89.8669468,103.202062 C89.9996897,102.656981 89.9996897,102.111899 89.6014609,101.703088 L67.4333958,77.1744293 L65.4422522,79.0822139 L85.4864309,101.294277 L65.5749951,101.294277 L65.5749951,104.019684 L65.707738,104.019684 Z"/>
      <path fill="#3878FF" fill-rule="nonzero" d="M65.707738,79.4910249 L88.6722606,79.4910249 C89.2032322,79.4910249 89.7342038,79.2184843 89.8669468,78.673403 C90.1324326,78.1283216 89.9996897,77.5832403 89.6014609,77.1744293 L67.4333958,52.6457702 L65.4422522,54.5535548 L85.4864309,76.7656184 L65.5749951,76.7656184 L65.5749951,79.4910249 L65.707738,79.4910249 Z"/>
      <polygon fill="#1F1F89" fill-rule="nonzero" points="64.567 43.658 106.646 43.658 106.646 80.043 64.567 80.043" transform="rotate(-180 85.607 61.85)"/>
      <polygon fill="#1F1F89" fill-rule="nonzero" points="1.338 43.548 43.418 43.548 43.418 64.534 1.338 64.534" transform="rotate(-180 22.378 54.04)"/>
      <path fill="#3878FF" fill-rule="nonzero" d="M1.99114358,46.2410648 L209.999276,46.2410648 C210.795733,46.2410648 211.326705,45.6959835 211.326705,44.8783615 C211.326705,44.0607395 210.795733,43.5156582 209.999276,43.5156582 L1.99114358,43.5156582 C1.19468615,43.5156582 0.663714526,44.0607395 0.663714526,44.8783615 C0.663714526,45.6959835 1.32742905,46.2410648 1.99114358,46.2410648 Z"/>
      <polygon fill="#3878FF" fill-rule="nonzero" points="198.982 51.283 200.309 51.283 200.309 139.859 198.982 139.859"/>
      <polygon fill="#3878FF" fill-rule="nonzero" points="49.807 344.334 105.426 344.334 105.426 355.099 49.807 355.099" transform="rotate(-180 77.617 349.717)"/>
      <path fill="#3878FF" fill-rule="nonzero" d="M85.4864309 45.8322538C85.6191738 45.8322538 85.8846596 45.8322538 86.0174025 45.6959835L97.1678065 34.2492759 198.848872 34.2492759 209.335561 45.0146318C209.601047 45.2871725 209.999276 45.2871725 210.264762 45.0146318 210.530247 44.7420912 210.530247 44.3332802 210.264762 44.0607395L199.512586 33.0228429 96.7695778 33.0228429 85.353688 44.7420912C85.0882022 45.0146318 85.0882022 45.4234428 85.353688 45.6959835 85.0882022 45.8322538 85.353688 45.8322538 85.4864309 45.8322538zM1.19468615 45.8322538C1.46017196 45.8322538 1.72565777 45.6959835 1.72565777 45.4234428L12.8760618 23.6201903 39.8228715 23.6201903 50.309561 44.7420912C50.4423039 45.0146318 50.8405327 45.1509022 51.2387614 45.0146318 51.5042472 44.8783615 51.6369901 44.4695505 51.5042472 44.0607395L40.7520719 22.257487 12.0796044 22.257487.663714526 44.7420912C.53097162 45.0146318.663714526 45.4234428.929200336 45.6959835.929200336 45.8322538 1.06194324 45.8322538 1.19468615 45.8322538z"/>
      <path fill="#1F1F89" fill-rule="nonzero" d="M194.733842,51.2830669 C194.733842,54.0084735 196.857728,56.3250691 199.645329,56.3250691 C202.300187,56.3250691 204.556817,54.1447438 204.556817,51.2830669 C204.556817,48.5576604 202.43293,46.2410648 199.645329,46.2410648 C196.990471,46.2410648 194.733842,48.42139 194.733842,51.2830669 Z"/>
      <path fill="#3878FF" fill-rule="nonzero" d="M170.840119,34.2492759 C171.105605,34.2492759 171.37109,34.1130056 171.503833,33.7041946 C171.636576,33.2953836 171.37109,33.0228429 171.105605,32.8865726 L72.8758549,2.08947837 C72.743112,2.08947837 72.6103691,2.08947837 72.4776262,2.08947837 L25.8848665,22.257487 C25.4866378,22.3937573 25.3538949,22.8025683 25.4866378,23.2113793 C25.6193807,23.6201903 26.0176094,23.7564606 26.4158381,23.6201903 L72.743112,3.58845198 L170.840119,34.2492759 C170.707376,34.2492759 170.840119,34.2492759 170.840119,34.2492759 Z"/>
      <path fill="#3878FF" fill-rule="nonzero" d="M88.0085461,45.9685241 C88.141289,45.9685241 88.2740319,45.9685241 88.5395177,45.8322538 C89.2032322,45.5597131 89.6014609,44.7420912 89.3359751,44.0607395 L73.8050552,2.2257487 C73.5395694,1.68066738 73.0085978,1.2718564 72.4776262,1.40812673 C71.9466546,1.40812673 71.4156829,1.95320804 71.28294,2.49828935 L63.3183657,43.2431176 C63.1856228,43.9244692 63.5838515,44.7420912 64.380309,44.8783615 C65.0440235,45.0146318 65.8404809,44.6058208 65.9732238,43.7881989 L73.0085978,7.67656184 L86.8138599,45.0146318 C87.0793457,45.5597131 87.4775745,45.9685241 88.0085461,45.9685241 Z"/>
      <path fill="#BCCCFD" fill-rule="nonzero" d="M69.955511,2.77083001 C69.955511,4.26980362 71.1501971,5.49623658 72.6103691,5.49623658 C74.070541,5.49623658 75.2652272,4.26980362 75.2652272,2.77083001 C75.2652272,1.2718564 74.070541,0.0454234428 72.6103691,0.0454234428 C71.1501971,0.0454234428 69.955511,1.2718564 69.955511,2.77083001 Z"/>
      <path fill="#3878FF" fill-rule="nonzero" d="M184.910867,45.9685241 C185.04361,45.9685241 185.176353,45.9685241 185.309096,45.8322538 L198.3179,35.0668979 L198.3179,45.1509022 C198.3179,45.5597131 198.583386,45.8322538 198.981615,45.8322538 C199.379843,45.8322538 199.645329,45.5597131 199.645329,45.1509022 L199.645329,33.5679242 C199.645329,33.2953836 199.512586,33.0228429 199.247101,32.8865726 C198.981615,32.7503023 198.716129,32.7503023 198.583386,33.0228429 L184.512638,44.7420912 C184.247152,45.0146318 184.247152,45.4234428 184.379895,45.6959835 C184.512638,45.9685241 184.645381,45.9685241 184.910867,45.9685241 Z"/>
      <path fill="#3878FF" fill-rule="nonzero" d="M172.300291,45.9685241 C172.433034,45.9685241 172.565777,45.9685241 172.69852,45.8322538 L185.707324,35.0668979 L185.707324,45.1509022 C185.707324,45.5597131 185.97281,45.8322538 186.371039,45.8322538 C186.769267,45.8322538 187.034753,45.5597131 187.034753,45.1509022 L187.034753,33.5679242 C187.034753,33.2953836 186.90201,33.0228429 186.636525,32.8865726 C186.371039,32.7503023 186.105553,32.7503023 185.97281,33.0228429 L171.902062,44.7420912 C171.636576,45.0146318 171.636576,45.4234428 171.769319,45.6959835 C171.902062,45.9685241 172.034805,45.9685241 172.300291,45.9685241 Z"/>
      <path fill="#3878FF" fill-rule="nonzero" d="M159.689715,45.9685241 C159.822458,45.9685241 159.955201,45.9685241 160.087944,45.8322538 L173.096748,35.0668979 L173.096748,45.1509022 C173.096748,45.5597131 173.362234,45.8322538 173.760463,45.8322538 C174.158691,45.8322538 174.424177,45.5597131 174.424177,45.1509022 L174.424177,33.5679242 C174.424177,33.2953836 174.291434,33.0228429 174.025949,32.8865726 C173.760463,32.7503023 173.494977,32.7503023 173.362234,33.0228429 L159.291486,44.7420912 C159.026,45.0146318 159.026,45.4234428 159.158743,45.6959835 C159.291486,45.9685241 159.424229,45.9685241 159.689715,45.9685241 Z"/>
      <path fill="#3878FF" fill-rule="nonzero" d="M147.079139,45.9685241 C147.211882,45.9685241 147.344625,45.9685241 147.477368,45.8322538 L160.486172,35.0668979 L160.486172,45.1509022 C160.486172,45.5597131 160.751658,45.8322538 161.149887,45.8322538 C161.548116,45.8322538 161.813601,45.5597131 161.813601,45.1509022 L161.813601,33.5679242 C161.813601,33.2953836 161.680858,33.0228429 161.415373,32.8865726 C161.149887,32.7503023 160.884401,32.7503023 160.751658,33.0228429 L146.68091,44.7420912 C146.415424,45.0146318 146.415424,45.4234428 146.548167,45.6959835 C146.68091,45.9685241 146.813653,45.9685241 147.079139,45.9685241 Z"/>
      <path fill="#3878FF" fill-rule="nonzero" d="M134.468563,45.9685241 C134.601306,45.9685241 134.734049,45.9685241 134.866792,45.8322538 L147.875596,35.0668979 L147.875596,45.1509022 C147.875596,45.5597131 148.141082,45.8322538 148.539311,45.8322538 C148.93754,45.8322538 149.203025,45.5597131 149.203025,45.1509022 L149.203025,33.5679242 C149.203025,33.2953836 149.070282,33.0228429 148.804797,32.8865726 C148.539311,32.7503023 148.273825,32.7503023 148.141082,33.0228429 L134.070334,44.7420912 C133.804848,45.0146318 133.804848,45.4234428 133.937591,45.6959835 C134.070334,45.9685241 134.203077,45.9685241 134.468563,45.9685241 Z"/>
      <path fill="#3878FF" fill-rule="nonzero" d="M121.857987,45.9685241 C121.99073,45.9685241 122.123473,45.9685241 122.256216,45.8322538 L135.26502,35.0668979 L135.26502,45.1509022 C135.26502,45.5597131 135.530506,45.8322538 135.928735,45.8322538 C136.326964,45.8322538 136.592449,45.5597131 136.592449,45.1509022 L136.592449,33.5679242 C136.592449,33.2953836 136.459706,33.0228429 136.194221,32.8865726 C135.928735,32.7503023 135.663249,32.7503023 135.530506,33.0228429 L121.459758,44.7420912 C121.194272,45.0146318 121.194272,45.4234428 121.327015,45.6959835 C121.459758,45.9685241 121.592501,45.9685241 121.857987,45.9685241 Z"/>
      <path fill="#3878FF" fill-rule="nonzero" d="M109.247411,45.9685241 C109.380154,45.9685241 109.512897,45.9685241 109.64564,45.8322538 L122.654444,35.0668979 L122.654444,45.1509022 C122.654444,45.5597131 122.91993,45.8322538 123.318159,45.8322538 C123.716388,45.8322538 123.981873,45.5597131 123.981873,45.1509022 L123.981873,33.5679242 C123.981873,33.2953836 123.84913,33.0228429 123.583645,32.8865726 C123.318159,32.7503023 123.052673,32.7503023 122.91993,33.0228429 L108.849182,44.7420912 C108.583696,45.0146318 108.583696,45.4234428 108.716439,45.6959835 C108.849182,45.9685241 109.114668,45.9685241 109.247411,45.9685241 Z"/>
      <path fill="#3878FF" fill-rule="nonzero" d="M96.6368349 45.9685241C96.7695778 45.9685241 96.9023207 45.9685241 97.0350636 45.8322538L110.043868 35.0668979 110.043868 45.1509022C110.043868 45.5597131 110.309354 45.8322538 110.707583 45.8322538 111.105812 45.8322538 111.371297 45.5597131 111.371297 45.1509022L111.371297 33.5679242C111.371297 33.2953836 111.238554 33.0228429 110.973069 32.8865726 110.707583 32.7503023 110.442097 32.7503023 110.309354 33.0228429L96.2386062 44.7420912C95.9731204 45.0146318 95.9731204 45.4234428 96.1058633 45.6959835 96.2386062 45.9685241 96.504092 45.9685241 96.6368349 45.9685241zM22.1680652 45.9685241C22.3008081 45.9685241 22.5662939 45.8322538 22.6990368 45.6959835L39.6901286 25.1191639 39.6901286 45.0146318C39.6901286 45.4234428 39.9556144 45.6959835 40.3538432 45.6959835 40.7520719 45.6959835 41.0175577 45.4234428 41.0175577 45.0146318L41.0175577 23.2113793C41.0175577 22.9388386 40.8848148 22.666298 40.619329 22.5300276 40.3538432 22.3937573 40.0883573 22.5300276 39.8228715 22.666298L21.7698364 44.6058208C21.5043506 44.8783615 21.5043506 45.2871725 21.9025793 45.5597131 21.7698364 45.9685241 22.0353222 45.9685241 22.1680652 45.9685241z"/>
      <path fill="#3878FF" fill-rule="nonzero" d="M9.15926045,45.9685241 C9.42474626,45.9685241 9.55748917,45.8322538 9.69023207,45.6959835 L22.5662939,25.6642452 L22.5662939,45.1509022 C22.5662939,45.5597131 22.8317797,45.8322538 23.2300084,45.8322538 C23.6282371,45.8322538 23.8937229,45.5597131 23.8937229,45.1509022 L23.8937229,23.3476496 C23.8937229,23.0751089 23.76098,22.8025683 23.3627513,22.666298 C23.0972655,22.5300276 22.8317797,22.666298 22.5662939,22.9388386 L8.49554593,44.8783615 C8.23006012,45.1509022 8.36280302,45.5597131 8.62828883,45.8322538 C8.89377464,45.9685241 9.02651755,45.9685241 9.15926045,45.9685241 Z"/>
      <path fill="#1F1F89" fill-rule="nonzero" d="M195.530299,141.630295 C195.530299,143.94689 197.3887,145.854675 199.645329,145.854675 C201.901959,145.854675 203.760359,143.94689 203.760359,141.630295 C203.760359,139.313699 201.901959,137.405915 199.645329,137.405915 C197.3887,137.269644 195.530299,139.177429 195.530299,141.630295 Z"/>
      <path stroke="#0A5DE2" stroke-linecap="round" stroke-width="2" d="M25.7521236,356.119792 L126.636731,356.119792" opacity=".5"/>
    </g>
    <g fill-rule="nonzero" transform="translate(441.234 264.819)">
      <polygon fill="#F76D59" points="45.338 135.316 43.877 114.058 46.134 98.251 54.099 51.919 50.249 51.374 41.488 92.255 27.815 93.345 13.745 51.919 9.895 52.464 20.249 96.752 23.833 113.649 23.435 134.226"/>
      <polygon fill="#1F1F89" points="26.488 78.219 25.161 90.483 33.258 91.165 38.302 78.219"/>
      <path fill="#A86C28" d="M41.4880109,82.7160894 C41.4880109,87.3492805 37.7712096,91.1648497 33.2579508,91.1648497 C28.7446921,91.1648497 25.0278907,87.3492805 25.0278907,82.7160894 C25.0278907,78.0828982 28.7446921,74.267329 33.2579508,74.267329 C37.7712096,74.267329 41.4880109,78.0828982 41.4880109,82.7160894 Z"/>
      <path fill="#00C0CD" d="M48.390642,0.272540657 L16.6650877,0.272540657 C11.2226286,0.272540657 6.84211271,4.7694615 6.84211271,10.356545 L6.84211271,42.9251535 C6.84211271,48.5122369 11.2226286,53.0091578 16.6650877,53.0091578 L48.390642,53.0091578 C53.8331011,53.0091578 58.213617,48.5122369 58.213617,42.9251535 L58.213617,10.356545 C58.213617,4.7694615 53.8331011,0.272540657 48.390642,0.272540657 Z"/>
      <path fill="#1F1F89" d="M36.3110376,82.1710081 C36.4437805,82.3072784 36.7092664,82.3072784 36.8420093,82.3072784 C36.9747522,82.3072784 37.1074951,82.0347377 37.240238,81.8984674 C37.6384667,81.3533861 38.567667,81.3533861 39.0986387,81.8984674 C39.6296103,82.4435487 39.6296103,83.2611707 39.3641245,83.9425223 C38.9658957,84.623874 38.3021812,84.8964146 37.6384667,85.0326849 C37.240238,86.6679289 36.9747522,88.4394432 37.1074951,90.2109574 C38.1694383,90.3472278 39.3641245,90.3472278 40.4260677,90.4834981 C40.6915535,90.4834981 40.8242964,90.4834981 41.0897822,90.3472278 C41.2225251,90.2109574 41.355268,89.9384168 41.355268,89.8021464 C41.7534968,87.7580915 42.0189826,85.8503069 42.0189826,83.806252 C42.0189826,81.8984674 41.7534968,79.8544125 40.8242964,78.0828982 C39.6296103,76.0388433 34.7181228,72.7683554 32.3287505,74.5398697 C29.5411495,76.4476543 34.452637,81.2171158 36.3110376,82.1710081 Z"/>
      <path fill="#1F1F89" d="M29.5411495,79.3093312 C28.2137204,80.6720344 26.3553198,81.7621971 24.3641762,81.8984674 C24.2314333,79.7181421 25.1606336,77.4015466 26.8862914,76.0388433 C27.8154917,75.2212213 30.8685785,73.449707 32.1960076,74.267329 C33.5234366,75.084951 30.4703498,78.3554389 29.5411495,79.3093312 Z"/>
      <polygon fill="#0A5DE2" points="44.541 120.19 23.7 119.237 7.639 192.959 .205 188.326 9.231 199.636 30.603 138.859 30.338 166.386 44.807 186.145 45.736 193.231 46.134 196.229 48.656 195.957 49.187 185.055 37.904 166.386 45.869 135.316"/>
      <polygon fill="#A86C28" points="45.869 71.951 50.382 73.586 54.099 51.919 50.249 51.374"/>
      <polygon fill="#A86C28" points="19.585 69.089 14.276 71.133 9.895 52.464 13.745 51.919"/>
      <polygon fill="#A86C28" points="37.24 92.664 33.391 99.75 31.4 93.073"/>
      <path fill="#835622" d="M8.16954176 49.7386699C8.16954176 51.6464545 9.62971372 53.1454281 11.4881144 53.1454281 13.3465151 53.1454281 14.806687 51.6464545 14.806687 49.7386699 14.806687 47.8308853 13.3465151 46.3319117 11.4881144 46.3319117 9.62971372 46.3319117 8.16954176 47.8308853 8.16954176 49.7386699zM49.1870994 50.2837512C49.1870994 52.1915358 50.6472714 53.6905094 52.5056721 53.6905094 54.3640727 53.6905094 55.8242447 52.1915358 55.8242447 50.2837512 55.8242447 48.3759666 54.3640727 46.876993 52.5056721 46.876993 50.6472714 46.876993 49.1870994 48.5122369 49.1870994 50.2837512z"/>
      <path fill="url(#hero-app-c)" d="M24.7624049,155.484445 L29.8066353,141.17606 L30.3376069,136.679139 L23.7004617,119.236537 L16.6650877,151.260065 C19.7181745,152.895309 22.6385184,154.394282 24.7624049,155.484445 Z"/>
      <g fill="#F7F5EF" transform="translate(19.832 10.447)">
        <path d="M19.2665394 7.26775085C19.2665394 11.08332 16.2134526 14.2175376 12.4966512 14.2175376 8.77984987 14.2175376 5.72676305 11.08332 5.72676305 7.26775085 5.72676305 3.45218165 8.77984987.3179641 12.4966512.3179641 16.2134526.3179641 19.2665394 3.45218165 19.2665394 7.26775085zM25.7709417 28.2533814C25.6381988 21.031054 19.9302539 15.3077002 12.8948799 15.3077002 5.85950596 15.3077002.151561036 21.1673244.0188181306 28.2533814L25.7709417 28.2533814z"/>
      </g>
    </g>
    <path stroke="#0A5DE2" stroke-linecap="round" stroke-width="2" d="M287.191877,367.021418 L388.076484,367.021418" opacity=".5"/>
    <g transform="translate(134.519 198.046)">
      <path fill="#1F1F89" fill-rule="nonzero" d="M48.4699785,0.272540657 L16.7444242,0.272540657 C11.3019651,0.272540657 6.9214492,4.7694615 6.9214492,10.356545 L6.9214492,42.9251535 C6.9214492,48.5122369 11.3019651,53.0091578 16.7444242,53.0091578 L48.4699785,53.0091578 C53.9124376,53.0091578 58.2929535,48.5122369 58.2929535,42.9251535 L58.2929535,10.356545 C58.2929535,4.7694615 53.9124376,0.272540657 48.4699785,0.272540657 Z"/>
      <polygon fill="#FFD474" fill-rule="nonzero" points="19.267 138.723 15.284 97.842 10.373 54.099 14.222 53.554 23.116 94.98 36.921 96.207 51.258 54.099 55.107 54.644 44.62 99.614 45.151 137.633"/>
      <path fill="#F76D59" fill-rule="nonzero" d="M16.4789384 51.9189951C16.4789384 53.8267797 15.0187664 55.3257533 13.1603657 55.3257533 11.3019651 55.3257533 9.84179311 53.8267797 9.84179311 51.9189951 9.84179311 50.0112105 11.3019651 48.5122369 13.1603657 48.5122369 15.0187664 48.5122369 16.4789384 50.0112105 16.4789384 51.9189951zM55.1071237 53.0091578C55.1071237 54.9169424 53.6469518 56.415916 51.7885511 56.415916 49.9301504 56.415916 48.4699785 54.9169424 48.4699785 53.0091578 48.4699785 51.1013732 49.9301504 49.6023996 51.7885511 49.6023996 53.6469518 49.6023996 55.1071237 51.1013732 55.1071237 53.0091578zM38.7797464 82.579819C38.7797464 87.3492805 35.0629451 91.3011201 30.2842005 91.3011201 25.6381988 91.3011201 21.7886546 87.4855509 21.7886546 82.579819 21.7886546 77.8103575 25.5054559 73.858518 30.2842005 73.858518 34.9302022 73.858518 38.7797464 77.8103575 38.7797464 82.579819z"/>
      <path fill="#1F1F89" fill-rule="nonzero" d="M38.7797464,83.9425223 C38.7797464,88.7119838 35.0629451,92.6638233 30.2842005,92.6638233 C25.6381988,92.6638233 21.7886546,88.8482541 21.7886546,83.9425223 C21.7886546,79.1730608 25.5054559,75.2212213 30.2842005,75.2212213 C34.9302022,75.2212213 38.7797464,79.1730608 38.7797464,83.9425223 Z"/>
      <polygon fill="#3878FF" fill-rule="nonzero" points="45.151 137.633 41.435 200.317 37.187 200.317 33.603 138.042 29.753 138.314 27.497 201.816 24.178 201.68 19.267 138.723 18.47 130.956 45.151 131.365"/>
      <polygon fill="#3878FF" fill-rule="nonzero" points="41.435 200.317 50.727 201.408 50.328 202.77 36.789 202.77 37.187 200.317"/>
      <polygon fill="#3878FF" fill-rule="nonzero" points="27.497 201.816 27.497 203.588 14.753 204.133 14.753 202.498 24.178 201.68"/>
      <path stroke="#0A5DE2" stroke-linecap="round" stroke-width="2" d="M0.0188181306,203.724141 L74.354845,203.724141" opacity=".5"/>
    </g>
    <g fill-rule="nonzero" transform="translate(214.714 405.177)">
      <path fill="#80392E" d="M64.9112806,11.5829779 C64.9112806,11.7192482 64.9112806,11.8555186 64.9112806,11.8555186 C64.9112806,11.8555186 64.9112806,11.8555186 64.9112806,11.9917889 C64.9112806,12.1280592 64.9112806,12.1280592 64.7785377,12.2643296 C64.7785377,12.2643296 64.7785377,12.2643296 64.7785377,12.2643296 C64.7785377,12.4005999 64.6457948,12.4005999 64.5130519,12.5368702 C64.5130519,12.5368702 64.5130519,12.5368702 64.5130519,12.5368702 C64.380309,12.6731405 64.380309,12.6731405 64.2475661,12.8094109 C64.2475661,12.8094109 64.2475661,12.8094109 64.2475661,12.8094109 C64.1148232,12.9456812 63.9820803,12.9456812 63.8493374,13.0819515 C63.8493374,13.0819515 63.7165944,13.0819515 63.7165944,13.2182219 C63.5838515,13.3544922 63.4511086,13.3544922 63.3183657,13.4907625 C63.3183657,13.4907625 63.1856228,13.4907625 63.1856228,13.6270328 C63.0528799,13.6270328 62.920137,13.7633032 62.7873941,13.7633032 C62.7873941,13.7633032 62.6546512,13.7633032 62.6546512,13.8995735 C62.3891654,14.0358438 62.2564225,14.0358438 61.9909367,14.1721142 L39.2918999,22.2120635 C39.0264141,22.3483339 38.8936712,22.3483339 38.6281854,22.3483339 C38.2299567,22.4846042 37.9644709,22.4846042 37.5662421,22.6208745 C37.1680134,22.7571449 36.6370418,22.7571449 36.2388131,22.8934152 C35.9733273,22.8934152 35.7078415,23.0296855 35.4423557,23.0296855 C35.0441269,23.0296855 34.7786411,23.1659558 34.3804124,23.1659558 C34.2476695,23.1659558 34.2476695,23.1659558 34.1149266,23.1659558 C33.583955,23.1659558 32.9202405,23.1659558 32.3892688,23.1659558 C32.3892688,23.1659558 32.3892688,23.1659558 32.3892688,23.1659558 C31.7255543,23.1659558 31.1945827,23.1659558 30.5308682,23.1659558 C30.5308682,23.1659558 30.5308682,23.1659558 30.5308682,23.1659558 C29.8671536,23.1659558 29.336182,23.0296855 28.8052104,23.0296855 C28.8052104,23.0296855 28.8052104,23.0296855 28.8052104,23.0296855 C28.2742388,22.8934152 27.7432672,22.8934152 27.2122955,22.7571449 C27.2122955,22.7571449 27.2122955,22.7571449 27.2122955,22.7571449 C26.6813239,22.6208745 26.1503523,22.4846042 25.7521236,22.3483339 L3.45131553,14.4446548 C3.31857263,14.4446548 3.18582972,14.3083845 3.05308682,14.3083845 C2.92034391,14.3083845 2.78760101,14.1721142 2.78760101,14.1721142 C2.6548581,14.1721142 2.6548581,14.0358438 2.5221152,14.0358438 C2.38937229,14.0358438 2.38937229,13.8995735 2.25662939,13.8995735 C2.12388648,13.8995735 2.12388648,13.7633032 1.99114358,13.7633032 C1.85840067,13.7633032 1.85840067,13.6270328 1.72565777,13.6270328 C1.59291486,13.6270328 1.59291486,13.4907625 1.59291486,13.4907625 C1.46017196,13.4907625 1.46017196,13.3544922 1.32742905,13.3544922 C1.32742905,13.3544922 1.19468615,13.2182219 1.19468615,13.2182219 C1.19468615,13.2182219 1.06194324,13.0819515 1.06194324,13.0819515 C1.06194324,13.0819515 0.929200336,12.9456812 0.929200336,12.9456812 C0.929200336,12.9456812 0.929200336,12.8094109 0.796457431,12.8094109 C0.796457431,12.8094109 0.796457431,12.6731405 0.663714526,12.6731405 C0.53097162,12.5368702 0.53097162,12.4005999 0.53097162,12.1280592 L0.663714526,22.3483339 C0.663714526,22.4846042 0.663714526,22.6208745 0.796457431,22.8934152 C0.796457431,22.8934152 0.796457431,23.0296855 0.929200336,23.0296855 C0.929200336,23.0296855 0.929200336,23.1659558 1.06194324,23.1659558 C1.06194324,23.1659558 1.19468615,23.3022262 1.19468615,23.3022262 C1.19468615,23.3022262 1.32742905,23.4384965 1.32742905,23.4384965 C1.32742905,23.4384965 1.46017196,23.5747668 1.46017196,23.5747668 C1.46017196,23.5747668 1.59291486,23.7110371 1.59291486,23.7110371 C1.72565777,23.7110371 1.72565777,23.8473075 1.85840067,23.8473075 C1.85840067,23.8473075 1.99114358,23.9835778 1.99114358,23.9835778 C2.12388648,23.9835778 2.12388648,24.1198481 2.25662939,24.1198481 C2.25662939,24.1198481 2.38937229,24.1198481 2.5221152,24.2561185 C2.6548581,24.2561185 2.78760101,24.3923888 2.92034391,24.3923888 C3.05308682,24.3923888 3.05308682,24.3923888 3.18582972,24.5286591 C3.31857263,24.5286591 3.45131553,24.6649294 3.58405844,24.6649294 C3.58405844,24.6649294 3.58405844,24.6649294 3.58405844,24.6649294 L25.8848665,32.5686085 C26.1503523,32.7048788 26.4158381,32.7048788 26.6813239,32.8411492 C26.9468097,32.8411492 27.0795526,32.9774195 27.3450385,32.9774195 C27.3450385,32.9774195 27.3450385,32.9774195 27.3450385,32.9774195 C27.3450385,32.9774195 27.3450385,32.9774195 27.3450385,32.9774195 C27.4777814,32.9774195 27.7432672,33.1136898 27.8760101,33.1136898 C28.008753,33.1136898 28.2742388,33.2499601 28.5397246,33.2499601 C28.6724675,33.2499601 28.9379533,33.2499601 29.0706962,33.3862305 C29.0706962,33.3862305 29.0706962,33.3862305 29.0706962,33.3862305 C29.0706962,33.3862305 29.0706962,33.3862305 29.0706962,33.3862305 C29.2034391,33.3862305 29.4689249,33.3862305 29.6016678,33.5225008 C29.7344107,33.5225008 29.9998966,33.5225008 30.1326395,33.5225008 C30.2653824,33.5225008 30.5308682,33.5225008 30.6636111,33.5225008 C30.6636111,33.5225008 30.6636111,33.5225008 30.6636111,33.5225008 C30.6636111,33.5225008 30.6636111,33.5225008 30.6636111,33.5225008 C30.9290969,33.5225008 31.0618398,33.5225008 31.3273256,33.5225008 C31.5928114,33.5225008 31.7255543,33.5225008 31.9910401,33.5225008 C32.123783,33.5225008 32.3892688,33.5225008 32.5220118,33.5225008 C32.5220118,33.5225008 32.5220118,33.5225008 32.5220118,33.5225008 C32.5220118,33.5225008 32.5220118,33.5225008 32.5220118,33.5225008 C32.7874976,33.5225008 32.9202405,33.5225008 33.1857263,33.5225008 C33.4512121,33.5225008 33.7166979,33.5225008 33.9821837,33.5225008 C34.1149266,33.5225008 34.1149266,33.5225008 34.2476695,33.5225008 C34.3804124,33.5225008 34.3804124,33.5225008 34.5131553,33.5225008 C34.6458982,33.5225008 34.7786411,33.5225008 34.911384,33.5225008 C35.1768699,33.5225008 35.3096128,33.5225008 35.5750986,33.3862305 C35.8405844,33.3862305 36.1060702,33.3862305 36.371556,33.2499601 C36.5042989,33.2499601 36.5042989,33.2499601 36.6370418,33.2499601 C36.9025276,33.2499601 37.3007563,33.1136898 37.5662421,33.1136898 C37.5662421,33.1136898 37.698985,33.1136898 37.698985,33.1136898 C38.0972138,32.9774195 38.3626996,32.9774195 38.7609283,32.8411492 C38.8936712,32.8411492 39.159157,32.7048788 39.2918999,32.7048788 C39.2918999,32.7048788 39.4246428,32.7048788 39.4246428,32.7048788 L62.1236796,24.6649294 C62.3891654,24.5286591 62.5219083,24.5286591 62.7873941,24.3923888 C62.7873941,24.3923888 62.7873941,24.3923888 62.7873941,24.3923888 C62.7873941,24.3923888 62.920137,24.3923888 62.920137,24.2561185 C63.0528799,24.2561185 63.1856228,24.1198481 63.3183657,24.1198481 C63.3183657,24.1198481 63.3183657,24.1198481 63.4511086,24.1198481 C63.4511086,24.1198481 63.5838515,24.1198481 63.5838515,23.9835778 C63.5838515,23.9835778 63.7165944,23.8473075 63.7165944,23.8473075 C63.7165944,23.8473075 63.8493374,23.8473075 63.8493374,23.7110371 C63.8493374,23.7110371 63.9820803,23.7110371 63.9820803,23.5747668 C63.9820803,23.5747668 63.9820803,23.5747668 64.1148232,23.5747668 C64.2475661,23.4384965 64.2475661,23.4384965 64.380309,23.3022262 C64.380309,23.3022262 64.380309,23.3022262 64.380309,23.3022262 C64.380309,23.3022262 64.380309,23.3022262 64.380309,23.3022262 C64.380309,23.3022262 64.5130519,23.1659558 64.5130519,23.1659558 C64.5130519,23.1659558 64.5130519,23.1659558 64.6457948,23.0296855 C64.6457948,23.0296855 64.6457948,23.0296855 64.6457948,23.0296855 C64.6457948,23.0296855 64.6457948,23.0296855 64.6457948,23.0296855 C64.6457948,22.8934152 64.7785377,22.8934152 64.7785377,22.7571449 C64.7785377,22.7571449 64.7785377,22.7571449 64.7785377,22.7571449 C64.7785377,22.7571449 64.7785377,22.7571449 64.7785377,22.7571449 C64.7785377,22.7571449 64.7785377,22.6208745 64.9112806,22.6208745 C64.9112806,22.6208745 64.9112806,22.4846042 64.9112806,22.4846042 C64.9112806,22.4846042 64.9112806,22.4846042 64.9112806,22.3483339 C64.9112806,22.3483339 64.9112806,22.3483339 64.9112806,22.3483339 C64.9112806,22.2120635 64.9112806,22.2120635 64.9112806,22.0757932 C64.9112806,22.0757932 64.9112806,22.0757932 64.9112806,22.0757932 L64.9112806,11.5829779 Z"/>
      <path fill="#F76D59" d="M61.9909367,9.26638233 C65.8404809,10.6290856 65.707738,12.8094109 61.8581938,14.1721142 L39.159157,22.2120635 C35.3096128,23.5747668 29.0706962,23.5747668 25.221152,22.2120635 L2.92034391,14.3083845 C-0.929200336,12.9456812 -0.796457431,10.7653559 3.05308682,9.40265266 L25.7521236,1.36270328 C29.6016678,-1.66533454e-16 35.8405844,-1.66533454e-16 39.6901286,1.36270328 L61.9909367,9.26638233 Z"/>
    </g>
    <g fill-rule="nonzero" transform="translate(302.325 396.547)">
      <path fill="#214A81" d="M65.0440235,11.492131 C65.0440235,11.6284014 65.0440235,11.7646717 65.0440235,11.7646717 C65.0440235,11.7646717 65.0440235,11.7646717 65.0440235,11.900942 C65.0440235,12.0372123 65.0440235,12.0372123 64.9112806,12.1734827 C64.9112806,12.1734827 64.9112806,12.1734827 64.9112806,12.1734827 C64.9112806,12.309753 64.7785377,12.309753 64.6457948,12.4460233 C64.6457948,12.4460233 64.6457948,12.4460233 64.6457948,12.4460233 C64.5130519,12.5822937 64.5130519,12.5822937 64.380309,12.718564 C64.380309,12.718564 64.380309,12.718564 64.380309,12.718564 C64.2475661,12.8548343 64.1148232,12.8548343 63.9820803,12.9911046 C63.9820803,12.9911046 63.8493374,12.9911046 63.8493374,13.127375 C63.7165944,13.2636453 63.5838515,13.2636453 63.4511086,13.3999156 C63.4511086,13.3999156 63.3183657,13.3999156 63.3183657,13.536186 C63.1856228,13.536186 63.0528799,13.6724563 62.920137,13.6724563 C62.920137,13.6724563 62.7873941,13.6724563 62.7873941,13.8087266 C62.5219083,13.9449969 62.3891654,13.9449969 62.1236796,14.0812673 L39.4246428,22.1212167 C39.159157,22.257487 39.0264141,22.257487 38.7609283,22.257487 C38.3626996,22.3937573 38.0972138,22.3937573 37.698985,22.5300276 C37.3007563,22.666298 36.7697847,22.666298 36.371556,22.8025683 C36.1060702,22.8025683 35.8405844,22.9388386 35.5750986,22.9388386 C35.1768699,22.9388386 34.911384,23.0751089 34.5131553,23.0751089 C34.3804124,23.0751089 34.3804124,23.0751089 34.2476695,23.0751089 C33.7166979,23.0751089 33.0529834,23.0751089 32.5220118,23.0751089 C32.5220118,23.0751089 32.5220118,23.0751089 32.5220118,23.0751089 C31.8582972,23.0751089 31.3273256,23.0751089 30.6636111,23.0751089 C30.6636111,23.0751089 30.6636111,23.0751089 30.6636111,23.0751089 C29.9998966,23.0751089 29.4689249,22.9388386 28.9379533,22.9388386 C28.9379533,22.9388386 28.9379533,22.9388386 28.9379533,22.9388386 C28.4069817,22.8025683 27.8760101,22.8025683 27.3450385,22.666298 C27.3450385,22.666298 27.3450385,22.666298 27.3450385,22.666298 C26.8140668,22.5300276 26.2830952,22.3937573 25.8848665,22.257487 L3.58405844,14.3538079 C3.45131553,14.3538079 3.31857263,14.2175376 3.18582972,14.2175376 C3.05308682,14.2175376 2.92034391,14.0812673 2.92034391,14.0812673 C2.78760101,14.0812673 2.78760101,13.9449969 2.6548581,13.9449969 C2.5221152,13.9449969 2.5221152,13.8087266 2.38937229,13.8087266 C2.25662939,13.8087266 2.25662939,13.6724563 2.12388648,13.6724563 C1.99114358,13.6724563 1.99114358,13.536186 1.85840067,13.536186 C1.72565777,13.536186 1.72565777,13.3999156 1.72565777,13.3999156 C1.59291486,13.3999156 1.59291486,13.2636453 1.46017196,13.2636453 C1.46017196,13.2636453 1.32742905,13.127375 1.32742905,13.127375 C1.32742905,13.127375 1.19468615,12.9911046 1.19468615,12.9911046 C1.19468615,12.9911046 1.06194324,12.8548343 1.06194324,12.8548343 C1.06194324,12.8548343 1.06194324,12.718564 0.929200336,12.718564 C0.929200336,12.718564 0.929200336,12.5822937 0.796457431,12.5822937 C0.663714526,12.4460233 0.663714526,12.309753 0.663714526,12.0372123 L0.796457431,22.257487 C0.796457431,22.3937573 0.796457431,22.5300276 0.929200336,22.8025683 C0.929200336,22.8025683 0.929200336,22.9388386 1.06194324,22.9388386 C1.06194324,22.9388386 1.06194324,23.0751089 1.19468615,23.0751089 C1.19468615,23.0751089 1.32742905,23.2113793 1.32742905,23.2113793 C1.32742905,23.2113793 1.46017196,23.3476496 1.46017196,23.3476496 C1.46017196,23.3476496 1.59291486,23.4839199 1.59291486,23.4839199 C1.59291486,23.4839199 1.72565777,23.6201903 1.72565777,23.6201903 C1.85840067,23.6201903 1.85840067,23.7564606 1.99114358,23.7564606 C1.99114358,23.7564606 2.12388648,23.8927309 2.12388648,23.8927309 C2.25662939,23.8927309 2.25662939,24.0290012 2.38937229,24.0290012 C2.38937229,24.0290012 2.5221152,24.0290012 2.6548581,24.1652716 C2.78760101,24.1652716 2.92034391,24.3015419 3.05308682,24.3015419 C3.18582972,24.3015419 3.18582972,24.3015419 3.31857263,24.4378122 C3.45131553,24.4378122 3.58405844,24.5740826 3.71680134,24.5740826 C3.71680134,24.5740826 3.71680134,24.5740826 3.71680134,24.5740826 L26.0176094,32.4777616 C26.2830952,32.6140319 26.548581,32.6140319 26.8140668,32.7503023 C27.0795526,32.7503023 27.2122955,32.8865726 27.4777814,32.8865726 C27.4777814,32.8865726 27.4777814,32.8865726 27.4777814,32.8865726 C27.4777814,32.8865726 27.4777814,32.8865726 27.4777814,32.8865726 C27.6105243,32.8865726 27.8760101,33.0228429 28.008753,33.0228429 C28.1414959,33.0228429 28.4069817,33.1591133 28.6724675,33.1591133 C28.8052104,33.1591133 29.0706962,33.1591133 29.2034391,33.2953836 C29.2034391,33.2953836 29.2034391,33.2953836 29.2034391,33.2953836 C29.2034391,33.2953836 29.2034391,33.2953836 29.2034391,33.2953836 C29.336182,33.2953836 29.6016678,33.2953836 29.7344107,33.4316539 C29.8671536,33.4316539 30.1326395,33.4316539 30.2653824,33.4316539 C30.3981253,33.4316539 30.6636111,33.4316539 30.796354,33.4316539 C30.796354,33.4316539 30.796354,33.4316539 30.796354,33.4316539 C30.796354,33.4316539 30.796354,33.4316539 30.796354,33.4316539 C31.0618398,33.4316539 31.1945827,33.4316539 31.4600685,33.4316539 C31.7255543,33.4316539 31.8582972,33.4316539 32.123783,33.4316539 C32.2565259,33.4316539 32.5220118,33.4316539 32.6547547,33.4316539 C32.6547547,33.4316539 32.6547547,33.4316539 32.6547547,33.4316539 C32.6547547,33.4316539 32.6547547,33.4316539 32.6547547,33.4316539 C32.9202405,33.4316539 33.0529834,33.4316539 33.3184692,33.4316539 C33.583955,33.4316539 33.8494408,33.4316539 34.1149266,33.4316539 C34.2476695,33.4316539 34.2476695,33.4316539 34.3804124,33.4316539 C34.5131553,33.4316539 34.5131553,33.4316539 34.6458982,33.4316539 C34.7786411,33.4316539 34.911384,33.4316539 35.0441269,33.4316539 C35.3096128,33.4316539 35.4423557,33.4316539 35.7078415,33.2953836 C35.9733273,33.2953836 36.2388131,33.2953836 36.5042989,33.1591133 C36.6370418,33.1591133 36.6370418,33.1591133 36.7697847,33.1591133 C37.0352705,33.1591133 37.4334992,33.0228429 37.698985,33.0228429 C37.698985,33.0228429 37.831728,33.0228429 37.831728,33.0228429 C38.2299567,32.8865726 38.4954425,32.8865726 38.8936712,32.7503023 C39.0264141,32.7503023 39.2918999,32.6140319 39.4246428,32.6140319 C39.4246428,32.6140319 39.5573857,32.6140319 39.5573857,32.6140319 L62.2564225,24.5740826 C62.5219083,24.4378122 62.6546512,24.4378122 62.920137,24.3015419 C62.920137,24.3015419 62.920137,24.3015419 62.920137,24.3015419 C62.920137,24.3015419 63.0528799,24.3015419 63.0528799,24.1652716 C63.1856228,24.1652716 63.3183657,24.0290012 63.4511086,24.0290012 C63.4511086,24.0290012 63.4511086,24.0290012 63.5838515,24.0290012 C63.5838515,24.0290012 63.7165944,24.0290012 63.7165944,23.8927309 C63.7165944,23.8927309 63.8493374,23.7564606 63.8493374,23.7564606 C63.8493374,23.7564606 63.9820803,23.7564606 63.9820803,23.6201903 C63.9820803,23.6201903 64.1148232,23.6201903 64.1148232,23.4839199 C64.1148232,23.4839199 64.1148232,23.4839199 64.2475661,23.4839199 C64.380309,23.3476496 64.380309,23.3476496 64.5130519,23.2113793 C64.5130519,23.2113793 64.5130519,23.2113793 64.5130519,23.2113793 C64.5130519,23.2113793 64.5130519,23.2113793 64.5130519,23.2113793 C64.5130519,23.2113793 64.6457948,23.0751089 64.6457948,23.0751089 C64.6457948,23.0751089 64.6457948,23.0751089 64.7785377,22.9388386 C64.7785377,22.9388386 64.7785377,22.9388386 64.7785377,22.9388386 C64.7785377,22.9388386 64.7785377,22.9388386 64.7785377,22.9388386 C64.7785377,22.8025683 64.9112806,22.8025683 64.9112806,22.666298 C64.9112806,22.666298 64.9112806,22.666298 64.9112806,22.666298 C64.9112806,22.666298 64.9112806,22.666298 64.9112806,22.666298 C64.9112806,22.666298 64.9112806,22.5300276 65.0440235,22.5300276 C65.0440235,22.5300276 65.0440235,22.3937573 65.0440235,22.3937573 C65.0440235,22.3937573 65.0440235,22.3937573 65.0440235,22.257487 C65.0440235,22.257487 65.0440235,22.257487 65.0440235,22.257487 C65.0440235,22.1212167 65.0440235,22.1212167 65.0440235,21.9849463 C65.0440235,21.9849463 65.0440235,21.9849463 65.0440235,21.9849463 L65.0440235,11.492131 Z"/>
      <path fill="#1F1F89" d="M62.1236796,9.03926512 C65.9732238,10.4019684 65.8404809,12.5822937 61.9909367,13.9449969 L39.2918999,21.9849463 C35.4423557,23.3476496 29.2034391,23.3476496 25.3538949,21.9849463 L3.05308682,14.0812673 C-0.796457431,12.718564 -0.663714526,10.5382387 3.18582972,9.17553545 L25.8848665,1.13558607 C29.7344107,-0.227117214 35.9733273,-0.227117214 39.8228715,1.13558607 L62.1236796,9.03926512 Z"/>
    </g>
  </g>
</svg>
