<svg xmlns="http://www.w3.org/2000/svg" xmlns:xlink="http://www.w3.org/1999/xlink" viewBox="0 0 240 215"><defs><path id="7hfia" d="M62.14 490.68l-.68 5.86-4.07 10.65 3.75 1.14 2.88-11.1.38-6.3z"/><path id="7hfib" d="M53.45 518.91l1.81 18.6-.62 16.31h6.32l.3-1.2-4.3-.62 2.3-14.44 2.07-17.96z"/><path id="7hfid" d="M51.38 518.72l-1.44 15.82-9.63 12.85 1.13 6.05h2.87l-1.69-1.26-.3-3.9 9.19-10.4 8.31-18.66z"/><path id="7hfie" d="M64.4 490.93l-.13-5.86-1.2-.19-.93 5.8z"/><path id="7hfif" d="M52.94 499.13c-.43 2.14-.43 5.42 2.76 5.92a4.58 4.58 0 0 0 5.5-3.66c.44-2.14-.31-4.85-3.56-5.29-2.2-.31-4.32 1.26-4.7 3.03z"/><path id="7hfig" d="M55.26 504.86c-2.26-.63-3.13-2.84-2.82-5.05a4.42 4.42 0 0 1 5.2-3.71c.12 0 .24.06.37.12.06.32 0 .7-.06.95a3.71 3.71 0 0 1-2.38 2.27c0-.07-.69 4.72-.31 5.42z"/><path id="7hfih" d="M55.01 499.75c-.3-.07-.62.06-.93.19-.94.5-.63 1.89.18 2.33.25.12.57.19.88.25.25 0 .5 0 .75-.13.19-.12.38-.37.38-.63.06-.25 0-.5-.07-.75-.12-.5-.62-1.14-1.19-1.26z"/><path id="7hfii" d="M58.45 498.5c.31.75 1 1.25 1.56 1 .56-.19.81-1 .56-1.83-.3-.75-1-1.26-1.56-1-.56.18-.81 1-.56 1.82z"/><path id="7hfij" d="M62.45 484.24c0 .76.56 1.33 1.31 1.33s1.32-.57 1.32-1.33c0-.75-.57-1.32-1.32-1.32-.75 0-1.31.57-1.31 1.32z"/><path id="7hfik" d="M68.64 493.2l-2 .7a16.51 16.51 0 0 1-3.94 6.3l-3.75 3.65-4.63 3.15-3.44 12.86 10.76 1 .37-14.11 4-5.04a16.45 16.45 0 0 0 3.26-7.12z"/><path id="7hfil" d="M73.7 461.18H58.77a4.64 4.64 0 0 0-4.63 4.66v15.07a4.64 4.64 0 0 0 4.63 4.66H73.7a4.64 4.64 0 0 0 4.63-4.66v-15.07a4.64 4.64 0 0 0-4.63-4.66z"/><path id="7hfim" d="M69.02 485.13c0 .76.56 1.33 1.31 1.33s1.32-.57 1.32-1.33c0-.75-.57-1.32-1.32-1.32-.68 0-1.31.57-1.31 1.32z"/><path id="7hfin" d="M66.39 494.52l2.69.94 2.13-9.7-1.57-.38z"/><path id="7hfio" d="M72.09 470.32c0 3.4-6.13 12.47-6.13 12.47s-6.13-9.07-6.13-12.47c0-3.4 2.75-6.18 6.13-6.18a6.16 6.16 0 0 1 6.13 6.18z"/><path id="7hfip" d="M68.9 469.81a2.95 2.95 0 0 1-2.94 2.96 2.95 2.95 0 0 1-2.94-2.96 2.95 2.95 0 0 1 2.94-2.96 2.95 2.95 0 0 1 2.94 2.96z"/><path id="7hfiq" d="M191.49 372.2h-52.54a5.4 5.4 0 0 0-5.38 5.42v126.54a5.4 5.4 0 0 0 5.38 5.42h52.54a5.4 5.4 0 0 0 5.38-5.42V377.62a5.36 5.36 0 0 0-5.38-5.42z"/><path id="7hfir" d="M191.49 372.2h-52.54a5.4 5.4 0 0 0-5.38 5.42v5.48h63.3v-5.48a5.36 5.36 0 0 0-5.38-5.42z"/><path id="7hfis" d="M133.63 497.29v6.93a5.4 5.4 0 0 0 5.38 5.42h52.54a5.4 5.4 0 0 0 5.38-5.42v-6.93z"/><path id="7hfit" d="M186.92 386.82h-14.95a4.64 4.64 0 0 0-4.63 4.66v15.07a4.64 4.64 0 0 0 4.63 4.66h14.95a4.64 4.64 0 0 0 4.63-4.66v-15.07a4.64 4.64 0 0 0-4.63-4.66z"/><path id="7hfiu" d="M186.92 460.87h-14.95a4.64 4.64 0 0 0-4.63 4.66v15.07a4.64 4.64 0 0 0 4.63 4.66h14.95a4.64 4.64 0 0 0 4.63-4.66v-15.07a4.64 4.64 0 0 0-4.63-4.66z"/><path id="7hfiv" d="M158.34 460.87h-14.95a4.64 4.64 0 0 0-4.63 4.66v15.07a4.64 4.64 0 0 0 4.63 4.66h14.95a4.64 4.64 0 0 0 4.63-4.66v-15.07a4.64 4.64 0 0 0-4.63-4.66z"/><path id="7hfiw" d="M133.32 510.21h68.24"/><path id="7hfix" d="M220.71 512.92l-8.37-50.36.62-.1 8.37 50.35z"/><path id="7hfiy" d="M205.45 512.93l-8.37-50.36.62-.1 8.37 50.35z"/><path id="7hfiz" d="M199.18 473.53v-.63h15.39v.63z"/><path id="7hfiA" d="M200.24 480.28v-.63h15.39v.63z"/><path id="7hfiB" d="M201.37 486.96v-.63h15.39v.63z"/><path id="7hfiC" d="M202.43 493.7v-.63h15.39v.63z"/><path id="7hfiD" d="M203.56 500.44v-.63h15.39v.63z"/><path id="7hfiE" d="M204.62 507.12v-.63h15.39v.63z"/><path id="7hfiF" d="M189.17 512.6l-.62-.11 8.32-49.97.62.1z"/><path id="7hfiG" d="M204.42 512.57l-.62-.1 8.32-49.97.62.1z"/><path id="7hfiH" d="M195.05 473.53v-.63h15.39v.63z"/><path id="7hfiI" d="M193.99 480.28v-.63h15.39v.63z"/><path id="7hfiJ" d="M192.86 486.96v-.63h15.39v.63z"/><path id="7hfiK" d="M191.8 493.7v-.63h15.39v.63z"/><path id="7hfiL" d="M190.67 500.44v-.63h15.39v.63z"/><path id="7hfiM" d="M189.61 507.12v-.63H205v.63z"/><path id="7hfiN" d="M195.74 463.64v-1.89h18.76v1.89z"/><path id="7hfiO" d="M230.9 453.24l-1.88-19.03-2.38-20.36 1.88-.25 4.19 19.28 6.56.5 6.82-19.53 1.82.25-4.95 20.86.25 17.78z"/><path id="7hfiP" d="M233.2 427.22c-.5 1.82.32 4.72 2.13 5.23 1.82.5 3.94-1.64 4.44-3.47a3.44 3.44 0 0 0-2.37-4.22 3.5 3.5 0 0 0-4.2 2.46z"/><path id="7hfiQ" d="M235.65 426.2c-.38-.12-.88-.37-1.07-.69 0-.06 0-.06-.06-.13.81-.56 1.88-.81 2.88-.56 1.81.5 2.87 2.4 2.37 4.22a5.32 5.32 0 0 1-2.87 3.28c0-.38.12-.76.18-1.07.38-1.45.82-2.9 1.26-4.29-.94-.19-1.82-.44-2.7-.76z"/><path id="7hfiR" d="M237.7 428.98a.87.87 0 0 1 .88-.12c.06 0 .13.06.19.12.12.13.19.32.19.5-.07.51-.5.95-1 1.14-.13.06-.32.06-.44.06-.13 0-.32-.12-.38-.19-.31-.5.25-1.26.56-1.5z"/><path id="7hfiS" d="M243.22 452.74l-1.82 29.18h-2l-1.75-29-1.75.13-1.13 29.56h-1.56l-2.31-29.37-.38-3.59 12.63.13z"/><path id="7hfiT" d="M241.4 481.92l4.38.5-.13.7h-6.5l.25-1.2z"/><path id="7hfiU" d="M234.77 482.61v.82l-6.07.25v-.75l4.5-.32z"/><path id="7hfiV" d="M236.46 429.73c-1.13.13-2-1-3.07-1.13h-.18l-.2.19c-.12.25-.24.57-.43.82-.12.25-.31.57-.37.88-.07.38 0 .76.06 1.13.06.32.12.57.25.89.25.5.69.82 1.19 1 .5.2 1.06.2 1.56.2.38-.07.75-.13 1.06-.26a2 2 0 0 0 1-2.01c0-.2-.06-.38-.06-.57 0-.19.13-.38.19-.57.12-.19.81-1.13.25-1.13-.19 0-.44.31-.56.38l-.7.18z"/><path id="7hfiW" d="M243.71 420.6h2.69l1.5-6.49-1.81-.25z"/><path id="7hfiX" d="M228.52 413.6l-1.88.25.81 6.75h2.57z"/><path id="7hfiY" d="M273.36 393H212.2c-3 0-5.44 2.46-5.44 5.48v9.2a5.47 5.47 0 0 0 5.44 5.49h61.17c3 0 5.44-2.46 5.44-5.49v-9.2a5.47 5.47 0 0 0-5.44-5.48z"/><path id="7hfiZ" d="M271.54 393h-61.17c-3 0-5.44 2.46-5.44 5.48v9.2a5.47 5.47 0 0 0 5.44 5.49h61.17c3 0 5.44-2.46 5.44-5.49v-9.2a5.47 5.47 0 0 0-5.44-5.48z"/><path id="7hfiaa" d="M265.66 398.47a3.71 3.71 0 0 1 0 7.44 3.71 3.71 0 0 1 0-7.44zm6.76 10.02l-2.94-3.08a5.04 5.04 0 0 0-3.82-8.26 5.04 5.04 0 1 0 2.88 9.2l2.94 3.09c.13.12.31.19.44.19.19 0 .31-.07.44-.2.3-.3.3-.68.06-.94z"/><path id="7hfiab" d="M210.88 483.74h65.05"/><path id="7hfiac" d="M228.95 412.79c0 .88-.7 1.57-1.57 1.57-.87 0-1.56-.7-1.56-1.57 0-.89.69-1.58 1.56-1.58.82 0 1.57.7 1.57 1.58z"/><path id="7hfiad" d="M247.9 413.23c0 .88-.68 1.57-1.56 1.57-.87 0-1.56-.7-1.56-1.57 0-.89.69-1.58 1.56-1.58.88 0 1.57.7 1.57 1.58z"/><path id="7hfiae" d="M171.16 417.89c.32.88-.12 1.89-1 2.27-.87.38-1.87-.13-2.25-1.01-.31-.88.13-1.89 1-2.27.94-.31 1.94.13 2.25 1.01z"/><path id="7hfiaf" d="M165.96 410.32l-14.76-2.58a4.67 4.67 0 0 0-5.38 3.78l-2.56 14.87a4.7 4.7 0 0 0 3.75 5.42l14.76 2.59a4.67 4.67 0 0 0 5.38-3.78l2.57-14.88a4.7 4.7 0 0 0-3.76-5.42z"/><path id="7hfiag" d="M94.6 494.58h10.83c.25 0 .5-.12.56-.37.12-.26.06-.5-.13-.7l-10.44-11.34-.94.88 9.44 10.27h-9.38v1.26z"/><path id="7hfiah" d="M170.79 418.08l4.63 1.83 13.57 1.32-4.57 3.21-9.5-2.33-4.82-2.2z"/><path id="7hfiai" d="M187.1 416a3.78 3.78 0 1 1-7.07 2.71 3.78 3.78 0 1 1 7.07-2.71z"/><path id="7hfiaj" d="M201.3 431.82l-1.56 15.94.56 14h-5.37l-.32-1.08 3.7-.5-1.95-12.35-1.81-15.44z"/><path id="7hfial" d="M168.6 419.72c2 .82 8.63 2.58 10.76 2.4l4.44-.38 4.63-1.2 10.13 4.98-5.38 7.56-9.26-7.75-5.44-.25c-2.25-.13-8.63-2.52-10.57-3.72z"/><path id="7hfiam" d="M187.74 415.06c-.82-1.83-3.94-2.27-5.76-1.4-.12.07-.18.13-.31.2 0 .31.13.57.25.82.5.88 1.5 1.45 2.5 1.51 0 0 .06.19.19.5.12-.12.25-.25.37-.31.26-.13.57-.13.88 0 .94.25.88 1.57.25 2.08-.19.19-.44.31-.69.38h-.12c-.06 1.26 0 1.38.25 1.76 1.56-1.07 3.19-3.21 2.19-5.54z"/><path id="7hfian" d="M217.88 429.74l-9.07 3.97-10.44-8.13-5.38 7.44 15.82 4.91 9.32-6.36 2 2.27.7-.7z"/><path id="7hfiao" d="M169.15 419.65c.32.88-.12 1.89-1 2.27a1.8 1.8 0 0 1-2.25-1.01c-.31-.88.13-1.89 1-2.27.94-.31 1.94.13 2.25 1.01z"/><path id="7hfiap" d="M105.05 376.99h-9.76v121.44h9.76zm-11.01-1.26h12.26v123.96H94.04z"/><path id="7hfiaq" d="M108 493.02v11.28H92.43v-11.28z"/><path id="7hfiar" d="M94.6 448.01h10.83c.25 0 .5-.12.56-.37.06-.26.06-.5-.13-.7L95.42 435.6l-.94.88 9.44 10.27h-9.38v1.26z"/><path id="7hfias" d="M94.6 459.6h10.83c.25 0 .5-.12.56-.37.12-.26.06-.5-.13-.7L95.42 447.2l-.94.88 9.44 10.27h-9.38v1.26z"/><path id="7hfiat" d="M94.6 471.26h10.83c.25 0 .5-.12.56-.37.12-.26.06-.5-.13-.7l-10.44-11.34-.94.88 9.44 10.27h-9.38v1.26z"/><path id="7hfiau" d="M94.6 482.92h10.83c.25 0 .5-.12.56-.37.06-.26.06-.5-.13-.7l-10.44-11.34-.94.88 9.44 10.27h-9.38v1.26z"/><path id="7hfiav" d="M94.6 436.6h10.83c.25 0 .5-.12.56-.37.12-.26.06-.5-.13-.7L95.42 424.2l-.94.88 9.44 10.27h-9.38v1.26z"/><path id="7hfiaw" d="M94.6 425.26h10.83c.25 0 .5-.12.56-.37.12-.26.06-.5-.13-.7l-10.44-11.34-.94.88 9.44 10.27h-9.38v1.26z"/><path id="7hfiax" d="M94.6 413.85h10.83c.25 0 .5-.12.56-.37.12-.26.06-.5-.13-.7l-10.44-11.34-.94.88 9.44 10.27h-9.38v1.26z"/><path id="7hfiay" d="M94.6 402.51h10.83c.25 0 .5-.12.56-.37.12-.26.06-.5-.13-.7L95.42 390.1l-.94.88 9.44 10.27h-9.38v1.26z"/><path id="7hfiaz" d="M94.6 391.1h10.83c.25 0 .5-.12.56-.37.06-.26.06-.5-.13-.7L95.42 378.7l-.94.88 9.44 10.27h-9.38v1.26z"/><path id="7hfiaA" d="M94.6 379.76h10.83c.25 0 .5-.12.56-.37.12-.26.06-.5-.13-.7l-10.44-11.34-.94.88 9.44 10.27h-9.38v1.26z"/><path id="7hfiaB" d="M113.89 363.19v16.83H94.06v-16.83z"/><path id="7hfiaC" d="M84.1 363.14v9.71H64.27v-9.71z"/><path id="7hfiaD" d="M64.58 364.38h98c.38 0 .63-.25.63-.63s-.25-.63-.62-.63H64.58c-.38 0-.63.25-.63.63s.31.63.63.63z"/><path id="7hfiaE" d="M157.4 407.68v-40.96h.63v40.96z"/><path id="7hfiaF" d="M113.32 502.24v4.98H87.11v-4.98z"/><path id="7hfiaG" d="M103.93 364.2c.06 0 .18 0 .25-.07l5.25-5.3h47.91l4.94 4.99a.3.3 0 0 0 .44 0 .3.3 0 0 0 0-.45l-5.07-5.1h-48.4l-5.39 5.42a.3.3 0 0 0 0 .44c-.12.06 0 .06.07.06z"/><path id="7hfiaH" d="M64.2 364.2c.13 0 .25-.07.25-.2l5.26-10.08h12.7l4.94 9.77c.06.12.25.19.43.12.13-.06.2-.25.13-.44l-5.07-10.08h-13.5l-5.39 10.4c-.06.12 0 .31.13.44 0 .06.06.06.12.06z"/><path id="7hfiaI" d="M155.4 366.71a2.32 2.32 0 1 0 4.63 0 2.32 2.32 0 1 0-4.63 0z"/><path id="7hfiaJ" d="M144.14 358.84c.13 0 .25-.06.31-.25.07-.19-.06-.31-.18-.38l-46.29-14.24h-.19l-21.95 9.33c-.19.06-.25.25-.19.44.07.19.25.25.44.19l21.83-9.27 46.22 14.18c-.06 0 0 0 0 0z"/><path id="7hfiaK" d="M105.1 364.26c.07 0 .13 0 .26-.06.3-.13.5-.5.37-.82l-7.32-19.35c-.12-.25-.37-.44-.62-.38-.25 0-.5.25-.57.5L93.47 363c-.06.31.13.7.5.76.31.06.69-.13.75-.5l3.32-16.7 6.5 17.26c.13.25.32.44.57.44z"/><path id="7hfiaL" d="M96.6 344.28c0 .7.56 1.26 1.25 1.26a1.26 1.26 0 0 0 0-2.52c-.69 0-1.25.57-1.25 1.26z"/><path id="7hfiaM" d="M150.77 364.26c.06 0 .13 0 .19-.06l6.13-4.98v4.66c0 .2.12.32.31.32s.31-.13.31-.32v-5.35a.35.35 0 0 0-.18-.32c-.13-.06-.25-.06-.32.06l-6.63 5.42a.39.39 0 0 0-.06.45c.06.12.13.12.25.12z"/><path id="7hfiaN" d="M144.83 364.26c.06 0 .13 0 .19-.06l6.13-4.98v4.66c0 .2.12.32.31.32s.31-.13.31-.32v-5.35a.35.35 0 0 0-.18-.32c-.13-.06-.25-.06-.32.06l-6.63 5.42a.39.39 0 0 0-.06.45c.06.12.13.12.25.12z"/><path id="7hfiaO" d="M138.88 364.26c.06 0 .13 0 .19-.06l6.13-4.98v4.66c0 .2.12.32.31.32s.31-.13.31-.32v-5.35a.35.35 0 0 0-.18-.32c-.13-.06-.25-.06-.32.06l-6.63 5.42a.39.39 0 0 0-.06.45c.06.12.13.12.25.12z"/><path id="7hfiaP" d="M132.94 364.26c.06 0 .13 0 .19-.06l6.13-4.98v4.66c0 .2.12.32.31.32s.31-.13.31-.32v-5.35a.35.35 0 0 0-.18-.32c-.13-.06-.25-.06-.32.06l-6.63 5.42a.39.39 0 0 0-.06.45c.06.12.13.12.25.12z"/><path id="7hfiaQ" d="M127 364.26c.06 0 .13 0 .19-.06l6.13-4.98v4.66c0 .2.12.32.31.32s.31-.13.31-.32v-5.35a.35.35 0 0 0-.18-.32c-.13-.06-.25-.06-.32.06l-6.63 5.42a.39.39 0 0 0-.06.45c.06.12.13.12.25.12z"/><path id="7hfiaR" d="M121.06 364.26c.06 0 .13 0 .19-.06l6.13-4.98v4.66c0 .2.12.32.31.32s.31-.13.31-.32v-5.35a.35.35 0 0 0-.18-.32c-.13-.06-.25-.06-.32.06l-6.63 5.42a.39.39 0 0 0-.06.45c.06.12.13.12.25.12z"/><path id="7hfiaS" d="M115.12 364.26c.06 0 .13 0 .19-.06l6.13-4.98v4.66c0 .2.12.32.31.32s.31-.13.31-.32v-5.35a.35.35 0 0 0-.18-.32c-.13-.06-.25-.06-.32.06l-6.63 5.42a.39.39 0 0 0-.06.45c.06.12.19.12.25.12z"/><path id="7hfiaT" d="M109.17 364.26c.06 0 .13 0 .19-.06l6.13-4.98v4.66c0 .2.12.32.31.32s.31-.13.31-.32v-5.35a.35.35 0 0 0-.18-.32c-.13-.06-.25-.06-.32.06l-6.63 5.42a.39.39 0 0 0-.06.45c.06.12.19.12.25.12z"/><path id="7hfiaU" d="M74.08 364.26c.07 0 .2-.07.26-.13l8-9.52v9.2c0 .2.13.32.31.32.2 0 .32-.13.32-.32v-10.08a.35.35 0 0 0-.2-.31c-.12-.07-.24 0-.37.06l-8.5 10.15c-.13.12-.13.31.06.44-.06.19.06.19.12.19z"/><path id="7hfiaV" d="M67.96 364.26c.13 0 .19-.06.25-.12l6.07-9.27v9.01c0 .2.12.32.31.32s.31-.13.31-.32V353.8c0-.13-.06-.25-.25-.32-.12-.06-.25 0-.37.13l-6.63 10.15c-.13.12-.06.31.06.44.13.06.19.06.25.06z"/><path id="7hfiaW" d="M155.77 408.5c0 1.07.88 1.95 1.94 1.95a1.96 1.96 0 0 0 0-3.9c-1.06-.07-1.94.81-1.94 1.95z"/><path id="7hfiaX" d="M75.78 507.69h47.54"/><path id="7hfiaY" d="M273.67 528.05l-.69-9.83 1.07-7.31 3.75-21.43-1.82-.25-4.12 18.9-6.45.51-6.63-19.16-1.81.25 4.88 20.49 1.69 7.81-.19 9.52z"/><path id="7hfiaZ" d="M264.8 501.64l-.63 5.67 3.82.32 2.37-5.99z"/><path id="7hfiba" d="M271.86 503.72c0 2.14-1.76 3.9-3.88 3.9a3.91 3.91 0 0 1 0-7.81 3.91 3.91 0 0 1 3.88 3.9z"/><path id="7hfibb" d="M275.1 465.59h-14.94a4.64 4.64 0 0 0-4.63 4.66v15.07a4.64 4.64 0 0 0 4.63 4.66h14.95a4.64 4.64 0 0 0 4.63-4.66v-15.07a4.64 4.64 0 0 0-4.63-4.66z"/><path id="7hfibc" d="M269.42 503.47c.06.07.19.07.25.07s.13-.13.19-.2c.19-.24.62-.24.87 0 .25.26.25.64.13.95-.19.32-.5.44-.81.5a7.61 7.61 0 0 0-.25 2.4c.5.07 1.06.07 1.56.13.12 0 .19 0 .31-.06a.48.48 0 0 0 .13-.26c.19-.94.31-1.82.31-2.77 0-.88-.12-1.83-.56-2.65-.57-.94-2.88-2.45-4-1.64-1.32.89 1 3.1 1.87 3.53z"/><path id="7hfibd" d="M266.23 502.15a3.93 3.93 0 0 1-2.44 1.2c-.07-1.01.37-2.08 1.18-2.71.44-.38 1.88-1.2 2.5-.82.63.38-.8 1.89-1.24 2.33z"/><path id="7hfibe" d="M273.3 521.05l-9.82-.44-7.57 34.1-3.5-2.15 4.25 5.23 10.07-28.1-.12 12.72 6.82 9.14.43 3.28.2 1.39 1.18-.13.25-5.04-5.32-8.64 3.76-14.36z"/><path id="7hfibf" d="M273.92 498.75l2.13.75 1.75-10.02-1.82-.25z"/><path id="7hfibg" d="M261.54 497.42l-2.5.95-2.07-8.64 1.81-.25z"/><path id="7hfibh" d="M269.86 508.32l-1.81 3.28-.94-3.1z"/><path id="7hfibi" d="M256.16 488.48c0 .88.69 1.57 1.56 1.57.88 0 1.57-.7 1.57-1.57 0-.89-.7-1.58-1.57-1.58-.87 0-1.56.7-1.56 1.58z"/><path id="7hfibj" d="M275.49 488.73c0 .88.69 1.57 1.56 1.57.88 0 1.57-.7 1.57-1.57 0-.89-.7-1.58-1.57-1.58a1.6 1.6 0 0 0-1.56 1.58z"/><path id="7hfibk" d="M263.98 537.37l2.37-6.61.25-2.08-3.13-8.07-3.31 14.81c1.44.76 2.81 1.45 3.82 1.95z"/><path id="7hfibm" d="M270.73 473.66a3.22 3.22 0 0 1-3.19 3.22 3.22 3.22 0 0 1 0-6.43 3.22 3.22 0 0 1 3.19 3.21z"/><path id="7hfibn" d="M273.8 483.37a6.07 6.07 0 0 0-12.14 0z"/><path id="7hfibo" d="M179.73 512.73h47.54"/><path id="7hfibp" d="M130.63 434.71h-14.95a4.64 4.64 0 0 0-4.63 4.66v15.07a4.64 4.64 0 0 0 4.63 4.66h14.95a4.64 4.64 0 0 0 4.63-4.66v-15.07a4.64 4.64 0 0 0-4.63-4.66z"/><path id="7hfibq" d="M116.87 498.75l-1.88-18.9-2.31-20.24 1.81-.25 4.2 19.16 6.5.57 6.75-19.48 1.82.25-4.94 20.8.25 17.58z"/><path id="7hfibr" d="M115.56 458.6c0 .88-.7 1.57-1.57 1.57-.87 0-1.56-.7-1.56-1.57 0-.89.69-1.58 1.56-1.58.88 0 1.57.7 1.57 1.58z"/><path id="7hfibs" d="M133.76 459.1c0 .89-.7 1.58-1.57 1.58-.87 0-1.56-.7-1.56-1.57 0-.89.69-1.58 1.56-1.58.88 0 1.57.7 1.57 1.58z"/><path id="7hfibt" d="M126.07 472.78a4 4 0 1 1-8.01 0 4 4 0 0 1 4-4.03c2.2 0 4 1.83 4 4.03z"/><path id="7hfibu" d="M126.07 473.41a4 4 0 1 1-8.01 0 4 4 0 0 1 4-4.03c2.2 0 4 1.83 4 4.03z"/><path id="7hfibv" d="M129.06 498.24l-1.75 28.99h-2l-1.69-28.8-1.81.12-1.07 29.37-1.56-.06-2.31-29.12-.38-3.59 12.57.19z"/><path id="7hfibw" d="M127.3 527.23l4.39.5-.19.63h-6.38l.19-1.13z"/><path id="7hfibx" d="M120.74 527.92v.82l-6 .25v-.75l4.44-.38z"/><path id="7hfiby" d="M107.8 528.8h35.03"/><path id="7hfibz" d="M176.17 535.74v.19c0 .06 0 .06-.07.13 0 .06-.06.06-.12.12l-.13.13c-.06.06-.12.06-.19.12 0 0-.06 0-.06.07-.06.06-.12.06-.19.12 0 0-.06 0-.06.07-.06 0-.12.06-.19.06 0 0-.06 0-.06.06-.12.06-.19.06-.31.13l-10.7 3.72a.56.56 0 0 1-.3.06c-.2.06-.32.06-.51.12-.19.07-.44.07-.62.13-.13 0-.26.06-.38.06-.19 0-.31.07-.5.07h-1.81c-.32 0-.57-.07-.82-.07-.25-.06-.5-.06-.75-.12-.25-.07-.5-.13-.69-.2l-10.5-3.65c-.07 0-.13-.06-.2-.06-.05 0-.12-.06-.12-.06-.06 0-.06-.07-.12-.07s-.06-.06-.13-.06c-.06 0-.06-.06-.12-.06s-.06-.06-.13-.06c-.06 0-.06-.07-.06-.07-.06 0-.06-.06-.12-.06l-.07-.06-.06-.07-.06-.06s0-.06-.06-.06c0 0 0-.07-.07-.07-.06-.06-.06-.12-.06-.25l.06 4.73c0 .06 0 .12.07.25 0 0 0 .06.06.06 0 0 0 .07.06.07l.06.06.07.06.06.07.06.06c.06 0 .06.06.13.06l.06.06c.06 0 .06.07.12.07 0 0 .07 0 .13.06.06 0 .12.06.19.06.06 0 .06 0 .12.07.06 0 .13.06.19.06l10.5 3.66c.13.06.26.06.38.12.13 0 .19.06.31.06.07 0 .2.07.25.07.07 0 .2.06.32.06.06 0 .18 0 .25.06.06 0 .19 0 .25.07h2.5c.12 0 .19 0 .31-.07.13 0 .25 0 .38-.06h.12c.13 0 .32-.06.44-.06h.06c.2-.07.32-.07.5-.13.07 0 .2-.06.25-.06h.07l10.7-3.72c.12-.06.18-.06.3-.13 0 0 .07 0 .07-.06.06 0 .12-.06.18-.06h.07s.06 0 .06-.07l.06-.06s.06 0 .06-.06c0 0 .07 0 .07-.06h.06l.12-.13.07-.06.06-.07c0-.06.06-.06.06-.12 0 0 0-.07.07-.07v-.06-.06-.13z"/><path id="7hfibA" d="M174.78 534.67c1.82.63 1.75 1.64-.06 2.27l-10.7 3.71c-1.8.63-4.75.63-6.56 0L146.95 537c-1.81-.63-1.75-1.64.06-2.27l10.7-3.72c1.81-.63 4.75-.63 6.56 0z"/><path id="7hfibB" d="M217.5 531.7v.19c0 .06 0 .06-.06.13 0 .06-.06.06-.12.12l-.13.13c-.06.06-.12.06-.19.12 0 0-.06 0-.06.07-.06.06-.12.06-.19.12 0 0-.06 0-.06.07-.06 0-.12.06-.19.06 0 0-.06 0-.06.06-.12.06-.19.06-.31.13l-10.7 3.72a.56.56 0 0 1-.3.06c-.2.06-.32.06-.51.12-.19.07-.44.07-.62.13-.13 0-.26.06-.38.06-.19 0-.31.07-.5.07h-1.81c-.32 0-.57-.07-.82-.07-.25-.06-.5-.06-.75-.12-.25-.07-.5-.13-.69-.2l-10.5-3.65c-.07 0-.13-.06-.2-.06-.05 0-.12-.06-.12-.06-.06 0-.06-.07-.12-.07s-.06-.06-.13-.06c-.06 0-.06-.06-.12-.06s-.06-.06-.13-.06c-.06 0-.06-.07-.06-.07-.06 0-.06-.06-.12-.06l-.07-.06-.06-.07-.06-.06s0-.06-.06-.06c0 0 0-.07-.07-.07-.06-.06-.06-.12-.06-.25l.06 4.73c0 .06 0 .12.07.25 0 0 0 .06.06.06 0 0 0 .07.06.07l.06.06.07.06.06.07.06.06c.06 0 .06.06.13.06l.06.06c.06 0 .06.07.12.07 0 0 .07 0 .13.06.06 0 .12.06.19.06.06 0 .06 0 .12.07.06 0 .13.06.19.06l10.5 3.66c.13.06.26.06.38.12.13 0 .19.06.31.06.07 0 .2.07.25.07.07 0 .2.06.32.06.06 0 .18 0 .25.06.06 0 .19 0 .25.07h2.5c.12 0 .19 0 .31-.07.13 0 .25 0 .38-.06h.12c.13 0 .32-.06.44-.06h.06c.2-.07.32-.07.5-.13.07 0 .2-.06.25-.06h.07l10.7-3.72c.12-.06.18-.06.3-.13 0 0 .07 0 .07-.06.06 0 .12-.06.18-.06h.07s.06 0 .06-.07l.06-.06s.06 0 .06-.06c0 0 .07 0 .07-.06h.06l.12-.13.07-.06.06-.07c0-.06.06-.06.06-.12 0 0 0-.07.07-.07v-.06-.06-.13z"/><path id="7hfibC" d="M216.13 530.57c1.82.63 1.75 1.64-.06 2.27l-10.7 3.71c-1.8.63-4.75.63-6.56 0l-10.51-3.65c-1.81-.63-1.75-1.64.06-2.27l10.7-3.72c1.81-.63 4.75-.63 6.56 0z"/><linearGradient id="7hfic" x1="57.31" x2="58.27" y1="524.59" y2="541.49" gradientUnits="userSpaceOnUse"><stop offset="0" stop-color="#241084"/><stop offset=".99" stop-color="#0a5de2"/></linearGradient><linearGradient id="7hfiak" x1="198.49" x2="195.75" y1="440.5" y2="457.44" gradientUnits="userSpaceOnUse"><stop offset="0" stop-color="#241084"/><stop offset=".99" stop-color="#0a5de2"/></linearGradient><linearGradient id="7hfibl" x1="264.74" x2="259.36" y1="526.43" y2="539.95" gradientUnits="userSpaceOnUse"><stop offset="0" stop-color="#241084" stop-opacity=".8"/><stop offset=".99" stop-color="#0a5de2" stop-opacity="0"/></linearGradient></defs><g><g transform="translate(-40 -343)"><g><g><g><g><use fill="#ffd474" xlink:href="#7hfia"/></g><g><use fill="url(#7hfic)" xlink:href="#7hfib"/></g><g><use fill="#3878ff" xlink:href="#7hfid"/></g><g><use fill="#f76d59" xlink:href="#7hfie"/></g><g><g><use fill="#f76d59" xlink:href="#7hfif"/></g><g><use fill="#1f1f89" xlink:href="#7hfig"/></g><g><use fill="#f76d59" xlink:href="#7hfih"/></g><g><use fill="#f7f5ef" xlink:href="#7hfii"/></g></g><g><use fill="#8e574a" xlink:href="#7hfij"/></g><g><use fill="#ffd474" xlink:href="#7hfik"/></g><g><use fill="#00c0cd" xlink:href="#7hfil"/></g><g><use fill="#f76d59" xlink:href="#7hfim"/></g><g><use fill="#f76d59" xlink:href="#7hfin"/></g><g><use fill="#fff" xlink:href="#7hfio"/></g><g><use fill="#00c0cd" xlink:href="#7hfip"/></g></g><g><g><use fill="#84b4fe" xlink:href="#7hfiq"/></g><g><use fill="#214a81" xlink:href="#7hfir"/></g><g><use fill="#214a81" xlink:href="#7hfis"/></g><g><use fill="#f76d59" xlink:href="#7hfit"/></g><g><use fill="#1f1f89" xlink:href="#7hfiu"/></g><g><use fill="#f76d59" xlink:href="#7hfiv"/></g><g opacity=".5"><use fill="#fff" fill-opacity="0" stroke="#0a5de2" stroke-linecap="round" stroke-miterlimit="50" stroke-width="2" xlink:href="#7hfiw"/></g></g><g><g><g><use fill="#1f1f89" xlink:href="#7hfix"/></g><g><use fill="#1f1f89" xlink:href="#7hfiy"/></g><g><use fill="#1f1f89" xlink:href="#7hfiz"/></g><g><use fill="#1f1f89" xlink:href="#7hfiA"/></g><g><use fill="#1f1f89" xlink:href="#7hfiB"/></g><g><use fill="#1f1f89" xlink:href="#7hfiC"/></g><g><use fill="#1f1f89" xlink:href="#7hfiD"/></g><g><use fill="#1f1f89" xlink:href="#7hfiE"/></g></g><g><g><use fill="#3878ff" xlink:href="#7hfiF"/></g><g><use fill="#3878ff" xlink:href="#7hfiG"/></g><g><use fill="#3878ff" xlink:href="#7hfiH"/></g><g><use fill="#3878ff" xlink:href="#7hfiI"/></g><g><use fill="#3878ff" xlink:href="#7hfiJ"/></g><g><use fill="#3878ff" xlink:href="#7hfiK"/></g><g><use fill="#3878ff" xlink:href="#7hfiL"/></g><g><use fill="#3878ff" xlink:href="#7hfiM"/></g></g><g><use fill="#0a5de2" xlink:href="#7hfiN"/></g></g><g><g><use fill="#ffd474" xlink:href="#7hfiO"/></g><g><use fill="#f76d59" xlink:href="#7hfiP"/></g><g><use fill="#2b159b" xlink:href="#7hfiQ"/></g><g><use fill="#f76d59" xlink:href="#7hfiR"/></g><g><use fill="#3878ff" xlink:href="#7hfiS"/></g><g><use fill="#3878ff" xlink:href="#7hfiT"/></g><g><use fill="#3878ff" xlink:href="#7hfiU"/></g><g><use fill="#2b159b" xlink:href="#7hfiV"/></g><g opacity=".4"><g opacity=".4"><use fill="#afc6f5" xlink:href="#7hfiW"/></g><g opacity=".4"><use fill="#afc6f5" xlink:href="#7hfiX"/></g></g><g><use fill="#3878ff" xlink:href="#7hfiY"/></g><g><use fill="#84b4fe" xlink:href="#7hfiZ"/></g><g><use fill="#fff" xlink:href="#7hfiaa"/></g><g opacity=".5"><use fill="#fff" fill-opacity="0" stroke="#0a5de2" stroke-linecap="round" stroke-miterlimit="50" stroke-width="2" xlink:href="#7hfiab"/></g><g><use fill="#f76d59" xlink:href="#7hfiac"/></g><g><use fill="#f76d59" xlink:href="#7hfiad"/></g></g><g><g><use fill="#afc6f5" xlink:href="#7hfiae"/></g><g><use fill="#ebf5ff" xlink:href="#7hfiaf"/></g><g><use fill="#3878ff" xlink:href="#7hfiag"/></g><g><g><use fill="#d64536" xlink:href="#7hfiah"/></g><g><use fill="#afc6f5" xlink:href="#7hfiai"/></g><g><use fill="url(#7hfiak)" xlink:href="#7hfiaj"/></g><g><use fill="#f76d59" xlink:href="#7hfial"/></g><g><use fill="#1f1f89" xlink:href="#7hfiam"/></g><g><use fill="#3878ff" xlink:href="#7hfian"/></g><g><use fill="#afc6f5" xlink:href="#7hfiao"/></g></g><g><use fill="#3878ff" xlink:href="#7hfiap"/></g><g><use fill="#f7f5ef" xlink:href="#7hfiaq"/></g><g><use fill="#3878ff" xlink:href="#7hfiar"/></g><g><use fill="#3878ff" xlink:href="#7hfias"/></g><g><use fill="#3878ff" xlink:href="#7hfiat"/></g><g><use fill="#3878ff" xlink:href="#7hfiau"/></g><g><use fill="#3878ff" xlink:href="#7hfiav"/></g><g><use fill="#3878ff" xlink:href="#7hfiaw"/></g><g><use fill="#3878ff" xlink:href="#7hfiax"/></g><g><use fill="#3878ff" xlink:href="#7hfiay"/></g><g><use fill="#3878ff" xlink:href="#7hfiaz"/></g><g><use fill="#3878ff" xlink:href="#7hfiaA"/></g><g><use fill="#1f1f89" xlink:href="#7hfiaB"/></g><g><use fill="#1f1f89" xlink:href="#7hfiaC"/></g><g><use fill="#3878ff" xlink:href="#7hfiaD"/></g><g><use fill="#3878ff" xlink:href="#7hfiaE"/></g><g><use fill="#3878ff" xlink:href="#7hfiaF"/></g><g><use fill="#3878ff" xlink:href="#7hfiaG"/></g><g><use fill="#3878ff" xlink:href="#7hfiaH"/></g><g><use fill="#1f1f89" xlink:href="#7hfiaI"/></g><g><use fill="#3878ff" xlink:href="#7hfiaJ"/></g><g><use fill="#3878ff" xlink:href="#7hfiaK"/></g><g><use fill="#bcccfd" xlink:href="#7hfiaL"/></g><g><use fill="#3878ff" xlink:href="#7hfiaM"/></g><g><use fill="#3878ff" xlink:href="#7hfiaN"/></g><g><use fill="#3878ff" xlink:href="#7hfiaO"/></g><g><use fill="#3878ff" xlink:href="#7hfiaP"/></g><g><use fill="#3878ff" xlink:href="#7hfiaQ"/></g><g><use fill="#3878ff" xlink:href="#7hfiaR"/></g><g><use fill="#3878ff" xlink:href="#7hfiaS"/></g><g><use fill="#3878ff" xlink:href="#7hfiaT"/></g><g><use fill="#3878ff" xlink:href="#7hfiaU"/></g><g><use fill="#3878ff" xlink:href="#7hfiaV"/></g><g><use fill="#1f1f89" xlink:href="#7hfiaW"/></g><g opacity=".5"><use fill="#fff" fill-opacity="0" stroke="#0a5de2" stroke-linecap="round" stroke-miterlimit="50" stroke-width="2" xlink:href="#7hfiaX"/></g></g><g><g><use fill="#f76d59" xlink:href="#7hfiaY"/></g><g><use fill="#1f1f89" xlink:href="#7hfiaZ"/></g><g><use fill="#f7f5ef" xlink:href="#7hfiba"/></g><g><use fill="#00c0cd" xlink:href="#7hfibb"/></g><g><use fill="#1f1f89" xlink:href="#7hfibc"/></g><g><use fill="#1f1f89" xlink:href="#7hfibd"/></g><g><use fill="#0a5de2" xlink:href="#7hfibe"/></g><g><use fill="#f7f5ef" xlink:href="#7hfibf"/></g><g><use fill="#f7f5ef" xlink:href="#7hfibg"/></g><g><use fill="#f7f5ef" xlink:href="#7hfibh"/></g><g><use fill="#f7f5ef" xlink:href="#7hfibi"/></g><g><use fill="#f7f5ef" xlink:href="#7hfibj"/></g><g><use fill="url(#7hfibl)" xlink:href="#7hfibk"/></g><g><g><use fill="#f7f5ef" xlink:href="#7hfibm"/></g><g><use fill="#f7f5ef" xlink:href="#7hfibn"/></g></g></g><g opacity=".5"><use fill="#fff" fill-opacity="0" stroke="#0a5de2" stroke-linecap="round" stroke-miterlimit="50" stroke-width="2" xlink:href="#7hfibo"/></g><g><g><use fill="#1f1f89" xlink:href="#7hfibp"/></g><g><use fill="#ffd474" xlink:href="#7hfibq"/></g><g><use fill="#f76d59" xlink:href="#7hfibr"/></g><g><use fill="#f76d59" xlink:href="#7hfibs"/></g><g><use fill="#f76d59" xlink:href="#7hfibt"/></g><g><use fill="#1f1f89" xlink:href="#7hfibu"/></g><g><use fill="#3878ff" xlink:href="#7hfibv"/></g><g><use fill="#3878ff" xlink:href="#7hfibw"/></g><g><use fill="#3878ff" xlink:href="#7hfibx"/></g><g opacity=".5"><use fill="#fff" fill-opacity="0" stroke="#0a5de2" stroke-linecap="round" stroke-miterlimit="50" stroke-width="2" xlink:href="#7hfiby"/></g></g><g><g><use fill="#80392e" xlink:href="#7hfibz"/></g><g><use fill="#f76d59" xlink:href="#7hfibA"/></g></g><g><g><use fill="#214a81" xlink:href="#7hfibB"/></g><g><use fill="#1f1f89" xlink:href="#7hfibC"/></g></g></g></g></g></g></svg>
