<svg xmlns="http://www.w3.org/2000/svg" width="588" height="547" viewBox="0 0 588 547">
  <defs>
    <linearGradient id="hero-app-a" x1="48.963%" x2="61.175%" y1="16.282%" y2="64.688%">
      <stop offset=".325%" stop-color="#241084"/>
      <stop offset="98.96%" stop-color="#0A5DE2"/>
    </linearGradient>
    <linearGradient id="hero-app-b" x1="58.266%" x2="17.801%" y1="28.991%" y2="85.61%">
      <stop offset=".325%" stop-color="#241084"/>
      <stop offset="98.96%" stop-color="#0A5DE2"/>
    </linearGradient>
    <linearGradient id="hero-app-c" x1="70.937%" x2="-12.368%" y1="34.755%" y2="115.397%">
      <stop offset="0%" stop-color="#241084" stop-opacity=".8"/>
      <stop offset="98.96%" stop-color="#0A5DE2" stop-opacity="0"/>
    </linearGradient>
  </defs>
  <g fill="none" fill-rule="evenodd">
    <g fill-rule="nonzero" transform="translate(0 310)">
      <polygon fill="#FFD474" points="55.259 75.319 53.542 90.223 43.395 117.306 52.761 120.19 59.942 91.986 60.879 75.96"/>
      <polygon fill="url(#hero-app-a)" points="33.56 147.113 38.087 194.388 36.526 235.894 52.293 235.894 53.074 232.849 42.302 231.246 48.078 194.548 53.23 148.876"/>
      <polygon fill="#3878FF" points="28.409 146.632 24.818 186.856 .778 219.548 3.588 234.932 10.769 234.932 6.554 231.727 5.774 221.791 28.721 195.35 49.483 147.914"/>
      <polygon fill="#A86C28" points="60.879 75.96 60.567 61.057 57.601 60.576 55.259 75.319"/>
      <g transform="translate(26.907 86.14)">
        <path fill="#A86C28" d="M5.40495091,10.6537109 C4.31221131,16.1023438 4.31221131,24.4355469 12.2735998,25.7175781 C20.2349883,26.9996094 24.918158,21.8714844 26.0108976,16.4228516 C27.1036371,10.9742188 25.2303693,4.08330078 17.1128751,2.96152344 C11.6491772,2.16025391 6.34158485,6.16660156 5.40495091,10.6537109 Z"/>
        <path fill="#1F1F89" d="M9.21398075,25.2368164 C1.99992036,23.4409393 -0.805547563,17.1553694 0.196405268,10.8697995 C1.39874867,3.14752785 10.015543,-1.16257724 16.8288223,0.274124456 C17.2296034,0.274124456 17.6303845,0.453712168 18.0311657,0.63329988 C18.2315562,1.53123844 18.0311657,2.60876471 17.8307751,3.32711556 C16.6284317,6.38010666 13.6225732,8.89433463 10.2159336,9.79227319 C10.2159336,9.61268547 8.01163735,23.2613516 9.21398075,25.2368164 Z"/>
        <path fill="#A86C28" d="M10.5564376,12.25625 C9.77590929,12.0959961 8.995381,12.4165039 8.21485272,12.7370117 C5.87326788,14.019043 6.65379616,17.5446289 8.68316969,18.6664062 C9.30759232,18.9869141 10.0881206,19.147168 10.8686489,19.3074219 C11.4930715,19.3074219 12.1174941,19.3074219 12.7419168,18.9869141 C13.2102337,18.6664062 13.6785507,18.0253906 13.6785507,17.384375 C13.8346564,16.7433594 13.6785507,16.1023437 13.522445,15.4613281 C13.2102337,14.1792969 11.9613885,12.5767578 10.5564376,12.25625 Z"/>
        <path fill="#F7F5EF" d="M19.1422487,9.05117187 C19.922777,10.9742187 21.6399392,12.25625 23.0448901,11.6152344 C24.449841,11.1344727 25.0742636,9.05117187 24.449841,6.96787109 C23.6693127,5.04482422 21.9521505,3.76279297 20.5471996,4.40380859 C19.1422487,4.88457031 18.517826,6.96787109 19.1422487,9.05117187 Z"/>
      </g>
      <path fill="#8E574A" d="M56.039541,58.9734375 C56.039541,60.8964844 57.4444919,62.3387695 59.3177598,62.3387695 C61.1910277,62.3387695 62.5959786,60.8964844 62.5959786,58.9734375 C62.5959786,57.0503906 61.1910277,55.6081055 59.3177598,55.6081055 C57.4444919,55.6081055 56.039541,57.0503906 56.039541,58.9734375 Z"/>
      <path fill="#FFD474" d="M71.494001,81.7294922 L66.49862,83.4922852 C64.4692465,89.5819336 61.034922,95.0305664 56.6639637,99.5176758 L47.2976243,108.812402 L35.7458057,116.825098 L27.1599946,149.516895 L54.0101675,152.080957 L54.9468014,116.184082 L64.9375635,103.36377 C68.9963105,98.0753906 71.8062123,91.9857422 73.0550576,85.2550781 L71.494001,81.7294922 Z"/>
      <path fill="#00C0CD" d="M84.1385592,0.320507812 L46.8293073,0.320507812 C40.4289754,0.320507812 35.2774887,5.60888672 35.2774887,12.1792969 L35.2774887,50.4799805 C35.2774887,57.0503906 40.4289754,62.3387695 46.8293073,62.3387695 L84.1385592,62.3387695 C90.5388911,62.3387695 95.6903778,57.0503906 95.6903778,50.4799805 L95.6903778,12.1792969 C95.6903778,5.60888672 90.5388911,0.320507812 84.1385592,0.320507812 Z"/>
      <polygon fill="#A86C28" points="65.874 85.095 72.587 87.499 77.894 62.82 73.992 61.858"/>
      <path fill="#835622" d="M72.430635,61.2169922 C72.430635,63.1400391 73.8355859,64.5823242 75.7088537,64.5823242 C77.5821216,64.5823242 78.9870725,63.1400391 78.9870725,61.2169922 C78.9870725,59.2939453 77.5821216,57.8516602 75.7088537,57.8516602 C73.9916915,57.8516602 72.430635,59.2939453 72.430635,61.2169922 Z"/>
      <path fill="#FFF" d="M80.0798121,23.5573242 C80.0798121,32.2110352 64.7814578,55.2875977 64.7814578,55.2875977 C64.7814578,55.2875977 49.4831035,32.2110352 49.4831035,23.5573242 C49.4831035,14.9036133 56.3517524,7.85244141 64.7814578,7.85244141 C73.2111632,7.85244141 80.0798121,14.9036133 80.0798121,23.5573242 Z"/>
      <path fill="#00C0CD" d="M72.1184236,22.275293 C72.1184236,26.4418945 68.8402049,29.8072266 64.7814578,29.8072266 C60.7227107,29.8072266 57.4444919,26.4418945 57.4444919,22.275293 C57.4444919,18.1086914 60.7227107,14.7433594 64.7814578,14.7433594 C68.8402049,14.7433594 72.1184236,18.1086914 72.1184236,22.275293 Z"/>
    </g>
    <g transform="translate(221.283 74.251)">
      <path fill="#84B4FE" fill-rule="nonzero" d="M145.802683,0 L14.6739317,0 C7.33696585,0 1.24884525,6.08964844 1.24884525,13.7818359 L1.24884525,335.57168 C1.24884525,343.103613 7.18086019,349.353516 14.6739317,349.353516 L145.802683,349.353516 C153.139649,349.353516 159.22777,343.263867 159.22777,335.57168 L159.22777,13.7818359 C159.22777,6.08964844 153.295755,0 145.802683,0 Z"/>
      <path fill="#214A81" fill-rule="nonzero" d="M145.802683 0L14.6739317 0C7.33696585 0 1.24884525 6.08964844 1.24884525 13.7818359L1.24884525 27.7239258 159.22777 27.7239258 159.22777 13.7818359C159.22777 6.08964844 153.295755 0 145.802683 0zM1.40495091 318.104004L1.40495091 335.731934C1.40495091 343.263867 7.33696585 349.51377 14.8300374 349.51377L145.958789 349.51377C153.295755 349.51377 159.383875 343.424121 159.383875 335.731934L159.383875 318.104004 1.40495091 318.104004z"/>
      <path fill="#F76D59" fill-rule="nonzero" d="M134.40697,37.1789062 L97.0977183,37.1789062 C90.6973864,37.1789062 85.5458997,42.4672852 85.5458997,49.0376953 L85.5458997,87.3383789 C85.5458997,93.9087891 90.6973864,99.197168 97.0977183,99.197168 L134.40697,99.197168 C140.807302,99.197168 145.958789,93.9087891 145.958789,87.3383789 L145.958789,49.0376953 C145.958789,42.4672852 140.807302,37.1789062 134.40697,37.1789062 Z"/>
      <path fill="#1F1F89" fill-rule="nonzero" d="M134.40697,225.477246 L97.0977183,225.477246 C90.6973864,225.477246 85.5458997,230.765625 85.5458997,237.336035 L85.5458997,275.636719 C85.5458997,282.207129 90.6973864,287.495508 97.0977183,287.495508 L134.40697,287.495508 C140.807302,287.495508 145.958789,282.207129 145.958789,275.636719 L145.958789,237.336035 C145.958789,230.765625 140.807302,225.477246 134.40697,225.477246 Z"/>
      <path fill="#F76D59" fill-rule="nonzero" d="M63.0666852,225.477246 L25.7574333,225.477246 C19.3571014,225.477246 14.2056147,230.765625 14.2056147,237.336035 L14.2056147,275.636719 C14.2056147,282.207129 19.3571014,287.495508 25.7574333,287.495508 L63.0666852,287.495508 C69.4670171,287.495508 74.6185038,282.207129 74.6185038,275.636719 L74.6185038,237.336035 C74.6185038,230.765625 69.4670171,225.477246 63.0666852,225.477246 Z"/>
      <path stroke="#0A5DE2" stroke-linecap="round" stroke-width="2" d="M0.624422626,350.956055 L170.935694,350.956055" opacity=".5"/>
    </g>
    <g fill-rule="nonzero" transform="translate(358.656 301.812)">
      <g fill="#1F1F89" transform="translate(21.622 1.603)">
        <rect width="1.561" height="129.811" x="49.298" y="-.329" transform="rotate(-9.439 50.079 64.576)"/>
        <rect width="1.561" height="129.811" x="11.202" y="-.315" transform="rotate(-9.439 11.982 64.59)"/>
        <rect width="38.402" height="1.603" x="6.008" y="26.923"/>
        <rect width="38.402" height="1.603" x="8.662" y="44.07"/>
        <rect width="38.402" height="1.603" x="11.472" y="61.057"/>
        <rect width="38.402" height="1.603" x="14.126" y="78.204"/>
        <rect width="38.402" height="1.603" x="16.936" y="95.351"/>
        <rect width="38.402" height="1.603" x="19.59" y="112.338"/>
      </g>
      <g fill="#3878FF" transform="translate(0 2.887)">
        <rect width="126.44" height="1.602" x="-51.446" y="62.491" transform="rotate(-80.555 11.774 63.292)"/>
        <rect width="126.44" height="1.602" x="-13.403" y="62.43" transform="rotate(-80.555 49.817 63.23)"/>
        <rect width="38.402" height="1.603" x="17.328" y="25.638"/>
        <rect width="38.402" height="1.603" x="14.674" y="42.786"/>
        <rect width="38.402" height="1.603" x="11.864" y="59.773"/>
        <rect width="38.402" height="1.603" x="9.21" y="76.92"/>
        <rect width="38.402" height="1.603" x="6.4" y="94.067"/>
        <rect width="38.402" height="1.603" x="3.747" y="111.054"/>
      </g>
      <rect width="46.832" height="4.808" x="19.045" y=".16" fill="#0A5DE2"/>
    </g>
    <g transform="translate(400.39 127.135)">
      <polygon fill="#FFD474" fill-rule="nonzero" points="65.042 153.203 60.359 104.806 54.427 53.044 59.11 52.403 69.569 101.441 85.96 102.723 102.975 53.044 107.503 53.685 95.17 106.729 95.795 151.921"/>
      <path fill="#F76D59" fill-rule="nonzero" d="M70.8176947,87.0178711 C69.5688495,91.6652344 71.598223,99.0369141 76.125287,100.318945 C80.6523511,101.600977 85.9599434,96.1523437 87.2087886,91.5049805 C88.4576339,86.8576172 85.8038377,82.05 81.2767737,80.7679687 C76.7497097,79.6461914 72.06654,82.3705078 70.8176947,87.0178711 Z"/>
      <path fill="#2B159B" fill-rule="nonzero" d="M76.9058153,84.4538086 C75.9691814,84.1333008 74.7203361,83.4922852 74.2520192,82.6910156 C74.2520192,82.5307617 74.2520192,82.5307617 74.0959135,82.3705078 C76.125287,80.9282227 78.7790832,80.287207 81.2767737,80.9282227 C85.8038377,82.2102539 88.4576339,87.0178711 87.2087886,91.6652344 C86.2721547,95.0305664 83.3061472,98.7164062 80.0279284,99.9984375 C80.0279284,99.0369141 80.3401398,98.0753906 80.4962454,97.2741211 C81.4328793,93.5882812 82.5256189,89.9024414 83.6183585,86.3768555 C81.2767737,85.8960937 79.0912945,85.2550781 76.9058153,84.4538086 Z"/>
      <path fill="#F76D59" fill-rule="nonzero" d="M82.057302,91.5049805 C82.6817246,91.0242187 83.4622529,90.8639648 84.2427812,91.1844727 C84.3988868,91.1844727 84.5549925,91.3447266 84.7110981,91.5049805 C85.0233094,91.8254883 85.1794151,92.30625 85.1794151,92.7870117 C85.0233094,94.069043 83.9305699,95.1908203 82.6817246,95.671582 C82.3695133,95.8318359 81.9011963,95.8318359 81.588985,95.8318359 C81.2767737,95.8318359 80.8084567,95.5113281 80.6523511,95.3510742 C79.8718228,94.069043 81.2767737,92.1459961 82.057302,91.5049805 Z"/>
      <polygon fill="#3878FF" fill-rule="nonzero" points="95.795 151.921 91.268 226.118 86.272 226.118 81.901 152.401 77.53 152.722 74.72 227.881 70.818 227.881 65.042 153.203 64.105 144.068 95.638 144.389"/>
      <polygon fill="#3878FF" fill-rule="nonzero" points="91.268 226.118 102.195 227.4 101.883 229.163 85.648 229.163 86.272 226.118"/>
      <polygon fill="#3878FF" fill-rule="nonzero" points="74.72 227.881 74.72 229.964 59.578 230.605 59.578 228.682 70.818 227.881"/>
      <path fill="#2B159B" fill-rule="nonzero" d="M78.9351888,93.4280273 C76.125287,93.7485352 73.9398078,90.8639648 71.2860117,90.543457 C71.129906,90.543457 70.9738004,90.543457 70.8176947,90.543457 C70.6615891,90.7037109 70.5054834,90.8639648 70.3493777,91.0242187 C70.0371664,91.6652344 69.7249551,92.4665039 69.2566381,93.1075195 C68.9444268,93.7485352 68.4761099,94.5498047 68.3200042,95.3510742 C68.1638986,96.3125977 68.3200042,97.2741211 68.4761099,98.2356445 C68.6322155,99.0369141 68.7883212,99.6779297 69.1005325,100.479199 C69.7249551,101.76123 70.8176947,102.5625 72.06654,103.043262 C73.3153852,103.524023 74.7203361,103.524023 75.9691814,103.524023 C76.9058153,103.36377 77.8424493,103.203516 78.6229775,102.883008 C80.3401398,101.921484 81.4328793,99.8381836 81.120668,97.7548828 C81.120668,97.2741211 80.9645624,96.7933594 80.9645624,96.3125977 C80.9645624,95.8318359 81.2767737,95.3510742 81.4328793,94.8703125 C81.7450907,94.3895508 83.4622529,91.9857422 82.057302,91.9857422 C81.588985,91.9857422 80.9645624,92.7870117 80.6523511,92.9472656 C80.1840341,93.1075195 79.5596115,93.2677734 78.9351888,93.4280273 Z"/>
      <g fill="#AFC6F5" fill-rule="nonzero" opacity=".4" transform="translate(54.404 52.35)">
        <polygon points="42.639 17.842 49.352 17.842 53.098 1.335 48.571 .694"/>
        <polygon points="4.705 .053 .022 .694 2.052 17.842 8.452 17.842"/>
      </g>
      <path fill="#3878FF" fill-rule="nonzero" d="M171.037526,0 L18.3661942,0 C10.8731227,0 4.78500206,6.24990234 4.78500206,13.9420898 L4.78500206,37.3391602 C4.78500206,45.0313477 10.8731227,51.28125 18.3661942,51.28125 L171.037526,51.28125 C178.530598,51.28125 184.618718,45.0313477 184.618718,37.3391602 L184.618718,13.9420898 C184.618718,6.24990234 178.530598,0 171.037526,0 Z"/>
      <path fill="#84B4FE" fill-rule="nonzero" d="M166.510462,0 L13.8391301,0 C6.34605862,0 0.25793802,6.24990234 0.25793802,13.9420898 L0.25793802,37.3391602 C0.25793802,45.0313477 6.34605862,51.28125 13.8391301,51.28125 L166.510462,51.28125 C174.003534,51.28125 180.091654,45.0313477 180.091654,37.3391602 L180.091654,13.9420898 C180.091654,6.24990234 174.003534,0 166.510462,0 Z"/>
      <path fill="#FFF" fill-rule="nonzero" d="M168.695941,39.4224609 L161.358975,31.5700195 C163.232243,29.3264648 164.324983,26.4418945 164.324983,23.3970703 C164.324983,16.3458984 158.705179,10.5767578 151.83653,10.5767578 C144.967882,10.5767578 139.348078,16.3458984 139.348078,23.3970703 C139.348078,30.4482422 144.967882,36.2173828 151.83653,36.2173828 C154.334221,36.2173828 156.831911,35.4161133 159.017391,33.9738281 L166.354356,41.8262695 C166.666568,42.1467773 167.134885,42.3070312 167.447096,42.3070312 C167.915413,42.3070312 168.227624,42.1467773 168.539836,41.8262695 C169.320364,41.025 169.320364,40.0634766 168.695941,39.4224609 Z M151.83653,13.9420898 C156.831911,13.9420898 161.046764,18.1086914 161.046764,23.3970703 C161.046764,28.5251953 156.988017,32.8520508 151.83653,32.8520508 C146.841149,32.8520508 142.626297,28.6854492 142.626297,23.3970703 C142.782402,18.1086914 146.841149,13.9420898 151.83653,13.9420898 Z"/>
      <path stroke="#0A5DE2" stroke-linecap="round" stroke-width="2" d="M15.0879754,230.765625 L177.437858,230.765625" opacity=".5"/>
      <path fill="#F76D59" fill-rule="nonzero" d="M60.2025101 50.3197266C60.2025101 52.5632812 58.4853479 54.3260742 56.2998687 54.3260742 54.1143895 54.3260742 52.3972273 52.5632812 52.3972273 50.3197266 52.3972273 48.0761719 54.1143895 46.3133789 56.2998687 46.3133789 58.3292422 46.3133789 60.2025101 48.0761719 60.2025101 50.3197266zM107.502524 51.4415039C107.502524 53.6850586 105.785362 55.4478516 103.599883 55.4478516 101.414403 55.4478516 99.6972411 53.6850586 99.6972411 51.4415039 99.6972411 49.1979492 101.414403 47.4351562 103.599883 47.4351562 105.785362 47.4351562 107.502524 49.1979492 107.502524 51.4415039z"/>
    </g>
    <g transform="translate(48.006)">
      <path fill="#AFC6F5" fill-rule="nonzero" d="M268.345623,190.435059 C269.126152,192.678613 268.033412,195.242676 265.847933,196.204199 C263.662454,197.165723 261.164763,195.883691 260.228129,193.640137 C259.447601,191.396582 260.540341,188.83252 262.72582,187.870996 C265.067405,187.069727 267.565095,188.191504 268.345623,190.435059 Z"/>
      <path fill="#EBF5FF" fill-rule="nonzero" d="M255.388854,171.20459 L218.547919,164.63418 C212.303693,163.512402 206.215572,167.839258 205.122833,174.249414 L198.722501,212.069336 C197.629761,218.479492 201.844614,224.729395 208.08884,225.851172 L244.929775,232.421582 C251.174001,233.543359 257.262122,229.216504 258.354861,222.806348 L264.755193,184.986426 C265.847933,178.57627 261.63308,172.326367 255.388854,171.20459 Z"/>
      <path fill="#3878FF" fill-rule="nonzero" d="M77.2722999,385.464063 L104.278578,385.464063 C104.903001,385.464063 105.527424,385.143555 105.683529,384.502539 C105.995741,383.861523 105.839635,383.220508 105.371318,382.739746 L79.3016735,353.894043 L76.9600886,356.137598 L100.532043,382.258984 L77.1161943,382.258984 L77.1161943,385.464063 L77.2722999,385.464063 Z"/>
      <g fill-rule="nonzero" transform="translate(254.452 178.416)">
        <polygon fill="#D64536" points="12.957 12.5 24.509 17.147 58.384 20.512 46.988 28.685 23.26 22.756 11.24 17.147"/>
        <path fill="#AFC6F5" d="M53.7003458,7.21142578 C55.5736137,12.1792969 53.0759232,17.7881836 48.2366478,19.7112305 C43.3973725,21.6342773 37.9336745,19.0702148 36.0604066,14.1023437 C34.1871388,9.13447266 36.6848293,3.52558594 41.5241046,1.60253906 C46.36338,-0.320507812 51.8270779,2.24355469 53.7003458,7.21142578 Z"/>
        <polygon fill="url(#hero-app-b)" points="89.136 47.435 85.234 87.979 86.639 123.556 73.214 123.556 72.433 120.831 81.643 119.549 76.804 88.14 72.277 48.877"/>
        <path fill="#F76D59" d="M7.49307151,16.6664062 C12.4884525,18.749707 29.0356521,23.2368164 34.3432444,22.7560547 L45.426746,21.7945312 L56.9785646,18.749707 L82.2676809,31.4097656 L68.8425945,50.6402344 L45.7389573,30.9290039 L32.1577652,30.2879883 C26.5379616,29.9674805 10.6151846,23.877832 5.77590929,20.8330078 L7.49307151,16.6664062 Z"/>
        <path fill="#1F1F89" d="M55.2614024,4.80761719 C53.2320288,0.160253906 45.426746,-0.961523437 40.899682,1.28203125 C40.5874707,1.44228516 40.431365,1.60253906 40.1191537,1.76279297 C40.1191537,2.5640625 40.431365,3.20507813 40.7435763,3.84609375 C41.9924216,6.08964844 44.4901121,7.53193359 46.9878026,7.6921875 C46.9878026,7.6921875 47.1439082,8.17294922 47.4561195,8.97421875 C47.7683309,8.65371094 48.0805422,8.33320313 48.3927535,8.17294922 C49.0171761,7.85244141 49.7977044,7.85244141 50.5782327,8.17294922 C52.9198175,8.81396484 52.7637119,12.1792969 51.2026553,13.4613281 C50.7343383,13.9420898 50.1099157,14.2625977 49.4854931,14.4228516 C49.4854931,14.4228516 49.3293874,14.4228516 49.1732818,14.4228516 C49.0171761,17.6279297 49.1732818,17.9484375 49.7977044,18.9099609 C53.7003458,16.1856445 57.7590929,10.7370117 55.2614024,4.80761719 Z"/>
        <polygon fill="#3878FF" points="130.504 42.147 107.869 52.243 81.799 31.57 68.374 50.48 107.869 62.98 131.129 46.794 136.124 52.563 137.841 50.8"/>
        <path fill="#AFC6F5" d="M8.89802241,16.5061523 C9.6785507,18.749707 8.5858111,21.3137695 6.40033191,22.275293 C4.21485272,23.0765625 1.71716222,21.9547852 0.780528282,19.7112305 C-1.88737914e-15,17.4676758 1.09273959,14.9036133 3.27821878,13.9420898 C5.61980363,13.1408203 8.11749413,14.2625977 8.89802241,16.5061523 Z"/>
      </g>
      <path fill="#3878FF" fill-rule="nonzero" d="M75.867349,83.2251953 L106.464058,83.2251953 L106.464058,398.444629 L75.867349,398.444629 L75.867349,83.2251953 Z M103.341945,86.4302734 L78.9894621,86.4302734 L78.9894621,395.239551 L103.341945,395.239551 L103.341945,86.4302734 Z"/>
      <rect width="38.87" height="28.685" x="71.842" y="381.486" fill="#F7F5EF" fill-rule="nonzero" transform="rotate(-180 91.277 395.829)"/>
      <path fill="#3878FF" fill-rule="nonzero" d="M77.2722999,267.036426 L104.278578,267.036426 C104.903001,267.036426 105.527424,266.715918 105.683529,266.074902 C105.839635,265.433887 105.839635,264.792871 105.371318,264.312109 L79.3016735,235.466406 L76.9600886,237.709961 L100.532043,263.831348 L77.1161943,263.831348 L77.1161943,267.036426 L77.2722999,267.036426 Z"/>
      <path fill="#3878FF" fill-rule="nonzero" d="M77.2722999,296.523145 L104.278578,296.523145 C104.903001,296.523145 105.527424,296.202637 105.683529,295.561621 C105.995741,294.920605 105.839635,294.27959 105.371318,293.798828 L79.3016735,264.953125 L76.9600886,267.19668 L100.532043,293.318066 L77.1161943,293.318066 L77.1161943,296.523145 L77.2722999,296.523145 Z"/>
      <path fill="#3878FF" fill-rule="nonzero" d="M77.2722999,326.170117 L104.278578,326.170117 C104.903001,326.170117 105.527424,325.849609 105.683529,325.208594 C105.995741,324.567578 105.839635,323.926563 105.371318,323.445801 L79.3016735,294.600098 L76.9600886,296.843652 L100.532043,322.965039 L77.1161943,322.965039 L77.1161943,326.170117 L77.2722999,326.170117 Z"/>
      <path fill="#3878FF" fill-rule="nonzero" d="M77.2722999 355.81709L104.278578 355.81709C104.903001 355.81709 105.527424 355.496582 105.683529 354.855566 105.839635 354.214551 105.839635 353.573535 105.371318 353.092773L79.3016735 324.24707 76.9600886 326.490625 100.532043 352.612012 77.1161943 352.612012 77.1161943 355.81709 77.2722999 355.81709zM77.2722999 238.030469L104.278578 238.030469C104.903001 238.030469 105.527424 237.709961 105.683529 237.068945 105.995741 236.42793 105.839635 235.786914 105.371318 235.306152L79.3016735 206.460449 76.9600886 208.704004 100.532043 234.825391 77.1161943 234.825391 77.1161943 238.030469 77.2722999 238.030469z"/>
      <path fill="#3878FF" fill-rule="nonzero" d="M77.2722999,209.184766 L104.278578,209.184766 C104.903001,209.184766 105.527424,208.864258 105.683529,208.223242 C105.995741,207.582227 105.839635,206.941211 105.371318,206.460449 L79.3016735,177.614746 L76.9600886,179.858301 L100.532043,205.979688 L77.1161943,205.979688 L77.1161943,209.184766 L77.2722999,209.184766 Z"/>
      <path fill="#3878FF" fill-rule="nonzero" d="M77.2722999,180.178809 L104.278578,180.178809 C104.903001,180.178809 105.527424,179.858301 105.683529,179.217285 C105.995741,178.57627 105.839635,177.935254 105.371318,177.454492 L79.3016735,148.608789 L76.9600886,150.852344 L100.532043,176.97373 L77.1161943,176.97373 L77.1161943,180.178809 L77.2722999,180.178809 Z"/>
      <path fill="#3878FF" fill-rule="nonzero" d="M77.2722999,151.333105 L104.278578,151.333105 C104.903001,151.333105 105.527424,151.012598 105.683529,150.371582 C105.995741,149.730566 105.839635,149.089551 105.371318,148.608789 L79.3016735,119.763086 L76.9600886,122.006641 L100.532043,148.128027 L77.1161943,148.128027 L77.1161943,151.333105 L77.2722999,151.333105 Z"/>
      <path fill="#3878FF" fill-rule="nonzero" d="M77.2722999,122.327148 L104.278578,122.327148 C104.903001,122.327148 105.527424,122.006641 105.683529,121.365625 C105.839635,120.724609 105.839635,120.083594 105.371318,119.602832 L79.3016735,90.7571289 L76.9600886,93.0006836 L100.532043,119.12207 L77.1161943,119.12207 L77.1161943,122.327148 L77.2722999,122.327148 Z"/>
      <path fill="#3878FF" fill-rule="nonzero" d="M77.2722999,93.4814453 L104.278578,93.4814453 C104.903001,93.4814453 105.527424,93.1609375 105.683529,92.5199219 C105.995741,91.8789063 105.839635,91.2378906 105.371318,90.7571289 L79.3016735,61.9114258 L76.9600886,64.1549805 L100.532043,90.2763672 L77.1161943,90.2763672 L77.1161943,93.4814453 L77.2722999,93.4814453 Z"/>
      <rect width="49.485" height="42.788" x="75.931" y="51.342" fill="#1F1F89" fill-rule="nonzero" transform="rotate(-180 100.673 72.736)"/>
      <rect width="49.485" height="24.679" x="1.574" y="51.213" fill="#1F1F89" fill-rule="nonzero" transform="rotate(-180 26.317 63.552)"/>
      <path fill="#3878FF" fill-rule="nonzero" d="M2.34158485,54.3794922 L246.959148,54.3794922 C247.895782,54.3794922 248.520205,53.7384766 248.520205,52.7769531 C248.520205,51.8154297 247.895782,51.1744141 246.959148,51.1744141 L2.34158485,51.1744141 C1.40495091,51.1744141 0.780528282,51.8154297 0.780528282,52.7769531 C0.780528282,53.7384766 1.56105656,54.3794922 2.34158485,54.3794922 Z"/>
      <rect width="1.561" height="104.165" x="234.002" y="60.309" fill="#3878FF" fill-rule="nonzero"/>
      <rect width="65.408" height="12.66" x="58.573" y="404.937" fill="#3878FF" fill-rule="nonzero" transform="rotate(-180 91.277 411.267)"/>
      <path fill="#3878FF" fill-rule="nonzero" d="M100.532043 53.8987305C100.688148 53.8987305 101.00036 53.8987305 101.156465 53.7384766L114.26934 40.2771484 233.846273 40.2771484 246.17862 52.937207C246.490831 53.2577148 246.959148 53.2577148 247.27136 52.937207 247.583571 52.6166992 247.583571 52.1359375 247.27136 51.8154297L234.626802 38.8348633 113.801024 38.8348633 100.375937 52.6166992C100.063726 52.937207 100.063726 53.4179688 100.375937 53.7384766 100.063726 53.8987305 100.375937 53.8987305 100.532043 53.8987305zM1.40495091 53.8987305C1.71716222 53.8987305 2.02937353 53.7384766 2.02937353 53.4179688L15.1422487 27.7773437 46.8316969 27.7773437 59.1640438 52.6166992C59.3201494 52.937207 59.7884664 53.0974609 60.2567834 52.937207 60.5689947 52.7769531 60.7251003 52.2961914 60.5689947 51.8154297L47.9244365 26.1748047 14.2056147 26.1748047.780528282 52.6166992C.624422626 52.937207.780528282 53.4179688 1.09273959 53.7384766 1.09273959 53.8987305 1.24884525 53.8987305 1.40495091 53.8987305z"/>
      <path fill="#1F1F89" fill-rule="nonzero" d="M229.006998,60.3088867 C229.006998,63.5139648 231.504688,66.2382813 234.782907,66.2382813 C237.90502,66.2382813 240.558817,63.6742188 240.558817,60.3088867 C240.558817,57.1038086 238.061126,54.3794922 234.782907,54.3794922 C231.660794,54.3794922 229.006998,56.9435547 229.006998,60.3088867 Z"/>
      <path fill="#3878FF" fill-rule="nonzero" d="M200.90798,40.2771484 C201.220191,40.2771484 201.532402,40.1168945 201.688508,39.6361328 C201.844614,39.1553711 201.532402,38.8348633 201.220191,38.6746094 L85.7020054,2.45722656 C85.5458997,2.45722656 85.3897941,2.45722656 85.2336884,2.45722656 L30.440603,26.1748047 C29.972286,26.3350586 29.8161804,26.8158203 29.972286,27.296582 C30.1283917,27.7773437 30.5967087,27.9375977 31.0650256,27.7773437 L85.5458997,4.22001953 L200.90798,40.2771484 C200.751874,40.2771484 200.90798,40.2771484 200.90798,40.2771484 Z"/>
      <path fill="#3878FF" fill-rule="nonzero" d="M103.49805,54.0589844 C103.654156,54.0589844 103.810262,54.0589844 104.122473,53.8987305 C104.903001,53.5782227 105.371318,52.6166992 105.059107,51.8154297 L86.794745,2.61748047 C86.4825336,1.97646484 85.858111,1.49570313 85.2336884,1.65595703 C84.6092658,1.65595703 83.9848431,2.29697266 83.8287375,2.93798828 L74.4623981,50.8539062 C74.3062924,51.6551758 74.7746094,52.6166992 75.7112434,52.7769531 C76.4917716,52.937207 77.4284056,52.4564453 77.5845112,51.4949219 L85.858111,9.02763672 L102.093099,52.937207 C102.405311,53.5782227 102.873628,54.0589844 103.49805,54.0589844 Z"/>
      <path fill="#BCCCFD" fill-rule="nonzero" d="M82.2676809,3.25849609 C82.2676809,5.02128906 83.6726318,6.46357422 85.3897941,6.46357422 C87.1069563,6.46357422 88.5119072,5.02128906 88.5119072,3.25849609 C88.5119072,1.49570312 87.1069563,0.0534179687 85.3897941,0.0534179687 C83.6726318,0.0534179687 82.2676809,1.49570312 82.2676809,3.25849609 Z"/>
      <path fill="#3878FF" fill-rule="nonzero" d="M217.455179,54.0589844 C217.611285,54.0589844 217.767391,54.0589844 217.923496,53.8987305 L233.221851,41.2386719 L233.221851,53.0974609 C233.221851,53.5782227 233.534062,53.8987305 234.002379,53.8987305 C234.470696,53.8987305 234.782907,53.5782227 234.782907,53.0974609 L234.782907,39.4758789 C234.782907,39.1553711 234.626802,38.8348633 234.31459,38.6746094 C234.002379,38.5143555 233.690168,38.5143555 233.534062,38.8348633 L216.986862,52.6166992 C216.674651,52.937207 216.674651,53.4179688 216.830757,53.7384766 C216.986862,54.0589844 217.142968,54.0589844 217.455179,54.0589844 Z"/>
      <path fill="#3878FF" fill-rule="nonzero" d="M202.625142,54.0589844 C202.781248,54.0589844 202.937353,54.0589844 203.093459,53.8987305 L218.391813,41.2386719 L218.391813,53.0974609 C218.391813,53.5782227 218.704025,53.8987305 219.172342,53.8987305 C219.640659,53.8987305 219.95287,53.5782227 219.95287,53.0974609 L219.95287,39.4758789 C219.95287,39.1553711 219.796764,38.8348633 219.484553,38.6746094 C219.172342,38.5143555 218.86013,38.5143555 218.704025,38.8348633 L202.156825,52.6166992 C201.844614,52.937207 201.844614,53.4179688 202.000719,53.7384766 C202.156825,54.0589844 202.312931,54.0589844 202.625142,54.0589844 Z"/>
      <path fill="#3878FF" fill-rule="nonzero" d="M187.795105,54.0589844 C187.95121,54.0589844 188.107316,54.0589844 188.263422,53.8987305 L203.561776,41.2386719 L203.561776,53.0974609 C203.561776,53.5782227 203.873987,53.8987305 204.342304,53.8987305 C204.810621,53.8987305 205.122833,53.5782227 205.122833,53.0974609 L205.122833,39.4758789 C205.122833,39.1553711 204.966727,38.8348633 204.654516,38.6746094 C204.342304,38.5143555 204.030093,38.5143555 203.873987,38.8348633 L187.326788,52.6166992 C187.014576,52.937207 187.014576,53.4179688 187.170682,53.7384766 C187.326788,54.0589844 187.482893,54.0589844 187.795105,54.0589844 Z"/>
      <path fill="#3878FF" fill-rule="nonzero" d="M172.965067,54.0589844 C173.121173,54.0589844 173.277279,54.0589844 173.433384,53.8987305 L188.731739,41.2386719 L188.731739,53.0974609 C188.731739,53.5782227 189.04395,53.8987305 189.512267,53.8987305 C189.980584,53.8987305 190.292795,53.5782227 190.292795,53.0974609 L190.292795,39.4758789 C190.292795,39.1553711 190.136689,38.8348633 189.824478,38.6746094 C189.512267,38.5143555 189.200056,38.5143555 189.04395,38.8348633 L172.49675,52.6166992 C172.184539,52.937207 172.184539,53.4179688 172.340645,53.7384766 C172.49675,54.0589844 172.652856,54.0589844 172.965067,54.0589844 Z"/>
      <path fill="#3878FF" fill-rule="nonzero" d="M158.13503,54.0589844 C158.291136,54.0589844 158.447241,54.0589844 158.603347,53.8987305 L173.901701,41.2386719 L173.901701,53.0974609 C173.901701,53.5782227 174.213913,53.8987305 174.68223,53.8987305 C175.150546,53.8987305 175.462758,53.5782227 175.462758,53.0974609 L175.462758,39.4758789 C175.462758,39.1553711 175.306652,38.8348633 174.994441,38.6746094 C174.68223,38.5143555 174.370018,38.5143555 174.213913,38.8348633 L157.666713,52.6166992 C157.354502,52.937207 157.354502,53.4179688 157.510607,53.7384766 C157.666713,54.0589844 157.822819,54.0589844 158.13503,54.0589844 Z"/>
      <path fill="#3878FF" fill-rule="nonzero" d="M143.304993,54.0589844 C143.461098,54.0589844 143.617204,54.0589844 143.77331,53.8987305 L159.071664,41.2386719 L159.071664,53.0974609 C159.071664,53.5782227 159.383875,53.8987305 159.852192,53.8987305 C160.320509,53.8987305 160.63272,53.5782227 160.63272,53.0974609 L160.63272,39.4758789 C160.63272,39.1553711 160.476615,38.8348633 160.164403,38.6746094 C159.852192,38.5143555 159.539981,38.5143555 159.383875,38.8348633 L142.836676,52.6166992 C142.524464,52.937207 142.524464,53.4179688 142.68057,53.7384766 C142.836676,54.0589844 142.992781,54.0589844 143.304993,54.0589844 Z"/>
      <path fill="#3878FF" fill-rule="nonzero" d="M128.474955,54.0589844 C128.631061,54.0589844 128.787167,54.0589844 128.943272,53.8987305 L144.241627,41.2386719 L144.241627,53.0974609 C144.241627,53.5782227 144.553838,53.8987305 145.022155,53.8987305 C145.490472,53.8987305 145.802683,53.5782227 145.802683,53.0974609 L145.802683,39.4758789 C145.802683,39.1553711 145.646577,38.8348633 145.334366,38.6746094 C145.022155,38.5143555 144.709943,38.5143555 144.553838,38.8348633 L128.006638,52.6166992 C127.694427,52.937207 127.694427,53.4179688 127.850533,53.7384766 C128.006638,54.0589844 128.31885,54.0589844 128.474955,54.0589844 Z"/>
      <path fill="#3878FF" fill-rule="nonzero" d="M113.644918 54.0589844C113.801024 54.0589844 113.957129 54.0589844 114.113235 53.8987305L129.411589 41.2386719 129.411589 53.0974609C129.411589 53.5782227 129.7238 53.8987305 130.192117 53.8987305 130.660434 53.8987305 130.972646 53.5782227 130.972646 53.0974609L130.972646 39.4758789C130.972646 39.1553711 130.81654 38.8348633 130.504329 38.6746094 130.192117 38.5143555 129.879906 38.5143555 129.7238 38.8348633L113.176601 52.6166992C112.86439 52.937207 112.86439 53.4179688 113.020495 53.7384766 113.176601 54.0589844 113.488812 54.0589844 113.644918 54.0589844zM26.0696446 54.0589844C26.2257503 54.0589844 26.5379616 53.8987305 26.6940672 53.7384766L46.6755913 29.5401367 46.6755913 52.937207C46.6755913 53.4179688 46.9878026 53.7384766 47.4561195 53.7384766 47.9244365 53.7384766 48.2366478 53.4179688 48.2366478 52.937207L48.2366478 27.296582C48.2366478 26.9760742 48.0805422 26.6555664 47.7683309 26.4953125 47.4561195 26.3350586 47.1439082 26.4953125 46.8316969 26.6555664L25.6013276 52.4564453C25.2891163 52.7769531 25.2891163 53.2577148 25.7574333 53.5782227 25.6013276 54.0589844 25.913539 54.0589844 26.0696446 54.0589844z"/>
      <path fill="#3878FF" fill-rule="nonzero" d="M10.7712903,54.0589844 C11.0835016,54.0589844 11.2396073,53.8987305 11.3957129,53.7384766 L26.5379616,30.1811523 L26.5379616,53.0974609 C26.5379616,53.5782227 26.8501729,53.8987305 27.3184899,53.8987305 C27.7868068,53.8987305 28.0990182,53.5782227 28.0990182,53.0974609 L28.0990182,27.4568359 C28.0990182,27.1363281 27.9429125,26.8158203 27.4745955,26.6555664 C27.1623842,26.4953125 26.8501729,26.6555664 26.5379616,26.9760742 L9.99076201,52.7769531 C9.6785507,53.0974609 9.83465635,53.5782227 10.1468677,53.8987305 C10.459079,54.0589844 10.6151846,54.0589844 10.7712903,54.0589844 Z"/>
      <path fill="#1F1F89" fill-rule="nonzero" d="M229.943632,166.557227 C229.943632,169.281543 232.129111,171.525098 234.782907,171.525098 C237.436703,171.525098 239.622183,169.281543 239.622183,166.557227 C239.622183,163.83291 237.436703,161.589355 234.782907,161.589355 C232.129111,161.429102 229.943632,163.672656 229.943632,166.557227 Z"/>
      <path stroke="#0A5DE2" stroke-linecap="round" stroke-width="2" d="M30.2844973,418.796875 L148.924796,418.796875" opacity=".5"/>
    </g>
    <g fill-rule="nonzero" transform="translate(518.891 311.427)">
      <polygon fill="#F76D59" points="53.317 159.132 51.6 134.133 54.254 115.543 63.62 61.057 59.093 60.416 48.79 108.492 32.711 109.774 16.164 61.057 11.637 61.698 23.813 113.78 28.028 133.652 27.56 157.85"/>
      <polygon fill="#1F1F89" points="31.15 91.986 29.589 106.409 39.111 107.21 45.043 91.986"/>
      <path fill="#A86C28" d="M48.7899009,97.2741211 C48.7899009,102.722754 44.4189425,107.209863 39.1113502,107.209863 C33.8037579,107.209863 29.4327995,102.722754 29.4327995,97.2741211 C29.4327995,91.8254883 33.8037579,87.3383789 39.1113502,87.3383789 C44.4189425,87.3383789 48.7899009,91.8254883 48.7899009,97.2741211 Z"/>
      <path fill="#00C0CD" d="M56.907395,0.320507812 L19.5981431,0.320507812 C13.1978112,0.320507812 8.04632455,5.60888672 8.04632455,12.1792969 L8.04632455,50.4799805 C8.04632455,57.0503906 13.1978112,62.3387695 19.5981431,62.3387695 L56.907395,62.3387695 C63.3077269,62.3387695 68.4592136,57.0503906 68.4592136,50.4799805 L68.4592136,12.1792969 C68.4592136,5.60888672 63.3077269,0.320507812 56.907395,0.320507812 Z"/>
      <path fill="#1F1F89" d="M42.7017803,96.6331055 C42.8578859,96.7933594 43.1700972,96.7933594 43.3262029,96.7933594 C43.4823086,96.7933594 43.6384142,96.4728516 43.7945199,96.3125977 C44.2628368,95.671582 45.3555764,95.671582 45.9799991,96.3125977 C46.6044217,96.9536133 46.6044217,97.9151367 46.2922104,98.7164063 C45.8238934,99.5176758 45.0433651,99.8381836 44.2628368,99.9984375 C43.7945199,101.921484 43.4823086,104.004785 43.6384142,106.088086 C44.8872595,106.24834 46.2922104,106.24834 47.5410556,106.408594 C47.8532669,106.408594 48.0093726,106.408594 48.3215839,106.24834 C48.4776896,106.088086 48.6337952,105.767578 48.6337952,105.607324 C49.1021122,103.203516 49.4143235,100.959961 49.4143235,98.5561523 C49.4143235,96.3125977 49.1021122,93.9087891 48.0093726,91.8254883 C46.6044217,89.4216797 40.8285124,85.5755859 38.0186106,87.6588867 C34.7403918,89.9024414 40.5163011,95.5113281 42.7017803,96.6331055 Z"/>
      <path fill="#1F1F89" d="M34.7403918,93.2677734 C33.1793352,94.8703125 30.993856,96.1523438 28.6522712,96.3125977 C28.4961655,93.7485352 29.5889051,91.0242188 31.6182787,89.4216797 C32.7110183,88.4601563 36.3014484,86.3768555 37.8625049,87.3383789 C39.4235615,88.2999023 35.8331314,92.1459961 34.7403918,93.2677734 Z"/>
      <polygon fill="#0A5DE2" points="52.38 141.344 27.872 140.222 8.983 226.92 .241 221.471 10.856 234.772 35.989 163.299 35.677 195.67 52.693 218.907 53.785 227.24 54.254 230.766 57.22 230.445 57.844 217.625 44.575 195.67 53.941 159.132"/>
      <polygon fill="#A86C28" points="53.941 84.614 59.249 86.537 63.62 61.057 59.093 60.416"/>
      <polygon fill="#A86C28" points="23.032 81.249 16.788 83.653 11.637 61.698 16.164 61.057"/>
      <polygon fill="#A86C28" points="43.795 108.973 39.267 117.306 36.926 109.453"/>
      <path fill="#835622" d="M9.60738111 58.4926758C9.60738111 60.7362305 11.3245433 62.4990234 13.5100225 62.4990234 15.6955017 62.4990234 17.4126639 60.7362305 17.4126639 58.4926758 17.4126639 56.2491211 15.6955017 54.4863281 13.5100225 54.4863281 11.3245433 54.4863281 9.60738111 56.2491211 9.60738111 58.4926758zM57.8440289 59.1336914C57.8440289 61.3772461 59.5611912 63.1400391 61.7466703 63.1400391 63.9321495 63.1400391 65.6493118 61.3772461 65.6493118 59.1336914 65.6493118 56.8901367 63.9321495 55.1273438 61.7466703 55.1273438 59.5611912 55.1273438 57.8440289 57.0503906 57.8440289 59.1336914z"/>
      <path fill="url(#hero-app-c)" d="M29.1205882,182.849707 L35.0526031,166.023047 L35.6770257,160.734668 L27.8717429,140.222168 L19.5981431,177.881836 C23.1885732,179.804883 26.6228977,181.567676 29.1205882,182.849707 Z"/>
      <g fill="#F7F5EF" transform="translate(23.323 12.286)">
        <path d="M22.6574503 8.546875C22.6574503 13.0339844 19.0670202 16.7198242 14.6960618 16.7198242 10.3251034 16.7198242 6.73467335 13.0339844 6.73467335 8.546875 6.73467335 4.05976563 10.3251034.373925781 14.6960618.373925781 19.0670202.373925781 22.6574503 4.05976563 22.6574503 8.546875zM30.3066275 33.2259766C30.1505218 24.7325195 23.4379786 18.0018555 15.1643788 18.0018555 6.890779 18.0018555.178235778 24.8927734.0221301216 33.2259766L30.3066275 33.2259766z"/>
      </g>
    </g>
    <path stroke="#0A5DE2" stroke-linecap="round" stroke-width="2" d="M337.737647,431.617187 L456.377946,431.617187" opacity=".5"/>
    <g transform="translate(158.194 232.902)">
      <path fill="#1F1F89" fill-rule="nonzero" d="M57.0006947,0.320507812 L19.6914428,0.320507812 C13.2911109,0.320507812 8.13962425,5.60888672 8.13962425,12.1792969 L8.13962425,50.4799805 C8.13962425,57.0503906 13.2911109,62.3387695 19.6914428,62.3387695 L57.0006947,62.3387695 C63.4010266,62.3387695 68.5525133,57.0503906 68.5525133,50.4799805 L68.5525133,12.1792969 C68.5525133,5.60888672 63.4010266,0.320507812 57.0006947,0.320507812 Z"/>
      <polygon fill="#FFD474" fill-rule="nonzero" points="22.657 163.138 17.974 115.062 12.198 63.621 16.725 62.98 27.185 111.697 43.42 113.139 60.279 63.621 64.806 64.262 52.474 117.146 53.098 161.856"/>
      <path fill="#F76D59" fill-rule="nonzero" d="M19.3792315 61.0567383C19.3792315 63.300293 17.6620693 65.0630859 15.4765901 65.0630859 13.2911109 65.0630859 11.5739487 63.300293 11.5739487 61.0567383 11.5739487 58.8131836 13.2911109 57.0503906 15.4765901 57.0503906 17.6620693 57.0503906 19.3792315 58.8131836 19.3792315 61.0567383zM64.8059775 62.3387695C64.8059775 64.5823242 63.0888153 66.3451172 60.9033361 66.3451172 58.7178569 66.3451172 57.0006947 64.5823242 57.0006947 62.3387695 57.0006947 60.0952148 58.7178569 58.3324219 60.9033361 58.3324219 63.0888153 58.3324219 64.8059775 60.0952148 64.8059775 62.3387695zM45.6049818 97.1138672C45.6049818 102.722754 41.2340234 107.370117 35.6142198 107.370117 30.1505218 107.370117 25.6234578 102.883008 25.6234578 97.1138672 25.6234578 91.5049805 29.9944162 86.8576172 35.6142198 86.8576172 41.0779178 86.8576172 45.6049818 91.5049805 45.6049818 97.1138672z"/>
      <path fill="#1F1F89" fill-rule="nonzero" d="M45.6049818,98.7164063 C45.6049818,104.325293 41.2340234,108.972656 35.6142198,108.972656 C30.1505218,108.972656 25.6234578,104.485547 25.6234578,98.7164063 C25.6234578,93.1075195 29.9944162,88.4601563 35.6142198,88.4601563 C41.0779178,88.4601563 45.6049818,93.1075195 45.6049818,98.7164063 Z"/>
      <polygon fill="#3878FF" fill-rule="nonzero" points="53.098 161.856 48.727 235.573 43.732 235.573 39.517 162.337 34.99 162.658 32.336 237.336 28.433 237.176 22.657 163.138 21.721 154.004 53.098 154.485"/>
      <polygon fill="#3878FF" fill-rule="nonzero" points="48.727 235.573 59.654 236.855 59.186 238.458 43.263 238.458 43.732 235.573"/>
      <polygon fill="#3878FF" fill-rule="nonzero" points="32.336 237.336 32.336 239.419 17.35 240.06 17.35 238.137 28.433 237.176"/>
      <path stroke="#0A5DE2" stroke-linecap="round" stroke-width="2" d="M0.0221301216,239.57959 L87.4412977,239.57959" opacity=".5"/>
    </g>
    <g fill-rule="nonzero" transform="translate(252.504 476.488)">
      <path fill="#80392E" d="M76.335666,13.621582 C76.335666,13.7818359 76.335666,13.9420898 76.335666,13.9420898 C76.335666,13.9420898 76.335666,13.9420898 76.335666,14.1023438 C76.335666,14.2625977 76.335666,14.2625977 76.1795603,14.4228516 C76.1795603,14.4228516 76.1795603,14.4228516 76.1795603,14.4228516 C76.1795603,14.5831055 76.0234547,14.5831055 75.867349,14.7433594 C75.867349,14.7433594 75.867349,14.7433594 75.867349,14.7433594 C75.7112434,14.9036133 75.7112434,14.9036133 75.5551377,15.0638672 C75.5551377,15.0638672 75.5551377,15.0638672 75.5551377,15.0638672 C75.399032,15.2241211 75.2429264,15.2241211 75.0868207,15.384375 C75.0868207,15.384375 74.9307151,15.384375 74.9307151,15.5446289 C74.7746094,15.7048828 74.6185038,15.7048828 74.4623981,15.8651367 C74.4623981,15.8651367 74.3062924,15.8651367 74.3062924,16.0253906 C74.1501868,16.0253906 73.9940811,16.1856445 73.8379755,16.1856445 C73.8379755,16.1856445 73.6818698,16.1856445 73.6818698,16.3458984 C73.3696585,16.5061523 73.2135529,16.5061523 72.9013415,16.6664063 L46.2072743,26.1213867 C45.895063,26.2816406 45.7389573,26.2816406 45.426746,26.2816406 C44.958429,26.4418945 44.6462177,26.4418945 44.1779008,26.6021484 C43.7095838,26.7624023 43.0851612,26.7624023 42.6168442,26.9226563 C42.3046329,26.9226563 41.9924216,27.0829102 41.6802103,27.0829102 C41.2118933,27.0829102 40.899682,27.2431641 40.431365,27.2431641 C40.2752594,27.2431641 40.2752594,27.2431641 40.1191537,27.2431641 C39.4947311,27.2431641 38.7142028,27.2431641 38.0897802,27.2431641 C38.0897802,27.2431641 38.0897802,27.2431641 38.0897802,27.2431641 C37.3092519,27.2431641 36.6848293,27.2431641 35.904301,27.2431641 C35.904301,27.2431641 35.904301,27.2431641 35.904301,27.2431641 C35.1237727,27.2431641 34.4993501,27.0829102 33.8749274,27.0829102 C33.8749274,27.0829102 33.8749274,27.0829102 33.8749274,27.0829102 C33.2505048,26.9226563 32.6260822,26.9226563 32.0016596,26.7624023 C32.0016596,26.7624023 32.0016596,26.7624023 32.0016596,26.7624023 C31.3772369,26.6021484 30.7528143,26.4418945 30.2844973,26.2816406 L4.05874707,16.9869141 C3.90264141,16.9869141 3.74653575,16.8266602 3.5904301,16.8266602 C3.43432444,16.8266602 3.27821878,16.6664063 3.27821878,16.6664063 C3.12211313,16.6664063 3.12211313,16.5061523 2.96600747,16.5061523 C2.80990182,16.5061523 2.80990182,16.3458984 2.65379616,16.3458984 C2.4976905,16.3458984 2.4976905,16.1856445 2.34158485,16.1856445 C2.18547919,16.1856445 2.18547919,16.0253906 2.02937353,16.0253906 C1.87326788,16.0253906 1.87326788,15.8651367 1.87326788,15.8651367 C1.71716222,15.8651367 1.71716222,15.7048828 1.56105656,15.7048828 C1.56105656,15.7048828 1.40495091,15.5446289 1.40495091,15.5446289 C1.40495091,15.5446289 1.24884525,15.384375 1.24884525,15.384375 C1.24884525,15.384375 1.09273959,15.2241211 1.09273959,15.2241211 C1.09273959,15.2241211 1.09273959,15.0638672 0.936633938,15.0638672 C0.936633938,15.0638672 0.936633938,14.9036133 0.780528282,14.9036133 C0.624422626,14.7433594 0.624422626,14.5831055 0.624422626,14.2625977 L0.780528282,26.2816406 C0.780528282,26.4418945 0.780528282,26.6021484 0.936633938,26.9226563 C0.936633938,26.9226563 0.936633938,27.0829102 1.09273959,27.0829102 C1.09273959,27.0829102 1.09273959,27.2431641 1.24884525,27.2431641 C1.24884525,27.2431641 1.40495091,27.403418 1.40495091,27.403418 C1.40495091,27.403418 1.56105656,27.5636719 1.56105656,27.5636719 C1.56105656,27.5636719 1.71716222,27.7239258 1.71716222,27.7239258 C1.71716222,27.7239258 1.87326788,27.8841797 1.87326788,27.8841797 C2.02937353,27.8841797 2.02937353,28.0444336 2.18547919,28.0444336 C2.18547919,28.0444336 2.34158485,28.2046875 2.34158485,28.2046875 C2.4976905,28.2046875 2.4976905,28.3649414 2.65379616,28.3649414 C2.65379616,28.3649414 2.80990182,28.3649414 2.96600747,28.5251953 C3.12211313,28.5251953 3.27821878,28.6854492 3.43432444,28.6854492 C3.5904301,28.6854492 3.5904301,28.6854492 3.74653575,28.8457031 C3.90264141,28.8457031 4.05874707,29.005957 4.21485272,29.005957 C4.21485272,29.005957 4.21485272,29.005957 4.21485272,29.005957 L30.440603,38.3006836 C30.7528143,38.4609375 31.0650256,38.4609375 31.3772369,38.6211914 C31.6894482,38.6211914 31.8455539,38.7814453 32.1577652,38.7814453 C32.1577652,38.7814453 32.1577652,38.7814453 32.1577652,38.7814453 C32.1577652,38.7814453 32.1577652,38.7814453 32.1577652,38.7814453 C32.3138709,38.7814453 32.6260822,38.9416992 32.7821878,38.9416992 C32.9382935,38.9416992 33.2505048,39.1019531 33.5627161,39.1019531 C33.7188218,39.1019531 34.0310331,39.1019531 34.1871388,39.262207 C34.1871388,39.262207 34.1871388,39.262207 34.1871388,39.262207 C34.1871388,39.262207 34.1871388,39.262207 34.1871388,39.262207 C34.3432444,39.262207 34.6554557,39.262207 34.8115614,39.4224609 C34.967667,39.4224609 35.2798783,39.4224609 35.435984,39.4224609 C35.5920897,39.4224609 35.904301,39.4224609 36.0604066,39.4224609 C36.0604066,39.4224609 36.0604066,39.4224609 36.0604066,39.4224609 C36.0604066,39.4224609 36.0604066,39.4224609 36.0604066,39.4224609 C36.3726179,39.4224609 36.5287236,39.4224609 36.8409349,39.4224609 C37.1531462,39.4224609 37.3092519,39.4224609 37.6214632,39.4224609 C37.7775688,39.4224609 38.0897802,39.4224609 38.2458858,39.4224609 C38.2458858,39.4224609 38.2458858,39.4224609 38.2458858,39.4224609 C38.2458858,39.4224609 38.2458858,39.4224609 38.2458858,39.4224609 C38.5580971,39.4224609 38.7142028,39.4224609 39.0264141,39.4224609 C39.3386254,39.4224609 39.6508367,39.4224609 39.963048,39.4224609 C40.1191537,39.4224609 40.1191537,39.4224609 40.2752594,39.4224609 C40.431365,39.4224609 40.431365,39.4224609 40.5874707,39.4224609 C40.7435763,39.4224609 40.899682,39.4224609 41.0557876,39.4224609 C41.3679989,39.4224609 41.5241046,39.4224609 41.8363159,39.262207 C42.1485272,39.262207 42.4607385,39.262207 42.7729499,39.1019531 C42.9290555,39.1019531 42.9290555,39.1019531 43.0851612,39.1019531 C43.3973725,39.1019531 43.8656894,38.9416992 44.1779008,38.9416992 C44.1779008,38.9416992 44.3340064,38.9416992 44.3340064,38.9416992 C44.8023234,38.7814453 45.1145347,38.7814453 45.5828517,38.6211914 C45.7389573,38.6211914 46.0511686,38.4609375 46.2072743,38.4609375 C46.2072743,38.4609375 46.36338,38.4609375 46.36338,38.4609375 L73.0574472,29.005957 C73.3696585,28.8457031 73.5257642,28.8457031 73.8379755,28.6854492 C73.8379755,28.6854492 73.8379755,28.6854492 73.8379755,28.6854492 C73.8379755,28.6854492 73.9940811,28.6854492 73.9940811,28.5251953 C74.1501868,28.5251953 74.3062924,28.3649414 74.4623981,28.3649414 C74.4623981,28.3649414 74.4623981,28.3649414 74.6185038,28.3649414 C74.6185038,28.3649414 74.7746094,28.3649414 74.7746094,28.2046875 C74.7746094,28.2046875 74.9307151,28.0444336 74.9307151,28.0444336 C74.9307151,28.0444336 75.0868207,28.0444336 75.0868207,27.8841797 C75.0868207,27.8841797 75.2429264,27.8841797 75.2429264,27.7239258 C75.2429264,27.7239258 75.2429264,27.7239258 75.399032,27.7239258 C75.5551377,27.5636719 75.5551377,27.5636719 75.7112434,27.403418 C75.7112434,27.403418 75.7112434,27.403418 75.7112434,27.403418 C75.7112434,27.403418 75.7112434,27.403418 75.7112434,27.403418 C75.7112434,27.403418 75.867349,27.2431641 75.867349,27.2431641 C75.867349,27.2431641 75.867349,27.2431641 76.0234547,27.0829102 C76.0234547,27.0829102 76.0234547,27.0829102 76.0234547,27.0829102 C76.0234547,27.0829102 76.0234547,27.0829102 76.0234547,27.0829102 C76.0234547,26.9226563 76.1795603,26.9226563 76.1795603,26.7624023 C76.1795603,26.7624023 76.1795603,26.7624023 76.1795603,26.7624023 C76.1795603,26.7624023 76.1795603,26.7624023 76.1795603,26.7624023 C76.1795603,26.7624023 76.1795603,26.6021484 76.335666,26.6021484 C76.335666,26.6021484 76.335666,26.4418945 76.335666,26.4418945 C76.335666,26.4418945 76.335666,26.4418945 76.335666,26.2816406 C76.335666,26.2816406 76.335666,26.2816406 76.335666,26.2816406 C76.335666,26.1213867 76.335666,26.1213867 76.335666,25.9611328 C76.335666,25.9611328 76.335666,25.9611328 76.335666,25.9611328 L76.335666,13.621582 Z"/>
      <path fill="#F76D59" d="M72.9013415,10.8972656 C77.4284056,12.4998047 77.2722999,15.0638672 72.7452359,16.6664063 L46.0511686,26.1213867 C41.5241046,27.7239258 34.1871388,27.7239258 29.6600747,26.1213867 L3.43432444,16.8266602 C-1.09273959,15.2241211 -0.936633938,12.6600586 3.5904301,11.0575195 L30.2844973,1.60253906 C34.8115614,-1.66533454e-16 42.1485272,-1.66533454e-16 46.6755913,1.60253906 L72.9013415,10.8972656 Z"/>
    </g>
    <g fill-rule="nonzero" transform="translate(355.534 466.339)">
      <path fill="#214A81" d="M76.4917716,13.5147461 C76.4917716,13.675 76.4917716,13.8352539 76.4917716,13.8352539 C76.4917716,13.8352539 76.4917716,13.8352539 76.4917716,13.9955078 C76.4917716,14.1557617 76.4917716,14.1557617 76.335666,14.3160156 C76.335666,14.3160156 76.335666,14.3160156 76.335666,14.3160156 C76.335666,14.4762695 76.1795603,14.4762695 76.0234547,14.6365234 C76.0234547,14.6365234 76.0234547,14.6365234 76.0234547,14.6365234 C75.867349,14.7967773 75.867349,14.7967773 75.7112434,14.9570313 C75.7112434,14.9570313 75.7112434,14.9570313 75.7112434,14.9570313 C75.5551377,15.1172852 75.399032,15.1172852 75.2429264,15.2775391 C75.2429264,15.2775391 75.0868207,15.2775391 75.0868207,15.437793 C74.9307151,15.5980469 74.7746094,15.5980469 74.6185038,15.7583008 C74.6185038,15.7583008 74.4623981,15.7583008 74.4623981,15.9185547 C74.3062924,15.9185547 74.1501868,16.0788086 73.9940811,16.0788086 C73.9940811,16.0788086 73.8379755,16.0788086 73.8379755,16.2390625 C73.5257642,16.3993164 73.3696585,16.3993164 73.0574472,16.5595703 L46.36338,26.0145508 C46.0511686,26.1748047 45.895063,26.1748047 45.5828517,26.1748047 C45.1145347,26.3350586 44.8023234,26.3350586 44.3340064,26.4953125 C43.8656894,26.6555664 43.2412668,26.6555664 42.7729499,26.8158203 C42.4607385,26.8158203 42.1485272,26.9760742 41.8363159,26.9760742 C41.3679989,26.9760742 41.0557876,27.1363281 40.5874707,27.1363281 C40.431365,27.1363281 40.431365,27.1363281 40.2752594,27.1363281 C39.6508367,27.1363281 38.8703084,27.1363281 38.2458858,27.1363281 C38.2458858,27.1363281 38.2458858,27.1363281 38.2458858,27.1363281 C37.4653575,27.1363281 36.8409349,27.1363281 36.0604066,27.1363281 C36.0604066,27.1363281 36.0604066,27.1363281 36.0604066,27.1363281 C35.2798783,27.1363281 34.6554557,26.9760742 34.0310331,26.9760742 C34.0310331,26.9760742 34.0310331,26.9760742 34.0310331,26.9760742 C33.4066105,26.8158203 32.7821878,26.8158203 32.1577652,26.6555664 C32.1577652,26.6555664 32.1577652,26.6555664 32.1577652,26.6555664 C31.5333426,26.4953125 30.90892,26.3350586 30.440603,26.1748047 L4.21485272,16.8800781 C4.05874707,16.8800781 3.90264141,16.7198242 3.74653575,16.7198242 C3.5904301,16.7198242 3.43432444,16.5595703 3.43432444,16.5595703 C3.27821878,16.5595703 3.27821878,16.3993164 3.12211313,16.3993164 C2.96600747,16.3993164 2.96600747,16.2390625 2.80990182,16.2390625 C2.65379616,16.2390625 2.65379616,16.0788086 2.4976905,16.0788086 C2.34158485,16.0788086 2.34158485,15.9185547 2.18547919,15.9185547 C2.02937353,15.9185547 2.02937353,15.7583008 2.02937353,15.7583008 C1.87326788,15.7583008 1.87326788,15.5980469 1.71716222,15.5980469 C1.71716222,15.5980469 1.56105656,15.437793 1.56105656,15.437793 C1.56105656,15.437793 1.40495091,15.2775391 1.40495091,15.2775391 C1.40495091,15.2775391 1.24884525,15.1172852 1.24884525,15.1172852 C1.24884525,15.1172852 1.24884525,14.9570312 1.09273959,14.9570312 C1.09273959,14.9570312 1.09273959,14.7967773 0.936633938,14.7967773 C0.780528282,14.6365234 0.780528282,14.4762695 0.780528282,14.1557617 L0.936633938,26.1748047 C0.936633938,26.3350586 0.936633938,26.4953125 1.09273959,26.8158203 C1.09273959,26.8158203 1.09273959,26.9760742 1.24884525,26.9760742 C1.24884525,26.9760742 1.24884525,27.1363281 1.40495091,27.1363281 C1.40495091,27.1363281 1.56105656,27.296582 1.56105656,27.296582 C1.56105656,27.296582 1.71716222,27.4568359 1.71716222,27.4568359 C1.71716222,27.4568359 1.87326788,27.6170898 1.87326788,27.6170898 C1.87326788,27.6170898 2.02937353,27.7773438 2.02937353,27.7773438 C2.18547919,27.7773438 2.18547919,27.9375977 2.34158485,27.9375977 C2.34158485,27.9375977 2.4976905,28.0978516 2.4976905,28.0978516 C2.65379616,28.0978516 2.65379616,28.2581055 2.80990182,28.2581055 C2.80990182,28.2581055 2.96600747,28.2581055 3.12211313,28.4183594 C3.27821878,28.4183594 3.43432444,28.5786133 3.5904301,28.5786133 C3.74653575,28.5786133 3.74653575,28.5786133 3.90264141,28.7388672 C4.05874707,28.7388672 4.21485272,28.8991211 4.37095838,28.8991211 C4.37095838,28.8991211 4.37095838,28.8991211 4.37095838,28.8991211 L30.5967087,38.1938477 C30.90892,38.3541016 31.2211313,38.3541016 31.5333426,38.5143555 C31.8455539,38.5143555 32.0016596,38.6746094 32.3138709,38.6746094 C32.3138709,38.6746094 32.3138709,38.6746094 32.3138709,38.6746094 C32.3138709,38.6746094 32.3138709,38.6746094 32.3138709,38.6746094 C32.4699765,38.6746094 32.7821878,38.8348633 32.9382935,38.8348633 C33.0943992,38.8348633 33.4066105,38.9951172 33.7188218,38.9951172 C33.8749274,38.9951172 34.1871388,38.9951172 34.3432444,39.1553711 C34.3432444,39.1553711 34.3432444,39.1553711 34.3432444,39.1553711 C34.3432444,39.1553711 34.3432444,39.1553711 34.3432444,39.1553711 C34.4993501,39.1553711 34.8115614,39.1553711 34.967667,39.315625 C35.1237727,39.315625 35.435984,39.315625 35.5920897,39.315625 C35.7481953,39.315625 36.0604066,39.315625 36.2165123,39.315625 C36.2165123,39.315625 36.2165123,39.315625 36.2165123,39.315625 C36.2165123,39.315625 36.2165123,39.315625 36.2165123,39.315625 C36.5287236,39.315625 36.6848293,39.315625 36.9970406,39.315625 C37.3092519,39.315625 37.4653575,39.315625 37.7775688,39.315625 C37.9336745,39.315625 38.2458858,39.315625 38.4019915,39.315625 C38.4019915,39.315625 38.4019915,39.315625 38.4019915,39.315625 C38.4019915,39.315625 38.4019915,39.315625 38.4019915,39.315625 C38.7142028,39.315625 38.8703084,39.315625 39.1825198,39.315625 C39.4947311,39.315625 39.8069424,39.315625 40.1191537,39.315625 C40.2752594,39.315625 40.2752594,39.315625 40.431365,39.315625 C40.5874707,39.315625 40.5874707,39.315625 40.7435763,39.315625 C40.899682,39.315625 41.0557876,39.315625 41.2118933,39.315625 C41.5241046,39.315625 41.6802103,39.315625 41.9924216,39.1553711 C42.3046329,39.1553711 42.6168442,39.1553711 42.9290555,38.9951172 C43.0851612,38.9951172 43.0851612,38.9951172 43.2412668,38.9951172 C43.5534781,38.9951172 44.0217951,38.8348633 44.3340064,38.8348633 C44.3340064,38.8348633 44.4901121,38.8348633 44.4901121,38.8348633 C44.958429,38.6746094 45.2706404,38.6746094 45.7389573,38.5143555 C45.895063,38.5143555 46.2072743,38.3541016 46.36338,38.3541016 C46.36338,38.3541016 46.5194856,38.3541016 46.5194856,38.3541016 L73.2135529,28.8991211 C73.5257642,28.7388672 73.6818698,28.7388672 73.9940811,28.5786133 C73.9940811,28.5786133 73.9940811,28.5786133 73.9940811,28.5786133 C73.9940811,28.5786133 74.1501868,28.5786133 74.1501868,28.4183594 C74.3062924,28.4183594 74.4623981,28.2581055 74.6185038,28.2581055 C74.6185038,28.2581055 74.6185038,28.2581055 74.7746094,28.2581055 C74.7746094,28.2581055 74.9307151,28.2581055 74.9307151,28.0978516 C74.9307151,28.0978516 75.0868207,27.9375977 75.0868207,27.9375977 C75.0868207,27.9375977 75.2429264,27.9375977 75.2429264,27.7773438 C75.2429264,27.7773438 75.399032,27.7773438 75.399032,27.6170898 C75.399032,27.6170898 75.399032,27.6170898 75.5551377,27.6170898 C75.7112434,27.4568359 75.7112434,27.4568359 75.867349,27.296582 C75.867349,27.296582 75.867349,27.296582 75.867349,27.296582 C75.867349,27.296582 75.867349,27.296582 75.867349,27.296582 C75.867349,27.296582 76.0234547,27.1363281 76.0234547,27.1363281 C76.0234547,27.1363281 76.0234547,27.1363281 76.1795603,26.9760742 C76.1795603,26.9760742 76.1795603,26.9760742 76.1795603,26.9760742 C76.1795603,26.9760742 76.1795603,26.9760742 76.1795603,26.9760742 C76.1795603,26.8158203 76.335666,26.8158203 76.335666,26.6555664 C76.335666,26.6555664 76.335666,26.6555664 76.335666,26.6555664 C76.335666,26.6555664 76.335666,26.6555664 76.335666,26.6555664 C76.335666,26.6555664 76.335666,26.4953125 76.4917716,26.4953125 C76.4917716,26.4953125 76.4917716,26.3350586 76.4917716,26.3350586 C76.4917716,26.3350586 76.4917716,26.3350586 76.4917716,26.1748047 C76.4917716,26.1748047 76.4917716,26.1748047 76.4917716,26.1748047 C76.4917716,26.0145508 76.4917716,26.0145508 76.4917716,25.8542969 C76.4917716,25.8542969 76.4917716,25.8542969 76.4917716,25.8542969 L76.4917716,13.5147461 Z"/>
      <path fill="#1F1F89" d="M73.0574472,10.6301758 C77.5845112,12.2327148 77.4284056,14.7967773 72.9013415,16.3993164 L46.2072743,25.8542969 C41.6802103,27.4568359 34.3432444,27.4568359 29.8161804,25.8542969 L3.5904301,16.5595703 C-0.936633938,14.9570313 -0.780528282,12.3929688 3.74653575,10.7904297 L30.440603,1.33544922 C34.967667,-0.267089844 42.3046329,-0.267089844 46.8316969,1.33544922 L73.0574472,10.6301758 Z"/>
    </g>
  </g>
</svg>
