<svg xmlns="http://www.w3.org/2000/svg" viewBox="0 0 440 412">
  <defs>
    <linearGradient id="how-we-work-1-a" x1=".014%" x2="100.012%" y1="50.009%" y2="50.009%">
      <stop offset="0%" stop-color="#CB88D2"/>
      <stop offset="26.69%" stop-color="#C887D3"/>
      <stop offset="47.83%" stop-color="#BE85D7"/>
      <stop offset="67.05%" stop-color="#AD81DD"/>
      <stop offset="85.02%" stop-color="#967BE6"/>
      <stop offset="100%" stop-color="#7C75F0"/>
    </linearGradient>
  </defs>
  <g fill="none">
    <path fill="url(#how-we-work-1-a)" d="M411.36995,164.511536 C417.107875,183.109464 422.845799,203.58808 425.817225,224.275663 C427.354169,234.619454 428.173872,244.963245 427.968947,255.098071 C427.149243,282.994962 421.206392,310.473922 397.332527,330.116677 C322.739504,390.298735 212.489378,433.450106 115.559434,400.747009 C104.903288,397.508044 95.5791603,392.910803 87.3821249,387.268735 C79.1850895,381.73115 72.1151464,375.148737 65.9673699,367.834946 C55.2087609,348.296674 41.7861154,327.92254 29.7979511,307.130475 C23.7526375,296.682201 18.1171756,286.129444 13.1989543,275.472205 C-11.187226,233.261178 -2.27295001,183.631877 44.0403001,153.540848 C103.673733,114.255339 145.478613,69.8501747 197.632251,27.9525964 C234.928762,-2.13843235 285.647919,-6.10877643 330.93654,7.36949688 C344.256722,11.5488064 357.167053,17.3998398 369.052755,25.340528 C377.967031,30.8781131 385.036974,37.5650084 390.46751,44.8788001 C395.898046,52.1925918 399.791637,60.3422455 402.455674,68.8053473 C407.783747,85.5225855 409.320691,103.807065 410.037932,122.509475 C410.857635,135.883266 411.165024,149.883953 411.36995,164.511536 Z"/>
    <g transform="translate(21 65)">
      <path fill="#CBCACC" d="M85.9222222,23.3634409 C85.8194444,23.3634409 85.6138889,23.3634409 85.5111111,23.3634409 C84.175,18.4612903 79.8583333,14.9150538 74.6166667,14.9150538 C73.4861111,14.9150538 72.3555556,15.1236559 71.3277778,15.4365591 C70.0944444,7.09247312 63.0027778,0.834408602 54.4722222,0.834408602 C47.3805556,0.834408602 41.3166667,5.21505376 38.7472222,11.4731183 L38.7472222,40.2602151 L85.9222222,40.2602151 C90.5472222,40.2602151 94.2472222,36.5053763 94.2472222,31.811828 C94.1444444,27.1182796 90.4444444,23.3634409 85.9222222,23.3634409 Z"/>
      <path fill="#E0E0E0" d="M8.83888889 34.7322581C8.94166667 34.7322581 9.14722222 34.7322581 9.25 34.7322581 10.6888889 29.6215054 15.2111111 25.8666667 20.7611111 25.8666667 21.9944444 25.8666667 23.125 26.0752688 24.1527778 26.388172 25.4888889 17.6268817 32.8888889 10.9516129 41.9333333 10.9516129 49.4361111 10.9516129 55.8083333 15.5408602 58.4805556 22.111828 59.2 21.9032258 60.0222222 21.7989247 60.8444444 21.7989247 66.3944444 21.7989247 70.9166667 26.388172 70.9166667 32.0204301 70.9166667 33.272043 70.7111111 34.5236559 70.1972222 35.6709677 74.4111111 35.983871 77.8027778 39.6344086 77.8027778 44.0150538 77.8027778 48.6043011 74.1027778 52.3591398 69.5805556 52.3591398L8.73611111 52.3591398C3.90555556 52.3591398 5.68434189e-14 48.3956989 5.68434189e-14 43.4935484.102777778 38.6956989 4.00833333 34.7322581 8.83888889 34.7322581zM141.011111 82.7107527C140.908333 82.7107527 140.805556 82.7107527 140.702778 82.7107527 139.572222 78.6430108 135.872222 75.5139785 131.452778 75.5139785 130.527778 75.5139785 129.602778 75.6182796 128.677778 75.9311828 127.547222 68.9430108 121.586111 63.5193548 114.391667 63.5193548 108.430556 63.5193548 103.188889 67.2741935 101.030556 72.4892473 100.413889 72.3849462 99.7972222 72.2806452 99.1805556 72.2806452 94.6583333 72.2806452 91.0611111 75.9311828 91.0611111 80.5204301 91.0611111 81.5634409 91.2666667 82.5021505 91.575 83.4408602 88.1833333 83.6494624 85.4083333 86.5698925 85.4083333 90.116129 85.4083333 93.8709677 88.3888889 96.7913978 91.9861111 96.7913978L141.011111 96.7913978C144.916667 96.7913978 148 93.5580645 148 89.6989247 148 85.944086 144.916667 82.7107527 141.011111 82.7107527z"/>
    </g>
    <g transform="translate(168 54)">
      <g transform="translate(0 34.518)">
        <rect width="203.538" height="29.288" x="33.256" y="1.569" fill="#8149E0"/>
        <rect width="203.538" height="9.937" x="33.256" y="11.297" fill="#9979E2"/>
        <path fill="#E0E0E0" d="M250.137358,0.523006135 L237.820377,0.523006135 C237.204528,0.523006135 236.793962,0.941411043 236.793962,1.5690184 L236.793962,30.857362 C236.793962,31.4849693 237.204528,31.9033742 237.820377,31.9033742 L250.137358,31.9033742 C250.753208,31.9033742 251.163774,31.4849693 251.163774,30.857362 L251.163774,1.5690184 C251.163774,1.04601227 250.650566,0.523006135 250.137358,0.523006135 Z"/>
        <path fill="#DAAEE5" d="M267.586415,2.61503067 L251.163774,2.61503067 L251.163774,29.8113497 L267.586415,29.8113497 C269.844528,29.8113497 271.692075,27.9285276 271.692075,25.6273006 L271.692075,6.79907975 C271.692075,4.49785276 269.844528,2.61503067 267.586415,2.61503067 Z"/>
        <polygon fill="#8149E0" points="0 16.213 17.654 24.058 17.654 8.473"/>
        <polygon fill="#CBCACC" points="33.256 1.569 17.654 8.473 17.654 24.058 33.256 30.857"/>
      </g>
      <g transform="translate(149.857)">
        <path fill="#8149E0" d="M80.0603774,316.418712 L12.3169811,316.418712 C7.49283019,321.334969 4.82415094,324.054601 0,328.970859 L0,340.476994 L92.3773585,340.476994 L92.3773585,328.970859 C87.5532075,324.054601 84.8845283,321.334969 80.0603774,316.418712 Z"/>
        <rect width="45.162" height="316.314" x="23.608" fill="#DAAEE5"/>
        <g fill="#8149E0" transform="translate(23.608 77.405)">
          <rect width="16.731" height="6.276" y="215.688"/>
          <rect width="16.731" height="6.276" y="185.04"/>
          <rect width="16.731" height="6.276" y="154.391"/>
          <rect width="16.731" height="6.276" y="123.639"/>
          <rect width="16.731" height="6.276" y="92.99"/>
          <rect width="16.731" height="6.276" y="62.342"/>
          <rect width="16.731" height="6.276" y="31.59"/>
          <rect width="16.731" height="6.276" y=".941"/>
        </g>
        <ellipse cx="46.189" cy="50.732" fill="#E6C8ED" rx="9.238" ry="9.414"/>
      </g>
      <g transform="translate(45.162 64.853)">
        <g transform="translate(0 94.141)">
          <rect width="105.105" height="68.2" x=".616" y=".209" fill="#75CCF2"/>
          <rect width="60.969" height="3.347" x="7.185" y="58.054" fill="#FFF"/>
          <rect width="19.81" height="3.347" x="79.342" y="58.054" fill="#FFF"/>
          <rect width="4.619" height="8.368" x="68.257" y="55.543" fill="#E0E0E0"/>
          <ellipse cx="53.168" cy="30.125" fill="#E0E0E0" rx="19.502" ry="19.874"/>
          <polygon fill="#FFF" points="47.01 18.096 47.01 42.05 63.638 30.125"/>
        </g>
        <polygon fill="#75CCF2" points="69.591 .523 36.746 .523 41.878 10.983 64.459 10.983"/>
        <polygon fill="#4FB7EF" points="55.734 72.384 55.734 10.983 50.602 10.983 50.602 72.384 .616 94.35 13.651 94.35 53.168 76.987 92.788 94.35 105.721 94.35"/>
      </g>
    </g>
    <g transform="translate(337 192)">
      <path fill="#E8E5ED" d="M66.2561798 142.690299C65.7449438 141.223834 53.3730337 107.390395 53.3730337 86.7551397L60.7348315 86.7551397C60.7348315 106.133425 73.0044944 139.757369 73.1067416 140.071611L66.2561798 142.690299zM34.0483146 114.827467L21.7786517 93.7732214C21.2674157 92.9352415 21.1651685 91.7830191 21.3696629 90.8402917 21.6764045 89.8975643 22.2898876 89.0595844 23.2101124 88.535847L42.9438202 77.8516031 46.3179775 84.4506949 30.0606742 93.249484 40.3876404 110.95181 34.0483146 114.827467z"/>
      <path fill="#121F55" d="M69.7325843,10.7084629 C69.7325843,10.7084629 64.9269663,4.73785606 62.6775281,2.74765378 C58.6898876,-0.813760837 55.3157303,3.16664373 55.3157303,3.16664373 C35.3775281,0.0242190725 31.594382,29.2487684 40.694382,36.4763451 C48.0561798,42.3422045 54.1910112,38.2570524 54.1910112,38.2570524 C54.1910112,38.2570524 58.3831461,41.3994771 64.7224719,42.446952 C68.7101124,43.0754369 73.4134831,40.4567497 73.4134831,40.4567497 C73.4134831,40.4567497 78.9348315,44.5419017 83.2292135,38.4665474 C87.5235955,32.3911931 81.1842697,26.0015963 77.8101124,26.0015963 C77.8101124,26.0015963 81.7977528,21.0784643 76.2764045,17.7265447 C74.2314607,16.4695748 69.7325843,10.7084629 69.7325843,10.7084629 Z"/>
      <path fill="#E8E5ED" d="M44.988764,46.951094 C43.6595506,46.2178616 42.5348315,44.1229118 44.1707865,42.237457 C45.7044944,40.3520022 48.158427,39.3045273 50.8168539,39.1997798 L51.5325843,39.1997798 C53.8842697,39.0950323 55.9292135,40.1425072 57.3606742,41.818467 C56.2359551,45.3798817 48.6696629,48.4175588 44.988764,46.951094 Z"/>
      <path fill="#E8E5ED" d="M49.0786517,33.8576579 L48.9764045,36.8953351 L48.8741573,42.5516995 L53.1685393,42.656447 L53.2707865,35.4288702 L53.3730337,32.600688 C52.0438202,33.438668 50.6123596,33.9624054 49.0786517,33.8576579 Z"/>
      <path fill="#E8E5ED" d="M49.0786517,33.8576579 L48.9764045,36.8953351 C50.5101124,36.6858401 52.3505618,35.9526077 53.2707865,34.8003853 L53.2707865,32.4959406 C52.0438202,33.438668 50.6123596,33.9624054 49.0786517,33.8576579 Z"/>
      <path fill="#E8E5ED" d="M46.6247191,33.8576579 C50.2033708,35.7431127 54.2932584,35.6383652 57.6674157,33.8576579 C60.0191011,32.7054355 61.9617978,30.7152332 63.188764,28.2012935 L65.3359551,23.6971515 C66.9719101,20.4499794 67.0741573,16.8885647 65.9494382,13.7461401 C64.9269663,10.8132104 62.7797753,8.19452319 59.9168539,6.72805835 C57.9741573,5.68058346 55.9292135,5.2615935 53.8842697,5.36634099 C49.5898876,5.57583597 45.3977528,8.0897757 43.352809,12.3844227 L41.205618,16.8885647 C39.1606742,20.9737168 39.5696629,25.6873538 41.7168539,29.3535159 C42.841573,31.1342232 44.5797753,32.810183 46.6247191,33.8576579 Z"/>
      <path fill="#121F55" d="M60.3258427,20.7642218 C51.4303371,22.2306867 50.5101124,12.3844227 51.0213483,8.40401816 C52.0438202,-0.0805284161 62.8820225,1.5954314 66.5629213,5.78533095 C68.9146067,8.40401816 73.0044944,15.4220999 71.2662921,24.220889 C69.5280899,33.019678 60.7348315,38.4665474 60.7348315,38.4665474 C51.1235955,31.2389707 61.041573,24.3256364 61.041573,24.3256364 L60.3258427,20.7642218 Z"/>
      <path fill="#F7B75D" d="M41.1033708,77.4326132 C39.6719101,83.9269575 43.6595506,90.3165543 49.9988764,91.8877666 C56.3382022,93.3542315 62.5752809,89.2690794 64.1089888,82.7747351 C65.5404494,76.2803908 61.552809,69.890794 55.2134831,68.3195817 C48.8741573,66.8531168 42.5348315,70.9382689 41.1033708,77.4326132 Z"/>
      <path fill="#121F55" d="M47.647191,26.9443237 C46.7269663,28.2012935 44.988764,28.6202835 43.5573034,27.8870511 C42.1258427,27.1538186 41.4101124,25.4778588 41.8191011,23.9066465 L47.647191,26.9443237 Z"/>
      <path fill="#566CD3" d="M32.4123596 83.5079675C47.9539326 97.334636 67.1764045 104.038475 67.1764045 104.038475 67.1764045 104.038475 70.4483146 83.82221 63.188764 75.1281684 59.5078652 70.7287739 40.7966292 77.1183707 40.7966292 77.1183707L32.4123596 83.5079675zM38.7516854 48.9412963C37.9337079 51.245741 40.1831461 53.4454383 42.5348315 53.7596807 44.8865169 53.9691757 47.0337079 52.2932159 47.2382022 49.8840237 47.5449438 47.4748314 43.9662921 42.237457 42.6370787 44.2276593 41.4101124 46.2178616 39.4674157 47.0558415 38.7516854 48.9412963z"/>
      <path fill="#566CD3" d="M57.3606742,41.818467 C58.3831461,43.0754369 58.9966292,44.5419017 59.0988764,46.3226091 C59.0988764,46.3226091 58.0764045,66.1198844 63.2910112,75.2329159 C65.5404494,79.108573 40.694382,79.004101 40.694382,79.004101 L41.4101124,49.7792762 C41.3078652,46.8463465 42.3303371,44.2276593 44.1707865,42.237457 C44.2730337,46.6368515 53.1685393,41.3994771 57.3606742,41.818467 Z"/>
      <path fill="#566CD3" d="M53.5775281,49.0460438 C49.1808989,49.0460438 19.4269663,47.5795789 2.86292135,10.079978 L9.50898876,7.04230081 C24.9483146,42.027962 52.5550562,41.6089721 53.7820225,41.6089721 L53.9865169,49.1507912 C53.9865169,49.0460438 53.8842697,49.0460438 53.5775281,49.0460438 Z"/>
      <path fill="#E8E5ED" d="M9.40674157,0.96694647 C8.07752809,0.128966561 6.54382022,-0.185275905 5.11235955,0.128966561 L0.102247191,8.50876565 C0.511235955,9.87048301 1.43146067,11.1274529 2.76067416,11.9654328 C5.7258427,13.8508876 9.61123596,12.9081602 11.4516854,9.87048301 C13.2921348,6.83280583 12.3719101,2.85240127 9.40674157,0.96694647 Z"/>
      <g fill="#4FB7EF" transform="translate(20.45 110.01)">
        <path d="M15.1325843,6.91333425 C15.8483146,9.53202147 18.5067416,10.9984863 21.0629213,10.2652539 C23.6191011,9.53202147 25.0505618,6.80858676 24.3348315,4.18989955 C23.6191011,1.57121233 20.9606742,0.104747489 18.4044944,0.837979909 C15.8483146,1.57121233 14.4168539,4.29464703 15.1325843,6.91333425 Z"/>
        <path d="M3.57865169,15.5026283 L20.9606742,10.2652539 C22.8011236,9.74151644 23.8235955,7.75131416 23.3123596,5.86585936 C22.8011236,3.98040457 19.2224719,0.628484932 17.3820225,1.15222238 L2.04494382,11.3127288 C0.306741573,12.4649511 0.817977528,15.1883859 2.76067416,15.6073758 C3.06741573,15.6073758 3.3741573,15.6073758 3.57865169,15.5026283 Z"/>
      </g>
      <g fill="#4FB7EF" transform="translate(55.213 138.29)">
        <path d="M11.5539326,8.58929407 C13.1898876,10.6842438 16.1550562,11.1032338 18.3022472,9.42727398 C20.347191,7.75131416 20.7561798,4.71363699 19.1202247,2.51393973 C17.4842697,0.418989955 14.5191011,-3.99680289e-15 12.3719101,1.67595982 C10.3269663,3.35191964 9.91797753,6.38959681 11.5539326,8.58929407 Z"/>
        <path d="M3.88539326,20.8447502 L18.2,9.53202147 C19.7337079,8.37979909 20.0404494,6.07535434 18.8134831,4.50414201 C17.688764,2.93292968 13.0876404,1.15222238 11.5539326,2.30444475 L0.817977528,17.4928306 C-0.408988764,19.1687904 1.02247191,21.5779827 2.96516854,21.1589927 C3.3741573,21.1589927 3.57865169,21.0542452 3.88539326,20.8447502 Z"/>
      </g>
      <path fill="#4FB7EF" d="M48.5674157,76.5946333 C46.7269663,76.5946333 44.6820225,76.3851383 42.5348315,75.9661483 L42.7393258,74.9186735 C52.7595506,77.1183707 60.5303371,72.7189762 60.6325843,72.7189762 L61.1438202,73.6617036 C60.9393258,73.7664511 55.8269663,76.5946333 48.5674157,76.5946333 Z"/>
      <rect width="1.636" height="12.151" x="88.853" y="142.9" fill="#E0E0E0"/>
      <rect width="1.636" height="19.274" x="69.733" y="156.203" fill="#E0E0E0"/>
      <rect width="1.636" height="16.55" x="81.389" y="149.289" fill="#E0E0E0"/>
      <rect width="1.636" height="9.637" x="81.389" y="128.968" fill="#E0E0E0"/>
    </g>
  </g>
</svg>
