<svg xmlns="http://www.w3.org/2000/svg" width="440" height="412" viewBox="0 0 440 412">
  <defs>
    <linearGradient id="how-we-work-2svg-a" x1=".014%" x2="100.012%" y1="50.009%" y2="50.009%">
      <stop offset="0%" stop-color="#CB88D2"/>
      <stop offset="26.69%" stop-color="#C887D3"/>
      <stop offset="47.83%" stop-color="#BE85D7"/>
      <stop offset="67.05%" stop-color="#AD81DD"/>
      <stop offset="85.02%" stop-color="#967BE6"/>
      <stop offset="100%" stop-color="#7C75F0"/>
    </linearGradient>
  </defs>
  <g fill="none">
    <path fill="url(#how-we-work-2svg-a)" d="M411.776088,164.229787 C417.519678,182.795863 423.263267,203.239407 426.237626,223.891559 C427.776088,234.217635 428.596601,244.543711 428.391473,254.661179 C427.57096,282.510293 421.622242,309.942192 397.724806,329.551306 C323.058139,389.630293 212.699165,432.707762 115.673524,400.060673 C105.006857,396.827255 95.6735239,392.237888 87.4683957,386.605483 C79.2632675,381.077382 72.1863444,374.506243 66.0324983,367.204977 C55.2632675,347.700167 41.8273701,327.360926 29.8273701,306.604471 C23.776088,296.174091 18.1350624,285.639407 13.2119854,275.00042 C-11.198271,232.861686 -2.27519405,183.317382 44.0837803,153.277888 C103.776088,114.05966 145.622242,69.7305465 197.82737,27.9047237 C235.160703,-2.13476999 285.929934,-6.09831429 331.263267,7.35687558 C344.596601,11.5290275 357.519678,17.3700401 369.417114,25.2971287 C378.340191,30.82523 385.417114,37.5006731 390.853011,44.8019389 C396.288909,52.1032047 400.186344,60.2389009 402.853011,68.6875085 C408.186344,85.3761161 409.724806,103.629281 410.442755,122.29966 C411.263267,135.650546 411.57096,149.627255 411.776088,164.229787 Z"/>
    <g transform="translate(133.333 142.896)">
      <path fill="#566CD3" d="M154.461538,0.521518987 L10.8717949,0.521518987 C5.23076923,0.521518987 0.615384615,5.21518987 0.615384615,10.9518987 L0.615384615,240.420253 C0.615384615,246.156962 5.23076923,250.850633 10.8717949,250.850633 L154.461538,250.850633 C160.102564,250.850633 164.717949,246.156962 164.717949,240.420253 L164.717949,10.9518987 C164.717949,5.21518987 160.102564,0.521518987 154.461538,0.521518987 Z"/>
      <rect width="41.026" height="5.215" x="62.154" y="10.43" fill="#372665"/>
      <g transform="translate(8.205 23.99)">
        <rect width="99.487" height="196.091" x="45.744" y="3.651" fill="#FFF"/>
        <rect width="42.051" height="196.091" x="3.692" y="3.651" fill="#E0E0E0"/>
        <path fill="#372665" d="M0.615384615,0.521518987 L0.615384615,202.870886 L148.307692,202.870886 L148.307692,0.521518987 L0.615384615,0.521518987 Z M145.230769,199.741772 L3.69230769,199.741772 L3.69230769,3.65063291 L145.230769,3.65063291 L145.230769,199.741772 Z"/>
        <g transform="translate(11.282 11.473)">
          <g fill="#CBCACC" transform="translate(3.077)">
            <rect width="18.462" height="3.651" x=".615" y=".73"/>
            <rect width="18.462" height="3.651" x=".615" y="10.117"/>
            <rect width="18.462" height="3.651" x=".615" y="19.505"/>
          </g>
          <g transform="translate(0 32.334)">
            <path fill="#FFF" d="M4.20512821,24.5113924 C2.76923077,24.5113924 1.64102564,23.3640506 1.64102564,21.9037975 L1.64102564,4.1721519 C1.64102564,2.71189873 2.76923077,1.56455696 4.20512821,1.56455696 L21.6410256,1.56455696 C23.0769231,1.56455696 24.2051282,2.71189873 24.2051282,4.1721519 L24.2051282,21.9037975 C24.2051282,23.3640506 23.0769231,24.5113924 21.6410256,24.5113924 L4.20512821,24.5113924 Z"/>
            <path fill="#CBCACC" d="M21.6410256,0 L4.20512821,0 C1.94871795,0 0.102564103,1.87746835 0.102564103,4.1721519 L0.102564103,21.9037975 C0.102564103,24.198481 1.94871795,26.0759494 4.20512821,26.0759494 L21.6410256,26.0759494 C23.8974359,26.0759494 25.7435897,24.198481 25.7435897,21.9037975 L25.7435897,4.1721519 C25.7435897,1.87746835 23.8974359,0 21.6410256,0 Z M10.7692308,13.0379747 L3.17948718,20.7564557 L3.17948718,5.31949367 L10.7692308,13.0379747 Z M5.33333333,3.12911392 L20.5128205,3.12911392 L12.9230769,10.8475949 L5.33333333,3.12911392 Z M12.9230769,15.2283544 L20.5128205,22.9468354 L5.33333333,22.9468354 L12.9230769,15.2283544 Z M15.0769231,13.0379747 L22.6666667,5.31949367 L22.6666667,20.7564557 L15.0769231,13.0379747 Z"/>
          </g>
          <g transform="translate(0 67.797)">
            <path fill="#FFF" d="M4.20512821,24.5113924 C2.76923077,24.5113924 1.64102564,23.3640506 1.64102564,21.9037975 L1.64102564,4.1721519 C1.64102564,2.71189873 2.76923077,1.56455696 4.20512821,1.56455696 L21.6410256,1.56455696 C23.0769231,1.56455696 24.2051282,2.71189873 24.2051282,4.1721519 L24.2051282,21.9037975 C24.2051282,23.3640506 23.0769231,24.5113924 21.6410256,24.5113924 L4.20512821,24.5113924 Z"/>
            <path fill="#CBCACC" d="M21.6410256,0 L4.20512821,0 C1.94871795,0 0.102564103,1.87746835 0.102564103,4.1721519 L0.102564103,21.9037975 C0.102564103,24.198481 1.94871795,26.0759494 4.20512821,26.0759494 L21.6410256,26.0759494 C23.8974359,26.0759494 25.7435897,24.198481 25.7435897,21.9037975 L25.7435897,4.1721519 C25.7435897,1.87746835 23.8974359,0 21.6410256,0 Z M10.7692308,13.0379747 L3.17948718,20.7564557 L3.17948718,5.31949367 L10.7692308,13.0379747 Z M5.33333333,3.12911392 L20.5128205,3.12911392 L12.9230769,10.8475949 L5.33333333,3.12911392 Z M12.9230769,15.2283544 L20.5128205,22.9468354 L5.33333333,22.9468354 L12.9230769,15.2283544 Z M15.0769231,13.0379747 L22.6666667,5.31949367 L22.6666667,20.7564557 L15.0769231,13.0379747 Z"/>
          </g>
          <g transform="translate(0 103.26)">
            <path fill="#FFF" d="M4.20512821,24.5113924 C2.76923077,24.5113924 1.64102564,23.3640506 1.64102564,21.9037975 L1.64102564,4.1721519 C1.64102564,2.71189873 2.76923077,1.56455696 4.20512821,1.56455696 L21.6410256,1.56455696 C23.0769231,1.56455696 24.2051282,2.71189873 24.2051282,4.1721519 L24.2051282,21.9037975 C24.2051282,23.3640506 23.0769231,24.5113924 21.6410256,24.5113924 L4.20512821,24.5113924 Z"/>
            <path fill="#CBCACC" d="M21.6410256,0 L4.20512821,0 C1.94871795,0 0.102564103,1.87746835 0.102564103,4.1721519 L0.102564103,21.9037975 C0.102564103,24.198481 1.94871795,26.0759494 4.20512821,26.0759494 L21.6410256,26.0759494 C23.8974359,26.0759494 25.7435897,24.198481 25.7435897,21.9037975 L25.7435897,4.1721519 C25.7435897,1.87746835 23.8974359,0 21.6410256,0 Z M10.7692308,13.0379747 L3.17948718,20.7564557 L3.17948718,5.31949367 L10.7692308,13.0379747 Z M5.33333333,3.12911392 L20.5128205,3.12911392 L12.9230769,10.8475949 L5.33333333,3.12911392 Z M12.9230769,15.2283544 L20.5128205,22.9468354 L5.33333333,22.9468354 L12.9230769,15.2283544 Z M15.0769231,13.0379747 L22.6666667,5.31949367 L22.6666667,20.7564557 L15.0769231,13.0379747 Z"/>
          </g>
          <g transform="translate(0 138.724)">
            <path fill="#FFF" d="M4.20512821,24.5113924 C2.76923077,24.5113924 1.64102564,23.3640506 1.64102564,21.9037975 L1.64102564,4.1721519 C1.64102564,2.71189873 2.76923077,1.56455696 4.20512821,1.56455696 L21.6410256,1.56455696 C23.0769231,1.56455696 24.2051282,2.71189873 24.2051282,4.1721519 L24.2051282,21.9037975 C24.2051282,23.3640506 23.0769231,24.5113924 21.6410256,24.5113924 L4.20512821,24.5113924 Z"/>
            <path fill="#CBCACC" d="M21.6410256,0 L4.20512821,0 C1.94871795,0 0.102564103,1.87746835 0.102564103,4.1721519 L0.102564103,21.9037975 C0.102564103,24.198481 1.94871795,26.0759494 4.20512821,26.0759494 L21.6410256,26.0759494 C23.8974359,26.0759494 25.7435897,24.198481 25.7435897,21.9037975 L25.7435897,4.1721519 C25.7435897,1.87746835 23.8974359,0 21.6410256,0 Z M10.7692308,13.0379747 L3.17948718,20.7564557 L3.17948718,5.31949367 L10.7692308,13.0379747 Z M5.33333333,3.12911392 L20.5128205,3.12911392 L12.9230769,10.8475949 L5.33333333,3.12911392 Z M12.9230769,15.2283544 L20.5128205,22.9468354 L5.33333333,22.9468354 L12.9230769,15.2283544 Z M15.0769231,13.0379747 L22.6666667,5.31949367 L22.6666667,20.7564557 L15.0769231,13.0379747 Z"/>
          </g>
          <g transform="translate(44.103 3.13)">
            <g transform="translate(0 61.54)">
              <rect width="75.897" height="47.98" x="2.154" y="1.565" fill="#E0E0E0"/>
              <path fill="#CBCACC" d="M0.615384615,0 L0.615384615,51.1088608 L79.5897436,51.1088608 L79.5897436,0 L0.615384615,0 Z M76.5128205,47.9797468 L3.69230769,47.9797468 L3.69230769,3.12911392 L76.5128205,3.12911392 L76.5128205,47.9797468 Z"/>
            </g>
            <rect width="75.897" height="46.937" x="2.154" y="1.565" fill="#E0E0E0"/>
            <path fill="#CBCACC" d="M0.615384615,0 L0.615384615,50.0658228 L79.5897436,50.0658228 L79.5897436,0 L0.615384615,0 Z M76.5128205,46.9367089 L3.69230769,46.9367089 L3.69230769,3.12911392 L76.5128205,3.12911392 L76.5128205,46.9367089 Z"/>
            <g transform="translate(0 124.122)">
              <rect width="75.897" height="46.937" x="2.154" y="1.565" fill="#E0E0E0"/>
              <path fill="#CBCACC" d="M0.615384615,0 L0.615384615,50.0658228 L79.5897436,50.0658228 L79.5897436,0 L0.615384615,0 Z M37.1282051,25.0329114 L3.69230769,45.4764557 L3.69230769,4.48506329 L37.1282051,25.0329114 Z M7.38461538,3.12911392 L72.8205128,3.12911392 L40.1025641,23.155443 L7.38461538,3.12911392 Z M40.1025641,26.8060759 L72.8205128,46.9367089 L7.28205128,46.9367089 L40.1025641,26.8060759 Z M43.0769231,25.0329114 L76.5128205,4.58936709 L76.5128205,45.5807595 L43.0769231,25.0329114 Z"/>
            </g>
          </g>
        </g>
      </g>
    </g>
    <g transform="translate(20.513 63.625)">
      <path fill="#CBCACC" d="M85.7435897,23.3640506 C85.6410256,23.3640506 85.4358974,23.3640506 85.3333333,23.3640506 C84,18.4617722 79.6923077,14.915443 74.4615385,14.915443 C73.3333333,14.915443 72.2051282,15.1240506 71.1794872,15.436962 C69.9487179,7.09265823 62.8717949,0.83443038 54.3589744,0.83443038 C47.2820513,0.83443038 41.2307692,5.21518987 38.6666667,11.4734177 L38.6666667,40.2612658 L85.7435897,40.2612658 C90.3589744,40.2612658 94.0512821,36.5063291 94.0512821,31.8126582 C93.9487179,27.1189873 90.2564103,23.3640506 85.7435897,23.3640506 Z"/>
      <path fill="#E0E0E0" d="M8.82051282 34.7331646C8.92307692 34.7331646 9.12820513 34.7331646 9.23076923 34.7331646 10.6666667 29.6222785 15.1794872 25.8673418 20.7179487 25.8673418 21.9487179 25.8673418 23.0769231 26.0759494 24.1025641 26.3888608 25.4358974 17.6273418 32.8205128 10.9518987 41.8461538 10.9518987 49.3333333 10.9518987 55.6923077 15.5412658 58.3589744 22.1124051 59.0769231 21.9037975 59.8974359 21.7994937 60.7179487 21.7994937 66.2564103 21.7994937 70.7692308 26.3888608 70.7692308 32.0212658 70.7692308 33.2729114 70.5641026 34.524557 70.0512821 35.6718987 74.2564103 35.9848101 77.6410256 39.635443 77.6410256 44.0162025 77.6410256 48.6055696 73.9487179 52.3605063 69.4358974 52.3605063L8.71794872 52.3605063C3.8974359 52.3605063 5.68434189e-14 48.396962 5.68434189e-14 43.4946835.102564103 38.6967089 4 34.7331646 8.82051282 34.7331646zM140.717949 82.7129114C140.615385 82.7129114 140.512821 82.7129114 140.410256 82.7129114 139.282051 78.6450633 135.589744 75.5159494 131.179487 75.5159494 130.25641 75.5159494 129.333333 75.6202532 128.410256 75.9331646 127.282051 68.9448101 121.333333 63.5210127 114.153846 63.5210127 108.205128 63.5210127 102.974359 67.2759494 100.820513 72.4911392 100.205128 72.3868354 99.5897436 72.2825316 98.974359 72.2825316 94.4615385 72.2825316 90.8717949 75.9331646 90.8717949 80.5225316 90.8717949 81.5655696 91.0769231 82.5043038 91.3846154 83.443038 88 83.6516456 85.2307692 86.5721519 85.2307692 90.118481 85.2307692 93.8734177 88.2051282 96.7939241 91.7948718 96.7939241L140.717949 96.7939241C144.615385 96.7939241 147.692308 93.5605063 147.692308 89.7012658 147.692308 85.9463291 144.615385 82.7129114 140.717949 82.7129114z"/>
    </g>
    <g transform="translate(168.205 54.238)">
      <g transform="translate(0 34.42)">
        <rect width="203.385" height="29.205" x="33.231" y="1.565" fill="#8149E0"/>
        <rect width="203.385" height="9.909" x="33.231" y="11.265" fill="#9979E2"/>
        <path fill="#E0E0E0" d="M249.948718,0.521518987 L237.641026,0.521518987 C237.025641,0.521518987 236.615385,0.938734177 236.615385,1.56455696 L236.615385,30.7696203 C236.615385,31.395443 237.025641,31.8126582 237.641026,31.8126582 L249.948718,31.8126582 C250.564103,31.8126582 250.974359,31.395443 250.974359,30.7696203 L250.974359,1.56455696 C250.974359,1.04303797 250.461538,0.521518987 249.948718,0.521518987 Z"/>
        <path fill="#DAAEE5" d="M267.384615,2.60759494 L250.974359,2.60759494 L250.974359,29.7265823 L267.384615,29.7265823 C269.641026,29.7265823 271.487179,27.8491139 271.487179,25.5544304 L271.487179,6.77974684 C271.487179,4.48506329 269.641026,2.60759494 267.384615,2.60759494 Z"/>
        <polygon fill="#8149E0" points="0 16.167 17.641 23.99 17.641 8.449"/>
        <polygon fill="#CBCACC" points="33.231 1.565 17.641 8.449 17.641 23.99 33.231 30.77"/>
      </g>
      <g transform="translate(149.744)">
        <path fill="#8149E0" d="M80,315.518987 L12.3076923,315.518987 C7.48717949,320.421266 4.82051282,323.133165 0,328.035443 L0,339.508861 L92.3076923,339.508861 L92.3076923,328.035443 C87.4871795,323.133165 84.8205128,320.421266 80,315.518987 Z"/>
        <rect width="45.128" height="315.415" x="23.59" fill="#DAAEE5"/>
        <g fill="#8149E0" transform="translate(23.59 77.185)">
          <rect width="16.718" height="6.258" y="215.074"/>
          <rect width="16.718" height="6.258" y="184.513"/>
          <rect width="16.718" height="6.258" y="153.952"/>
          <rect width="16.718" height="6.258" y="123.287"/>
          <rect width="16.718" height="6.258" y="92.726"/>
          <rect width="16.718" height="6.258" y="62.165"/>
          <rect width="16.718" height="6.258" y="31.5"/>
          <rect width="16.718" height="6.258" y=".939"/>
        </g>
        <ellipse cx="46.154" cy="50.587" fill="#E6C8ED" rx="9.231" ry="9.387"/>
      </g>
      <g transform="translate(45.128 64.668)">
        <g transform="translate(0 93.873)">
          <rect width="105.026" height="68.006" x=".615" y=".209" fill="#75CCF2"/>
          <rect width="60.923" height="3.338" x="7.179" y="57.889" fill="#FFF"/>
          <rect width="19.795" height="3.338" x="79.282" y="57.889" fill="#FFF"/>
          <rect width="4.615" height="8.344" x="68.205" y="55.385" fill="#E0E0E0"/>
          <ellipse cx="53.128" cy="30.039" fill="#E0E0E0" rx="19.487" ry="19.818"/>
          <polygon fill="#FFF" points="46.974 18.045 46.974 41.93 63.59 30.039"/>
        </g>
        <polygon fill="#75CCF2" points="69.538 .522 36.718 .522 41.846 10.952 64.41 10.952"/>
        <polygon fill="#4FB7EF" points="55.692 72.178 55.692 10.952 50.564 10.952 50.564 72.178 .615 94.082 13.641 94.082 53.128 76.768 92.718 94.082 105.641 94.082"/>
      </g>
    </g>
    <g transform="translate(337.436 191.919)">
      <path fill="#E8E5ED" d="M66.4615385 143.10481C65.9487179 141.644557 53.5384615 107.95443 53.5384615 87.4065823L60.9230769 87.4065823C60.9230769 106.702785 73.2307692 140.184304 73.3333333 140.497215L66.4615385 143.10481zM34.1538462 115.36L21.8461538 94.3949367C21.3333333 93.5605063 21.2307692 92.4131646 21.4358974 91.4744304 21.7435897 90.5356962 22.3589744 89.7012658 23.2820513 89.1797468L43.0769231 78.5407595 46.4615385 85.1118987 30.1538462 93.8734177 40.5128205 111.500759 34.1538462 115.36z"/>
      <path fill="#121F55" d="M69.9487179,11.6820253 C69.9487179,11.6820253 65.1282051,5.73670886 62.8717949,3.75493671 C58.8717949,0.208607595 55.4871795,4.1721519 55.4871795,4.1721519 C35.4871795,1.04303797 31.6923077,30.1437975 40.8205128,37.3407595 C48.2051282,43.1817722 54.3589744,39.1139241 54.3589744,39.1139241 C54.3589744,39.1139241 58.5641026,42.243038 64.9230769,43.2860759 C68.9230769,43.9118987 73.6410256,41.3043038 73.6410256,41.3043038 C73.6410256,41.3043038 79.1794872,45.3721519 83.4871795,39.3225316 C87.7948718,33.2729114 81.4358974,26.9103797 78.0512821,26.9103797 C78.0512821,26.9103797 82.0512821,22.0081013 76.5128205,18.6703797 C74.4615385,17.4187342 69.9487179,11.6820253 69.9487179,11.6820253 Z"/>
      <path fill="#E8E5ED" d="M45.1282051,47.7711392 C43.7948718,47.0410127 42.6666667,44.9549367 44.3076923,43.0774684 C45.8461538,41.2 48.3076923,40.156962 50.974359,40.0526582 L51.6923077,40.0526582 C54.0512821,39.9483544 56.1025641,40.9913924 57.5384615,42.6602532 C56.4102564,46.2065823 48.8205128,49.2313924 45.1282051,47.7711392 Z"/>
      <path fill="#E8E5ED" d="M49.2307692,34.7331646 L49.1282051,37.7579747 L49.025641,43.3903797 L53.3333333,43.4946835 L53.4358974,36.2977215 L53.5384615,33.481519 C52.2051282,34.3159494 50.7692308,34.8374684 49.2307692,34.7331646 Z"/>
      <path fill="#E8E5ED" d="M49.2307692,34.7331646 L49.1282051,37.7579747 C50.6666667,37.5493671 52.5128205,36.8192405 53.4358974,35.6718987 L53.4358974,33.3772152 C52.2051282,34.3159494 50.7692308,34.8374684 49.2307692,34.7331646 Z"/>
      <path fill="#E8E5ED" d="M46.7692308,34.7331646 C50.3589744,36.6106329 54.4615385,36.5063291 57.8461538,34.7331646 C60.2051282,33.5858228 62.1538462,31.6040506 63.3846154,29.1007595 L65.5384615,24.6156962 C67.1794872,21.3822785 67.2820513,17.8359494 66.1538462,14.7068354 C65.1282051,11.7863291 62.974359,9.17873418 60.1025641,7.71848101 C58.1538462,6.67544304 56.1025641,6.25822785 54.0512821,6.36253165 C49.7435897,6.57113924 45.5384615,9.07443038 43.4871795,13.3508861 L41.3333333,17.8359494 C39.2820513,21.9037975 39.6923077,26.5974684 41.8461538,30.2481013 C42.974359,32.0212658 44.7179487,33.6901266 46.7692308,34.7331646 Z"/>
      <path fill="#121F55" d="M60.5128205,21.6951899 C51.5897436,23.155443 50.6666667,13.3508861 51.1794872,9.38734177 C52.2051282,0.938734177 63.0769231,2.60759494 66.7692308,6.77974684 C69.1282051,9.38734177 73.2307692,16.3756962 71.4871795,25.1372152 C69.7435897,33.8987342 60.9230769,39.3225316 60.9230769,39.3225316 C51.2820513,32.1255696 61.2307692,25.241519 61.2307692,25.241519 L60.5128205,21.6951899 Z"/>
      <path fill="#F7B75D" d="M41.2307692,78.1235443 C39.7948718,84.5903797 43.7948718,90.9529114 50.1538462,92.5174684 C56.5128205,93.9777215 62.7692308,89.9098734 64.3076923,83.443038 C65.7435897,76.9762025 61.7435897,70.6136709 55.3846154,69.0491139 C49.025641,67.5888608 42.6666667,71.6567089 41.2307692,78.1235443 Z"/>
      <path fill="#121F55" d="M47.7948718,27.8491139 C46.8717949,29.1007595 45.1282051,29.5179747 43.6923077,28.7878481 C42.2564103,28.0577215 41.5384615,26.3888608 41.9487179,24.8243038 L47.7948718,27.8491139 Z"/>
      <path fill="#566CD3" d="M32.5128205 84.1731646C48.1025641 97.9412658 67.3846154 104.616709 67.3846154 104.616709 67.3846154 104.616709 70.6666667 84.4860759 63.3846154 75.8288608 59.6923077 71.4481013 40.9230769 77.8106329 40.9230769 77.8106329L32.5128205 84.1731646zM38.8717949 49.7529114C38.0512821 52.0475949 40.3076923 54.2379747 42.6666667 54.5508861 45.025641 54.7594937 47.1794872 53.0906329 47.3846154 50.6916456 47.6923077 48.2926582 44.1025641 43.0774684 42.7692308 45.0592405 41.5384615 47.0410127 39.5897436 47.875443 38.8717949 49.7529114z"/>
      <path fill="#566CD3" d="M57.5384615,42.6602532 C58.5641026,43.9118987 59.1794872,45.3721519 59.2820513,47.1453165 C59.2820513,47.1453165 58.2564103,66.8587342 63.4871795,75.9331646 C65.7435897,79.7924051 40.8205128,79.6883756 40.8205128,79.6883756 L41.5384615,50.5873418 C41.4358974,47.6668354 42.4615385,45.0592405 44.3076923,43.0774684 C44.4102564,47.4582278 53.3333333,42.243038 57.5384615,42.6602532 Z"/>
      <path fill="#566CD3" d="M53.7435897,49.8572152 C49.3333333,49.8572152 19.4871795,48.396962 2.87179487,11.0562025 L9.53846154,8.03139241 C25.025641,42.8688608 52.7179487,42.4516456 53.9487179,42.4516456 L54.1538462,49.961519 C54.1538462,49.8572152 54.0512821,49.8572152 53.7435897,49.8572152 Z"/>
      <path fill="#E8E5ED" d="M9.43589744,1.98177215 C8.1025641,1.14734177 6.56410256,0.83443038 5.12820513,1.14734177 L0.102564103,9.49164557 C0.512820513,10.8475949 1.43589744,12.0992405 2.76923077,12.9336709 C5.74358974,14.8111392 9.64102564,13.8724051 11.4871795,10.8475949 C13.3333333,7.82278481 12.4102564,3.85924051 9.43589744,1.98177215 Z"/>
      <g fill="#4FB7EF" transform="translate(20.513 110.562)">
        <path d="M15.1794872,6.88405063 C15.8974359,9.49164557 18.5641026,10.9518987 21.1282051,10.2217722 C23.6923077,9.49164557 25.1282051,6.77974684 24.4102564,4.1721519 C23.6923077,1.56455696 21.025641,0.104303797 18.4615385,0.83443038 C15.8974359,1.56455696 14.4615385,4.2764557 15.1794872,6.88405063 Z"/>
        <path d="M3.58974359,15.436962 L21.025641,10.2217722 C22.8717949,9.70025316 23.8974359,7.71848101 23.3846154,5.84101266 C22.8717949,3.9635443 19.2820513,0.625822785 17.4358974,1.14734177 L2.05128205,11.2648101 C0.307692308,12.4121519 0.820512821,15.1240506 2.76923077,15.5412658 C3.07692308,15.5412658 3.38461538,15.5412658 3.58974359,15.436962 Z"/>
      </g>
      <g fill="#4FB7EF" transform="translate(55.385 138.724)">
        <path d="M11.5897436,8.55291139 C13.2307692,10.6389873 16.2051282,11.0562025 18.3589744,9.38734177 C20.4102564,7.71848101 20.8205128,4.69367089 19.1794872,2.50329114 C17.5384615,0.41721519 14.5641026,-1.55431223e-15 12.4102564,1.66886076 C10.3589744,3.33772152 9.94871795,6.36253165 11.5897436,8.55291139 Z"/>
        <path d="M3.8974359,20.7564557 L18.2564103,9.49164557 C19.7948718,8.3443038 20.1025641,6.04962025 18.8717949,4.48506329 C17.7435897,2.92050633 13.1282051,1.14734177 11.5897436,2.29468354 L0.820512821,17.4187342 C-0.41025641,19.0875949 1.02564103,21.4865823 2.97435897,21.0693671 C3.38461538,21.0693671 3.58974359,20.9650633 3.8974359,20.7564557 Z"/>
      </g>
      <path fill="#4FB7EF" d="M48.7179487,77.2891139 C46.8717949,77.2891139 44.8205128,77.0805063 42.6666667,76.6632911 L42.8717949,75.6202532 C52.9230769,77.8106329 60.7179487,73.4298734 60.8205128,73.4298734 L61.3333333,74.3686076 C61.1282051,74.4729114 56,77.2891139 48.7179487,77.2891139 Z"/>
      <rect width="1.641" height="12.099" x="89.128" y="143.313" fill="#E0E0E0"/>
      <rect width="1.641" height="19.192" x="69.949" y="156.56" fill="#E0E0E0"/>
      <rect width="1.641" height="16.48" x="81.641" y="149.676" fill="#E0E0E0"/>
      <rect width="1.641" height="9.596" x="81.641" y="129.441" fill="#E0E0E0"/>
    </g>
  </g>
</svg>
