<svg xmlns="http://www.w3.org/2000/svg" viewBox="0 0 370 342">
  <defs>
    <linearGradient id="how-we-work-6-a" x1=".014%" x2="100.012%" y1="50.009%" y2="50.009%">
      <stop offset="0%" stop-color="#CB88D2"/>
      <stop offset="26.69%" stop-color="#C887D3"/>
      <stop offset="47.83%" stop-color="#BE85D7"/>
      <stop offset="67.05%" stop-color="#AD81DD"/>
      <stop offset="85.02%" stop-color="#967BE6"/>
      <stop offset="100%" stop-color="#7C75F0"/>
    </linearGradient>
  </defs>
  <g fill="none" fill-rule="evenodd">
    <g fill-rule="nonzero" transform="translate(4)">
      <path fill="url(#how-we-work-6-a)" d="M339.255476,136.366148 C343.652764,151.443109 348.050052,168.044706 350.327219,184.815707 C351.505064,193.201208 352.133248,201.586708 351.976202,209.802805 C351.348018,232.418246 346.793684,254.694879 328.497824,270.61886 C271.333078,319.407227 186.842327,354.389163 112.559566,327.877429 C104.393174,325.251666 97.2475808,321.524777 90.9657406,316.950868 C84.6839003,312.46166 79.2658132,307.125433 74.554433,301.196291 C66.3095177,285.357012 56.0230043,268.840117 46.835813,251.984414 C42.2029558,243.514211 37.8841906,234.959307 34.1150865,226.3197 C15.4266118,192.100081 22.2581131,151.866619 57.7505104,127.472435 C103.450898,95.6244736 135.488283,59.6261125 175.456492,25.6606 C204.038865,1.26641649 242.907751,-1.9522605 277.614918,8.97430087 C287.822909,12.3623819 297.716807,17.1056954 306.825475,23.5430494 C313.656977,28.0322567 319.075064,33.4531864 323.236783,39.3823282 C327.398502,45.3114701 330.382376,51.9182281 332.423974,58.7790922 C336.507171,72.3314164 337.685016,87.154271 338.234677,102.315934 C338.862861,113.157793 339.09843,124.507865 339.255476,136.366148 Z"/>
      <g transform="translate(63.444 47.457)">
        <g transform="translate(.127 104.236)">
          <path fill="#75CCF2" d="M122.905215,59.7450065 L114.428993,59.7450065 C113.879609,55.6772613 112.859323,51.6942609 111.446619,47.8807499 L118.745588,43.3045366 C120.236775,42.372345 120.78616,40.2537278 119.922841,38.6435786 L115.213829,29.8301309 C114.35051,28.2199818 112.388421,27.6267689 110.897234,28.5589605 L103.598266,33.1351738 C101.24376,29.9148756 98.5753193,27.0335561 95.592945,24.4912154 L99.8310559,16.6099592 C100.694375,14.9998101 100.14499,12.8811929 98.6538029,11.9490013 L90.4915153,6.86431989 C89.0003281,5.9321283 87.0382398,6.52534113 86.1749209,8.13549024 L81.93681,16.0167464 C78.4835345,14.5760867 74.7948084,13.4744057 70.9491152,12.8811929 L70.9491152,3.72876636 C70.9491152,1.86438318 69.5364116,0.33897876 67.8097738,0.33897876 L58.3917497,0.33897876 C56.6651119,0.33897876 55.2524083,1.86438318 55.2524083,3.72876636 L55.2524083,12.8811929 C51.4851986,13.4744057 47.7964725,14.5760867 44.2647135,16.0167464 L40.0266026,8.13549024 C39.1632837,6.52534113 37.2011954,5.9321283 35.7100082,6.86431989 L27.5477206,11.9490013 C26.0565335,12.8811929 25.5071487,14.9998101 26.3704676,16.6099592 L30.6085785,24.4912154 C27.6262041,27.0335561 24.957764,29.9148756 22.6032579,33.1351738 L15.3042892,28.5589605 C13.8131021,27.6267689 11.8510137,28.2199818 10.9876948,29.8301309 L6.27868276,38.6435786 C5.41536388,40.2537278 5.96474862,42.372345 7.45593578,43.3045366 L14.7549045,47.8807499 C13.4206844,51.6095162 12.4003985,55.5925166 11.7725302,59.7450065 L3.29630845,59.7450065 C1.56967069,59.7450065 0.156967069,61.2704109 0.156967069,63.1347941 L0.156967069,73.3041569 C0.156967069,75.16854 1.56967069,76.6939445 3.29630845,76.6939445 L11.7725302,76.6939445 C12.3219149,80.7616896 13.3422009,84.74469 14.7549045,88.5582011 L7.45593578,93.1344143 C5.96474862,94.0666059 5.41536388,96.1852232 6.27868276,97.7953723 L10.9876948,106.60882 C11.8510137,108.218969 13.8131021,108.812182 15.3042892,107.87999 L22.6032579,103.303777 C24.957764,106.524075 27.6262041,109.405395 30.6085785,111.947736 L26.3704676,119.828992 C25.5071487,121.439141 26.0565335,123.557758 27.5477206,124.48995 L35.7100082,129.574631 C37.2011954,130.506823 39.1632837,129.91361 40.0266026,128.303461 L44.2647135,120.422205 C47.717989,121.862864 51.4067151,122.964545 55.2524083,123.642503 L55.2524083,132.794929 C55.2524083,134.659312 56.6651119,136.184717 58.3917497,136.184717 L67.8097738,136.184717 C69.5364116,136.184717 70.9491152,134.659312 70.9491152,132.794929 L70.9491152,123.642503 C74.7163249,123.04929 78.405051,121.947609 81.93681,120.422205 L86.1749209,128.303461 C87.0382398,129.91361 89.0003281,130.506823 90.4915153,129.574631 L98.6538029,124.48995 C100.14499,123.557758 100.694375,121.439141 99.8310559,119.828992 L95.592945,111.947736 C98.5753193,109.405395 101.24376,106.524075 103.598266,103.303777 L110.897234,107.87999 C112.388421,108.812182 114.35051,108.218969 115.213829,106.60882 L119.922841,97.7953723 C120.78616,96.1852232 120.236775,94.0666059 118.745588,93.1344143 L111.446619,88.5582011 C112.780839,84.8294347 113.801125,80.8464343 114.428993,76.6939445 L122.905215,76.6939445 C124.631853,76.6939445 126.044556,75.16854 126.044556,73.3041569 L126.044556,63.1347941 C126.044556,61.2704109 124.631853,59.7450065 122.905215,59.7450065 Z M63.4146959,102.795309 C45.6774171,102.795309 31.2364467,87.202286 31.2364467,68.0499861 C31.2364467,48.8976861 45.6774171,33.3046632 63.4146959,33.3046632 C81.1519747,33.3046632 95.592945,48.8976861 95.592945,68.0499861 C95.592945,87.202286 81.2304582,102.795309 63.4146959,102.795309 Z"/>
          <ellipse cx="63.415" cy="68.05" fill="#4FB7EF" rx="32.178" ry="34.745"/>
        </g>
        <g transform="translate(62.914 72.033)">
          <path fill="#566CD3" d="M118.196203,0.42372345 L8.31925466,0.42372345 C4.00266026,0.42372345 0.470901207,4.2372345 0.470901207,8.89819245 L0.470901207,195.33651 C0.470901207,199.997468 4.00266026,203.810979 8.31925466,203.810979 L118.196203,203.810979 C122.512797,203.810979 126.044556,199.997468 126.044556,195.33651 L126.044556,8.89819245 C126.044556,4.2372345 122.512797,0.42372345 118.196203,0.42372345 Z"/>
          <rect width="31.393" height="4.237" x="47.561" y="8.474" fill="#372665"/>
          <g transform="translate(6.279 19.491)">
            <polygon fill="#FFF" points="35.004 2.966 111.133 2.966 111.133 162.286 35.004 162.286"/>
            <polygon fill="#E0E0E0" points="2.825 2.966 35.004 2.966 35.004 162.286 2.825 162.286"/>
            <path fill="#372665" d="M0.470901207,0.42372345 L0.470901207,164.828422 L113.487191,164.828422 L113.487191,0.42372345 L0.470901207,0.42372345 Z M111.132685,162.286081 L2.82540724,162.286081 L2.82540724,2.96606415 L111.132685,2.96606415 L111.132685,162.286081 Z"/>
            <g transform="translate(8.633 9.322)">
              <g fill="#CBCACC" transform="translate(2.355)">
                <polygon points=".471 .593 14.598 .593 14.598 3.559 .471 3.559"/>
                <polygon points=".471 8.22 14.598 8.22 14.598 11.186 .471 11.186"/>
                <polygon points=".471 15.847 14.598 15.847 14.598 18.813 .471 18.813"/>
              </g>
              <g transform="translate(0 26.27)">
                <path fill="#FFF" d="M3.21782492,19.9150022 C2.11905543,19.9150022 1.25573655,18.9828106 1.25573655,17.7963849 L1.25573655,3.3897876 C1.25573655,2.20336194 2.11905543,1.27117035 3.21782492,1.27117035 L16.5600258,1.27117035 C17.6587953,1.27117035 18.5221141,2.20336194 18.5221141,3.3897876 L18.5221141,17.7963849 C18.5221141,18.9828106 17.6587953,19.9150022 16.5600258,19.9150022 L3.21782492,19.9150022 Z"/>
                <path fill="#CBCACC" d="M16.5600258,0 L3.21782492,0 C1.49118716,0 0.0784835345,1.52540442 0.0784835345,3.3897876 L0.0784835345,17.7963849 C0.0784835345,19.6607681 1.49118716,21.1861725 3.21782492,21.1861725 L16.5600258,21.1861725 C18.2866635,21.1861725 19.6993672,19.6607681 19.6993672,17.7963849 L19.6993672,3.3897876 C19.6993672,1.52540442 18.2866635,0 16.5600258,0 Z M8.24077112,10.5930863 L2.43298957,16.8641933 L2.43298957,4.32197919 L8.24077112,10.5930863 Z M4.08114379,2.5423407 L15.6967069,2.5423407 L9.88892535,8.81344776 L4.08114379,2.5423407 Z M9.88892535,12.3727247 L15.6967069,18.6438318 L4.08114379,18.6438318 L9.88892535,12.3727247 Z M11.5370796,10.5930863 L17.3448611,4.32197919 L17.3448611,16.8641933 L11.5370796,10.5930863 Z"/>
              </g>
              <g transform="translate(0 55.084)">
                <path fill="#FFF" d="M3.21782492,19.9150022 C2.11905543,19.9150022 1.25573655,18.9828106 1.25573655,17.7963849 L1.25573655,3.3897876 C1.25573655,2.20336194 2.11905543,1.27117035 3.21782492,1.27117035 L16.5600258,1.27117035 C17.6587953,1.27117035 18.5221141,2.20336194 18.5221141,3.3897876 L18.5221141,17.7963849 C18.5221141,18.9828106 17.6587953,19.9150022 16.5600258,19.9150022 L3.21782492,19.9150022 Z"/>
                <path fill="#CBCACC" d="M16.5600258,0 L3.21782492,0 C1.49118716,0 0.0784835345,1.52540442 0.0784835345,3.3897876 L0.0784835345,17.7963849 C0.0784835345,19.6607681 1.49118716,21.1861725 3.21782492,21.1861725 L16.5600258,21.1861725 C18.2866635,21.1861725 19.6993672,19.6607681 19.6993672,17.7963849 L19.6993672,3.3897876 C19.6993672,1.52540442 18.2866635,0 16.5600258,0 Z M8.24077112,10.5930863 L2.43298957,16.8641933 L2.43298957,4.32197919 L8.24077112,10.5930863 Z M4.08114379,2.5423407 L15.6967069,2.5423407 L9.88892535,8.81344776 L4.08114379,2.5423407 Z M9.88892535,12.3727247 L15.6967069,18.6438318 L4.08114379,18.6438318 L9.88892535,12.3727247 Z M11.5370796,10.5930863 L17.3448611,4.32197919 L17.3448611,16.8641933 L11.5370796,10.5930863 Z"/>
              </g>
              <g transform="translate(0 83.897)">
                <path fill="#FFF" d="M3.21782492,19.9150022 C2.11905543,19.9150022 1.25573655,18.9828106 1.25573655,17.7963849 L1.25573655,3.3897876 C1.25573655,2.20336194 2.11905543,1.27117035 3.21782492,1.27117035 L16.5600258,1.27117035 C17.6587953,1.27117035 18.5221141,2.20336194 18.5221141,3.3897876 L18.5221141,17.7963849 C18.5221141,18.9828106 17.6587953,19.9150022 16.5600258,19.9150022 L3.21782492,19.9150022 Z"/>
                <path fill="#CBCACC" d="M16.5600258,0 L3.21782492,0 C1.49118716,0 0.0784835345,1.52540442 0.0784835345,3.3897876 L0.0784835345,17.7963849 C0.0784835345,19.6607681 1.49118716,21.1861725 3.21782492,21.1861725 L16.5600258,21.1861725 C18.2866635,21.1861725 19.6993672,19.6607681 19.6993672,17.7963849 L19.6993672,3.3897876 C19.6993672,1.52540442 18.2866635,0 16.5600258,0 Z M8.24077112,10.5930863 L2.43298957,16.8641933 L2.43298957,4.32197919 L8.24077112,10.5930863 Z M4.08114379,2.5423407 L15.6967069,2.5423407 L9.88892535,8.81344776 L4.08114379,2.5423407 Z M9.88892535,12.3727247 L15.6967069,18.6438318 L4.08114379,18.6438318 L9.88892535,12.3727247 Z M11.5370796,10.5930863 L17.3448611,4.32197919 L17.3448611,16.8641933 L11.5370796,10.5930863 Z"/>
              </g>
              <g transform="translate(0 112.71)">
                <path fill="#FFF" d="M3.21782492,19.9150022 C2.11905543,19.9150022 1.25573655,18.9828106 1.25573655,17.7963849 L1.25573655,3.3897876 C1.25573655,2.20336194 2.11905543,1.27117035 3.21782492,1.27117035 L16.5600258,1.27117035 C17.6587953,1.27117035 18.5221141,2.20336194 18.5221141,3.3897876 L18.5221141,17.7963849 C18.5221141,18.9828106 17.6587953,19.9150022 16.5600258,19.9150022 L3.21782492,19.9150022 Z"/>
                <path fill="#CBCACC" d="M16.5600258,0 L3.21782492,0 C1.49118716,0 0.0784835345,1.52540442 0.0784835345,3.3897876 L0.0784835345,17.7963849 C0.0784835345,19.6607681 1.49118716,21.1861725 3.21782492,21.1861725 L16.5600258,21.1861725 C18.2866635,21.1861725 19.6993672,19.6607681 19.6993672,17.7963849 L19.6993672,3.3897876 C19.6993672,1.52540442 18.2866635,0 16.5600258,0 Z M8.24077112,10.5930863 L2.43298957,16.8641933 L2.43298957,4.32197919 L8.24077112,10.5930863 Z M4.08114379,2.5423407 L15.6967069,2.5423407 L9.88892535,8.81344776 L4.08114379,2.5423407 Z M9.88892535,12.3727247 L15.6967069,18.6438318 L4.08114379,18.6438318 L9.88892535,12.3727247 Z M11.5370796,10.5930863 L17.3448611,4.32197919 L17.3448611,16.8641933 L11.5370796,10.5930863 Z"/>
              </g>
              <g transform="translate(33.748 2.542)">
                <g transform="translate(0 50)">
                  <rect width="58.078" height="38.983" x="1.648" y="1.271" fill="#E0E0E0"/>
                  <path fill="#CBCACC" d="M0.470901207,0 L0.470901207,41.5248981 L60.9032228,41.5248981 L60.9032228,0 L0.470901207,0 Z M58.5487167,38.9825574 L2.82540724,38.9825574 L2.82540724,2.5423407 L58.5487167,2.5423407 L58.5487167,38.9825574 Z"/>
                </g>
                <polygon fill="#E0E0E0" points="1.648 1.271 59.726 1.271 59.726 39.406 1.648 39.406"/>
                <path fill="#CBCACC" d="M0.470901207,0 L0.470901207,40.6774512 L60.9032228,40.6774512 L60.9032228,0 L0.470901207,0 Z M58.5487167,38.1351105 L2.82540724,38.1351105 L2.82540724,2.5423407 L58.5487167,2.5423407 L58.5487167,38.1351105 Z"/>
                <g transform="translate(0 100.846)">
                  <polygon fill="#E0E0E0" points="1.648 1.271 59.726 1.271 59.726 39.406 1.648 39.406"/>
                  <path fill="#CBCACC" d="M0.470901207,0 L0.470901207,40.6774512 L60.9032228,40.6774512 L60.9032228,0 L0.470901207,0 Z M28.4110395,20.3387256 L2.82540724,36.9486848 L2.82540724,3.64402167 L28.4110395,20.3387256 Z M5.65081448,2.5423407 L55.7233095,2.5423407 L30.687062,18.8133212 L5.65081448,2.5423407 Z M30.687062,21.7793853 L55.7233095,38.1351105 L5.57233095,38.1351105 L30.687062,21.7793853 Z M32.9630845,20.3387256 L58.5487167,3.72876636 L58.5487167,37.0334295 L32.9630845,20.3387256 Z"/>
                </g>
              </g>
            </g>
          </g>
        </g>
        <g transform="translate(89.599)">
          <g transform="translate(0 27.966)">
            <polygon fill="#8149E0" points="25.429 1.271 181.062 1.271 181.062 25 25.429 25"/>
            <polygon fill="#9979E2" points="25.429 9.152 181.062 9.152 181.062 17.203 25.429 17.203"/>
            <path fill="#E0E0E0" d="M191.264374,0.42372345 L181.846349,0.42372345 C181.375448,0.42372345 181.061514,0.76270221 181.061514,1.27117035 L181.061514,24.9996836 C181.061514,25.5081517 181.375448,25.8471305 181.846349,25.8471305 L191.264374,25.8471305 C191.735275,25.8471305 192.049209,25.5081517 192.049209,24.9996836 L192.049209,1.27117035 C192.049209,0.8474469 191.656791,0.42372345 191.264374,0.42372345 Z"/>
            <path fill="#DAAEE5" d="M204.606574,2.11861725 L192.049209,2.11861725 L192.049209,24.1522367 L204.606574,24.1522367 C206.333212,24.1522367 207.745916,22.6268322 207.745916,20.7624491 L207.745916,5.50840485 C207.745916,3.64402167 206.333212,2.11861725 204.606574,2.11861725 Z"/>
            <polygon fill="#8149E0" points="0 13.135 13.499 19.491 13.499 6.864"/>
            <polygon fill="#CBCACC" points="25.429 1.271 13.499 6.864 13.499 19.491 25.429 25"/>
          </g>
          <g transform="translate(114.586)">
            <path fill="#8149E0" d="M61.2171569,256.352687 L9.41802414,256.352687 C5.72929802,260.335688 3.68872612,262.53905 0,266.52205 L0,275.843966 L70.6351811,275.843966 L70.6351811,266.52205 C66.9464549,262.53905 64.905883,260.335688 61.2171569,256.352687 Z"/>
            <rect width="34.533" height="256.268" x="18.051" fill="#DAAEE5"/>
            <g fill="#8149E0" transform="translate(18.051 62.711)">
              <polygon points="0 174.744 12.793 174.744 12.793 179.828 0 179.828"/>
              <polygon points="0 149.913 12.793 149.913 12.793 154.998 0 154.998"/>
              <polygon points="0 125.083 12.793 125.083 12.793 130.168 0 130.168"/>
              <polygon points="0 100.168 12.793 100.168 12.793 105.253 0 105.253"/>
              <polygon points="0 75.338 12.793 75.338 12.793 80.423 0 80.423"/>
              <polygon points="0 50.508 12.793 50.508 12.793 55.593 0 55.593"/>
              <polygon points="0 25.593 12.793 25.593 12.793 30.678 0 30.678"/>
              <polygon points="0 .763 12.793 .763 12.793 5.847 0 5.847"/>
            </g>
            <ellipse cx="35.318" cy="41.101" fill="#E6C8ED" rx="7.064" ry="7.627"/>
          </g>
          <g transform="translate(34.533 52.542)">
            <g transform="translate(0 76.27)">
              <polygon fill="#75CCF2" points=".471 .169 80.838 .169 80.838 55.423 .471 55.423"/>
              <polygon fill="#FFF" points="5.494 47.033 52.113 47.033 52.113 49.745 5.494 49.745"/>
              <polygon fill="#FFF" points="60.668 47.033 75.815 47.033 75.815 49.745 60.668 49.745"/>
              <polygon fill="#E0E0E0" points="52.192 44.999 55.723 44.999 55.723 51.779 52.192 51.779"/>
              <ellipse cx="40.654" cy="24.406" fill="#E0E0E0" rx="14.912" ry="16.101"/>
              <polygon fill="#FFF" points="35.945 14.661 35.945 34.067 48.66 24.406"/>
            </g>
            <polygon fill="#75CCF2" points="53.212 .424 28.097 .424 32.021 8.898 49.288 8.898"/>
            <polygon fill="#4FB7EF" points="42.617 58.643 42.617 8.898 38.692 8.898 38.692 58.643 .471 76.44 10.438 76.44 40.654 62.372 70.949 76.44 80.838 76.44"/>
          </g>
        </g>
      </g>
      <g transform="translate(0 184.743)">
        <path fill="#372665" d="M73.6175554,122.201843 C74.4023907,124.998418 72.83272,127.964482 70.2427634,128.811929 C67.6528068,129.659376 64.905883,127.964482 64.1210477,125.167907 C63.3362124,122.371332 64.905883,119.405268 67.4958397,118.557821 C70.1642799,117.710374 72.83272,119.320524 73.6175554,122.201843 Z"/>
        <path fill="#372665" d="M88.2939763,123.218779 L70.3212469,128.727184 C68.4376421,129.320397 66.4755537,128.133971 65.926169,126.100099 C65.3767842,124.066226 66.7110043,118.812055 68.5946092,118.218843 L87.4306574,118.388332 C89.4712293,118.388332 90.6484824,121.184907 89.0788117,122.710311 C88.8433611,122.964545 88.5294269,123.134035 88.2939763,123.218779 Z"/>
        <path fill="#E0E0E0" d="M74.5593578 120.676439C74.009973 120.676439 73.6960389 120.083226 73.7745224 119.574758L74.2454236 117.540885C74.3239072 117.117162 74.7163249 116.862928 75.1087425 116.862928 75.6581273 116.862928 75.9720614 117.45614 75.8935779 117.964608L75.4226767 119.998481C75.3441931 120.422205 74.9517755 120.676439 74.5593578 120.676439zM77.227798 120.845928C76.6784132 120.845928 76.3644791 120.252715 76.4429626 119.744247L76.9138638 117.710374C76.9923474 117.286651 77.384765 117.032417 77.7771827 117.032417 78.3265674 117.032417 78.6405016 117.62563 78.562018 118.134098L78.0911168 120.16797C78.0126333 120.506949 77.6986992 120.845928 77.227798 120.845928z"/>
        <path fill="#4FB7EF" d="M63.4146959,85.9311157 L63.3362124,85.846371 L36.41636,68.7279436 L28.332556,78.1346042 L56.5866284,94.32084 L63.2577288,125.506886 L63.4931794,125.506886 L71.1060823,118.134098 L66.0046525,89.5751373 C65.6122349,88.0497329 64.748916,86.6938179 63.4146959,85.9311157 Z"/>
        <path fill="#372665" d="M9.18257354,133.727121 C9.18257354,136.354206 7.22048518,138.472823 4.70901207,138.472823 C2.2760225,138.472823 0.313934138,136.354206 0.313934138,133.642376 C0.313934138,131.015291 2.2760225,128.896674 4.78749561,128.896674 C7.22048518,128.896674 9.18257354,131.100035 9.18257354,133.727121 Z"/>
        <path fill="#372665" d="M21.6614555,138.557568 L4.86597914,138.557568 C3.06085785,138.557568 1.64815422,137.032164 1.64815422,135.083036 C1.64815422,133.133908 4.00266026,128.981418 5.72929802,128.981418 L21.9753897,134.235589 C23.780511,134.828802 24.0944451,137.540632 22.4462909,138.388079 C22.1323567,138.472823 21.8969061,138.557568 21.6614555,138.557568 Z"/>
        <path fill="#E0E0E0" d="M10.3598266 132.710185C9.88892535 132.540695 9.73195828 132.032227 9.96740888 131.523759L10.8307278 129.91361C10.9876948 129.574631 11.3801125 129.405142 11.6940466 129.574631 12.1649478 129.74412 12.3219149 130.252589 12.0864643 130.761057L11.2231454 132.371206C11.0661784 132.710185 10.6737607 132.794929 10.3598266 132.710185zM12.6358491 133.557631C12.1649478 133.388142 12.0079808 132.879674 12.2434314 132.371206L13.1067503 130.761057C13.2637173 130.422078 13.656135 130.252589 13.9700691 130.422078 14.4409704 130.591567 14.5979374 131.100035 14.3624868 131.608504L13.4991679 133.218653C13.3422009 133.472887 13.0282667 133.642376 12.6358491 133.557631z"/>
        <path fill="#4FB7EF" d="M40.2620532,64.4059644 L22.3678073,62.2873472 C21.2690379,63.6432622 19.9348178,67.8804967 19.5424001,69.7448799 C18.9145318,72.7956887 19.4639166,75.7617529 20.8766202,78.2193489 C22.2893238,80.6769449 24.5653463,82.5413281 27.3907535,83.2192856 C28.7249736,83.5582643 35.5530411,83.643009 38.6923825,80.3379661 C43.4013946,75.4227741 40.2620532,64.4059644 40.2620532,64.4059644 Z"/>
        <path fill="#4FB7EF" d="M29.1173913,74.7448166 L17.5803117,74.7448166 L21.9753897,104.320713 L2.58995664,128.727184 L12.6358491,131.777993 L31.1579632,109.32065 C32.0997656,108.218969 32.5706668,106.693565 32.3352162,105.083416 L29.1173913,74.7448166 Z"/>
        <path fill="#566CD3" d="M76.1290285,62.2026025 L49.5231103,61.6941343 C48.3458573,61.6941343 47.2470878,60.9314321 46.7761866,59.8297511 L36.3378765,37.3724083 L41.988691,34.3215995 L51.5636822,54.9145591 L76.2859955,55.3382826 L76.1290285,62.2026025 Z"/>
        <path fill="#FFF" d="M32.1782492,22.2878535 C32.1782492,22.2878535 33.9048869,26.9488114 37.593613,28.1352371 L37.8290636,22.0336194 L32.1782492,22.2878535 Z"/>
        <g transform="translate(27.47 4.237)">
          <polygon fill="#80272B" points="10.674 12.373 9.81 30.508 2.041 30.084 3.218 12.542 3.532 7.542"/>
          <path fill="#80272B" d="M13.1852338,23.0505557 C13.4991679,22.965811 14.1270362,22.7963216 14.3624868,22.7115769 C17.2663776,21.86413 20.0917848,16.6947039 20.0133013,13.7286398 C19.8563342,10.1693628 19.5424001,8.38972431 19.6993672,6.01687299 C19.9348178,2.71183008 17.030927,0.16948938 13.9700691,0.25423407 L7.76986992,0.50846814 C5.41536388,0.59321283 3.61024259,2.71183008 3.68872612,5.25417078 L4.08114379,16.1014911 C4.3165944,20.0844915 9.65347475,23.7285132 13.1852338,23.0505557 Z"/>
          <path fill="#E8E5ED" d="M0.392417673,25.5081517 C1.25573655,24.9149389 2.2760225,24.5759601 3.29630845,24.7454495 L6.74958397,25.1691729 C8.39773819,25.3386623 9.96740888,26.0166198 11.2231454,27.0335561 C7.69138638,28.1352371 3.37479198,27.7115136 0.392417673,25.5081517 Z"/>
        </g>
        <path fill="#566CD3" d="M22.5247744,36.8639402 C22.6817415,33.897876 25.114731,29.9996203 28.0186218,29.5758968 C33.041568,30.338599 37.5151295,30.5928331 39.1632837,31.1013012 C42.0671745,33.3046632 43.7938123,37.0334295 43.3229111,41.1011747 L42.8520098,74.6600719 C33.5124692,81.7786259 16.4030587,78.8973064 16.4030587,78.8973064 C16.4815422,64.4907091 22.2108403,42.6265791 22.5247744,36.8639402 Z"/>
        <path fill="#566CD3" d="M57.4499473,62.0331131 L35.7100082,62.2873472 C34.1403375,62.2873472 32.8061174,61.1009215 32.5706668,59.4060277 L28.9604242,33.5588972 L35.239107,32.541961 L38.3784484,55.4230273 L57.3714637,55.1687932 L57.4499473,62.0331131 Z"/>
        <path fill="#DAAEE5" d="M38.2999648,30.9318119 C36.8872612,30.5928331 34.3757881,30.5080884 30.2946443,29.9148756 C32.4921833,35.5927698 38.5354154,40.2537278 40.3405367,46.8638136 C41.2823392,45.8468773 41.2038556,33.1351738 38.2999648,30.9318119 Z"/>
        <path fill="#372665" d="M43.7153287 11.1015544C55.7233095 8.30497962 47.0901207.08474469 47.0901207.08474469 47.0901207.08474469 46.8546701 3.13555353 44.5001641 2.11861725 40.0266026.16948938 30.3731279-1.01693628 27.7046877 5.25417078 25.6641158 10.1693628 29.509809 20.8471937 30.2161608 23.6437685 31.3934138 22.7963216 30.3731279 10.2541075 35.3175905 10.7625756 37.9860307 11.1015544 41.0468886 11.7795119 43.7153287 11.1015544zM41.8317239 24.5759601C44.2647135 24.4912154 42.6950428 20.0844915 41.7532404 20.1692362 40.8899215 20.2539809 39.3987343 24.7454495 41.8317239 24.5759601z"/>
        <g fill="#8149E0" transform="translate(27.47 27.118)">
          <path d="M10.5952772,4.83044733 C10.3598266,4.49146857 9.49650768,3.89825574 9.49650768,3.55927698 C8.8686394,3.47453229 8.94712293,3.72876636 8.08380405,3.64402167 C10.5167936,6.10161768 9.10409,10.0846181 10.0458924,13.7286398 C11.301629,15.593023 12.3219149,17.5421508 12.9497832,19.7455128 C13.4991679,19.1522999 13.656135,14.9150654 13.2637173,11.0168097 C13.1067503,10.5930863 12.5573655,7.28804334 10.5952772,4.83044733 Z"/>
          <path d="M10.8307278,5.50840485 C10.5167936,5.9321283 9.18257354,6.18636237 8.79015587,5.84738361 C8.39773819,5.50840485 8.00532052,3.89825574 8.00532052,3.89825574 L10.8307278,3.55927698 C10.8307278,3.55927698 11.1446619,5.0846814 10.8307278,5.50840485 Z"/>
          <polygon points="6.514 6.949 .392 2.627 2.511 .169 9.732 3.644"/>
          <polygon points="11.616 5.254 11.223 3.814 10.046 2.542 9.575 3.644"/>
        </g>
        <path fill="#8149E0" d="M33.5909528,54.0671122 C33.5909528,53.30441 34.218821,52.6264525 34.9251729,52.6264525 L83.5064807,52.6264525 C84.5267667,52.6264525 85.3900856,53.30441 85.3900856,54.0671122 C85.3900856,54.8298144 84.5267667,55.507772 83.5064807,55.507772 L34.9251729,55.507772 C34.1403375,55.507772 33.5909528,54.8298144 33.5909528,54.0671122 Z"/>
        <path fill="#FFF" d="M31.6288644,54.0671122 C31.6288644,54.8298144 32.2567327,55.507772 33.041568,55.507772 L51.4851986,55.507772 C52.270034,55.507772 52.8979023,54.8298144 52.8979023,54.0671122 C52.8979023,53.30441 52.270034,52.6264525 51.4851986,52.6264525 L33.041568,52.6264525 C32.3352162,52.6264525 31.6288644,53.2196653 31.6288644,54.0671122 Z"/>
        <path fill="#FFF" d="M85.311602,25.423407 L85.311602,51.8637503 C85.311602,53.0501759 84.4482831,53.9823675 83.3495137,53.9823675 L51.0142974,53.9823675 C49.915528,53.9823675 49.0522091,53.0501759 49.0522091,51.8637503 L49.0522091,25.423407 C49.0522091,24.2369813 49.915528,23.3047898 51.0142974,23.3047898 L83.3495137,23.3047898 C84.4482831,23.3047898 85.311602,24.2369813 85.311602,25.423407 Z"/>
        <path fill="#8149E0" d="M86.8027892,25.423407 L86.8027892,51.8637503 C86.8027892,53.0501759 85.9394703,53.9823675 84.8407008,53.9823675 L52.5054846,53.9823675 C51.4067151,53.9823675 50.5433962,53.0501759 50.5433962,51.8637503 L50.5433962,25.423407 C50.5433962,24.2369813 51.4067151,23.3047898 52.5054846,23.3047898 L84.8407008,23.3047898 C85.9394703,23.3047898 86.8027892,24.2369813 86.8027892,25.423407 Z"/>
        <path fill="#FFF" d="M63.3362124,38.6435786 C63.3362124,37.3724083 64.2780148,36.355472 65.4552678,36.355472 L71.9694011,36.355472 C73.1466542,36.355472 74.0884566,37.3724083 74.0884566,38.6435786 C74.0884566,39.914749 73.1466542,40.9316853 71.9694011,40.9316853 L65.4552678,40.9316853 C64.2780148,40.9316853 63.3362124,39.914749 63.3362124,38.6435786 Z"/>
        <path fill="#80272B" d="M55.4093754 58.5585808C55.1739248 57.1179211 55.4878589 55.762006 56.1157272 54.5755804L64.2780148 53.0501759C65.2198172 53.8976228 65.926169 55.1687932 66.1616196 56.5247082 66.6325208 59.7450065 64.6704324 62.7110706 61.6880581 63.3042834 58.7056838 63.8974963 55.8802766 61.778879 55.4093754 58.5585808zM72.5972694 56.9484317C72.5187859 55.507772 72.83272 54.1518569 73.6175554 53.0501759L81.8583265 52.2874737C82.7216454 53.2196653 83.3495137 54.4908357 83.4279972 55.9314954 83.6634478 59.1517936 81.4659088 62.0331131 78.4835345 62.2873472 75.5011602 62.5415812 72.9112036 60.1687299 72.5972694 56.9484317z"/>
      </g>
      <g transform="translate(178.942)">
        <path fill="#372665" d="M37.9860307,23.3047898 C35.1606235,23.3047898 32.884601,19.3217893 32.884601,14.491342 C32.884601,9.66089466 35.239107,5.67789423 38.0645142,5.67789423 C40.8899215,5.67789423 43.165944,9.66089466 43.165944,14.491342 C43.165944,19.406534 40.8114379,23.3047898 37.9860307,23.3047898 Z"/>
        <path fill="#372665" d="M62.8653111,27.4572796 C59.5690027,25.423407 55.9587601,20.3387256 57.2929802,15.7625123 C60.5108051,5.25417078 52.9763858,1.44065973 49.2091761,0.67795752 C45.4419665,-0.08474469 42.145658,0.93219159 40.0266026,2.71183008 C36.6518106,5.67789423 37.6720966,10.7625756 39.5557014,14.8303208 C37.5151295,16.1014911 36.4948435,18.8980659 37.6720966,20.9319384 C40.2620532,25.423407 38.0645142,31.44028 36.4948435,34.999557 C33.9833704,40.7621959 37.436646,47.8807499 43.4798781,51.1010481 C49.4446267,54.3213463 57.2929802,53.9823675 63.3362124,51.1010481 C66.3185867,49.6603883 68.9870268,47.5417711 70.3997305,44.7451963 C73.3036212,38.7283233 69.0655104,31.2707906 62.8653111,27.4572796 Z"/>
        <path fill="#E8E5ED" d="M21.582972,67.7110073 C20.1702684,67.9652414 18.6790812,68.0499861 17.1094105,68.1347308 C15.9321575,68.1347308 14.9903551,67.2025392 14.9903551,65.9313688 C14.9903551,64.6601985 15.853674,63.6432622 17.030927,63.6432622 C24.3298957,63.3890281 29.8237431,61.1009215 33.3555022,56.6941976 C38.6923825,49.9993671 37.6720966,40.6774512 37.6720966,40.5927065 C37.5151295,39.3215362 38.3784484,38.2198552 39.4772179,38.0503658 C40.6544709,37.8808764 41.6747568,38.7283233 41.8317239,39.9994937 C41.9102074,40.4232171 43.0874604,51.3552821 36.5733271,59.5755171 C32.884601,63.982241 27.9401383,66.694071 21.582972,67.7110073 Z"/>
        <path fill="#75CCF2" d="M39.0848002,36.4402167 C37.1227118,36.7791955 35.7100082,38.7283233 36.0239423,40.7621959 C36.0239423,40.8469406 36.8872612,49.490899 32.0997656,55.5925166 C29.7452596,58.5585808 26.2919841,60.5077087 21.8969061,61.3551556 C23.1526427,63.7280069 23.3880933,66.694071 22.3678073,69.2364117 C28.8034572,68.1347308 33.9833704,65.2534113 37.593613,60.677198 C44.5001641,51.948495 43.2444275,40.3384724 43.2444275,39.8300043 C42.9304934,37.7113871 41.1253721,36.1859826 39.0848002,36.4402167 Z"/>
        <path fill="#E8E5ED" d="M43.2444275,29.8301309 L43.165944,32.3724716 C44.343197,32.2029822 45.8343842,31.6097694 46.6192195,30.6775778 L46.6192195,28.8131946 C45.5989336,29.4911521 44.4216805,29.9148756 43.2444275,29.8301309 Z"/>
        <g fill="#E8E5ED" transform="translate(33.748 5.085)">
          <path d="M5.96474862,35.1690464 C4.86597914,34.5758335 4.00266026,32.796195 5.33688035,31.1860459 C6.5926169,29.5758968 8.55470526,28.7284499 10.5952772,28.6437052 L11.1446619,28.6437052 C13.0282667,28.5589605 14.676421,29.4064074 15.7751904,30.8470672 C14.833388,33.8131313 8.8686394,36.355472 5.96474862,35.1690464 Z"/>
          <path d="M9.49650768,24.1522367 L9.41802414,26.6945774 L9.33954061,31.44028 L12.7143326,31.5250247 L12.7928161,25.423407 L12.8712997,23.0505557 C11.8510137,23.8132579 10.6737607,24.2369813 9.49650768,24.1522367 Z"/>
          <path d="M10.281343,26.1013645 C13.4991679,26.1013645 16.3245752,24.4064707 18.1296965,21.7793853 C19.385433,19.9997468 20.0917848,17.7116402 20.0917848,15.3387889 L20.0917848,11.1862991 C20.0917848,8.13549024 18.8360483,5.42366016 16.9524435,3.47453229 C15.1473222,1.6948938 12.7928161,0.59321283 10.124376,0.59321283 C8.39773819,0.59321283 6.74958397,1.10168097 5.33688035,1.94912787 C2.35450604,3.81351105 0.313934138,7.28804334 0.313934138,11.3557885 L0.313934138,15.5082783 C0.313934138,19.406534 2.2760225,22.7115769 5.10142974,24.5759601 C6.67110043,25.5928964 8.47622173,26.1013645 10.281343,26.1013645 Z"/>
        </g>
        <path fill="#372665" d="M36.5733271 65.8466241C35.3960741 71.2702843 38.613899 76.6939445 43.6368452 77.9651148 48.6597914 79.2362852 53.6827376 75.7617529 54.8599906 70.3380927 56.0372436 64.9144325 52.8194187 59.4907724 47.7964725 58.219602 42.6950428 56.9484317 37.6720966 60.422964 36.5733271 65.8466241zM43.4013946 25.5928964C43.165944 26.9488114 42.145658 27.9657477 40.8114379 27.9657477 39.5557014 27.9657477 38.4569319 27.0335561 38.2214813 25.6776411L43.4013946 25.5928964z"/>
        <path fill="#75CCF2" d="M34.6897223,41.9486216 C34.061854,43.8130047 35.8669753,45.7621326 37.6720966,46.0163667 C39.5557014,46.2706007 41.2038556,44.7451963 41.4393062,42.7960685 C41.6747568,40.7621959 38.8493496,36.355472 37.8290636,38.0503658 C36.8087777,39.5757702 35.239107,40.3384724 34.6897223,41.9486216 Z"/>
        <path fill="#75CCF2" d="M49.5231103,35.9317486 C50.3079456,36.9486848 50.8573304,38.2198552 50.9358139,39.6605149 C50.9358139,39.6605149 50.072495,56.2704742 54.3106059,63.8974963 L36.3378765,65.5076454 L36.8087777,42.5418344 C36.7302942,40.0842384 37.593613,37.8808764 39.0063167,36.2707273 C39.0848002,39.9994937 46.1483183,35.5927698 49.5231103,35.9317486 Z"/>
        <path fill="#DAAEE5" d="M37.436646,110.168097 C35.7884917,110.252842 34.9251729,111.947736 34.8466893,112.371459 C34.061854,114.998544 34.3757881,117.710374 32.8061174,122.117098 C31.7858315,125.167907 30.687062,125.76112 29.9807102,128.218716 C29.3528419,130.337333 31.1579632,131.015291 32.884601,130.252589 C33.5909528,129.998354 37.9075472,128.727184 37.9860307,124.913673 C38.0645142,122.201843 37.7505801,120.083226 38.5354154,117.710374 C39.3202508,115.337523 40.0266026,116.693438 40.2620532,117.371396 C40.4190203,117.879864 41.0468886,119.405268 41.2038556,119.828992 C41.2823392,119.998481 41.4393062,120.083226 41.5962733,119.998481 C41.7532404,119.913736 41.8317239,119.744247 41.7532404,119.490013 C41.5177898,118.981545 41.0468886,117.117162 40.8899215,114.74431 C40.8114379,111.947736 38.9278331,110.083352 37.436646,110.168097 Z"/>
        <path fill="#E8E5ED" d="M35.7100082,123.134035 C36.6518106,120.930673 37.6720966,114.151097 37.2011954,112.710438 C36.5733271,110.930799 33.1985351,110.846055 32.9630845,112.371459 C32.5706668,115.083289 33.6694363,119.828992 31.5503809,124.913673 C31.7858315,126.269588 34.6112387,125.76112 35.7100082,123.134035 Z"/>
        <path fill="#372665" d="M48.5813079,77.371902 L26.5274347,88.4734564 L28.6464901,83.1345409 L36.8087777,111.778246 C37.2796789,113.47314 36.41636,115.337523 34.7682058,115.930736 C33.1985351,116.439204 31.6288644,115.591757 31.0009961,113.981608 L20.9551037,86.0158604 C20.2487519,83.9819878 21.1120708,81.6938812 22.9171921,80.7616896 L23.0741591,80.6769449 L45.0495488,69.3211564 C47.1686042,68.2194755 49.6015938,69.2364117 50.6218798,71.4397737 C51.6421657,73.6431356 50.7788468,76.270221 48.5813079,77.371902 C48.6597914,77.371902 48.6597914,77.371902 48.5813079,77.371902 Z"/>
        <path fill="#DAAEE5" d="M22.6032579,101.18516 C21.1120708,100.422458 19.6208836,101.524139 19.3069495,101.863117 C17.5018282,103.812245 16.5600258,106.354586 13.2637173,109.490139 C11.0661784,111.608757 9.81044181,111.608757 8.08380405,113.47314 C6.5926169,114.998544 7.92683699,116.523949 9.81044181,116.778183 C10.5167936,116.862928 14.9118716,117.964608 16.6385093,114.659566 C17.8942459,112.286714 18.5221141,110.252842 20.2487519,108.557948 C21.9753897,106.863054 22.0538732,108.388459 21.9753897,109.151161 C21.8969061,109.659629 21.8184226,111.269778 21.7399391,111.778246 C21.7399391,111.947736 21.8184226,112.117225 22.0538732,112.117225 C22.2108403,112.117225 22.3678073,111.947736 22.4462909,111.778246 C22.4462909,111.185033 22.8387085,109.32065 23.7020274,107.117288 C24.8007969,104.405458 23.937478,101.863117 22.6032579,101.18516 Z"/>
        <path fill="#E8E5ED" d="M15.4612563,111.778246 C17.1878941,110.252842 21.1120708,104.829182 21.2690379,103.219032 C21.5044885,101.354649 18.5221141,99.4902661 17.6587953,100.846181 C16.1676081,103.049543 15.0688386,107.795246 10.9876948,111.185033 C10.6737607,112.540948 13.4206844,113.557885 15.4612563,111.778246 Z"/>
        <path fill="#372665" d="M47.0901207,78.1346042 L22.760225,76.7786891 L26.9198523,73.0499228 L21.8184226,102.45633 C21.5044885,104.235969 19.9348178,105.422394 18.2866635,105.083416 C16.7169929,104.744437 15.6182234,103.134288 15.853674,101.439394 L18.9930154,71.6940077 C19.228466,69.4906458 20.9551037,67.8804967 22.9956756,67.9652414 L23.1526427,67.9652414 L47.4825384,68.9821777 C49.7585609,69.0669224 51.5636822,71.1855396 51.4851986,73.6431356 C51.3282316,76.270221 49.4446267,78.2193489 47.0901207,78.1346042 C47.0901207,78.1346042 47.0901207,78.1346042 47.0901207,78.1346042 Z"/>
        <path fill="#E8E5ED" d="M48.8167585,68.1347308 C47.717989,68.3042201 46.6192195,68.4737095 45.3634829,68.5584542 C44.1862299,68.6431989 43.2444275,67.7110073 43.165944,66.439837 C43.0874604,65.1686666 43.9507793,64.1517303 45.1280323,64.0669856 C48.9737255,63.8127516 53.8397047,62.7958153 55.0954412,59.4060277 C57.0575296,54.0671122 50.3079456,44.4062176 47.717989,41.4401534 C46.9331536,40.5079618 47.0116372,39.0673021 47.8749561,38.2198552 C48.7382749,37.3724083 50.072495,37.457153 50.8573304,38.3893446 C52.0345834,39.7452596 62.3159264,52.202729 59.019618,61.1009215 C57.6069143,64.7449432 54.1536388,67.1177945 48.8167585,68.1347308 Z"/>
        <path fill="#75CCF2" d="M51.9560998,37.2029189 C51.092781,36.2707273 49.915528,35.7622592 48.6597914,36.0164933 C47.8749561,36.1859826 47.0901207,36.6097061 46.540736,37.2876636 C45.2849994,38.813068 45.4419665,41.1011747 46.697703,42.6265791 C49.6015938,46.0163667 55.1739248,54.6603251 53.6827376,58.7280702 C53.447287,59.4060277 52.8979023,59.9992405 52.1915505,60.5077087 C50.9358139,61.3551556 50.1509786,62.9653047 50.4649127,64.5754538 C50.4649127,64.5754538 50.4649127,64.6601985 50.4649127,64.6601985 C50.9358139,67.2025392 53.5257705,68.6431989 55.644826,67.3720286 C57.9208485,66.0161135 59.4905192,64.0669856 60.353838,61.6941343 C63.9640806,52.0332397 53.9966717,39.6605149 51.9560998,37.2029189 Z"/>
        <path fill="#E8E5ED" d="M36.4948435 65.9313688C36.5733271 67.2872839 37.1227118 68.4737095 37.9860307 69.3211564L45.5989336 68.6431989C46.3052854 67.6262626 46.6192195 66.3550923 46.540736 65.0839219 46.3052854 62.1178578 43.8722958 59.9144958 41.1253721 60.0839852 38.2999648 60.3382193 36.2593929 62.9653047 36.4948435 65.9313688zM10.5167936 66.9483051C10.5952772 68.3042201 11.0661784 69.4906458 11.8510137 70.4228374L19.4639166 70.0838586C20.1702684 69.0669224 20.562686 67.8804967 20.562686 66.5245817 20.4842025 63.5585175 18.1296965 61.1856662 15.3827728 61.3551556 12.5573655 61.4399003 10.3598266 63.982241 10.5167936 66.9483051z"/>
        <path fill="#372665" d="M55.4878589,14.0676185 C54.3890894,17.4574061 49.4446267,18.7285765 44.4216805,16.7794486 C39.3987343,14.9150654 36.2593929,10.5930863 37.3581624,7.20329865 C38.4569319,3.81351105 43.4013946,2.5423407 48.4243408,4.49146857 C53.447287,6.35585175 56.5866284,10.6778309 55.4878589,14.0676185 Z"/>
        <path fill="#566CD3" d="M50.2294621,69.0669224 C50.2294621,68.3042201 49.6800773,67.7110073 48.9737255,67.7110073 L3.45327552,67.7110073 C2.5114731,67.7110073 1.72663776,68.3042201 1.72663776,69.0669224 C1.72663776,69.8296246 2.5114731,70.4228374 3.45327552,70.4228374 L48.9737255,70.4228374 C49.6800773,70.4228374 50.2294621,69.7448799 50.2294621,69.0669224 Z"/>
        <path fill="#FFF" d="M51.9560998,69.0669224 C51.9560998,69.8296246 51.3282316,70.4228374 50.6218798,70.4228374 L33.3555022,70.4228374 C32.6491504,70.4228374 32.0212821,69.8296246 32.0212821,69.0669224 C32.0212821,68.3042201 32.6491504,67.7110073 33.3555022,67.7110073 L50.6218798,67.7110073 C51.4067151,67.7110073 51.9560998,68.3042201 51.9560998,69.0669224 Z"/>
        <path fill="#FFF" d="M1.80512129,42.2876003 L1.80512129,67.0330498 C1.80512129,68.1347308 2.66844017,69.0669224 3.68872612,69.0669224 L33.9833704,69.0669224 C35.0036564,69.0669224 35.8669753,68.1347308 35.8669753,67.0330498 L35.8669753,42.2876003 C35.8669753,41.1859193 35.0036564,40.2537278 33.9833704,40.2537278 L3.68872612,40.2537278 C2.58995664,40.2537278 1.80512129,41.1859193 1.80512129,42.2876003 Z"/>
        <path fill="#566CD3" d="M0.392417673,42.2876003 L0.392417673,67.0330498 C0.392417673,68.1347308 1.25573655,69.0669224 2.2760225,69.0669224 L32.5706668,69.0669224 C33.5909528,69.0669224 34.4542717,68.1347308 34.4542717,67.0330498 L34.4542717,42.2876003 C34.4542717,41.1859193 33.5909528,40.2537278 32.5706668,40.2537278 L2.2760225,40.2537278 C1.17725302,40.2537278 0.392417673,41.1859193 0.392417673,42.2876003 Z"/>
        <path fill="#FFF" d="M22.3678073,54.6603251 C22.3678073,53.4738994 21.5044885,52.5417078 20.405719,52.5417078 L14.3624868,52.5417078 C13.2637173,52.5417078 12.4003985,53.4738994 12.4003985,54.6603251 C12.4003985,55.8467507 13.2637173,56.7789423 14.3624868,56.7789423 L20.405719,56.7789423 C21.5044885,56.7789423 22.3678073,55.762006 22.3678073,54.6603251 Z"/>
      </g>
      <g transform="translate(277.047 157.625)">
        <path fill="#E8E5ED" d="M50.8573304 116.269715C50.4649127 115.083289 40.968405 87.7107542 40.968405 71.0160502L46.6192195 71.0160502C46.6192195 86.6938179 56.0372436 113.896863 56.1157272 114.151097L50.8573304 116.269715zM26.135017 93.7276271L16.7169929 76.6939445C16.3245752 76.0159869 16.2460916 75.0837953 16.4030587 74.3210931 16.6385093 73.5583909 17.1094105 72.8804334 17.8157623 72.45671L32.9630845 63.8127516 35.5530411 69.151667 23.0741591 76.270221 31.0009961 90.5920736 26.135017 93.7276271z"/>
        <path fill="#121F55" d="M53.5257705,9.49140528 C53.5257705,9.49140528 49.8370444,4.66095795 48.1104067,3.05080884 C45.0495488,0.16948938 42.4595922,3.3897876 42.4595922,3.3897876 C27.1553029,0.8474469 24.2514122,24.4912154 31.2364467,30.338599 C36.8872612,35.0843017 41.5962733,31.7792588 41.5962733,31.7792588 C41.5962733,31.7792588 44.8140982,34.3215995 49.6800773,35.1690464 C52.7409352,35.6775145 56.3511778,33.5588972 56.3511778,33.5588972 C56.3511778,33.5588972 60.5892886,36.8639402 63.8855971,31.9487481 C67.1819055,27.0335561 62.3159264,21.86413 59.7259698,21.86413 C59.7259698,21.86413 62.7868276,17.8811296 58.5487167,15.1692995 C56.9790461,14.1523632 53.5257705,9.49140528 53.5257705,9.49140528 Z"/>
        <path fill="#E8E5ED" d="M34.5327552,38.813068 C33.5124692,38.2198552 32.6491504,36.5249614 33.9048869,34.999557 C35.0821399,33.4741526 36.9657448,32.6267057 39.0063167,32.541961 L39.5557014,32.541961 C41.3608227,32.4572163 42.9304934,33.3046632 44.0292629,34.6605782 C43.165944,37.5418977 37.3581624,39.9994937 34.5327552,38.813068 Z"/>
        <path fill="#E8E5ED" d="M37.6720966,28.2199818 L37.593613,30.6775778 L37.5151295,35.253791 L40.8114379,35.3385357 L40.8899215,29.4911521 L40.968405,27.2030455 C39.9481191,27.881003 38.8493496,28.3047265 37.6720966,28.2199818 Z"/>
        <path fill="#E8E5ED" d="M37.6720966,28.2199818 L37.593613,30.6775778 C38.770866,30.5080884 40.1835697,29.9148756 40.8899215,28.982684 L40.8899215,27.1183008 C39.9481191,27.881003 38.8493496,28.3047265 37.6720966,28.2199818 Z"/>
        <path fill="#E8E5ED" d="M35.7884917,28.2199818 C38.5354154,29.7453862 41.6747568,29.6606415 44.2647135,28.2199818 C46.0698348,27.2877902 47.5610219,25.6776411 48.5028243,23.6437685 L50.1509786,19.9997468 C51.4067151,17.3726615 51.4851986,14.491342 50.6218798,11.9490013 C49.8370444,9.57614997 48.1888902,7.45753272 45.9913512,6.27110706 C44.5001641,5.42366016 42.9304934,5.0846814 41.3608227,5.16942609 C38.0645142,5.33891547 34.8466893,7.37278803 33.2770186,10.8473203 L31.6288644,14.491342 C30.0591937,17.7963849 30.3731279,21.609896 32.0212821,24.5759601 C32.884601,26.0166198 34.218821,27.3725349 35.7884917,28.2199818 Z"/>
        <path fill="#121F55" d="M46.3052854,17.6268955 C39.4772179,18.8133212 38.770866,10.8473203 39.1632837,7.6270221 C39.9481191,0.76270221 48.2673737,2.11861725 51.092781,5.50840485 C52.8979023,7.6270221 56.0372436,13.3049163 54.7030236,20.4234703 C53.3688035,27.5420243 46.6192195,31.9487481 46.6192195,31.9487481 C39.2417673,26.1013645 46.8546701,20.508215 46.8546701,20.508215 L46.3052854,17.6268955 Z"/>
        <path fill="#F7B75D" d="M31.5503809,63.4737728 C30.4516114,68.7279436 33.5124692,73.8973697 38.3784484,75.16854 C43.2444275,76.3549657 48.0319231,73.0499228 49.2091761,67.795752 C50.3079456,62.5415812 47.2470878,57.3721551 42.3811086,56.1009848 C37.5151295,54.9145591 32.6491504,58.219602 31.5503809,63.4737728 Z"/>
        <path fill="#121F55" d="M36.5733271,22.6268322 C35.8669753,23.6437685 34.5327552,23.9827473 33.4339857,23.3895344 C32.3352162,22.7963216 31.7858315,21.4404066 32.0997656,20.1692362 L36.5733271,22.6268322 Z"/>
        <path fill="#566CD3" d="M24.8792804 68.3889648C36.8087777 79.5752639 51.5636822 84.9989241 51.5636822 84.9989241 51.5636822 84.9989241 54.0751553 68.6431989 48.5028243 61.6093896 45.6774171 58.0501127 31.3149303 63.2195387 31.3149303 63.2195387L24.8792804 68.3889648zM29.7452596 40.4232171C29.1173913 42.2876003 30.8440291 44.0672388 32.6491504 44.3214729 34.4542717 44.4909623 36.1024259 43.1350472 36.2593929 41.1859193 36.4948435 39.2367915 33.7479198 34.999557 32.7276339 36.6097061 31.7858315 38.2198552 30.2946443 38.8978127 29.7452596 40.4232171z"/>
        <path fill="#566CD3" d="M44.0292629,34.6605782 C44.8140982,35.6775145 45.2849994,36.8639402 45.3634829,38.3045999 C45.3634829,38.3045999 44.5786476,54.3213463 48.5813079,61.6941343 C50.3079456,64.8296879 31.2364467,64.7449432 31.2364467,64.7449432 L31.7858315,41.1011747 C31.7073479,38.7283233 32.4921833,36.6097061 33.9048869,34.999557 C33.9833704,38.558834 40.8114379,34.3215995 44.0292629,34.6605782 Z"/>
        <path fill="#566CD3" d="M41.1253721,40.5079618 C37.7505801,40.5079618 14.9118716,39.3215362 2.19753897,8.98293714 L7.29896871,6.52534113 C19.1499824,34.8300676 40.3405367,34.4910888 41.2823392,34.4910888 L41.4393062,40.5927065 C41.4393062,40.5079618 41.3608227,40.5079618 41.1253721,40.5079618 Z"/>
        <path fill="#E8E5ED" d="M7.22048518,1.61014911 C6.20019923,0.93219159 5.02294621,0.67795752 3.92417673,0.93219159 L0.0784835345,7.71176679 C0.392417673,8.81344776 1.09876948,9.83038404 2.11905543,10.5083416 C4.39507793,12.033746 7.37745224,11.2710438 8.79015587,8.81344776 C10.2028595,6.35585175 9.49650768,3.13555353 7.22048518,1.61014911 Z"/>
        <g fill="#4FB7EF" transform="translate(15.697 89.83)">
          <path d="M11.6155631,5.59314954 C12.1649478,7.71176679 14.2055197,8.89819245 16.1676081,8.30497962 C18.1296965,7.71176679 19.228466,5.50840485 18.6790812,3.3897876 C18.1296965,1.27117035 16.0891246,0.08474469 14.1270362,0.67795752 C12.1649478,1.27117035 11.0661784,3.47453229 11.6155631,5.59314954 Z"/>
          <path d="M2.74692371,12.5422141 L16.0891246,8.30497962 C17.5018282,7.88125617 18.2866635,6.27110706 17.8942459,4.74570264 C17.5018282,3.22029822 14.7549045,0.50846814 13.3422009,0.93219159 L1.56967069,9.15242652 C0.235450604,10.0846181 0.627868276,12.2879801 2.11905543,12.6269588 C2.35450604,12.6269588 2.58995664,12.6269588 2.74692371,12.5422141 Z"/>
        </g>
        <g fill="#4FB7EF" transform="translate(42.381 112.71)">
          <path d="M8.8686394,6.94906458 C10.124376,8.64395838 12.4003985,8.98293714 14.0485527,7.6270221 C15.6182234,6.27110706 15.9321575,3.81351105 14.676421,2.03387256 C13.4206844,0.33897876 11.1446619,3.21964677e-15 9.49650768,1.35591504 C7.92683699,2.71183008 7.61290285,5.16942609 8.8686394,6.94906458 Z"/>
          <path d="M2.98237431,16.8641933 L13.9700691,7.71176679 C15.1473222,6.7795752 15.3827728,4.91519202 14.4409704,3.64402167 C13.5776515,2.37285132 10.0458924,0.93219159 8.8686394,1.86438318 L0.627868276,14.1523632 C-0.313934138,15.5082783 0.784835345,17.4574061 2.2760225,17.1184274 C2.58995664,17.1184274 2.74692371,17.0336827 2.98237431,16.8641933 Z"/>
        </g>
        <path fill="#4FB7EF" d="M37.2796789,62.7958153 C35.8669753,62.7958153 34.2973046,62.6263259 32.6491504,62.2873472 L32.8061174,61.4399003 C40.4975038,63.2195387 46.4622524,59.6602618 46.540736,59.6602618 L46.9331536,60.422964 C46.7761866,60.5077087 42.8520098,62.7958153 37.2796789,62.7958153 Z"/>
        <polygon fill="#E0E0E0" points="68.202 116.439 69.458 116.439 69.458 126.27 68.202 126.27"/>
        <polygon fill="#E0E0E0" points="53.526 127.202 54.782 127.202 54.782 142.795 53.526 142.795"/>
        <polygon fill="#E0E0E0" points="62.473 121.609 63.729 121.609 63.729 134.998 62.473 134.998"/>
        <polygon fill="#E0E0E0" points="62.473 105.168 63.729 105.168 63.729 112.965 62.473 112.965"/>
      </g>
    </g>
    <g fill-rule="nonzero" transform="translate(39 9)">
      <path fill="#DAAEE5" d="M30.2861592,110.866519 L48.171948,110.866519 C49.7344611,110.866519 51.1972394,110.171742 52.1613433,108.980696 C62.3010563,96.2431225 68.5511089,78.9067883 68.5511089,59.7838853 C68.5511089,35.9960527 58.8768253,14.9211579 44.0163279,2.05124565 C41.2569962,-0.330846073 37.201111,-0.330846073 34.4417792,2.05124565 C19.5812818,14.9211579 9.90699827,35.9629681 9.90699827,59.7838853 C9.90699827,78.8737037 16.1570509,96.2100379 26.2967639,108.980696 C27.2608677,110.171742 28.756891,110.866519 30.2861592,110.866519 Z"/>
      <path fill="#75CCF2" d="M54.6547153 106.300843C63.5311198 106.300843 70.8782561 112.785426 72.1748096 121.255086 72.3410344 122.446131 73.3383832 123.306331 74.5352018 123.306331L74.9008964 123.306331C76.031225 123.306331 77.0285738 122.512301 77.2612886 121.420509 77.8929428 118.376725 78.2253924 115.200602 78.2253924 111.958311 78.2253924 99.7831755 73.6043429 88.6998321 66.0577368 80.3294264 63.6308547 90.0232164 59.5417245 98.8568065 54.1892859 106.333928 54.3222657 106.333928 54.4884905 106.300843 54.6547153 106.300843zM23.8033918 106.300843C14.9269873 106.300843 7.57985103 112.785426 6.28329756 121.255086 6.11707276 122.446131 5.11972394 123.306331 3.92290536 123.306331L3.55721079 123.306331C2.42688213 123.306331 1.42953331 122.512301 1.19681858 121.420509.565164331 118.376725.232714725 115.200602.232714725 111.958311.232714725 99.7831755 4.85376426 88.6998321 12.4003703 80.3294264 14.8272525 90.0232164 18.9163826 98.8568065 24.2688213 106.333928 24.1358414 106.333928 23.9696166 106.300843 23.8033918 106.300843zM34.4750242 2.05124565C27.9590119 7.67562888 22.4735934 14.8880733 18.3179733 23.1923097L60.1068889 23.1923097C55.9512688 14.8880733 50.4658503 7.67562888 43.949838 2.05124565 41.2569962-.330846073 37.201111-.330846073 34.4750242 2.05124565z"/>
      <ellipse cx="39.227" cy="55.258" fill="#C311DE" rx="24.368" ry="24.251" transform="rotate(-45 39.227 55.258)"/>
      <ellipse cx="39.232" cy="54.598" fill="#C987D3" rx="24.369" ry="24.252" transform="rotate(-30.098 39.232 54.598)"/>
      <path fill="#75CCF2" d="M36.4697218,77.6164886 C36.0375373,77.5503194 35.7050877,77.1533041 35.7715777,76.7232042 C35.8380676,76.2931043 36.2037622,75.9622583 36.6691916,76.0284275 C37.1013761,76.0945967 37.4338257,76.4585274 37.3673358,76.9217119 C37.3340908,77.3187272 36.9683962,77.6164886 36.5694567,77.6164886 C36.5362118,77.6164886 36.5029668,77.6164886 36.4697218,77.6164886 Z M41.1905062,76.9217119 C41.1240163,76.491612 41.4564659,76.0945967 41.8886504,76.0284275 C42.3208349,75.9622583 42.7197744,76.2931043 42.7862644,76.7232042 C42.8527543,77.1533041 42.5203047,77.5503194 42.0881202,77.6164886 C42.0548752,77.6164886 42.0216303,77.6164886 41.9883853,77.6164886 C41.5894458,77.6164886 41.2237512,77.3187272 41.1905062,76.9217119 Z M31.0175483,76.2931043 C30.6186088,76.1276813 30.385894,75.6644968 30.5521188,75.2674815 C30.7183436,74.8704662 31.1837731,74.638874 31.5827126,74.804297 C31.9816521,74.9697201 32.2143669,75.3998199 32.0481421,75.8299198 C31.9151622,76.1607659 31.6159576,76.326189 31.283508,76.326189 C31.1837731,76.326189 31.0840382,76.326189 31.0175483,76.2931043 Z M46.476455,75.7968352 C46.3102302,75.3998199 46.5429449,74.9366354 46.9418844,74.7712124 C47.340824,74.6057894 47.8062534,74.804297 47.9724782,75.2343969 C48.138703,75.6314122 47.9392333,76.0945967 47.5070488,76.2600197 C47.4073139,76.2931043 47.307579,76.326189 47.2078441,76.326189 C46.9086395,76.326189 46.6094348,76.1276813 46.476455,75.7968352 Z M26.0308042,73.6794204 C25.6651096,73.4147435 25.5653747,72.9184744 25.8313344,72.5876283 C26.0972941,72.2236977 26.5627236,72.1244438 26.9284181,72.3891207 C27.2941127,72.6537975 27.3938476,73.116982 27.1278879,73.4809127 C26.9616631,73.712505 26.7289484,73.8117588 26.4629887,73.8117588 C26.3300088,73.8448434 26.163784,73.7786742 26.0308042,73.6794204 Z M51.3634642,73.4809127 C51.0975045,73.116982 51.1972394,72.6207129 51.562934,72.3891207 C51.9286285,72.1244438 52.4273029,72.2236977 52.6600177,72.5876283 C52.9259774,72.951559 52.8262425,73.4478281 52.4605479,73.6794204 C52.3275681,73.7786742 52.1613433,73.8117588 51.9951185,73.8117588 C51.7624037,73.8117588 51.529689,73.6794204 51.3634642,73.4809127 Z M21.8419391,70.007029 C21.5427345,69.6761829 21.5759795,69.1799138 21.9084291,68.8821523 C22.2408787,68.5843909 22.7395531,68.6174755 23.0387577,68.9483215 C23.3379624,69.2791676 23.3047174,69.7754367 22.9722678,70.0731982 C22.806043,70.2055366 22.6398182,70.2717058 22.4403484,70.2717058 C22.2076337,70.2717058 21.974919,70.172452 21.8419391,70.007029 Z M55.5523293,70.0401136 C55.2198796,69.7423521 55.1866347,69.246083 55.4858393,68.9152369 C55.785044,68.5843909 56.2837184,68.5513062 56.616168,68.8490677 C56.9486176,69.1468292 56.9818626,69.6430983 56.6826579,69.9739444 C56.5164331,70.1393674 56.3169633,70.2386212 56.0842486,70.2386212 C55.8847789,70.2386212 55.7185541,70.172452 55.5523293,70.0401136 Z M18.617178,65.4082686 C18.4177082,65.0112533 18.550688,64.5480688 18.9496276,64.3495611 C19.3485671,64.1510535 19.8139965,64.2833919 20.0134663,64.6804072 C20.2129361,65.0774225 20.0799562,65.540607 19.6810167,65.7391146 C19.5480369,65.8052838 19.448302,65.8383684 19.3153221,65.8383684 C19.0493625,65.8383684 18.7834028,65.6729454 18.617178,65.4082686 Z M58.7770904,65.70603 C58.3781509,65.5075224 58.2451711,65.0112533 58.4446408,64.6473226 C58.6441106,64.2503073 59.142785,64.1179689 59.5084796,64.3164765 C59.9074191,64.5149842 60.0403989,65.0112533 59.8409292,65.3751839 C59.7079493,65.6398608 59.4087447,65.8052838 59.142785,65.8052838 C59.0430501,65.8052838 58.9100703,65.7721992 58.7770904,65.70603 Z M16.6224803,60.1809006 C16.5227454,59.7508007 16.7887051,59.3207008 17.1876447,59.221447 C17.6198291,59.1221932 18.0520136,59.38687 18.1517485,59.7838853 C18.2514834,60.2139852 17.9855237,60.6440851 17.5865842,60.7433389 C17.5200943,60.7433389 17.4536043,60.7764235 17.3871144,60.7764235 C17.0546648,60.7764235 16.7222152,60.5448313 16.6224803,60.1809006 Z M60.9047679,60.7102543 C60.4725834,60.6110005 60.2066237,60.1809006 60.3396036,59.7508007 C60.4393385,59.3207008 60.871523,59.056024 61.3037074,59.1552778 C61.7358919,59.2545316 62.0018516,59.6846315 61.8688718,60.1147314 C61.7691369,60.4786621 61.4699322,60.7102543 61.1042377,60.7102543 C61.0045028,60.7433389 60.9380129,60.7433389 60.9047679,60.7102543 Z M15.9575811,54.6557712 C15.9575811,54.2256713 16.3232757,53.8617406 16.7554602,53.8617406 C17.1876447,53.8617406 17.5533392,54.2256713 17.5533392,54.6557712 C17.5533392,55.0858711 17.1876447,55.4498018 16.7554602,55.4498018 C16.2900307,55.4498018 15.9575811,55.0858711 15.9575811,54.6557712 Z M60.9380129,54.589602 C60.9380129,54.589602 60.9380129,54.5565174 60.9380129,54.5565174 C60.9380129,54.5565174 60.9380129,54.5234328 60.9380129,54.5234328 C60.9380129,54.0933329 61.3037074,53.7294022 61.7358919,53.7294022 C62.1680764,53.7294022 62.533771,54.0933329 62.533771,54.5234328 C62.533771,54.5234328 62.533771,54.5565174 62.533771,54.589602 C62.533771,54.589602 62.533771,54.6226866 62.533771,54.6226866 C62.533771,55.0527865 62.1680764,55.4167172 61.7358919,55.4167172 C61.3037074,55.3836326 60.9380129,55.0197019 60.9380129,54.589602 Z M17.1876447,50.0570108 C16.7554602,49.957757 16.4895005,49.5276571 16.5892354,49.0975572 C16.6889702,48.6674573 17.1211547,48.4027804 17.5533392,48.5020342 C17.9855237,48.6012881 18.2514834,49.031388 18.1517485,49.4614879 C18.0520136,49.8254185 17.752809,50.0570108 17.3871144,50.0570108 C17.3206245,50.0900954 17.2541346,50.0570108 17.1876447,50.0570108 Z M60.2731137,49.362234 C60.1733788,48.9321341 60.4393385,48.5020342 60.838278,48.4027804 C61.2704625,48.3035266 61.702647,48.5682035 61.8023819,48.9652187 C61.9021167,49.3953186 61.6361571,49.8254185 61.2372175,49.9246724 C61.1707276,49.9246724 61.1042377,49.957757 61.0377478,49.957757 C60.7052982,49.957757 60.3728485,49.6930801 60.2731137,49.362234 Z M18.9163826,44.9288967 C18.5174431,44.730389 18.3844632,44.2341199 18.583933,43.8701892 C18.7834028,43.4731739 19.2820772,43.3408355 19.6477717,43.5393432 C20.0467113,43.7378508 20.1796911,44.2341199 19.9802214,44.5980506 C19.8472415,44.8627274 19.5480369,45.0281505 19.2820772,45.0281505 C19.1490973,45.0281505 19.0493625,44.9950659 18.9163826,44.9288967 Z M58.4113959,44.4987968 C58.2119261,44.1017815 58.3449059,43.638597 58.7438455,43.4400893 C59.142785,43.2415817 59.6082145,43.3739201 59.8076842,43.7709354 C60.007154,44.1679507 59.8741741,44.6311352 59.4752346,44.8296428 C59.3422548,44.8958121 59.2425199,44.9288967 59.10954,44.9288967 C58.8435804,44.8958121 58.5443757,44.7634736 58.4113959,44.4987968 Z M21.8419391,40.3963055 C21.5094895,40.098544 21.4762446,39.6022749 21.7754492,39.2714288 C22.0746539,38.9405827 22.5733283,38.9074981 22.9057779,39.2052596 C23.2382275,39.5030211 23.2714725,39.9992902 22.9722678,40.3301363 C22.806043,40.4955593 22.6065732,40.5948131 22.3738585,40.5948131 C22.1743888,40.5948131 21.974919,40.5286439 21.8419391,40.3963055 Z M55.4193494,40.2308824 C55.1201448,39.9000364 55.1533897,39.4037672 55.4858393,39.1060058 C55.8182889,38.8082443 56.3169633,38.8413289 56.616168,39.172175 C56.9153726,39.5030211 56.8821277,39.9992902 56.5496781,40.2970516 C56.3834533,40.4293901 56.2172285,40.4955593 56.0177587,40.4955593 C55.8182889,40.4955593 55.5855742,40.3963055 55.4193494,40.2308824 Z M25.7648445,36.6577448 C25.4988848,36.2938142 25.5986197,35.7975451 25.9643143,35.5659528 C26.3300088,35.3012759 26.8286832,35.4005298 27.061398,35.7644604 C27.3273577,36.1283911 27.2276228,36.6246602 26.8619282,36.8562525 C26.7289484,36.9555063 26.5627236,36.9885909 26.3964988,36.9885909 C26.163784,36.9885909 25.8978243,36.8893371 25.7648445,36.6577448 Z M51.4964441,36.7900833 C51.1307495,36.5254064 51.0310146,36.0622219 51.2969743,35.6982912 C51.529689,35.3343606 52.0283634,35.2351067 52.394058,35.4997836 C52.7597526,35.7313758 52.8594874,36.227645 52.5935278,36.5915756 C52.4273029,36.8231679 52.1945882,36.9224217 51.9286285,36.9224217 C51.7956487,36.9224217 51.6294239,36.8893371 51.4964441,36.7900833 Z M30.452384,33.9778917 C30.2861592,33.5808764 30.4856289,33.1176919 30.9178134,32.9522688 C31.3167529,32.7868458 31.7821824,32.9853534 31.9484072,33.4154533 C32.114632,33.8124686 31.9151622,34.2756531 31.4829777,34.4410762 C31.3832429,34.4741608 31.283508,34.5072454 31.1837731,34.5072454 C30.8845684,34.4741608 30.5853638,34.2756531 30.452384,33.9778917 Z M46.8753945,34.3749069 C46.476455,34.2094839 46.2437403,33.779384 46.4099651,33.3492841 C46.5761899,32.9522688 47.0083744,32.7206766 47.4405589,32.8860996 C47.8394984,33.0515227 48.0722131,33.4816225 47.9059883,33.9117224 C47.7730085,34.2425685 47.4738038,34.4079916 47.1745992,34.4079916 C47.0416193,34.4410762 46.9418844,34.4079916 46.8753945,34.3749069 Z M35.6718428,32.4890843 C35.6053529,32.0589844 35.9378025,31.6619691 36.369987,31.5957999 C36.8021714,31.5296307 37.201111,31.8604768 37.2676009,32.2905767 C37.3340908,32.7206766 37.0016412,33.1176919 36.5694567,33.1838611 C36.5362118,33.1838611 36.5029668,33.1838611 36.4697218,33.1838611 C36.0707823,33.1838611 35.7050877,32.8860996 35.6718428,32.4890843 Z M41.7889155,33.1507765 C41.3567311,33.1176919 41.0242814,32.7206766 41.0907714,32.2574921 C41.1572613,31.8273922 41.5229559,31.4965461 41.9883853,31.5627153 C42.4205698,31.6288845 42.7530194,31.9928152 42.6865295,32.4559997 C42.6532845,32.853015 42.28759,33.1507765 41.8886504,33.1507765 C41.8554055,33.1507765 41.8221605,33.1507765 41.7889155,33.1507765 Z"/>
      <g fill="#C987D3" transform="translate(21.942 19.85)">
        <path d="M1.03059378 1.98507644C.764634095 1.98507644.49867441 1.88582261.332449607 1.68731497.132979843 1.48880733.0332449607 1.25721508.0332449607.992538218.0332449607.72786136.132979843.463184502.332449607.297761465.698144174-.0661692145 1.36304339-.0661692145 1.72873795.297761465 1.92820772.496269109 2.0279426.72786136 2.0279426.992538218 2.0279426 1.25721508 1.92820772 1.52189193 1.72873795 1.68731497 1.56251315 1.85273801 1.29655347 1.98507644 1.03059378 1.98507644zM5.51866347.992538218C5.51866347.430099894 5.95084796 0 6.51601229 0 7.08117662 0 7.51336111.430099894 7.51336111.992538218 7.51336111 1.55497654 7.08117662 1.98507644 6.51601229 1.98507644 5.98409292 1.98507644 5.51866347 1.52189193 5.51866347.992538218zM27.4270925.992538218C27.4270925.430099894 27.859277 0 28.4244414 0 28.9896057 0 29.4217902.430099894 29.4217902.992538218 29.4217902 1.55497654 28.9896057 1.98507644 28.4244414 1.98507644 27.892522 1.98507644 27.4270925 1.52189193 27.4270925.992538218zM21.941674.992538218C21.941674.430099894 22.3738585 0 22.9390229 0 23.5041872 0 23.9363717.430099894 23.9363717.992538218 23.9363717 1.55497654 23.5041872 1.98507644 22.9390229 1.98507644 22.4071035 1.98507644 21.941674 1.52189193 21.941674.992538218zM16.4895005.992538218C16.4895005.430099894 16.921685 0 17.4868493 0 18.0520136 0 18.4841981.430099894 18.4841981.992538218 18.4841981 1.55497654 18.0520136 1.98507644 17.4868493 1.98507644 16.921685 1.98507644 16.4895005 1.52189193 16.4895005.992538218zM11.004082.992538218C11.004082.430099894 11.4362665 0 12.0014308 0 12.5665951 0 12.9987796.430099894 12.9987796.992538218 12.9987796 1.55497654 12.5665951 1.98507644 12.0014308 1.98507644 11.4362665 1.98507644 11.004082 1.52189193 11.004082.992538218zM33.9098599 1.98507644C33.6439002 1.98507644 33.3779405 1.88582261 33.2117157 1.68731497 33.0122459 1.48880733 32.912511 1.25721508 32.912511.992538218 32.912511.72786136 33.0122459.463184502 33.2117157.297761465 33.5774103-.0661692145 34.2423095-.0661692145 34.608004.297761465 34.8074738.496269109 34.9072087.72786136 34.9072087.992538218 34.9072087 1.25721508 34.8074738 1.52189193 34.608004 1.68731497 34.4417792 1.85273801 34.1758196 1.98507644 33.9098599 1.98507644z"/>
      </g>
      <path fill="#C987D3" d="M17.9855237 23.8870864L60.5058284 23.8870864C60.4060935 23.6554942 60.2731137 23.4239019 60.1401338 23.1923097L18.3512183 23.1923097C18.2182384 23.4239019 18.0852586 23.6554942 17.9855237 23.8870864zM10.8378572 82.215249C13.0985145 91.1150084 16.6889702 99.319991 21.3100198 106.499351 22.1411438 106.400097 22.9722678 106.333928 23.8366368 106.333928 24.0028616 106.333928 24.1690864 106.333928 24.3353112 106.333928 18.9828725 98.8898911 14.8937424 90.056301 12.4668602 80.3294264 11.868451 80.958034 11.3365316 81.5535569 10.8378572 82.215249zM66.0244919 80.3294264C63.5976097 90.0232164 59.5084796 98.8568065 54.1560409 106.333928 54.3222657 106.333928 54.4884905 106.333928 54.6547153 106.333928 55.5190843 106.333928 56.3502083 106.400097 57.1813323 106.499351 61.8023819 99.319991 65.3928376 91.148093 67.6534949 82.215249 67.1215756 81.5866415 66.5896562 80.958034 66.0244919 80.3294264z"/>
      <g fill="#A2C5B1" transform="translate(34.063 124.997)">
        <g transform="translate(.173 .738)">
          <path d="M.598409292 18.7920569C.398939528 18.7920569.265959685 18.6597185.265959685 18.4612109L.265959685 2.97761465C.265959685 2.77910701.398939528 2.64676858.598409292 2.64676858.797879056 2.64676858.930858898 2.77910701.930858898 2.97761465L.930858898 18.4612109C.930858898 18.6266339.764634095 18.7920569.598409292 18.7920569zM5.11972394 17.7333495C4.92025418 17.7333495 4.78727433 17.6010111 4.78727433 17.4025034L4.78727433.595522931C4.78727433.397015287 4.92025418.264676858 5.11972394.264676858 5.3191937.264676858 5.45217355.397015287 5.45217355.595522931L5.45217355 17.4025034C5.45217355 17.6010111 5.3191937 17.7333495 5.11972394 17.7333495zM9.67428355 18.7920569C9.47481379 18.7920569 9.34183394 18.6597185 9.34183394 18.4612109L9.34183394 6.28607538C9.34183394 6.08756774 9.47481379 5.95522931 9.67428355 5.95522931 9.87375331 5.95522931 10.0067332 6.08756774 10.0067332 6.28607538L10.0067332 18.4612109C10.0067332 18.6266339 9.87375331 18.7920569 9.67428355 18.7920569z"/>
        </g>
      </g>
      <path fill="#8149E0" d="M38.4245255,109.688707 C20.0400623,109.688707 14.8870934,98.4730251 10.4322687,79.5817143 C12.0945167,95.0322259 17.8458949,108.894676 26.3233598,119.581004 C27.2874637,120.77205 28.750242,121.466827 30.3127551,121.466827 L48.198544,121.466827 C49.7278121,121.466827 51.2238354,120.77205 52.1879392,119.581004 C61.9287127,107.3397 68.0457855,90.8635654 68.5444599,72.6670314 C64.8875142,95.0653105 56.8089888,109.688707 38.4245255,109.688707 Z"/>
    </g>
  </g>
</svg>
