<svg xmlns="http://www.w3.org/2000/svg" width="370" height="347" viewBox="0 0 370 347">
  <defs>
    <linearGradient id="how-we-work-5-a" x1=".014%" x2="100.012%" y1="50.009%" y2="50.009%">
      <stop offset="0%" stop-color="#CB88D2"/>
      <stop offset="26.69%" stop-color="#C887D3"/>
      <stop offset="47.83%" stop-color="#BE85D7"/>
      <stop offset="67.05%" stop-color="#AD81DD"/>
      <stop offset="85.02%" stop-color="#967BE6"/>
      <stop offset="100%" stop-color="#7C75F0"/>
    </linearGradient>
  </defs>
  <g fill="none">
    <path fill="url(#how-we-work-5-a)" d="M347.478261,140.144771 C351.982609,155.600638 356.486957,172.619458 358.819565,189.811939 C360.026087,198.40818 360.669565,207.00442 360.508696,215.426999 C359.865217,238.6108 355.2,261.447277 336.458696,277.771451 C277.902174,327.785942 191.354348,363.647027 115.263043,336.469013 C106.897826,333.777261 99.5782609,329.95671 93.1434783,325.267851 C86.7086957,320.665824 81.1586957,315.195489 76.3326087,309.117339 C67.8869565,292.879995 57.35,275.948006 47.9391304,258.668694 C43.1934783,249.985623 38.7695652,241.215721 34.9086957,232.358988 C15.7652174,197.27938 22.7630435,156.034792 59.1195652,131.027546 C105.932609,98.379198 138.75,61.4761449 179.691304,26.6570289 C208.969565,1.64978355 248.784783,-1.64978355 284.336957,9.55137845 C294.793478,13.024607 304.928261,17.8871269 314.258696,24.4862611 C321.256522,29.0882889 326.806522,34.6454545 331.069565,40.7236045 C335.332609,46.8017544 338.38913,53.57455 340.480435,60.6078378 C344.663043,74.5007519 345.869565,89.6961267 346.432609,105.238824 C347.076087,116.353156 347.317391,127.988471 347.478261,140.144771 Z"/>
    <g transform="translate(41.022 48.625)">
      <g transform="translate(24.13 106.802)">
        <path fill="#75CCF2" d="M125.96087,61.2156528 L117.273913,61.2156528 C116.71087,57.0477785 115.665217,52.966735 114.217391,49.0593529 L121.697826,44.3704944 C123.226087,43.4153566 123.78913,41.2445887 122.904348,39.5948052 L118.078261,30.564411 C117.193478,28.9146275 115.182609,28.3068125 113.654348,29.2619503 L106.173913,33.9508088 C103.76087,30.6512417 101.026087,27.6989975 97.9695652,25.0940761 L102.313043,17.0188198 C103.197826,15.3690362 102.634783,13.1982684 101.106522,12.2431306 L92.7413043,7.03328776 C91.2130435,6.07814992 89.2021739,6.68596491 88.3173913,8.33574846 L83.973913,16.4110048 C80.4347826,14.9348827 76.6543478,13.8060834 72.7130435,13.1982684 L72.7130435,3.82055138 C72.7130435,1.91027569 71.2652174,0.347322853 69.4956522,0.347322853 L59.8434783,0.347322853 C58.073913,0.347322853 56.626087,1.91027569 56.626087,3.82055138 L56.626087,13.1982684 C52.7652174,13.8060834 48.9847826,14.9348827 45.3652174,16.4110048 L41.0217391,8.33574846 C40.1369565,6.68596491 38.126087,6.07814992 36.5978261,7.03328776 L28.2326087,12.2431306 C26.7043478,13.1982684 26.1413043,15.3690362 27.026087,17.0188198 L31.3695652,25.0940761 C28.3130435,27.6989975 25.5782609,30.6512417 23.1652174,33.9508088 L15.6847826,29.2619503 C14.1565217,28.3068125 12.1456522,28.9146275 11.2608696,30.564411 L6.43478261,39.5948052 C5.55,41.2445887 6.11304348,43.4153566 7.64130435,44.3704944 L15.1217391,49.0593529 C13.7543478,52.8799043 12.7086957,56.9609478 12.0652174,61.2156528 L3.37826087,61.2156528 C1.60869565,61.2156528 0.160869565,62.7786056 0.160869565,64.6888813 L0.160869565,75.1085669 C0.160869565,77.0188426 1.60869565,78.5817954 3.37826087,78.5817954 L12.0652174,78.5817954 C12.6282609,82.7496696 13.673913,86.8307131 15.1217391,90.7380952 L7.64130435,95.4269537 C6.11304348,96.3820916 5.55,98.5528594 6.43478261,100.202643 L11.2608696,109.233037 C12.1456522,110.882821 14.1565217,111.490636 15.6847826,110.535498 L23.1652174,105.846639 C25.5782609,109.146206 28.3130435,112.098451 31.3695652,114.703372 L27.026087,122.778628 C26.1413043,124.428412 26.7043478,126.59918 28.2326087,127.554318 L36.5978261,132.76416 C38.126087,133.719298 40.1369565,133.111483 41.0217391,131.4617 L45.3652174,123.386443 C48.9043478,124.862566 52.6847826,125.991365 56.626087,126.68601 L56.626087,136.063728 C56.626087,137.974003 58.073913,139.536956 59.8434783,139.536956 L69.4956522,139.536956 C71.2652174,139.536956 72.7130435,137.974003 72.7130435,136.063728 L72.7130435,126.68601 C76.573913,126.078195 80.3543478,124.949396 83.973913,123.386443 L88.3173913,131.4617 C89.2021739,133.111483 91.2130435,133.719298 92.7413043,132.76416 L101.106522,127.554318 C102.634783,126.59918 103.197826,124.428412 102.313043,122.778628 L97.9695652,114.703372 C101.026087,112.098451 103.76087,109.146206 106.173913,105.846639 L113.654348,110.535498 C115.182609,111.490636 117.193478,110.882821 118.078261,109.233037 L122.904348,100.202643 C123.78913,98.5528594 123.226087,96.3820916 121.697826,95.4269537 L114.217391,90.7380952 C115.584783,86.9175439 116.630435,82.8365003 117.273913,78.5817954 L125.96087,78.5817954 C127.730435,78.5817954 129.178261,77.0188426 129.178261,75.1085669 L129.178261,64.6888813 C129.178261,62.7786056 127.730435,61.2156528 125.96087,61.2156528 Z M64.9913043,105.325655 C46.8130435,105.325655 32.0130435,89.3488038 32.0130435,69.7250627 C32.0130435,50.1013215 46.8130435,34.1244703 64.9913043,34.1244703 C83.1695652,34.1244703 97.9695652,50.1013215 97.9695652,69.7250627 C97.9695652,89.3488038 83.25,105.325655 64.9913043,105.325655 Z"/>
        <ellipse cx="64.991" cy="69.725" fill="#4FB7EF" rx="32.978" ry="35.601"/>
      </g>
      <g transform="translate(88.478 73.806)">
        <path fill="#566CD3" d="M121.134783,0.434153566 L8.52608696,0.434153566 C4.10217391,0.434153566 0.482608696,4.34153566 0.482608696,9.11722488 L0.482608696,200.144794 C0.482608696,204.920483 4.10217391,208.827865 8.52608696,208.827865 L121.134783,208.827865 C125.558696,208.827865 129.178261,204.920483 129.178261,200.144794 L129.178261,9.11722488 C129.178261,4.34153566 125.558696,0.434153566 121.134783,0.434153566 Z"/>
        <rect width="32.174" height="4.342" x="48.743" y="8.683" fill="#372665"/>
        <g transform="translate(6.435 19.971)">
          <rect width="78.022" height="163.242" x="35.874" y="3.039" fill="#FFF"/>
          <rect width="32.978" height="163.242" x="2.896" y="3.039" fill="#E0E0E0"/>
          <path fill="#372665" d="M0.482608696,0.434153566 L0.482608696,168.885737 L116.308696,168.885737 L116.308696,0.434153566 L0.482608696,0.434153566 Z M113.895652,166.280816 L2.89565217,166.280816 L2.89565217,3.03907496 L113.895652,3.03907496 L113.895652,166.280816 Z"/>
          <g transform="translate(8.848 9.551)">
            <g fill="#CBCACC" transform="translate(2.413)">
              <rect width="14.478" height="3.039" x=".483" y=".608"/>
              <rect width="14.478" height="3.039" x=".483" y="8.423"/>
              <rect width="14.478" height="3.039" x=".483" y="16.237"/>
            </g>
            <g transform="translate(0 26.918)">
              <path fill="#FFF" d="M3.29782609,20.4052176 C2.17173913,20.4052176 1.28695652,19.4500797 1.28695652,18.2344498 L1.28695652,3.47322853 C1.28695652,2.25759854 2.17173913,1.3024607 3.29782609,1.3024607 L16.9717391,1.3024607 C18.0978261,1.3024607 18.9826087,2.25759854 18.9826087,3.47322853 L18.9826087,18.2344498 C18.9826087,19.4500797 18.0978261,20.4052176 16.9717391,20.4052176 L3.29782609,20.4052176 Z"/>
              <path fill="#CBCACC" d="M16.9717391,0 L3.29782609,0 C1.52826087,0 0.0804347826,1.56295284 0.0804347826,3.47322853 L0.0804347826,18.2344498 C0.0804347826,20.1447254 1.52826087,21.7076783 3.29782609,21.7076783 L16.9717391,21.7076783 C18.7413043,21.7076783 20.1891304,20.1447254 20.1891304,18.2344498 L20.1891304,3.47322853 C20.1891304,1.56295284 18.7413043,0 16.9717391,0 Z M8.44565217,10.8538391 L2.49347826,17.2793119 L2.49347826,4.42836637 L8.44565217,10.8538391 Z M4.1826087,2.60492139 L16.0869565,2.60492139 L10.1347826,9.03039417 L4.1826087,2.60492139 Z M10.1347826,12.6772841 L16.0869565,19.1027569 L4.1826087,19.1027569 L10.1347826,12.6772841 Z M11.823913,10.8538391 L17.776087,4.42836637 L17.776087,17.2793119 L11.823913,10.8538391 Z"/>
            </g>
            <g transform="translate(0 56.44)">
              <path fill="#FFF" d="M3.29782609,20.4052176 C2.17173913,20.4052176 1.28695652,19.4500797 1.28695652,18.2344498 L1.28695652,3.47322853 C1.28695652,2.25759854 2.17173913,1.3024607 3.29782609,1.3024607 L16.9717391,1.3024607 C18.0978261,1.3024607 18.9826087,2.25759854 18.9826087,3.47322853 L18.9826087,18.2344498 C18.9826087,19.4500797 18.0978261,20.4052176 16.9717391,20.4052176 L3.29782609,20.4052176 Z"/>
              <path fill="#CBCACC" d="M16.9717391,0 L3.29782609,0 C1.52826087,0 0.0804347826,1.56295284 0.0804347826,3.47322853 L0.0804347826,18.2344498 C0.0804347826,20.1447254 1.52826087,21.7076783 3.29782609,21.7076783 L16.9717391,21.7076783 C18.7413043,21.7076783 20.1891304,20.1447254 20.1891304,18.2344498 L20.1891304,3.47322853 C20.1891304,1.56295284 18.7413043,0 16.9717391,0 Z M8.44565217,10.8538391 L2.49347826,17.2793119 L2.49347826,4.42836637 L8.44565217,10.8538391 Z M4.1826087,2.60492139 L16.0869565,2.60492139 L10.1347826,9.03039417 L4.1826087,2.60492139 Z M10.1347826,12.6772841 L16.0869565,19.1027569 L4.1826087,19.1027569 L10.1347826,12.6772841 Z M11.823913,10.8538391 L17.776087,4.42836637 L17.776087,17.2793119 L11.823913,10.8538391 Z"/>
            </g>
            <g transform="translate(0 85.962)">
              <path fill="#FFF" d="M3.29782609,20.4052176 C2.17173913,20.4052176 1.28695652,19.4500797 1.28695652,18.2344498 L1.28695652,3.47322853 C1.28695652,2.25759854 2.17173913,1.3024607 3.29782609,1.3024607 L16.9717391,1.3024607 C18.0978261,1.3024607 18.9826087,2.25759854 18.9826087,3.47322853 L18.9826087,18.2344498 C18.9826087,19.4500797 18.0978261,20.4052176 16.9717391,20.4052176 L3.29782609,20.4052176 Z"/>
              <path fill="#CBCACC" d="M16.9717391,0 L3.29782609,0 C1.52826087,0 0.0804347826,1.56295284 0.0804347826,3.47322853 L0.0804347826,18.2344498 C0.0804347826,20.1447254 1.52826087,21.7076783 3.29782609,21.7076783 L16.9717391,21.7076783 C18.7413043,21.7076783 20.1891304,20.1447254 20.1891304,18.2344498 L20.1891304,3.47322853 C20.1891304,1.56295284 18.7413043,0 16.9717391,0 Z M8.44565217,10.8538391 L2.49347826,17.2793119 L2.49347826,4.42836637 L8.44565217,10.8538391 Z M4.1826087,2.60492139 L16.0869565,2.60492139 L10.1347826,9.03039417 L4.1826087,2.60492139 Z M10.1347826,12.6772841 L16.0869565,19.1027569 L4.1826087,19.1027569 L10.1347826,12.6772841 Z M11.823913,10.8538391 L17.776087,4.42836637 L17.776087,17.2793119 L11.823913,10.8538391 Z"/>
            </g>
            <g transform="translate(0 115.485)">
              <path fill="#FFF" d="M3.29782609,20.4052176 C2.17173913,20.4052176 1.28695652,19.4500797 1.28695652,18.2344498 L1.28695652,3.47322853 C1.28695652,2.25759854 2.17173913,1.3024607 3.29782609,1.3024607 L16.9717391,1.3024607 C18.0978261,1.3024607 18.9826087,2.25759854 18.9826087,3.47322853 L18.9826087,18.2344498 C18.9826087,19.4500797 18.0978261,20.4052176 16.9717391,20.4052176 L3.29782609,20.4052176 Z"/>
              <path fill="#CBCACC" d="M16.9717391,0 L3.29782609,0 C1.52826087,0 0.0804347826,1.56295284 0.0804347826,3.47322853 L0.0804347826,18.2344498 C0.0804347826,20.1447254 1.52826087,21.7076783 3.29782609,21.7076783 L16.9717391,21.7076783 C18.7413043,21.7076783 20.1891304,20.1447254 20.1891304,18.2344498 L20.1891304,3.47322853 C20.1891304,1.56295284 18.7413043,0 16.9717391,0 Z M8.44565217,10.8538391 L2.49347826,17.2793119 L2.49347826,4.42836637 L8.44565217,10.8538391 Z M4.1826087,2.60492139 L16.0869565,2.60492139 L10.1347826,9.03039417 L4.1826087,2.60492139 Z M10.1347826,12.6772841 L16.0869565,19.1027569 L4.1826087,19.1027569 L10.1347826,12.6772841 Z M11.823913,10.8538391 L17.776087,4.42836637 L17.776087,17.2793119 L11.823913,10.8538391 Z"/>
            </g>
            <g transform="translate(34.587 2.605)">
              <g transform="translate(0 51.23)">
                <polygon fill="#E0E0E0" points="1.689 1.302 61.211 1.302 61.211 41.245 1.689 41.245"/>
                <path fill="#CBCACC" d="M0.482608696,0 L0.482608696,42.5470494 L62.4173913,42.5470494 L62.4173913,0 L0.482608696,0 Z M60.0043478,39.942128 L2.89565217,39.942128 L2.89565217,2.60492139 L60.0043478,2.60492139 L60.0043478,39.942128 Z"/>
              </g>
              <rect width="59.522" height="39.074" x="1.689" y="1.302" fill="#E0E0E0"/>
              <path fill="#CBCACC" d="M0.482608696,0 L0.482608696,41.6787423 L62.4173913,41.6787423 L62.4173913,0 L0.482608696,0 Z M60.0043478,39.0738209 L2.89565217,39.0738209 L2.89565217,2.60492139 L60.0043478,2.60492139 L60.0043478,39.0738209 Z"/>
              <g transform="translate(0 103.329)">
                <rect width="59.522" height="39.074" x="1.689" y="1.302" fill="#E0E0E0"/>
                <path fill="#CBCACC" d="M0.482608696,0 L0.482608696,41.6787423 L62.4173913,41.6787423 L62.4173913,0 L0.482608696,0 Z M29.1173913,20.8393712 L2.89565217,37.8581909 L2.89565217,3.73372067 L29.1173913,20.8393712 Z M5.79130435,2.60492139 L57.1086957,2.60492139 L31.45,19.2764183 L5.79130435,2.60492139 Z M31.45,22.3154933 L57.1086957,39.0738209 L5.71086957,39.0738209 L31.45,22.3154933 Z M33.7826087,20.8393712 L60.0043478,3.82055138 L60.0043478,37.9450216 L33.7826087,20.8393712 Z"/>
              </g>
            </g>
          </g>
        </g>
      </g>
      <g transform="translate(0 7.815)">
        <path fill="#CBCACC" d="M67.2434783,19.4500797 C67.1630435,19.4500797 67.0021739,19.4500797 66.9217391,19.4500797 C65.876087,15.3690362 62.4978261,12.416792 58.3956522,12.416792 C57.5108696,12.416792 56.626087,12.5904534 55.8217391,12.8509455 C54.8565217,5.90448849 49.3065217,0.694645705 42.6304348,0.694645705 C37.0804348,0.694645705 32.3347826,4.34153566 30.323913,9.55137845 L30.323913,33.5166553 L67.2434783,33.5166553 C70.8630435,33.5166553 73.7586957,30.3907496 73.7586957,26.4833675 C73.6782609,22.5759854 70.7826087,19.4500797 67.2434783,19.4500797 Z"/>
        <path fill="#E0E0E0" d="M6.9173913 28.9146275C6.99782609 28.9146275 7.15869565 28.9146275 7.23913043 28.9146275 8.36521739 24.6599225 11.9043478 21.5340169 16.2478261 21.5340169 17.2130435 21.5340169 18.0978261 21.7076783 18.9021739 21.9681704 19.9478261 14.6743905 25.7391304 9.11722488 32.8173913 9.11722488 38.6891304 9.11722488 43.676087 12.9377763 45.7673913 18.4081112 46.3304348 18.2344498 46.973913 18.147619 47.6173913 18.147619 51.9608696 18.147619 55.5 21.9681704 55.5 26.6570289 55.5 27.6989975 55.3391304 28.7409661 54.9369565 29.6961039 58.2347826 29.956596 60.8891304 32.995671 60.8891304 36.6425609 60.8891304 40.4631123 57.9934783 43.589018 54.4543478 43.589018L6.83695652 43.589018C3.05652174 43.589018 5.68434189e-14 40.2894509 5.68434189e-14 36.2084074.0804347826 32.2141946 3.13695652 28.9146275 6.9173913 28.9146275zM110.356522 68.8567555C110.276087 68.8567555 110.195652 68.8567555 110.115217 68.8567555 109.230435 65.4703577 106.334783 62.8654363 102.876087 62.8654363 102.152174 62.8654363 101.428261 62.952267 100.704348 63.2127592 99.8195652 57.3951014 95.1543478 52.8799043 89.523913 52.8799043 84.8586957 52.8799043 80.7565217 56.00581 79.0673913 60.3473456 78.5847826 60.2605149 78.1021739 60.1736842 77.6195652 60.1736842 74.0804348 60.1736842 71.2652174 63.2127592 71.2652174 67.0333105 71.2652174 67.9016177 71.426087 68.6830941 71.6673913 69.4645705 69.0130435 69.6382319 66.8413043 72.0694919 66.8413043 75.0217362 66.8413043 78.1476418 69.173913 80.5789018 71.9891304 80.5789018L110.356522 80.5789018C113.413043 80.5789018 115.826087 77.8871497 115.826087 74.6744133 115.826087 71.5485076 113.413043 68.8567555 110.356522 68.8567555z"/>
      </g>
      <g transform="translate(115.826)">
        <g transform="translate(0 28.654)">
          <rect width="159.502" height="24.313" x="26.061" y="1.302" fill="#8149E0"/>
          <polygon fill="#9979E2" points="26.061 9.378 185.563 9.378 185.563 17.627 26.061 17.627"/>
          <path fill="#E0E0E0" d="M196.019565,0.434153566 L186.367391,0.434153566 C185.884783,0.434153566 185.563043,0.781476418 185.563043,1.3024607 L185.563043,25.6150604 C185.563043,26.1360447 185.884783,26.4833675 186.367391,26.4833675 L196.019565,26.4833675 C196.502174,26.4833675 196.823913,26.1360447 196.823913,25.6150604 L196.823913,1.3024607 C196.823913,0.868307131 196.421739,0.434153566 196.019565,0.434153566 Z"/>
          <path fill="#DAAEE5" d="M209.693478,2.17076783 L196.823913,2.17076783 L196.823913,24.7467532 L209.693478,24.7467532 C211.463043,24.7467532 212.91087,23.1838004 212.91087,21.2735247 L212.91087,5.64399635 C212.91087,3.73372067 211.463043,2.17076783 209.693478,2.17076783 Z"/>
          <polygon fill="#8149E0" points="0 13.459 13.835 19.971 13.835 7.033"/>
          <polygon fill="#CBCACC" points="26.061 1.302 13.835 7.033 13.835 19.971 26.061 25.615"/>
        </g>
        <g transform="translate(117.435)">
          <path fill="#8149E0" d="M62.7391304,262.662907 L9.65217391,262.662907 C5.87173913,266.743951 3.78043478,269.001549 0,273.082593 L0,282.633971 L72.3913043,282.633971 L72.3913043,273.082593 C68.6108696,269.001549 66.5195652,266.743951 62.7391304,262.662907 Z"/>
          <rect width="35.391" height="262.576" x="18.5" fill="#DAAEE5"/>
          <g fill="#8149E0" transform="translate(18.5 64.255)">
            <polygon points="0 179.045 13.111 179.045 13.111 184.255 0 184.255"/>
            <polygon points="0 153.604 13.111 153.604 13.111 158.813 0 158.813"/>
            <polygon points="0 128.162 13.111 128.162 13.111 133.372 0 133.372"/>
            <polygon points="0 102.634 13.111 102.634 13.111 107.844 0 107.844"/>
            <polygon points="0 77.193 13.111 77.193 13.111 82.402 0 82.402"/>
            <polygon points="0 51.751 13.111 51.751 13.111 56.961 0 56.961"/>
            <polygon points="0 26.223 13.111 26.223 13.111 31.433 0 31.433"/>
            <polygon points="0 .781 13.111 .781 13.111 5.991 0 5.991"/>
          </g>
          <ellipse cx="36.196" cy="42.113" fill="#E6C8ED" rx="7.239" ry="7.815"/>
        </g>
        <g transform="translate(35.391 53.835)">
          <g transform="translate(0 78.148)">
            <polygon fill="#75CCF2" points=".483 .174 82.848 .174 82.848 56.787 .483 56.787"/>
            <polygon fill="#FFF" points="5.63 48.191 53.409 48.191 53.409 50.97 5.63 50.97"/>
            <polygon fill="#FFF" points="62.176 48.191 77.7 48.191 77.7 50.97 62.176 50.97"/>
            <polygon fill="#E0E0E0" points="53.489 46.107 57.109 46.107 57.109 53.054 53.489 53.054"/>
            <ellipse cx="41.665" cy="25.007" fill="#E0E0E0" rx="15.283" ry="16.498"/>
            <polygon fill="#FFF" points="36.839 15.022 36.839 34.906 49.87 25.007"/>
          </g>
          <polygon fill="#75CCF2" points="54.535 .434 28.796 .434 32.817 9.117 50.513 9.117"/>
          <polygon fill="#4FB7EF" points="43.676 60.087 43.676 9.117 39.654 9.117 39.654 60.087 .483 78.321 10.698 78.321 41.665 63.907 72.713 78.321 82.848 78.321"/>
        </g>
      </g>
    </g>
    <g transform="translate(0 189.291)">
      <path fill="#372665" d="M75.4478261,125.209888 C76.2521739,128.075302 74.6434783,131.114377 71.9891304,131.982684 C69.3347826,132.850991 66.5195652,131.114377 65.7152174,128.248963 C64.9108696,125.38355 66.5195652,122.344475 69.173913,121.476168 C71.9086957,120.607861 74.6434783,122.257644 75.4478261,125.209888 Z"/>
      <path fill="#372665" d="M90.4891304,126.251857 L72.0695652,131.895853 C70.1391304,132.503668 68.1282609,131.288038 67.5652174,129.204101 C67.0021739,127.120164 68.3695652,121.73666 70.3,121.128845 L89.6043478,121.302506 C91.6956522,121.302506 92.9021739,124.16792 91.2934783,125.730873 C91.0521739,125.991365 90.7304348,126.165026 90.4891304,126.251857 Z"/>
      <path fill="#E0E0E0" d="M76.4130435 123.646936C75.85 123.646936 75.5282609 123.039121 75.6086957 122.518136L76.0913043 120.434199C76.1717391 120.000046 76.573913 119.739553 76.976087 119.739553 77.5391304 119.739553 77.8608696 120.347368 77.7804348 120.868353L77.2978261 122.95229C77.2173913 123.386443 76.8152174 123.646936 76.4130435 123.646936zM79.1478261 123.820597C78.5847826 123.820597 78.2630435 123.212782 78.3434783 122.691798L78.826087 120.607861C78.9065217 120.173707 79.3086957 119.913215 79.7108696 119.913215 80.273913 119.913215 80.5956522 120.52103 80.5152174 121.042014L80.0326087 123.125951C79.9521739 123.473274 79.6304348 123.820597 79.1478261 123.820597z"/>
      <path fill="#4FB7EF" d="M64.9913043,88.0463431 L64.9108696,87.9595124 L37.3217391,70.4197084 L29.0369565,80.0579175 L57.9934783,96.6425837 L64.8304348,128.596286 L65.0717391,128.596286 L72.873913,121.042014 L67.6456522,91.7800638 C67.2434783,90.217111 66.3586957,88.8278195 64.9913043,88.0463431 Z"/>
      <path fill="#372665" d="M9.41086957,137.018865 C9.41086957,139.710617 7.4,141.881385 4.82608696,141.881385 C2.3326087,141.881385 0.32173913,139.710617 0.32173913,136.932035 C0.32173913,134.240283 2.3326087,132.069515 4.90652174,132.069515 C7.4,132.069515 9.41086957,134.327113 9.41086957,137.018865 Z"/>
      <path fill="#372665" d="M22.2,141.968216 L4.98695652,141.968216 C3.13695652,141.968216 1.68913043,140.405263 1.68913043,138.408157 C1.68913043,136.41105 4.10217391,132.156345 5.87173913,132.156345 L22.5217391,137.53985 C24.3717391,138.147665 24.6934783,140.926247 23.0043478,141.794555 C22.6826087,141.881385 22.4413043,141.968216 22.2,141.968216 Z"/>
      <path fill="#E0E0E0" d="M10.6173913 135.976897C10.1347826 135.803235 9.97391304 135.282251 10.2152174 134.761267L11.1 133.111483C11.2608696 132.76416 11.6630435 132.590499 11.9847826 132.76416 12.4673913 132.937822 12.6282609 133.458806 12.3869565 133.97979L11.5021739 135.629574C11.3413043 135.976897 10.9391304 136.063728 10.6173913 135.976897zM12.95 136.845204C12.4673913 136.671542 12.3065217 136.150558 12.5478261 135.629574L13.4326087 133.97979C13.5934783 133.632468 13.9956522 133.458806 14.3173913 133.632468 14.8 133.806129 14.9608696 134.327113 14.7195652 134.848098L13.8347826 136.497881C13.673913 136.758373 13.3521739 136.932035 12.95 136.845204z"/>
      <path fill="#4FB7EF" d="M41.2630435,65.991342 L22.923913,63.8205742 C21.7978261,65.2098656 20.4304348,69.5514012 20.0282609,71.4616769 C19.3847826,74.5875826 19.9478261,77.6266576 21.3956522,80.1447482 C22.8434783,82.6628389 25.176087,84.5731146 28.0717391,85.2677603 C29.4391304,85.6150832 36.4369565,85.7019139 39.6543478,82.3155161 C44.4804348,77.2793347 41.2630435,65.991342 41.2630435,65.991342 Z"/>
      <path fill="#4FB7EF" d="M29.8413043,76.584689 L18.0173913,76.584689 L22.5217391,106.888608 L2.65434783,131.895853 L12.95,135.021759 L31.9326087,112.01162 C32.8978261,110.882821 33.3804348,109.319868 33.1391304,107.670084 L29.8413043,76.584689 Z"/>
      <path fill="#566CD3" d="M78.0217391,63.7337434 L50.7543478,63.2127592 C49.5478261,63.2127592 48.4217391,62.4312828 47.9391304,61.3024835 L37.2413043,38.2923445 L43.0326087,35.1664388 L52.8456522,56.2663021 L78.1826087,56.7004557 L78.0217391,63.7337434 Z"/>
      <path fill="#FFF" d="M32.9782609,22.8364776 C32.9782609,22.8364776 34.7478261,27.6121668 38.5282609,28.8277968 L38.7695652,22.5759854 L32.9782609,22.8364776 Z"/>
      <g transform="translate(28.152 4.342)">
        <polygon fill="#80272B" points="10.939 12.677 10.054 31.259 2.091 30.825 3.298 12.851 3.62 7.728"/>
        <path fill="#80272B" d="M13.5130435,23.617954 C13.8347826,23.5311233 14.4782609,23.3574618 14.7195652,23.2706311 C17.6956522,22.402324 20.5913043,17.1056505 20.5108696,14.0665755 C20.35,10.4196856 20.0282609,8.5962406 20.1891304,6.16498063 C20.4304348,2.77858282 17.4543478,0.173661426 14.3173913,0.260492139 L7.96304348,0.520984279 C5.55,0.607814992 3.7,2.77858282 3.78043478,5.38350422 L4.1826087,16.4978355 C4.42391304,20.578879 9.89347826,24.3125997 13.5130435,23.617954 Z"/>
        <path fill="#E8E5ED" d="M0.402173913,26.1360447 C1.28695652,25.5282297 2.3326087,25.1809068 3.37826087,25.3545682 L6.9173913,25.7887218 C8.60652174,25.9623832 10.2152174,26.6570289 11.5021739,27.6989975 C7.8826087,28.8277968 3.45869565,28.3936432 0.402173913,26.1360447 Z"/>
      </g>
      <path fill="#566CD3" d="M23.0847826,37.7713602 C23.2456522,34.7322853 25.7391304,30.7380725 28.7152174,30.3039189 C33.8630435,31.0853953 38.4478261,31.3458874 40.1369565,31.8668717 C43.1130435,34.1244703 44.8826087,37.9450216 44.4,42.1128959 L43.9173913,76.4978583 C34.3456522,83.7916382 16.8108696,80.8393939 16.8108696,80.8393939 C16.8913043,66.0781727 22.7630435,43.6758487 23.0847826,37.7713602 Z"/>
      <path fill="#566CD3" d="M58.8782609,63.560082 L36.5978261,63.8205742 C34.9891304,63.8205742 33.6217391,62.6049442 33.3804348,60.8683299 L29.6804348,34.3849624 L36.1152174,33.3429938 L39.3326087,56.7872864 L58.7978261,56.5267943 L58.8782609,63.560082 Z"/>
      <path fill="#DAAEE5" d="M39.2521739,31.6932103 C37.8043478,31.3458874 35.2304348,31.2590567 31.0478261,30.6512417 C33.3,36.4688995 39.4934783,41.2445887 41.3434783,48.0173844 C42.3086957,46.9754158 42.2282609,33.9508088 39.2521739,31.6932103 Z"/>
      <path fill="#372665" d="M44.8021739 11.3748234C57.1086957 8.50940989 48.2608696.0868307131 48.2608696.0868307131 48.2608696.0868307131 48.0195652 3.21273639 45.6065217 2.17076783 41.0217391.173661426 31.1282609-1.04196856 28.3934783 5.38350422 26.3021739 10.4196856 30.2434783 21.3603554 30.9673913 24.225769 32.173913 23.3574618 31.1282609 10.5065163 36.1956522 11.0275006 38.9304348 11.3748234 42.0673913 12.0694691 44.8021739 11.3748234zM42.8717391 25.1809068C45.3652174 25.0940761 43.7565217 20.578879 42.7913043 20.6657097 41.9065217 20.7525404 40.3782609 25.3545682 42.8717391 25.1809068z"/>
      <g fill="#8149E0" transform="translate(28.152 27.786)">
        <path d="M10.8586957,4.94935065 C10.6173913,4.6020278 9.7326087,3.9942128 9.7326087,3.64688995 C9.08913043,3.56005924 9.16956522,3.82055138 8.28478261,3.73372067 C10.7782609,6.25181135 9.33043478,10.3328549 10.2956522,14.0665755 C11.5826087,15.9768512 12.6282609,17.9739576 13.2717391,20.2315562 C13.8347826,19.6237412 13.9956522,15.2822055 13.5934783,11.2879927 C13.4326087,10.8538391 12.8695652,7.46744133 10.8586957,4.94935065 Z"/>
        <path d="M11.1,5.64399635 C10.7782609,6.07814992 9.41086957,6.33864206 9.00869565,5.99131921 C8.60652174,5.64399635 8.20434783,3.9942128 8.20434783,3.9942128 L11.1,3.64688995 C11.1,3.64688995 11.4217391,5.20984279 11.1,5.64399635 Z"/>
        <polygon points="6.676 7.12 .402 2.692 2.574 .174 9.974 3.734"/>
        <polygon points="11.904 5.384 11.502 3.907 10.296 2.605 9.813 3.734"/>
      </g>
      <path fill="#8149E0" d="M34.426087,55.397995 C34.426087,54.6165186 35.0695652,53.9218729 35.7934783,53.9218729 L85.5826087,53.9218729 C86.6282609,53.9218729 87.5130435,54.6165186 87.5130435,55.397995 C87.5130435,56.1794714 86.6282609,56.8741171 85.5826087,56.8741171 L35.7934783,56.8741171 C34.9891304,56.8741171 34.426087,56.1794714 34.426087,55.397995 Z"/>
      <path fill="#FFF" d="M32.4152174,55.397995 C32.4152174,56.1794714 33.0586957,56.8741171 33.8630435,56.8741171 L52.7652174,56.8741171 C53.5695652,56.8741171 54.2130435,56.1794714 54.2130435,55.397995 C54.2130435,54.6165186 53.5695652,53.9218729 52.7652174,53.9218729 L33.8630435,53.9218729 C33.1391304,53.9218729 32.4152174,54.5296879 32.4152174,55.397995 Z"/>
      <path fill="#FFF" d="M87.4326087,26.0492139 L87.4326087,53.1403964 C87.4326087,54.3560264 86.5478261,55.3111643 85.4217391,55.3111643 L52.2826087,55.3111643 C51.1565217,55.3111643 50.2717391,54.3560264 50.2717391,53.1403964 L50.2717391,26.0492139 C50.2717391,24.833584 51.1565217,23.8784461 52.2826087,23.8784461 L85.4217391,23.8784461 C86.5478261,23.8784461 87.4326087,24.833584 87.4326087,26.0492139 Z"/>
      <path fill="#8149E0" d="M88.9608696,26.0492139 L88.9608696,53.1403964 C88.9608696,54.3560264 88.076087,55.3111643 86.95,55.3111643 L53.8108696,55.3111643 C52.6847826,55.3111643 51.8,54.3560264 51.8,53.1403964 L51.8,26.0492139 C51.8,24.833584 52.6847826,23.8784461 53.8108696,23.8784461 L86.95,23.8784461 C88.076087,23.8784461 88.9608696,24.833584 88.9608696,26.0492139 Z"/>
      <path fill="#FFF" d="M64.9108696,39.5948052 C64.9108696,38.2923445 65.876087,37.2503759 67.0826087,37.2503759 L73.7586957,37.2503759 C74.9652174,37.2503759 75.9304348,38.2923445 75.9304348,39.5948052 C75.9304348,40.8972659 74.9652174,41.9392344 73.7586957,41.9392344 L67.0826087,41.9392344 C65.876087,41.9392344 64.9108696,40.8972659 64.9108696,39.5948052 Z"/>
      <path fill="#80272B" d="M56.7869565 60.0000228C56.5456522 58.5239007 56.8673913 57.1346093 57.5108696 55.9189793L65.876087 54.3560264C66.8413043 55.2243336 67.5652174 56.5267943 67.8065217 57.9160857 68.2891304 61.2156528 66.2782609 64.2547277 63.2217391 64.8625427 60.1652174 65.4703577 57.2695652 63.2995899 56.7869565 60.0000228zM74.4021739 58.3502392C74.3217391 56.8741171 74.6434783 55.4848257 75.4478261 54.3560264L83.8934783 53.57455C84.7782609 54.5296879 85.4217391 55.8321486 85.5021739 57.3082707 85.7434783 60.6078378 83.4913043 63.560082 80.4347826 63.8205742 77.3782609 64.0810663 74.723913 61.6498063 74.4021739 58.3502392z"/>
    </g>
    <g transform="translate(183.391)">
      <path fill="#372665" d="M38.9304348,23.8784461 C36.0347826,23.8784461 33.7021739,19.7974026 33.7021739,14.8480519 C33.7021739,9.8987013 36.1152174,5.81765778 39.0108696,5.81765778 C41.9065217,5.81765778 44.2391304,9.8987013 44.2391304,14.8480519 C44.2391304,19.8842333 41.826087,23.8784461 38.9304348,23.8784461 Z"/>
      <path fill="#372665" d="M64.4282609,28.1331511 C61.05,26.0492139 57.35,20.8393712 58.7173913,16.1505126 C62.0152174,5.38350422 54.2934783,1.47612212 50.4326087,0.694645705 C46.5717391,-0.0868307131 43.1934783,0.955137845 41.0217391,2.77858282 C37.5630435,5.81765778 38.6086957,11.0275006 40.5391304,15.1953748 C38.4478261,16.4978355 37.4021739,19.363249 38.6086957,21.4471861 C41.2630435,26.0492139 39.0108696,32.2141946 37.4021739,35.8610845 C34.8282609,41.765573 38.3673913,49.0593529 44.5608696,52.35892 C50.673913,55.6584871 58.7173913,55.3111643 64.9108696,52.35892 C67.9673913,50.8827979 70.7021739,48.7120301 72.15,45.8466165 C75.126087,39.6816359 70.7826087,32.0405332 64.4282609,28.1331511 Z"/>
      <path fill="#E8E5ED" d="M22.1195652,69.3777398 C20.6717391,69.6382319 19.1434783,69.7250627 17.5347826,69.8118934 C16.3282609,69.8118934 15.3630435,68.8567555 15.3630435,67.5542948 C15.3630435,66.2518341 16.2478261,65.2098656 17.4543478,65.2098656 C24.9347826,64.9493734 30.5652174,62.6049442 34.1847826,58.0897471 C39.6543478,51.2301208 38.6086957,41.6787423 38.6086957,41.5919116 C38.4478261,40.2894509 39.3326087,39.1606516 40.4586957,38.9869902 C41.6652174,38.8133288 42.7108696,39.6816359 42.8717391,40.9840966 C42.9521739,41.4182502 44.1586957,52.6194122 37.4826087,61.0419913 C33.7021739,65.5571884 28.6347826,68.3357712 22.1195652,69.3777398 Z"/>
      <path fill="#75CCF2" d="M40.0565217,37.3372067 C38.0456522,37.6845295 36.5978261,39.6816359 36.9195652,41.765573 C36.9195652,41.8524037 37.8043478,50.7091365 32.8978261,56.9609478 C30.4847826,60.0000228 26.9456522,61.9971292 22.4413043,62.8654363 C23.7282609,65.2966963 23.9695652,68.3357712 22.923913,70.9406926 C29.5195652,69.8118934 34.8282609,66.8596491 38.5282609,62.1707906 C45.6065217,53.2272272 44.3195652,41.3314195 44.3195652,40.8104352 C43.9978261,38.6396674 42.1478261,37.0767145 40.0565217,37.3372067 Z"/>
      <path fill="#E8E5ED" d="M44.3195652,30.564411 L44.2391304,33.1693324 C45.4456522,32.995671 46.973913,32.387856 47.7782609,31.4327182 L47.7782609,29.5224425 C46.7326087,30.2170882 45.526087,30.6512417 44.3195652,30.564411 Z"/>
      <g fill="#E8E5ED" transform="translate(34.587 5.21)">
        <path d="M6.11304348,36.034746 C4.98695652,35.426931 4.10217391,33.603486 5.46956522,31.9537024 C6.75652174,30.3039189 8.7673913,29.4356118 10.8586957,29.348781 L11.4217391,29.348781 C13.3521739,29.2619503 15.0413043,30.1302575 16.1673913,31.6063796 C15.2021739,34.6454545 9.08913043,37.2503759 6.11304348,36.034746 Z"/>
        <path d="M9.7326087,24.7467532 L9.65217391,27.3516746 L9.57173913,32.2141946 L13.0304348,32.3010253 L13.1108696,26.0492139 L13.1913043,23.617954 C12.1456522,24.3994304 10.9391304,24.833584 9.7326087,24.7467532 Z"/>
        <path d="M10.5369565,26.7438596 C13.8347826,26.7438596 16.7304348,25.0072454 18.5804348,22.3154933 C19.8673913,20.4920483 20.5913043,18.147619 20.5913043,15.7163591 L20.5913043,11.4616541 C20.5913043,8.33574846 19.3043478,5.55716564 17.373913,3.56005924 C15.523913,1.73661426 13.1108696,0.607814992 10.376087,0.607814992 C8.60652174,0.607814992 6.9173913,1.12879927 5.46956522,1.9971064 C2.41304348,3.90738209 0.32173913,7.46744133 0.32173913,11.6353156 L0.32173913,15.8900205 C0.32173913,19.8842333 2.3326087,23.2706311 5.22826087,25.1809068 C6.83695652,26.2228754 8.68695652,26.7438596 10.5369565,26.7438596 Z"/>
      </g>
      <path fill="#372665" d="M37.4826087 67.4674641C36.276087 73.0246298 39.573913 78.5817954 44.7217391 79.8842561 49.8695652 81.1867168 55.0173913 77.6266576 56.223913 72.0694919 57.4304348 66.5123263 54.1326087 60.9551606 48.9847826 59.6526999 43.7565217 58.3502392 38.6086957 61.9102985 37.4826087 67.4674641zM44.4804348 26.2228754C44.2391304 27.6121668 43.1934783 28.6541353 41.826087 28.6541353 40.5391304 28.6541353 39.4130435 27.6989975 39.1717391 26.3097061L44.4804348 26.2228754z"/>
      <path fill="#75CCF2" d="M35.5521739,42.981203 C34.9086957,44.8914787 36.7586957,46.8885851 38.6086957,47.1490772 C40.5391304,47.4095694 42.2282609,45.8466165 42.4695652,43.8495101 C42.7108696,41.765573 39.8152174,37.2503759 38.7695652,38.9869902 C37.723913,40.549943 36.1152174,41.3314195 35.5521739,42.981203 Z"/>
      <path fill="#75CCF2" d="M50.7543478,36.8162224 C51.5586957,37.8581909 52.1217391,39.1606516 52.2021739,40.6367738 C52.2021739,40.6367738 51.3173913,57.6555935 55.6608696,65.4703577 L37.2413043,67.1201413 L37.723913,43.589018 C37.6434783,41.0709273 38.5282609,38.8133288 39.976087,37.1635452 C40.0565217,40.9840966 47.2956522,36.4688995 50.7543478,36.8162224 Z"/>
      <path fill="#DAAEE5" d="M38.3673913,112.879927 C36.6782609,112.966758 35.7934783,114.703372 35.7130435,115.137526 C34.9086957,117.829278 35.2304348,120.607861 33.6217391,125.123058 C32.576087,128.248963 31.45,128.856778 30.726087,131.374869 C30.0826087,133.545637 31.9326087,134.240283 33.7021739,133.458806 C34.426087,133.198314 38.85,131.895853 38.9304348,127.988471 C39.0108696,125.209888 38.6891304,123.039121 39.4934783,120.607861 C40.2978261,118.176601 41.0217391,119.565892 41.2630435,120.260538 C41.423913,120.781522 42.0673913,122.344475 42.2282609,122.778628 C42.3086957,122.95229 42.4695652,123.039121 42.6304348,122.95229 C42.7913043,122.865459 42.8717391,122.691798 42.7913043,122.431306 C42.55,121.910321 42.0673913,120.000046 41.9065217,117.568786 C41.826087,114.703372 39.8956522,112.793096 38.3673913,112.879927 Z"/>
      <path fill="#E8E5ED" d="M36.5978261,126.165026 C37.5630435,123.907428 38.6086957,116.960971 38.126087,115.484848 C37.4826087,113.661404 34.023913,113.574573 33.7826087,115.137526 C33.3804348,117.916108 34.5065217,122.778628 32.3347826,127.988471 C32.576087,129.377763 35.4717391,128.856778 36.5978261,126.165026 Z"/>
      <path fill="#372665" d="M49.7891304,79.2764411 L27.1869565,90.6512645 L29.3586957,85.1809296 L37.723913,114.529711 C38.2065217,116.266325 37.3217391,118.176601 35.6326087,118.784416 C34.023913,119.3054 32.4152174,118.437093 31.7717391,116.787309 L21.476087,88.1331738 C20.7521739,86.0492367 21.6369565,83.7048075 23.4869565,82.7496696 L23.6478261,82.6628389 L46.1695652,71.0275234 C48.3413043,69.8987241 50.8347826,70.9406926 51.8804348,73.1982912 C52.926087,75.4558897 52.0413043,78.1476418 49.7891304,79.2764411 C49.8695652,79.2764411 49.8695652,79.2764411 49.7891304,79.2764411 Z"/>
      <path fill="#DAAEE5" d="M23.1652174,103.675871 C21.6369565,102.894395 20.1086957,104.023194 19.7869565,104.370517 C17.9369565,106.367624 16.9717391,108.972545 13.5934783,112.185281 C11.3413043,114.356049 10.0543478,114.356049 8.28478261,116.266325 C6.75652174,117.829278 8.12391304,119.392231 10.0543478,119.652723 C10.7782609,119.739553 15.2826087,120.868353 17.0521739,117.481955 C18.3391304,115.050695 18.9826087,112.966758 20.7521739,111.230144 C22.5217391,109.493529 22.6021739,111.056482 22.5217391,111.837959 C22.4413043,112.358943 22.3608696,114.008726 22.2804348,114.529711 C22.2804348,114.703372 22.3608696,114.877033 22.6021739,114.877033 C22.7630435,114.877033 22.923913,114.703372 23.0043478,114.529711 C23.0043478,113.921896 23.4065217,112.01162 24.2913043,109.754021 C25.4173913,106.975439 24.5326087,104.370517 23.1652174,103.675871 Z"/>
      <path fill="#E8E5ED" d="M15.8456522,114.529711 C17.6152174,112.966758 21.6369565,107.409592 21.7978261,105.759809 C22.0391304,103.849533 18.9826087,101.939257 18.0978261,103.328549 C16.5695652,105.586147 15.4434783,110.448667 11.2608696,113.921896 C10.9391304,115.311187 13.7543478,116.353156 15.8456522,114.529711 Z"/>
      <path fill="#372665" d="M48.2608696,80.0579175 L23.326087,78.6686261 L27.5891304,74.8480747 L22.3608696,104.978332 C22.0391304,106.801777 20.4304348,108.017407 18.7413043,107.670084 C17.1326087,107.322761 16.0065217,105.672978 16.2478261,103.936364 L19.4652174,73.4587833 C19.7065217,71.2011848 21.476087,69.5514012 23.5673913,69.6382319 L23.7282609,69.6382319 L48.6630435,70.6802005 C50.9956522,70.7670312 52.8456522,72.937799 52.7652174,75.4558897 C52.6043478,78.1476418 50.673913,80.1447482 48.2608696,80.0579175 C48.2608696,80.0579175 48.2608696,80.0579175 48.2608696,80.0579175 Z"/>
      <path fill="#E8E5ED" d="M50.0304348,69.8118934 C48.9043478,69.9855548 47.7782609,70.1592162 46.4913043,70.2460469 C45.2847826,70.3328776 44.3195652,69.3777398 44.2391304,68.0752791 C44.1586957,66.7728184 45.0434783,65.7308499 46.25,65.6440191 C50.1913043,65.383527 55.1782609,64.3415584 56.4652174,60.8683299 C58.476087,55.397995 51.5586957,45.4992937 48.9043478,42.4602187 C48.1,41.5050809 48.1804348,40.0289588 49.0652174,39.1606516 C49.95,38.2923445 51.3173913,38.3791752 52.1217391,39.3343131 C53.3282609,40.7236045 63.8652174,53.4877193 60.4869565,62.6049442 C59.0391304,66.3386648 55.5,68.7699248 50.0304348,69.8118934 Z"/>
      <path fill="#75CCF2" d="M53.2478261,38.1186831 C52.3630435,37.1635452 51.1565217,36.6425609 49.8695652,36.9030531 C49.0652174,37.0767145 48.2608696,37.5108681 47.6978261,38.2055138 C46.4108696,39.7684666 46.5717391,42.1128959 47.8586957,43.6758487 C50.8347826,47.1490772 56.5456522,56.00581 55.0173913,60.1736842 C54.776087,60.8683299 54.2130435,61.4761449 53.4891304,61.9971292 C52.2021739,62.8654363 51.3978261,64.5152199 51.7195652,66.1650034 C51.7195652,66.1650034 51.7195652,66.2518341 51.7195652,66.2518341 C52.2021739,68.8567555 54.8565217,70.3328776 57.0282609,69.030417 C59.3608696,67.6411255 60.9695652,65.6440191 61.8543478,63.2127592 C65.5543478,53.3140579 55.3391304,40.6367738 53.2478261,38.1186831 Z"/>
      <path fill="#E8E5ED" d="M37.4021739 67.5542948C37.4826087 68.9435862 38.0456522 70.1592162 38.9304348 71.0275234L46.7326087 70.3328776C47.4565217 69.2909091 47.7782609 67.9884484 47.6978261 66.6859877 47.4565217 63.6469127 44.9630435 61.3893142 42.1478261 61.5629756 39.2521739 61.8234678 37.1608696 64.5152199 37.4021739 67.5542948zM10.7782609 68.5962634C10.8586957 69.9855548 11.3413043 71.2011848 12.1456522 72.1563226L19.9478261 71.8089998C20.6717391 70.7670312 21.073913 69.5514012 21.073913 68.1621098 20.9934783 65.1230349 18.5804348 62.6917749 15.7652174 62.8654363 12.8695652 62.952267 10.6173913 65.5571884 10.7782609 68.5962634z"/>
      <path fill="#372665" d="M56.8673913,14.4138984 C55.7413043,17.8871269 50.673913,19.1895876 45.526087,17.1924812 C40.3782609,15.2822055 37.1608696,10.8538391 38.2869565,7.38061062 C39.4130435,3.90738209 44.4804348,2.60492139 49.6282609,4.6020278 C54.776087,6.51230349 57.9934783,10.9406699 56.8673913,14.4138984 Z"/>
      <path fill="#566CD3" d="M51.4782609,70.7670312 C51.4782609,69.9855548 50.9152174,69.3777398 50.1913043,69.3777398 L3.53913043,69.3777398 C2.57391304,69.3777398 1.76956522,69.9855548 1.76956522,70.7670312 C1.76956522,71.5485076 2.57391304,72.1563226 3.53913043,72.1563226 L50.1913043,72.1563226 C50.9152174,72.1563226 51.4782609,71.4616769 51.4782609,70.7670312 Z"/>
      <path fill="#FFF" d="M53.2478261,70.7670312 C53.2478261,71.5485076 52.6043478,72.1563226 51.8804348,72.1563226 L34.1847826,72.1563226 C33.4608696,72.1563226 32.8173913,71.5485076 32.8173913,70.7670312 C32.8173913,69.9855548 33.4608696,69.3777398 34.1847826,69.3777398 L51.8804348,69.3777398 C52.6847826,69.3777398 53.2478261,69.9855548 53.2478261,70.7670312 Z"/>
      <path fill="#FFF" d="M1.85,43.3285259 L1.85,68.6830941 C1.85,69.8118934 2.73478261,70.7670312 3.78043478,70.7670312 L34.8282609,70.7670312 C35.873913,70.7670312 36.7586957,69.8118934 36.7586957,68.6830941 L36.7586957,43.3285259 C36.7586957,42.1997266 35.873913,41.2445887 34.8282609,41.2445887 L3.78043478,41.2445887 C2.65434783,41.2445887 1.85,42.1997266 1.85,43.3285259 Z"/>
      <path fill="#566CD3" d="M0.402173913,43.3285259 L0.402173913,68.6830941 C0.402173913,69.8118934 1.28695652,70.7670312 2.3326087,70.7670312 L33.3804348,70.7670312 C34.426087,70.7670312 35.3108696,69.8118934 35.3108696,68.6830941 L35.3108696,43.3285259 C35.3108696,42.1997266 34.426087,41.2445887 33.3804348,41.2445887 L2.3326087,41.2445887 C1.20652174,41.2445887 0.402173913,42.1997266 0.402173913,43.3285259 Z"/>
      <path fill="#FFF" d="M22.923913,56.00581 C22.923913,54.79018 22.0391304,53.8350422 20.9130435,53.8350422 L14.7195652,53.8350422 C13.5934783,53.8350422 12.7086957,54.79018 12.7086957,56.00581 C12.7086957,57.22144 13.5934783,58.1765778 14.7195652,58.1765778 L20.9130435,58.1765778 C22.0391304,58.1765778 22.923913,57.1346093 22.923913,56.00581 Z"/>
    </g>
    <g transform="translate(283.935 161.505)">
      <path fill="#E8E5ED" d="M52.1217391 119.131738C51.7195652 117.916108 41.9869565 89.8697881 41.9869565 72.7641376L47.7782609 72.7641376C47.7782609 88.8278195 57.4304348 116.700478 57.5108696 116.960971L52.1217391 119.131738zM26.7847826 96.0347687L17.1326087 78.5817954C16.7304348 77.8871497 16.65 76.9320118 16.8108696 76.1505354 17.0521739 75.369059 17.5347826 74.6744133 18.2586957 74.2402597L33.7826087 65.383527 36.4369565 70.8538619 23.6478261 78.1476418 31.7717391 92.8220324 26.7847826 96.0347687z"/>
      <path fill="#121F55" d="M54.8565217,9.72503987 C54.8565217,9.72503987 51.076087,4.77568922 49.3065217,3.12590567 C46.1695652,0.173661426 43.5152174,3.47322853 43.5152174,3.47322853 C27.8304348,0.868307131 24.8543478,25.0940761 32.0130435,31.0853953 C37.8043478,35.9479152 42.6304348,32.5615174 42.6304348,32.5615174 C42.6304348,32.5615174 45.9282609,35.1664388 50.9152174,36.034746 C54.0521739,36.5557302 57.7521739,34.3849624 57.7521739,34.3849624 C57.7521739,34.3849624 62.0956522,37.7713602 65.473913,32.7351789 C68.8521739,27.6989975 63.8652174,22.402324 61.2108696,22.402324 C61.2108696,22.402324 64.3478261,18.3212805 60.0043478,15.5426977 C58.3956522,14.5007291 54.8565217,9.72503987 54.8565217,9.72503987 Z"/>
      <path fill="#E8E5ED" d="M35.3913043,39.7684666 C34.3456522,39.1606516 33.4608696,37.4240374 34.7478261,35.8610845 C35.9543478,34.2981317 37.8847826,33.4298246 39.976087,33.3429938 L40.5391304,33.3429938 C42.3891304,33.2561631 43.9978261,34.1244703 45.123913,35.5137617 C44.2391304,38.4660059 38.2869565,40.9840966 35.3913043,39.7684666 Z"/>
      <path fill="#E8E5ED" d="M38.6086957,28.9146275 L38.5282609,31.4327182 L38.4478261,36.1215767 L41.826087,36.2084074 L41.9065217,30.2170882 L41.9869565,27.8726589 C40.9413043,28.5673046 39.8152174,29.0014582 38.6086957,28.9146275 Z"/>
      <path fill="#E8E5ED" d="M38.6086957,28.9146275 L38.5282609,31.4327182 C39.7347826,31.2590567 41.1826087,30.6512417 41.9065217,29.6961039 L41.9065217,27.7858282 C40.9413043,28.5673046 39.8152174,29.0014582 38.6086957,28.9146275 Z"/>
      <path fill="#E8E5ED" d="M36.6782609,28.9146275 C39.4934783,30.4775803 42.7108696,30.3907496 45.3652174,28.9146275 C47.2152174,27.9594896 48.7434783,26.3097061 49.7086957,24.225769 L51.3978261,20.4920483 C52.6847826,17.8002962 52.7652174,14.8480519 51.8804348,12.2431306 C51.076087,9.81187059 49.3869565,7.64110276 47.1347826,6.42547277 C45.6065217,5.55716564 43.9978261,5.20984279 42.3891304,5.2966735 C39.0108696,5.47033493 35.7130435,7.55427204 34.1043478,11.1143313 L32.4152174,14.8480519 C30.8065217,18.2344498 31.1282609,22.1418319 32.8173913,25.1809068 C33.7021739,26.6570289 35.0695652,28.0463203 36.6782609,28.9146275 Z"/>
      <path fill="#121F55" d="M47.4565217,18.0607883 C40.4586957,19.2764183 39.7347826,11.1143313 40.1369565,7.81476418 C40.9413043,0.781476418 49.4673913,2.17076783 52.3630435,5.64399635 C54.2130435,7.81476418 57.4304348,13.632422 56.0630435,20.9262019 C54.6956522,28.2199818 47.7782609,32.7351789 47.7782609,32.7351789 C40.2173913,26.7438596 48.0195652,21.0130326 48.0195652,21.0130326 L47.4565217,18.0607883 Z"/>
      <path fill="#F7B75D" d="M32.3347826,65.0362041 C31.2086957,70.4197084 34.3456522,75.7163819 39.3326087,77.0188426 C44.3195652,78.2344725 49.226087,74.8480747 50.4326087,69.4645705 C51.5586957,64.0810663 48.4217391,58.7843928 43.4347826,57.4819321 C38.4478261,56.2663021 33.4608696,59.6526999 32.3347826,65.0362041 Z"/>
      <path fill="#121F55" d="M37.4826087,23.1838004 C36.7586957,24.225769 35.3913043,24.5730918 34.2652174,23.9652768 C33.1391304,23.3574618 32.576087,21.9681704 32.8978261,20.6657097 L37.4826087,23.1838004 Z"/>
      <path fill="#566CD3" d="M25.4978261 70.0723855C37.723913 81.5340396 52.8456522 87.0912053 52.8456522 87.0912053 52.8456522 87.0912053 55.4195652 70.3328776 49.7086957 63.1259285 46.8130435 59.4790385 32.0934783 64.775712 32.0934783 64.775712L25.4978261 70.0723855zM30.4847826 41.4182502C29.8413043 43.3285259 31.6108696 45.1519708 33.4608696 45.412463 35.3108696 45.5861244 37 44.196833 37.1608696 42.1997266 37.4021739 40.2026202 34.5869565 35.8610845 33.5413043 37.5108681 32.576087 39.1606516 31.0478261 39.8552973 30.4847826 41.4182502z"/>
      <path fill="#566CD3" d="M45.123913,35.5137617 C45.9282609,36.5557302 46.4108696,37.7713602 46.4913043,39.2474823 C46.4913043,39.2474823 45.6869565,55.6584871 49.7891304,63.2127592 C51.5586957,66.4254956 32.0130435,66.3386648 32.0130435,66.3386648 L32.576087,42.1128959 C32.4956522,39.6816359 33.3,37.5108681 34.7478261,35.8610845 C34.8282609,39.5079745 41.826087,35.1664388 45.123913,35.5137617 Z"/>
      <path fill="#566CD3" d="M42.1478261,41.5050809 C38.6891304,41.5050809 15.2826087,40.2894509 2.25217391,9.20405559 L7.48043478,6.68596491 C19.626087,35.6874231 41.3434783,35.3401003 42.3086957,35.3401003 L42.4695652,41.5919116 C42.4695652,41.5050809 42.3891304,41.5050809 42.1478261,41.5050809 Z"/>
      <path fill="#E8E5ED" d="M7.4,1.64978355 C6.35434783,0.955137845 5.14782609,0.694645705 4.02173913,0.955137845 L0.0804347826,7.9015949 C0.402173913,9.03039417 1.12608696,10.0723627 2.17173913,10.7670084 C4.50434783,12.3299613 7.56086957,11.5484848 9.00869565,9.03039417 C10.4565217,6.51230349 9.7326087,3.21273639 7.4,1.64978355 Z"/>
      <g fill="#4FB7EF" transform="translate(16.087 92.04)">
        <path d="M11.9043478,5.73082707 C12.4673913,7.9015949 14.5586957,9.11722488 16.5695652,8.50940989 C18.5804348,7.9015949 19.7065217,5.64399635 19.1434783,3.47322853 C18.5804348,1.3024607 16.4891304,0.0868307131 14.4782609,0.694645705 C12.4673913,1.3024607 11.3413043,3.56005924 11.9043478,5.73082707 Z"/>
        <path d="M2.81521739,12.8509455 L16.4891304,8.50940989 C17.9369565,8.07525632 18.7413043,6.42547277 18.3391304,4.86251994 C17.9369565,3.2995671 15.1217391,0.520984279 13.673913,0.955137845 L1.60869565,9.37771702 C0.241304348,10.3328549 0.643478261,12.5904534 2.17173913,12.9377763 C2.41304348,12.9377763 2.65434783,12.9377763 2.81521739,12.8509455 Z"/>
      </g>
      <g fill="#4FB7EF" transform="translate(43.435 115.485)">
        <path d="M9.08913043,7.12011848 C10.376087,8.85673274 12.7086957,9.20405559 14.3978261,7.81476418 C16.0065217,6.42547277 16.3282609,3.90738209 15.0413043,2.08393712 C13.7543478,0.347322853 11.4217391,2.66453526e-15 9.7326087,1.38929141 C8.12391304,2.77858282 7.80217391,5.2966735 9.08913043,7.12011848 Z"/>
        <path d="M3.05652174,17.2793119 L14.3173913,7.9015949 C15.523913,6.94645705 15.7652174,5.03618136 14.8,3.73372067 C13.9152174,2.43125997 10.2956522,0.955137845 9.08913043,1.91027569 L0.643478261,14.5007291 C-0.32173913,15.8900205 0.804347826,17.8871269 2.3326087,17.5398041 C2.65434783,17.5398041 2.81521739,17.4529733 3.05652174,17.2793119 Z"/>
      </g>
      <path fill="#4FB7EF" d="M38.2065217,64.3415584 C36.7586957,64.3415584 35.15,64.167897 33.4608696,63.8205742 L33.6217391,62.952267 C41.5043478,64.775712 47.6173913,61.1288221 47.6978261,61.1288221 L48.1,61.9102985 C47.9391304,61.9971292 43.9173913,64.3415584 38.2065217,64.3415584 Z"/>
      <polygon fill="#E0E0E0" points="69.898 119.305 71.185 119.305 71.185 129.378 69.898 129.378"/>
      <polygon fill="#E0E0E0" points="54.857 130.333 56.143 130.333 56.143 146.31 54.857 146.31"/>
      <polygon fill="#E0E0E0" points="64.026 124.602 65.313 124.602 65.313 138.321 64.026 138.321"/>
      <polygon fill="#E0E0E0" points="64.026 107.757 65.313 107.757 65.313 115.745 64.026 115.745"/>
    </g>
  </g>
</svg>
