<svg xmlns="http://www.w3.org/2000/svg" width="370" height="347" viewBox="0 0 370 347">
  <defs>
    <linearGradient id="how-we-work-4-a" x1=".014%" x2="100.012%" y1="50.009%" y2="50.009%">
      <stop offset="0%" stop-color="#CB88D2"/>
      <stop offset="26.69%" stop-color="#C887D3"/>
      <stop offset="47.83%" stop-color="#BE85D7"/>
      <stop offset="67.05%" stop-color="#AD81DD"/>
      <stop offset="85.02%" stop-color="#967BE6"/>
      <stop offset="100%" stop-color="#7C75F0"/>
    </linearGradient>
  </defs>
  <g fill="none">
    <path fill="url(#how-we-work-4-a)" d="M347.061356,140.566623 C351.565704,155.98385 356.070052,172.960123 358.40266,190.109623 C359.609182,198.684373 360.25266,207.259123 360.091791,215.660646 C359.448312,238.786487 354.783095,261.565873 336.041791,277.849237 C277.485269,327.738691 190.937443,363.510123 114.846139,336.400055 C106.480921,333.715032 99.161356,329.904032 92.7265734,325.226896 C86.2917908,320.636373 80.7417908,315.179714 75.9157038,309.116759 C67.4700516,292.920009 56.9330951,276.03035 47.5222255,258.794237 C42.7765734,250.132873 38.3526603,241.384896 34.4917908,232.550305 C15.3483125,197.558396 22.3461386,156.416918 58.7026603,131.472191 C105.515704,98.9054639 138.333095,62.0946685 179.274399,27.3626003 C208.55266,2.41787304 248.367878,-0.873445142 283.920052,10.2997139 C294.376573,13.7642594 304.511356,18.614623 313.841791,25.1972594 C320.839617,29.7877821 326.389617,35.3310549 330.65266,41.3940094 C334.915704,47.4569639 337.972226,54.2128276 340.06353,61.2285321 C344.246139,75.0867139 345.45266,90.2441003 346.015704,105.747941 C346.659182,116.834487 346.900486,128.440714 347.061356,140.566623 Z"/>
    <g transform="translate(129.5 122.851)">
      <path fill="#566CD3" d="M121.134783,0.433068182 L8.52608696,0.433068182 C4.10217391,0.433068182 0.482608696,4.33068182 0.482608696,9.09443182 L0.482608696,199.644432 C0.482608696,204.408182 4.10217391,208.305795 8.52608696,208.305795 L121.134783,208.305795 C125.558696,208.305795 129.178261,204.408182 129.178261,199.644432 L129.178261,9.09443182 C129.178261,4.33068182 125.558696,0.433068182 121.134783,0.433068182 Z"/>
      <rect width="32.174" height="4.331" x="48.743" y="8.661" fill="#372665"/>
      <g transform="translate(6.435 19.921)">
        <rect width="78.022" height="162.834" x="35.874" y="3.031" fill="#FFF"/>
        <rect width="32.978" height="162.834" x="2.896" y="3.031" fill="#E0E0E0"/>
        <path fill="#372665" d="M0.482608696,0.433068182 L0.482608696,168.463523 L116.308696,168.463523 L116.308696,0.433068182 L0.482608696,0.433068182 Z M113.895652,165.865114 L2.89565217,165.865114 L2.89565217,3.03147727 L113.895652,3.03147727 L113.895652,165.865114 Z"/>
        <g transform="translate(8.848 9.527)">
          <g fill="#CBCACC" transform="translate(2.413)">
            <rect width="14.478" height="3.031" x=".483" y=".606"/>
            <rect width="14.478" height="3.031" x=".483" y="8.402"/>
            <rect width="14.478" height="3.031" x=".483" y="16.197"/>
          </g>
          <g transform="translate(0 26.85)">
            <path fill="#FFF" d="M3.29782609,20.3542045 C2.17173913,20.3542045 1.28695652,19.4014545 1.28695652,18.1888636 L1.28695652,3.46454545 C1.28695652,2.25195455 2.17173913,1.29920455 3.29782609,1.29920455 L16.9717391,1.29920455 C18.0978261,1.29920455 18.9826087,2.25195455 18.9826087,3.46454545 L18.9826087,18.1888636 C18.9826087,19.4014545 18.0978261,20.3542045 16.9717391,20.3542045 L3.29782609,20.3542045 Z"/>
            <path fill="#CBCACC" d="M16.9717391,0 L3.29782609,0 C1.52826087,0 0.0804347826,1.55904545 0.0804347826,3.46454545 L0.0804347826,18.1888636 C0.0804347826,20.0943636 1.52826087,21.6534091 3.29782609,21.6534091 L16.9717391,21.6534091 C18.7413043,21.6534091 20.1891304,20.0943636 20.1891304,18.1888636 L20.1891304,3.46454545 C20.1891304,1.55904545 18.7413043,0 16.9717391,0 Z M8.44565217,10.8267045 L2.49347826,17.2361136 L2.49347826,4.41729545 L8.44565217,10.8267045 Z M4.1826087,2.59840909 L16.0869565,2.59840909 L10.1347826,9.00781818 L4.1826087,2.59840909 Z M10.1347826,12.6455909 L16.0869565,19.055 L4.1826087,19.055 L10.1347826,12.6455909 Z M11.823913,10.8267045 L17.776087,4.41729545 L17.776087,17.2361136 L11.823913,10.8267045 Z"/>
          </g>
          <g transform="translate(0 56.299)">
            <path fill="#FFF" d="M3.29782609,20.3542045 C2.17173913,20.3542045 1.28695652,19.4014545 1.28695652,18.1888636 L1.28695652,3.46454545 C1.28695652,2.25195455 2.17173913,1.29920455 3.29782609,1.29920455 L16.9717391,1.29920455 C18.0978261,1.29920455 18.9826087,2.25195455 18.9826087,3.46454545 L18.9826087,18.1888636 C18.9826087,19.4014545 18.0978261,20.3542045 16.9717391,20.3542045 L3.29782609,20.3542045 Z"/>
            <path fill="#CBCACC" d="M16.9717391,0 L3.29782609,0 C1.52826087,0 0.0804347826,1.55904545 0.0804347826,3.46454545 L0.0804347826,18.1888636 C0.0804347826,20.0943636 1.52826087,21.6534091 3.29782609,21.6534091 L16.9717391,21.6534091 C18.7413043,21.6534091 20.1891304,20.0943636 20.1891304,18.1888636 L20.1891304,3.46454545 C20.1891304,1.55904545 18.7413043,0 16.9717391,0 Z M8.44565217,10.8267045 L2.49347826,17.2361136 L2.49347826,4.41729545 L8.44565217,10.8267045 Z M4.1826087,2.59840909 L16.0869565,2.59840909 L10.1347826,9.00781818 L4.1826087,2.59840909 Z M10.1347826,12.6455909 L16.0869565,19.055 L4.1826087,19.055 L10.1347826,12.6455909 Z M11.823913,10.8267045 L17.776087,4.41729545 L17.776087,17.2361136 L11.823913,10.8267045 Z"/>
          </g>
          <g transform="translate(0 85.748)">
            <path fill="#FFF" d="M3.29782609,20.3542045 C2.17173913,20.3542045 1.28695652,19.4014545 1.28695652,18.1888636 L1.28695652,3.46454545 C1.28695652,2.25195455 2.17173913,1.29920455 3.29782609,1.29920455 L16.9717391,1.29920455 C18.0978261,1.29920455 18.9826087,2.25195455 18.9826087,3.46454545 L18.9826087,18.1888636 C18.9826087,19.4014545 18.0978261,20.3542045 16.9717391,20.3542045 L3.29782609,20.3542045 Z"/>
            <path fill="#CBCACC" d="M16.9717391,0 L3.29782609,0 C1.52826087,0 0.0804347826,1.55904545 0.0804347826,3.46454545 L0.0804347826,18.1888636 C0.0804347826,20.0943636 1.52826087,21.6534091 3.29782609,21.6534091 L16.9717391,21.6534091 C18.7413043,21.6534091 20.1891304,20.0943636 20.1891304,18.1888636 L20.1891304,3.46454545 C20.1891304,1.55904545 18.7413043,0 16.9717391,0 Z M8.44565217,10.8267045 L2.49347826,17.2361136 L2.49347826,4.41729545 L8.44565217,10.8267045 Z M4.1826087,2.59840909 L16.0869565,2.59840909 L10.1347826,9.00781818 L4.1826087,2.59840909 Z M10.1347826,12.6455909 L16.0869565,19.055 L4.1826087,19.055 L10.1347826,12.6455909 Z M11.823913,10.8267045 L17.776087,4.41729545 L17.776087,17.2361136 L11.823913,10.8267045 Z"/>
          </g>
          <g transform="translate(0 115.196)">
            <path fill="#FFF" d="M3.29782609,20.3542045 C2.17173913,20.3542045 1.28695652,19.4014545 1.28695652,18.1888636 L1.28695652,3.46454545 C1.28695652,2.25195455 2.17173913,1.29920455 3.29782609,1.29920455 L16.9717391,1.29920455 C18.0978261,1.29920455 18.9826087,2.25195455 18.9826087,3.46454545 L18.9826087,18.1888636 C18.9826087,19.4014545 18.0978261,20.3542045 16.9717391,20.3542045 L3.29782609,20.3542045 Z"/>
            <path fill="#CBCACC" d="M16.9717391,0 L3.29782609,0 C1.52826087,0 0.0804347826,1.55904545 0.0804347826,3.46454545 L0.0804347826,18.1888636 C0.0804347826,20.0943636 1.52826087,21.6534091 3.29782609,21.6534091 L16.9717391,21.6534091 C18.7413043,21.6534091 20.1891304,20.0943636 20.1891304,18.1888636 L20.1891304,3.46454545 C20.1891304,1.55904545 18.7413043,0 16.9717391,0 Z M8.44565217,10.8267045 L2.49347826,17.2361136 L2.49347826,4.41729545 L8.44565217,10.8267045 Z M4.1826087,2.59840909 L16.0869565,2.59840909 L10.1347826,9.00781818 L4.1826087,2.59840909 Z M10.1347826,12.6455909 L16.0869565,19.055 L4.1826087,19.055 L10.1347826,12.6455909 Z M11.823913,10.8267045 L17.776087,4.41729545 L17.776087,17.2361136 L11.823913,10.8267045 Z"/>
          </g>
          <g transform="translate(34.587 2.598)">
            <g transform="translate(0 51.102)">
              <rect width="59.522" height="39.842" x="1.689" y="1.299" fill="#E0E0E0"/>
              <path fill="#CBCACC" d="M0.482608696,0 L0.482608696,42.4406818 L62.4173913,42.4406818 L62.4173913,0 L0.482608696,0 Z M60.0043478,39.8422727 L2.89565217,39.8422727 L2.89565217,2.59840909 L60.0043478,2.59840909 L60.0043478,39.8422727 Z"/>
            </g>
            <rect width="59.522" height="38.976" x="1.689" y="1.299" fill="#E0E0E0"/>
            <path fill="#CBCACC" d="M0.482608696,0 L0.482608696,41.5745455 L62.4173913,41.5745455 L62.4173913,0 L0.482608696,0 Z M60.0043478,38.9761364 L2.89565217,38.9761364 L2.89565217,2.59840909 L60.0043478,2.59840909 L60.0043478,38.9761364 Z"/>
            <g transform="translate(0 103.07)">
              <rect width="59.522" height="38.976" x="1.689" y="1.299" fill="#E0E0E0"/>
              <path fill="#CBCACC" d="M0.482608696,0 L0.482608696,41.5745455 L62.4173913,41.5745455 L62.4173913,0 L0.482608696,0 Z M29.1173913,20.7872727 L2.89565217,37.7635455 L2.89565217,3.72438636 L29.1173913,20.7872727 Z M5.79130435,2.59840909 L57.1086957,2.59840909 L31.45,19.2282273 L5.79130435,2.59840909 Z M31.45,22.2597045 L57.1086957,38.9761364 L5.71086957,38.9761364 L31.45,22.2597045 Z M33.7826087,20.7872727 L60.0043478,3.811 L60.0043478,37.8501591 L33.7826087,20.7872727 Z"/>
            </g>
          </g>
        </g>
      </g>
    </g>
    <g transform="translate(41.022 57.025)">
      <path fill="#CBCACC" d="M67.2434783,19.4014545 C67.1630435,19.4014545 67.0021739,19.4014545 66.9217391,19.4014545 C65.876087,15.3306136 62.4978261,12.38575 58.3956522,12.38575 C57.5108696,12.38575 56.626087,12.5589773 55.8217391,12.8188182 C54.8565217,5.88972727 49.3065217,0.692909091 42.6304348,0.692909091 C37.0804348,0.692909091 32.3347826,4.33068182 30.323913,9.5275 L30.323913,33.4328636 L67.2434783,33.4328636 C70.8630435,33.4328636 73.7586957,30.3147727 73.7586957,26.4171591 C73.6782609,22.5195455 70.7826087,19.4014545 67.2434783,19.4014545 Z"/>
      <path fill="#E0E0E0" d="M6.9173913 28.8423409C6.99782609 28.8423409 7.15869565 28.8423409 7.23913043 28.8423409 8.36521739 24.5982727 11.9043478 21.4801818 16.2478261 21.4801818 17.2130435 21.4801818 18.0978261 21.6534091 18.9021739 21.91325 19.9478261 14.6377045 25.7391304 9.09443182 32.8173913 9.09443182 38.6891304 9.09443182 43.676087 12.9054318 45.7673913 18.3620909 46.3304348 18.1888636 46.973913 18.10225 47.6173913 18.10225 51.9608696 18.10225 55.5 21.91325 55.5 26.5903864 55.5 27.62975 55.3391304 28.6691136 54.9369565 29.6218636 58.2347826 29.8817045 60.8891304 32.9131818 60.8891304 36.5509545 60.8891304 40.3619545 57.9934783 43.4800455 54.4543478 43.4800455L6.83695652 43.4800455C3.05652174 43.4800455 5.68434189e-14 40.1887273 5.68434189e-14 36.1178864.0804347826 32.1336591 3.13695652 28.8423409 6.9173913 28.8423409zM110.356522 68.6846136C110.276087 68.6846136 110.195652 68.6846136 110.115217 68.6846136 109.230435 65.3066818 106.334783 62.7082727 102.876087 62.7082727 102.152174 62.7082727 101.428261 62.7948864 100.704348 63.0547273 99.8195652 57.2516136 95.1543478 52.7477045 89.523913 52.7477045 84.8586957 52.7477045 80.7565217 55.8657955 79.0673913 60.1964773 78.5847826 60.1098636 78.1021739 60.02325 77.6195652 60.02325 74.0804348 60.02325 71.2652174 63.0547273 71.2652174 66.8657273 71.2652174 67.7318636 71.426087 68.5113864 71.6673913 69.2909091 69.0130435 69.4641364 66.8413043 71.8893182 66.8413043 74.8341818 66.8413043 77.9522727 69.173913 80.3774545 71.9891304 80.3774545L110.356522 80.3774545C113.413043 80.3774545 115.826087 77.6924318 115.826087 74.4877273 115.826087 71.3696364 113.413043 68.6846136 110.356522 68.6846136z"/>
    </g>
    <g transform="translate(156.848 49.23)">
      <g transform="translate(0 28.582)">
        <rect width="159.502" height="24.252" x="26.061" y="1.299" fill="#8149E0"/>
        <rect width="159.502" height="8.228" x="26.061" y="9.354" fill="#9979E2"/>
        <path fill="#E0E0E0" d="M196.019565,0.433068182 L186.367391,0.433068182 C185.884783,0.433068182 185.563043,0.779522727 185.563043,1.29920455 L185.563043,25.5510227 C185.563043,26.0707045 185.884783,26.4171591 186.367391,26.4171591 L196.019565,26.4171591 C196.502174,26.4171591 196.823913,26.0707045 196.823913,25.5510227 L196.823913,1.29920455 C196.823913,0.866136364 196.421739,0.433068182 196.019565,0.433068182 Z"/>
        <path fill="#DAAEE5" d="M209.693478,2.16534091 L196.823913,2.16534091 L196.823913,24.6848864 L209.693478,24.6848864 C211.463043,24.6848864 212.91087,23.1258409 212.91087,21.2203409 L212.91087,5.62988636 C212.91087,3.72438636 211.463043,2.16534091 209.693478,2.16534091 Z"/>
        <polygon fill="#8149E0" points="0 13.425 13.835 19.921 13.835 7.016"/>
        <polygon fill="#CBCACC" points="26.061 1.299 13.835 7.016 13.835 19.921 26.061 25.551"/>
      </g>
      <g transform="translate(117.435)">
        <path fill="#8149E0" d="M62.7391304,262.00625 L9.65217391,262.00625 C5.87173913,266.077091 3.78043478,268.329045 0,272.399886 L0,281.927386 L72.3913043,281.927386 L72.3913043,272.399886 C68.6108696,268.329045 66.5195652,266.077091 62.7391304,262.00625 Z"/>
        <rect width="35.391" height="261.92" x="18.5" fill="#DAAEE5"/>
        <g fill="#8149E0" transform="translate(18.5 64.094)">
          <polygon points="0 178.597 13.111 178.597 13.111 183.794 0 183.794"/>
          <polygon points="0 153.22 13.111 153.22 13.111 158.416 0 158.416"/>
          <polygon points="0 127.842 13.111 127.842 13.111 133.039 0 133.039"/>
          <polygon points="0 102.377 13.111 102.377 13.111 107.574 0 107.574"/>
          <polygon points="0 77 13.111 77 13.111 82.196 0 82.196"/>
          <polygon points="0 51.622 13.111 51.622 13.111 56.819 0 56.819"/>
          <polygon points="0 26.157 13.111 26.157 13.111 31.354 0 31.354"/>
          <polygon points="0 .78 13.111 .78 13.111 5.976 0 5.976"/>
        </g>
        <ellipse cx="36.196" cy="42.008" fill="#E6C8ED" rx="7.239" ry="7.795"/>
      </g>
      <g transform="translate(35.391 53.7)">
        <g transform="translate(0 77.952)">
          <polygon fill="#75CCF2" points=".483 .173 82.848 .173 82.848 56.645 .483 56.645"/>
          <polygon fill="#FFF" points="5.63 48.071 53.409 48.071 53.409 50.842 5.63 50.842"/>
          <polygon fill="#FFF" points="62.176 48.071 77.7 48.071 77.7 50.842 62.176 50.842"/>
          <polygon fill="#E0E0E0" points="53.489 45.992 57.109 45.992 57.109 52.921 53.489 52.921"/>
          <ellipse cx="41.665" cy="24.945" fill="#E0E0E0" rx="15.283" ry="16.457"/>
          <polygon fill="#FFF" points="36.839 14.984 36.839 34.819 49.87 24.945"/>
        </g>
        <polygon fill="#75CCF2" points="54.535 .433 28.796 .433 32.817 9.094 50.513 9.094"/>
        <polygon fill="#4FB7EF" points="43.676 59.937 43.676 9.094 39.654 9.094 39.654 59.937 .483 78.126 10.698 78.126 41.665 63.748 72.713 78.126 82.848 78.126"/>
      </g>
    </g>
    <g transform="translate(0 189.544)">
      <path fill="#372665" d="M75.4478261,124.896864 C76.2521739,127.755114 74.6434783,130.786591 71.9891304,131.652727 C69.3347826,132.518864 66.5195652,130.786591 65.7152174,127.928341 C64.9108696,125.070091 66.5195652,122.038614 69.173913,121.172477 C71.9086957,120.306341 74.6434783,121.952 75.4478261,124.896864 Z"/>
      <path fill="#372665" d="M90.4891304,125.936227 L72.0695652,131.566114 C70.1391304,132.172409 68.1282609,130.959818 67.5652174,128.881091 C67.0021739,126.802364 68.3695652,121.432318 70.3,120.826023 L89.6043478,120.99925 C91.6956522,120.99925 92.9021739,123.8575 91.2934783,125.416545 C91.0521739,125.676386 90.7304348,125.849614 90.4891304,125.936227 Z"/>
      <path fill="#E0E0E0" d="M76.4130435 123.337818C75.85 123.337818 75.5282609 122.731523 75.6086957 122.211841L76.0913043 120.133114C76.1717391 119.700045 76.573913 119.440205 76.976087 119.440205 77.5391304 119.440205 77.8608696 120.0465 77.7804348 120.566182L77.2978261 122.644909C77.2173913 123.077977 76.8152174 123.337818 76.4130435 123.337818zM79.1478261 123.511045C78.5847826 123.511045 78.2630435 122.90475 78.3434783 122.385068L78.826087 120.306341C78.9065217 119.873273 79.3086957 119.613432 79.7108696 119.613432 80.273913 119.613432 80.5956522 120.219727 80.5152174 120.739409L80.0326087 122.818136C79.9521739 123.164591 79.6304348 123.511045 79.1478261 123.511045z"/>
      <path fill="#4FB7EF" d="M64.9913043,87.8262273 L64.9108696,87.7396136 L37.3217391,70.2436591 L29.0369565,79.8577727 L57.9934783,96.4009773 L64.8304348,128.274795 L65.0717391,128.274795 L72.873913,120.739409 L67.6456522,91.5506136 C67.2434783,89.9915682 66.3586957,88.60575 64.9913043,87.8262273 Z"/>
      <path fill="#372665" d="M9.41086957,136.676318 C9.41086957,139.361341 7.4,141.526682 4.82608696,141.526682 C2.3326087,141.526682 0.32173913,139.361341 0.32173913,136.589705 C0.32173913,133.904682 2.3326087,131.739341 4.90652174,131.739341 C7.4,131.739341 9.41086957,133.991295 9.41086957,136.676318 Z"/>
      <path fill="#372665" d="M22.2,141.613295 L4.98695652,141.613295 C3.13695652,141.613295 1.68913043,140.05425 1.68913043,138.062136 C1.68913043,136.070023 4.10217391,131.825955 5.87173913,131.825955 L22.5217391,137.196 C24.3717391,137.802295 24.6934783,140.573932 23.0043478,141.440068 C22.6826087,141.526682 22.4413043,141.613295 22.2,141.613295 Z"/>
      <path fill="#E0E0E0" d="M10.6173913 135.636955C10.1347826 135.463727 9.97391304 134.944045 10.2152174 134.424364L11.1 132.778705C11.2608696 132.43225 11.6630435 132.259023 11.9847826 132.43225 12.4673913 132.605477 12.6282609 133.125159 12.3869565 133.644841L11.5021739 135.2905C11.3413043 135.636955 10.9391304 135.723568 10.6173913 135.636955zM12.95 136.503091C12.4673913 136.329864 12.3065217 135.810182 12.5478261 135.2905L13.4326087 133.644841C13.5934783 133.298386 13.9956522 133.125159 14.3173913 133.298386 14.8 133.471614 14.9608696 133.991295 14.7195652 134.510977L13.8347826 136.156636C13.673913 136.416477 13.3521739 136.589705 12.95 136.503091z"/>
      <path fill="#4FB7EF" d="M41.2630435,65.8263636 L22.923913,63.6610227 C21.7978261,65.0468409 20.4304348,69.3775227 20.0282609,71.2830227 C19.3847826,74.4011136 19.9478261,77.4325909 21.3956522,79.9443864 C22.8434783,82.4561818 25.176087,84.3616818 28.0717391,85.0545909 C29.4391304,85.4010455 36.4369565,85.4876591 39.6543478,82.1097273 C44.4804348,77.0861364 41.2630435,65.8263636 41.2630435,65.8263636 Z"/>
      <path fill="#4FB7EF" d="M29.8413043,76.3932273 L18.0173913,76.3932273 L22.5217391,106.621386 L2.65434783,131.566114 L12.95,134.684205 L31.9326087,111.731591 C32.8978261,110.605614 33.3804348,109.046568 33.1391304,107.400909 L29.8413043,76.3932273 Z"/>
      <path fill="#566CD3" d="M78.0217391,63.5744091 L50.7543478,63.0547273 C49.5478261,63.0547273 48.4217391,62.2752045 47.9391304,61.1492273 L37.2413043,38.1966136 L43.0326087,35.0785227 L52.8456522,56.1256364 L78.1826087,56.5587045 L78.0217391,63.5744091 Z"/>
      <path fill="#FFF" d="M32.9782609,22.7793864 C32.9782609,22.7793864 34.7478261,27.5431364 38.5282609,28.7557273 L38.7695652,22.5195455 L32.9782609,22.7793864 Z"/>
      <g transform="translate(28.152 4.33)">
        <polygon fill="#80272B" points="10.939 12.646 10.054 31.181 2.091 30.748 3.298 12.819 3.62 7.709"/>
        <path fill="#80272B" d="M13.5130435,23.5589091 C13.8347826,23.4722955 14.4782609,23.2990682 14.7195652,23.2124545 C17.6956522,22.3463182 20.5913043,17.0628864 20.5108696,14.0314091 C20.35,10.3936364 20.0282609,8.57475 20.1891304,6.14956818 C20.4304348,2.77163636 17.4543478,0.173227273 14.3173913,0.259840909 L7.96304348,0.519681818 C5.55,0.606295455 3.7,2.77163636 3.78043478,5.37004545 L4.1826087,16.4565909 C4.42391304,20.5274318 9.89347826,24.2518182 13.5130435,23.5589091 Z"/>
        <path fill="#E8E5ED" d="M0.402173913,26.0707045 C1.28695652,25.4644091 2.3326087,25.1179545 3.37826087,25.2911818 L6.9173913,25.72425 C8.60652174,25.8974773 10.2152174,26.5903864 11.5021739,27.62975 C7.8826087,28.7557273 3.45869565,28.3226591 0.402173913,26.0707045 Z"/>
      </g>
      <path fill="#566CD3" d="M23.0847826,37.6769318 C23.2456522,34.6454545 25.7391304,30.6612273 28.7152174,30.2281591 C33.8630435,31.0076818 38.4478261,31.2675227 40.1369565,31.7872045 C43.1130435,34.0391591 44.8826087,37.8501591 44.4,42.0076136 L43.9173913,76.3066136 C34.3456522,83.5821591 16.8108696,80.6372955 16.8108696,80.6372955 C16.8913043,65.9129773 22.7630435,43.5666591 23.0847826,37.6769318 Z"/>
      <path fill="#566CD3" d="M58.8782609,63.4011818 L36.5978261,63.6610227 C34.9891304,63.6610227 33.6217391,62.4484318 33.3804348,60.7161591 L29.6804348,34.299 L36.1152174,33.2596364 L39.3326087,56.6453182 L58.7978261,56.3854773 L58.8782609,63.4011818 Z"/>
      <path fill="#DAAEE5" d="M39.2521739,31.6139773 C37.8043478,31.2675227 35.2304348,31.1809091 31.0478261,30.5746136 C33.3,36.3777273 39.4934783,41.1414773 41.3434783,47.8973409 C42.3086957,46.8579773 42.2282609,33.8659318 39.2521739,31.6139773 Z"/>
      <path fill="#372665" d="M44.8021739 11.3463864C57.1086957 8.48813636 48.2608696.0866136364 48.2608696.0866136364 48.2608696.0866136364 48.0195652 3.20470455 45.6065217 2.16534091 41.0217391.173227273 31.1282609-1.03936364 28.3934783 5.37004545 26.3021739 10.3936364 30.2434783 21.3069545 30.9673913 24.1652045 32.173913 23.2990682 31.1282609 10.48025 36.1956522 10.9999318 38.9304348 11.3463864 42.0673913 12.0392955 44.8021739 11.3463864zM42.8717391 25.1179545C45.3652174 25.0313409 43.7565217 20.5274318 42.7913043 20.6140455 41.9065217 20.7006591 40.3782609 25.2911818 42.8717391 25.1179545z"/>
      <g fill="#8149E0" transform="translate(28.152 27.716)">
        <path d="M10.8586957,4.93697727 C10.6173913,4.59052273 9.7326087,3.98422727 9.7326087,3.63777273 C9.08913043,3.55115909 9.16956522,3.811 8.28478261,3.72438636 C10.7782609,6.23618182 9.33043478,10.3070227 10.2956522,14.0314091 C11.5826087,15.9369091 12.6282609,17.9290227 13.2717391,20.1809773 C13.8347826,19.5746818 13.9956522,15.244 13.5934783,11.2597727 C13.4326087,10.8267045 12.8695652,7.44877273 10.8586957,4.93697727 Z"/>
        <path d="M11.1,5.62988636 C10.7782609,6.06295455 9.41086957,6.32279545 9.00869565,5.97634091 C8.60652174,5.62988636 8.20434783,3.98422727 8.20434783,3.98422727 L11.1,3.63777273 C11.1,3.63777273 11.4217391,5.19681818 11.1,5.62988636 Z"/>
        <polygon points="6.676 7.102 .402 2.685 2.574 .173 9.974 3.724"/>
        <polygon points="11.904 5.37 11.502 3.898 10.296 2.598 9.813 3.724"/>
      </g>
      <path fill="#8149E0" d="M34.426087,55.2595 C34.426087,54.4799773 35.0695652,53.7870682 35.7934783,53.7870682 L85.5826087,53.7870682 C86.6282609,53.7870682 87.5130435,54.4799773 87.5130435,55.2595 C87.5130435,56.0390227 86.6282609,56.7319318 85.5826087,56.7319318 L35.7934783,56.7319318 C34.9891304,56.7319318 34.426087,56.0390227 34.426087,55.2595 Z"/>
      <path fill="#FFF" d="M32.4152174,55.2595 C32.4152174,56.0390227 33.0586957,56.7319318 33.8630435,56.7319318 L52.7652174,56.7319318 C53.5695652,56.7319318 54.2130435,56.0390227 54.2130435,55.2595 C54.2130435,54.4799773 53.5695652,53.7870682 52.7652174,53.7870682 L33.8630435,53.7870682 C33.1391304,53.7870682 32.4152174,54.3933636 32.4152174,55.2595 Z"/>
      <path fill="#FFF" d="M87.4326087,25.9840909 L87.4326087,53.0075455 C87.4326087,54.2201364 86.5478261,55.1728864 85.4217391,55.1728864 L52.2826087,55.1728864 C51.1565217,55.1728864 50.2717391,54.2201364 50.2717391,53.0075455 L50.2717391,25.9840909 C50.2717391,24.7715 51.1565217,23.81875 52.2826087,23.81875 L85.4217391,23.81875 C86.5478261,23.81875 87.4326087,24.7715 87.4326087,25.9840909 Z"/>
      <path fill="#8149E0" d="M88.9608696,25.9840909 L88.9608696,53.0075455 C88.9608696,54.2201364 88.076087,55.1728864 86.95,55.1728864 L53.8108696,55.1728864 C52.6847826,55.1728864 51.8,54.2201364 51.8,53.0075455 L51.8,25.9840909 C51.8,24.7715 52.6847826,23.81875 53.8108696,23.81875 L86.95,23.81875 C88.076087,23.81875 88.9608696,24.7715 88.9608696,25.9840909 Z"/>
      <path fill="#FFF" d="M64.9108696,39.4958182 C64.9108696,38.1966136 65.876087,37.15725 67.0826087,37.15725 L73.7586957,37.15725 C74.9652174,37.15725 75.9304348,38.1966136 75.9304348,39.4958182 C75.9304348,40.7950227 74.9652174,41.8343864 73.7586957,41.8343864 L67.0826087,41.8343864 C65.876087,41.8343864 64.9108696,40.7950227 64.9108696,39.4958182 Z"/>
      <path fill="#80272B" d="M56.7869565 59.8500227C56.5456522 58.3775909 56.8673913 56.9917727 57.5108696 55.7791818L65.876087 54.2201364C66.8413043 55.0862727 67.5652174 56.3854773 67.8065217 57.7712955 68.2891304 61.0626136 66.2782609 64.0940909 63.2217391 64.7003864 60.1652174 65.3066818 57.2695652 63.1413409 56.7869565 59.8500227zM74.4021739 58.2043636C74.3217391 56.7319318 74.6434783 55.3461136 75.4478261 54.2201364L83.8934783 53.4406136C84.7782609 54.3933636 85.4217391 55.6925682 85.5021739 57.165 85.7434783 60.4563182 83.4913043 63.4011818 80.4347826 63.6610227 77.3782609 63.9208636 74.723913 61.4956818 74.4021739 58.2043636z"/>
    </g>
    <g transform="translate(183.391 .726)">
      <path fill="#372665" d="M38.9304348,23.81875 C36.0347826,23.81875 33.7021739,19.7479091 33.7021739,14.8109318 C33.7021739,9.87395455 36.1152174,5.80311364 39.0108696,5.80311364 C41.9065217,5.80311364 44.2391304,9.87395455 44.2391304,14.8109318 C44.2391304,19.8345227 41.826087,23.81875 38.9304348,23.81875 Z"/>
      <path fill="#372665" d="M64.4282609,28.0628182 C61.05,25.9840909 57.35,20.7872727 58.7173913,16.1101364 C62.0152174,5.37004545 54.2934783,1.47243182 50.4326087,0.692909091 C46.5717391,-0.0866136364 43.1934783,0.95275 41.0217391,2.77163636 C37.5630435,5.80311364 38.6086957,10.9999318 40.5391304,15.1573864 C38.4478261,16.4565909 37.4021739,19.3148409 38.6086957,21.3935682 C41.2630435,25.9840909 39.0108696,32.1336591 37.4021739,35.7714318 C34.8282609,41.6611591 38.3673913,48.9367045 44.5608696,52.2280227 C50.673913,55.5193409 58.7173913,55.1728864 64.9108696,52.2280227 C67.9673913,50.7555909 70.7021739,48.59025 72.15,45.732 C75.126087,39.5824318 70.7826087,31.9604318 64.4282609,28.0628182 Z"/>
      <path fill="#E8E5ED" d="M22.1195652,69.2042955 C20.6717391,69.4641364 19.1434783,69.55075 17.5347826,69.6373636 C16.3282609,69.6373636 15.3630435,68.6846136 15.3630435,67.3854091 C15.3630435,66.0862045 16.2478261,65.0468409 17.4543478,65.0468409 C24.9347826,64.787 30.5652174,62.4484318 34.1847826,57.9445227 C39.6543478,51.1020455 38.6086957,41.5745455 38.6086957,41.4879318 C38.4478261,40.1887273 39.3326087,39.06275 40.4586957,38.8895227 C41.6652174,38.7162955 42.7108696,39.5824318 42.8717391,40.8816364 C42.9521739,41.3147045 44.1586957,52.4878636 37.4826087,60.8893864 C33.7021739,65.3932955 28.6347826,68.1649318 22.1195652,69.2042955 Z"/>
      <path fill="#75CCF2" d="M40.0565217,37.2438636 C38.0456522,37.5903182 36.5978261,39.5824318 36.9195652,41.6611591 C36.9195652,41.7477727 37.8043478,50.5823636 32.8978261,56.8185455 C30.4847826,59.8500227 26.9456522,61.8421364 22.4413043,62.7082727 C23.7282609,65.1334545 23.9695652,68.1649318 22.923913,70.7633409 C29.5195652,69.6373636 34.8282609,66.6925 38.5282609,62.0153636 C45.6065217,53.0941591 44.3195652,41.2280909 44.3195652,40.7084091 C43.9978261,38.5430682 42.1478261,36.9840227 40.0565217,37.2438636 Z"/>
      <path fill="#E8E5ED" d="M44.3195652,30.488 L44.2391304,33.0864091 C45.4456522,32.9131818 46.973913,32.3068864 47.7782609,31.3541364 L47.7782609,29.4486364 C46.7326087,30.1415455 45.526087,30.5746136 44.3195652,30.488 Z"/>
      <g fill="#E8E5ED" transform="translate(34.587 5.197)">
        <path d="M6.11304348,35.9446591 C4.98695652,35.3383636 4.10217391,33.5194773 5.46956522,31.8738182 C6.75652174,30.2281591 8.7673913,29.3620227 10.8586957,29.2754091 L11.4217391,29.2754091 C13.3521739,29.1887955 15.0413043,30.0549318 16.1673913,31.5273636 C15.2021739,34.5588409 9.08913043,37.15725 6.11304348,35.9446591 Z"/>
        <path d="M9.7326087,24.6848864 L9.65217391,27.2832955 L9.57173913,32.1336591 L13.0304348,32.2202727 L13.1108696,25.9840909 L13.1913043,23.5589091 C12.1456522,24.3384318 10.9391304,24.7715 9.7326087,24.6848864 Z"/>
        <path d="M10.5369565,26.677 C13.8347826,26.677 16.7304348,24.9447273 18.5804348,22.2597045 C19.8673913,20.4408182 20.5913043,18.10225 20.5913043,15.6770682 L20.5913043,11.433 C20.5913043,8.31490909 19.3043478,5.54327273 17.373913,3.55115909 C15.523913,1.73227273 13.1108696,0.606295455 10.376087,0.606295455 C8.60652174,0.606295455 6.9173913,1.12597727 5.46956522,1.99211364 C2.41304348,3.89761364 0.32173913,7.44877273 0.32173913,11.6062273 L0.32173913,15.8502955 C0.32173913,19.8345227 2.3326087,23.2124545 5.22826087,25.1179545 C6.83695652,26.1573182 8.68695652,26.677 10.5369565,26.677 Z"/>
      </g>
      <path fill="#372665" d="M37.4826087 67.2987955C36.276087 72.8420682 39.573913 78.3853409 44.7217391 79.6845455 49.8695652 80.98375 55.0173913 77.4325909 56.223913 71.8893182 57.4304348 66.3460455 54.1326087 60.8027727 48.9847826 59.5035682 43.7565217 58.2043636 38.6086957 61.7555227 37.4826087 67.2987955zM44.4804348 26.1573182C44.2391304 27.5431364 43.1934783 28.5825 41.826087 28.5825 40.5391304 28.5825 39.4130435 27.62975 39.1717391 26.2439318L44.4804348 26.1573182z"/>
      <path fill="#75CCF2" d="M35.5521739,42.87375 C34.9086957,44.77925 36.7586957,46.7713636 38.6086957,47.0312045 C40.5391304,47.2910455 42.2282609,45.732 42.4695652,43.7398864 C42.7108696,41.6611591 39.8152174,37.15725 38.7695652,38.8895227 C37.723913,40.4485682 36.1152174,41.2280909 35.5521739,42.87375 Z"/>
      <path fill="#75CCF2" d="M50.7543478,36.7241818 C51.5586957,37.7635455 52.1217391,39.06275 52.2021739,40.5351818 C52.2021739,40.5351818 51.3173913,57.5114545 55.6608696,65.3066818 L37.2413043,66.9523409 L37.723913,43.4800455 C37.6434783,40.96825 38.5282609,38.7162955 39.976087,37.0706364 C40.0565217,40.8816364 47.2956522,36.3777273 50.7543478,36.7241818 Z"/>
      <path fill="#DAAEE5" d="M38.3673913,112.597727 C36.6782609,112.684341 35.7934783,114.416614 35.7130435,114.849682 C34.9086957,117.534705 35.2304348,120.306341 33.6217391,124.81025 C32.576087,127.928341 31.45,128.534636 30.726087,131.046432 C30.0826087,133.211773 31.9326087,133.904682 33.7021739,133.125159 C34.426087,132.865318 38.85,131.566114 38.9304348,127.6685 C39.0108696,124.896864 38.6891304,122.731523 39.4934783,120.306341 C40.2978261,117.881159 41.0217391,119.266977 41.2630435,119.959886 C41.423913,120.479568 42.0673913,122.038614 42.2282609,122.471682 C42.3086957,122.644909 42.4695652,122.731523 42.6304348,122.644909 C42.7913043,122.558295 42.8717391,122.385068 42.7913043,122.125227 C42.55,121.605545 42.0673913,119.700045 41.9065217,117.274864 C41.826087,114.416614 39.8956522,112.511114 38.3673913,112.597727 Z"/>
      <path fill="#E8E5ED" d="M36.5978261,125.849614 C37.5630435,123.597659 38.6086957,116.668568 38.126087,115.196136 C37.4826087,113.37725 34.023913,113.290636 33.7826087,114.849682 C33.3804348,117.621318 34.5065217,122.471682 32.3347826,127.6685 C32.576087,129.054318 35.4717391,128.534636 36.5978261,125.849614 Z"/>
      <path fill="#372665" d="M49.7891304,79.07825 L27.1869565,90.4246364 L29.3586957,84.9679773 L37.723913,114.243386 C38.2065217,115.975659 37.3217391,117.881159 35.6326087,118.487455 C34.023913,119.007136 32.4152174,118.141 31.7717391,116.495341 L21.476087,87.9128409 C20.7521739,85.8341136 21.6369565,83.4955455 23.4869565,82.5427955 L23.6478261,82.4561818 L46.1695652,70.8499545 C48.3413043,69.7239773 50.8347826,70.7633409 51.8804348,73.0152955 C52.926087,75.26725 52.0413043,77.9522727 49.7891304,79.07825 C49.8695652,79.07825 49.8695652,79.07825 49.7891304,79.07825 Z"/>
      <path fill="#DAAEE5" d="M23.1652174,103.416682 C21.6369565,102.637159 20.1086957,103.763136 19.7869565,104.109591 C17.9369565,106.101705 16.9717391,108.700114 13.5934783,111.904818 C11.3413043,114.070159 10.0543478,114.070159 8.28478261,115.975659 C6.75652174,117.534705 8.12391304,119.09375 10.0543478,119.353591 C10.7782609,119.440205 15.2826087,120.566182 17.0521739,117.18825 C18.3391304,114.763068 18.9826087,112.684341 20.7521739,110.952068 C22.5217391,109.219795 22.6021739,110.778841 22.5217391,111.558364 C22.4413043,112.078045 22.3608696,113.723705 22.2804348,114.243386 C22.2804348,114.416614 22.3608696,114.589841 22.6021739,114.589841 C22.7630435,114.589841 22.923913,114.416614 23.0043478,114.243386 C23.0043478,113.637091 23.4065217,111.731591 24.2913043,109.479636 C25.4173913,106.708 24.5326087,104.109591 23.1652174,103.416682 Z"/>
      <path fill="#E8E5ED" d="M15.8456522,114.243386 C17.6152174,112.684341 21.6369565,107.141068 21.7978261,105.495409 C22.0391304,103.589909 18.9826087,101.684409 18.0978261,103.070227 C16.5695652,105.322182 15.4434783,110.172545 11.2608696,113.637091 C10.9391304,115.022909 13.7543478,116.062273 15.8456522,114.243386 Z"/>
      <path fill="#372665" d="M48.2608696,79.8577727 L23.326087,78.4719545 L27.5891304,74.6609545 L22.3608696,104.715886 C22.0391304,106.534773 20.4304348,107.747364 18.7413043,107.400909 C17.1326087,107.054455 16.0065217,105.408795 16.2478261,103.676523 L19.4652174,73.2751364 C19.7065217,71.0231818 21.476087,69.3775227 23.5673913,69.4641364 L23.7282609,69.4641364 L48.6630435,70.5035 C50.9956522,70.5901136 52.8456522,72.7554545 52.7652174,75.26725 C52.6043478,77.9522727 50.673913,79.9443864 48.2608696,79.8577727 C48.2608696,79.8577727 48.2608696,79.8577727 48.2608696,79.8577727 Z"/>
      <path fill="#E8E5ED" d="M50.0304348,69.6373636 C48.9043478,69.8105909 47.7782609,69.9838182 46.4913043,70.0704318 C45.2847826,70.1570455 44.3195652,69.2042955 44.2391304,67.9050909 C44.1586957,66.6058864 45.0434783,65.5665227 46.25,65.4799091 C50.1913043,65.2200682 55.1782609,64.1807045 56.4652174,60.7161591 C58.476087,55.2595 51.5586957,45.3855455 48.9043478,42.3540682 C48.1,41.4013182 48.1804348,39.9288864 49.0652174,39.06275 C49.95,38.1966136 51.3173913,38.2832273 52.1217391,39.2359773 C53.3282609,40.6217955 63.8652174,53.354 60.4869565,62.4484318 C59.0391304,66.1728182 55.5,68.598 50.0304348,69.6373636 Z"/>
      <path fill="#75CCF2" d="M53.2478261,38.0233864 C52.3630435,37.0706364 51.1565217,36.5509545 49.8695652,36.8107955 C49.0652174,36.9840227 48.2608696,37.4170909 47.6978261,38.11 C46.4108696,39.6690455 46.5717391,42.0076136 47.8586957,43.5666591 C50.8347826,47.0312045 56.5456522,55.8657955 55.0173913,60.02325 C54.776087,60.7161591 54.2130435,61.3224545 53.4891304,61.8421364 C52.2021739,62.7082727 51.3978261,64.3539318 51.7195652,65.9995909 C51.7195652,65.9995909 51.7195652,66.0862045 51.7195652,66.0862045 C52.2021739,68.6846136 54.8565217,70.1570455 57.0282609,68.8578409 C59.3608696,67.4720227 60.9695652,65.4799091 61.8543478,63.0547273 C65.5543478,53.1807727 55.3391304,40.5351818 53.2478261,38.0233864 Z"/>
      <path fill="#E8E5ED" d="M37.4021739 67.3854091C37.4826087 68.7712273 38.0456522 69.9838182 38.9304348 70.8499545L46.7326087 70.1570455C47.4565217 69.1176818 47.7782609 67.8184773 47.6978261 66.5192727 47.4565217 63.4877955 44.9630435 61.2358409 42.1478261 61.4090682 39.2521739 61.6689091 37.1608696 64.3539318 37.4021739 67.3854091zM10.7782609 68.4247727C10.8586957 69.8105909 11.3413043 71.0231818 12.1456522 71.9759318L19.9478261 71.6294773C20.6717391 70.5901136 21.073913 69.3775227 21.073913 67.9917045 20.9934783 64.9602273 18.5804348 62.5350455 15.7652174 62.7082727 12.8695652 62.7948864 10.6173913 65.3932955 10.7782609 68.4247727z"/>
      <path fill="#372665" d="M56.8673913,14.3778636 C55.7413043,17.8424091 50.673913,19.1416136 45.526087,17.1495 C40.3782609,15.244 37.1608696,10.8267045 38.2869565,7.36215909 C39.4130435,3.89761364 44.4804348,2.59840909 49.6282609,4.59052273 C54.776087,6.49602273 57.9934783,10.9133182 56.8673913,14.3778636 Z"/>
      <path fill="#566CD3" d="M51.4782609,70.5901136 C51.4782609,69.8105909 50.9152174,69.2042955 50.1913043,69.2042955 L3.53913043,69.2042955 C2.57391304,69.2042955 1.76956522,69.8105909 1.76956522,70.5901136 C1.76956522,71.3696364 2.57391304,71.9759318 3.53913043,71.9759318 L50.1913043,71.9759318 C50.9152174,71.9759318 51.4782609,71.2830227 51.4782609,70.5901136 Z"/>
      <path fill="#FFF" d="M53.2478261,70.5901136 C53.2478261,71.3696364 52.6043478,71.9759318 51.8804348,71.9759318 L34.1847826,71.9759318 C33.4608696,71.9759318 32.8173913,71.3696364 32.8173913,70.5901136 C32.8173913,69.8105909 33.4608696,69.2042955 34.1847826,69.2042955 L51.8804348,69.2042955 C52.6847826,69.2042955 53.2478261,69.8105909 53.2478261,70.5901136 Z"/>
      <path fill="#FFF" d="M1.85,43.2202045 L1.85,68.5113864 C1.85,69.6373636 2.73478261,70.5901136 3.78043478,70.5901136 L34.8282609,70.5901136 C35.873913,70.5901136 36.7586957,69.6373636 36.7586957,68.5113864 L36.7586957,43.2202045 C36.7586957,42.0942273 35.873913,41.1414773 34.8282609,41.1414773 L3.78043478,41.1414773 C2.65434783,41.1414773 1.85,42.0942273 1.85,43.2202045 Z"/>
      <path fill="#566CD3" d="M0.402173913,43.2202045 L0.402173913,68.5113864 C0.402173913,69.6373636 1.28695652,70.5901136 2.3326087,70.5901136 L33.3804348,70.5901136 C34.426087,70.5901136 35.3108696,69.6373636 35.3108696,68.5113864 L35.3108696,43.2202045 C35.3108696,42.0942273 34.426087,41.1414773 33.3804348,41.1414773 L2.3326087,41.1414773 C1.20652174,41.1414773 0.402173913,42.0942273 0.402173913,43.2202045 Z"/>
      <path fill="#FFF" d="M22.923913,55.8657955 C22.923913,54.6532045 22.0391304,53.7004545 20.9130435,53.7004545 L14.7195652,53.7004545 C13.5934783,53.7004545 12.7086957,54.6532045 12.7086957,55.8657955 C12.7086957,57.0783864 13.5934783,58.0311364 14.7195652,58.0311364 L20.9130435,58.0311364 C22.0391304,58.0311364 22.923913,56.9917727 22.923913,55.8657955 Z"/>
    </g>
    <g transform="translate(283.935 161.827)">
      <path fill="#E8E5ED" d="M52.1217391 118.833909C51.7195652 117.621318 41.9869565 89.6451136 41.9869565 72.5822273L47.7782609 72.5822273C47.7782609 88.60575 57.4304348 116.408727 57.5108696 116.668568L52.1217391 118.833909zM26.7847826 95.7946818L17.1326087 78.3853409C16.7304348 77.6924318 16.65 76.7396818 16.8108696 75.9601591 17.0521739 75.1806364 17.5347826 74.4877273 18.2586957 74.0546591L33.7826087 65.2200682 36.4369565 70.6767273 23.6478261 77.9522727 31.7717391 92.5899773 26.7847826 95.7946818z"/>
      <path fill="#121F55" d="M54.8565217,9.70072727 C54.8565217,9.70072727 51.076087,4.76375 49.3065217,3.11809091 C46.1695652,0.173227273 43.5152174,3.46454545 43.5152174,3.46454545 C27.8304348,0.866136364 24.8543478,25.0313409 32.0130435,31.0076818 C37.8043478,35.8580455 42.6304348,32.4801136 42.6304348,32.4801136 C42.6304348,32.4801136 45.9282609,35.0785227 50.9152174,35.9446591 C54.0521739,36.4643409 57.7521739,34.299 57.7521739,34.299 C57.7521739,34.299 62.0956522,37.6769318 65.473913,32.6533409 C68.8521739,27.62975 63.8652174,22.3463182 61.2108696,22.3463182 C61.2108696,22.3463182 64.3478261,18.2754773 60.0043478,15.5038409 C58.3956522,14.4644773 54.8565217,9.70072727 54.8565217,9.70072727 Z"/>
      <path fill="#E8E5ED" d="M35.3913043,39.6690455 C34.3456522,39.06275 33.4608696,37.3304773 34.7478261,35.7714318 C35.9543478,34.2123864 37.8847826,33.34625 39.976087,33.2596364 L40.5391304,33.2596364 C42.3891304,33.1730227 43.9978261,34.0391591 45.123913,35.4249773 C44.2391304,38.3698409 38.2869565,40.8816364 35.3913043,39.6690455 Z"/>
      <path fill="#E8E5ED" d="M38.6086957,28.8423409 L38.5282609,31.3541364 L38.4478261,36.0312727 L41.826087,36.1178864 L41.9065217,30.1415455 L41.9869565,27.8029773 C40.9413043,28.4958864 39.8152174,28.9289545 38.6086957,28.8423409 Z"/>
      <path fill="#E8E5ED" d="M38.6086957,28.8423409 L38.5282609,31.3541364 C39.7347826,31.1809091 41.1826087,30.5746136 41.9065217,29.6218636 L41.9065217,27.7163636 C40.9413043,28.4958864 39.8152174,28.9289545 38.6086957,28.8423409 Z"/>
      <path fill="#E8E5ED" d="M36.6782609,28.8423409 C39.4934783,30.4013864 42.7108696,30.3147727 45.3652174,28.8423409 C47.2152174,27.8895909 48.7434783,26.2439318 49.7086957,24.1652045 L51.3978261,20.4408182 C52.6847826,17.7557955 52.7652174,14.8109318 51.8804348,12.2125227 C51.076087,9.78734091 49.3869565,7.622 47.1347826,6.40940909 C45.6065217,5.54327273 43.9978261,5.19681818 42.3891304,5.28343182 C39.0108696,5.45665909 35.7130435,7.53538636 34.1043478,11.0865455 L32.4152174,14.8109318 C30.8065217,18.1888636 31.1282609,22.0864773 32.8173913,25.1179545 C33.7021739,26.5903864 35.0695652,27.9762045 36.6782609,28.8423409 Z"/>
      <path fill="#121F55" d="M47.4565217,18.0156364 C40.4586957,19.2282273 39.7347826,11.0865455 40.1369565,7.79522727 C40.9413043,0.779522727 49.4673913,2.16534091 52.3630435,5.62988636 C54.2130435,7.79522727 57.4304348,13.5983409 56.0630435,20.8738864 C54.6956522,28.1494318 47.7782609,32.6533409 47.7782609,32.6533409 C40.2173913,26.677 48.0195652,20.9605 48.0195652,20.9605 L47.4565217,18.0156364 Z"/>
      <path fill="#F7B75D" d="M32.3347826,64.8736136 C31.2086957,70.2436591 34.3456522,75.5270909 39.3326087,76.8262955 C44.3195652,78.0388864 49.226087,74.6609545 50.4326087,69.2909091 C51.5586957,63.9208636 48.4217391,58.6374318 43.4347826,57.3382273 C38.4478261,56.1256364 33.4608696,59.5035682 32.3347826,64.8736136 Z"/>
      <path fill="#121F55" d="M37.4826087,23.1258409 C36.7586957,24.1652045 35.3913043,24.5116591 34.2652174,23.9053636 C33.1391304,23.2990682 32.576087,21.91325 32.8978261,20.6140455 L37.4826087,23.1258409 Z"/>
      <path fill="#566CD3" d="M25.4978261 69.8972045C37.723913 81.3302045 52.8456522 86.8734773 52.8456522 86.8734773 52.8456522 86.8734773 55.4195652 70.1570455 49.7086957 62.9681136 46.8130435 59.3303409 32.0934783 64.6137727 32.0934783 64.6137727L25.4978261 69.8972045zM30.4847826 41.3147045C29.8413043 43.2202045 31.6108696 45.0390909 33.4608696 45.2989318 35.3108696 45.4721591 37 44.0863409 37.1608696 42.0942273 37.4021739 40.1021136 34.5869565 35.7714318 33.5413043 37.4170909 32.576087 39.06275 31.0478261 39.7556591 30.4847826 41.3147045z"/>
      <path fill="#566CD3" d="M45.123913,35.4249773 C45.9282609,36.4643409 46.4108696,37.6769318 46.4913043,39.1493636 C46.4913043,39.1493636 45.6869565,55.5193409 49.7891304,63.0547273 C51.5586957,66.2594318 32.0130435,66.1728182 32.0130435,66.1728182 L32.576087,42.0076136 C32.4956522,39.5824318 33.3,37.4170909 34.7478261,35.7714318 C34.8282609,39.4092045 41.826087,35.0785227 45.123913,35.4249773 Z"/>
      <path fill="#566CD3" d="M42.1478261,41.4013182 C38.6891304,41.4013182 15.2826087,40.1887273 2.25217391,9.18104545 L7.48043478,6.66925 C19.626087,35.5982045 41.3434783,35.25175 42.3086957,35.25175 L42.4695652,41.4879318 C42.4695652,41.4013182 42.3891304,41.4013182 42.1478261,41.4013182 Z"/>
      <path fill="#E8E5ED" d="M7.4,1.64565909 C6.35434783,0.95275 5.14782609,0.692909091 4.02173913,0.95275 L0.0804347826,7.88184091 C0.402173913,9.00781818 1.12608696,10.0471818 2.17173913,10.7400909 C4.50434783,12.2991364 7.56086957,11.5196136 9.00869565,9.00781818 C10.4565217,6.49602273 9.7326087,3.20470455 7.4,1.64565909 Z"/>
      <g fill="#4FB7EF" transform="translate(16.087 91.81)">
        <path d="M11.9043478,5.7165 C12.4673913,7.88184091 14.5586957,9.09443182 16.5695652,8.48813636 C18.5804348,7.88184091 19.7065217,5.62988636 19.1434783,3.46454545 C18.5804348,1.29920455 16.4891304,0.0866136364 14.4782609,0.692909091 C12.4673913,1.29920455 11.3413043,3.55115909 11.9043478,5.7165 Z"/>
        <path d="M2.81521739,12.8188182 L16.4891304,8.48813636 C17.9369565,8.05506818 18.7413043,6.40940909 18.3391304,4.85036364 C17.9369565,3.29131818 15.1217391,0.519681818 13.673913,0.95275 L1.60869565,9.35427273 C0.241304348,10.3070227 0.643478261,12.5589773 2.17173913,12.9054318 C2.41304348,12.9054318 2.65434783,12.9054318 2.81521739,12.8188182 Z"/>
      </g>
      <g fill="#4FB7EF" transform="translate(43.435 115.196)">
        <path d="M9.08913043,7.10231818 C10.376087,8.83459091 12.7086957,9.18104545 14.3978261,7.79522727 C16.0065217,6.40940909 16.3282609,3.89761364 15.0413043,2.07872727 C13.7543478,0.346454545 11.4217391,2.66453526e-15 9.7326087,1.38581818 C8.12391304,2.77163636 7.80217391,5.28343182 9.08913043,7.10231818 Z"/>
        <path d="M3.05652174,17.2361136 L14.3173913,7.88184091 C15.523913,6.92909091 15.7652174,5.02359091 14.8,3.72438636 C13.9152174,2.42518182 10.2956522,0.95275 9.08913043,1.9055 L0.643478261,14.4644773 C-0.32173913,15.8502955 0.804347826,17.8424091 2.3326087,17.4959545 C2.65434783,17.4959545 2.81521739,17.4093409 3.05652174,17.2361136 Z"/>
      </g>
      <path fill="#4FB7EF" d="M38.2065217,64.1807045 C36.7586957,64.1807045 35.15,64.0074773 33.4608696,63.6610227 L33.6217391,62.7948864 C41.5043478,64.6137727 47.6173913,60.976 47.6978261,60.976 L48.1,61.7555227 C47.9391304,61.8421364 43.9173913,64.1807045 38.2065217,64.1807045 Z"/>
      <polygon fill="#E0E0E0" points="69.898 119.007 71.185 119.007 71.185 129.054 69.898 129.054"/>
      <polygon fill="#E0E0E0" points="54.857 130.007 56.143 130.007 56.143 145.944 54.857 145.944"/>
      <polygon fill="#E0E0E0" points="64.026 124.291 65.313 124.291 65.313 137.976 64.026 137.976"/>
      <polygon fill="#E0E0E0" points="64.026 107.488 65.313 107.488 65.313 115.456 64.026 115.456"/>
    </g>
  </g>
</svg>
