<svg xmlns="http://www.w3.org/2000/svg" viewBox="0 0 440 411">
  <defs>
    <linearGradient id="how-we-work-3-a" x1=".014%" x2="100.012%" y1="50.009%" y2="50.009%">
      <stop offset="0%" stop-color="#CB88D2"/>
      <stop offset="26.69%" stop-color="#C887D3"/>
      <stop offset="47.83%" stop-color="#BE85D7"/>
      <stop offset="67.05%" stop-color="#AD81DD"/>
      <stop offset="85.02%" stop-color="#967BE6"/>
      <stop offset="100%" stop-color="#7C75F0"/>
    </linearGradient>
  </defs>
  <g fill="none" transform="translate(0 -1)">
    <path fill="url(#how-we-work-3-a)" d="M410.818469,167.22999 C416.548702,185.609939 422.278934,205.848536 425.246376,226.293649 C426.78126,236.516205 427.599865,246.738762 427.395213,256.754802 C426.576609,284.324726 420.641725,311.481619 396.799865,330.89415 C322.306841,390.370842 212.204516,433.016456 115.404516,400.696656 C104.762655,397.495654 95.4510273,392.952295 87.2649808,387.376356 C79.0789343,381.903674 72.0184692,375.398411 65.8789343,368.17034 C55.1347483,348.861067 41.7300971,328.725729 29.7580041,308.177358 C23.7207948,297.851543 18.0928878,287.422471 13.1812599,276.89014 C-11.1722285,235.173849 -2.2699029,186.12623 43.9812599,156.387884 C103.534748,117.562822 145.283585,73.6781099 197.367306,32.2715936 C234.613818,2.53324776 285.264981,-1.39056177 330.492888,11.929739 C343.795213,16.0600648 356.688237,21.8425209 368.558004,29.69014 C377.46033,35.1628217 384.520795,41.771343 389.944051,48.9994132 C395.367306,56.2274833 399.255678,64.2816187 401.916144,72.6455285 C407.237074,89.1668317 408.771958,107.237007 409.488237,125.720215 C410.306841,138.937258 410.613818,152.773849 410.818469,167.22999 Z"/>
    <g transform="translate(134.047 146.11)">
      <path fill="#566CD3" d="M154.102326,0.516290727 L10.8465116,0.516290727 C5.21860465,0.516290727 0.613953488,5.16290727 0.613953488,10.8421053 L0.613953488,238.010025 C0.613953488,243.689223 5.21860465,248.33584 10.8465116,248.33584 L154.102326,248.33584 C159.730233,248.33584 164.334884,243.689223 164.334884,238.010025 L164.334884,10.8421053 C164.334884,5.16290727 159.730233,0.516290727 154.102326,0.516290727 Z"/>
      <rect width="40.93" height="5.163" x="62.009" y="10.326" fill="#372665"/>
      <g transform="translate(8.186 23.75)">
        <rect width="99.256" height="194.125" x="45.637" y="3.614" fill="#FFF"/>
        <rect width="41.953" height="194.125" x="3.684" y="3.614" fill="#E0E0E0"/>
        <path fill="#372665" d="M0.613953488,0.516290727 L0.613953488,200.837093 L147.962791,200.837093 L147.962791,0.516290727 L0.613953488,0.516290727 Z M144.893023,197.739348 L3.68372093,197.739348 L3.68372093,3.61403509 L144.893023,3.61403509 L144.893023,197.739348 Z"/>
        <g transform="translate(11.256 11.358)">
          <g fill="#CBCACC" transform="translate(3.07)">
            <rect width="18.419" height="3.614" x=".614" y=".723"/>
            <rect width="18.419" height="3.614" x=".614" y="10.016"/>
            <rect width="18.419" height="3.614" x=".614" y="19.309"/>
          </g>
          <g transform="translate(0 32.01)">
            <path fill="#FFF" d="M4.19534884,24.2656642 C2.7627907,24.2656642 1.6372093,23.1298246 1.6372093,21.6842105 L1.6372093,4.13032581 C1.6372093,2.68471178 2.7627907,1.54887218 4.19534884,1.54887218 L21.5906977,1.54887218 C23.0232558,1.54887218 24.1488372,2.68471178 24.1488372,4.13032581 L24.1488372,21.6842105 C24.1488372,23.1298246 23.0232558,24.2656642 21.5906977,24.2656642 L4.19534884,24.2656642 Z"/>
            <path fill="#CBCACC" d="M21.5906977,0 L4.19534884,0 C1.94418605,0 0.102325581,1.85864662 0.102325581,4.13032581 L0.102325581,21.6842105 C0.102325581,23.9558897 1.94418605,25.8145363 4.19534884,25.8145363 L21.5906977,25.8145363 C23.8418605,25.8145363 25.6837209,23.9558897 25.6837209,21.6842105 L25.6837209,4.13032581 C25.6837209,1.85864662 23.8418605,0 21.5906977,0 Z M10.744186,12.9072682 L3.17209302,20.5483709 L3.17209302,5.26616541 L10.744186,12.9072682 Z M5.32093023,3.09774436 L20.4651163,3.09774436 L12.8930233,10.7388471 L5.32093023,3.09774436 Z M12.8930233,15.0756892 L20.4651163,22.716792 L5.32093023,22.716792 L12.8930233,15.0756892 Z M15.0418605,12.9072682 L22.6139535,5.26616541 L22.6139535,20.5483709 L15.0418605,12.9072682 Z"/>
          </g>
          <g transform="translate(0 67.118)">
            <path fill="#FFF" d="M4.19534884,24.2656642 C2.7627907,24.2656642 1.6372093,23.1298246 1.6372093,21.6842105 L1.6372093,4.13032581 C1.6372093,2.68471178 2.7627907,1.54887218 4.19534884,1.54887218 L21.5906977,1.54887218 C23.0232558,1.54887218 24.1488372,2.68471178 24.1488372,4.13032581 L24.1488372,21.6842105 C24.1488372,23.1298246 23.0232558,24.2656642 21.5906977,24.2656642 L4.19534884,24.2656642 Z"/>
            <path fill="#CBCACC" d="M21.5906977,0 L4.19534884,0 C1.94418605,0 0.102325581,1.85864662 0.102325581,4.13032581 L0.102325581,21.6842105 C0.102325581,23.9558897 1.94418605,25.8145363 4.19534884,25.8145363 L21.5906977,25.8145363 C23.8418605,25.8145363 25.6837209,23.9558897 25.6837209,21.6842105 L25.6837209,4.13032581 C25.6837209,1.85864662 23.8418605,0 21.5906977,0 Z M10.744186,12.9072682 L3.17209302,20.5483709 L3.17209302,5.26616541 L10.744186,12.9072682 Z M5.32093023,3.09774436 L20.4651163,3.09774436 L12.8930233,10.7388471 L5.32093023,3.09774436 Z M12.8930233,15.0756892 L20.4651163,22.716792 L5.32093023,22.716792 L12.8930233,15.0756892 Z M15.0418605,12.9072682 L22.6139535,5.26616541 L22.6139535,20.5483709 L15.0418605,12.9072682 Z"/>
          </g>
          <g transform="translate(0 102.226)">
            <path fill="#FFF" d="M4.19534884,24.2656642 C2.7627907,24.2656642 1.6372093,23.1298246 1.6372093,21.6842105 L1.6372093,4.13032581 C1.6372093,2.68471178 2.7627907,1.54887218 4.19534884,1.54887218 L21.5906977,1.54887218 C23.0232558,1.54887218 24.1488372,2.68471178 24.1488372,4.13032581 L24.1488372,21.6842105 C24.1488372,23.1298246 23.0232558,24.2656642 21.5906977,24.2656642 L4.19534884,24.2656642 Z"/>
            <path fill="#CBCACC" d="M21.5906977,0 L4.19534884,0 C1.94418605,0 0.102325581,1.85864662 0.102325581,4.13032581 L0.102325581,21.6842105 C0.102325581,23.9558897 1.94418605,25.8145363 4.19534884,25.8145363 L21.5906977,25.8145363 C23.8418605,25.8145363 25.6837209,23.9558897 25.6837209,21.6842105 L25.6837209,4.13032581 C25.6837209,1.85864662 23.8418605,0 21.5906977,0 Z M10.744186,12.9072682 L3.17209302,20.5483709 L3.17209302,5.26616541 L10.744186,12.9072682 Z M5.32093023,3.09774436 L20.4651163,3.09774436 L12.8930233,10.7388471 L5.32093023,3.09774436 Z M12.8930233,15.0756892 L20.4651163,22.716792 L5.32093023,22.716792 L12.8930233,15.0756892 Z M15.0418605,12.9072682 L22.6139535,5.26616541 L22.6139535,20.5483709 L15.0418605,12.9072682 Z"/>
          </g>
          <g transform="translate(0 137.333)">
            <path fill="#FFF" d="M4.19534884,24.2656642 C2.7627907,24.2656642 1.6372093,23.1298246 1.6372093,21.6842105 L1.6372093,4.13032581 C1.6372093,2.68471178 2.7627907,1.54887218 4.19534884,1.54887218 L21.5906977,1.54887218 C23.0232558,1.54887218 24.1488372,2.68471178 24.1488372,4.13032581 L24.1488372,21.6842105 C24.1488372,23.1298246 23.0232558,24.2656642 21.5906977,24.2656642 L4.19534884,24.2656642 Z"/>
            <path fill="#CBCACC" d="M21.5906977,0 L4.19534884,0 C1.94418605,0 0.102325581,1.85864662 0.102325581,4.13032581 L0.102325581,21.6842105 C0.102325581,23.9558897 1.94418605,25.8145363 4.19534884,25.8145363 L21.5906977,25.8145363 C23.8418605,25.8145363 25.6837209,23.9558897 25.6837209,21.6842105 L25.6837209,4.13032581 C25.6837209,1.85864662 23.8418605,0 21.5906977,0 Z M10.744186,12.9072682 L3.17209302,20.5483709 L3.17209302,5.26616541 L10.744186,12.9072682 Z M5.32093023,3.09774436 L20.4651163,3.09774436 L12.8930233,10.7388471 L5.32093023,3.09774436 Z M12.8930233,15.0756892 L20.4651163,22.716792 L5.32093023,22.716792 L12.8930233,15.0756892 Z M15.0418605,12.9072682 L22.6139535,5.26616541 L22.6139535,20.5483709 L15.0418605,12.9072682 Z"/>
          </g>
          <g transform="translate(44 3.098)">
            <g transform="translate(0 60.922)">
              <rect width="75.721" height="47.499" x="2.149" y="1.549" fill="#E0E0E0"/>
              <path fill="#CBCACC" d="M0.613953488,0 L0.613953488,50.5964912 L79.4046512,50.5964912 L79.4046512,0 L0.613953488,0 Z M76.3348837,47.4987469 L3.68372093,47.4987469 L3.68372093,3.09774436 L76.3348837,3.09774436 L76.3348837,47.4987469 Z"/>
            </g>
            <rect width="75.721" height="46.466" x="2.149" y="1.549" fill="#E0E0E0"/>
            <path fill="#CBCACC" d="M0.613953488,0 L0.613953488,49.5639098 L79.4046512,49.5639098 L79.4046512,0 L0.613953488,0 Z M76.3348837,46.4661654 L3.68372093,46.4661654 L3.68372093,3.09774436 L76.3348837,3.09774436 L76.3348837,46.4661654 Z"/>
            <g transform="translate(0 122.877)">
              <rect width="75.721" height="46.466" x="2.149" y="1.549" fill="#E0E0E0"/>
              <path fill="#CBCACC" d="M0.613953488,0 L0.613953488,49.5639098 L79.4046512,49.5639098 L79.4046512,0 L0.613953488,0 Z M37.0418605,24.7819549 L3.68372093,45.0205514 L3.68372093,4.44010025 L37.0418605,24.7819549 Z M7.36744186,3.09774436 L72.6511628,3.09774436 L40.0093023,22.9233083 L7.36744186,3.09774436 Z M40.0093023,26.5373434 L72.6511628,46.4661654 L7.26511628,46.4661654 L40.0093023,26.5373434 Z M42.9767442,24.7819549 L76.3348837,4.5433584 L76.3348837,45.1238095 L42.9767442,24.7819549 Z"/>
            </g>
          </g>
        </g>
      </g>
    </g>
    <g transform="translate(21.488 67.634)">
      <path fill="#CBCACC" d="M85.544186,23.1298246 C85.4418605,23.1298246 85.2372093,23.1298246 85.1348837,23.1298246 C83.8046512,18.2766917 79.5069767,14.7659148 74.2883721,14.7659148 C73.1627907,14.7659148 72.0372093,14.9724311 71.0139535,15.2822055 C69.7860465,7.02155388 62.7255814,0.826065163 54.2325581,0.826065163 C47.172093,0.826065163 41.1348837,5.16290727 38.5767442,11.358396 L38.5767442,39.8576441 L85.544186,39.8576441 C90.1488372,39.8576441 93.8325581,36.1403509 93.8325581,31.4937343 C93.7302326,26.8471178 90.0465116,23.1298246 85.544186,23.1298246 Z"/>
      <path fill="#E0E0E0" d="M8.8 34.3849624C8.90232558 34.3849624 9.10697674 34.3849624 9.20930233 34.3849624 10.6418605 29.3253133 15.144186 25.6080201 20.6697674 25.6080201 21.8976744 25.6080201 23.0232558 25.8145363 24.0465116 26.1243108 25.3767442 17.4506266 32.744186 10.8421053 41.7488372 10.8421053 49.2186047 10.8421053 55.5627907 15.3854637 58.2232558 21.8907268 58.9395349 21.6842105 59.7581395 21.5809524 60.5767442 21.5809524 66.1023256 21.5809524 70.6046512 26.1243108 70.6046512 31.7002506 70.6046512 32.9393484 70.4 34.1784461 69.8883721 35.3142857 74.0837209 35.6240602 77.4604651 39.2380952 77.4604651 43.5749373 77.4604651 48.1182957 73.7767442 51.835589 69.2744186 51.835589L8.69767442 51.835589C3.88837209 51.835589 5.68434189e-14 47.9117794 5.68434189e-14 43.0586466.102325581 38.3087719 3.99069767 34.3849624 8.8 34.3849624zM140.390698 81.8837093C140.288372 81.8837093 140.186047 81.8837093 140.083721 81.8837093 138.95814 77.8566416 135.274419 74.7588972 130.874419 74.7588972 129.953488 74.7588972 129.032558 74.8621554 128.111628 75.1719298 126.986047 68.2536341 121.051163 62.8842105 113.888372 62.8842105 107.953488 62.8842105 102.734884 66.6015038 100.586047 71.764411 99.972093 71.6611529 99.3581395 71.5578947 98.744186 71.5578947 94.2418605 71.5578947 90.6604651 75.1719298 90.6604651 79.7152882 90.6604651 80.7478697 90.8651163 81.677193 91.172093 82.6065163 87.7953488 82.8130326 85.0325581 85.7042607 85.0325581 89.2150376 85.0325581 92.9323308 88 95.8235589 91.5813953 95.8235589L140.390698 95.8235589C144.27907 95.8235589 147.348837 92.6225564 147.348837 88.802005 147.348837 85.0847118 144.27907 81.8837093 140.390698 81.8837093z"/>
    </g>
    <g transform="translate(168.837 58.34)">
      <g transform="translate(0 34.075)">
        <rect width="202.912" height="28.912" x="33.153" y="1.549" fill="#8149E0"/>
        <rect width="202.912" height="9.81" x="33.153" y="11.152" fill="#9979E2"/>
        <path fill="#E0E0E0" d="M249.367442,0.516290727 L237.088372,0.516290727 C236.474419,0.516290727 236.065116,0.929323308 236.065116,1.54887218 L236.065116,30.4611529 C236.065116,31.0807018 236.474419,31.4937343 237.088372,31.4937343 L249.367442,31.4937343 C249.981395,31.4937343 250.390698,31.0807018 250.390698,30.4611529 L250.390698,1.54887218 C250.390698,1.03258145 249.87907,0.516290727 249.367442,0.516290727 Z"/>
        <path fill="#DAAEE5" d="M266.762791,2.58145363 L250.390698,2.58145363 L250.390698,29.4285714 L266.762791,29.4285714 C269.013953,29.4285714 270.855814,27.5699248 270.855814,25.2982456 L270.855814,6.71177945 C270.855814,4.44010025 269.013953,2.58145363 266.762791,2.58145363 Z"/>
        <polygon fill="#8149E0" points="0 16.005 17.6 23.749 17.6 8.364"/>
        <polygon fill="#CBCACC" points="33.153 1.549 17.6 8.364 17.6 23.749 33.153 30.461"/>
      </g>
      <g transform="translate(149.395)">
        <path fill="#8149E0" d="M79.8139535,312.35589 L12.2790698,312.35589 C7.46976744,317.209023 4.80930233,319.893734 0,324.746867 L0,336.105263 L92.0930233,336.105263 L92.0930233,324.746867 C87.2837209,319.893734 84.6232558,317.209023 79.8139535,312.35589 Z"/>
        <rect width="45.023" height="312.253" x="23.535" fill="#DAAEE5"/>
        <g fill="#8149E0" transform="translate(23.535 76.411)">
          <rect width="16.679" height="6.195" y="212.918"/>
          <rect width="16.679" height="6.195" y="182.664"/>
          <rect width="16.679" height="6.195" y="152.409"/>
          <rect width="16.679" height="6.195" y="122.051"/>
          <rect width="16.679" height="6.195" y="91.796"/>
          <rect width="16.679" height="6.195" y="61.542"/>
          <rect width="16.679" height="6.195" y="31.184"/>
          <rect width="16.679" height="6.195" y=".929"/>
        </g>
        <ellipse cx="46.047" cy="50.08" fill="#E6C8ED" rx="9.209" ry="9.293"/>
      </g>
      <g transform="translate(45.023 64.02)">
        <g transform="translate(0 92.932)">
          <rect width="104.781" height="67.324" x=".614" y=".207" fill="#75CCF2"/>
          <rect width="60.781" height="3.304" x="7.163" y="57.308" fill="#FFF"/>
          <rect width="19.749" height="3.304" x="79.098" y="57.308" fill="#FFF"/>
          <rect width="4.605" height="8.261" x="68.047" y="54.83" fill="#E0E0E0"/>
          <ellipse cx="53.005" cy="29.738" fill="#E0E0E0" rx="19.442" ry="19.619"/>
          <polygon fill="#FFF" points="46.865 17.864 46.865 41.51 63.442 29.738"/>
        </g>
        <polygon fill="#75CCF2" points="69.377 .516 36.633 .516 41.749 10.842 64.26 10.842"/>
        <polygon fill="#4FB7EF" points="55.563 71.455 55.563 10.842 50.447 10.842 50.447 71.455 .614 93.139 13.609 93.139 53.005 75.998 92.502 93.139 105.395 93.139"/>
      </g>
    </g>
    <g transform="translate(202.605 .516)">
      <path fill="#372665" d="M49.5255814,28.39599 C45.8418605,28.39599 42.8744186,23.5428571 42.8744186,17.6571429 C42.8744186,11.7714286 45.944186,6.91829574 49.627907,6.91829574 C53.3116279,6.91829574 56.2790698,11.7714286 56.2790698,17.6571429 C56.2790698,23.6461153 53.2093023,28.39599 49.5255814,28.39599 Z"/>
      <path fill="#372665" d="M81.9627907,33.4556391 C77.6651163,30.9774436 72.9581395,24.7819549 74.6976744,19.206015 C78.8930233,6.40200501 69.0697674,1.75538847 64.1581395,0.826065163 C59.2465116,-0.103258145 54.9488372,1.1358396 52.1860465,3.30426065 C47.7860465,6.91829574 49.1162791,13.1137845 51.572093,18.0701754 C48.9116279,19.6190476 47.5813953,23.0265664 49.1162791,25.5047619 C52.4930233,30.9774436 49.627907,38.3087719 47.5813953,42.645614 C44.3069767,49.6671679 48.8093023,58.3408521 56.6883721,62.2646617 C64.4651163,66.1884712 74.6976744,65.7754386 82.5767442,62.2646617 C86.4651163,60.5092732 89.944186,57.9278195 91.7860465,54.5203008 C95.572093,47.1889724 90.0465116,38.1022556 81.9627907,33.4556391 Z"/>
      <path fill="#E8E5ED" d="M28.1395349,82.5032581 C26.2976744,82.8130326 24.3534884,82.9162907 22.3069767,83.0195489 C20.772093,83.0195489 19.544186,81.8837093 19.544186,80.3348371 C19.544186,78.7859649 20.6697674,77.5468672 22.2046512,77.5468672 C31.7209302,77.2370927 38.8837209,74.4491228 43.4883721,69.0796992 C50.4465116,60.9223058 49.1162791,49.5639098 49.1162791,49.4606516 C48.9116279,47.9117794 50.0372093,46.5694236 51.4697674,46.3629073 C53.0046512,46.156391 54.3348837,47.1889724 54.5395349,48.7378446 C54.6418605,49.2541353 56.1767442,62.5744361 47.6837209,72.5904762 C42.8744186,77.9598997 36.427907,81.2641604 28.1395349,82.5032581 Z"/>
      <path fill="#75CCF2" d="M50.9581395,44.4010025 C48.4,44.8140351 46.5581395,47.1889724 46.9674419,49.6671679 C46.9674419,49.7704261 48.0930233,60.3027569 41.8511628,67.7373434 C38.7813953,71.3513784 34.2790698,73.7263158 28.5488372,74.7588972 C30.1860465,77.6501253 30.4930233,81.2641604 29.1627907,84.3619048 C37.5534884,83.0195489 44.3069767,79.5087719 49.0139535,73.9328321 C58.0186047,63.2972431 56.3813953,49.1508772 56.3813953,48.5313283 C55.972093,45.9498747 53.6186047,44.0912281 50.9581395,44.4010025 Z"/>
      <path fill="#E8E5ED" d="M56.3813953,36.3468672 L56.2790698,39.4446115 C57.8139535,39.2380952 59.7581395,38.5152882 60.7813953,37.3794486 L60.7813953,35.1077694 C59.4511628,35.9338346 57.9162791,36.4501253 56.3813953,36.3468672 Z"/>
      <g fill="#E8E5ED" transform="translate(44 6.195)">
        <path d="M7.77674419,42.8521303 C6.34418605,42.1293233 5.21860465,39.9609023 6.95813953,37.9989975 C8.59534884,36.0370927 11.1534884,35.0045113 13.8139535,34.9012531 L14.5302326,34.9012531 C16.9860465,34.797995 19.1348837,35.8305764 20.5674419,37.5859649 C19.3395349,41.2 11.5627907,44.2977444 7.77674419,42.8521303 Z"/>
        <path d="M12.3813953,29.4285714 L12.2790698,32.5263158 L12.1767442,38.3087719 L16.5767442,38.4120301 L16.6790698,30.9774436 L16.7813953,28.0862155 C15.4511628,29.0155388 13.9162791,29.5318296 12.3813953,29.4285714 Z"/>
        <path d="M13.4046512,31.8035088 C17.6,31.8035088 21.2837209,29.7383459 23.6372093,26.5373434 C25.2744186,24.3689223 26.1953488,21.5809524 26.1953488,18.6897243 L26.1953488,13.6300752 C26.1953488,9.91278195 24.5581395,6.6085213 22.1023256,4.23358396 C19.7488372,2.06516291 16.6790698,0.722807018 13.2,0.722807018 C10.9488372,0.722807018 8.8,1.34235589 6.95813953,2.37493734 C3.06976744,4.64661654 0.409302326,8.8802005 0.409302326,13.8365915 L0.409302326,18.8962406 C0.409302326,23.6461153 2.96744186,27.673183 6.65116279,29.9448622 C8.69767442,31.1839599 11.0511628,31.8035088 13.4046512,31.8035088 Z"/>
      </g>
      <path fill="#372665" d="M47.6837209 80.2315789C46.1488372 86.8401003 50.344186 93.4486216 56.8930233 94.9974937 63.4418605 96.5463659 69.9906977 92.312782 71.5255814 85.7042607 73.0604651 79.0957393 68.8651163 72.487218 62.3162791 70.9383459 55.6651163 69.3894737 49.1162791 73.6230576 47.6837209 80.2315789zM56.5860465 31.1839599C56.2790698 32.8360902 54.9488372 34.075188 53.2093023 34.075188 51.572093 34.075188 50.1395349 32.9393484 49.8325581 31.287218L56.5860465 31.1839599z"/>
      <path fill="#75CCF2" d="M45.227907,51.112782 C44.4093023,53.3844612 46.7627907,55.7593985 49.1162791,56.0691729 C51.572093,56.3789474 53.7209302,54.5203008 54.027907,52.1453634 C54.3348837,49.6671679 50.6511628,44.2977444 49.3209302,46.3629073 C47.9906977,48.2215539 45.944186,49.1508772 45.227907,51.112782 Z"/>
      <path fill="#75CCF2" d="M64.5674419,43.7814536 C65.5906977,45.0205514 66.3069767,46.5694236 66.4093023,48.324812 C66.4093023,48.324812 65.2837209,68.5634085 70.8093023,77.8566416 L47.3767442,79.8185464 L47.9906977,51.835589 C47.8883721,48.8411028 49.0139535,46.156391 50.855814,44.1944862 C50.9581395,48.7378446 60.1674419,43.3684211 64.5674419,43.7814536 Z"/>
      <path fill="#DAAEE5" d="M48.8093023,134.235589 C46.6604651,134.338847 45.5348837,136.40401 45.4325581,136.920301 C44.4093023,140.121303 44.8186047,143.425564 42.772093,148.794987 C41.4418605,152.512281 40.0093023,153.235088 39.0883721,156.229574 C38.2697674,158.811028 40.6232558,159.637093 42.8744186,158.707769 C43.7953488,158.397995 49.4232558,156.849123 49.5255814,152.202506 C49.627907,148.898246 49.2186047,146.316792 50.2418605,143.425564 C51.2651163,140.534336 52.1860465,142.186466 52.4930233,143.012531 C52.6976744,143.63208 53.5162791,145.490727 53.7209302,146.007018 C53.8232558,146.213534 54.027907,146.316792 54.2325581,146.213534 C54.4372093,146.110276 54.5395349,145.903759 54.4372093,145.593985 C54.1302326,144.974436 53.5162791,142.702757 53.3116279,139.811529 C53.2093023,136.40401 50.7534884,134.132331 48.8093023,134.235589 Z"/>
      <path fill="#E8E5ED" d="M46.5581395,150.034085 C47.7860465,147.349373 49.1162791,139.088722 48.5023256,137.333333 C47.6837209,135.164912 43.2837209,135.061654 42.9767442,136.920301 C42.4651163,140.224561 43.8976744,146.007018 41.1348837,152.202506 C41.4418605,153.854637 45.1255814,153.235088 46.5581395,150.034085 Z"/>
      <path fill="#372665" d="M63.3395349,94.2746867 L34.5860465,107.801504 L37.3488372,101.296241 L47.9906977,136.197494 C48.6046512,138.262657 47.4790698,140.534336 45.3302326,141.257143 C43.2837209,141.876692 41.2372093,140.84411 40.4186047,138.882206 L27.3209302,104.807018 C26.4,102.328822 27.5255814,99.5408521 29.8790698,98.4050125 L30.0837209,98.3017544 L58.7348837,84.4651629 C61.4976744,83.122807 64.6697674,84.3619048 66,87.0466165 C67.3302326,89.7313283 66.2046512,92.9323308 63.3395349,94.2746867 C63.4418605,94.2746867 63.4418605,94.2746867 63.3395349,94.2746867 Z"/>
      <path fill="#DAAEE5" d="M29.4697674,123.290226 C27.5255814,122.360902 25.5813953,123.703258 25.172093,124.116291 C22.8186047,126.491228 21.5906977,129.588972 17.2930233,133.409524 C14.427907,135.990977 12.7906977,135.990977 10.5395349,138.262657 C8.59534884,140.121303 10.3348837,141.97995 12.7906977,142.289724 C13.7116279,142.392982 19.4418605,143.735338 21.6930233,139.708271 C23.3302326,136.817043 24.1488372,134.338847 26.4,132.273684 C28.6511628,130.208521 28.7534884,132.067168 28.6511628,132.996491 C28.5488372,133.61604 28.4465116,135.577945 28.344186,136.197494 C28.344186,136.40401 28.4465116,136.610526 28.7534884,136.610526 C28.9581395,136.610526 29.1627907,136.40401 29.2651163,136.197494 C29.2651163,135.474687 29.7767442,133.203008 30.9023256,130.518296 C32.3348837,127.214035 31.2093023,124.116291 29.4697674,123.290226 Z"/>
      <path fill="#E8E5ED" d="M20.1581395,136.197494 C22.4093023,134.338847 27.5255814,127.730326 27.7302326,125.768421 C28.0372093,123.496742 24.1488372,121.225063 23.0232558,122.877193 C21.0790698,125.561905 19.6465116,131.344361 14.3255814,135.474687 C13.9162791,137.126817 17.4976744,138.365915 20.1581395,136.197494 Z"/>
      <path fill="#372665" d="M61.3953488,95.20401 L29.6744186,93.5518797 L35.0976744,89.0085213 L28.4465116,124.839098 C28.0372093,127.007519 25.9906977,128.453133 23.8418605,128.0401 C21.7953488,127.627068 20.3627907,125.665163 20.6697674,123.6 L24.7627907,87.356391 C25.0697674,84.6716792 27.3209302,82.7097744 29.9813953,82.8130326 L30.1860465,82.8130326 L61.9069767,84.0521303 C64.8744186,84.1553885 67.227907,86.7368421 67.1255814,89.7313283 C66.9209302,92.9323308 64.4651163,95.3072682 61.3953488,95.20401 C61.3953488,95.20401 61.3953488,95.20401 61.3953488,95.20401 Z"/>
      <path fill="#E8E5ED" d="M63.6465116,83.0195489 C62.2139535,83.2260652 60.7813953,83.4325815 59.144186,83.5358396 C57.6093023,83.6390977 56.3813953,82.5032581 56.2790698,80.954386 C56.1767442,79.4055138 57.3023256,78.166416 58.8372093,78.0631579 C63.8511628,77.7533835 70.1953488,76.5142857 71.8325581,72.3839599 C74.3906977,65.8786967 65.5906977,54.1072682 62.2139535,50.4932331 C61.1906977,49.3573935 61.2930233,47.602005 62.4186047,46.5694236 C63.544186,45.5368421 65.2837209,45.6401003 66.3069767,46.7759398 C67.8418605,48.4280702 81.2465116,63.6070175 76.9488372,74.4491228 C75.1069767,78.8892231 70.6046512,81.7804511 63.6465116,83.0195489 Z"/>
      <path fill="#75CCF2" d="M67.7395349,45.3303258 C66.6139535,44.1944862 65.0790698,43.5749373 63.4418605,43.8847118 C62.4186047,44.0912281 61.3953488,44.6075188 60.6790698,45.433584 C59.0418605,47.2922306 59.2465116,50.0802005 60.8837209,51.9388471 C64.6697674,56.0691729 71.9348837,66.6015038 69.9906977,71.5578947 C69.6837209,72.3839599 68.9674419,73.1067669 68.0465116,73.7263158 C66.4093023,74.7588972 65.3860465,76.720802 65.7953488,78.6827068 C65.7953488,78.6827068 65.7953488,78.7859649 65.7953488,78.7859649 C66.4093023,81.8837093 69.7860465,83.6390977 72.5488372,82.0902256 C75.5162791,80.4380952 77.5627907,78.0631579 78.6883721,75.1719298 C83.3953488,63.4005013 70.4,48.324812 67.7395349,45.3303258 Z"/>
      <path fill="#E8E5ED" d="M47.5813953 80.3348371C47.6837209 81.9869674 48.4 83.4325815 49.5255814 84.4651629L59.4511628 83.6390977C60.372093 82.4 60.7813953 80.8511278 60.6790698 79.3022556 60.372093 75.6882206 57.2 73.0035088 53.6186047 73.2100251 49.9348837 73.5197995 47.2744186 76.720802 47.5813953 80.3348371zM13.7116279 81.5739348C13.8139535 83.2260652 14.427907 84.6716792 15.4511628 85.8075188L25.3767442 85.3944862C26.2976744 84.1553885 26.8093023 82.7097744 26.8093023 81.0576441 26.7069767 77.443609 23.6372093 74.552381 20.055814 74.7588972 16.372093 74.8621554 13.5069767 77.9598997 13.7116279 81.5739348z"/>
      <path fill="#372665" d="M72.344186,17.1408521 C70.9116279,21.2711779 64.4651163,22.8200501 57.9162791,20.4451128 C51.3674419,18.1734336 47.2744186,12.9072682 48.7069767,8.77694236 C50.1395349,4.64661654 56.5860465,3.09774436 63.1348837,5.4726817 C69.6837209,7.7443609 73.7767442,13.0105263 72.344186,17.1408521 Z"/>
      <path fill="#566CD3" d="M65.4883721,84.1553885 C65.4883721,83.2260652 64.772093,82.5032581 63.8511628,82.5032581 L4.50232558,82.5032581 C3.2744186,82.5032581 2.25116279,83.2260652 2.25116279,84.1553885 C2.25116279,85.0847118 3.2744186,85.8075188 4.50232558,85.8075188 L63.8511628,85.8075188 C64.772093,85.8075188 65.4883721,84.9814536 65.4883721,84.1553885 Z"/>
      <path fill="#FFF" d="M67.7395349,84.1553885 C67.7395349,85.0847118 66.9209302,85.8075188 66,85.8075188 L43.4883721,85.8075188 C42.5674419,85.8075188 41.7488372,85.0847118 41.7488372,84.1553885 C41.7488372,83.2260652 42.5674419,82.5032581 43.4883721,82.5032581 L66,82.5032581 C67.0232558,82.5032581 67.7395349,83.2260652 67.7395349,84.1553885 Z"/>
      <path fill="#FFF" d="M2.35348837,51.5258145 L2.35348837,81.677193 C2.35348837,83.0195489 3.47906977,84.1553885 4.80930233,84.1553885 L44.3069767,84.1553885 C45.6372093,84.1553885 46.7627907,83.0195489 46.7627907,81.677193 L46.7627907,51.5258145 C46.7627907,50.1834586 45.6372093,49.047619 44.3069767,49.047619 L4.80930233,49.047619 C3.37674419,49.047619 2.35348837,50.1834586 2.35348837,51.5258145 Z"/>
      <path fill="#566CD3" d="M0.511627907,51.5258145 L0.511627907,81.677193 C0.511627907,83.0195489 1.6372093,84.1553885 2.96744186,84.1553885 L42.4651163,84.1553885 C43.7953488,84.1553885 44.9209302,83.0195489 44.9209302,81.677193 L44.9209302,51.5258145 C44.9209302,50.1834586 43.7953488,49.047619 42.4651163,49.047619 L2.96744186,49.047619 C1.53488372,49.047619 0.511627907,50.1834586 0.511627907,51.5258145 Z"/>
      <path fill="#FFF" d="M29.1627907,66.6015038 C29.1627907,65.1558897 28.0372093,64.0200501 26.6046512,64.0200501 L18.7255814,64.0200501 C17.2930233,64.0200501 16.1674419,65.1558897 16.1674419,66.6015038 C16.1674419,68.0471178 17.2930233,69.1829574 18.7255814,69.1829574 L26.6046512,69.1829574 C28.0372093,69.1829574 29.1627907,67.9438596 29.1627907,66.6015038 Z"/>
    </g>
    <g transform="translate(339.72 193.093)">
      <path fill="#E8E5ED" d="M66.3069767 141.670175C65.7953488 140.224561 53.4139535 106.87218 53.4139535 86.5303258L60.7813953 86.5303258C60.7813953 105.633083 73.0604651 138.778947 73.1627907 139.088722L66.3069767 141.670175zM34.0744186 114.203509L21.7953488 93.4486216C21.2837209 92.6225564 21.1813953 91.4867168 21.3860465 90.5573935 21.6930233 89.6280702 22.3069767 88.802005 23.227907 88.2857143L42.9767442 77.7533835 46.3534884 84.2586466 30.0837209 92.9323308 40.4186047 110.382957 34.0744186 114.203509z"/>
      <path fill="#121F55" d="M69.7860465,11.5649123 C69.7860465,11.5649123 64.9767442,5.67919799 62.7255814,3.71729323 C58.7348837,0.206516291 55.3581395,4.13032581 55.3581395,4.13032581 C35.4046512,1.03258145 31.6186047,29.841604 40.7255814,36.966416 C48.0930233,42.7488722 54.2325581,38.7218045 54.2325581,38.7218045 C54.2325581,38.7218045 58.427907,41.8195489 64.772093,42.8521303 C68.7627907,43.4716792 73.4697674,40.8902256 73.4697674,40.8902256 C73.4697674,40.8902256 78.9953488,44.9172932 83.2930233,38.9283208 C87.5906977,32.9393484 81.2465116,26.6406015 77.8697674,26.6406015 C77.8697674,26.6406015 81.8604651,21.7874687 76.3348837,18.483208 C74.2883721,17.2441103 69.7860465,11.5649123 69.7860465,11.5649123 Z"/>
      <path fill="#E8E5ED" d="M45.0232558,47.2922306 C43.6930233,46.5694236 42.5674419,44.5042607 44.2046512,42.645614 C45.7395349,40.7869674 48.1953488,39.754386 50.855814,39.6511278 L51.572093,39.6511278 C53.9255814,39.5478697 55.972093,40.5804511 57.4046512,42.2325815 C56.2790698,45.7433584 48.7069767,48.7378446 45.0232558,47.2922306 Z"/>
      <path fill="#E8E5ED" d="M49.1162791,34.3849624 L49.0139535,37.3794486 L48.9116279,42.9553885 L53.2093023,43.0586466 L53.3116279,35.9338346 L53.4139535,33.1458647 C52.0837209,33.9719298 50.6511628,34.4882206 49.1162791,34.3849624 Z"/>
      <path fill="#E8E5ED" d="M49.1162791,34.3849624 L49.0139535,37.3794486 C50.5488372,37.1729323 52.3906977,36.4501253 53.3116279,35.3142857 L53.3116279,33.0426065 C52.0837209,33.9719298 50.6511628,34.4882206 49.1162791,34.3849624 Z"/>
      <path fill="#E8E5ED" d="M46.6604651,34.3849624 C50.2418605,36.243609 54.3348837,36.1403509 57.7116279,34.3849624 C60.0651163,33.2491228 62.0093023,31.287218 63.2372093,28.8090226 L65.3860465,24.3689223 C67.0232558,21.1679198 67.1255814,17.6571429 66,14.5593985 C64.9767442,11.6681704 62.827907,9.08671679 59.9627907,7.64110276 C58.0186047,6.6085213 55.972093,6.19548872 53.9255814,6.29874687 C49.627907,6.50526316 45.4325581,8.98345865 43.3860465,13.2170426 L41.2372093,17.6571429 C39.1906977,21.6842105 39.6,26.3308271 41.7488372,29.9448622 C42.8744186,31.7002506 44.6139535,33.352381 46.6604651,34.3849624 Z"/>
      <path fill="#121F55" d="M60.372093,21.4776942 C51.4697674,22.9233083 50.5488372,13.2170426 51.0604651,9.29323308 C52.0837209,0.929323308 62.9302326,2.58145363 66.6139535,6.71177945 C68.9674419,9.29323308 73.0604651,16.2115288 71.3209302,24.885213 C69.5813953,33.5588972 60.7813953,38.9283208 60.7813953,38.9283208 C51.1627907,31.8035088 61.0883721,24.9884712 61.0883721,24.9884712 L60.372093,21.4776942 Z"/>
      <path fill="#F7B75D" d="M41.1348837,77.3403509 C39.7023256,83.7423559 43.6930233,90.0411028 50.0372093,91.5899749 C56.3813953,93.035589 62.6232558,89.0085213 64.1581395,82.6065163 C65.5906977,76.2045113 61.6,69.9057644 55.255814,68.3568922 C48.9116279,66.9112782 42.5674419,70.9383459 41.1348837,77.3403509 Z"/>
      <path fill="#121F55" d="M47.6837209,27.5699248 C46.7627907,28.8090226 45.0232558,29.2220551 43.5906977,28.4992481 C42.1581395,27.7764411 41.4418605,26.1243108 41.8511628,24.5754386 L47.6837209,27.5699248 Z"/>
      <path fill="#566CD3" d="M32.4372093 83.3293233C47.9906977 96.9593985 67.227907 103.56792 67.227907 103.56792 67.227907 103.56792 70.5023256 83.6390977 63.2372093 75.0686717 59.5534884 70.7318296 40.827907 77.0305764 40.827907 77.0305764L32.4372093 83.3293233zM38.7813953 49.2541353C37.9627907 51.5258145 40.2139535 53.6942356 42.5674419 54.00401 44.9209302 54.2105263 47.0697674 52.558396 47.2744186 50.1834586 47.5813953 47.8085213 44 42.645614 42.6697674 44.6075188 41.4418605 46.5694236 39.4976744 47.3954887 38.7813953 49.2541353z"/>
      <path fill="#566CD3" d="M57.4046512,42.2325815 C58.427907,43.4716792 59.0418605,44.9172932 59.144186,46.6726817 C59.144186,46.6726817 58.1209302,66.1884712 63.3395349,75.1719298 C65.5906977,78.9924812 40.7255814,78.8894946 40.7255814,78.8894946 L41.4418605,50.0802005 C41.3395349,47.1889724 42.3627907,44.6075188 44.2046512,42.645614 C44.3069767,46.9824561 53.2093023,41.8195489 57.4046512,42.2325815 Z"/>
      <path fill="#566CD3" d="M53.6186047,49.3573935 C49.2186047,49.3573935 19.4418605,47.9117794 2.86511628,10.9453634 L9.51627907,7.95087719 C24.9674419,42.4390977 52.5953488,42.0260652 53.8232558,42.0260652 L54.027907,49.4606516 C54.027907,49.3573935 53.9255814,49.3573935 53.6186047,49.3573935 Z"/>
      <path fill="#E8E5ED" d="M9.41395349,1.96190476 C8.08372093,1.1358396 6.54883721,0.826065163 5.11627907,1.1358396 L0.102325581,9.39649123 C0.511627907,10.7388471 1.43255814,11.9779449 2.7627907,12.80401 C5.73023256,14.6626566 9.61860465,13.7333333 11.4604651,10.7388471 C13.3023256,7.7443609 12.3813953,3.82055138 9.41395349,1.96190476 Z"/>
      <g fill="#4FB7EF" transform="translate(20.465 109.454)">
        <path d="M15.144186,6.81503759 C15.8604651,9.39649123 18.5209302,10.8421053 21.0790698,10.1192982 C23.6372093,9.39649123 25.0697674,6.71177945 24.3534884,4.13032581 C23.6372093,1.54887218 20.9767442,0.103258145 18.4186047,0.826065163 C15.8604651,1.54887218 14.427907,4.23358396 15.144186,6.81503759 Z"/>
        <path d="M3.58139535,15.2822055 L20.9767442,10.1192982 C22.8186047,9.60300752 23.8418605,7.64110276 23.3302326,5.78245614 C22.8186047,3.92380952 19.2372093,0.619548872 17.3953488,1.1358396 L2.04651163,11.1518797 C0.306976744,12.2877193 0.818604651,14.9724311 2.7627907,15.3854637 C3.06976744,15.3854637 3.37674419,15.3854637 3.58139535,15.2822055 Z"/>
      </g>
      <g fill="#4FB7EF" transform="translate(55.256 137.333)">
        <path d="M11.5627907,8.46716792 C13.2,10.5323308 16.1674419,10.9453634 18.3162791,9.29323308 C20.3627907,7.64110276 20.772093,4.64661654 19.1348837,2.47819549 C17.4976744,0.413032581 14.5302326,-1.22124533e-15 12.3813953,1.65213033 C10.3348837,3.30426065 9.9255814,6.29874687 11.5627907,8.46716792 Z"/>
        <path d="M3.88837209,20.5483709 L18.2139535,9.39649123 C19.7488372,8.26065163 20.055814,5.98897243 18.827907,4.44010025 C17.7023256,2.89122807 13.0976744,1.1358396 11.5627907,2.2716792 L0.818604651,17.2441103 C-0.409302326,18.8962406 1.02325581,21.2711779 2.96744186,20.8581454 C3.37674419,20.8581454 3.58139535,20.7548872 3.88837209,20.5483709 Z"/>
      </g>
      <path fill="#4FB7EF" d="M48.6046512,76.5142857 C46.7627907,76.5142857 44.7162791,76.3077694 42.5674419,75.8947368 L42.772093,74.8621554 C52.8,77.0305764 60.5767442,72.6937343 60.6790698,72.6937343 L61.1906977,73.6230576 C60.9860465,73.7263158 55.8697674,76.5142857 48.6046512,76.5142857 Z"/>
      <rect width="1.637" height="11.978" x="88.921" y="141.877" fill="#E0E0E0"/>
      <rect width="1.637" height="18.999" x="69.786" y="154.99" fill="#E0E0E0"/>
      <rect width="1.637" height="16.315" x="81.451" y="148.175" fill="#E0E0E0"/>
      <rect width="1.637" height="9.5" x="81.451" y="128.143" fill="#E0E0E0"/>
    </g>
  </g>
</svg>
