<svg xmlns="http://www.w3.org/2000/svg" viewBox="0 0 370 347">
  <defs>
    <linearGradient id="how-we-work-1-a" x1=".014%" x2="100.012%" y1="50.009%" y2="50.009%">
      <stop offset="0%" stop-color="#CB88D2"/>
      <stop offset="26.69%" stop-color="#C887D3"/>
      <stop offset="47.83%" stop-color="#BE85D7"/>
      <stop offset="67.05%" stop-color="#AD81DD"/>
      <stop offset="85.02%" stop-color="#967BE6"/>
      <stop offset="100%" stop-color="#7C75F0"/>
    </linearGradient>
  </defs>
  <g fill="none" fill-rule="evenodd">
    <path fill="url(#how-we-work-1-a)" fill-rule="nonzero" d="M345.924731,138.339246 C350.749804,153.978413 355.574877,171.199068 358.073575,188.595444 C359.366006,197.293632 360.055302,205.99182 359.882978,214.514287 C359.193682,237.973036 354.196284,261.080344 334.120534,277.598115 C271.394583,328.205754 178.68425,364.492134 97.1749787,336.991803 C88.2141286,334.268128 80.3733848,330.402266 73.4804232,325.6578 C66.5874616,321.001194 60.6422822,315.465984 55.472561,309.31575 C46.4255489,292.885839 35.1383243,275.753045 25.0573679,258.268808 C19.9738088,249.48276 15.2348977,240.608851 11.0991207,231.647081 C-9.40744007,196.151445 -1.91134432,154.417715 37.0338887,129.113895 C87.1801844,96.078353 122.334289,58.7376469 166.190757,23.5055924 C197.553732,-1.7982272 240.203932,-5.13692563 278.287545,6.19707692 C289.488607,9.71149632 300.345022,14.6316835 310.339816,21.3090803 C317.835912,25.965686 323.781091,31.5887571 328.347678,37.738991 C332.914266,43.8892249 336.188422,50.7423428 338.428635,57.859042 C342.90906,71.9167196 344.20149,87.2923045 344.804624,103.019331 C345.49392,114.265473 345.752407,126.038778 345.924731,138.339246 Z"/>
    <g fill-rule="nonzero" transform="translate(17.66 54.66)">
      <path fill="#CBCACC" d="M72.2527778,19.6465298 C72.166351,19.6465298 71.9934975,19.6465298 71.9070707,19.6465298 C70.7835227,15.5242669 67.1535985,12.5422043 62.7458333,12.5422043 C61.7951389,12.5422043 60.8444444,12.7176197 59.9801768,12.9807429 C58.9430556,5.96412512 52.9796086,0.701661779 45.8061869,0.701661779 C39.8427399,0.701661779 34.7435606,4.38538612 32.5828914,9.64784946 L32.5828914,33.8551808 L72.2527778,33.8551808 C76.1419823,33.8551808 79.253346,30.6977028 79.253346,26.7508553 C79.1669192,22.8040078 76.0555556,19.6465298 72.2527778,19.6465298 Z"/>
      <path fill="#E0E0E0" d="M7.43270202 29.2066716C7.51912879 29.2066716 7.69198232 29.2066716 7.77840909 29.2066716 8.98838384 24.9089932 12.7911616 21.7515152 17.4582071 21.7515152 18.4953283 21.7515152 19.4460227 21.9269306 20.3102904 22.1900538 21.4338384 14.8226051 27.6565657 9.20931085 35.2621212 9.20931085 41.5712753 9.20931085 46.9297348 13.0684506 49.1768308 18.5940371 49.7818182 18.4186217 50.4732323 18.330914 51.1646465 18.330914 55.8316919 18.330914 59.6344697 22.1900538 59.6344697 26.9262708 59.6344697 27.9787634 59.4616162 29.0312561 59.0294823 29.9960411 62.5729798 30.2591642 65.4250631 33.3289345 65.4250631 37.0126588 65.4250631 40.8717986 62.3136995 44.0292766 58.5109217 44.0292766L7.34627525 44.0292766C3.28421717 44.0292766 5.68434189e-14 40.6963832 5.68434189e-14 36.5741202.0864267677 32.539565 3.37064394 29.2066716 7.43270202 29.2066716zM118.577525 69.5522239C118.491098 69.5522239 118.404672 69.5522239 118.318245 69.5522239 117.367551 66.1316227 114.256187 63.500391 110.539836 63.500391 109.761995 63.500391 108.984154 63.5880987 108.206313 63.8512219 107.255619 57.9748045 102.242866 53.4140029 96.1929924 53.4140029 91.1802399 53.4140029 86.7724747 56.5714809 84.9575126 60.9568671 84.438952 60.8691593 83.9203914 60.7814516 83.4018308 60.7814516 79.599053 60.7814516 76.5741162 63.8512219 76.5741162 67.7103617 76.5741162 68.5874389 76.7469697 69.3768084 77.00625 70.1661779 74.1541667 70.3415934 71.8206439 72.7974096 71.8206439 75.7794721 71.8206439 78.9369501 74.3270202 81.3927664 77.3519571 81.3927664L118.577525 81.3927664C121.861742 81.3927664 124.454545 78.673827 124.454545 75.4286413 124.454545 72.2711632 121.861742 69.5522239 118.577525 69.5522239z"/>
    </g>
    <g fill-rule="nonzero" transform="translate(141.273 45.41)">
      <g transform="translate(0 29.027)">
        <polygon fill="#8149E0" points="27.965 1.319 199.122 1.319 199.122 25.948 27.965 25.948"/>
        <polygon fill="#9979E2" points="27.965 9.5 199.122 9.5 199.122 17.856 27.965 17.856"/>
        <path fill="#E0E0E0" d="M210.342779,0.439800613 L199.985317,0.439800613 C199.467444,0.439800613 199.122196,0.791641104 199.122196,1.31940184 L199.122196,25.9482362 C199.122196,26.4759969 199.467444,26.8278374 199.985317,26.8278374 L210.342779,26.8278374 C210.860652,26.8278374 211.205901,26.4759969 211.205901,25.9482362 L211.205901,1.31940184 C211.205901,0.879601227 210.77434,0.439800613 210.342779,0.439800613 Z"/>
        <path fill="#DAAEE5" d="M225.015849,2.19900307 L211.205901,2.19900307 L211.205901,25.068635 L225.015849,25.068635 C226.914717,25.068635 228.468336,23.4853528 228.468336,21.5502301 L228.468336,5.71740798 C228.468336,3.78228528 226.914717,2.19900307 225.015849,2.19900307 Z"/>
        <polygon fill="#8149E0" points="0 13.634 14.846 20.231 14.846 7.125"/>
        <polygon fill="#CBCACC" points="27.965 1.319 14.846 7.125 14.846 20.231 27.965 25.948"/>
      </g>
      <g transform="translate(126.016)">
        <path fill="#8149E0" d="M67.3234991,266.079371 L10.3574614,266.079371 C6.30078902,270.213497 4.05667238,272.50046 0,276.634586 L0,286.310199 L77.6809605,286.310199 L77.6809605,276.634586 C73.6242882,272.50046 71.3801715,270.213497 67.3234991,266.079371 Z"/>
        <polygon fill="#DAAEE5" points="19.852 0 57.829 0 57.829 265.991 19.852 265.991"/>
        <g fill="#8149E0" transform="translate(19.852 65.09)">
          <polygon points="0 181.374 14.069 181.374 14.069 186.651 0 186.651"/>
          <polygon points="0 155.601 14.069 155.601 14.069 160.879 0 160.879"/>
          <polygon points="0 129.829 14.069 129.829 14.069 135.107 0 135.107"/>
          <polygon points="0 103.969 14.069 103.969 14.069 109.246 0 109.246"/>
          <polygon points="0 78.197 14.069 78.197 14.069 83.474 0 83.474"/>
          <polygon points="0 52.424 14.069 52.424 14.069 57.702 0 57.702"/>
          <polygon points="0 26.564 14.069 26.564 14.069 31.842 0 31.842"/>
          <polygon points="0 .792 14.069 .792 14.069 6.069 0 6.069"/>
        </g>
        <ellipse cx="38.84" cy="42.661" fill="#E6C8ED" rx="7.768" ry="7.916"/>
      </g>
      <g transform="translate(37.977 54.535)">
        <g transform="translate(0 79.164)">
          <polygon fill="#75CCF2" points=".518 .176 88.902 .176 88.902 57.526 .518 57.526"/>
          <polygon fill="#FFF" points="6.042 48.818 57.311 48.818 57.311 51.633 6.042 51.633"/>
          <polygon fill="#FFF" points="66.719 48.818 83.378 48.818 83.378 51.633 66.719 51.633"/>
          <rect width="3.884" height="7.037" x="57.398" y="46.707" fill="#E0E0E0"/>
          <ellipse cx="44.71" cy="25.333" fill="#E0E0E0" rx="16.399" ry="16.712"/>
          <polygon fill="#FFF" points="39.531 15.217 39.531 35.36 53.514 25.333"/>
        </g>
        <polygon fill="#75CCF2" points="58.52 .44 30.9 .44 35.215 9.236 54.204 9.236"/>
        <polygon fill="#4FB7EF" points="46.868 60.868 46.868 9.236 42.552 9.236 42.552 60.868 .518 79.34 11.48 79.34 44.71 64.739 78.026 79.34 88.902 79.34"/>
      </g>
    </g>
    <g fill-rule="nonzero" transform="translate(283.386 161.455)">
      <path fill="#E8E5ED" d="M55.7154239 119.989569C55.2855209 118.756406 44.8818693 90.3055594 44.8818693 72.9531856L51.0724719 72.9531856C51.0724719 89.248562 61.390143 117.523242 61.4761236 117.787491L55.7154239 119.989569zM28.6315373 96.5594606L18.3138662 78.8547544C17.8839632 78.1500894 17.7979826 77.1811752 17.9699438 76.3884271 18.2278856 75.5956791 18.7437692 74.8910142 19.5175945 74.4505986L36.1118488 65.4661208 38.9492084 71.0153571 25.2782942 78.4143388 33.962334 93.3003853 28.6315373 96.5594606z"/>
      <path fill="#121F55" d="M58.638764,9.00484381 C58.638764,9.00484381 54.5976762,3.98410623 52.7061032,2.31052704 C49.3528601,-0.684298885 46.5155005,2.6628595 46.5155005,2.6628595 C29.749285,0.0203660383 26.5680031,24.5955552 34.2202758,30.6732902 C40.4108784,35.6059447 45.569714,32.1707032 45.569714,32.1707032 C45.569714,32.1707032 49.0949183,34.8131966 54.425715,35.6940278 C57.7789581,36.2225265 61.7340654,34.0204486 61.7340654,34.0204486 C61.7340654,34.0204486 66.3770174,37.4556901 69.9882022,32.3468694 C73.5993871,27.2380487 68.2685904,21.8649787 65.4312308,21.8649787 C65.4312308,21.8649787 68.784474,17.7250722 64.141522,14.9064125 C62.4219101,13.8494152 58.638764,9.00484381 58.638764,9.00484381 Z"/>
      <path fill="#E8E5ED" d="M37.8314607,39.4816018 C36.713713,38.86502 35.7679265,37.1033576 37.1436159,35.5178616 C38.4333248,33.9323655 40.496859,33.0515343 42.7323544,32.9634512 L43.3342186,32.9634512 C45.3117722,32.8753681 47.0313841,33.7561993 48.2351124,35.1655291 C47.2893258,38.160355 40.926762,40.7147654 37.8314607,39.4816018 Z"/>
      <path fill="#E8E5ED" d="M41.2706844,28.4712123 L41.1847038,31.0256227 L41.0987232,35.7821109 L44.7099081,35.870194 L44.7958887,29.7924591 L44.8818693,27.4142149 C43.7641216,28.1188799 42.5603933,28.5592954 41.2706844,28.4712123 Z"/>
      <path fill="#E8E5ED" d="M41.2706844,28.4712123 L41.1847038,31.0256227 C42.4744127,30.8494564 44.0220633,30.2328746 44.7958887,29.2639604 L44.7958887,27.3261318 C43.7641216,28.1188799 42.5603933,28.5592954 41.2706844,28.4712123 Z"/>
      <path fill="#E8E5ED" d="M39.2071502,28.4712123 C42.2164709,30.0567084 45.6556946,29.9686253 48.4930541,28.4712123 C50.4706078,27.5022981 52.104239,25.8287189 53.1360061,23.7147241 L54.9415986,19.9271501 C56.317288,17.1965736 56.4032686,14.2017476 55.4574821,11.5592542 C54.5976762,9.09292693 52.7920838,6.89084904 50.3846272,5.65768543 C48.7509959,4.77685427 47.0313841,4.42452181 45.3117722,4.51260493 C41.7005873,4.68877116 38.175383,6.80276593 36.4557712,10.4141737 L34.6501788,14.2017476 C32.9305669,17.6369891 33.2744893,21.6007293 35.0800817,24.6836384 C36.0258682,26.1810513 37.4875383,27.5903812 39.2071502,28.4712123 Z"/>
      <path fill="#121F55" d="M50.7285495,17.4608229 C43.248238,18.6939865 42.4744127,10.4141737 42.9043156,7.06701527 C43.7641216,-0.0677170772 52.8780644,1.34161277 55.9733657,4.86493739 C57.9509193,7.06701527 61.390143,12.968584 59.9284729,20.3675657 C58.4668029,27.7665474 51.0724719,32.3468694 51.0724719,32.3468694 C42.9902962,26.2691344 51.3304137,20.4556488 51.3304137,20.4556488 L50.7285495,17.4608229 Z"/>
      <path fill="#F7B75D" d="M34.5641982,65.1137884 C33.3604699,70.5749415 36.713713,75.9480116 42.0445097,77.2692583 C47.3753064,78.5024219 52.6201226,75.0671804 53.9098315,69.6060272 C55.1135598,64.1448741 51.7603166,58.771804 46.4295199,57.4505573 C41.0987232,56.2173937 35.7679265,59.6526352 34.5641982,65.1137884 Z"/>
      <path fill="#121F55" d="M40.0669561,22.6577267 C39.2931307,23.7147241 37.8314607,24.0670566 36.6277324,23.4504747 C35.4240041,22.8338929 34.8221399,21.4245631 35.1660623,20.1033164 L40.0669561,22.6577267 Z"/>
      <path fill="#566CD3" d="M27.2558478 70.2226091C40.3248979 81.8495803 56.4892492 87.4868997 56.4892492 87.4868997 56.4892492 87.4868997 59.2406282 70.4868584 53.1360061 63.1759598 50.0407048 59.476469 34.3062564 64.849539 34.3062564 64.849539L27.2558478 70.2226091zM32.5866445 41.155181C31.8987998 43.0930095 33.7903728 44.9427549 35.7679265 45.2070043 37.7454801 45.3831705 39.5510725 43.9738406 39.7230337 41.947929 39.9809755 39.9220173 36.9716547 35.5178616 35.853907 37.1914408 34.8221399 38.86502 33.1885087 39.5696849 32.5866445 41.155181z"/>
      <path fill="#566CD3" d="M48.2351124,35.1655291 C49.0949183,36.2225265 49.6108018,37.4556901 49.6967824,38.9531031 C49.6967824,38.9531031 48.8369765,55.6008119 53.2219867,63.2640429 C55.1135598,66.5231182 34.2202758,66.4350351 34.2202758,66.4350351 L34.8221399,41.8598459 C34.7361593,39.3935186 35.5959653,37.1914408 37.1436159,35.5178616 C37.2295965,39.2173524 44.7099081,34.8131966 48.2351124,35.1655291 Z"/>
      <path fill="#566CD3" d="M45.0538304,41.2432641 C41.356665,41.2432641 16.3363126,40.0101005 2.40745659,8.47634512 L7.9961951,5.92193477 C20.9792646,35.3416953 44.1940245,34.9893629 45.2257916,34.9893629 L45.3977528,41.3313472 C45.3977528,41.2432641 45.3117722,41.2432641 45.0538304,41.2432641 Z"/>
      <path fill="#E8E5ED" d="M7.9102145,0.813114077 C6.7924668,0.108449154 5.50275792,-0.155800193 4.29902962,0.108449154 L0.0859805924,7.15509839 C0.429902962,8.30017889 1.20372829,9.35717628 2.321476,10.0618412 C4.81491318,11.6473373 8.08217569,10.8545892 9.62982635,8.30017889 C11.177477,5.74576854 10.4036517,2.39861016 7.9102145,0.813114077 Z"/>
      <g fill="#4FB7EF" transform="translate(17.196 92.508)">
        <path d="M12.7251277,5.81348562 C13.3269918,8.01556351 15.5624872,9.24872712 17.712002,8.63214531 C19.8615169,8.01556351 21.0652451,5.7254025 20.463381,3.52332462 C19.8615169,1.32124673 17.6260215,0.0880831155 15.4765066,0.704664924 C13.3269918,1.32124673 12.1232635,3.61140773 12.7251277,5.81348562 Z"/>
        <path d="M3.00932074,13.0363011 L17.6260215,8.63214531 C19.1736721,8.19172974 20.033478,6.51815054 19.6035751,4.93265447 C19.1736721,3.34715839 16.1643514,0.528498693 14.6167007,0.96891427 L1.71961185,9.51297647 C0.257941777,10.4818907 0.68784474,12.7720517 2.321476,13.1243842 C2.57941777,13.1243842 2.83735955,13.1243842 3.00932074,13.0363011 Z"/>
      </g>
      <g fill="#4FB7EF" transform="translate(46.43 116.29)">
        <path d="M9.71580695,7.22281547 C11.0914964,8.98447778 13.5849336,9.33681024 15.390526,7.92748039 C17.1101379,6.51815054 17.4540603,3.9637402 16.0783708,2.11399477 C14.7026813,0.352332462 12.2092441,3.33066907e-16 10.4036517,1.40932985 C8.68403984,2.81865969 8.34011747,5.37307004 9.71580695,7.22281547 Z"/>
        <path d="M3.26726251,17.52854 L15.3045455,8.01556351 C16.5942543,7.04664924 16.8521961,5.1088207 15.820429,3.78757396 C14.8746425,2.46632723 11.0055158,0.96891427 9.71580695,1.93782854 L0.68784474,14.7098803 C-0.34392237,16.1192101 0.859805924,18.1451218 2.49343718,17.7927893 C2.83735955,17.7927893 3.00932074,17.7047062 3.26726251,17.52854 Z"/>
      </g>
      <path fill="#4FB7EF" d="M40.8407814,64.4091234 C39.2931307,64.4091234 37.5735189,64.2329572 35.7679265,63.8806247 L35.9398876,62.9997936 C44.3659857,64.849539 50.9005107,61.1500482 50.9864913,61.1500482 L51.4163943,61.9427962 C51.2444331,62.0308793 46.9454035,64.4091234 40.8407814,64.4091234 Z"/>
      <polygon fill="#E0E0E0" points="74.717 120.166 76.093 120.166 76.093 130.383 74.717 130.383"/>
      <polygon fill="#E0E0E0" points="58.639 131.352 60.014 131.352 60.014 147.56 58.639 147.56"/>
      <polygon fill="#E0E0E0" points="68.441 125.539 69.816 125.539 69.816 139.456 68.441 139.456"/>
      <polygon fill="#E0E0E0" points="68.441 108.451 69.816 108.451 69.816 116.554 68.441 116.554"/>
    </g>
  </g>
</svg>
