<svg xmlns="http://www.w3.org/2000/svg" viewBox="0 0 440 394">
  <g fill="none">
    <g transform="translate(48.783 57.825)">
      <g transform="translate(28.696 127.008)">
        <path fill="#75CCF2" d="M149.791304,72.7969925 L139.46087,72.7969925 C138.791304,67.8406015 137.547826,62.9874687 135.826087,58.3408521 L144.721739,52.7649123 C146.53913,51.6290727 147.208696,49.047619 146.156522,47.0857143 L140.417391,36.3468672 C139.365217,34.3849624 136.973913,33.6621554 135.156522,34.797995 L126.26087,40.3739348 C123.391304,36.4501253 120.13913,32.9393484 116.504348,29.841604 L121.669565,20.2385965 C122.721739,18.2766917 122.052174,15.6952381 120.234783,14.5593985 L110.286957,8.36390977 C108.469565,7.22807018 106.078261,7.95087719 105.026087,9.91278195 L99.8608696,19.5157895 C95.6521739,17.760401 91.1565217,16.4180451 86.4695652,15.6952381 L86.4695652,4.5433584 C86.4695652,2.2716792 84.7478261,0.413032581 82.6434783,0.413032581 L71.1652174,0.413032581 C69.0608696,0.413032581 67.3391304,2.2716792 67.3391304,4.5433584 L67.3391304,15.6952381 C62.7478261,16.4180451 58.2521739,17.760401 53.9478261,19.5157895 L48.7826087,9.91278195 C47.7304348,7.95087719 45.3391304,7.22807018 43.5217391,8.36390977 L33.573913,14.5593985 C31.7565217,15.6952381 31.0869565,18.2766917 32.1391304,20.2385965 L37.3043478,29.841604 C33.6695652,32.9393484 30.4173913,36.4501253 27.5478261,40.3739348 L18.6521739,34.797995 C16.8347826,33.6621554 14.4434783,34.3849624 13.3913043,36.3468672 L7.65217391,47.0857143 C6.6,49.047619 7.26956522,51.6290727 9.08695652,52.7649123 L17.9826087,58.3408521 C16.3565217,62.8842105 15.1130435,67.7373434 14.3478261,72.7969925 L4.0173913,72.7969925 C1.91304348,72.7969925 0.191304348,74.6556391 0.191304348,76.9273183 L0.191304348,89.3182957 C0.191304348,91.5899749 1.91304348,93.4486216 4.0173913,93.4486216 L14.3478261,93.4486216 C15.0173913,98.4050125 16.2608696,103.258145 17.9826087,107.904762 L9.08695652,113.480702 C7.26956522,114.616541 6.6,117.197995 7.65217391,119.1599 L13.3913043,129.898747 C14.4434783,131.860652 16.8347826,132.583459 18.6521739,131.447619 L27.5478261,125.871679 C30.4173913,129.795489 33.6695652,133.306266 37.3043478,136.40401 L32.1391304,146.007018 C31.0869565,147.968922 31.7565217,150.550376 33.573913,151.686216 L43.5217391,157.881704 C45.3391304,159.017544 47.7304348,158.294737 48.7826087,156.332832 L53.9478261,146.729825 C58.1565217,148.485213 62.6521739,149.827569 67.3391304,150.653634 L67.3391304,161.805514 C67.3391304,164.077193 69.0608696,165.93584 71.1652174,165.93584 L82.6434783,165.93584 C84.7478261,165.93584 86.4695652,164.077193 86.4695652,161.805514 L86.4695652,150.653634 C91.0608696,149.930827 95.5565217,148.588471 99.8608696,146.729825 L105.026087,156.332832 C106.078261,158.294737 108.469565,159.017544 110.286957,157.881704 L120.234783,151.686216 C122.052174,150.550376 122.721739,147.968922 121.669565,146.007018 L116.504348,136.40401 C120.13913,133.306266 123.391304,129.795489 126.26087,125.871679 L135.156522,131.447619 C136.973913,132.583459 139.365217,131.860652 140.417391,129.898747 L146.156522,119.1599 C147.208696,117.197995 146.53913,114.616541 144.721739,113.480702 L135.826087,107.904762 C137.452174,103.361404 138.695652,98.5082707 139.46087,93.4486216 L149.791304,93.4486216 C151.895652,93.4486216 153.617391,91.5899749 153.617391,89.3182957 L153.617391,76.9273183 C153.617391,74.6556391 151.895652,72.7969925 149.791304,72.7969925 Z M77.2869565,125.25213 C55.6695652,125.25213 38.0695652,106.252632 38.0695652,82.9162907 C38.0695652,59.5799499 55.6695652,40.5804511 77.2869565,40.5804511 C98.9043478,40.5804511 116.504348,59.5799499 116.504348,82.9162907 C116.504348,106.252632 99,125.25213 77.2869565,125.25213 Z"/>
        <ellipse cx="77.287" cy="82.916" fill="#4FB7EF" rx="39.217" ry="42.336"/>
      </g>
      <g transform="translate(105.217 87.77)">
        <path fill="#566CD3" d="M144.052174,0.516290727 L10.1391304,0.516290727 C4.87826087,0.516290727 0.573913043,5.16290727 0.573913043,10.8421053 L0.573913043,238.010025 C0.573913043,243.689223 4.87826087,248.33584 10.1391304,248.33584 L144.052174,248.33584 C149.313043,248.33584 153.617391,243.689223 153.617391,238.010025 L153.617391,10.8421053 C153.617391,5.16290727 149.313043,0.516290727 144.052174,0.516290727 Z"/>
        <rect width="38.261" height="5.163" x="57.965" y="10.326" fill="#372665"/>
        <g transform="translate(7.652 23.75)">
          <rect width="92.783" height="194.125" x="42.661" y="3.614" fill="#FFF"/>
          <rect width="39.217" height="194.125" x="3.443" y="3.614" fill="#E0E0E0"/>
          <path fill="#372665" d="M0.573913043,0.516290727 L0.573913043,200.837093 L138.313043,200.837093 L138.313043,0.516290727 L0.573913043,0.516290727 Z M135.443478,197.739348 L3.44347826,197.739348 L3.44347826,3.61403509 L135.443478,3.61403509 L135.443478,197.739348 Z"/>
          <g transform="translate(10.522 11.358)">
            <g fill="#CBCACC" transform="translate(2.87)">
              <rect width="17.217" height="3.614" x=".574" y=".723"/>
              <rect width="17.217" height="3.614" x=".574" y="10.016"/>
              <rect width="17.217" height="3.614" x=".574" y="19.309"/>
            </g>
            <g transform="translate(0 32.01)">
              <path fill="#FFF" d="M3.92173913,24.2656642 C2.5826087,24.2656642 1.53043478,23.1298246 1.53043478,21.6842105 L1.53043478,4.13032581 C1.53043478,2.68471178 2.5826087,1.54887218 3.92173913,1.54887218 L20.1826087,1.54887218 C21.5217391,1.54887218 22.573913,2.68471178 22.573913,4.13032581 L22.573913,21.6842105 C22.573913,23.1298246 21.5217391,24.2656642 20.1826087,24.2656642 L3.92173913,24.2656642 Z"/>
              <path fill="#CBCACC" d="M20.1826087,0 L3.92173913,0 C1.8173913,0 0.0956521739,1.85864662 0.0956521739,4.13032581 L0.0956521739,21.6842105 C0.0956521739,23.9558897 1.8173913,25.8145363 3.92173913,25.8145363 L20.1826087,25.8145363 C22.2869565,25.8145363 24.0086957,23.9558897 24.0086957,21.6842105 L24.0086957,4.13032581 C24.0086957,1.85864662 22.2869565,0 20.1826087,0 Z M10.0434783,12.9072682 L2.96521739,20.5483709 L2.96521739,5.26616541 L10.0434783,12.9072682 Z M4.97391304,3.09774436 L19.1304348,3.09774436 L12.0521739,10.7388471 L4.97391304,3.09774436 Z M12.0521739,15.0756892 L19.1304348,22.716792 L4.97391304,22.716792 L12.0521739,15.0756892 Z M14.0608696,12.9072682 L21.1391304,5.26616541 L21.1391304,20.5483709 L14.0608696,12.9072682 Z"/>
            </g>
            <g transform="translate(0 67.118)">
              <path fill="#FFF" d="M3.92173913,24.2656642 C2.5826087,24.2656642 1.53043478,23.1298246 1.53043478,21.6842105 L1.53043478,4.13032581 C1.53043478,2.68471178 2.5826087,1.54887218 3.92173913,1.54887218 L20.1826087,1.54887218 C21.5217391,1.54887218 22.573913,2.68471178 22.573913,4.13032581 L22.573913,21.6842105 C22.573913,23.1298246 21.5217391,24.2656642 20.1826087,24.2656642 L3.92173913,24.2656642 Z"/>
              <path fill="#CBCACC" d="M20.1826087,0 L3.92173913,0 C1.8173913,0 0.0956521739,1.85864662 0.0956521739,4.13032581 L0.0956521739,21.6842105 C0.0956521739,23.9558897 1.8173913,25.8145363 3.92173913,25.8145363 L20.1826087,25.8145363 C22.2869565,25.8145363 24.0086957,23.9558897 24.0086957,21.6842105 L24.0086957,4.13032581 C24.0086957,1.85864662 22.2869565,0 20.1826087,0 Z M10.0434783,12.9072682 L2.96521739,20.5483709 L2.96521739,5.26616541 L10.0434783,12.9072682 Z M4.97391304,3.09774436 L19.1304348,3.09774436 L12.0521739,10.7388471 L4.97391304,3.09774436 Z M12.0521739,15.0756892 L19.1304348,22.716792 L4.97391304,22.716792 L12.0521739,15.0756892 Z M14.0608696,12.9072682 L21.1391304,5.26616541 L21.1391304,20.5483709 L14.0608696,12.9072682 Z"/>
            </g>
            <g transform="translate(0 102.226)">
              <path fill="#FFF" d="M3.92173913,24.2656642 C2.5826087,24.2656642 1.53043478,23.1298246 1.53043478,21.6842105 L1.53043478,4.13032581 C1.53043478,2.68471178 2.5826087,1.54887218 3.92173913,1.54887218 L20.1826087,1.54887218 C21.5217391,1.54887218 22.573913,2.68471178 22.573913,4.13032581 L22.573913,21.6842105 C22.573913,23.1298246 21.5217391,24.2656642 20.1826087,24.2656642 L3.92173913,24.2656642 Z"/>
              <path fill="#CBCACC" d="M20.1826087,0 L3.92173913,0 C1.8173913,0 0.0956521739,1.85864662 0.0956521739,4.13032581 L0.0956521739,21.6842105 C0.0956521739,23.9558897 1.8173913,25.8145363 3.92173913,25.8145363 L20.1826087,25.8145363 C22.2869565,25.8145363 24.0086957,23.9558897 24.0086957,21.6842105 L24.0086957,4.13032581 C24.0086957,1.85864662 22.2869565,0 20.1826087,0 Z M10.0434783,12.9072682 L2.96521739,20.5483709 L2.96521739,5.26616541 L10.0434783,12.9072682 Z M4.97391304,3.09774436 L19.1304348,3.09774436 L12.0521739,10.7388471 L4.97391304,3.09774436 Z M12.0521739,15.0756892 L19.1304348,22.716792 L4.97391304,22.716792 L12.0521739,15.0756892 Z M14.0608696,12.9072682 L21.1391304,5.26616541 L21.1391304,20.5483709 L14.0608696,12.9072682 Z"/>
            </g>
            <g transform="translate(0 137.333)">
              <path fill="#FFF" d="M3.92173913,24.2656642 C2.5826087,24.2656642 1.53043478,23.1298246 1.53043478,21.6842105 L1.53043478,4.13032581 C1.53043478,2.68471178 2.5826087,1.54887218 3.92173913,1.54887218 L20.1826087,1.54887218 C21.5217391,1.54887218 22.573913,2.68471178 22.573913,4.13032581 L22.573913,21.6842105 C22.573913,23.1298246 21.5217391,24.2656642 20.1826087,24.2656642 L3.92173913,24.2656642 Z"/>
              <path fill="#CBCACC" d="M20.1826087,0 L3.92173913,0 C1.8173913,0 0.0956521739,1.85864662 0.0956521739,4.13032581 L0.0956521739,21.6842105 C0.0956521739,23.9558897 1.8173913,25.8145363 3.92173913,25.8145363 L20.1826087,25.8145363 C22.2869565,25.8145363 24.0086957,23.9558897 24.0086957,21.6842105 L24.0086957,4.13032581 C24.0086957,1.85864662 22.2869565,0 20.1826087,0 Z M10.0434783,12.9072682 L2.96521739,20.5483709 L2.96521739,5.26616541 L10.0434783,12.9072682 Z M4.97391304,3.09774436 L19.1304348,3.09774436 L12.0521739,10.7388471 L4.97391304,3.09774436 Z M12.0521739,15.0756892 L19.1304348,22.716792 L4.97391304,22.716792 L12.0521739,15.0756892 Z M14.0608696,12.9072682 L21.1391304,5.26616541 L21.1391304,20.5483709 L14.0608696,12.9072682 Z"/>
            </g>
            <g transform="translate(41.13 3.098)">
              <g transform="translate(0 60.922)">
                <rect width="70.783" height="47.499" x="2.009" y="1.549" fill="#E0E0E0"/>
                <path fill="#CBCACC" d="M0.573913043,0 L0.573913043,50.5964912 L74.226087,50.5964912 L74.226087,0 L0.573913043,0 Z M71.3565217,47.4987469 L3.44347826,47.4987469 L3.44347826,3.09774436 L71.3565217,3.09774436 L71.3565217,47.4987469 Z"/>
              </g>
              <rect width="70.783" height="46.466" x="2.009" y="1.549" fill="#E0E0E0"/>
              <path fill="#CBCACC" d="M0.573913043,0 L0.573913043,49.5639098 L74.226087,49.5639098 L74.226087,0 L0.573913043,0 Z M71.3565217,46.4661654 L3.44347826,46.4661654 L3.44347826,3.09774436 L71.3565217,3.09774436 L71.3565217,46.4661654 Z"/>
              <g transform="translate(0 122.877)">
                <rect width="70.783" height="46.466" x="2.009" y="1.549" fill="#E0E0E0"/>
                <path fill="#CBCACC" d="M0.573913043,0 L0.573913043,49.5639098 L74.226087,49.5639098 L74.226087,0 L0.573913043,0 Z M34.626087,24.7819549 L3.44347826,45.0205514 L3.44347826,4.44010025 L34.626087,24.7819549 Z M6.88695652,3.09774436 L67.9130435,3.09774436 L37.4,22.9233083 L6.88695652,3.09774436 Z M37.4,26.5373434 L67.9130435,46.4661654 L6.79130435,46.4661654 L37.4,26.5373434 Z M40.173913,24.7819549 L71.3565217,4.5433584 L71.3565217,45.1238095 L40.173913,24.7819549 Z"/>
              </g>
            </g>
          </g>
        </g>
      </g>
      <g transform="translate(0 9.293)">
        <path fill="#CBCACC" d="M79.9652174,23.1298246 C79.8695652,23.1298246 79.6782609,23.1298246 79.5826087,23.1298246 C78.3391304,18.2766917 74.3217391,14.7659148 69.4434783,14.7659148 C68.3913043,14.7659148 67.3391304,14.9724311 66.3826087,15.2822055 C65.2347826,7.02155388 58.6347826,0.826065163 50.6956522,0.826065163 C44.0956522,0.826065163 38.4521739,5.16290727 36.0608696,11.358396 L36.0608696,39.8576441 L79.9652174,39.8576441 C84.2695652,39.8576441 87.7130435,36.1403509 87.7130435,31.4937343 C87.6173913,26.8471178 84.173913,23.1298246 79.9652174,23.1298246 Z"/>
        <path fill="#E0E0E0" d="M8.22608696 34.3849624C8.32173913 34.3849624 8.51304348 34.3849624 8.60869565 34.3849624 9.94782609 29.3253133 14.1565217 25.6080201 19.3217391 25.6080201 20.4695652 25.6080201 21.5217391 25.8145363 22.4782609 26.1243108 23.7217391 17.4506266 30.6086957 10.8421053 39.026087 10.8421053 46.0086957 10.8421053 51.9391304 15.3854637 54.426087 21.8907268 55.0956522 21.6842105 55.8608696 21.5809524 56.626087 21.5809524 61.7913043 21.5809524 66 26.1243108 66 31.7002506 66 32.9393484 65.8086957 34.1784461 65.3304348 35.3142857 69.2521739 35.6240602 72.4086957 39.2380952 72.4086957 43.5749373 72.4086957 48.1182957 68.9652174 51.835589 64.7565217 51.835589L8.13043478 51.835589C3.63478261 51.835589 5.68434189e-14 47.9117794 5.68434189e-14 43.0586466.0956521739 38.3087719 3.73043478 34.3849624 8.22608696 34.3849624zM131.234783 81.8837093C131.13913 81.8837093 131.043478 81.8837093 130.947826 81.8837093 129.895652 77.8566416 126.452174 74.7588972 122.33913 74.7588972 121.478261 74.7588972 120.617391 74.8621554 119.756522 75.1719298 118.704348 68.2536341 113.156522 62.8842105 106.46087 62.8842105 100.913043 62.8842105 96.0347826 66.6015038 94.026087 71.764411 93.4521739 71.6611529 92.8782609 71.5578947 92.3043478 71.5578947 88.0956522 71.5578947 84.7478261 75.1719298 84.7478261 79.7152882 84.7478261 80.7478697 84.9391304 81.677193 85.226087 82.6065163 82.0695652 82.8130326 79.4869565 85.7042607 79.4869565 89.2150376 79.4869565 92.9323308 82.2608696 95.8235589 85.6086957 95.8235589L131.234783 95.8235589C134.869565 95.8235589 137.73913 92.6225564 137.73913 88.802005 137.73913 85.0847118 134.869565 81.8837093 131.234783 81.8837093z"/>
      </g>
      <g transform="translate(137.74)">
        <g transform="translate(0 34.075)">
          <rect width="189.678" height="28.912" x="30.991" y="1.549" fill="#8149E0"/>
          <rect width="189.678" height="9.81" x="30.991" y="11.152" fill="#9979E2"/>
          <path fill="#E0E0E0" d="M233.104348,0.516290727 L221.626087,0.516290727 C221.052174,0.516290727 220.669565,0.929323308 220.669565,1.54887218 L220.669565,30.4611529 C220.669565,31.0807018 221.052174,31.4937343 221.626087,31.4937343 L233.104348,31.4937343 C233.678261,31.4937343 234.06087,31.0807018 234.06087,30.4611529 L234.06087,1.54887218 C234.06087,1.03258145 233.582609,0.516290727 233.104348,0.516290727 Z"/>
          <path fill="#DAAEE5" d="M249.365217,2.58145363 L234.06087,2.58145363 L234.06087,29.4285714 L249.365217,29.4285714 C251.469565,29.4285714 253.191304,27.5699248 253.191304,25.2982456 L253.191304,6.71177945 C253.191304,4.44010025 251.469565,2.58145363 249.365217,2.58145363 Z"/>
          <polygon fill="#8149E0" points="0 16.005 16.452 23.749 16.452 8.364"/>
          <polygon fill="#CBCACC" points="30.991 1.549 16.452 8.364 16.452 23.749 30.991 30.461"/>
        </g>
        <g transform="translate(139.652)">
          <path fill="#8149E0" d="M74.6086957,312.35589 L11.4782609,312.35589 C6.9826087,317.209023 4.49565217,319.893734 0,324.746867 L0,336.105263 L86.0869565,336.105263 L86.0869565,324.746867 C81.5913043,319.893734 79.1043478,317.209023 74.6086957,312.35589 Z"/>
          <rect width="42.087" height="312.253" x="22" fill="#DAAEE5"/>
          <g fill="#8149E0" transform="translate(22 76.411)">
            <rect width="15.591" height="6.195" y="212.918"/>
            <rect width="15.591" height="6.195" y="182.664"/>
            <rect width="15.591" height="6.195" y="152.409"/>
            <rect width="15.591" height="6.195" y="122.051"/>
            <rect width="15.591" height="6.195" y="91.796"/>
            <rect width="15.591" height="6.195" y="61.542"/>
            <rect width="15.591" height="6.195" y="31.184"/>
            <rect width="15.591" height="6.195" y=".929"/>
          </g>
          <ellipse cx="43.043" cy="50.08" fill="#E6C8ED" rx="8.609" ry="9.293"/>
        </g>
        <g transform="translate(42.087 64.02)">
          <g transform="translate(0 92.932)">
            <rect width="97.948" height="67.324" x=".574" y=".207" fill="#75CCF2"/>
            <rect width="56.817" height="3.304" x="6.696" y="57.308" fill="#FFF"/>
            <rect width="18.461" height="3.304" x="73.939" y="57.308" fill="#FFF"/>
            <rect width="4.304" height="8.261" x="63.609" y="54.83" fill="#E0E0E0"/>
            <ellipse cx="49.548" cy="29.738" fill="#E0E0E0" rx="18.174" ry="19.619"/>
            <polygon fill="#FFF" points="43.809 17.864 43.809 41.51 59.304 29.738"/>
          </g>
          <polygon fill="#75CCF2" points="64.852 .516 34.243 .516 39.026 10.842 60.07 10.842"/>
          <polygon fill="#4FB7EF" points="51.939 71.455 51.939 10.842 47.157 10.842 47.157 71.455 .574 93.139 12.722 93.139 49.548 75.998 86.47 93.139 98.522 93.139"/>
        </g>
      </g>
    </g>
    <g transform="translate(0 225.103)">
      <path fill="#372665" d="M89.7217391,148.898246 C90.6782609,152.305764 88.7652174,155.919799 85.6086957,156.952381 C82.4521739,157.984962 79.1043478,155.919799 78.1478261,152.512281 C77.1913043,149.104762 79.1043478,145.490727 82.2608696,144.458145 C85.5130435,143.425564 88.7652174,145.387469 89.7217391,148.898246 Z"/>
      <path fill="#372665" d="M107.608696,150.137343 L85.7043478,156.849123 C83.4086957,157.57193 81.0173913,156.126316 80.3478261,153.64812 C79.6782609,151.169925 81.3043478,144.76792 83.6,144.045113 L106.556522,144.251629 C109.043478,144.251629 110.478261,147.659148 108.565217,149.517794 C108.278261,149.827569 107.895652,150.034085 107.608696,150.137343 Z"/>
      <path fill="#E0E0E0" d="M90.8695652 147.039599C90.2 147.039599 89.8173913 146.316792 89.9130435 145.697243L90.4869565 143.219048C90.5826087 142.702757 91.0608696 142.392982 91.5391304 142.392982 92.2086957 142.392982 92.5913043 143.115789 92.4956522 143.735338L91.9217391 146.213534C91.826087 146.729825 91.3478261 147.039599 90.8695652 147.039599zM94.1217391 147.246115C93.4521739 147.246115 93.0695652 146.523308 93.1652174 145.903759L93.7391304 143.425564C93.8347826 142.909273 94.3130435 142.599499 94.7913043 142.599499 95.4608696 142.599499 95.8434783 143.322306 95.7478261 143.941855L95.173913 146.42005C95.0782609 146.833083 94.6956522 147.246115 94.1217391 147.246115z"/>
      <path fill="#4FB7EF" d="M77.2869565,104.703759 L77.1913043,104.600501 L44.3826087,83.7423559 L34.5304348,95.20401 L68.9652174,114.926316 L77.0956522,152.925313 L77.3826087,152.925313 L86.6608696,143.941855 L80.4434783,109.14386 C79.9652174,107.285213 78.9130435,105.633083 77.2869565,104.703759 Z"/>
      <path fill="#372665" d="M11.1913043,162.941353 C11.1913043,166.142356 8.8,168.72381 5.73913043,168.72381 C2.77391304,168.72381 0.382608696,166.142356 0.382608696,162.838095 C0.382608696,159.637093 2.77391304,157.055639 5.83478261,157.055639 C8.8,157.055639 11.1913043,159.740351 11.1913043,162.941353 Z"/>
      <path fill="#372665" d="M26.4,168.827068 L5.93043478,168.827068 C3.73043478,168.827068 2.00869565,166.968421 2.00869565,164.593484 C2.00869565,162.218546 4.87826087,157.158897 6.9826087,157.158897 L26.7826087,163.560902 C28.9826087,164.283709 29.3652174,167.58797 27.3565217,168.620551 C26.973913,168.72381 26.6869565,168.827068 26.4,168.827068 Z"/>
      <path fill="#E0E0E0" d="M12.626087 161.702256C12.0521739 161.495739 11.8608696 160.87619 12.1478261 160.256642L13.2 158.294737C13.3913043 157.881704 13.8695652 157.675188 14.2521739 157.881704 14.826087 158.088221 15.0173913 158.707769 14.7304348 159.327318L13.6782609 161.289223C13.4869565 161.702256 13.0086957 161.805514 12.626087 161.702256zM15.4 162.734837C14.826087 162.528321 14.6347826 161.908772 14.9217391 161.289223L15.973913 159.327318C16.1652174 158.914286 16.6434783 158.707769 17.026087 158.914286 17.6 159.120802 17.7913043 159.740351 17.5043478 160.3599L16.4521739 162.321805C16.2608696 162.631579 15.8782609 162.838095 15.4 162.734837z"/>
      <path fill="#4FB7EF" d="M49.0695652,78.4761905 L27.2608696,75.8947368 C25.9217391,77.5468672 24.2956522,82.7097744 23.8173913,84.9814536 C23.0521739,88.6987469 23.7217391,92.312782 25.4434783,95.3072682 C27.1652174,98.3017544 29.9391304,100.573434 33.3826087,101.399499 C35.0086957,101.812531 43.3304348,101.915789 47.1565217,97.8887218 C52.8956522,91.8997494 49.0695652,78.4761905 49.0695652,78.4761905 Z"/>
      <path fill="#4FB7EF" d="M35.4869565,91.0736842 L21.426087,91.0736842 L26.7826087,127.110777 L3.15652174,156.849123 L15.4,160.566416 L37.973913,133.203008 C39.1217391,131.860652 39.6956522,130.002005 39.4086957,128.0401 L35.4869565,91.0736842 Z"/>
      <path fill="#566CD3" d="M92.7826087,75.7914787 L60.3565217,75.1719298 C58.9217391,75.1719298 57.5826087,74.2426065 57.0086957,72.9002506 L44.2869565,45.5368421 L51.173913,41.8195489 L62.8434783,66.9112782 L92.973913,67.4275689 L92.7826087,75.7914787 Z"/>
      <path fill="#FFF" d="M39.2173913,27.1568922 C39.2173913,27.1568922 41.3217391,32.8360902 45.8173913,34.2817043 L46.1043478,26.8471178 L39.2173913,27.1568922 Z"/>
      <g fill="#E8E5ED" transform="translate(33.478 5.163)">
        <polygon points="13.009 15.076 11.957 37.173 2.487 36.657 3.922 15.282 4.304 9.19"/>
        <path d="M16.0695652 28.0862155C16.4521739 27.9829574 17.2173913 27.7764411 17.5043478 27.673183 21.0434783 26.6406015 24.4869565 20.3418546 24.3913043 16.7278195 24.2 12.3909774 23.8173913 10.2225564 24.0086957 7.33132832 24.2956522 3.30426065 20.7565217.206516291 17.026087.309774436L9.46956522.619548872C6.6.722807018 4.4 3.30426065 4.49565217 6.40200501L4.97391304 19.6190476C5.26086957 24.4721805 11.7652174 28.9122807 16.0695652 28.0862155zM.47826087 31.0807018C1.53043478 30.3578947 2.77391304 29.9448622 4.0173913 30.1513784L8.22608696 30.6676692C10.2347826 30.8741855 12.1478261 31.7002506 13.6782609 32.9393484 9.37391304 34.2817043 4.11304348 33.7654135.47826087 31.0807018z"/>
      </g>
      <path fill="#566CD3" d="M27.4521739,44.9172932 C27.6434783,41.3032581 30.6086957,36.5533835 34.1478261,36.0370927 C40.2695652,36.966416 45.7217391,37.2761905 47.7304348,37.8957393 C51.2695652,40.5804511 53.373913,45.1238095 52.8,50.0802005 L52.226087,90.9704261 C40.8434783,99.6441103 19.9913043,96.1333333 19.9913043,96.1333333 C20.0869565,78.5794486 27.0695652,51.9388471 27.4521739,44.9172932 Z"/>
      <path fill="#566CD3" d="M70.0173913,75.5849624 L43.5217391,75.8947368 C41.6086957,75.8947368 39.9826087,74.4491228 39.6956522,72.3839599 L35.2956522,40.8902256 L42.9478261,39.6511278 L46.773913,67.5308271 L69.9217391,67.2210526 L70.0173913,75.5849624 Z"/>
      <path fill="#DAAEE5" d="M46.6782609,37.6892231 C44.9565217,37.2761905 41.8956522,37.1729323 36.9217391,36.4501253 C39.6,43.3684211 46.9652174,49.047619 49.1652174,57.1017544 C50.3130435,55.8626566 50.2173913,40.3739348 46.6782609,37.6892231 Z"/>
      <path fill="#372665" d="M53.2782609 13.526817C67.9130435 10.1192982 57.3913043.103258145 57.3913043.103258145 57.3913043.103258145 57.1043478 3.82055138 54.2347826 2.58145363 48.7826087.206516291 37.0173913-1.23909774 33.7652174 6.40200501 31.2782609 12.3909774 35.9652174 25.4015038 36.826087 28.8090226 38.2608696 27.7764411 37.0173913 12.4942356 43.0434783 13.1137845 46.2956522 13.526817 50.026087 14.3528822 53.2782609 13.526817zM50.9826087 29.9448622C53.9478261 29.841604 52.0347826 24.4721805 50.8869565 24.5754386 49.8347826 24.6786967 48.0173913 30.1513784 50.9826087 29.9448622z"/>
      <g fill="#8149E0" transform="translate(33.478 33.043)">
        <path d="M12.9130435,5.88571429 C12.626087,5.4726817 11.573913,4.74987469 11.573913,4.33684211 C10.8086957,4.23358396 10.9043478,4.5433584 9.85217391,4.44010025 C12.8173913,7.43458647 11.0956522,12.2877193 12.2434783,16.7278195 C13.773913,18.9994987 15.0173913,21.3744361 15.7826087,24.0591479 C16.4521739,23.3363409 16.6434783,18.1734336 16.1652174,13.4235589 C15.973913,12.9072682 15.3043478,8.8802005 12.9130435,5.88571429 Z"/>
        <path d="M13.2,6.71177945 C12.8173913,7.22807018 11.1913043,7.53784461 10.7130435,7.12481203 C10.2347826,6.71177945 9.75652174,4.74987469 9.75652174,4.74987469 L13.2,4.33684211 C13.2,4.33684211 13.5826087,6.19548872 13.2,6.71177945 Z"/>
        <polygon points="7.939 8.467 .478 3.201 3.061 .207 11.861 4.44"/>
        <polygon points="14.157 6.402 13.678 4.647 12.243 3.098 11.67 4.44"/>
      </g>
      <path fill="#8149E0" d="M40.9391304,65.8786967 C40.9391304,64.9493734 41.7043478,64.1233083 42.5652174,64.1233083 L101.773913,64.1233083 C103.017391,64.1233083 104.069565,64.9493734 104.069565,65.8786967 C104.069565,66.8080201 103.017391,67.6340852 101.773913,67.6340852 L42.5652174,67.6340852 C41.6086957,67.6340852 40.9391304,66.8080201 40.9391304,65.8786967 Z"/>
      <path fill="#FFF" d="M38.5478261,65.8786967 C38.5478261,66.8080201 39.3130435,67.6340852 40.2695652,67.6340852 L62.7478261,67.6340852 C63.7043478,67.6340852 64.4695652,66.8080201 64.4695652,65.8786967 C64.4695652,64.9493734 63.7043478,64.1233083 62.7478261,64.1233083 L40.2695652,64.1233083 C39.4086957,64.1233083 38.5478261,64.8461153 38.5478261,65.8786967 Z"/>
      <path fill="#FFF" d="M103.973913,30.9774436 L103.973913,63.193985 C103.973913,64.639599 102.921739,65.7754386 101.582609,65.7754386 L62.173913,65.7754386 C60.8347826,65.7754386 59.7826087,64.639599 59.7826087,63.193985 L59.7826087,30.9774436 C59.7826087,29.5318296 60.8347826,28.39599 62.173913,28.39599 L101.582609,28.39599 C102.921739,28.39599 103.973913,29.5318296 103.973913,30.9774436 Z"/>
      <path fill="#8149E0" d="M105.791304,30.9774436 L105.791304,63.193985 C105.791304,64.639599 104.73913,65.7754386 103.4,65.7754386 L63.9913043,65.7754386 C62.6521739,65.7754386 61.6,64.639599 61.6,63.193985 L61.6,30.9774436 C61.6,29.5318296 62.6521739,28.39599 63.9913043,28.39599 L103.4,28.39599 C104.73913,28.39599 105.791304,29.5318296 105.791304,30.9774436 Z"/>
      <path fill="#FFF" d="M77.1913043,47.0857143 C77.1913043,45.5368421 78.3391304,44.2977444 79.773913,44.2977444 L87.7130435,44.2977444 C89.1478261,44.2977444 90.2956522,45.5368421 90.2956522,47.0857143 C90.2956522,48.6345865 89.1478261,49.8736842 87.7130435,49.8736842 L79.773913,49.8736842 C78.3391304,49.8736842 77.1913043,48.6345865 77.1913043,47.0857143 Z"/>
      <path fill="#E8E5ED" d="M67.5304348 71.3513784C67.2434783 69.59599 67.626087 67.9438596 68.3913043 66.4982456L78.3391304 64.639599C79.4869565 65.6721805 80.3478261 67.2210526 80.6347826 68.873183 81.2086957 72.7969925 78.8173913 76.4110276 75.1826087 77.1338346 71.5478261 77.8566416 68.1043478 75.275188 67.5304348 71.3513784zM88.4782609 69.3894737C88.3826087 67.6340852 88.7652174 65.9819549 89.7217391 64.639599L99.7652174 63.7102757C100.817391 64.8461153 101.582609 66.3949875 101.678261 68.1503759 101.965217 72.0741855 99.2869565 75.5849624 95.6521739 75.8947368 92.0173913 76.2045113 88.8608696 73.3132832 88.4782609 69.3894737z"/>
    </g>
    <g transform="translate(218.087)">
      <path fill="#372665" d="M46.2956522,28.39599 C42.8521739,28.39599 40.0782609,23.5428571 40.0782609,17.6571429 C40.0782609,11.7714286 42.9478261,6.91829574 46.3913043,6.91829574 C49.8347826,6.91829574 52.6086957,11.7714286 52.6086957,17.6571429 C52.6086957,23.6461153 49.7391304,28.39599 46.2956522,28.39599 Z"/>
      <path fill="#372665" d="M76.6173913,33.4556391 C72.6,30.9774436 68.2,24.7819549 69.826087,19.206015 C73.7478261,6.40200501 64.5652174,1.75538847 59.973913,0.826065163 C55.3826087,-0.103258145 51.3652174,1.1358396 48.7826087,3.30426065 C44.6695652,6.91829574 45.9130435,13.1137845 48.2086957,18.0701754 C45.7217391,19.6190476 44.4782609,23.0265664 45.9130435,25.5047619 C49.0695652,30.9774436 46.3913043,38.3087719 44.4782609,42.645614 C41.4173913,49.6671679 45.626087,58.3408521 52.9913043,62.2646617 C60.2608696,66.1884712 69.826087,65.7754386 77.1913043,62.2646617 C80.826087,60.5092732 84.0782609,57.9278195 85.8,54.5203008 C89.3391304,47.1889724 84.173913,38.1022556 76.6173913,33.4556391 Z"/>
      <path fill="#E8E5ED" d="M26.3043478,82.5032581 C24.5826087,82.8130326 22.7652174,82.9162907 20.8521739,83.0195489 C19.4173913,83.0195489 18.2695652,81.8837093 18.2695652,80.3348371 C18.2695652,78.7859649 19.3217391,77.5468672 20.7565217,77.5468672 C29.6521739,77.2370927 36.3478261,74.4491228 40.6521739,69.0796992 C47.1565217,60.9223058 45.9130435,49.5639098 45.9130435,49.4606516 C45.7217391,47.9117794 46.773913,46.5694236 48.1130435,46.3629073 C49.5478261,46.156391 50.7913043,47.1889724 50.9826087,48.7378446 C51.0782609,49.2541353 52.5130435,62.5744361 44.573913,72.5904762 C40.0782609,77.9598997 34.0521739,81.2641604 26.3043478,82.5032581 Z"/>
      <path fill="#75CCF2" d="M47.6347826,44.4010025 C45.2434783,44.8140351 43.5217391,47.1889724 43.9043478,49.6671679 C43.9043478,49.7704261 44.9565217,60.3027569 39.1217391,67.7373434 C36.2521739,71.3513784 32.0434783,73.7263158 26.6869565,74.7588972 C28.2173913,77.6501253 28.5043478,81.2641604 27.2608696,84.3619048 C35.1043478,83.0195489 41.4173913,79.5087719 45.8173913,73.9328321 C54.2347826,63.2972431 52.7043478,49.1508772 52.7043478,48.5313283 C52.3217391,45.9498747 50.1217391,44.0912281 47.6347826,44.4010025 Z"/>
      <path fill="#E8E5ED" d="M52.7043478,36.3468672 L52.6086957,39.4446115 C54.0434783,39.2380952 55.8608696,38.5152882 56.8173913,37.3794486 L56.8173913,35.1077694 C55.573913,35.9338346 54.1391304,36.4501253 52.7043478,36.3468672 Z"/>
      <g fill="#E8E5ED" transform="translate(41.13 6.195)">
        <path d="M7.26956522,42.8521303 C5.93043478,42.1293233 4.87826087,39.9609023 6.50434783,37.9989975 C8.03478261,36.0370927 10.426087,35.0045113 12.9130435,34.9012531 L13.5826087,34.9012531 C15.8782609,34.797995 17.8869565,35.8305764 19.226087,37.5859649 C18.0782609,41.2 10.8086957,44.2977444 7.26956522,42.8521303 Z"/>
        <path d="M11.573913,29.4285714 L11.4782609,32.5263158 L11.3826087,38.3087719 L15.4956522,38.4120301 L15.5913043,30.9774436 L15.6869565,28.0862155 C14.4434783,29.0155388 13.0086957,29.5318296 11.573913,29.4285714 Z"/>
        <path d="M12.5304348,31.8035088 C16.4521739,31.8035088 19.8956522,29.7383459 22.0956522,26.5373434 C23.626087,24.3689223 24.4869565,21.5809524 24.4869565,18.6897243 L24.4869565,13.6300752 C24.4869565,9.91278195 22.9565217,6.6085213 20.6608696,4.23358396 C18.4608696,2.06516291 15.5913043,0.722807018 12.3391304,0.722807018 C10.2347826,0.722807018 8.22608696,1.34235589 6.50434783,2.37493734 C2.86956522,4.64661654 0.382608696,8.8802005 0.382608696,13.8365915 L0.382608696,18.8962406 C0.382608696,23.6461153 2.77391304,27.673183 6.2173913,29.9448622 C8.13043478,31.1839599 10.3304348,31.8035088 12.5304348,31.8035088 Z"/>
      </g>
      <path fill="#372665" d="M44.573913 80.2315789C43.1391304 86.8401003 47.0608696 93.4486216 53.1826087 94.9974937 59.3043478 96.5463659 65.426087 92.312782 66.8608696 85.7042607 68.2956522 79.0957393 64.373913 72.487218 58.2521739 70.9383459 52.0347826 69.3894737 45.9130435 73.6230576 44.573913 80.2315789zM52.8956522 31.1839599C52.6086957 32.8360902 51.3652174 34.075188 49.7391304 34.075188 48.2086957 34.075188 46.8695652 32.9393484 46.5826087 31.287218L52.8956522 31.1839599z"/>
      <path fill="#75CCF2" d="M42.2782609,51.112782 C41.5130435,53.3844612 43.7130435,55.7593985 45.9130435,56.0691729 C48.2086957,56.3789474 50.2173913,54.5203008 50.5043478,52.1453634 C50.7913043,49.6671679 47.3478261,44.2977444 46.1043478,46.3629073 C44.8608696,48.2215539 42.9478261,49.1508772 42.2782609,51.112782 Z"/>
      <path fill="#75CCF2" d="M60.3565217,43.7814536 C61.3130435,45.0205514 61.9826087,46.5694236 62.0782609,48.324812 C62.0782609,48.324812 61.026087,68.5634085 66.1913043,77.8566416 L44.2869565,79.8185464 L44.8608696,51.835589 C44.7652174,48.8411028 45.8173913,46.156391 47.5391304,44.1944862 C47.6347826,48.7378446 56.2434783,43.3684211 60.3565217,43.7814536 Z"/>
      <path fill="#DAAEE5" d="M45.626087,134.235589 C43.6173913,134.338847 42.5652174,136.40401 42.4695652,136.920301 C41.5130435,140.121303 41.8956522,143.425564 39.9826087,148.794987 C38.7391304,152.512281 37.4,153.235088 36.5391304,156.229574 C35.773913,158.811028 37.973913,159.637093 40.0782609,158.707769 C40.9391304,158.397995 46.2,156.849123 46.2956522,152.202506 C46.3913043,148.898246 46.0086957,146.316792 46.9652174,143.425564 C47.9217391,140.534336 48.7826087,142.186466 49.0695652,143.012531 C49.2608696,143.63208 50.026087,145.490727 50.2173913,146.007018 C50.3130435,146.213534 50.5043478,146.316792 50.6956522,146.213534 C50.8869565,146.110276 50.9826087,145.903759 50.8869565,145.593985 C50.6,144.974436 50.026087,142.702757 49.8347826,139.811529 C49.7391304,136.40401 47.4434783,134.132331 45.626087,134.235589 Z"/>
      <path fill="#E8E5ED" d="M43.5217391,150.034085 C44.6695652,147.349373 45.9130435,139.088722 45.3391304,137.333333 C44.573913,135.164912 40.4608696,135.061654 40.173913,136.920301 C39.6956522,140.224561 41.0347826,146.007018 38.4521739,152.202506 C38.7391304,153.854637 42.1826087,153.235088 43.5217391,150.034085 Z"/>
      <path fill="#372665" d="M59.2086957,94.2746867 L32.3304348,107.801504 L34.9130435,101.296241 L44.8608696,136.197494 C45.4347826,138.262657 44.3826087,140.534336 42.373913,141.257143 C40.4608696,141.876692 38.5478261,140.84411 37.7826087,138.882206 L25.5391304,104.807018 C24.6782609,102.328822 25.7304348,99.5408521 27.9304348,98.4050125 L28.1217391,98.3017544 L54.9043478,84.4651629 C57.4869565,83.122807 60.4521739,84.3619048 61.6956522,87.0466165 C62.9391304,89.7313283 61.8869565,92.9323308 59.2086957,94.2746867 C59.3043478,94.2746867 59.3043478,94.2746867 59.2086957,94.2746867 Z"/>
      <path fill="#DAAEE5" d="M27.5478261,123.290226 C25.7304348,122.360902 23.9130435,123.703258 23.5304348,124.116291 C21.3304348,126.491228 20.1826087,129.588972 16.1652174,133.409524 C13.4869565,135.990977 11.9565217,135.990977 9.85217391,138.262657 C8.03478261,140.121303 9.66086957,141.97995 11.9565217,142.289724 C12.8173913,142.392982 18.173913,143.735338 20.2782609,139.708271 C21.8086957,136.817043 22.573913,134.338847 24.6782609,132.273684 C26.7826087,130.208521 26.8782609,132.067168 26.7826087,132.996491 C26.6869565,133.61604 26.5913043,135.577945 26.4956522,136.197494 C26.4956522,136.40401 26.5913043,136.610526 26.8782609,136.610526 C27.0695652,136.610526 27.2608696,136.40401 27.3565217,136.197494 C27.3565217,135.474687 27.8347826,133.203008 28.8869565,130.518296 C30.226087,127.214035 29.173913,124.116291 27.5478261,123.290226 Z"/>
      <path fill="#E8E5ED" d="M18.8434783,136.197494 C20.9478261,134.338847 25.7304348,127.730326 25.9217391,125.768421 C26.2086957,123.496742 22.573913,121.225063 21.5217391,122.877193 C19.7043478,125.561905 18.3652174,131.344361 13.3913043,135.474687 C13.0086957,137.126817 16.3565217,138.365915 18.8434783,136.197494 Z"/>
      <path fill="#372665" d="M57.3913043,95.20401 L27.7391304,93.5518797 L32.8086957,89.0085213 L26.5913043,124.839098 C26.2086957,127.007519 24.2956522,128.453133 22.2869565,128.0401 C20.373913,127.627068 19.0347826,125.665163 19.3217391,123.6 L23.1478261,87.356391 C23.4347826,84.6716792 25.5391304,82.7097744 28.026087,82.8130326 L28.2173913,82.8130326 L57.8695652,84.0521303 C60.6434783,84.1553885 62.8434783,86.7368421 62.7478261,89.7313283 C62.5565217,92.9323308 60.2608696,95.3072682 57.3913043,95.20401 C57.3913043,95.20401 57.3913043,95.20401 57.3913043,95.20401 Z"/>
      <path fill="#E8E5ED" d="M59.4956522,83.0195489 C58.1565217,83.2260652 56.8173913,83.4325815 55.2869565,83.5358396 C53.8521739,83.6390977 52.7043478,82.5032581 52.6086957,80.954386 C52.5130435,79.4055138 53.5652174,78.166416 55,78.0631579 C59.6869565,77.7533835 65.6173913,76.5142857 67.1478261,72.3839599 C69.5391304,65.8786967 61.3130435,54.1072682 58.1565217,50.4932331 C57.2,49.3573935 57.2956522,47.602005 58.3478261,46.5694236 C59.4,45.5368421 61.026087,45.6401003 61.9826087,46.7759398 C63.4173913,48.4280702 75.9478261,63.6070175 71.9304348,74.4491228 C70.2086957,78.8892231 66,81.7804511 59.4956522,83.0195489 Z"/>
      <path fill="#75CCF2" d="M63.3217391,45.3303258 C62.2695652,44.1944862 60.8347826,43.5749373 59.3043478,43.8847118 C58.3478261,44.0912281 57.3913043,44.6075188 56.7217391,45.433584 C55.1913043,47.2922306 55.3826087,50.0802005 56.9130435,51.9388471 C60.4521739,56.0691729 67.2434783,66.6015038 65.426087,71.5578947 C65.1391304,72.3839599 64.4695652,73.1067669 63.6086957,73.7263158 C62.0782609,74.7588972 61.1217391,76.720802 61.5043478,78.6827068 C61.5043478,78.6827068 61.5043478,78.7859649 61.5043478,78.7859649 C62.0782609,81.8837093 65.2347826,83.6390977 67.8173913,82.0902256 C70.5913043,80.4380952 72.5043478,78.0631579 73.5565217,75.1719298 C77.9565217,63.4005013 65.8086957,48.324812 63.3217391,45.3303258 Z"/>
      <path fill="#E8E5ED" d="M44.4782609 80.3348371C44.573913 81.9869674 45.2434783 83.4325815 46.2956522 84.4651629L55.573913 83.6390977C56.4347826 82.4 56.8173913 80.8511278 56.7217391 79.3022556 56.4347826 75.6882206 53.4695652 73.0035088 50.1217391 73.2100251 46.6782609 73.5197995 44.1913043 76.720802 44.4782609 80.3348371zM12.8173913 81.5739348C12.9130435 83.2260652 13.4869565 84.6716792 14.4434783 85.8075188L23.7217391 85.3944862C24.5826087 84.1553885 25.0608696 82.7097744 25.0608696 81.0576441 24.9652174 77.443609 22.0956522 74.552381 18.7478261 74.7588972 15.3043478 74.8621554 12.626087 77.9598997 12.8173913 81.5739348z"/>
      <path fill="#372665" d="M67.626087,17.1408521 C66.2869565,21.2711779 60.2608696,22.8200501 54.1391304,20.4451128 C48.0173913,18.1734336 44.1913043,12.9072682 45.5304348,8.77694236 C46.8695652,4.64661654 52.8956522,3.09774436 59.0173913,5.4726817 C65.1391304,7.7443609 68.9652174,13.0105263 67.626087,17.1408521 Z"/>
      <path fill="#566CD3" d="M61.2173913,84.1553885 C61.2173913,83.2260652 60.5478261,82.5032581 59.6869565,82.5032581 L4.20869565,82.5032581 C3.06086957,82.5032581 2.10434783,83.2260652 2.10434783,84.1553885 C2.10434783,85.0847118 3.06086957,85.8075188 4.20869565,85.8075188 L59.6869565,85.8075188 C60.5478261,85.8075188 61.2173913,84.9814536 61.2173913,84.1553885 Z"/>
      <path fill="#FFF" d="M63.3217391,84.1553885 C63.3217391,85.0847118 62.5565217,85.8075188 61.6956522,85.8075188 L40.6521739,85.8075188 C39.7913043,85.8075188 39.026087,85.0847118 39.026087,84.1553885 C39.026087,83.2260652 39.7913043,82.5032581 40.6521739,82.5032581 L61.6956522,82.5032581 C62.6521739,82.5032581 63.3217391,83.2260652 63.3217391,84.1553885 Z"/>
      <path fill="#FFF" d="M2.2,51.5258145 L2.2,81.677193 C2.2,83.0195489 3.25217391,84.1553885 4.49565217,84.1553885 L41.4173913,84.1553885 C42.6608696,84.1553885 43.7130435,83.0195489 43.7130435,81.677193 L43.7130435,51.5258145 C43.7130435,50.1834586 42.6608696,49.047619 41.4173913,49.047619 L4.49565217,49.047619 C3.15652174,49.047619 2.2,50.1834586 2.2,51.5258145 Z"/>
      <path fill="#566CD3" d="M0.47826087,51.5258145 L0.47826087,81.677193 C0.47826087,83.0195489 1.53043478,84.1553885 2.77391304,84.1553885 L39.6956522,84.1553885 C40.9391304,84.1553885 41.9913043,83.0195489 41.9913043,81.677193 L41.9913043,51.5258145 C41.9913043,50.1834586 40.9391304,49.047619 39.6956522,49.047619 L2.77391304,49.047619 C1.43478261,49.047619 0.47826087,50.1834586 0.47826087,51.5258145 Z"/>
      <path fill="#FFF" d="M27.2608696,66.6015038 C27.2608696,65.1558897 26.2086957,64.0200501 24.8695652,64.0200501 L17.5043478,64.0200501 C16.1652174,64.0200501 15.1130435,65.1558897 15.1130435,66.6015038 C15.1130435,68.0471178 16.1652174,69.1829574 17.5043478,69.1829574 L24.8695652,69.1829574 C26.2086957,69.1829574 27.2608696,67.9438596 27.2608696,66.6015038 Z"/>
    </g>
    <g transform="translate(337.652 192.06)">
      <path fill="#E8E5ED" d="M61.9826087 141.670175C61.5043478 140.224561 49.9304348 106.87218 49.9304348 86.5303258L56.8173913 86.5303258C56.8173913 105.633083 68.2956522 138.778947 68.3913043 139.088722L61.9826087 141.670175zM31.8521739 114.203509L20.373913 93.4486216C19.8956522 92.6225564 19.8 91.4867168 19.9913043 90.5573935 20.2782609 89.6280702 20.8521739 88.802005 21.7130435 88.2857143L40.173913 77.7533835 43.3304348 84.2586466 28.1217391 92.9323308 37.7826087 110.382957 31.8521739 114.203509z"/>
      <path fill="#121F55" d="M65.2347826,11.5649123 C65.2347826,11.5649123 60.7391304,5.67919799 58.6347826,3.71729323 C54.9043478,0.206516291 51.7478261,4.13032581 51.7478261,4.13032581 C33.0956522,1.03258145 29.5565217,29.841604 38.0695652,36.966416 C44.9565217,42.7488722 50.6956522,38.7218045 50.6956522,38.7218045 C50.6956522,38.7218045 54.6173913,41.8195489 60.5478261,42.8521303 C64.2782609,43.4716792 68.6782609,40.8902256 68.6782609,40.8902256 C68.6782609,40.8902256 73.8434783,44.9172932 77.8608696,38.9283208 C81.8782609,32.9393484 75.9478261,26.6406015 72.7913043,26.6406015 C72.7913043,26.6406015 76.5217391,21.7874687 71.3565217,18.483208 C69.4434783,17.2441103 65.2347826,11.5649123 65.2347826,11.5649123 Z"/>
      <path fill="#E8E5ED" d="M42.0869565,47.2922306 C40.8434783,46.5694236 39.7913043,44.5042607 41.3217391,42.645614 C42.7565217,40.7869674 45.0521739,39.754386 47.5391304,39.6511278 L48.2086957,39.6511278 C50.4086957,39.5478697 52.3217391,40.5804511 53.6608696,42.2325815 C52.6086957,45.7433584 45.5304348,48.7378446 42.0869565,47.2922306 Z"/>
      <path fill="#E8E5ED" d="M45.9130435,34.3849624 L45.8173913,37.3794486 L45.7217391,42.9553885 L49.7391304,43.0586466 L49.8347826,35.9338346 L49.9304348,33.1458647 C48.6869565,33.9719298 47.3478261,34.4882206 45.9130435,34.3849624 Z"/>
      <path fill="#E8E5ED" d="M45.9130435,34.3849624 L45.8173913,37.3794486 C47.2521739,37.1729323 48.973913,36.4501253 49.8347826,35.3142857 L49.8347826,33.0426065 C48.6869565,33.9719298 47.3478261,34.4882206 45.9130435,34.3849624 Z"/>
      <path fill="#E8E5ED" d="M43.6173913,34.3849624 C46.9652174,36.243609 50.7913043,36.1403509 53.9478261,34.3849624 C56.1478261,33.2491228 57.9652174,31.287218 59.1130435,28.8090226 L61.1217391,24.3689223 C62.6521739,21.1679198 62.7478261,17.6571429 61.6956522,14.5593985 C60.7391304,11.6681704 58.7304348,9.08671679 56.0521739,7.64110276 C54.2347826,6.6085213 52.3217391,6.19548872 50.4086957,6.29874687 C46.3913043,6.50526316 42.4695652,8.98345865 40.5565217,13.2170426 L38.5478261,17.6571429 C36.6347826,21.6842105 37.0173913,26.3308271 39.026087,29.9448622 C40.0782609,31.7002506 41.7043478,33.352381 43.6173913,34.3849624 Z"/>
      <path fill="#121F55" d="M56.4347826,21.4776942 C48.1130435,22.9233083 47.2521739,13.2170426 47.7304348,9.29323308 C48.6869565,0.929323308 58.826087,2.58145363 62.2695652,6.71177945 C64.4695652,9.29323308 68.2956522,16.2115288 66.6695652,24.885213 C65.0434783,33.5588972 56.8173913,38.9283208 56.8173913,38.9283208 C47.826087,31.8035088 57.1043478,24.9884712 57.1043478,24.9884712 L56.4347826,21.4776942 Z"/>
      <path fill="#F7B75D" d="M38.4521739,77.3403509 C37.1130435,83.7423559 40.8434783,90.0411028 46.773913,91.5899749 C52.7043478,93.035589 58.5391304,89.0085213 59.973913,82.6065163 C61.3130435,76.2045113 57.5826087,69.9057644 51.6521739,68.3568922 C45.7217391,66.9112782 39.7913043,70.9383459 38.4521739,77.3403509 Z"/>
      <path fill="#121F55" d="M44.573913,27.5699248 C43.7130435,28.8090226 42.0869565,29.2220551 40.7478261,28.4992481 C39.4086957,27.7764411 38.7391304,26.1243108 39.1217391,24.5754386 L44.573913,27.5699248 Z"/>
      <path fill="#566CD3" d="M30.3217391 83.3293233C44.8608696 96.9593985 62.8434783 103.56792 62.8434783 103.56792 62.8434783 103.56792 65.9043478 83.6390977 59.1130435 75.0686717 55.6695652 70.7318296 38.1652174 77.0305764 38.1652174 77.0305764L30.3217391 83.3293233zM36.2521739 49.2541353C35.4869565 51.5258145 37.5913043 53.6942356 39.7913043 54.00401 41.9913043 54.2105263 44 52.558396 44.1913043 50.1834586 44.4782609 47.8085213 41.1304348 42.645614 39.8869565 44.6075188 38.7391304 46.5694236 36.9217391 47.3954887 36.2521739 49.2541353z"/>
      <path fill="#566CD3" d="M53.6608696,42.2325815 C54.6173913,43.4716792 55.1913043,44.9172932 55.2869565,46.6726817 C55.2869565,46.6726817 54.3304348,66.1884712 59.2086957,75.1719298 C61.3130435,78.9924812 38.0695652,78.8894946 38.0695652,78.8894946 L38.7391304,50.0802005 C38.6434783,47.1889724 39.6,44.6075188 41.3217391,42.645614 C41.4173913,46.9824561 49.7391304,41.8195489 53.6608696,42.2325815 Z"/>
      <path fill="#566CD3" d="M50.1217391,49.3573935 C46.0086957,49.3573935 18.173913,47.9117794 2.67826087,10.9453634 L8.89565217,7.95087719 C23.3391304,42.4390977 49.1652174,42.0260652 50.3130435,42.0260652 L50.5043478,49.4606516 C50.5043478,49.3573935 50.4086957,49.3573935 50.1217391,49.3573935 Z"/>
      <path fill="#E8E5ED" d="M8.8,1.96190476 C7.55652174,1.1358396 6.12173913,0.826065163 4.7826087,1.1358396 L0.0956521739,9.39649123 C0.47826087,10.7388471 1.33913043,11.9779449 2.5826087,12.80401 C5.35652174,14.6626566 8.99130435,13.7333333 10.7130435,10.7388471 C12.4347826,7.7443609 11.573913,3.82055138 8.8,1.96190476 Z"/>
      <g fill="#4FB7EF" transform="translate(19.13 109.454)">
        <path d="M14.1565217,6.81503759 C14.826087,9.39649123 17.3130435,10.8421053 19.7043478,10.1192982 C22.0956522,9.39649123 23.4347826,6.71177945 22.7652174,4.13032581 C22.0956522,1.54887218 19.6086957,0.103258145 17.2173913,0.826065163 C14.826087,1.54887218 13.4869565,4.23358396 14.1565217,6.81503759 Z"/>
        <path d="M3.34782609,15.2822055 L19.6086957,10.1192982 C21.3304348,9.60300752 22.2869565,7.64110276 21.8086957,5.78245614 C21.3304348,3.92380952 17.9826087,0.619548872 16.2608696,1.1358396 L1.91304348,11.1518797 C0.286956522,12.2877193 0.765217391,14.9724311 2.5826087,15.3854637 C2.86956522,15.3854637 3.15652174,15.3854637 3.34782609,15.2822055 Z"/>
      </g>
      <g fill="#4FB7EF" transform="translate(51.652 137.333)">
        <path d="M10.8086957,8.46716792 C12.3391304,10.5323308 15.1130435,10.9453634 17.1217391,9.29323308 C19.0347826,7.64110276 19.4173913,4.64661654 17.8869565,2.47819549 C16.3565217,0.413032581 13.5826087,-1.22124533e-15 11.573913,1.65213033 C9.66086957,3.30426065 9.27826087,6.29874687 10.8086957,8.46716792 Z"/>
        <path d="M3.63478261,20.5483709 L17.026087,9.39649123 C18.4608696,8.26065163 18.7478261,5.98897243 17.6,4.44010025 C16.5478261,2.89122807 12.2434783,1.1358396 10.8086957,2.2716792 L0.765217391,17.2441103 C-0.382608696,18.8962406 0.956521739,21.2711779 2.77391304,20.8581454 C3.15652174,20.8581454 3.34782609,20.7548872 3.63478261,20.5483709 Z"/>
      </g>
      <path fill="#4FB7EF" d="M45.4347826,76.5142857 C43.7130435,76.5142857 41.8,76.3077694 39.7913043,75.8947368 L39.9826087,74.8621554 C49.3565217,77.0305764 56.626087,72.6937343 56.7217391,72.6937343 L57.2,73.6230576 C57.0086957,73.7263158 52.226087,76.5142857 45.4347826,76.5142857 Z"/>
      <rect width="1.53" height="11.978" x="83.122" y="141.877" fill="#E0E0E0"/>
      <rect width="1.53" height="18.999" x="65.235" y="154.99" fill="#E0E0E0"/>
      <rect width="1.53" height="16.315" x="76.139" y="148.175" fill="#E0E0E0"/>
      <rect width="1.53" height="9.5" x="76.139" y="128.143" fill="#E0E0E0"/>
    </g>
  </g>
</svg>
