<svg xmlns="http://www.w3.org/2000/svg" viewBox="0 0 16 16">
  <path fill="#3FA2F7" d="M7.5,16.5 L7.5,10.215 L9.42,10.215 L9.42,16.5 L7.5,16.5 M9.48,8.475 C9.495,9.015 9.09,9.45 8.445,9.45 C7.845,9.45 7.455,9.015 7.455,8.475 C7.455,7.92 7.86,7.5 8.475,7.5 C9.09,7.5 9.48,7.92 9.48,8.475 M14.52,16.5 L14.52,13.02 C14.52,12.21 14.25,11.655 13.545,11.655 C13.02,11.655 12.705,12.03 12.555,12.39 C12.51,12.525 12.495,12.705 12.495,12.885 L12.495,16.5 L10.575,16.5 L10.575,12.225 C10.575,11.445 10.545,10.785 10.53,10.215 L12.195,10.215 L12.285,11.1 L12.315,11.1 C12.57,10.68 13.2,10.08 14.235,10.08 C15.495,10.08 16.455,10.935 16.455,12.795 L16.455,16.5 L14.52,16.5 M19.5,5.82 C19.5,5.1 18.9,4.5 18.18,4.5 L5.82,4.5 C5.1,4.5 4.5,5.1 4.5,5.82 L4.5,18.18 C4.5,18.9 5.1,19.5 5.82,19.5 L18.18,19.5 C18.9,19.5 19.5,18.9 19.5,18.18 L19.5,5.82" transform="translate(-4 -4)"/>
</svg>
