<svg xmlns="http://www.w3.org/2000/svg" xmlns:xlink="http://www.w3.org/1999/xlink" viewBox="0 0 95.1 114.5">
  <defs>
    <path id="a" d="M68 84.9V40.6l-3.8 2.2V87l3.8-2.1zm-49.2-1.4V38.1L15 35.9v45.4l3.8 2.2zm12.6-38v42.4l3.8 2.2V47.7l-3.8-2.2zM8.5 91.9c1.4 0 2.6 1.2 2.6 2.6s-1.2 2.6-2.6 2.6-2.6-1.2-2.6-2.6c0-1.4 1.2-2.6 2.6-2.6zm2-2.2c2.6 1.1 3.9 4.2 2.7 6.8-1.1 2.6-4.2 3.9-6.8 2.7-2.6-1.1-3.9-4.2-2.7-6.8.6-1.3 1.7-2.4 3-2.9l-.3-.2V30.1L45.6 7.5l39.1 22.6v45.1l-4.1 2.4V34l-3.7-2.1-31.3 18.2-5.1-3 31.3-18.2-3.1-1.8-31.3 18.2-5.1-3L63.5 24l-3-1.8-31.3 18.3-5.1-3 31.3-18.3-3.1-1.8L21 35.7l-5.1-3 31.3-18.3-3.1-1.8-33.5 19.6-.1 57.5zm14 15.2c1.4 0 2.6 1.2 2.6 2.6 0 1.4-1.2 2.6-2.6 2.6-1.4 0-2.6-1.2-2.6-2.6 0-1.4 1.2-2.6 2.6-2.6h.1-.1zm2.4-2c1.8.8 2.9 2.6 2.8 4.6-.1 2.8-2.4 5-5.2 5.2-2.8-.1-5.1-2.3-5.2-5.2-.1-2.3 1.5-4.4 3.7-5V40.6l3.9 2.2v60.1zm14.5-7.2c.2 0 .4 0 .6.1l1.3.7c1 1 1 2.7-.1 3.7s-2.7 1-3.7-.1c-1-1-1-2.7.1-3.7.5-.4 1.1-.7 1.8-.7zm1.9-2.2c2.7 1.1 3.9 4.1 2.9 6.7-1.1 2.7-4.1 3.9-6.7 2.9-2.7-1.1-3.9-4.1-2.9-6.7.5-1.3 1.6-2.4 2.9-2.9V50.2l3.8 2.2v41.1zm14.5 13.2c1.4.2 2.4 1.2 2.6 2.6 0 1.4-1.2 2.6-2.6 2.6-1.4-.1-2.5-1.2-2.6-2.6 0-.9.5-1.8 1.3-2.2l.1-.1c.4-.2.3-.3 1.3-.3h-.1zm1.9-2.2c2 .7 3.4 2.7 3.3 4.8 0 2.9-2.3 5.2-5.2 5.2s-5.2-2.3-5.2-5.2c-.1-2.1 1.2-4.1 3.3-4.8V47.7l3.8-2.2v59zm14.8-10.4c1.4 0 2.6 1.2 2.6 2.6s-1.2 2.6-2.6 2.6c-1.4 0-2.6-1.2-2.6-2.6s1.2-2.6 2.6-2.6zm1.7-2.3c2.1.6 3.6 2.7 3.5 4.9-.1 2.8-2.4 5.1-5.2 5.2-2.8-.1-5-2.4-5.2-5.2-.1-2.1 1.1-3.9 3-4.7V38.1l3.9-2.2v55.9zm13.8-11c1.4 0 2.6 1.2 2.6 2.6 0 1.4-1.2 2.6-2.6 2.6s-2.6-1.2-2.6-2.6c-.1-1.4 1.1-2.6 2.6-2.6-.1 0 0 0 0 0zm1.2-2.4c2.8.7 4.4 3.5 3.7 6.3-.7 2.8-3.5 4.4-6.3 3.7-2.8-.7-4.4-3.5-3.7-6.3.4-1.8 1.8-3.2 3.5-3.7V27.9L45.6 3.2 2.7 27.9v52.7L0 79V26.3l.3-.2L45.6 0l45.6 26.3v52.1zm-39.6 7.2V50.2l-3.8 2.2v35.3l3.8-2.1z"/>
  </defs>
  <clipPath id="b">
    <use overflow="visible" xlink:href="#a"/>
  </clipPath>
  <g clip-path="url(#b)">
    <linearGradient id="c" x1="-317.0961" x2="-316.2161" y1="136.6643" y2="136.6643" gradientTransform="matrix(83.9603 -146.0114 -148.9415 -85.6452 46987.0078 -34469.8789)" gradientUnits="userSpaceOnUse">
      <stop offset="0" stop-color="#8dc63f"/>
      <stop offset=".52" stop-color="#5ab890"/>
      <stop offset="1" stop-color="#27aae1"/>
    </linearGradient>
    <path fill="url(#c)" d="M-49.5 86L23.6-41.1l121 69.6-73.1 127.1z"/>
  </g>
</svg>
