<svg xmlns="http://www.w3.org/2000/svg" viewBox="0 0 496 420">
  <g fill="none">
    <g transform="translate(92.372)">
      <path fill="#9570EE" d="M170.806533,19.2177024 L170.806533,325.051353 C170.806533,335.608718 162.311568,344.104097 151.754718,344.104097 L19.2167659,344.104097 C8.65991596,344.104097 0.16495078,335.608718 0.16495078,325.051353 L0.16495078,19.2177024 C0.16495078,8.66033801 8.65991596,0.164958819 19.2167659,0.164958819 L151.754718,0.164958819 C162.311568,0.164958819 170.806533,8.66033801 170.806533,19.2177024 Z"/>
      <rect width="170.642" height="268.47" x=".165" y="35.961" fill="#DDD6FF"/>
      <rect width="29.444" height="4.289" x="70.846" y="16.826" fill="#DDD6FF"/>
      <path fill="#DDD6FF" d="M85.5269796 312.102086C78.1041945 312.102086 72.083491 318.123083 72.083491 325.54623 72.083491 332.969377 78.1041945 338.990373 85.5269796 338.990373 92.9497647 338.990373 98.9704682 332.969377 98.9704682 325.54623 98.9704682 318.123083 92.9497647 312.102086 85.5269796 312.102086zM85.5269796 337.670703C78.846473 337.670703 73.4030972 332.227062 73.4030972 325.54623 73.4030972 318.865398 78.846473 313.421756 85.5269796 313.421756 92.2074862 313.421756 97.6508619 318.865398 97.6508619 325.54623 97.6508619 332.227062 92.2074862 337.670703 85.5269796 337.670703zM111.424252 18.9702642C111.424252 20.94977 109.85722 22.5168788 107.87781 22.5168788 105.898401 22.5168788 104.331369 20.94977 104.331369 18.9702642 104.331369 16.9907584 105.898401 15.4236496 107.87781 15.4236496 109.85722 15.4236496 111.424252 16.9907584 111.424252 18.9702642zM87.6713397 8.08298214C87.6713397 9.32017329 86.681635 10.2274468 85.4445042 10.2274468 84.2073733 10.2274468 83.300144 9.23769388 83.300144 8.08298214 83.300144 6.845791 84.2898487 5.93851749 85.4445042 5.93851749 86.681635 5.85603808 87.6713397 6.845791 87.6713397 8.08298214z"/>
      <g transform="translate(12.371 48.663)">
        <g fill="#FFF" transform="translate(59.382 17.32)">
          <path d="M3.05158944.412397048L47.6707755.412397048C49.2378079.412397048 50.4749388.577355867 50.4749388.824794096L50.4749388 3.4641352C50.4749388 3.71157343 49.2378079 3.87653225 47.6707755 3.87653225L3.05158944 3.87653225C1.48455702 3.87653225.24742617 3.71157343.24742617 3.4641352L.24742617.824794096C.24742617.577355867 1.48455702.412397048 3.05158944.412397048zM4.61862185 8.90777624L74.7227035 8.90777624C77.1144898 8.90777624 79.0938991 9.07273506 79.0938991 9.32017329L79.0938991 11.9595144C79.0938991 12.2069526 77.1144898 12.3719114 74.7227035 12.3719114L4.61862185 12.3719114C2.22683553 12.3719114.24742617 12.2069526.24742617 11.9595144L.24742617 9.32017329C.24742617 9.15521447 2.22683553 8.90777624 4.61862185 8.90777624z"/>
        </g>
        <path fill="#FFF" d="M46.6810708,23.75407 C46.6810708,36.455899 36.3716471,46.7658252 23.670437,46.7658252 C10.9692269,46.7658252 0.659803121,36.455899 0.659803121,23.75407 C0.659803121,11.0522409 10.9692269,0.742314686 23.670437,0.742314686 C36.3716471,0.659835277 46.6810708,10.9697615 46.6810708,23.75407 Z"/>
        <path fill="#9BD0ED" d="M41.1552197,23.75407 C41.1552197,33.4041609 33.3200576,41.2397048 23.670437,41.2397048 C14.0208163,41.2397048 6.18565426,33.4041609 6.18565426,23.75407 C6.18565426,14.103979 14.0208163,6.26843513 23.670437,6.26843513 C33.3200576,6.26843513 41.1552197,14.103979 41.1552197,23.75407 Z"/>
        <g transform="translate(0 57.736)">
          <path fill="#FFF" d="M46.6810708,23.1767141 C46.6810708,35.8785432 36.3716471,46.1884694 23.670437,46.1884694 C10.9692269,46.1884694 0.659803121,35.8785432 0.659803121,23.1767141 C0.659803121,10.474885 10.9692269,0.164958819 23.670437,0.164958819 C36.3716471,0.164958819 46.6810708,10.474885 46.6810708,23.1767141 Z"/>
          <path fill="#9BD0ED" d="M41.1552197,23.1767141 C41.1552197,32.826805 33.3200576,40.6623489 23.670437,40.6623489 C14.0208163,40.6623489 6.18565426,32.826805 6.18565426,23.1767141 C6.18565426,13.5266232 14.0208163,5.69107926 23.670437,5.69107926 C33.3200576,5.69107926 41.1552197,13.5266232 41.1552197,23.1767141 Z"/>
          <g transform="translate(59.382 4.124)">
            <g fill="#FFF" transform="translate(0 26.393)">
              <path d="M3.05158944.329917638L47.6707755.329917638C49.2378079.329917638 50.4749388.494876458 50.4749388.742314686L50.4749388 3.38165579C50.4749388 3.62909402 49.2378079 3.79405284 47.6707755 3.79405284L3.05158944 3.79405284C1.48455702 3.79405284.24742617 3.62909402.24742617 3.38165579L.24742617.742314686C.24742617.494876458 1.48455702.329917638 3.05158944.329917638zM4.61862185 7.7530645L74.7227035 7.7530645C77.1144898 7.7530645 79.0938991 7.91802332 79.0938991 8.16546155L79.0938991 10.8048027C79.0938991 11.0522409 77.1144898 11.2171997 74.7227035 11.2171997L4.61862185 11.2171997C2.22683553 11.2171997.24742617 11.0522409.24742617 10.8048027L.24742617 8.16546155C.24742617 8.00050273 2.22683553 7.7530645 4.61862185 7.7530645z"/>
            </g>
            <polygon fill="#4AB6D6" points="9.485 19.218 18.722 19.218 14.103 9.815 9.485 .495 4.866 9.815 .247 19.218"/>
            <polygon fill="#128FD0" points="23.258 19.218 27.794 19.218 25.485 14.599 23.258 10.062 20.949 14.599 18.722 19.218"/>
          </g>
        </g>
        <g transform="translate(0 114.646)">
          <path fill="#FFF" d="M46.6810708,23.4241523 C46.6810708,36.1259814 36.3716471,46.4359076 23.670437,46.4359076 C10.9692269,46.4359076 0.659803121,36.1259814 0.659803121,23.4241523 C0.659803121,10.7223232 10.9692269,0.412397048 23.670437,0.412397048 C36.3716471,0.412397048 46.6810708,10.7223232 46.6810708,23.4241523 Z"/>
          <path fill="#9BD0ED" d="M41.1552197,23.4241523 C41.1552197,33.0742433 33.3200576,40.9097872 23.670437,40.9097872 C14.0208163,40.9097872 6.18565426,33.0742433 6.18565426,23.4241523 C6.18565426,13.7740614 14.0208163,5.93851749 23.670437,5.93851749 C33.3200576,5.93851749 41.1552197,13.7740614 41.1552197,23.4241523 Z"/>
          <g transform="translate(61.857 3.3)">
            <path fill="#FFF" d="M2.96911405 29.197711L47.5883001 29.197711C49.1553325 29.197711 50.3924634 29.3626698 50.3924634 29.610108L50.3924634 32.2494492C50.3924634 32.4968874 49.1553325 32.6618462 47.5883001 32.6618462L2.96911405 32.6618462C1.40208163 32.6618462.16495078 32.4968874.16495078 32.2494492L.16495078 29.610108C.16495078 29.3626698 1.48455702 29.197711 2.96911405 29.197711zM4.53614646 36.6208579L74.6402281 36.6208579C77.0320144 36.6208579 79.0114238 36.7858167 79.0114238 37.0332549L79.0114238 39.672596C79.0114238 39.9200342 77.0320144 40.0849931 74.6402281 40.0849931L4.53614646 40.0849931C2.14436014 40.0849931.16495078 39.9200342.16495078 39.672596L.16495078 37.0332549C.16495078 36.7858167 2.14436014 36.6208579 4.53614646 36.6208579z"/>
            <g fill="#066F8B">
              <path d="M16.3301272,5.03124399 L3.71139256,5.03124399 C1.81445858,5.03124399 0.24742617,6.59835277 0.24742617,8.49537919 L0.24742617,21.1147289 C0.24742617,23.0117553 1.81445858,24.5788641 3.71139256,24.5788641 L16.3301272,24.5788641 C18.2270612,24.5788641 19.7940936,23.0117553 19.7940936,21.1147289 L19.7940936,8.49537919 C19.7940936,6.59835277 18.2270612,5.03124399 16.3301272,5.03124399 Z M18.7219136,20.1249759 C18.7219136,22.0220024 17.1548811,23.5891111 15.2579472,23.5891111 L4.78357263,23.5891111 C2.88663865,23.5891111 1.31960624,22.0220024 1.31960624,20.1249759 L1.31960624,9.65009092 C1.31960624,7.7530645 2.88663865,6.18595572 4.78357263,6.18595572 L15.2579472,6.18595572 C17.1548811,6.18595572 18.7219136,7.7530645 18.7219136,9.65009092 L18.7219136,20.1249759 Z"/>
              <path d="M19.7116182,0.907273506 L9.15476831,11.877035 L7.5052605,16.7433201 L7.58773589,16.8257996 L7.67021128,16.908279 L12.4537839,15.093732 L23.0931092,4.12397048 C24.0003385,3.21669697 23.9178631,1.7320676 23.0106338,0.824794096 C22.1034046,9.60342916e-15 20.6188475,9.60342916e-15 19.7116182,0.907273506 Z"/>
            </g>
          </g>
        </g>
      </g>
      <g transform="translate(93.197 249.088)">
        <path fill="#4AB6D6" d="M50.309988,0.742314686 L0.742278511,0.742314686 C0.412376951,0.742314686 0.16495078,0.989752915 0.16495078,1.31967055 L0.16495078,19.4651407 C0.16495078,19.7950583 0.412376951,20.0424965 0.742278511,20.0424965 L20.0415198,20.0424965 L21.6085522,22.7643171 L24.6601417,28.1254787 L27.7117311,22.7643171 L29.2787635,20.0424965 L50.309988,20.0424965 C50.6398895,20.0424965 50.8873157,19.7950583 50.8873157,19.4651407 L50.8873157,1.31967055 C50.8873157,0.989752915 50.6398895,0.742314686 50.309988,0.742314686 Z"/>
        <g fill="#FFF" transform="translate(13.196 7.423)">
          <polygon points="1.32 1.65 .165 1.65 .165 .825 3.546 .825 3.546 1.65 2.309 1.65 2.309 5.196 1.32 5.196"/>
          <path d="M7.91763745 2.96925875C7.91763745 4.45388812 7.01040816 5.27868221 5.77327731 5.27868221 4.45367107 5.27868221 3.71139256 4.2889293 3.71139256 3.05173816 3.71139256 1.7320676 4.53614646.742314686 5.8557527.742314686 7.17535894.742314686 7.91763745 1.81454701 7.91763745 2.96925875zM4.78357263 3.05173816C4.78357263 3.87653225 5.19594958 4.53636753 5.8557527 4.53636753 6.51555582 4.53636753 6.92793277 3.87653225 6.92793277 3.05173816 6.92793277 2.22694406 6.51555582 1.56710878 5.8557527 1.56710878 5.11347419 1.56710878 4.78357263 2.22694406 4.78357263 3.05173816zM12.6187347 2.96925875C12.6187347 4.45388812 11.7115054 5.27868221 10.4743745 5.27868221 9.15476831 5.27868221 8.41248979 4.2889293 8.41248979 3.05173816 8.41248979 1.7320676 9.2372437.742314686 10.5568499.742314686 11.8764562.742314686 12.6187347 1.81454701 12.6187347 2.96925875zM9.40219448 3.05173816C9.40219448 3.87653225 9.81457143 4.53636753 10.4743745 4.53636753 11.1341777 4.53636753 11.5465546 3.87653225 11.5465546 3.05173816 11.5465546 2.22694406 11.1341777 1.56710878 10.4743745 1.56710878 9.81457143 1.56710878 9.40219448 2.22694406 9.40219448 3.05173816z"/>
          <polygon points="13.279 .825 14.268 .825 14.268 4.371 16 4.371 16 5.196 13.279 5.196 13.279 .825"/>
          <polygon points="18.557 1.65 17.32 1.65 17.32 .825 20.701 .825 20.701 1.65 19.464 1.65 19.464 5.196 18.474 5.196 18.474 1.65"/>
          <polygon points="22.268 .825 22.268 5.196 21.279 5.196 21.279 .825"/>
          <path d="M23.1755846,0.907273506 C23.5054862,0.824794096 23.9178631,0.824794096 24.4951909,0.824794096 C25.0725186,0.824794096 25.5673709,0.907273506 25.8147971,1.15471173 C26.0622233,1.40214996 26.3096495,1.7320676 26.3096495,2.14446465 C26.3096495,2.5568617 26.1446987,2.96925875 25.8972725,3.21669697 C25.5673709,3.54661461 25.0725186,3.71157343 24.4951909,3.71157343 C24.3302401,3.71157343 24.2477647,3.71157343 24.1652893,3.71157343 L24.1652893,5.27868221 L23.1755846,5.27868221 L23.1755846,0.907273506 Z M24.1652893,2.88677934 C24.2477647,2.88677934 24.3302401,2.88677934 24.4951909,2.88677934 C24.9900432,2.88677934 25.3199448,2.63934111 25.3199448,2.14446465 C25.3199448,1.7320676 25.0725186,1.48462937 24.5776663,1.48462937 C24.4127155,1.48462937 24.2477647,1.48462937 24.1652893,1.48462937 L24.1652893,2.88677934 Z"/>
        </g>
      </g>
      <g transform="translate(26.392 248.263)">
        <path fill="#FFF" d="M50.7223649,0.0824794096 L1.15465546,0.0824794096 C0.824753901,0.0824794096 0.577327731,0.329917638 0.577327731,0.659835277 L0.577327731,18.8053054 C0.577327731,19.135223 0.824753901,19.3826613 1.15465546,19.3826613 L20.4538968,19.3826613 L22.0209292,22.1044818 L25.0725186,27.4656434 L28.124108,22.1044818 L29.6911405,19.3826613 L50.6398895,19.3826613 C50.9697911,19.3826613 51.2172173,19.135223 51.2172173,18.8053054 L51.2172173,0.659835277 C51.2172173,0.329917638 50.9697911,0.0824794096 50.7223649,0.0824794096 Z"/>
        <g fill="#4AB6D6" transform="translate(10.722 5.774)">
          <polygon points="1.155 1.072 0 1.072 0 .247 3.381 .247 3.381 1.072 2.144 1.072 2.144 4.619 1.155 4.619"/>
          <path d="M7.75268667 2.39190288C7.75268667 3.87653225 6.84545738 4.70132635 5.60832653 4.70132635 4.28872029 4.70132635 3.54644178 3.71157343 3.54644178 2.47438229 3.54644178 1.15471173 4.37119568.164958819 5.69080192.164958819 7.01040816.164958819 7.75268667 1.23719114 7.75268667 2.39190288zM4.53614646 2.47438229C4.53614646 3.29917638 4.94852341 3.95901166 5.60832653 3.95901166 6.26812965 3.95901166 6.6805066 3.29917638 6.6805066 2.47438229 6.6805066 1.64958819 6.26812965.989752915 5.60832653.989752915 4.94852341.989752915 4.53614646 1.64958819 4.53614646 2.47438229zM12.4537839 2.39190288C12.4537839 3.87653225 11.5465546 4.70132635 10.3094238 4.70132635 8.98981753 4.70132635 8.24753901 3.71157343 8.24753901 2.47438229 8.24753901 1.15471173 9.07229292.164958819 10.3918992.164958819 11.7115054.164958819 12.4537839 1.23719114 12.4537839 2.39190288zM9.2372437 2.47438229C9.2372437 3.29917638 9.64962065 3.95901166 10.3094238 3.95901166 10.9692269 3.95901166 11.3816038 3.29917638 11.3816038 2.47438229 11.3816038 1.64958819 10.9692269.989752915 10.3094238.989752915 9.64962065.989752915 9.2372437 1.64958819 9.2372437 2.47438229z"/>
          <polygon points="13.114 .247 14.103 .247 14.103 3.794 15.835 3.794 15.835 4.619 13.114 4.619 13.114 .247"/>
          <polygon points="18.392 1.072 17.237 1.072 17.237 .247 20.619 .247 20.619 1.072 19.382 1.072 19.382 4.619 18.392 4.619"/>
          <polygon points="22.103 .247 22.103 4.619 21.114 4.619 21.114 .247"/>
          <path d="M22.9281585,0.329917638 C23.25806,0.247438229 23.670437,0.247438229 24.2477647,0.247438229 C24.8250924,0.247438229 25.3199448,0.329917638 25.5673709,0.577355867 C25.8147971,0.824794096 26.0622233,1.15471173 26.0622233,1.56710878 C26.0622233,1.97950583 25.8972725,2.39190288 25.6498463,2.63934111 C25.3199448,2.96925875 24.8250924,3.13421756 24.2477647,3.13421756 C24.0828139,3.13421756 24.0003385,3.13421756 23.9178631,3.13421756 L23.9178631,4.70132635 L22.9281585,4.70132635 L22.9281585,0.329917638 Z M23.9178631,2.30942347 C24.0003385,2.30942347 24.0828139,2.30942347 24.2477647,2.30942347 C24.742617,2.30942347 25.0725186,2.06198524 25.0725186,1.56710878 C25.0725186,1.15471173 24.8250924,0.907273506 24.3302401,0.907273506 C24.1652893,0.907273506 24.0003385,0.907273506 23.9178631,0.907273506 L23.9178631,2.30942347 Z"/>
        </g>
      </g>
    </g>
    <g opacity=".31" transform="translate(275.468 37.94)">
      <rect width="89.238" height="150.855" y=".577" fill="#9BD0ED"/>
      <rect width="61.609" height="150.855" x="105.568" y=".577" fill="#060808"/>
      <rect width="61.609" height="120.667" x="105.568" y=".577" fill="#060808"/>
      <rect width="61.609" height="150.855" x="105.568" y=".577" fill="#9BD0ED"/>
      <rect width="61.609" height="54.024" x="105.568" y="162.814" fill="#61B5E5"/>
      <rect width="61.609" height="26.393" x="106.888" y="224.344" fill="#46C3F1"/>
      <rect width="61.609" height="120.667" x="105.568" y=".577" fill="#61B5E5"/>
      <rect width="77.939" height="48.25" x="5.691" y="8.248" fill="#61B5E5"/>
      <rect width="65.403" height="7.423" x="11.959" y="69.2" fill="#FFF"/>
      <rect width="65.403" height="7.423" x="11.959" y="82.397" fill="#FFF"/>
      <rect width="65.403" height="7.423" x="11.959" y="95.594" fill="#FFF"/>
      <rect width="65.403" height="7.423" x="11.959" y="108.79" fill="#FFF"/>
      <rect width="82.97" height="7.423" x="1.237" y="157.206" fill="#61B5E5"/>
      <rect width="82.97" height="7.423" x="1.237" y="170.402" fill="#61B5E5"/>
      <rect width="82.97" height="7.423" x="1.237" y="183.599" fill="#61B5E5"/>
      <rect width="82.97" height="7.423" x="1.237" y="196.796" fill="#61B5E5"/>
      <rect width="65.403" height="11.465" x="11.959" y="128.173" fill="#61B5E5"/>
      <rect width="79.176" height="56.581" x="1.897" y="211.147" fill="#4AB6D6"/>
      <rect width="66.64" height="2.309" x="8.165" y="220.632" fill="#FFF"/>
      <rect width="54.021" height="2.309" x="20.784" y="226.736" fill="#FFF"/>
      <rect width="66.64" height="2.309" x="8.165" y="232.839" fill="#FFF"/>
      <rect width="66.64" height="2.309" x="8.165" y="245.046" fill="#FFF"/>
      <rect width="50.31" height="2.309" x="24.495" y="251.15" fill="#FFF"/>
      <rect width="66.64" height="2.309" x="8.165" y="257.253" fill="#FFF"/>
      <rect width="48.99" height="2.804" x="111.919" y="12.949" fill="#FFF"/>
      <rect width="48.99" height="2.804" x="111.919" y="21.362" fill="#FFF"/>
      <rect width="48.99" height="2.804" x="111.919" y="29.858" fill="#FFF"/>
      <rect width="48.99" height="2.804" x="111.919" y="38.353" fill="#FFF"/>
      <rect width="48.99" height="2.804" x="111.919" y="55.344" fill="#FFF"/>
    </g>
    <g opacity=".31" transform="translate(15.67 46.188)">
      <rect width="60.207" height="25.816" x="1.732" y="158.525" fill="#46C3F1"/>
      <rect width="60.207" height="25.816" x=".495" y="226.076" fill="#46C3F1"/>
      <rect width="47.918" height="2.722" x="7.258" y="190.445" fill="#4AB6D6"/>
      <rect width="47.918" height="2.722" x="7.258" y="198.693" fill="#4AB6D6"/>
      <rect width="47.918" height="2.722" x="7.258" y="207.023" fill="#4AB6D6"/>
      <rect width="35.629" height="2.722" x="13.361" y="215.271" fill="#4AB6D6"/>
      <rect width="60.207" height="147.473" x="1.072" fill="#9BD0ED"/>
      <rect width="60.207" height="117.946" x="1.072" fill="#9BD0ED"/>
      <rect width="60.207" height="147.473" x="1.072" fill="#9BD0ED"/>
      <rect width="60.207" height="117.946" x="1.072" fill="#4AB6D6"/>
      <rect width="47.918" height="2.722" x="7.258" y="12.042" fill="#D5D5D6"/>
      <rect width="47.918" height="2.722" x="7.258" y="20.29" fill="#D5D5D6"/>
      <rect width="47.918" height="2.722" x="7.258" y="28.62" fill="#D5D5D6"/>
      <rect width="47.918" height="2.722" x="7.258" y="36.868" fill="#D5D5D6"/>
      <rect width="47.918" height="2.722" x="7.258" y="53.447" fill="#D5D5D6"/>
      <rect width="47.918" height="2.722" x="7.258" y="70.025" fill="#D5D5D6"/>
      <rect width="47.918" height="2.722" x="7.258" y="78.273" fill="#D5D5D6"/>
      <rect width="47.918" height="2.722" x="7.258" y="86.603" fill="#D5D5D6"/>
      <rect width="35.629" height="2.722" x="13.361" y="94.851" fill="#D5D5D6"/>
      <rect width="13.526" height="6.103" x="9.65" y="237.128" fill="#46C3F1"/>
    </g>
    <g transform="translate(288.664 215.271)">
      <path fill="#FE9887" d="M93.444617,19.8775377 C93.444617,19.8775377 53.4440528,30.7648198 33.5674838,21.5271259 C13.6084394,12.289432 1.56703241,4.86628517 6.02070348,22.5993582 C6.02070348,22.5993582 0.329901561,35.7960638 2.22683553,48.0854958 C4.12376951,60.4574072 2.63921248,69.6126217 1.81445858,76.2934539 C0.989704682,82.9742861 -3.21654022,88.9128036 8.16506362,93.6966093 C8.16506362,93.6966093 1.73198319,120.419938 6.76298199,129.162755 C6.76298199,129.162755 12.4537839,125.533661 32.5777791,130.977302 C52.7017743,136.420943 122.723381,126.935811 136.249345,118.440432 C149.775308,109.862574 152.826898,112.501915 148.125801,107.965547 C143.342228,103.42918 135.589541,73.3241951 114.393366,72.2519628 L100.949878,44.8687988 C100.949878,44.7863194 91.96006,25.6510964 93.444617,19.8775377 Z"/>
      <path fill="#FF4F72" d="M24.3302401,105.078768 C24.3302401,105.078768 34.0623361,100.789839 47.8357263,106.975794 C61.6091164,113.16175 110.02217,100.459921 110.02217,100.459921 C110.02217,100.459921 142.187573,88.995283 129.898739,84.2114772 C117.527431,79.4276714 100.949878,82.0670126 100.949878,82.0670126 L54.6811837,91.7171035 C54.6811837,91.7171035 21.4436014,81.3246979 19.7940936,92.9542946 L30.021042,95.841074 C30.021042,95.7585946 23.8353878,99.8000856 24.3302401,105.078768 Z"/>
      <path fill="#FF4F72" d="M85.9393565,31.012258 C85.9393565,31.012258 51.1347419,34.0639962 38.0211549,29.9400257 C24.9900432,25.8160552 19.7940936,24.8263023 17.6497335,25.0737405 C15.5053733,25.3211787 13.6084394,63.0142689 15.010521,68.7053482 C15.010521,68.7053482 22.5982569,61.8595572 30.1859928,65.65361 C30.1859928,65.65361 24.0003385,65.1587336 23.0931092,73.2417157 C23.0931092,73.2417157 29.5261897,68.45791 35.6293685,68.7053482 C35.6293685,68.7053482 27.7942065,73.6541128 27.2993541,74.9737833 C26.8045018,76.2934539 35.3819424,74.9737833 35.3819424,74.9737833 L25.8972725,81.9845331 L51.2996927,81.9845331 L48.9903817,84.1289978 C48.9903817,84.1289978 26.639551,81.7370949 18.0621104,86.5209007 C9.48466987,91.3047064 10.7218007,95.7585946 10.7218007,95.7585946 C10.7218007,95.7585946 10.3094238,79.9225479 56.0007899,88.2529683 C101.692156,96.5009092 105.073647,64.4988983 105.073647,64.4988983 C105.073647,64.4988983 84.5372749,37.445652 85.9393565,31.012258 Z"/>
      <path fill="#8B572A" d="M124.042987,136.503423 C124.042987,136.503423 116.2903,136.585902 113.156235,135.926067 C110.104646,135.266232 103.754041,137.080779 102.846812,133.864082 C102.351959,132.132014 102.846812,129.575152 103.506615,127.10077 C104.083942,124.873826 104.66127,122.729361 104.66127,121.49217 C104.66127,118.852829 108.455138,119.430185 108.455138,119.430185 C108.455138,119.430185 116.620202,128.255482 122.228528,129.492673 C122.393479,129.575152 122.640905,129.575152 122.805856,129.657632 C128.249232,130.812344 132.785378,134.523917 124.042987,136.503423 Z"/>
      <path fill="#245575" d="M124.042987,136.503423 C124.042987,136.503423 116.2903,136.585902 113.156235,135.926067 C110.104646,135.266232 103.754041,137.080779 102.846812,133.864082 C102.351959,132.132014 102.846812,129.575152 103.506615,127.10077 C105.321073,128.255482 108.78504,130.482426 110.434547,131.637138 C112.578908,133.204247 122.228528,133.534164 122.888331,129.492673 C128.249232,130.812344 132.785378,134.523917 124.042987,136.503423 Z"/>
      <path fill="#8B572A" d="M139.053508,138.565408 C139.053508,138.565408 131.300821,138.647888 128.166756,137.988052 C125.115167,137.328217 118.764562,139.142764 117.857333,135.926067 C117.36248,134.193999 117.857333,131.637138 118.517136,129.162755 C119.094463,126.935811 119.671791,124.791347 119.671791,123.554156 C119.671791,120.914814 123.465659,121.49217 123.465659,121.49217 C123.465659,121.49217 131.630723,130.317467 137.239049,131.554658 C137.404,131.637138 137.651426,131.637138 137.816377,131.719617 C143.259753,132.956808 147.713424,136.668382 139.053508,138.565408 Z"/>
      <path fill="#2E4962" d="M139.053508,138.565408 C139.053508,138.565408 131.300821,138.647888 128.166756,137.988052 C125.115167,137.328217 118.764562,139.142764 117.857333,135.926067 C117.36248,134.193999 117.857333,131.637138 118.517136,129.162755 C120.331594,130.317467 123.795561,132.544411 125.445068,133.699123 C127.589429,135.266232 137.239049,135.596149 137.898852,131.554658 C143.259753,132.956808 147.713424,136.668382 139.053508,138.565408 Z"/>
      <path fill="#245575" d="M109.527318,68.7878276 C109.527318,68.7878276 129.486363,70.0250188 123.300708,86.3559419 C117.115054,102.604386 112.578908,122.89432 112.578908,122.89432 L104.331369,121.657129 L105.321073,86.6858595 L104.331369,74.8088245 L109.527318,68.7878276 Z"/>
      <path fill="#2E4962" d="M50.0625618,81.4071773 C50.0625618,81.4071773 46.928497,116.460926 90.8878799,89.9850359 C90.8878799,89.9850359 97.9807635,86.4384213 99.3003697,88.0880095 C100.537501,89.6551182 102.269484,108.460424 119.094463,124.956306 L125.857445,122.234485 C125.857445,122.234485 115.135645,92.7893358 114.310891,88.5828859 C113.486137,84.2939566 114.310891,73.901551 109.444843,72.0045246 C104.578795,70.1074982 63.423575,72.0045246 63.423575,72.0045246 L50.0625618,81.4071773 Z"/>
      <path fill="#8B572A" d="M79.0938991,52.1269869 C79.7537023,54.1064927 81.1557839,57.1582309 83.8774718,60.0450102 C89.6507491,65.9835277 97.0735342,66.5608836 99.0529436,66.7258424 L99.0529436,70.3549364 C99.0529436,70.3549364 84.3723241,70.272457 79.918653,66.8083218 C78.5165714,65.65361 71.4236879,61.1997219 72.6608187,56.7458338 C73.568048,53.5291368 78.1041945,52.2919457 79.0938991,52.1269869 Z"/>
      <path fill="#FEFCFD" d="M74.4752773,60.7873249 C75.2175558,61.9420366 80.6609316,72.1694834 80.6609316,72.1694834 C72.4958679,72.9942775 64.0009027,78.0255215 57.8152485,82.4794096 C52.3718727,86.4384213 48.825431,89.9025565 48.825431,89.9025565 C44.4542353,77.4481656 48.7429556,62.2719543 48.7429556,62.2719543 C48.7429556,62.2719543 39.753138,39.0127607 40.5778919,38.4354049 C40.8253181,38.2704461 41.8150228,37.6106108 43.2171044,36.7033373 C45.1965138,35.4661461 48.0006771,33.6515991 50.2275126,32.2494492 C50.5574142,33.0742433 50.6398895,34.228955 50.3924634,35.7135844 C49.3202833,41.9820195 54.5987083,45.2811959 57.9801993,44.6213606 C58.4750516,44.5388812 58.8874286,44.3739224 59.2998055,44.1264841 C60.2895102,43.4666489 60.9493133,42.0644989 61.3616903,40.0849931 C61.7740672,38.2704461 61.939018,36.043502 62.0214934,33.6515991 C62.5163457,33.7340785 63.0111981,33.7340785 63.5885258,33.7340785 C71.7535894,34.0639962 76.1247851,40.7448283 76.1247851,40.7448283 L76.949539,42.9717724 L81.5681608,55.2612044 L74.4752773,60.7873249 Z"/>
      <path fill="#FEFCFD" d="M62.0214934,33.8165579 C62.0214934,36.2084608 61.7740672,38.4354049 61.3616903,40.2499519 C60.9493133,42.2294577 60.2070348,43.6316077 59.2998055,44.291443 C58.8874286,44.5388812 58.4750516,44.70384 57.9801993,44.7863194 C54.5162329,45.4461547 49.3202833,42.1469783 50.3924634,35.8785432 C50.6398895,34.3114344 50.5574142,33.2392021 50.2275126,32.414408 C51.2996927,31.7545727 52.2893973,31.1772168 52.9492005,30.6823404 C53.6090036,30.2699433 54.1038559,30.0225051 54.1038559,30.0225051 C54.1038559,30.0225051 55.176036,33.0742433 62.0214934,33.8165579 Z"/>
      <path fill="#043D68" d="M79.7537023,9.23769388 C79.7537023,9.23769388 79.3413253,10.474885 78.434096,11.9595144 C76.3722113,15.3411702 71.671114,20.2899348 63.5885258,16.1659643 C63.5885258,16.1659643 60.042084,15.2586908 61.2792149,23.4241523 C62.1864442,29.0327522 62.3513949,35.7960638 61.4441657,40.1674725 C61.0317887,42.1469783 60.2895102,43.5491283 59.3822809,44.2089635 C58.969904,44.4564018 58.557527,44.6213606 58.0626747,44.70384 C54.1038559,35.9610226 51.4646434,25.1562199 51.4646434,25.1562199 L55.2585114,7.67058509 L79.7537023,9.23769388 Z"/>
      <path fill="#043D68" d="M76.949539,43.0542518 L76.1247851,40.8273078 C76.1247851,40.8273078 71.7535894,34.1464756 63.5885258,33.8165579 C63.0111981,33.8165579 62.5163457,33.7340785 62.0214934,33.7340785 C62.1039688,30.3524227 61.7740672,26.7233287 61.2792149,23.4241523 C60.042084,15.2586908 63.5885258,16.1659643 63.5885258,16.1659643 C71.671114,20.2899348 76.3722113,15.3411702 78.434096,11.9595144 C79.3413253,10.474885 79.7537023,9.23769388 79.7537023,9.23769388 L55.176036,7.7530645 L51.3821681,25.2386993 C51.3821681,25.2386993 51.9594958,27.4656434 52.8667251,30.6823404 C54.0213805,34.5588726 55.7533637,40.0025137 57.9801993,44.7863194 C54.5162329,45.4461547 49.3202833,42.1469783 50.3924634,35.8785432 C50.6398895,34.3114344 50.5574142,33.2392021 50.2275126,32.414408 C49.0728571,29.2801904 45.2789892,29.5276286 47.1759232,24.4139052 C49.5677095,17.8980319 48.2481032,11.877035 51.9594958,7.42314686 C55.588413,2.96925875 67.0524922,-2.14446465 73.0731957,2.06198524 C78.846473,6.18595572 88.1661921,11.2996791 76.949539,43.0542518 Z"/>
      <path fill="#8B572A" d="M76.7845882,18.3104289 C74.3103265,23.1767141 75.2175558,26.6408493 75.2175558,26.6408493 L72.1659664,26.6408493 C72.1659664,26.6408493 70.5164586,31.5896139 64.6607059,29.7750669 L64.6607059,33.6515991 C64.6607059,33.6515991 71.3412125,42.8068136 62.3513949,40.4973901 C62.0214934,40.4149107 61.6915918,40.3324313 61.3616903,40.1674725 C62.3513949,35.7960638 62.1039688,29.0327522 61.1967395,23.4241523 C59.9596086,15.2586908 63.5060504,16.1659643 63.5060504,16.1659643 C71.5886386,20.2899348 76.2897359,15.3411702 78.3516206,11.9595144 C78.434096,13.1967055 78.2691452,15.4236496 76.7845882,18.3104289 Z"/>
      <path fill="#E0E0E0" d="M57.8152485,82.561889 C52.3718727,86.5209007 48.825431,89.9850359 48.825431,89.9850359 C44.4542353,77.530645 48.7429556,62.3544337 48.7429556,62.3544337 C48.7429556,62.3544337 39.753138,39.0952402 40.5778919,38.5178843 C40.8253181,38.3529255 41.8150228,37.6930902 43.2171044,36.7858167 C46.3511693,38.0230078 51.3821681,42.1469783 56.9904946,54.8488074 C56.9080192,54.8488074 53.8564298,69.3651835 57.8152485,82.561889 Z"/>
      <path fill="#8B572A" d="M52.7017743,56.6633544 C52.7017743,56.6633544 56.9904946,62.6843513 57.4028715,64.4988983 C57.8152485,66.3134453 79.4238007,69.0352658 79.918653,68.9527864 C80.4135054,68.870307 84.8671765,66.4784041 88.7435198,69.8600599 C92.6198631,73.2417157 74.0629003,72.9117981 74.0629003,72.9117981 L54.6811837,72.5818805 C54.6811837,72.5818805 46.5985954,68.45791 44.5367107,61.2822013 C42.5573013,54.1064927 52.7017743,56.6633544 52.7017743,56.6633544 Z"/>
      <path fill="#FEFCFD" d="M40.4954166,38.5178843 C40.4954166,38.5178843 30.9282713,40.7448283 44.0418583,63.426666 L54.6811837,56.9107926 C54.6811837,56.9107926 48.6604802,33.3216815 40.4954166,38.5178843 Z"/>
      <path fill="#E1DEE4" d="M72.6608187,40.9097872 C72.6608187,40.9097872 76.8670636,49.4051664 74.1453757,57.6531073 L74.2278511,59.4676543 L79.5887515,55.4261633 C79.5887515,55.4261633 74.8876542,39.5901166 72.6608187,40.9097872 Z"/>
      <polygon fill="#B4BED0" points="96.744 68.788 72.661 74.149 72.661 75.716 93.445 77.778"/>
      <polygon fill="#E1DEE4" points="96.744 70.272 79.754 74.067 96.166 75.056"/>
      <polygon fill="#B4BED0" points="98.558 52.292 126.517 49.405 120.826 72.829 93.445 77.778"/>
    </g>
    <g transform="translate(0 175.681)">
      <path fill="#007492" d="M64.3308043,237.45822 C64.3308043,237.45822 78.1866699,245.458723 82.8877671,243.891614 C84.9496518,243.231779 83.2176687,241.004835 80.7434069,238.777891 C73.568048,237.293261 68.8669508,234.488962 66.2277383,232.509456 C65.2380336,233.664167 64.3308043,237.45822 64.3308043,237.45822 Z"/>
      <path fill="#80272B" d="M80.6609316,238.777891 C77.5268667,236.05607 73.2381464,233.33425 73.2381464,233.33425 C73.2381464,233.33425 79.0938991,219.147791 79.1763745,218.652915 L71.3412125,215.766136 C71.3412125,215.766136 67.4648691,231.437223 66.3926891,232.344497 C66.3102137,232.426976 66.2277383,232.509456 66.1452629,232.591935 C68.8669508,234.488962 73.4855726,237.210782 80.6609316,238.777891 Z"/>
      <path fill="#007492" d="M0.659803121,209.4977 C0.659803121,209.4977 5.8557527,224.591432 10.3918992,226.570938 C12.4537839,227.395732 12.5362593,224.673912 12.1238824,221.292256 C7.67021128,215.436218 6.02070348,210.240015 5.36090036,207.023318 C3.79386795,207.270756 0.659803121,209.4977 0.659803121,209.4977 Z"/>
      <path fill="#80272B" d="M12.1238824,221.292256 C11.5465546,217.168285 10.144473,212.302 10.144473,212.302 C10.144473,212.302 23.8353878,205.456209 24.2477647,205.126292 L20.288946,197.785624 C20.288946,197.785624 7.01040816,207.023318 5.69080192,207.023318 C5.60832653,207.023318 5.52585114,207.023318 5.36090036,207.023318 C6.02070348,210.240015 7.67021128,215.436218 12.1238824,221.292256 Z"/>
      <path fill="#007492" d="M105.238598,118.357953 C105.238598,118.357953 106.558204,165.701134 81.2382593,220.137544 C81.2382593,220.137544 75.464982,222.446968 69.9391308,218.570435 C64.4957551,214.693903 77.2794406,186.650904 77.2794406,186.650904 C77.2794406,186.650904 81.4032101,151.762114 82.0630132,147.308226 C82.7228163,142.854337 76.5371621,182.444454 24.5776663,206.116045 C24.5776663,206.116045 17.9796351,206.610921 16.4126026,198.44546 C14.7630948,190.362477 50.8873157,180.794866 60.2895102,148.627896 C69.6917047,116.543406 80.9908331,110.687368 80.9908331,110.687368 L105.238598,118.357953 Z"/>
      <path fill="#80272B" d="M52.3718727 123.471676L44.1243337 130.894823C44.1243337 130.894823 39.6706627 139.885079 37.5263025 140.379955 35.299467 140.874832 28.6189604 135.596149 31.6705498 131.224741 34.7221392 126.853332 40.9077935 126.028538 40.9077935 126.028538L50.4749388 118.275473 52.3718727 123.471676zM127.671904 18.3929083C127.671904 18.3929083 127.177052 4.86628517 128.001805 1.97950583 128.826559-.907273506 129.403887 2.14446465 129.403887 2.14446465 129.403887 2.14446465 129.816264 6.51587336 129.816264 8.66033801 131.465772 8.49537919 135.424591 9.81504974 135.424591 9.81504974 136.826672 10.3924056 133.11528 19.8775377 133.11528 19.8775377 133.11528 19.8775377 130.228641 38.2704461 129.981215 39.0127607L123.053282 37.5281314 127.671904 18.3929083z"/>
      <path fill="#58BB85" d="M90.5579784,67.9630335 C90.5579784,67.9630335 103.094238,74.5613863 112.084055,60.7048455 C120.991397,46.8483047 122.475954,36.455899 122.475954,36.455899 L131.13587,38.5178843 C131.13587,38.5178843 126.517248,61.9420366 119.34189,75.303701 C112.166531,88.6653653 108.537613,103.924056 109.692269,108.048027 C110.846924,112.171997 112.496432,120.254979 103.754041,122.316964 C95.0941248,124.37895 69.2793277,120.09002 69.2793277,120.09002 L69.7741801,116.543406 L67.217443,113.079271 C67.217443,113.079271 55.7533637,124.873826 52.6192989,124.461429 C49.4027587,124.049032 47.7532509,118.852829 47.7532509,118.852829 C47.7532509,118.852829 61.1967395,103.594138 63.3410996,99.3052092 C65.4854598,95.0162799 73.4855726,75.2212216 77.2794406,71.5096481 C81.0733085,67.7980747 90.5579784,67.9630335 90.5579784,67.9630335 Z"/>
      <path fill="#80272B" d="M98.0632389,49.9825222 C98.5580912,50.0650016 104.248893,58.395422 95.753928,66.643363 C87.2589628,74.8913039 98.0632389,49.9825222 98.0632389,49.9825222 Z"/>
      <path fill="#FF8300" d="M73.980425,64.1689807 C74.1453757,63.6741042 75.3825066,36.6208579 88.4136182,39.260199 C101.44473,41.8995401 101.774631,50.7248369 98.0632389,60.1274896 C94.3518463,69.5301423 97.8158127,68.1279923 102.929287,74.3139481 C108.042761,80.4999038 105.815926,106.893315 85.5269796,102.274468 C65.2380336,97.5731416 77.4443913,85.3661889 79.5062761,82.561889 C81.6506362,79.7575891 71.0113109,75.8810568 73.980425,64.1689807 Z"/>
    </g>
    <g transform="translate(441.243 244.14)">
      <path fill="#58BB85" d="M23.0931092,69.6126217 C25.0725186,67.05576 20.288946,65.8185689 31.8355006,55.5086427 C43.3820552,45.1987165 45.8563169,57.0757514 42.5573013,30.7648198 C39.2582857,4.45388812 55.8358391,12.2069526 53.7739544,3.54661461 C51.794545,-5.19620281 35.4644178,8.49537919 30.5158944,17.320676 C25.5673709,26.1459728 19.0518151,23.75407 21.6085522,33.0742433 C24.1652893,42.4768959 22.2683553,44.5388812 22.2683553,44.5388812 C22.2683553,44.5388812 22.9281585,28.8677934 13.1960624,25.7335758 C3.54644178,22.5993582 -2.88663865,17.6505937 1.73198319,27.7130816 C6.35060504,37.7755696 8.98981753,45.0337576 7.91763745,48.5803723 C6.84545738,52.0445075 10.0619976,52.3744251 12.2063577,54.4364103 C14.4331933,56.580875 10.7218007,65.1587336 15.2579472,67.7980747 C19.9590444,70.4374158 23.0931092,69.6126217 23.0931092,69.6126217 Z"/>
      <path fill="#DEEDF2" d="M22.2683553,70.4374158 C22.3508307,49.5701252 39.753138,23.0117553 39.753138,23.0117553 C39.753138,23.0117553 23.4230108,38.9302813 21.8559784,62.2719543 L22.2683553,70.4374158 Z"/>
      <path fill="#DEEDF2" d="M22.5157815,72.0045246 C22.4333061,56.0859985 10.5568499,35.7960638 10.5568499,35.7960638 C10.5568499,35.7960638 21.773503,48.0030164 22.7632077,65.8185689 L22.5157815,72.0045246 Z"/>
      <rect width="27.217" height="5.361" x="8.083" y="67.798" fill="#037193"/>
      <polygon fill="#037193" points="30.186 88.088 13.526 88.088 10.887 73.159 32.743 73.159"/>
    </g>
  </g>
</svg>
