<svg xmlns="http://www.w3.org/2000/svg" width="929" height="869" viewBox="0 0 929 869">
  <g fill="none">
    <path fill="#EBF5FF" d="M594.182099,0 C594.182099,0 409.324892,53.9443453 422.214595,276.542276 C435.104298,499.140207 262.508028,535.723154 161.905467,585.327149 C65.0755008,633.070995 -15.4065486,701.586514 2.51328274,869 L929,869 L929,0 L594.182099,0 Z"/>
    <g transform="translate(94 121)">
      <path fill="#FFBDA1" d="M186.049996,432.767039 L194.546942,424.376568 L195.805749,413.189274 C195.805749,412.257 196.120451,411.324725 197.064556,411.013967 L197.693959,411.013967 C198.638065,411.013967 199.58217,411.635483 199.896871,412.878516 L201.155678,436.496137 C201.155678,438.049928 200.211573,439.292961 198.638065,439.292961 L187.308803,441.15751 L186.049996,432.767039 Z"/>
      <g transform="translate(615.618 201.558)">
        <path fill="#00C0CD" d="M11.0145596,124.308231 C20.140909,114.674728 15.7350852,104.419708 14.1615767,101.001368 C14.1615767,101.001368 14.1615767,101.001368 14.1615767,101.001368 C13.846875,100.379852 13.5321733,100.069094 13.5321733,100.069094 C11.0145596,94.7862046 9.44105111,88.8817993 9.44105111,82.6666357 C9.44105111,72.1008577 13.846875,62.4673542 20.7703124,55.6306744 C27.0643465,47.2402036 22.343821,36.0529092 22.343821,36.0529092 C21.3997159,33.2560856 20.7703124,30.1485039 20.7703124,27.0409221 C20.7703124,12.1245296 33.0436789,0.00496070386 48.1493607,0.00496070386 C63.2550425,0.00496070386 75.5284089,12.1245296 75.5284089,27.0409221 C75.5284089,30.1485039 74.8990055,33.2560856 73.9549004,36.0529092 C73.9549004,36.0529092 69.2343748,47.2402036 75.5284089,55.6306744 C82.4518464,62.4673542 86.8576702,72.1008577 86.8576702,82.6666357 C86.8576702,88.8817993 85.2841617,94.7862046 82.7665481,100.069094 C82.7665481,100.069094 82.7665481,100.069094 82.7665481,100.379852 C82.4518464,100.69061 82.4518464,101.312126 82.1371447,101.622885 C80.5636362,105.041224 77.1019174,114.36397 84.6547583,123.375957 C84.96946,123.686715 84.96946,123.997473 85.2841617,124.308231 C85.2841617,124.308231 85.2841617,124.308231 85.5988634,124.61899 C92.2075992,132.698702 95.9840196,142.953722 95.9840196,154.141016 C95.9840196,180.244703 74.5843038,201.376259 48.1493607,201.376259 C21.7144176,201.376259 0.314701704,180.244703 0.314701704,154.141016 C0.314701704,142.642964 4.40582385,132.387944 11.0145596,124.308231 Z"/>
        <path fill="#009DB0" d="M33.987784,144.507513 L45.631747,156.005565 L45.631747,115.917761 L31.1554687,101.933643 C30.5260653,101.312126 30.5260653,100.069094 31.1554687,99.1368191 C31.7848721,98.5153028 33.0436789,98.5153028 33.987784,99.1368191 L45.631747,110.634872 L45.631747,55.3199162 C45.631747,54.3876416 46.5758522,53.4553671 47.5199573,53.4553671 C48.4640624,53.4553671 49.4081675,54.3876416 49.4081675,55.3199162 L49.4081675,88.5710411 L60.7374288,77.3837467 C61.3668322,76.7622304 62.625639,76.7622304 63.5697442,77.3837467 C64.1991476,78.0052631 64.1991476,79.2482958 63.5697442,80.1805703 L49.4081675,93.8539301 L49.4081675,134.252493 L61.9962356,121.822166 C62.625639,121.20065 63.8844459,121.20065 64.828551,121.822166 C65.4579544,122.443682 65.4579544,123.686715 64.828551,124.61899 L49.7228692,139.84614 L49.7228692,246.746953 C49.7228692,247.679228 48.7787641,248.611502 47.834659,248.611502 C46.8905539,248.611502 45.9464487,247.679228 45.9464487,246.746953 L45.9464487,161.599213 L31.4701704,147.615095 C30.840767,146.993578 30.840767,145.750546 31.4701704,144.818271 C32.0995738,143.885997 33.3583806,143.885997 33.987784,144.507513 Z"/>
      </g>
      <path fill="#CADFEF" d="M657.78785,571.054428 L43.1754229,571.054428 C42.2313178,571.054428 41.6019144,570.432912 41.6019144,569.500637 C41.6019144,568.568362 42.2313178,567.946846 43.1754229,567.946846 L658.102552,567.946846 C659.046657,567.946846 659.676061,568.568362 659.676061,569.500637 C659.361359,570.432912 658.731955,571.054428 657.78785,571.054428 Z"/>
      <g transform="translate(209.322 27.968)">
        <path fill="#214A81" d="M256.812813,0.813173379 L37.4657252,0.813173379 C16.6954127,0.813173379 0.0162224309,17.2833568 0.0162224309,37.7933964 L0.0162224309,502.998387 C0.0162224309,523.508427 16.6954127,539.97861 37.4657252,539.97861 L256.812813,539.97861 C277.583125,539.97861 294.262315,523.508427 294.262315,502.998387 L294.262315,37.7933964 C294.262315,17.5941149 277.268423,0.813173379 256.812813,0.813173379 Z"/>
        <path fill="#FFF" d="M140.058481,519.468571 C127.470412,519.468571 117.399958,509.524309 117.399958,497.093982 C117.399958,484.663655 127.470412,474.719393 140.058481,474.719393 C152.646549,474.719393 162.717003,484.663655 162.717003,497.093982 C162.717003,509.524309 152.646549,519.468571 140.058481,519.468571 Z"/>
        <g fill="#84B4FE" transform="translate(105.854 21.318)">
          <path d="M68.1921369.937235234L15.9516541.937235234C14.6928473.937235234 13.4340405 1.86950976 13.4340405 3.42330065 13.4340405 4.66633336 14.3781456 5.90936606 15.9516541 5.90936606L68.1921369 5.90936606C69.4509437 5.90936606 70.7097506 4.97709153 70.7097506 3.42330065 70.7097506 2.18026794 69.4509437.937235234 68.1921369.937235234zM3.99298936 6.84164059C3.04888425 6.84164059 2.41948084 6.53088242 1.79007743 5.90936606 1.79007743 5.59860789 1.47537573 5.59860789 1.47537573 5.28784971 1.47537573 4.97709153 1.16067403 4.97709153 1.16067403 4.66633336 1.16067403 4.35557518 1.16067403 4.35557518.845972322 4.044817.845972322 3.73405883.845972322 3.73405883.845972322 3.42330065.845972322 3.11254247.845972322 3.11254247.845972322 2.8017843.845972322 2.49102612.845972322 2.49102612 1.16067403 2.18026794 1.16067403 1.86950976 1.47537573 1.86950976 1.47537573 1.55875159 1.47537573 1.24799341 1.79007743 1.24799341 1.79007743.937235234 1.79007743.937235234 2.10477914.626477058 2.41948084.626477058 2.73418254.626477058 2.73418254.315718881 3.04888425.315718881 3.36358595.315718881 3.36358595.315718881 3.67828766.00496070386 3.99298936.00496070386 4.62239277.00496070386 4.93709447.00496070386 5.25179617.00496070386 5.25179617.00496070386 5.56649788.315718881 5.88119958.315718881 5.88119958.626477058 6.19590129.626477058 6.51060299.626477058 6.51060299.937235234 6.82530469.937235234 6.82530469.937235234 7.1400064 1.24799341 7.1400064 1.55875159 7.1400064 1.86950976 7.4547081 1.86950976 7.4547081 2.18026794 7.4547081 2.49102612 7.4547081 2.49102612 7.7694098 2.8017843 7.7694098 3.11254247 7.7694098 3.11254247 7.7694098 3.42330065 7.7694098 3.73405883 7.7694098 3.73405883 7.7694098 4.044817 7.7694098 4.35557518 7.7694098 4.35557518 7.4547081 4.66633336 7.4547081 4.97709153 7.1400064 4.97709153 7.1400064 5.28784971 7.1400064 5.59860789 6.82530469 5.59860789 6.82530469 5.90936606 6.51060299 5.90936606 6.51060299 6.22012424 6.19590129 6.22012424 5.88119958 6.22012424 5.88119958 6.53088242 5.56649788 6.53088242 5.25179617 6.53088242 5.25179617 6.53088242 4.93709447 6.84164059 4.62239277 6.84164059 4.30769106 6.84164059 3.99298936 6.84164059z"/>
        </g>
        <rect width="247.356" height="405.85" x="21.731" y="48.359" fill="#FFF"/>
        <rect width="247.356" height="41.331" x="21.731" y="48.359" fill="#84B4FE"/>
        <g transform="translate(39.01 62.027)">
          <path fill="#387FFD" d="M14.5053894,7.1534031 C14.5053894,11.1932594 11.3583723,14.3008412 7.2672502,14.3008412 C3.17612805,14.3008412 0.0291110144,11.1932594 0.0291110144,7.1534031 C0.0291110144,3.1135468 3.17612805,0.00596503117 7.2672502,0.00596503117 C11.3583723,0.00596503117 14.5053894,3.1135468 14.5053894,7.1534031 Z"/>
          <path fill="#FFD474" d="M37.7933155,7.1534031 C37.7933155,11.1932594 34.6462984,14.3008412 30.5551763,14.3008412 C26.4640541,14.3008412 23.3170371,11.1932594 23.3170371,7.1534031 C23.3170371,3.1135468 26.4640541,0.00596503117 30.5551763,0.00596503117 C34.6462984,0.00596503117 37.7933155,3.1135468 37.7933155,7.1534031 Z"/>
          <path fill="#387FFD" d="M61.0812415,7.1534031 C61.0812415,11.1932594 57.9342245,14.3008412 53.8431024,14.3008412 C49.7519802,14.3008412 46.6049632,11.1932594 46.6049632,7.1534031 C46.6049632,3.1135468 49.7519802,0.00596503117 53.8431024,0.00596503117 C57.9342245,0.00596503117 61.0812415,3.1135468 61.0812415,7.1534031 Z"/>
        </g>
      </g>
      <path fill="#84B4FE" d="M404.138277,461.356791 L205.876204,461.356791 C199.267468,461.356791 194.232241,456.073902 194.232241,449.858739 L194.232241,401.380463 C194.232241,394.854542 199.58217,389.882411 205.876204,389.882411 L404.138277,389.882411 C410.747013,389.882411 415.78224,395.1653 415.78224,401.380463 L415.78224,449.858739 C415.78224,456.073902 410.432311,461.356791 404.138277,461.356791 Z"/>
      <path fill="#FFBDA1" d="M183.847084,454.520112 L192.34403,446.129641 L193.602837,434.942346 C193.602837,434.010072 193.917539,433.077797 194.861644,432.767039 L195.491047,432.767039 C196.435153,432.767039 197.379258,433.388556 197.693959,434.631588 L198.952766,458.24921 C198.952766,459.803001 198.008661,461.046033 196.435153,461.046033 L185.105891,462.910582 L183.847084,454.520112 Z"/>
      <g transform="translate(0 397.77)">
        <g transform="translate(140.418 158.487)">
          <path fill="#FFBDA1" d="M0.629403407,22.2554876 C0.944105111,21.323213 7.23813919,0.191657025 7.23813919,0.191657025 L18.5674005,0.813173379 L12.2733664,22.8770039 L0.629403407,22.2554876 Z"/>
          <path fill="#1E1A1E" d="M32.4142755,28.4706511 L0.314701704,27.2276184 L0.629403407,17.5941149 L22.6585227,18.5263895 C28.3231533,18.5263895 32.7289772,23.1877621 32.4142755,28.4706511 Z"/>
        </g>
        <path fill="#FFBDA1" d="M5.09651672,165.825765 C6.04062183,165.515007 27.125636,158.989085 27.125636,158.989085 L33.1049684,168.622589 L11.0758491,175.770027 L5.09651672,165.825765 Z"/>
        <path fill="#03345F" d="M98.5629227,81.9210575 L170.000209,90.0007701 L171.259016,90.0007701 C177.238349,90.6222865 181.644173,96.2159337 181.014769,102.120339 C181.014769,102.741855 180.700067,103.67413 180.385366,104.295646 L162.132667,161.785909 L142.935863,160.542876 L158.356246,98.0804827 L169.056104,112.375359 L96.9894142,108.646261 L98.5629227,81.9210575 Z"/>
        <path fill="#03345F" d="M111.150991,101.498823 L83.457241,155.259987 L82.5131358,156.813778 C81.254329,159.299844 79.0514171,160.853634 76.5338035,161.475151 L27.7550394,174.216236 L22.4051104,157.746053 L69.610366,140.032837 L62.6869285,146.248 L81.254329,88.1362211 L111.150991,101.498823 Z"/>
        <path fill="#1E1A1E" d="M8.24353376,164.271974 L14.5375678,177.323818 L14.5375678,184.160498 C14.5375678,184.160498 20.8316019,185.40353 22.4051104,189.443387 L7.61413035,189.443387 L0.0612894585,166.136523 L8.24353376,164.271974 Z"/>
        <path fill="#F7C869" d="M150.803406,57.9926779 C150.803406,57.9926779 150.488704,57.9926779 150.488704,57.9926779 L112.724499,56.438887 L113.353903,40.59022 L149.8593,42.1440109 L188.56761,30.3352002 L190.141119,45.2515927 L153.950423,57.6819197 C152.691616,57.9926779 151.747511,57.9926779 150.803406,57.9926779 Z"/>
        <path fill="#FFD474" d="M112.095096,35.9288474 L110.836289,34.9965728 L107.689272,37.4826382 C101.70994,42.1440109 96.9894142,48.3591744 94.4718006,55.5066125 L91.6394852,62.0325342 L75.9044001,95.9051755 L108.948079,99.3235154 L121.536147,80.0565085 C130.662497,64.8293578 126.571374,45.873109 112.095096,35.9288474 Z"/>
        <g transform="translate(100.705)">
          <polygon fill="#FFBDA1" points="12.964 30.024 8.873 37.793 17.37 45.873 23.035 30.335"/>
          <path fill="#FFBDA1" d="M36.5666871,16.6618404 L33.1049684,14.7972913 L30.9020564,19.1479058 L34.3637752,20.0801803 L36.8813888,18.8371476 C37.5107922,18.8371476 37.5107922,17.2833568 36.5666871,16.6618404 Z"/>
          <path fill="#FFBDA1" d="M30.1132308,19.662144 C27.5956171,27.7418566 19.0986711,32.0924711 10.9164268,29.6064057 C2.73418254,27.1203403 -1.67164131,18.7298695 0.845972322,10.6501569 C3.36358595,2.5704443 11.860532,-1.78017017 20.0427763,0.70589524 C28.2250205,3.19196066 32.6308444,11.8931896 30.1132308,19.662144 Z" transform="translate(3.621 4.147)"/>
          <polygon fill="#072042" points="25.552 .813 5.411 35.618 .061 9.514"/>
          <path fill="#FFBDA1" d="M16.7404798,20.0801803 C16.1110763,22.2554876 13.5934627,23.4985203 11.3905508,22.8770039 C9.18763887,22.2554876 7.92883205,19.7694222 8.55823546,17.5941149 C9.18763887,15.4188077 11.7052525,14.175775 13.9081644,14.7972913 C16.1110763,15.4188077 17.3698832,17.9048731 16.7404798,20.0801803 Z"/>
        </g>
        <path fill="#FFD474" d="M145.768178,79.7457503 C144.509371,79.7457503 143.250565,79.4349921 141.991758,78.8134758 L100.136431,56.1281289 L108.003974,42.1440109 L147.341687,63.2755669 L186.994101,51.155998 L189.826417,67.004665 L147.341687,79.4349921 C146.712283,79.7457503 146.397582,79.7457503 145.768178,79.7457503 Z"/>
      </g>
      <g fill="#EBF5FF" transform="translate(216.862 403.986)">
        <g transform="translate(57.053 8.888)">
          <path d="M114.802967 6.53088242L3.39856432 6.53088242C1.5103541 6.53088242.25154728 5.28784971.25154728 3.42330065L.25154728 3.11254247C.25154728 1.24799341 1.5103541.00496070386 3.39856432.00496070386L114.802967.00496070386C116.691178.00496070386 117.949984 1.24799341 117.949984 3.11254247L117.949984 3.42330065C118.264686 5.28784971 116.691178 6.53088242 114.802967 6.53088242zM66.9683085 22.0687913L3.39856432 22.0687913C1.5103541 22.0687913.25154728 20.8257586.25154728 18.9612095L.25154728 18.6504513C.25154728 16.7859023 1.5103541 15.5428695 3.39856432 15.5428695L66.9683085 15.5428695C68.8565187 15.5428695 70.1153255 16.7859023 70.1153255 18.6504513L70.1153255 18.9612095C70.1153255 20.5150004 68.8565187 22.0687913 66.9683085 22.0687913z"/>
        </g>
        <ellipse cx="21.114" cy="21.323" rx="21.085" ry="20.821"/>
      </g>
      <path fill="#EBF5FF" d="M453.861146,223.00527 L255.599073,223.00527 C248.990337,223.00527 243.95511,217.722381 243.95511,211.507217 L243.95511,163.028942 C243.95511,156.50302 249.305039,151.530889 255.599073,151.530889 L453.861146,151.530889 C460.469882,151.530889 465.505109,156.813778 465.505109,163.028942 L465.505109,211.507217 C465.819811,217.722381 460.469882,223.00527 453.861146,223.00527 Z"/>
      <g fill="#FFF" transform="translate(266.299 166.447)">
        <g transform="translate(57.844 7.577)">
          <path d="M114.61271 7.33909509L3.2083065 7.33909509C1.32009627 7.33909509.0612894585 6.09606239.0612894585 4.23151332L.0612894585 3.92075515C.0612894585 2.05620609 1.32009627.813173379 3.2083065.813173379L114.61271.813173379C116.50092.813173379 117.759727 2.05620609 117.759727 3.92075515L117.759727 4.23151332C117.759727 5.78530421 116.50092 7.33909509 114.61271 7.33909509zM66.7780507 22.5662458L3.2083065 22.5662458C1.32009627 22.5662458.0612894585 21.323213.0612894585 19.458664L.0612894585 19.1479058C.0612894585 17.2833568 1.32009627 16.040324 3.2083065 16.040324L66.7780507 16.040324C68.6662609 16.040324 69.9250677 17.2833568 69.9250677 19.1479058L69.9250677 19.458664C69.9250677 21.0124549 68.6662609 22.5662458 66.7780507 22.5662458z"/>
        </g>
        <ellipse cx="21.714" cy="20.821" rx="21.085" ry="20.821"/>
      </g>
      <path fill="#84B4FE" d="M452.602339,337.675037 L254.340266,337.675037 C247.73153,337.675037 242.696303,332.392148 242.696303,326.176985 L242.696303,277.698709 C242.696303,271.172787 248.046232,266.200656 254.340266,266.200656 L452.602339,266.200656 C459.211075,266.200656 464.246302,271.483545 464.246302,277.698709 L464.246302,326.176985 C464.561004,332.702906 459.211075,337.675037 452.602339,337.675037 Z"/>
      <g fill="#EBF5FF" transform="translate(264.824 281.044)">
        <g transform="translate(58.122 7.96)">
          <path d="M114.55142 7.02833692L3.14701704 7.02833692C1.25880681 7.02833692 0 5.78530421 0 3.92075515L0 3.60999697C0 1.74544791 1.25880681.502415202 3.14701704.502415202L114.55142.502415202C116.43963.502415202 117.698437 1.74544791 117.698437 3.60999697L117.698437 3.92075515C117.698437 5.78530421 116.43963 7.02833692 114.55142 7.02833692zM66.7167612 22.2554876L3.14701704 22.2554876C1.25880681 22.2554876 0 21.0124549 0 19.1479058L0 18.8371476C0 16.9725986 1.25880681 15.7295659 3.14701704 15.7295659L66.7167612 15.7295659C68.6049714 15.7295659 69.8637782 16.9725986 69.8637782 18.8371476L69.8637782 19.1479058C69.8637782 21.0124549 68.2902697 22.2554876 66.7167612 22.2554876z"/>
        </g>
        <ellipse cx="21.931" cy="20.893" rx="21.085" ry="20.821"/>
      </g>
      <path fill="#CADFEF" d="M684.222793,452.034046 L623.800066,452.034046 C622.855961,452.034046 621.911856,451.101772 621.911856,450.169497 C621.911856,449.237223 622.855961,448.304948 623.800066,448.304948 L684.222793,448.304948 C685.166899,448.304948 686.111004,449.237223 686.111004,450.169497 C685.796302,451.101772 685.166899,452.034046 684.222793,452.034046 Z"/>
      <g transform="translate(422.174 310.758)">
        <path fill="#FFBDA1" d="M154.735105 162.718184C150.329282 161.475151 146.238159 164.271974 145.294054 168.622589 144.349949 173.283962 147.182265 177.634576 151.273387 178.877609 155.679211 180.120641 159.770333 177.323818 160.714438 172.973203 161.658543 168.622589 158.826228 163.961216 154.735105 162.718184zM9.97232173.813173379C15.007549.813173379 19.0986711 5.16378785 19.0986711 10.1359187 19.0986711 15.1080495 15.007549 19.1479058 9.97232173 19.1479058 4.93709447 19.1479058.845972322 14.7972913.845972322 9.82516051.845972322 4.85302968 4.93709447.813173379 9.97232173.813173379z"/>
        <g transform="translate(54.644 35.223)">
          <polygon fill="#FAAAAB" points="18.898 262.675 30.857 262.364 30.542 241.854 18.584 242.476"/>
          <path fill="#241C2B" d="M0.0162224309,270.443993 L31.1716911,270.133235 L30.8569894,258.635182 L11.9748872,258.94594 C5.36615139,258.635182 -0.298479273,262.985796 0.0162224309,270.443993 Z"/>
          <polygon fill="#FAAAAB" points="71.454 262.675 59.495 262.364 57.292 241.854 69.251 242.476"/>
          <path fill="#241C2B" d="M90.6503131,270.443993 L60.7536513,270.133235 L59.4948444,258.635182 L78.6916484,258.94594 C85.3003841,258.635182 90.6503131,262.985796 90.6503131,270.443993 Z"/>
          <g fill="#03345F" transform="translate(9.441 101.51)">
            <polygon points="8.828 2.367 29.283 1.745 31.486 1.435 51.942 .813 51.942 30.335 10.401 31.889"/>
            <path d="M46.2773729 149.977098L64.8447734 149.977098 55.0890206 73.8413449 51.9420035.813173379 32.1157962 3.92075515 34.6334098 74.4628613C34.6334098 75.3951358 34.6334098 76.0166522 34.9481115 76.9489267L46.2773729 149.977098zM5.36615139 149.355582L22.9894468 149.355582 20.4718332 76.9489267 30.227586 4.5422715 8.51316843 2.36696426.0162224309 75.705894C.0162224309 76.3274103.0162224309 77.2596849.0162224309 77.8812012L5.36615139 149.355582z"/>
          </g>
          <g transform="translate(16.066)">
            <rect width="11.959" height="15.849" x="17.938" y="29.296" fill="#FFBDA1"/>
            <g transform="translate(3.147)">
              <path fill="#FFBDA1" d="M8.8116477 19.662144C8.8116477 21.8374513 6.92343748 23.7020003 4.72052556 23.7020003 2.51761363 23.7020003.629403407 21.8374513.629403407 19.662144.629403407 17.4868368 2.51761363 15.6222877 4.72052556 15.6222877 6.92343748 15.6222877 8.8116477 17.4868368 8.8116477 19.662144zM40.9112215 19.662144C40.9112215 21.8374513 39.0230113 23.7020003 36.8200993 23.7020003 34.6171874 23.7020003 32.7289772 21.8374513 32.7289772 19.662144 32.7289772 17.4868368 34.6171874 15.6222877 36.8200993 15.6222877 39.0230113 15.6222877 40.9112215 17.4868368 40.9112215 19.662144z"/>
              <ellipse cx="20.77" cy="16.244" fill="#072042" rx="16.364" ry="16.159"/>
            </g>
            <path fill="#FFD474" d="M45.3170453,105.742159 L1.88821022,105.742159 L0.314701704,55.3993344 C0.314701704,47.0088636 5.66463067,40.1721837 13.5321733,40.1721837 L33.6730823,40.1721837 C41.8553266,40.1721837 46.8905539,47.0088636 46.8905539,55.3993344 L45.3170453,105.742159 Z"/>
          </g>
          <path fill="#FFD474" d="M88.4474012,131.845846 L72.0829126,88.9612175 L43.7597593,51.0487199 L58.865441,44.21204 L84.0415773,79.327714 C84.9856824,80.2599885 85.6150858,81.5030212 85.9297876,82.7460539 L102.92368,127.495231 L88.4474012,131.845846 Z"/>
        </g>
        <path fill="#FFD474" d="M73.2273642,93.7298683 L40.498387,60.4787433 C40.498387,60.1679852 40.1836853,60.1679852 40.1836853,59.857227 L8.08411151,21.6339712 L21.6162848,10.4466769 L53.4011568,48.3591744 L85.8154323,81.6102994 L73.2273642,93.7298683 Z"/>
      </g>
      <g fill="#FFF" transform="translate(518.06)">
        <path d="M82.4518464 24.741553L.629403407 24.741553C.629403407 24.741553 6.60873578.502415202 27.6937499.502415202 43.4288351.502415202 51.6110794 10.4466769 54.7580965 15.4188077 61.0521305 12.9327423 74.2696021 9.82516051 82.4518464 24.741553M106.369176 121.698104C110.460298 121.698104 114.236718 122.630379 117.383735 124.494928 123.67777 113.618392 135.321733 106.470954 148.539204 106.470954 160.812571 106.470954 171.82713 112.686117 178.435866 122.319621 181.897585 110.821568 192.597443 102.431097 204.870809 102.431097 219.032386 102.431097 230.991051 113.307633 232.564559 127.291751 233.823366 126.980993 234.767471 126.980993 236.026278 126.980993 244.837926 126.980993 252.390766 131.953124 256.167187 139.100562L84.6547583 139.100562C86.8576702 129.1563 95.6693179 121.698104 106.369176 121.698104z"/>
      </g>
    </g>
  </g>
</svg>
