<svg xmlns="http://www.w3.org/2000/svg" width="554" height="439" viewBox="0 0 554 439">
  <g fill="none" fill-rule="evenodd" transform="translate(.8)">
    <path fill="#EBF5FF" fill-rule="nonzero" d="M368.028125,0.48328999 C346.791361,0.48328999 327.071509,5.81247155 310.764708,14.795949 C298.376596,21.6477539 284.597982,23.6271642 271.198595,20.1251306 C178.161344,-4.08457992 75.0113491,50.8821213 75.0113491,136.149026 C75.0113491,147.720963 77.033898,158.836113 80.6997679,169.494477 C50.4879433,184.416185 29.6304075,215.782225 29.6304075,252.02066 C29.6304075,302.724016 70.5870233,343.987107 121.024337,343.987107 C169.691921,343.987107 209.384443,305.769262 212.291857,257.654366 C216.589774,257.958891 221.0141,258.111153 225.438426,258.111153 C284.8508,258.111153 336.04657,230.247146 360.569976,189.745367 C369.292218,175.280445 382.438786,165.231131 397.102266,161.729098 C439.070156,151.679784 469.787618,120.009219 469.787618,82.7049483 C469.787618,37.3307739 424.153858,0.48328999 368.028125,0.48328999 Z"/>
    <path stroke="#C0A0FA" stroke-width="1.459" d="M0.0506294757,333.785531 L114.071825,333.785531"/>
    <path stroke="#FAA0A8" stroke-width="1.653" d="M548.161389,308.814509 L461.444603,308.814509"/>
    <g transform="translate(379.026 8.096)">
      <path fill="#FFE2E1" fill-rule="nonzero" d="M108.079958,76.4356898 C108.079958,61.3617191 102.644358,45.6786991 94.0485251,40.1972552 C87.7280597,36.2384346 82.2924595,30.3002037 79.1322268,22.6870872 C73.1909893,8.83121516 65.7328401,0.456786991 57.6426444,0.456786991 C42.9791647,0.456786991 30.4646432,27.4072195 25.5346802,65.3205397 C24.2705871,75.2175912 20.4783079,84.353331 14.4106611,91.0528735 C5.81482816,100.493138 0.252818616,115.719371 0.252818616,132.925014 C0.252818616,158.200561 12.7673401,180.583124 29.7061874,184.23742 C35.7738341,185.607781 41.2094344,189.262077 45.7601695,194.134471 C49.4260394,198.093292 53.4711373,200.377227 57.6426444,200.377227 C72.8117614,200.377227 85.7055108,171.599646 90.1298365,131.706916 C91.141111,122.723438 94.427753,114.34901 99.4841253,107.497205 C104.666907,100.6454 108.079958,89.2257255 108.079958,76.4356898 Z"/>
      <path stroke="#FFB4BB" stroke-width="1.653" d="M55.1144583,61.6662438 L55.1144583,265.393242"/>
      <polyline stroke="#FFB4BB" stroke-width="1.653" points="25.029 138.559 55.114 184.846 72.053 161.703"/>
      <polyline stroke="#FFB4BB" stroke-width="1.653" points="82.419 80.851 55.114 117.699 44.875 108.259"/>
    </g>
    <g transform="translate(454.871 92.93)">
      <path fill="#FFB4BB" fill-rule="nonzero" d="M90.1298365,69.8651019 C88.4865155,68.7992656 86.7167852,68.3424786 84.8206456,68.3424786 C78.5001802,68.3424786 73.1909893,62.7087724 72.8117614,55.0956559 C71.421259,25.2522391 62.1933795,0.128954649 49.9316766,0.128954649 C40.9566158,0.128954649 33.1192387,14.137089 29.3269594,34.387979 C27.9364571,41.5443085 22.2480382,46.2644407 16.1803914,45.0463421 C12.2617029,44.2850304 8.84865155,44.8940798 6.19405609,47.1780147 C-8.09019571,59.2067388 6.82610263,107.017111 31.7287363,134.881117 C34.6361504,138.078626 36.0266528,142.798758 35.3946062,147.366628 C33.1192387,163.506435 35.2681969,176.296471 42.0942995,180.559816 C53.3447279,187.716146 73.3173986,168.683354 86.5903759,138.078626 C99.8633533,107.62616 101.506674,77.0214314 90.1298365,69.8651019 Z"/>
      <path stroke="#FAA0A8" stroke-width="1.653" d="M50.0580859 67.4289046L50.0580859 214.971103M77.2360871 107.62616L50.0580859 160.917975M20.2254893 70.7786759L50.0580859 125.28859"/>
    </g>
    <g transform="translate(79.436 77.704)">
      <path fill="#EFE1FF" fill-rule="nonzero" d="M0.379227924,72.4535615 C0.379227924,58.1409025 5.56200955,43.2191941 13.6522053,38.0422749 C19.5934427,34.2357166 24.7762244,28.6020104 27.8100477,21.2934186 C33.3720573,8.04659582 40.4509785,0.128954649 48.2883556,0.128954649 C62.1933795,0.128954649 74.0758544,25.7090261 78.7529988,61.6429361 C80.0170919,70.9309382 83.5565525,79.7621534 89.3713807,86.1571713 C97.4615764,95.1406487 102.770767,109.60557 102.770767,125.897639 C102.770767,149.955088 90.8882924,171.119552 74.8343103,174.621585 C69.1458914,175.839684 63.9631098,179.341717 59.6651933,184.06185 C56.1257327,187.868408 52.3334535,190.000081 48.4147649,190.000081 C34.0041038,190.000081 21.8688103,162.592861 17.5708938,124.831803 C16.5596193,116.305113 13.5257959,108.235209 8.72224225,101.840191 C3.53946062,95.2929111 0.379227924,84.634548 0.379227924,72.4535615 Z"/>
      <path stroke="#CEB4FF" stroke-width="1.57" d="M50.6901325,58.4454271 L50.6901325,251.666324"/>
      <polyline stroke="#CEB4FF" stroke-width="1.57" points="79.132 131.379 50.69 175.231 34.636 153.305"/>
      <polyline stroke="#CEB4FF" stroke-width="1.57" points="24.776 76.717 50.69 111.585 60.297 102.602"/>
    </g>
    <g transform="translate(4.346 144.476)">
      <path fill="#CEB4FF" fill-rule="nonzero" d="M79.0084952,61.409182 C77.6179928,60.495608 76.1010811,60.038821 74.3313508,60.038821 C68.7693412,60.038821 64.0921968,55.0141641 63.7129689,48.4668839 C62.4488758,22.1255008 54.3586801,0.0474628879 43.4874796,0.0474628879 C35.5236932,0.0474628879 28.6975906,12.3807116 25.2845393,30.3476666 C24.1468555,36.5904222 18.9640739,40.8537674 13.654883,39.7879311 C10.2418316,39.1788818 7.20800825,39.6356688 4.93264071,41.6150791 C-7.70829009,52.2734422 5.43827794,94.4501077 27.4334975,118.964343 C29.9616837,121.857327 31.2257768,125.96841 30.7201395,130.079493 C28.6975906,144.392152 30.5937302,155.659564 36.661377,159.31386 C46.6477123,165.556616 64.2186061,148.80776 75.9746718,121.705065 C87.6043281,94.60237 88.9948305,67.6519375 79.0084952,61.409182 Z"/>
      <path stroke="#C0A0FA" stroke-width="1.459" d="M43.6138889 59.2775094L43.6138889 189.309539M67.6316574 94.7546323L43.6138889 141.803692M17.3207529 62.1704936L43.6138889 110.28539"/>
    </g>
    <g fill-rule="nonzero" transform="translate(65.195 70)">
      <g transform="translate(246.028 103.062)">
        <path fill="#E3E1FF" d="M159.068749,0 L5.54642387,0 C2.51388412,0 0.113123488,2.90392416 0.113123488,6.57203889 L0.113123488,224.824865 C0.113123488,228.49298 2.51388412,231.396904 5.54642387,231.396904 L159.068749,231.396904 C162.101288,231.396904 164.502049,228.49298 164.502049,224.824865 L164.502049,6.57203889 C164.502049,2.90392416 162.101288,0 159.068749,0 Z"/>
        <rect width="132.295" height="181.725" x="15.908" y="29.498" fill="#FFF"/>
        <path fill="#B4B7FF" d="M24.2470856 18.799088L17.6765829 18.799088C16.9184479 18.799088 16.2866688 18.0348974 16.2866688 17.1178687L16.2866688 12.074211C16.2866688 11.1571823 16.9184479 10.3929917 17.6765829 10.3929917L24.2470856 10.3929917C25.0052206 10.3929917 25.6369997 11.1571823 25.6369997 12.074211L25.6369997 17.1178687C25.6369997 18.0348974 25.0052206 18.799088 24.2470856 18.799088zM37.8935145 18.799088L31.3230117 18.799088C30.5648768 18.799088 29.9330977 18.0348974 29.9330977 17.1178687L29.9330977 12.074211C29.9330977 11.1571823 30.5648768 10.3929917 31.3230117 10.3929917L37.8935145 10.3929917C38.6516494 10.3929917 39.2834286 11.1571823 39.2834286 12.074211L39.2834286 17.1178687C39.2834286 18.0348974 38.6516494 18.799088 37.8935145 18.799088zM51.5399434 18.799088L44.9694406 18.799088C44.2113056 18.799088 43.5795265 18.0348974 43.5795265 17.1178687L43.5795265 12.074211C43.5795265 11.1571823 44.2113056 10.3929917 44.9694406 10.3929917L51.5399434 10.3929917C52.2980783 10.3929917 52.9298574 11.1571823 52.9298574 12.074211L52.9298574 17.1178687C52.9298574 18.0348974 52.2980783 18.799088 51.5399434 18.799088z"/>
        <rect width="85.669" height="4.279" x="62.533" y="12.074" fill="#B4B7FF"/>
        <path fill="#B4B7FF" d="M131.270468,127.772663 L131.270468,185.54547 L32.9656374,185.54547 L32.9656374,127.772663 L131.270468,127.772663 Z M132.40767,126.39712 L31.828435,126.39712 L31.828435,186.768175 L132.40767,186.768175 L132.40767,126.39712 Z"/>
        <rect width="73.918" height="9.782" x="57.1" y="42.03" fill="#B4B7FF"/>
        <rect width="73.918" height="9.782" x="57.1" y="59.607" fill="#B4B7FF"/>
        <rect width="73.918" height="9.782" x="57.1" y="77.183" fill="#B4B7FF"/>
        <rect width="73.918" height="9.782" x="57.1" y="94.607" fill="#B4B7FF"/>
        <path fill="#B4B7FF" d="M41.9369008 51.8121206L37.1353796 51.8121206C34.8609748 51.8121206 33.0919932 49.672387 33.0919932 46.9213009 33.0919932 44.1702149 34.8609748 42.0304813 37.1353796 42.0304813L41.9369008 42.0304813C44.2113056 42.0304813 45.9802872 44.1702149 45.9802872 46.9213009 45.9802872 49.672387 44.2113056 51.8121206 41.9369008 51.8121206zM41.9369008 69.3885036L37.1353796 69.3885036C34.8609748 69.3885036 33.0919932 67.2487701 33.0919932 64.497684 33.0919932 61.746598 34.8609748 59.6068644 37.1353796 59.6068644L41.9369008 59.6068644C44.2113056 59.6068644 45.9802872 61.746598 45.9802872 64.497684 45.9802872 67.2487701 44.2113056 69.3885036 41.9369008 69.3885036zM41.9369008 86.8120486L37.1353796 86.8120486C34.8609748 86.8120486 33.0919932 84.672315 33.0919932 81.921229 33.0919932 79.1701429 34.8609748 77.0304093 37.1353796 77.0304093L41.9369008 77.0304093C44.2113056 77.0304093 45.9802872 79.1701429 45.9802872 81.921229 45.9802872 84.672315 44.2113056 86.8120486 41.9369008 86.8120486zM41.9369008 104.388432L37.1353796 104.388432C34.8609748 104.388432 33.0919932 102.248698 33.0919932 99.4976121 33.0919932 96.746526 34.8609748 94.6067924 37.1353796 94.6067924L41.9369008 94.6067924C44.2113056 94.6067924 45.9802872 96.746526 45.9802872 99.4976121 45.9802872 102.248698 44.2113056 104.388432 41.9369008 104.388432z"/>
      </g>
      <g transform="translate(0 171.839)">
        <path fill="#FFE2E1" d="M164.515281,128.995368 L164.515281,7.03055323 C164.515281,3.3624385 162.114521,0.458514341 159.081981,0.458514341 L5.5596562,0.458514341 C2.52711646,0.458514341 0.126355823,3.3624385 0.126355823,7.03055323 L0.126355823,128.995368 C0.126355823,134.344702 3.66431886,138.624169 8.08677266,138.624169 L156.68122,138.624169 C160.977318,138.471331 164.515281,134.191864 164.515281,128.995368 Z"/>
        <rect width="132.295" height="94.76" x="16.047" y="29.803" fill="#FFF"/>
        <path fill="#FFB4BB" d="M24.260318 19.1047642L17.6898152 19.1047642C16.9316803 19.1047642 16.2999011 18.3405737 16.2999011 17.423545L16.2999011 12.3798872C16.2999011 11.4628585 16.9316803 10.698668 17.6898152 10.698668L24.260318 10.698668C25.0184529 10.698668 25.650232 11.4628585 25.650232 12.3798872L25.650232 17.423545C25.650232 18.3405737 25.0184529 19.1047642 24.260318 19.1047642zM37.9067468 19.1047642L31.3362441 19.1047642C30.5781091 19.1047642 29.94633 18.3405737 29.94633 17.423545L29.94633 12.3798872C29.94633 11.4628585 30.5781091 10.698668 31.3362441 10.698668L37.9067468 10.698668C38.6648818 10.698668 39.2966609 11.4628585 39.2966609 12.3798872L39.2966609 17.423545C39.4230167 18.3405737 38.7912376 19.1047642 37.9067468 19.1047642zM51.5531757 19.1047642L44.9826729 19.1047642C44.224538 19.1047642 43.5927589 18.3405737 43.5927589 17.423545L43.5927589 12.3798872C43.5927589 11.4628585 44.224538 10.698668 44.9826729 10.698668L51.5531757 10.698668C52.3113106 10.698668 52.9430898 11.4628585 52.9430898 12.3798872L52.9430898 17.423545C53.0694456 18.3405737 52.4376665 19.1047642 51.5531757 19.1047642z"/>
        <rect width="85.669" height="4.279" x="62.672" y="12.38" fill="#FFB4BB"/>
        <rect width="73.918" height="9.782" x="57.239" y="42.489" fill="#FFB4BB"/>
        <rect width="73.918" height="9.782" x="57.239" y="59.913" fill="#FFB4BB"/>
        <rect width="73.918" height="9.782" x="57.239" y="77.489" fill="#FFB4BB"/>
        <rect width="73.918" height="9.782" x="57.239" y="95.065" fill="#FFB4BB"/>
        <path fill="#FFB4BB" d="M42.076489 52.2706349L37.2749677 52.2706349C35.0005629 52.2706349 33.2315814 50.1309013 33.2315814 47.3798153 33.2315814 44.6287292 35.0005629 42.4889956 37.2749677 42.4889956L42.076489 42.4889956C44.3508938 42.4889956 46.1198753 44.6287292 46.1198753 47.3798153 46.1198753 49.9780632 44.224538 52.2706349 42.076489 52.2706349zM42.076489 69.6941799L37.2749677 69.6941799C35.0005629 69.6941799 33.2315814 67.5544463 33.2315814 64.8033602 33.2315814 62.0522742 35.0005629 59.9125406 37.2749677 59.9125406L42.076489 59.9125406C44.3508938 59.9125406 46.1198753 62.0522742 46.1198753 64.8033602 46.1198753 67.5544463 44.224538 69.6941799 42.076489 69.6941799zM42.076489 87.270563L37.2749677 87.270563C35.0005629 87.270563 33.2315814 85.1308294 33.2315814 82.3797433 33.2315814 79.6286573 35.0005629 77.4889237 37.2749677 77.4889237L42.076489 77.4889237C44.3508938 77.4889237 46.1198753 79.6286573 46.1198753 82.3797433 46.1198753 84.9779912 44.224538 87.270563 42.076489 87.270563zM42.076489 104.694108L37.2749677 104.694108C35.0005629 104.694108 33.2315814 102.554374 33.2315814 99.8032883 33.2315814 97.0522022 35.0005629 94.9124686 37.2749677 94.9124686L42.076489 94.9124686C44.3508938 94.9124686 46.1198753 97.0522022 46.1198753 99.8032883 46.1198753 102.554374 44.224538 104.694108 42.076489 104.694108z"/>
      </g>
      <path fill="#7878BF" d="M294.03,334.458586 L146.825466,334.458586 C139.74954,334.458586 133.937172,327.428033 133.937172,318.869099 L133.937172,15.638281 C133.937172,7.07934662 139.74954,0.0487933884 146.825466,0.0487933884 L293.903644,0.0487933884 C300.97957,0.0487933884 306.791938,7.07934662 306.791938,15.638281 L306.791938,318.869099 C306.918294,327.428033 301.105926,334.458586 294.03,334.458586 Z"/>
      <path fill="#8787D5" d="M284.553313,334.458586 L132.547258,334.458586 C125.344976,334.458586 119.406253,327.428033 119.406253,318.563422 L119.406253,15.9439572 C119.406253,7.23218474 125.21862,0.0487933884 132.547258,0.0487933884 L284.553313,0.0487933884 C291.755595,0.0487933884 297.694319,7.07934662 297.694319,15.9439572 L297.694319,318.563422 C297.567963,327.275195 291.755595,334.458586 284.553313,334.458586 Z"/>
      <path fill="#A3A3FF" d="M275.076626,318.257746 L141.518522,318.257746 C136.464289,318.257746 132.420902,313.366927 132.420902,307.253402 L132.420902,27.8653301 C132.420902,21.7518055 136.464289,16.8609859 141.518522,16.8609859 L275.202982,16.8609859 C280.257215,16.8609859 284.300601,21.7518055 284.300601,27.8653301 L284.300601,307.100564 C284.174245,313.214088 280.130859,318.257746 275.076626,318.257746 Z"/>
      <path fill="#8787D5" d="M233.000137 28.7823588L181.952385 28.7823588C177.529931 28.7823588 173.865612 24.3500535 173.865612 19.0007195L173.865612 12.5815187 241.08691 12.5815187 241.08691 19.0007195C241.08691 24.3500535 237.548947 28.7823588 233.000137 28.7823588zM115.362866 323.301404L115.362866 306.794888 109.424143 306.794888C108.792363 304.043802 107.907873 301.445554 106.77067 299.000144L110.940412 293.956486 101.33737 282.340789 97.1676277 287.384447C95.1459346 286.008904 92.9978856 284.786199 90.7234808 284.174847L90.7234808 276.991456 77.0770519 276.991456 77.0770519 284.174847C74.8026471 284.939037 72.6545981 286.008904 70.6329049 287.384447L66.4631628 282.340789 56.8601203 293.956486 61.0298624 299.000144C59.89266 301.445554 58.8818134 304.043802 58.3763901 306.794888L52.4376665 306.794888 52.4376665 323.301404 58.3763901 323.301404C59.0081692 326.05249 59.89266 328.650738 61.0298624 331.096148L56.8601203 336.139806 66.4631628 347.755502 70.6329049 342.711844C72.6545981 344.087387 74.8026471 345.310092 77.0770519 345.921445L77.0770519 353.104836 90.7234808 353.104836 90.7234808 346.074283C92.9978856 345.310092 95.1459346 344.240226 97.1676277 342.864683L101.33737 347.90834 110.940412 336.292644 106.77067 331.248986C107.907873 328.803576 108.918719 326.205328 109.424143 323.454242L115.362866 323.454242 115.362866 323.301404zM83.7739105 333.694396C75.1817146 333.694396 68.2321443 325.288299 68.2321443 314.895308 68.2321443 304.502316 75.1817146 296.09622 83.7739105 296.09622 92.3661065 296.09622 99.3156767 304.502316 99.3156767 314.895308 99.1893209 325.441138 92.2397506 333.694396 83.7739105 333.694396z"/>
      <path fill="#A3A3FF" d="M64.188758,330.94331 L64.188758,318.563422 L59.7663042,318.563422 C59.2608809,316.423689 58.6291018,314.589632 57.744611,312.755574 L60.9035066,308.934621 L53.7012247,300.222849 L50.5423291,304.043802 C49.0260592,302.973935 47.3834335,302.209744 45.7408079,301.598392 L45.7408079,296.249058 L35.5059862,296.249058 L35.5059862,301.598392 C33.7370047,302.209744 32.2207348,302.973935 30.7044649,304.043802 L27.5455694,300.222849 L20.3432875,308.934621 L23.502183,312.755574 C22.6176923,314.589632 21.9859132,316.576527 21.4804899,318.563422 L17.0580361,318.563422 L17.0580361,330.94331 L21.4804899,330.94331 C21.9859132,333.083043 22.6176923,334.917101 23.502183,336.751158 L20.3432875,340.572111 L27.5455694,349.283883 L30.7044649,345.46293 C32.2207348,346.532797 33.8633605,347.296988 35.5059862,347.90834 L35.5059862,353.257674 L45.7408079,353.257674 L45.7408079,347.90834 C47.5097894,347.296988 49.0260592,346.532797 50.5423291,345.46293 L53.7012247,349.283883 L60.9035066,340.572111 L57.744611,336.751158 C58.6291018,334.917101 59.2608809,332.930205 59.7663042,330.94331 L64.188758,330.94331 Z M40.6865749,338.738053 C34.3687838,338.738053 29.1881951,332.471691 29.1881951,324.829785 C29.1881951,317.187879 34.3687838,310.921517 40.6865749,310.921517 C47.0043661,310.921517 52.1849548,317.187879 52.1849548,324.829785 C52.1849548,332.471691 47.0043661,338.738053 40.6865749,338.738053 Z"/>
      <path fill="#00C0CD" d="M434.66403,368.388648 L122.565148,368.388648 C121.427946,368.388648 120.417099,367.318781 120.417099,365.7904 C120.417099,364.414857 121.30159,363.192152 122.565148,363.192152 L434.66403,363.192152 C435.801233,363.192152 436.812079,364.262018 436.812079,365.7904 C436.812079,367.318781 435.927589,368.388648 434.66403,368.388648 Z"/>
      <path fill="#FFF" d="M272.423154,252.537357 C274.823915,252.537357 276.845608,254.982767 276.845608,257.886691 L276.845608,292.122429 C276.845608,295.026353 274.823915,297.471763 272.423154,297.471763 L144.677417,297.471763 C142.276656,297.471763 140.254963,295.026353 140.254963,292.122429 L140.254963,257.886691 C140.254963,254.982767 142.276656,252.537357 144.677417,252.537357 L272.423154,252.537357 Z M272.423154,251.314652 L144.677417,251.314652 C141.644877,251.314652 139.244117,254.218577 139.244117,257.886691 L139.244117,292.122429 C139.244117,295.790544 141.644877,298.694468 144.677417,298.694468 L272.423154,298.694468 C275.455694,298.694468 277.856454,295.790544 277.856454,292.122429 L277.856454,257.886691 C277.856454,254.218577 275.455694,251.314652 272.423154,251.314652 Z"/>
      <g transform="translate(228.704 284.708)">
        <rect width="86.554" height="67.096" x=".126" y=".078" fill="#C8E6EB"/>
        <polygon fill="#B4D7DC" points="43.34 33.702 .126 67.174 86.68 67.174"/>
        <polygon fill="#A5C8CD" points="86.68 .078 .126 .078 43.34 47.61"/>
      </g>
      <path fill="#FA968C" d="M259.408504,244.284099 C258.01859,242.297204 260.040283,239.546118 261.809265,241.074499 C280.762638,258.650882 297.694319,264.153054 309.950833,238.934765 C310.835324,236.94787 312.857017,232.515564 313.362441,230.375831 C314.246931,226.40204 317.658539,223.95663 321.070146,225.026497 C324.734465,226.249202 326.629802,230.987183 325.239888,235.26665 C317.784894,257.122501 292.261018,287.690123 259.408504,244.284099 Z"/>
      <path fill="#000" d="M209.877022,140.659858 L82.1312848,140.659858 C79.0987451,140.659858 76.6979844,137.755934 76.6979844,134.087819 L76.6979844,99.8520817 C76.6979844,96.1839669 79.0987451,93.2800428 82.1312848,93.2800428 L209.877022,93.2800428 C212.909561,93.2800428 215.310322,96.1839669 215.310322,99.8520817 L215.310322,134.087819 C215.310322,137.603096 212.909561,140.659858 209.877022,140.659858 Z" opacity=".15"/>
      <path fill="#FFF" d="M209.877022,138.06161 L82.1312848,138.06161 C79.0987451,138.06161 76.6979844,135.157686 76.6979844,131.489571 L76.6979844,97.2538337 C76.6979844,93.585719 79.0987451,90.6817948 82.1312848,90.6817948 L209.877022,90.6817948 C212.909561,90.6817948 215.310322,93.585719 215.310322,97.2538337 L215.310322,131.489571 C215.310322,135.157686 212.909561,138.06161 209.877022,138.06161 Z"/>
      <path fill="#FFF" d="M272.423154 47.887123C274.823915 47.887123 276.845608 50.3325328 276.845608 53.236457L276.845608 87.4721945C276.845608 90.3761186 274.823915 92.8215284 272.423154 92.8215284L144.677417 92.8215284C142.276656 92.8215284 140.254963 90.3761186 140.254963 87.4721945L140.254963 53.236457C140.254963 50.3325328 142.276656 47.887123 144.677417 47.887123L272.423154 47.887123zM272.423154 46.6644181L144.677417 46.6644181C141.644877 46.6644181 139.244117 49.5683422 139.244117 53.236457L139.244117 87.4721945C139.244117 91.1403092 141.644877 94.0442333 144.677417 94.0442333L272.423154 94.0442333C275.455694 94.0442333 277.856454 91.1403092 277.856454 87.4721945L277.856454 53.236457C277.856454 49.5683422 275.455694 46.6644181 272.423154 46.6644181zM272.423154 116.052922C274.823915 116.052922 276.845608 118.498332 276.845608 121.402256L276.845608 155.637993C276.845608 158.541917 274.823915 160.987327 272.423154 160.987327L144.677417 160.987327C142.276656 160.987327 140.254963 158.541917 140.254963 155.637993L140.254963 121.402256C140.254963 118.498332 142.276656 116.052922 144.677417 116.052922L272.423154 116.052922zM272.423154 114.830217L144.677417 114.830217C141.644877 114.830217 139.244117 117.734141 139.244117 121.402256L139.244117 155.637993C139.244117 159.306108 141.644877 162.210032 144.677417 162.210032L272.423154 162.210032C275.455694 162.210032 277.856454 159.306108 277.856454 155.637993L277.856454 121.402256C277.856454 117.886979 275.455694 114.830217 272.423154 114.830217zM272.423154 185.594263C274.823915 185.594263 276.845608 188.039673 276.845608 190.943597L276.845608 225.179335C276.845608 228.083259 274.823915 230.528669 272.423154 230.528669L144.677417 230.528669C142.276656 230.528669 140.254963 228.083259 140.254963 225.179335L140.254963 190.943597C140.254963 188.039673 142.276656 185.594263 144.677417 185.594263L272.423154 185.594263zM272.423154 184.371559L144.677417 184.371559C141.644877 184.371559 139.244117 187.275483 139.244117 190.943597L139.244117 225.179335C139.244117 228.84745 141.644877 231.751374 144.677417 231.751374L272.423154 231.751374C275.455694 231.751374 277.856454 228.84745 277.856454 225.179335L277.856454 190.943597C277.856454 187.275483 275.455694 184.371559 272.423154 184.371559z"/>
      <path fill="#00C0CD" d="M105.128045,129.197 L88.0700085,129.197 C86.8064503,129.197 85.7956037,127.974295 85.7956037,126.445913 L85.7956037,101.991815 C85.7956037,100.463434 86.8064503,99.2407292 88.0700085,99.2407292 L105.128045,99.2407292 C106.391603,99.2407292 107.402449,100.463434 107.402449,101.991815 L107.402449,126.445913 C107.276094,127.974295 106.265247,129.197 105.128045,129.197 Z"/>
      <rect width="56.481" height="3.668" x="116.626" y="99.394" fill="#00C0CD"/>
      <rect width="86.933" height="3.668" x="116.626" y="111.926" fill="#00C0CD"/>
      <rect width="86.933" height="3.668" x="116.626" y="124.459" fill="#00C0CD"/>
      <path fill="#000" d="M289.860257,293.65081 L162.114521,293.65081 C159.081981,293.65081 156.68122,290.746886 156.68122,287.078771 L156.68122,252.843034 C156.68122,249.174919 159.081981,246.270995 162.114521,246.270995 L289.860257,246.270995 C292.892797,246.270995 295.293558,249.174919 295.293558,252.843034 L295.293558,287.078771 C295.293558,290.746886 292.892797,293.65081 289.860257,293.65081 Z" opacity=".15"/>
      <path fill="#FFF" d="M289.860257,291.2054 L162.114521,291.2054 C159.081981,291.2054 156.68122,288.301476 156.68122,284.633361 L156.68122,250.397624 C156.68122,246.729509 159.081981,243.825585 162.114521,243.825585 L289.860257,243.825585 C292.892797,243.825585 295.293558,246.729509 295.293558,250.397624 L295.293558,284.633361 C295.293558,288.148638 292.892797,291.2054 289.860257,291.2054 Z"/>
      <path fill="#00C0CD" d="M185.11128,278.519837 L168.053244,278.519837 C166.789686,278.519837 165.77884,277.297132 165.77884,275.768751 L165.77884,251.314652 C165.77884,249.786271 166.789686,248.563566 168.053244,248.563566 L185.11128,248.563566 C186.374839,248.563566 187.385685,249.786271 187.385685,251.314652 L187.385685,275.768751 C187.259329,277.297132 186.248483,278.519837 185.11128,278.519837 Z"/>
      <rect width="56.481" height="3.668" x="213.036" y="252.537" fill="#00C0CD"/>
      <rect width="86.933" height="3.668" x="197.873" y="265.07" fill="#00C0CD"/>
      <rect width="86.933" height="3.668" x="197.873" y="277.603" fill="#00C0CD"/>
      <g transform="translate(84.658 119.643)">
        <path fill="#735028" d="M38.9175934,173.243343 C39.1703051,178.134162 41.5710657,205.492185 43.3400472,223.068568 C44.224538,231.933178 44.3508938,238.352379 44.9826729,238.199541 C46.7516544,237.588189 52.1849548,179.96822 51.8058873,172.479152 C51.4268199,164.990084 48.2679243,159.182236 44.7299613,159.487912 C41.1919982,159.640751 38.538526,165.754275 38.9175934,173.243343 Z"/>
        <path fill="#0073AA" d="M47.8888568,224.138435 C47.2570777,224.138435 43.5927589,224.749787 42.9609798,224.902625 C40.8129308,207.326242 38.1594585,177.675648 38.4121701,172.479152 C38.4121701,171.8678 38.538526,171.409285 38.538526,170.797933 C39.2966609,163.461703 39.2966609,155.819798 37.9067468,148.636406 C34.7478513,132.12989 32.3470906,114.094993 31.9680232,109.204173 C31.4625999,99.4225337 36.1377653,91.1692755 42.3292006,90.7107612 C48.520636,90.2522469 53.7012247,96.9771239 54.7120713,106.605925 C57.2391877,129.990156 47.8888568,223.67992 47.8888568,224.138435 Z"/>
        <path fill="#195FA0" d="M53.9539363,149.247759 C55.0911387,131.212861 55.596562,114.706345 54.8384271,106.605925 C53.8275805,96.9771239 48.6469918,90.2522469 42.4555565,90.7107612 C36.2641211,91.1692755 31.5889557,99.4225337 32.094379,109.204173 C32.2207348,110.426878 32.3470906,112.260935 32.5998023,114.859183 C41.8237773,119.291488 48.520636,129.531642 50.2896175,141.758691 C50.7950408,144.662615 52.058599,147.260863 53.9539363,149.247759 Z"/>
        <path fill="#5F380C" d="M42.8346239,224.138435 C42.8346239,224.138435 43.2136914,236.823998 42.3292006,239.269408 C41.4447099,241.714818 41.3183541,244.465904 43.9718263,244.465904 C46.6252986,244.465904 53.0694456,244.465904 54.0802922,244.465904 C55.8492737,244.465904 57.3655436,244.160227 57.2391877,242.784684 C57.2391877,241.409141 49.2787709,240.950627 47.6361452,239.575084 C46.1198753,238.199541 47.2570777,224.902625 47.2570777,224.902625 L42.8346239,224.138435 Z"/>
        <path fill="#A03C19" d="M53.3221572,241.103465 C51.8058873,241.714818 50.1632617,242.173332 48.520636,242.173332 C46.2462311,242.173332 43.9718263,241.409141 42.076489,240.339275 C41.5710657,242.479008 41.6974215,244.465904 44.0981822,244.465904 C46.7516544,244.465904 53.1958014,244.465904 54.206648,244.465904 C55.9756295,244.465904 57.4918994,244.160227 57.3655436,242.784684 C57.3655436,241.867656 55.4702062,241.561979 53.3221572,241.103465 Z"/>
        <path fill="#735028" d="M52.9430898,174.924562 C53.1958014,179.815382 55.596562,207.173404 57.3655436,224.749787 C58.2500343,233.614398 58.3763901,240.033598 59.0081692,239.88076 C60.7771508,239.269408 66.2104511,181.649439 65.8313837,174.160371 C65.4523162,166.671304 62.2934206,160.863455 58.7554576,161.169132 C55.2174946,161.32197 52.5640223,167.588332 52.9430898,174.924562 Z"/>
        <path fill="#0091C8" d="M61.9143532,225.819654 C61.2825741,225.819654 57.6182552,226.431006 56.9864761,226.583844 C54.8384271,209.007461 52.1849548,179.356867 52.4376665,174.160371 C52.4376665,173.549019 52.5640223,173.090505 52.5640223,172.479152 C53.3221572,165.142923 53.3221572,157.501017 51.9322432,150.317626 C48.7733476,133.811109 46.372587,115.776212 45.9935195,110.885392 C45.4880962,101.103753 50.1632617,92.8504948 56.354697,92.3919805 C62.5461323,91.9334661 67.726721,98.6583431 68.7375676,108.287144 C71.1383282,131.671376 61.9143532,225.361139 61.9143532,225.819654 Z"/>
        <path fill="#5F380C" d="M56.8601203,225.819654 C56.8601203,225.819654 57.2391877,238.505217 56.354697,240.950627 C55.4702062,243.396037 55.2174946,246.299961 57.9973227,246.147123 C60.6507949,245.994285 65.8313837,245.841447 66.8422303,245.688609 C69.1166351,245.382932 71.8964632,245.53577 71.7701073,244.160227 C71.7701073,242.784684 63.3042672,242.631846 61.7879973,241.256303 C60.2717275,239.88076 61.4089299,226.583844 61.4089299,226.583844 L56.8601203,225.819654 Z"/>
        <path fill="#CD5014" d="M66.5895186,242.479008 C65.0732487,243.090361 63.430623,243.548875 61.7879973,243.548875 C59.7663042,243.548875 57.744611,243.090361 55.9756295,242.020494 C55.4702062,244.160227 55.4702062,246.147123 57.9973227,246.147123 C60.6507949,245.994285 65.8313837,245.841447 66.8422303,245.688609 C69.1166351,245.382932 71.8964632,245.53577 71.7701073,244.160227 C71.7701073,243.243199 69.2429909,242.937523 66.5895186,242.479008 Z"/>
        <path fill="#5F380C" d="M54.4593596 29.5755157C52.5640223 29.5755157 50.5423291 28.5056489 47.762501 25.4488866 46.1198753 23.7676674 44.9826729 20.8637432 44.9826729 18.8768477L44.9826729 7.87250354 58.8818134 7.87250354C58.8818134 7.87250354 59.89266 13.6803519 58.8818134 19.4882002 58.3763901 23.9205055 55.9756295 29.5755157 54.4593596 29.5755157zM5.5596562 26.8244296C5.43330038 25.7545629 6.19143532 24.6846961 7.07592608 24.6846961 7.96041684 24.5318579 8.59219595 25.2960485 8.8449076 26.2130772 10.2348216 32.7851161 11.7510915 39.2043169 13.7727847 45.1650033 17.816171 57.6977286 21.4804899 59.531786 22.7440481 60.6016528 22.8704039 60.6016528 23.6285389 60.907329 23.7548947 60.907329 27.6719252 61.9771958 34.6214954 51.5842041 35.8850537 43.483784 35.8850537 43.0252697 36.7695444 40.2741837 36.6431886 40.5798599 37.6540352 37.0645833 40.9392866 35.0776878 43.8454705 36.4532308 61.6616415 43.9422984 11.8774473 118.680136 5.5596562 26.8244296z"/>
        <path fill="#FAB9AF" d="M35.3796304,104.61903 C40.4338633,111.649583 69.87477,114.706345 69.87477,114.706345 C72.022819,111.649583 61.9143532,76.8024928 61.9143532,76.8024928 C61.9143532,76.8024928 66.8422303,51.7370422 66.5895186,42.5667554 C66.4631628,38.7458025 63.9360463,35.8418784 60.9035066,35.8418784 L42.2028448,35.8418784 C39.2966609,35.8418784 36.8959003,38.4401263 36.6431886,41.9554029 C36.1377653,49.1387943 43.9718263,76.0383023 43.9718263,76.0383023 C43.9718263,76.0383023 30.9571766,98.505505 35.3796304,104.61903 Z"/>
        <path fill="#FF8C46" d="M61.9143532,76.8024928 C61.9143532,76.8024928 66.7158744,50.9728516 66.5895186,41.9554029 C66.4631628,38.5929644 64.188758,35.8418784 61.4089299,35.8418784 L58.6291018,35.8418784 C57.6182552,38.7458025 55.3438504,41.0383742 51.8058873,41.0383742 C48.3942801,41.0383742 46.1198753,38.7458025 44.9826729,35.8418784 L42.3292006,35.8418784 C45.1090287,43.1781078 44.0981822,52.806909 39.2966609,58.4619192 C41.3183541,67.3265298 43.8454705,76.0383023 43.8454705,76.0383023 C43.8454705,76.0383023 30.0726858,101.103753 32.094379,104.924706 C36.390477,112.872288 69.7484142,114.706345 69.7484142,114.706345 C72.022819,110.885392 61.9143532,76.8024928 61.9143532,76.8024928 Z"/>
        <polygon fill="#FAB9AF" points="48.773 37.37 57.239 36.3 54.586 25.143 49.026 25.907"/>
        <path fill="#FA968C" d="M49.0260592,25.907401 L54.4593596,25.1432104 L55.3438504,28.658487 C54.0802922,30.3397063 52.5640223,34.007821 50.5423291,34.007821 C49.91055,34.007821 49.2787709,33.8549829 48.7733476,33.3964685 L49.0260592,25.907401 Z"/>
        <path fill="#BE1EC8" d="M47.5097894,2.67600768 L52.1849548,2.37033145 C53.5748689,2.21749333 54.8384271,1.75897899 55.9756295,0.841950311 C57.6182552,-0.380754599 59.6399484,-0.227916485 60.9035066,1.60614088 C62.2934206,3.59303636 62.9251998,6.19128429 59.89266,8.94237034 C58.3763901,10.3179134 56.1019853,9.09520845 54.5857154,9.85939902 C54.4593596,9.85939902 54.4593596,9.85939902 54.3330038,9.85939902 L50.1632617,10.1650753 C48.6469918,10.3179134 47.762501,11.8462945 47.762501,13.5275138 C47.762501,14.5973805 47.1307219,15.9729236 47.1307219,15.9729236 L45.2353846,13.0689994 L43.466403,11.234942 C43.0873356,10.7764277 42.8346239,10.3179134 42.8346239,9.70656091 L42.8346239,9.40088468 C42.4555565,5.88560806 44.6036054,2.82884579 47.5097894,2.67600768 Z"/>
        <path fill="#5F380C" d="M99.8211 17.8069809C99.8211 17.8069809 97.5466952 23.0034768 98.6838976 24.3790198 99.8211 25.7545629 100.705591 26.3659153 102.474572 24.5318579 104.243554 22.6978006 105.759824 19.182524 106.391603 16.7371141 107.023382 14.4445424 106.644314 9.85939902 106.391603 9.40088468 105.2544 7.71966543 104.496265 12.1519707 104.117198 14.2917043 103.611775 16.4314379 102.979996 18.7240096 102.221861 18.1126572 101.463726 17.5013047 102.600928 13.5275138 101.842793 12.6104851 101.084658 11.6934564 99.8211 17.8069809 99.8211 17.8069809zM7.07592608 17.9598191C7.07592608 17.9598191 9.22397506 23.309153 8.08677266 24.6846961 6.94957025 26.0602391 5.93872367 26.6715915 4.29609798 24.8375342 2.65347228 22.8506387 1.13720241 19.3353621.505423291 16.8899523-.126355823 14.4445424.379067468 10.0122371.631779114 9.5537228 1.76898152 7.87250354 2.40076063 12.457647 2.7798281 14.4445424 3.15889557 16.584276 3.79067468 18.8768477 4.54880962 18.4183334 5.30694456 17.9598191 4.29609798 13.83319 5.05423291 12.9161613 5.93872367 11.9991326 7.07592608 17.9598191 7.07592608 17.9598191z"/>
        <path fill="#5F380C" d="M75.4344262,56.4750237 C80.3623033,63.3527388 84.152978,59.6846241 88.449076,52.1955565 C90.2180575,48.3746037 92.4924623,45.3178414 98.5575418,24.6846961 C99.1893209,22.3921244 102.095505,23.1563149 101.842793,25.6017247 C95.9040695,88.4181895 67.726721,78.4837121 59.2608809,50.3614992 C58.6291018,48.2217656 58.1236785,46.2348701 57.9973227,43.0252697 C57.8709668,39.0514788 60.5244391,35.8418784 63.6833347,35.8418784 C66.8422303,35.8418784 69.6220584,38.8986406 69.6220584,42.7195935 C69.87477,45.3178414 72.022819,51.8898803 75.4344262,56.4750237 Z"/>
        <path fill="#BE1EC8" d="M67.6003652,44.8593271 C65.8313837,43.3309459 65.0732487,40.732698 65.1996046,38.1344501 C65.4523162,32.7851161 62.7988439,27.8942964 59.3872367,24.0733436 C56.9864761,21.4750957 55.8492737,17.5013047 56.2283411,13.5275138 L56.7337644,8.483856 L42.7082681,8.483856 C42.7082681,12.6104851 41.0656424,16.584276 38.2858143,19.182524 C35.1269187,21.93361 32.4734465,25.907401 30.9571766,30.7982206 C27.1665019,42.7195935 30.8308208,55.7108331 39.2966609,60.4488147 C37.0222561,71.7588351 41.1919982,83.2216936 49.4051267,87.0426465 C58.502746,91.3221137 69.1166351,84.7500748 73.0336656,72.2173494 C76.4452728,61.8243577 73.9181563,50.6671754 67.6003652,44.8593271 Z"/>
      </g>
      <path fill="#415050" d="M325.998023,343.934549 C323.344551,343.628873 321.828281,340.266435 322.839127,337.36251 C327.261581,325.135461 330.799544,311.685707 331.684035,306.64205 C333.326661,296.249058 327.89336,286.31458 319.553876,284.480523 C311.214392,282.646466 308.560919,289.829857 306.918294,300.222849 C305.654735,308.323269 302.369484,339.196568 304.770245,353.257674 C304.770245,353.410512 306.665582,364.720533 316.142269,364.720533 C322.46006,364.720533 377.424843,362.275123 377.551199,356.314437 C377.551199,351.576455 343.435126,346.074283 325.998023,343.934549 Z"/>
      <path fill="#3C4646" d="M324.608109,332.166015 C328.146072,321.467347 330.9259,310.921517 331.684035,306.489211 C333.326661,296.09622 327.89336,286.161742 319.553876,284.327685 C311.214392,282.493628 308.560919,289.677019 306.918294,300.070011 C306.918294,300.375687 306.791938,300.681363 306.791938,300.987039 C321.322857,311.532869 323.218195,329.720605 324.608109,332.166015 Z"/>
      <path fill="#FAB9AF" d="M423.418362,360.135389 C420.259467,357.537141 416.595148,355.855922 412.804473,354.786055 C412.678117,354.786055 412.425406,354.786055 412.29905,354.938894 C411.667271,355.397408 411.288203,355.855922 411.035492,356.00876 C410.909136,356.161598 410.78278,356.161598 410.656424,356.161598 C405.475835,357.231465 399.663468,356.620113 393.598388,355.24457 C392.966609,355.091732 392.587541,355.855922 392.966609,356.467275 L396.504572,362.733637 C396.630928,362.886475 396.883639,363.039314 397.009995,363.039314 C398.905333,363.039314 408.255663,363.192152 413.81532,363.497828 C418.237773,363.803504 422.028448,363.650666 425.3137,363.497828 C425.945479,363.497828 426.19819,362.580799 425.819123,362.122285 C424.934632,361.510932 424.302853,360.746742 423.418362,360.135389 Z"/>
      <path fill="#415050" d="M422.533871,357.078627 L417.226927,353.563351 C414.952522,352.034969 411.540915,355.397408 411.035492,356.00876 C411.161847,356.00876 411.288203,356.00876 411.414559,356.00876 C416.089724,356.00876 420.385822,358.912684 423.165651,363.192152 C423.418362,363.650666 423.923785,363.956342 424.429209,363.956342 C429.357086,364.262018 432.895049,364.262018 434.790386,364.262018 C435.801233,364.262018 436.306656,362.580799 435.422165,361.816609 C432.389626,359.524037 424.429209,358.45417 422.533871,357.078627 Z"/>
      <path fill="#55696E" d="M351.521899,343.628873 C348.489359,343.323197 346.34131,340.113596 346.594022,336.445482 C347.731224,322.078699 347.478513,306.489211 346.720378,301.139877 C345.330464,290.746886 337.370047,283.716333 329.030563,285.397552 C320.691078,287.078771 320.185655,295.026353 321.701925,305.419345 C322.839127,313.519765 327.767004,344.851578 333.832084,357.842818 C333.832084,357.842818 333.95844,357.995656 333.95844,357.995656 C335.727421,361.663771 337.496403,363.803504 339.39174,363.497828 C339.39174,363.497828 339.39174,363.497828 339.39174,363.497828 C340.90801,364.262018 399.410756,363.34499 399.410756,363.34499 C399.410756,363.34499 399.537112,357.995656 399.789823,356.00876 C388.417799,350.048074 364.031125,345.004416 351.521899,343.628873 Z"/>
      <path fill="#50D1DD" d="M305.149312,243.519909 C306.665582,241.074499 312.604306,231.445698 313.488796,229.000288 L313.488796,228.84745 C313.615152,228.694612 313.615152,228.388935 313.741508,228.236097 C315.51049,224.567982 319.301164,223.498116 322.333704,225.485011 C325.366244,227.624745 326.250734,232.209888 324.608109,235.878003 C322.965483,239.240441 321.449213,241.991527 319.680232,244.895452 C318.543029,246.729509 317.153115,248.563566 315.889557,250.397624 C315.005066,249.327757 305.149312,243.672747 305.149312,243.519909 Z"/>
      <path fill="#FAB9AF" d="M332.694881,264.45873 C333.95844,264.764406 335.348354,265.070083 336.611912,265.375759 C341.160722,266.445626 345.45682,262.166158 345.45682,256.663986 C345.45682,247.340861 345.583175,238.934765 345.583175,233.279755 C345.583175,229.305964 343.056059,225.943526 339.770808,225.790687 L319.932943,224.720821 C316.900404,224.567982 314.246931,227.319069 313.867864,230.987183 C313.362441,236.030841 313.109729,243.672747 312.604306,252.078843 C312.351594,256.511148 314.87871,260.637777 318.416673,261.554806 C323.091839,262.624673 327.89336,263.388863 332.694881,264.45873 Z"/>
      <path fill="#00C0CD" d="M319.680232,224.720821 L322.965483,224.873659 C323.97633,228.083259 326.250734,230.681507 329.915053,230.834345 C333.579372,230.987183 336.106489,228.694612 337.370047,225.637849 L340.276231,225.790687 C343.308771,225.943526 345.709531,229.000288 345.583175,232.668403 C345.45682,242.144366 345.330464,260.484939 345.583175,277.144294 C345.835887,292.122429 350.005629,304.96083 347.604869,308.934621 C347.604869,308.934621 314.499643,311.380031 306.286514,300.681363 C307.92914,290.746886 308.813631,278.061322 310.203545,264.764406 C311.593459,251.620329 312.983373,238.323413 313.867864,230.681507 C314.120575,227.16623 316.647692,224.567982 319.680232,224.720821 Z"/>
      <path fill="#00558C" d="M328.904207,217.995944 L329.283274,217.995944 C332.189458,218.454458 334.84293,215.85621 335.095642,212.493772 L335.980133,203.170647 L330.420477,202.406456 L328.904207,217.995944 Z"/>
      <path fill="#FAB9AF" d="M327.89336,227.777583 L335.348354,225.790687 L329.788698,213.716476 L323.218195,217.078915 L324.987176,225.332173 C325.239888,227.16623 326.503446,228.083259 327.89336,227.777583 Z"/>
      <path fill="#FA968C" d="M323.091839,217.231753 L329.662342,213.869315 L331.936746,218.760134 C330.9259,221.358382 329.662342,224.262306 327.135225,225.179335 C326.37709,225.485011 325.4926,225.332173 324.734465,225.179335 L323.091839,217.231753 Z"/>
      <path fill="#FAB9AF" d="M323.597262,222.581087 C328.398783,223.345278 332.694881,219.218649 333.200305,213.4108 L334.337507,201.795104 L319.553876,199.65537 C319.553876,199.65537 318.669385,208.672819 319.048453,214.939181 C319.553876,219.677163 321.196502,222.275411 323.597262,222.581087 Z"/>
      <rect width="2.78" height="1.528" x="331.964" y="206.197" fill="#00558C" transform="rotate(-173.079 333.354 206.96)"/>
      <path fill="#FAB9AF" d="M330.9259,210.812552 C330.673188,213.105124 331.431323,215.092019 332.568526,215.244858 C333.705728,215.397696 335.221998,212.64661 335.47471,210.354038 C335.727421,208.061466 334.590219,207.144438 333.453016,206.991599 C332.189458,206.991599 331.178612,208.672819 330.9259,210.812552 Z"/>
      <path fill="#00558C" d="M318.163962,204.240513 C317.91125,202.712132 318.037606,201.183751 318.416673,199.808208 C318.416673,199.808208 318.922097,194.611712 320.691078,193.847522 C322.333704,193.236169 324.86082,194.76455 326.37709,195.375903 C327.514293,195.834417 331.304967,196.140093 331.304967,196.140093 C334.337507,196.598608 336.485556,199.808208 336.106489,203.476323 L335.980133,204.851866 L333.200305,207.297276 L332.189458,209.895524 L331.936746,209.895524 C330.9259,209.742685 330.294121,208.672819 330.294121,207.602952 C330.420477,205.768895 329.535986,203.934837 327.89336,203.781999 L323.470906,203.170647 C320.817434,202.712132 319.174808,204.393351 318.922097,206.685923 L318.795741,208.825657 L318.163962,204.240513 Z"/>
      <path fill="#FAB9AF" d="M347.85758,234.808136 C344.066905,263.847378 319.301164,296.249058 276.46654,293.345134 C275.455694,293.345134 274.697559,292.275267 274.823915,291.052562 C274.823915,289.982695 275.58205,289.218505 276.340184,289.065667 C305.275668,284.327685 329.788698,267.209816 335.47471,232.668403 C336.3592,227.624745 339.770808,225.485011 342.929703,226.249202 C346.214954,227.013392 348.363003,230.834345 347.85758,234.808136 Z"/>
      <path fill="#50D1DD" d="M331.178612,246.270995 C334.084795,238.629089 334.969286,233.891107 334.969286,233.891107 C334.969286,233.891107 335.221998,232.821241 335.348354,232.515564 C335.980133,229.458802 337.243691,227.777583 337.243691,227.777583 C337.243691,227.777583 340.023519,224.262306 345.204108,227.16623 C349.37385,229.61164 348.236648,235.572327 348.236648,235.572327 C348.110292,236.336517 348.615715,242.908556 342.045212,254.829929 C342.171568,254.677091 330.799544,247.340861 331.178612,246.270995 Z"/>
      <path fill="#FAB9AF" d="M271.791375,287.842962 C271.791375,287.842962 276.971964,287.537285 277.603743,289.524181 C278.235522,291.358238 278.361878,292.886619 276.087473,293.956486 C273.813068,295.179191 270.275105,295.332029 268.127056,295.026353 C265.979007,294.720677 262.5674,292.275267 262.314688,291.663914 C261.556553,289.677019 265.347228,290.746886 267.242565,291.2054 C269.137903,291.663914 271.285952,291.969591 271.159596,290.746886 C271.03324,289.524181 267.368921,289.065667 266.989854,287.842962 C266.610786,286.467419 271.791375,287.842962 271.791375,287.842962 Z"/>
      <path fill="#FA968C" d="M255.996897,246.576671 C255.996897,246.576671 261.177486,245.965318 261.556553,243.978423 C261.935621,241.991527 261.809265,240.615984 259.53486,239.851794 C257.134099,239.087603 253.596136,239.39328 251.574443,240.15747 C249.931817,240.768823 247.783769,242.60288 246.772922,243.672747 L252.079866,243.672747 C254.227915,243.672747 255.112406,242.908556 255.112406,243.825585 C255.112406,245.04829 251.574443,246.118157 251.321732,247.4937 C250.942664,248.716404 255.996897,246.576671 255.996897,246.576671 Z"/>
    </g>
  </g>
</svg>
