<svg xmlns="http://www.w3.org/2000/svg" width="601" height="509" viewBox="0 0 601 509">
  <g fill="none">
    <g transform="translate(112)">
      <path fill="#624FB5" d="M207.1,23.3 L207.1,394.1 C207.1,406.9 196.8,417.2 184,417.2 L23.3,417.2 C10.5,417.2 0.2,406.9 0.2,394.1 L0.2,23.3 C0.2,10.5 10.5,0.2 23.3,0.2 L184,0.2 C196.8,0.2 207.1,10.5 207.1,23.3 Z"/>
      <rect width="206.9" height="325.5" x=".2" y="43.6" fill="#DDD6FF"/>
      <rect width="35.7" height="5.2" x="85.9" y="20.4" fill="#FFF"/>
      <path fill="#FFF" d="M103.7 378.4C94.7 378.4 87.4 385.7 87.4 394.7 87.4 403.7 94.7 411 103.7 411 112.7 411 120 403.7 120 394.7 120 385.7 112.7 378.4 103.7 378.4zM103.7 409.4C95.6 409.4 89 402.8 89 394.7 89 386.6 95.6 380 103.7 380 111.8 380 118.4 386.6 118.4 394.7 118.4 402.8 111.8 409.4 103.7 409.4zM135.1 23C135.1 25.4 133.2 27.3 130.8 27.3 128.4 27.3 126.5 25.4 126.5 23 126.5 20.6 128.4 18.7 130.8 18.7 133.2 18.7 135.1 20.6 135.1 23zM106.3 9.8C106.3 11.3 105.1 12.4 103.6 12.4 102.1 12.4 101 11.2 101 9.8 101 8.3 102.2 7.2 103.6 7.2 105.1 7.1 106.3 8.3 106.3 9.8z"/>
      <g transform="translate(15 59)">
        <g fill="#FFF" transform="translate(72 21)">
          <path d="M3.7.5L57.8.5C59.7.5 61.2.7 61.2 1L61.2 4.2C61.2 4.5 59.7 4.7 57.8 4.7L3.7 4.7C1.8 4.7.3 4.5.3 4.2L.3 1C.3.7 1.8.5 3.7.5zM5.6 10.8L90.6 10.8C93.5 10.8 95.9 11 95.9 11.3L95.9 14.5C95.9 14.8 93.5 15 90.6 15L5.6 15C2.7 15 .3 14.8.3 14.5L.3 11.3C.3 11.1 2.7 10.8 5.6 10.8z"/>
        </g>
        <path fill="#FFF" d="M56.6,28.8 C56.6,44.2 44.1,56.7 28.7,56.7 C13.3,56.7 0.8,44.2 0.8,28.8 C0.8,13.4 13.3,0.9 28.7,0.9 C44.1,0.8 56.6,13.3 56.6,28.8 Z"/>
        <path fill="#4AB6D6" d="M49.9,28.8 C49.9,40.5 40.4,50 28.7,50 C17,50 7.5,40.5 7.5,28.8 C7.5,17.1 17,7.6 28.7,7.6 C40.4,7.6 49.9,17.1 49.9,28.8 Z"/>
        <g transform="translate(0 70)">
          <path fill="#FFF" d="M56.6,28.1 C56.6,43.5 44.1,56 28.7,56 C13.3,56 0.8,43.5 0.8,28.1 C0.8,12.7 13.3,0.2 28.7,0.2 C44.1,0.2 56.6,12.7 56.6,28.1 Z"/>
          <path fill="#4AB6D6" d="M49.9,28.1 C49.9,39.8 40.4,49.3 28.7,49.3 C17,49.3 7.5,39.8 7.5,28.1 C7.5,16.4 17,6.9 28.7,6.9 C40.4,6.9 49.9,16.4 49.9,28.1 Z"/>
          <g transform="translate(72 5)">
            <g fill="#FFF" transform="translate(0 32)">
              <path d="M3.7.4L57.8.4C59.7.4 61.2.6 61.2.9L61.2 4.1C61.2 4.4 59.7 4.6 57.8 4.6L3.7 4.6C1.8 4.6.3 4.4.3 4.1L.3.9C.3.6 1.8.4 3.7.4zM5.6 9.4L90.6 9.4C93.5 9.4 95.9 9.6 95.9 9.9L95.9 13.1C95.9 13.4 93.5 13.6 90.6 13.6L5.6 13.6C2.7 13.6.3 13.4.3 13.1L.3 9.9C.3 9.7 2.7 9.4 5.6 9.4z"/>
            </g>
            <polygon fill="#4AB6D6" points="11.5 23.3 22.7 23.3 17.1 11.9 11.5 .6 5.9 11.9 .3 23.3"/>
            <polygon fill="#128FD0" points="28.2 23.3 33.7 23.3 30.9 17.7 28.2 12.2 25.4 17.7 22.7 23.3"/>
          </g>
        </g>
        <g transform="translate(0 139)">
          <path fill="#FFF" d="M56.6,28.4 C56.6,43.8 44.1,56.3 28.7,56.3 C13.3,56.3 0.8,43.8 0.8,28.4 C0.8,13 13.3,0.5 28.7,0.5 C44.1,0.5 56.6,13 56.6,28.4 Z"/>
          <path fill="#4AB6D6" d="M49.9,28.4 C49.9,40.1 40.4,49.6 28.7,49.6 C17,49.6 7.5,40.1 7.5,28.4 C7.5,16.7 17,7.2 28.7,7.2 C40.4,7.2 49.9,16.7 49.9,28.4 Z"/>
          <g transform="translate(75 4)">
            <path fill="#FFF" d="M3.6 35.4L57.7 35.4C59.6 35.4 61.1 35.6 61.1 35.9L61.1 39.1C61.1 39.4 59.6 39.6 57.7 39.6L3.6 39.6C1.7 39.6.2 39.4.2 39.1L.2 35.9C.2 35.6 1.8 35.4 3.6 35.4zM5.5 44.4L90.5 44.4C93.4 44.4 95.8 44.6 95.8 44.9L95.8 48.1C95.8 48.4 93.4 48.6 90.5 48.6L5.5 48.6C2.6 48.6.2 48.4.2 48.1L.2 44.9C.2 44.6 2.6 44.4 5.5 44.4z"/>
            <g fill="#066F8B">
              <path d="M19.8,6.1 L4.5,6.1 C2.2,6.1 0.3,8 0.3,10.3 L0.3,25.6 C0.3,27.9 2.2,29.8 4.5,29.8 L19.8,29.8 C22.1,29.8 24,27.9 24,25.6 L24,10.3 C24,8 22.1,6.1 19.8,6.1 Z M22.7,24.4 C22.7,26.7 20.8,28.6 18.5,28.6 L5.8,28.6 C3.5,28.6 1.6,26.7 1.6,24.4 L1.6,11.7 C1.6,9.4 3.5,7.5 5.8,7.5 L18.5,7.5 C20.8,7.5 22.7,9.4 22.7,11.7 L22.7,24.4 Z"/>
              <path d="M23.9,1.1 L11.1,14.4 L9.1,20.3 L9.2,20.4 L9.3,20.5 L15.1,18.3 L28,5 C29.1,3.9 29,2.1 27.9,1 C26.8,2.22044605e-16 25,2.22044605e-16 23.9,1.1 Z"/>
            </g>
          </g>
        </g>
      </g>
      <g transform="translate(113 302)">
        <path fill="#4AB6D6" d="M61,0.9 L0.9,0.9 C0.5,0.9 0.2,1.2 0.2,1.6 L0.2,23.6 C0.2,24 0.5,24.3 0.9,24.3 L24.3,24.3 L26.2,27.6 L29.9,34.1 L33.6,27.6 L35.5,24.3 L61,24.3 C61.4,24.3 61.7,24 61.7,23.6 L61.7,1.6 C61.7,1.2 61.4,0.9 61,0.9 Z"/>
        <g fill="#FFF" transform="translate(16 9)">
          <polygon points="1.6 2 .2 2 .2 1 4.3 1 4.3 2 2.8 2 2.8 6.3 1.6 6.3"/>
          <path d="M9.6 3.6C9.6 5.4 8.5 6.4 7 6.4 5.4 6.4 4.5 5.2 4.5 3.7 4.5 2.1 5.5.9 7.1.9 8.7.9 9.6 2.2 9.6 3.6zM5.8 3.7C5.8 4.7 6.3 5.5 7.1 5.5 7.9 5.5 8.4 4.7 8.4 3.7 8.4 2.7 7.9 1.9 7.1 1.9 6.2 1.9 5.8 2.7 5.8 3.7zM15.3 3.6C15.3 5.4 14.2 6.4 12.7 6.4 11.1 6.4 10.2 5.2 10.2 3.7 10.2 2.1 11.2.9 12.8.9 14.4.9 15.3 2.2 15.3 3.6zM11.4 3.7C11.4 4.7 11.9 5.5 12.7 5.5 13.5 5.5 14 4.7 14 3.7 14 2.7 13.5 1.9 12.7 1.9 11.9 1.9 11.4 2.7 11.4 3.7z"/>
          <polygon points="16.1 1 17.3 1 17.3 5.3 19.4 5.3 19.4 6.3 16.1 6.3 16.1 1"/>
          <polygon points="22.5 2 21 2 21 1 25.1 1 25.1 2 23.6 2 23.6 6.3 22.4 6.3 22.4 2"/>
          <polygon points="27 1 27 6.3 25.8 6.3 25.8 1"/>
          <path d="M28.1,1.1 C28.5,1 29,1 29.7,1 C30.4,1 31,1.1 31.3,1.4 C31.6,1.7 31.9,2.1 31.9,2.6 C31.9,3.1 31.7,3.6 31.4,3.9 C31,4.3 30.4,4.5 29.7,4.5 C29.5,4.5 29.4,4.5 29.3,4.5 L29.3,6.4 L28.1,6.4 L28.1,1.1 Z M29.3,3.5 C29.4,3.5 29.5,3.5 29.7,3.5 C30.3,3.5 30.7,3.2 30.7,2.6 C30.7,2.1 30.4,1.8 29.8,1.8 C29.6,1.8 29.4,1.8 29.3,1.8 L29.3,3.5 Z"/>
        </g>
      </g>
      <g transform="translate(32 301)">
        <path fill="#FFF" d="M61.5,0.1 L1.4,0.1 C1,0.1 0.7,0.4 0.7,0.8 L0.7,22.8 C0.7,23.2 1,23.5 1.4,23.5 L24.8,23.5 L26.7,26.8 L30.4,33.3 L34.1,26.8 L36,23.5 L61.4,23.5 C61.8,23.5 62.1,23.2 62.1,22.8 L62.1,0.8 C62.1,0.4 61.8,0.1 61.5,0.1 Z"/>
        <g fill="#4AB6D6" transform="translate(13 7)">
          <polygon points="1.4 1.3 0 1.3 0 .3 4.1 .3 4.1 1.3 2.6 1.3 2.6 5.6 1.4 5.6"/>
          <path d="M9.4 2.9C9.4 4.7 8.3 5.7 6.8 5.7 5.2 5.7 4.3 4.5 4.3 3 4.3 1.4 5.3.2 6.9.2 8.5.2 9.4 1.5 9.4 2.9zM5.5 3C5.5 4 6 4.8 6.8 4.8 7.6 4.8 8.1 4 8.1 3 8.1 2 7.6 1.2 6.8 1.2 6 1.2 5.5 2 5.5 3zM15.1 2.9C15.1 4.7 14 5.7 12.5 5.7 10.9 5.7 10 4.5 10 3 10 1.4 11 .2 12.6.2 14.2.2 15.1 1.5 15.1 2.9zM11.2 3C11.2 4 11.7 4.8 12.5 4.8 13.3 4.8 13.8 4 13.8 3 13.8 2 13.3 1.2 12.5 1.2 11.7 1.2 11.2 2 11.2 3z"/>
          <polygon points="15.9 .3 17.1 .3 17.1 4.6 19.2 4.6 19.2 5.6 15.9 5.6 15.9 .3"/>
          <polygon points="22.3 1.3 20.9 1.3 20.9 .3 25 .3 25 1.3 23.5 1.3 23.5 5.6 22.3 5.6"/>
          <polygon points="26.8 .3 26.8 5.6 25.6 5.6 25.6 .3"/>
          <path d="M27.8,0.4 C28.2,0.3 28.7,0.3 29.4,0.3 C30.1,0.3 30.7,0.4 31,0.7 C31.3,1 31.6,1.4 31.6,1.9 C31.6,2.4 31.4,2.9 31.1,3.2 C30.7,3.6 30.1,3.8 29.4,3.8 C29.2,3.8 29.1,3.8 29,3.8 L29,5.7 L27.8,5.7 L27.8,0.4 Z M29,2.8 C29.1,2.8 29.2,2.8 29.4,2.8 C30,2.8 30.4,2.5 30.4,1.9 C30.4,1.4 30.1,1.1 29.5,1.1 C29.3,1.1 29.1,1.1 29,1.1 L29,2.8 Z"/>
        </g>
      </g>
    </g>
    <g opacity=".31" transform="translate(337 47)">
      <rect width="108.2" height="182.9" y=".7" fill="#DFD3FA"/>
      <rect width="74.7" height="182.9" x="128" y=".7" fill="#060808"/>
      <rect width="74.7" height="146.3" x="128" y=".7" fill="#060808"/>
      <rect width="74.7" height="182.9" x="128" y=".7" fill="#624FB5"/>
      <rect width="74.7" height="65.5" x="128" y="197.4" fill="#624FB5"/>
      <rect width="74.7" height="32" x="129.6" y="272" fill="#624FB5"/>
      <rect width="74.7" height="146.3" x="128" y=".7" fill="#DDD6FF"/>
      <rect width="94.5" height="58.5" x="6.9" y="10" fill="#F5F3FF"/>
      <rect width="79.3" height="9" x="14.5" y="83.9" fill="#FFF"/>
      <rect width="79.3" height="9" x="14.5" y="99.9" fill="#FFF"/>
      <rect width="79.3" height="9" x="14.5" y="115.9" fill="#FFF"/>
      <rect width="79.3" height="9" x="14.5" y="131.9" fill="#FFF"/>
      <rect width="100.6" height="9" x="1.5" y="190.6" fill="#DDD6FF"/>
      <rect width="100.6" height="9" x="1.5" y="206.6" fill="#DDD6FF"/>
      <rect width="100.6" height="9" x="1.5" y="222.6" fill="#DDD6FF"/>
      <rect width="100.6" height="9" x="1.5" y="238.6" fill="#DDD6FF"/>
      <rect width="79.3" height="13.9" x="14.5" y="155.4" fill="#FFF"/>
      <rect width="96" height="68.6" x="2.3" y="256" fill="#CFC9E9"/>
      <rect width="80.8" height="2.8" x="9.9" y="267.5" fill="#FFF"/>
      <rect width="65.5" height="2.8" x="25.2" y="274.9" fill="#FFF"/>
      <rect width="80.8" height="2.8" x="9.9" y="282.3" fill="#FFF"/>
      <rect width="80.8" height="2.8" x="9.9" y="297.1" fill="#FFF"/>
      <rect width="61" height="2.8" x="29.7" y="304.5" fill="#FFF"/>
      <rect width="80.8" height="2.8" x="9.9" y="311.9" fill="#FFF"/>
      <rect width="59.4" height="3.4" x="135.7" y="15.7" fill="#FFF"/>
      <rect width="59.4" height="3.4" x="135.7" y="25.9" fill="#FFF"/>
      <rect width="59.4" height="3.4" x="135.7" y="36.2" fill="#FFF"/>
      <rect width="59.4" height="3.4" x="135.7" y="46.5" fill="#FFF"/>
      <rect width="59.4" height="3.4" x="135.7" y="67.1" fill="#FFF"/>
    </g>
    <g opacity=".31" transform="translate(16 45)">
      <rect width="73" height="31.3" x="2.1" y="192.2" fill="#624FB5"/>
      <rect width="73" height="31.3" x=".6" y="274.1" fill="#624FB5"/>
      <rect width="58.1" height="3.3" x="8.8" y="230.9" fill="#CFC9E9"/>
      <rect width="58.1" height="3.3" x="8.8" y="240.9" fill="#CFC9E9"/>
      <rect width="58.1" height="3.3" x="8.8" y="251" fill="#CFC9E9"/>
      <rect width="43.2" height="3.3" x="16.2" y="261" fill="#CFC9E9"/>
      <rect width="73" height="178.8" x="1.3" fill="#9BD0ED"/>
      <rect width="73" height="143" x="1.3" fill="#9BD0ED"/>
      <rect width="73" height="178.8" x="1.3" fill="#DDD6FF"/>
      <rect width="73" height="143" x="1.3" fill="#9570EE"/>
      <rect width="58.1" height="3.3" x="8.8" y="14.6" fill="#D5D5D6"/>
      <rect width="58.1" height="3.3" x="8.8" y="24.6" fill="#D5D5D6"/>
      <rect width="58.1" height="3.3" x="8.8" y="34.7" fill="#D5D5D6"/>
      <rect width="58.1" height="3.3" x="8.8" y="44.7" fill="#D5D5D6"/>
      <rect width="58.1" height="3.3" x="8.8" y="64.8" fill="#D5D5D6"/>
      <rect width="58.1" height="3.3" x="8.8" y="84.9" fill="#D5D5D6"/>
      <rect width="58.1" height="3.3" x="8.8" y="94.9" fill="#D5D5D6"/>
      <rect width="58.1" height="3.3" x="8.8" y="105" fill="#D5D5D6"/>
      <rect width="43.2" height="3.3" x="16.2" y="115" fill="#D5D5D6"/>
      <rect width="16.4" height="7.4" x="11.7" y="287.5" fill="#F5F3FF"/>
    </g>
    <g transform="translate(350 262)">
      <path fill="#52B5D9" d="M113.3,23.1 C113.3,23.1 64.8,36.3 40.7,25.1 C16.5,13.9 1.9,4.9 7.3,26.4 C7.3,26.4 0.4,42.4 2.7,57.3 C5,72.3 3.2,83.4 2.2,91.5 C1.2,99.6 -3.9,106.8 9.9,112.6 C9.9,112.6 2.1,145 8.2,155.6 C8.2,155.6 15.1,151.2 39.5,157.8 C63.9,164.4 148.8,152.9 165.2,142.6 C181.6,132.2 185.3,135.4 179.6,129.9 C173.8,124.4 164.4,87.9 138.7,86.6 L122.4,53.4 C122.4,53.3 111.5,30.1 113.3,23.1 Z"/>
      <path fill="#9BD0ED" d="M29.5,126.4 C29.5,126.4 41.3,121.2 58,128.7 C74.7,136.2 133.4,120.8 133.4,120.8 C133.4,120.8 172.4,106.9 157.5,101.1 C142.5,95.3 122.4,98.5 122.4,98.5 L66.3,110.2 C66.3,110.2 26,97.6 24,111.7 L36.4,115.2 C36.4,115.1 28.9,120 29.5,126.4 Z"/>
      <path fill="#9BD0ED" d="M104.2,36.6 C104.2,36.6 62,40.3 46.1,35.3 C30.3,30.3 24,29.1 21.4,29.4 C18.8,29.7 16.5,75.4 18.2,82.3 C18.2,82.3 27.4,74 36.6,78.6 C36.6,78.6 29.1,78 28,87.8 C28,87.8 35.8,82 43.2,82.3 C43.2,82.3 33.7,88.3 33.1,89.9 C32.5,91.5 42.9,89.9 42.9,89.9 L31.4,98.4 L62.2,98.4 L59.4,101 C59.4,101 32.3,98.1 21.9,103.9 C11.5,109.7 13,115.1 13,115.1 C13,115.1 12.5,95.9 67.9,106 C123.3,116 127.4,77.2 127.4,77.2 C127.4,77.2 102.5,44.4 104.2,36.6 Z"/>
      <path fill="#A96250" d="M150.4,164.5 C150.4,164.5 141,164.6 137.2,163.8 C133.5,163 125.8,165.2 124.7,161.3 C124.1,159.2 124.7,156.1 125.5,153.1 C126.2,150.4 126.9,147.8 126.9,146.3 C126.9,143.1 131.5,143.8 131.5,143.8 C131.5,143.8 141.4,154.5 148.2,156 C148.4,156.1 148.7,156.1 148.9,156.2 C155.5,157.6 161,162.1 150.4,164.5 Z"/>
      <path fill="#245575" d="M150.4,164.5 C150.4,164.5 141,164.6 137.2,163.8 C133.5,163 125.8,165.2 124.7,161.3 C124.1,159.2 124.7,156.1 125.5,153.1 C127.7,154.5 131.9,157.2 133.9,158.6 C136.5,160.5 148.2,160.9 149,156 C155.5,157.6 161,162.1 150.4,164.5 Z"/>
      <path fill="#A96250" d="M168.6,167 C168.6,167 159.2,167.1 155.4,166.3 C151.7,165.5 144,167.7 142.9,163.8 C142.3,161.7 142.9,158.6 143.7,155.6 C144.4,152.9 145.1,150.3 145.1,148.8 C145.1,145.6 149.7,146.3 149.7,146.3 C149.7,146.3 159.6,157 166.4,158.5 C166.6,158.6 166.9,158.6 167.1,158.7 C173.7,160.2 179.1,164.7 168.6,167 Z"/>
      <path fill="#2E4962" d="M168.6,167 C168.6,167 159.2,167.1 155.4,166.3 C151.7,165.5 144,167.7 142.9,163.8 C142.3,161.7 142.9,158.6 143.7,155.6 C145.9,157 150.1,159.7 152.1,161.1 C154.7,163 166.4,163.4 167.2,158.5 C173.7,160.2 179.1,164.7 168.6,167 Z"/>
      <path fill="#245575" d="M132.8,82.4 C132.8,82.4 157,83.9 149.5,103.7 C142,123.4 136.5,148 136.5,148 L126.5,146.5 L127.7,104.1 L126.5,89.7 L132.8,82.4 Z"/>
      <path fill="#2E4962" d="M60.7,97.7 C60.7,97.7 56.9,140.2 110.2,108.1 C110.2,108.1 118.8,103.8 120.4,105.8 C121.9,107.7 124,130.5 144.4,150.5 L152.6,147.2 C152.6,147.2 139.6,111.5 138.6,106.4 C137.6,101.2 138.6,88.6 132.7,86.3 C126.8,84 76.9,86.3 76.9,86.3 L60.7,97.7 Z"/>
      <path fill="#A96250" d="M95.9,62.2 C96.7,64.6 98.4,68.3 101.7,71.8 C108.7,79 117.7,79.7 120.1,79.9 L120.1,84.3 C120.1,84.3 102.3,84.2 96.9,80 C95.2,78.6 86.6,73.2 88.1,67.8 C89.2,63.9 94.7,62.4 95.9,62.2 Z"/>
      <path fill="#FEFCFD" d="M90.3,72.7 C91.2,74.1 97.8,86.5 97.8,86.5 C87.9,87.5 77.6,93.6 70.1,99 C63.5,103.8 59.2,108 59.2,108 C53.9,92.9 59.1,74.5 59.1,74.5 C59.1,74.5 48.2,46.3 49.2,45.6 C49.5,45.4 50.7,44.6 52.4,43.5 C54.8,42 58.2,39.8 60.9,38.1 C61.3,39.1 61.4,40.5 61.1,42.3 C59.8,49.9 66.2,53.9 70.3,53.1 C70.9,53 71.4,52.8 71.9,52.5 C73.1,51.7 73.9,50 74.4,47.6 C74.9,45.4 75.1,42.7 75.2,39.8 C75.8,39.9 76.4,39.9 77.1,39.9 C87,40.3 92.3,48.4 92.3,48.4 L93.3,51.1 L98.9,66 L90.3,72.7 Z"/>
      <path fill="#FEFCFD" d="M75.2,40 C75.2,42.9 74.9,45.6 74.4,47.8 C73.9,50.2 73,51.9 71.9,52.7 C71.4,53 70.9,53.2 70.3,53.3 C66.1,54.1 59.8,50.1 61.1,42.5 C61.4,40.6 61.3,39.3 60.9,38.3 C62.2,37.5 63.4,36.8 64.2,36.2 C65,35.7 65.6,35.4 65.6,35.4 C65.6,35.4 66.9,39.1 75.2,40 Z"/>
      <path fill="#043D68" d="M96.7,10.2 C96.7,10.2 96.2,11.7 95.1,13.5 C92.6,17.6 86.9,23.6 77.1,18.6 C77.1,18.6 72.8,17.5 74.3,27.4 C75.4,34.2 75.6,42.4 74.5,47.7 C74,50.1 73.1,51.8 72,52.6 C71.5,52.9 71,53.1 70.4,53.2 C65.6,42.6 62.4,29.5 62.4,29.5 L67,8.3 L96.7,10.2 Z"/>
      <path fill="#043D68" d="M92.8439283,51.2163291 L91.8953626,48.5363629 C91.8953626,48.5363629 86.8679646,40.4964644 77.4771645,40.0994324 C76.8131685,40.0994324 76.2440291,40.0001744 75.6748897,40.0001744 C75.7697463,35.9305961 75.39032,31.5632438 74.8211806,27.5929235 C73.3983321,17.7663809 77.4771645,18.858219 77.4771645,18.858219 C86.773108,23.8211193 92.1799323,17.8656389 94.5513465,13.7960606 C95.5947687,12.0094165 96.0690515,10.5205464 96.0690515,10.5205464 L67.8017947,8.73390232 L63.4383926,29.7765997 C63.4383926,29.7765997 64.1023886,32.4565659 65.1458108,36.3276281 C66.4738028,40.9927544 68.4657907,47.5437829 71.026918,53.3007472 C67.0429422,54.0948113 61.0669785,50.124491 62.3001138,42.5808825 C62.5846835,40.6949804 62.489827,39.4046263 62.1104007,38.4120463 C60.7824088,34.640242 56.4190067,34.938016 58.6007077,28.7840196 C61.3515482,20.9426371 59.8338431,13.6968026 64.1023886,8.33687029 C68.2760775,2.97693794 81.4611403,-3.17705846 88.3856696,1.88509987 C95.0256293,6.84800019 105.744421,13.0019966 92.8439283,51.2163291 Z"/>
      <path fill="#A96250" d="M93.1,21.2 C90.1,27.1 91.2,31.3 91.2,31.3 L87.5,31.3 C87.5,31.3 85.5,37.3 78.4,35.1 L78.4,39.8 C78.4,39.8 86.5,50.9 75.6,48.1 C75.2,48 74.8,47.9 74.4,47.7 C75.6,42.4 75.3,34.2 74.2,27.4 C72.7,17.5 77,18.6 77,18.6 C86.8,23.6 92.5,17.6 95,13.5 C95.1,15 94.9,17.7 93.1,21.2 Z"/>
      <path fill="#E0E0E0" d="M70.1,99.1 C63.5,103.9 59.2,108.1 59.2,108.1 C53.9,93 59.1,74.6 59.1,74.6 C59.1,74.6 48.2,46.4 49.2,45.7 C49.5,45.5 50.7,44.7 52.4,43.6 C56.2,45.1 62.3,50.1 69.1,65.5 C69,65.5 65.3,83.1 70.1,99.1 Z"/>
      <path fill="#A96250" d="M63.9,67.7 C63.9,67.7 69.1,75 69.6,77.2 C70.1,79.4 96.3,82.7 96.9,82.6 C97.5,82.5 102.9,79.6 107.6,83.7 C112.3,87.8 89.8,87.4 89.8,87.4 L66.3,87 C66.3,87 56.5,82 54,73.3 C51.6,64.6 63.9,67.7 63.9,67.7 Z"/>
      <path fill="#FEFCFD" d="M49.1,45.7 C49.1,45.7 37.5,48.4 53.4,75.9 L66.3,68 C66.3,68 59,39.4 49.1,45.7 Z"/>
      <path fill="#E1DEE4" d="M88.1,48.6 C88.1,48.6 93.2,58.9 89.9,68.9 L90,71.1 L96.5,66.2 C96.5,66.2 90.8,47 88.1,48.6 Z"/>
      <polygon fill="#8982BC" points="117.3 82.4 88.1 88.9 88.1 90.8 113.3 93.3"/>
      <polygon fill="#E1DEE4" points="117.3 84.2 96.7 88.8 116.6 90"/>
      <polygon fill="#8982BC" points="119.5 62.4 153.4 58.9 146.5 87.3 113.3 93.3"/>
    </g>
    <g transform="translate(0 213)">
      <path fill="#007492" d="M78,287.9 C78,287.9 94.8,297.6 100.5,295.7 C103,294.9 100.9,292.2 97.9,289.5 C89.2,287.7 83.5,284.3 80.3,281.9 C79.1,283.3 78,287.9 78,287.9 Z"/>
      <path fill="#F0A991" d="M97.8,289.5 C94,286.2 88.8,282.9 88.8,282.9 C88.8,282.9 95.9,265.7 96,265.1 L86.5,261.6 C86.5,261.6 81.8,280.6 80.5,281.7 C80.4,281.8 80.3,281.9 80.2,282 C83.5,284.3 89.1,287.6 97.8,289.5 Z"/>
      <path fill="#007492" d="M0.8,254 C0.8,254 7.1,272.3 12.6,274.7 C15.1,275.7 15.2,272.4 14.7,268.3 C9.3,261.2 7.3,254.9 6.5,251 C4.6,251.3 0.8,254 0.8,254 Z"/>
      <path fill="#F0A991" d="M14.7,268.3 C14,263.3 12.3,257.4 12.3,257.4 C12.3,257.4 28.9,249.1 29.4,248.7 L24.6,239.8 C24.6,239.8 8.5,251 6.9,251 C6.8,251 6.7,251 6.5,251 C7.3,254.9 9.3,261.2 14.7,268.3 Z"/>
      <path fill="#007492" d="M127.6,143.5 C127.6,143.5 129.2,200.9 98.5,266.9 C98.5,266.9 91.5,269.7 84.8,265 C78.2,260.3 93.7,226.3 93.7,226.3 C93.7,226.3 98.7,184 99.5,178.6 C100.3,173.2 92.8,221.2 29.8,249.9 C29.8,249.9 21.8,250.5 19.9,240.6 C17.9,230.8 61.7,219.2 73.1,180.2 C84.5,141.3 98.2,134.2 98.2,134.2 L127.6,143.5 Z"/>
      <path fill="#ECA7B1" d="M63.5 149.7L53.5 158.7C53.5 158.7 48.1 169.6 45.5 170.2 42.8 170.8 34.7 164.4 38.4 159.1 42.1 153.8 49.6 152.8 49.6 152.8L61.2 143.4 63.5 149.7zM154.8 22.3C154.8 22.3 154.2 5.9 155.2 2.4 156.2-1.1 156.9 2.6 156.9 2.6 156.9 2.6 157.4 7.9 157.4 10.5 159.4 10.3 164.2 11.9 164.2 11.9 165.9 12.6 161.4 24.1 161.4 24.1 161.4 24.1 157.9 46.4 157.6 47.3L149.2 45.5 154.8 22.3z"/>
      <path fill="#FE9887" d="M109.8,82.4 C109.8,82.4 125,90.4 135.9,73.6 C146.7,56.8 148.5,44.2 148.5,44.2 L159,46.7 C159,46.7 153.4,75.1 144.7,91.3 C136,107.5 131.6,126 133,131 C134.4,136 136.4,145.8 125.8,148.3 C115.3,150.8 84,145.6 84,145.6 L84.6,141.3 L81.5,137.1 C81.5,137.1 67.6,151.4 63.8,150.9 C59.9,150.4 57.9,144.1 57.9,144.1 C57.9,144.1 74.2,125.6 76.8,120.4 C79.4,115.2 89.1,91.2 93.7,86.7 C98.3,82.2 109.8,82.4 109.8,82.4 Z"/>
      <path fill="#E6A3A6" d="M118.9,60.6 C119.5,60.7 126.4,70.8 116.1,80.8 C105.8,90.8 118.9,60.6 118.9,60.6 Z"/>
      <path fill="#1F4D74" d="M89.7,77.8 C89.9,77.2 91.4,44.4 107.2,47.6 C123,50.8 123.4,61.5 118.9,72.9 C114.4,84.3 118.6,82.6 124.8,90.1 C131,97.6 128.3,129.6 103.7,124 C79.1,118.3 93.9,103.5 96.4,100.1 C99,96.7 86.1,92 89.7,77.8 Z"/>
    </g>
    <g transform="translate(535 296)">
      <path fill="#6CBEE1" d="M28,84.4 C30.4,81.3 24.6,79.8 38.6,67.3 C52.6,54.8 55.6,69.2 51.6,37.3 C47.6,5.4 67.7,14.8 65.2,4.3 C62.8,-6.3 43,10.3 37,21 C31,31.7 23.1,28.8 26.2,40.1 C29.3,51.5 27,54 27,54 C27,54 27.8,35 16,31.2 C4.3,27.4 -3.5,21.4 2.1,33.6 C7.7,45.8 10.9,54.6 9.6,58.9 C8.3,63.1 12.2,63.5 14.8,66 C17.5,68.6 13,79 18.5,82.2 C24.2,85.4 28,84.4 28,84.4 Z"/>
      <path fill="#DEEDF2" d="M27,85.4 C27.1,60.1 48.2,27.9 48.2,27.9 C48.2,27.9 28.4,47.2 26.5,75.5 L27,85.4 Z"/>
      <path fill="#DEEDF2" d="M27.3,87.3 C27.2,68 12.8,43.4 12.8,43.4 C12.8,43.4 26.4,58.2 27.6,79.8 L27.3,87.3 Z"/>
      <rect width="33" height="6.5" x="9.8" y="82.2" fill="#037193"/>
      <polygon fill="#037193" points="36.6 106.8 16.4 106.8 13.2 88.7 39.7 88.7"/>
    </g>
  </g>
</svg>
