<svg xmlns="http://www.w3.org/2000/svg" width="624" height="511" viewBox="0 0 624 511">
  <defs>
    <linearGradient id="services-a" x1="50.011%" x2="50.011%" y1="99.595%" y2="-.304%">
      <stop offset="0%" stop-color="#FFF" stop-opacity=".3"/>
      <stop offset="100%" stop-color="#FFF"/>
    </linearGradient>
    <linearGradient id="services-b" x1="49.891%" x2="49.891%" y1="100.472%" y2="-.106%">
      <stop offset="0%" stop-color="#FFF" stop-opacity=".3"/>
      <stop offset="100%" stop-color="#FFF"/>
    </linearGradient>
    <linearGradient id="services-c" x1="50.097%" x2="50.097%" y1="100.059%" y2=".258%">
      <stop offset="0%" stop-color="#FFF" stop-opacity=".3"/>
      <stop offset="100%" stop-color="#FFF"/>
    </linearGradient>
    <linearGradient id="services-d" x1="49.976%" x2="49.976%" y1="99.61%" y2="-.414%">
      <stop offset="0%" stop-color="#FFF" stop-opacity=".3"/>
      <stop offset="100%" stop-color="#FFF"/>
    </linearGradient>
    <linearGradient id="services-e" x1="49.969%" x2="49.969%" y1="99.837%" y2="-.401%">
      <stop offset="0%" stop-color="#FFF" stop-opacity=".3"/>
      <stop offset="100%" stop-color="#FFF"/>
    </linearGradient>
    <linearGradient id="services-f" x1="49.873%" x2="49.873%" y1="99.997%" y2=".347%">
      <stop offset="0%" stop-color="#FFF" stop-opacity=".3"/>
      <stop offset="100%" stop-color="#FFF"/>
    </linearGradient>
    <linearGradient id="services-g" x1="0%" y1="49.998%" y2="49.998%">
      <stop offset="0%" stop-color="#F577B6"/>
      <stop offset="100%" stop-color="#FF8262"/>
    </linearGradient>
    <linearGradient id="services-h" x1="50.059%" x2="50.059%" y1="91.431%" y2="12.397%">
      <stop offset="0%" stop-color="#F577B6"/>
      <stop offset="100%" stop-color="#FF8262"/>
    </linearGradient>
  </defs>
  <g fill="none" fill-rule="evenodd">
    <path fill="#CFDDF4" fill-rule="nonzero" d="M576.799073,484.107543 L53.1867752,484.107543 C50.3447338,484.107543 48.0440336,481.674842 48.0440336,478.66974 C48.0440336,475.664639 50.3447338,473.231938 53.1867752,473.231938 L576.663738,473.231938 C579.505779,473.231938 581.80648,475.664639 581.80648,478.66974 C581.941815,481.674842 579.641115,484.107543 576.799073,484.107543 Z"/>
    <path fill="#4836F6" fill-rule="nonzero" d="M577.47575,257.293929 L576.528403,232.537617 C583.701174,234.684118 591.415286,235.399618 598.858728,234.111718 C598.588058,235.828918 598.317387,237.689219 597.911381,239.40642 C587.490562,236.973719 581.80648,247.133824 577.47575,257.293929 Z"/>
    <path fill="#7736F6" fill-rule="nonzero" d="M597.776046,239.40642 C596.152022,246.561424 593.580651,253.573327 590.061933,259.869731 L578.423097,280.476141 L577.47575,257.150829 C581.80648,247.133824 587.490562,236.973719 597.776046,239.40642 Z"/>
    <g fill-rule="nonzero" transform="translate(405.757)">
      <path fill="url(#services-a)" d="M217.732949,73.4103369 C213.537555,67.2570338 201.763383,51.3729258 192.425247,49.2264247 C180.786411,46.6506234 178.485711,63.3933318 159.538768,43.2162217 C144.381213,27.0459136 124.757594,39.9249201 110.682722,54.0918272 C107.028669,57.812429 101.479922,58.2417293 97.4198623,55.0935277 C88.8937381,48.5109244 78.8789254,44.9334226 70.7588071,53.662527 C57.7666177,67.5432339 56.2779294,56.0952282 48.2931463,57.812429 C41.932387,59.2434298 33.9476039,70.1190352 31.1055625,74.2689373 C30.5642213,74.9844377 31.2408978,75.9861382 32.1882449,75.9861382 L81.7209669,75.9861382 L95.931174,75.9861382 L114.20144,75.9861382 L143.569202,75.9861382 L216.108926,75.9861382 C217.597614,75.8430381 218.544961,74.4120374 217.732949,73.4103369 Z"/>
      <path fill="url(#services-b)" d="M102.291933,26.6166134 C99.3145566,22.1805111 91.059103,11.0187055 84.5630083,9.58770482 C76.4428899,7.72740388 74.8188663,19.6047098 61.5560063,5.29470266 C49.7818347,-7.29810367 34.0829392,5.29470266 24.0681266,16.1703081 C18.5193791,19.7478099 17.0306907,14.4531073 12.4292903,15.4548078 C7.96322521,16.4565083 2.41447767,24.0408121 0.384448081,27.0459136 C-0.0215578363,27.6183139 0.519783387,28.1907142 1.19645992,28.1907142 L17.0306907,28.1907142 L36.1129688,28.1907142 L50.4585112,28.1907142 L58.8493002,28.1907142 L101.479922,28.1907142 C102.156598,28.3338142 102.833275,27.3321137 102.291933,26.6166134 Z"/>
      <path fill="url(#services-c)" d="M211.507525,21.3219107 C209.748166,18.7461094 205.01143,12.3066062 201.222042,11.4480058 C196.485306,10.4463052 195.537959,17.1720086 187.959182,9.01530453 C181.192417,1.71720086 172.124951,9.01530453 166.440868,15.3117077 C163.192821,17.4582088 162.380809,14.3100072 159.674103,14.8824075 C157.102732,15.4548078 153.854685,19.89091 152.636667,21.6081109 C152.365996,21.894311 152.636667,22.3236112 153.042673,22.3236112 L162.110139,22.3236112 L173.072298,22.3236112 L181.327752,22.3236112 L186.199823,22.3236112 L210.695513,22.3236112 C211.37219,22.3236112 211.778196,21.7512109 211.507525,21.3219107 Z"/>
    </g>
    <g fill-rule="nonzero" transform="translate(0 1.431)">
      <path fill="url(#services-d)" d="M158.342308,50.9436256 C154.958925,46.0782231 145.89146,33.6285169 138.583353,32.0544161 C129.515888,30.0510151 127.756529,43.2162217 112.869645,27.3321137 C100.960138,14.5962073 85.6672486,24.7563124 74.5697535,35.775018 C71.7277121,38.6370194 67.261647,39.0663196 64.1489349,36.6336184 C57.3821697,31.4820158 49.5327219,28.7631144 43.3072979,35.4888178 C33.1571499,46.3644233 31.9391322,37.3491188 25.7137081,38.7801195 C20.7063018,39.9249201 14.4808777,48.3678243 12.1801775,51.659126 C11.7741716,52.2315262 12.3155128,52.9470266 12.9921894,52.9470266 L51.8334221,52.9470266 L62.9309172,52.9470266 L77.1411243,52.9470266 L100.148126,52.9470266 L156.988955,52.9470266 C158.206972,52.8039265 159.018984,51.802226 158.342308,50.9436256 Z"/>
      <path fill="url(#services-e)" d="M61.5775641,20.8926105 C59.2768639,17.4582088 52.7807693,8.72910439 47.6380276,7.58430381 C41.2772683,6.15330309 40.0592505,15.4548078 29.5030967,4.29300216 C20.3002959,-5.5809028 7.98478304,4.29300216 0.135335306,12.8790065 C0.135335306,12.8790065 0,12.8790065 0,12.8790065 L0,22.3236112 L60.630217,22.3236112 C61.4422288,22.3236112 61.9835701,21.4650108 61.5775641,20.8926105 Z"/>
      <path fill="url(#services-f)" d="M72.6750592,77.4171389 C71.3217062,75.4137379 67.6676529,70.4052354 64.6902762,69.689735 C61.0362229,68.8311346 60.2242111,74.2689373 54.2694576,67.8294341 C48.9913807,62.1054312 41.8186095,67.8294341 37.3525444,72.6948365 C34.9165089,74.2689373 34.1044971,71.9793362 32.0744675,72.4086364 C30.0444379,72.8379366 27.4730671,76.2723383 26.6610552,77.703339 C26.5257199,77.9895392 26.6610552,78.2757393 27.0670612,78.2757393 L34.2398324,78.2757393 L42.7659566,78.2757393 L49.2620513,78.2757393 L53.0514399,78.2757393 L72.2690533,78.2757393 C72.5397239,78.2757393 72.8103945,77.8464391 72.6750592,77.4171389 Z"/>
    </g>
    <g fill-rule="nonzero" transform="translate(554.875 264.735)">
      <path fill="#F577B6" d="M5.27807693,24.7563124 L62.9309172,24.7563124 C65.502288,24.7563124 67.6676529,22.4667113 67.6676529,19.7478099 L67.6676529,5.43780273 C67.6676529,2.71890137 65.502288,0.429300216 62.9309172,0.429300216 L5.27807693,0.429300216 C2.70670612,0.429300216 0.541341223,2.71890137 0.541341223,5.43780273 L0.541341223,19.7478099 C0.541341223,22.4667113 2.57137081,24.7563124 5.27807693,24.7563124 Z"/>
      <path fill="#FFF" d="M49.9387278,20.1771101 L60.2242111,20.1771101 C61.8482347,20.1771101 63.0662525,18.7461094 63.0662525,17.1720086 L63.0662525,8.29980417 C63.0662525,6.58260331 61.7128994,5.29470266 60.2242111,5.29470266 L49.9387278,5.29470266 C48.3147042,5.29470266 47.0966864,6.72570338 47.0966864,8.29980417 L47.0966864,17.1720086 C47.0966864,18.8892095 48.3147042,20.1771101 49.9387278,20.1771101 Z"/>
      <g fill="#001D47" opacity=".12" transform="translate(8.12 8.288)">
        <path d="M1.89469428.155157284L31.6684616.155157284C32.3451381.155157284 32.8864793.727557572 32.8864793 1.44305793 32.8864793 2.15855829 32.3451381 2.73095858 31.6684616 2.73095858L1.89469428 2.73095858C1.21801775 2.73095858.676676529 2.15855829.676676529 1.44305793.676676529.727557572 1.21801775.155157284 1.89469428.155157284zM17.1875838 5.73606009L31.6684616 5.73606009C32.3451381 5.73606009 32.8864793 6.30846038 32.8864793 7.02396073 32.8864793 7.73946109 32.3451381 8.31186138 31.6684616 8.31186138L17.1875838 8.31186138C16.5109073 8.31186138 15.9695661 7.73946109 15.9695661 7.02396073 15.9695661 6.30846038 16.5109073 5.73606009 17.1875838 5.73606009z"/>
      </g>
      <g transform="translate(0 34.046)">
        <path fill="#DDD6FF" d="M5.27807693,24.4821695 L62.9309172,24.4821695 C65.502288,24.4821695 67.6676529,22.1925684 67.6676529,19.473667 L67.6676529,5.1636598 C67.6676529,2.44475843 65.502288,0.155157284 62.9309172,0.155157284 L5.27807693,0.155157284 C2.70670612,0.155157284 0.541341223,2.44475843 0.541341223,5.1636598 L0.541341223,19.473667 C0.541341223,22.1925684 2.57137081,24.4821695 5.27807693,24.4821695 Z"/>
        <path fill="#E0E9F8" d="M49.9387278,19.9029672 L60.2242111,19.9029672 C61.8482347,19.9029672 63.0662525,18.4719665 63.0662525,16.8978657 L63.0662525,8.02566124 C63.0662525,6.30846038 61.7128994,5.02055973 60.2242111,5.02055973 L49.9387278,5.02055973 C48.3147042,5.02055973 47.0966864,6.45156045 47.0966864,8.02566124 L47.0966864,16.8978657 C47.0966864,18.6150666 48.3147042,19.9029672 49.9387278,19.9029672 Z"/>
        <g fill="#001D47" opacity=".12" transform="translate(8.12 7.453)">
          <path d="M1.89469428.715500359L31.6684616.715500359C32.3451381.715500359 32.8864793 1.28790065 32.8864793 2.00340101 32.8864793 2.71890137 32.3451381 3.29130165 31.6684616 3.29130165L1.89469428 3.29130165C1.21801775 3.29130165.676676529 2.71890137.676676529 2.00340101.676676529 1.28790065 1.21801775.715500359 1.89469428.715500359zM17.1875838 6.29640316L31.6684616 6.29640316C32.3451381 6.29640316 32.8864793 6.86880345 32.8864793 7.58430381 32.8864793 8.29980417 32.3451381 8.87220446 31.6684616 8.87220446L17.1875838 8.87220446C16.5109073 8.87220446 15.9695661 8.29980417 15.9695661 7.58430381 15.9695661 6.86880345 16.5109073 6.29640316 17.1875838 6.29640316z"/>
        </g>
      </g>
      <g transform="translate(0 67.257)">
        <path fill="#7736F6" d="M5.27807693,24.8994125 L62.9309172,24.8994125 C65.502288,24.8994125 67.6676529,22.6098114 67.6676529,19.89091 L67.6676529,5.5809028 C67.6676529,2.86200144 65.502288,0.572400288 62.9309172,0.572400288 L5.27807693,0.572400288 C2.70670612,0.572400288 0.541341223,2.86200144 0.541341223,5.5809028 L0.541341223,19.89091 C0.541341223,22.7529114 2.57137081,24.8994125 5.27807693,24.8994125 Z"/>
        <path fill="#FFF" d="M49.9387278,20.4633103 L60.2242111,20.4633103 C61.8482347,20.4633103 63.0662525,19.0323096 63.0662525,17.4582088 L63.0662525,8.58600431 C63.0662525,6.86880345 61.7128994,5.5809028 60.2242111,5.5809028 L49.9387278,5.5809028 C48.3147042,5.5809028 47.0966864,7.01190352 47.0966864,8.58600431 L47.0966864,17.4582088 C47.0966864,19.0323096 48.3147042,20.4633103 49.9387278,20.4633103 Z"/>
        <g fill="#001D47" opacity=".12" transform="translate(8.12 8.586)">
          <path d="M1.89469428.143100072L31.6684616.143100072C32.3451381.143100072 32.8864793.715500359 32.8864793 1.43100072 32.8864793 2.14650108 32.3451381 2.71890137 31.6684616 2.71890137L1.89469428 2.71890137C1.21801775 2.71890137.676676529 2.14650108.676676529 1.43100072.676676529.715500359 1.21801775.143100072 1.89469428.143100072zM17.1875838 5.72400288L31.6684616 5.72400288C32.3451381 5.72400288 32.8864793 6.29640316 32.8864793 7.01190352 32.8864793 7.72740388 32.3451381 8.29980417 31.6684616 8.29980417L17.1875838 8.29980417C16.5109073 8.29980417 15.9695661 7.72740388 15.9695661 7.01190352 15.9695661 6.29640316 16.5109073 5.72400288 17.1875838 5.72400288z"/>
        </g>
      </g>
    </g>
    <path fill="#FF9272" fill-rule="nonzero" d="M89.5919724,371.201586 L112.73431,388.373595 C114.493669,389.661496 115.170345,392.237297 114.358333,394.383798 C113.275651,397.102699 110.298274,398.2475 107.726903,396.816499 L85.2612427,383.937493 L89.5919724,371.201586 Z"/>
    <path fill="#DDD6FF" fill-rule="nonzero" d="M571.11499,467.221735 L105.561539,467.221735 C99.6067851,467.221735 94.7347141,462.070132 94.7347141,455.773729 L94.7347141,128.503865 C94.7347141,122.207461 99.6067851,117.055859 105.561539,117.055859 L571.11499,117.055859 C577.069744,117.055859 581.941815,122.207461 581.941815,128.503865 L581.941815,455.773729 C581.941815,462.070132 577.069744,467.221735 571.11499,467.221735 Z"/>
    <g fill-rule="nonzero" transform="translate(472.32 256.15)">
      <path fill="#FFF" d="M88.7799606,65.5398329 L4.33072979,65.5398329 C2.3007002,65.5398329 0.541341223,63.8226321 0.541341223,61.5330309 L0.541341223,4.29300216 C0.541341223,2.14650108 2.16536489,0.286200144 4.33072979,0.286200144 L88.7799606,0.286200144 C90.8099902,0.286200144 92.5693492,2.00340101 92.5693492,4.29300216 L92.5693492,61.5330309 C92.5693492,63.8226321 90.8099902,65.5398329 88.7799606,65.5398329 Z"/>
      <path fill="#E0E9F8" d="M82.6898718,55.3797278 L10.5561539,55.3797278 C9.3381361,55.3797278 8.25545365,54.3780273 8.25545365,52.9470266 L8.25545365,36.7767185 C8.25545365,35.4888178 9.20280079,34.3440173 10.5561539,34.3440173 L82.6898718,34.3440173 C83.9078896,34.3440173 84.990572,35.3457178 84.990572,36.7767185 L84.990572,52.9470266 C84.8552367,54.3780273 83.9078896,55.3797278 82.6898718,55.3797278 Z"/>
      <g fill="#C2C9E9" transform="translate(71.374 7.155)">
        <path d="M1.70670612.286200144C2.65405326.286200144 3.33072979 1.0017005 3.33072979 2.00340101 3.33072979 3.00510151 2.65405326 3.72060187 1.70670612 3.72060187.759358975 3.72060187.0826824464 3.00510151.0826824464 2.00340101.0826824464 1.0017005.759358975.286200144 1.70670612.286200144zM7.66145957.286200144C8.60880671.286200144 9.28548324 1.0017005 9.28548324 2.00340101 9.28548324 3.00510151 8.60880671 3.72060187 7.66145957 3.72060187 6.71411243 3.72060187 6.0374359 3.00510151 6.0374359 2.00340101 6.0374359 1.0017005 6.71411243.286200144 7.66145957.286200144zM13.4808777.286200144C14.4282249.286200144 15.1049014 1.0017005 15.1049014 2.00340101 15.1049014 3.00510151 14.4282249 3.72060187 13.4808777 3.72060187 12.5335306 3.72060187 11.8568541 3.00510151 11.8568541 2.00340101 11.8568541 1.0017005 12.6688659.286200144 13.4808777.286200144z"/>
      </g>
      <g transform="translate(8.12 14.31)">
        <ellipse cx="6.767" cy="6.726" fill="#A4B5E9" rx="6.09" ry="6.44"/>
        <path fill="#E0E9F8" d="M75.3817653,10.7325054 L20.0296253,10.7325054 C19.488284,10.7325054 19.0822781,10.3032052 19.0822781,9.73080489 L19.0822781,3.5775018 C19.0822781,3.00510151 19.488284,2.57580129 20.0296253,2.57580129 L75.3817653,2.57580129 C75.9231066,2.57580129 76.3291125,3.00510151 76.3291125,3.5775018 L76.3291125,9.73080489 C76.3291125,10.3032052 75.9231066,10.7325054 75.3817653,10.7325054 Z"/>
      </g>
    </g>
    <path fill="#7736F6" fill-rule="nonzero" d="M581.941815,145.675873 L581.941815,128.503865 C581.941815,122.207461 577.069744,117.055859 571.11499,117.055859 L105.561539,117.055859 C99.6067851,117.055859 94.7347141,122.207461 94.7347141,128.503865 L94.7347141,145.675873 L581.941815,145.675873 Z"/>
    <rect width="487.207" height="58.671" x="94.735" y="183.597" fill="url(#services-g)" fill-rule="nonzero"/>
    <path fill="#FFF" fill-rule="nonzero" d="M542.0179,176.442389 L137.500671,176.442389 C134.523294,176.442389 132.087258,173.866587 132.087258,170.718386 L132.087258,158.69798 C132.087258,155.549778 134.523294,152.973977 137.500671,152.973977 L542.0179,152.973977 C544.995276,152.973977 547.431312,155.549778 547.431312,158.69798 L547.431312,170.718386 C547.431312,173.866587 544.995276,176.442389 542.0179,176.442389 Z"/>
    <g stroke="#8DAEE6" stroke-linecap="round" stroke-linejoin="round" stroke-width="1.5" transform="translate(555.875 157.41)">
      <path d="M17.8116075.143100072L.0826824464.143100072M17.8116075 7.29810367L.0826824464 7.29810367M17.8116075 14.4531073L.0826824464 14.4531073"/>
    </g>
    <path stroke="#8DAEE6" stroke-linecap="round" stroke-linejoin="round" stroke-width="1.5" d="M112.192969,155.406678 L104.208185,161.703081 C103.937515,161.989281 103.80218,162.561682 103.80218,162.990982 L103.80218,173.294187 C103.80218,174.009687 104.343521,174.582088 105.020197,174.582088 L109.621598,174.582088 C110.298274,174.582088 110.839615,174.009687 110.839615,173.294187 L110.839615,166.711584 C110.839615,165.280583 111.786963,163.992682 113.00498,163.849582 C114.629004,163.563382 115.982357,164.851283 115.982357,166.568484 L115.982357,173.294187 C115.982357,174.009687 116.523698,174.582088 117.200375,174.582088 L121.801775,174.582088 C122.478452,174.582088 123.019793,174.009687 123.019793,173.294187 L123.019793,162.990982 C123.019793,162.561682 122.884458,162.132381 122.613787,161.703081 L114.629004,155.406678 C113.952327,154.834278 112.869645,154.834278 112.192969,155.406678 Z"/>
    <g stroke="#E0E9F8" stroke-linecap="round" stroke-linejoin="round" stroke-width="1.5" transform="translate(138.042 158.543)">
      <ellipse cx="5.413" cy="5.736" rx="5.413" ry="5.724"/>
      <path d="M10.6914892,12.3186634 L8.93213018,10.1721623"/>
    </g>
    <g transform="translate(213.83 201.473)">
      <path fill="#FFF" fill-rule="nonzero" d="M245.227574,22.9080687 L3.78938856,22.9080687 C2.16536489,22.9080687 0.812011835,21.477068 0.812011835,19.7598671 L0.812011835,3.16025879 C0.812011835,1.44305793 2.16536489,0.0120572123 3.78938856,0.0120572123 L245.362909,0.0120572123 C246.986933,0.0120572123 248.340286,1.44305793 248.340286,3.16025879 L248.340286,19.6167671 C248.340286,21.477068 246.986933,22.9080687 245.227574,22.9080687 Z"/>
      <path fill="#E0E9F8" fill-rule="nonzero" d="M245.227574,0.0120572123 L224.656608,0.0120572123 L224.656608,22.9080687 L245.227574,22.9080687 C246.851598,22.9080687 248.204951,21.477068 248.204951,19.7598671 L248.204951,3.16025879 C248.340286,1.44305793 246.986933,0.0120572123 245.227574,0.0120572123 Z"/>
      <g stroke="#C2C9E9" stroke-linecap="round" stroke-linejoin="round" stroke-width="1.5" transform="translate(231.423 6.022)">
        <ellipse cx="5.143" cy="5.009" rx="4.601" ry="4.865"/>
        <path d="M9.60880671,10.7325054 L7.98478304,8.87220446"/>
      </g>
    </g>
    <ellipse cx="116.93" cy="265.308" fill="#7736F6" fill-rule="nonzero" rx="6.09" ry="6.44"/>
    <path fill="#FFF" fill-rule="nonzero" d="M561.100178,449.334226 L476.650947,449.334226 C474.620917,449.334226 472.861558,447.617025 472.861558,445.327424 L472.861558,337.71617 C472.861558,335.569669 474.485582,333.709368 476.650947,333.709368 L561.100178,333.709368 C563.130207,333.709368 564.889566,335.426569 564.889566,337.71617 L564.889566,445.327424 C564.889566,447.473925 563.130207,449.334226 561.100178,449.334226 Z"/>
    <path fill="#A4B5E9" fill-rule="nonzero" d="M178.371933,269.171235 L130.192564,269.171235 C129.651223,269.171235 129.245217,268.741935 129.245217,268.169535 L129.245217,262.016232 C129.245217,261.443831 129.651223,261.014531 130.192564,261.014531 L178.507268,261.014531 C179.04861,261.014531 179.454615,261.443831 179.454615,262.016232 L179.454615,268.169535 C179.31928,268.741935 178.913274,269.171235 178.371933,269.171235 Z"/>
    <path fill="#E0E9F8" fill-rule="nonzero" d="M227.633984,168.714985 L161.996361,168.714985 C161.45502,168.714985 161.049014,168.285685 161.049014,167.713284 L161.049014,161.559981 C161.049014,160.987581 161.45502,160.558281 161.996361,160.558281 L227.633984,160.558281 C228.175326,160.558281 228.581331,160.987581 228.581331,161.559981 L228.581331,167.713284 C228.581331,168.285685 228.175326,168.714985 227.633984,168.714985 Z"/>
    <ellipse cx="116.93" cy="284.197" fill="#A4B5E9" fill-rule="nonzero" rx="6.09" ry="6.44"/>
    <path fill="#A4B5E9" fill-rule="nonzero" d="M178.371933,288.203545 L130.192564,288.203545 C129.651223,288.203545 129.245217,287.774245 129.245217,287.201844 L129.245217,281.048541 C129.245217,280.476141 129.651223,280.046841 130.192564,280.046841 L178.507268,280.046841 C179.04861,280.046841 179.454615,280.476141 179.454615,281.048541 L179.454615,287.201844 C179.31928,287.774245 178.913274,288.203545 178.371933,288.203545 Z"/>
    <path fill="#F577B6" fill-rule="nonzero" d="M144.132101,307.092754 L111.651627,307.092754 C111.110286,307.092754 110.70428,306.663454 110.70428,306.091054 L110.70428,303.944553 C110.70428,303.372152 111.110286,302.942852 111.651627,302.942852 L144.132101,302.942852 C144.673442,302.942852 145.079448,303.372152 145.079448,303.944553 L145.079448,306.091054 C145.079448,306.663454 144.673442,307.092754 144.132101,307.092754 Z"/>
    <ellipse cx="116.93" cy="322.118" fill="#FFF" fill-rule="nonzero" rx="6.09" ry="6.44"/>
    <path fill="#A4B5E9" fill-rule="nonzero" d="M178.371933,326.125064 L130.192564,326.125064 C129.651223,326.125064 129.245217,325.695764 129.245217,325.123363 L129.245217,318.97006 C129.245217,318.39766 129.651223,317.96836 130.192564,317.96836 L178.507268,317.96836 C179.04861,317.96836 179.454615,318.39766 179.454615,318.97006 L179.454615,325.123363 C179.31928,325.695764 178.913274,326.125064 178.371933,326.125064 Z"/>
    <ellipse cx="116.93" cy="341.151" fill="#A4B5E9" fill-rule="nonzero" rx="6.09" ry="6.44"/>
    <path fill="#A4B5E9" fill-rule="nonzero" d="M178.371933,345.014273 L130.192564,345.014273 C129.651223,345.014273 129.245217,344.584973 129.245217,344.012573 L129.245217,337.85927 C129.245217,337.286869 129.651223,336.857569 130.192564,336.857569 L178.507268,336.857569 C179.04861,336.857569 179.454615,337.286869 179.454615,337.85927 L179.454615,344.012573 C179.31928,344.584973 178.913274,345.014273 178.371933,345.014273 Z"/>
    <ellipse cx="116.93" cy="360.04" fill="#A4B5E9" fill-rule="nonzero" rx="6.09" ry="6.44"/>
    <path fill="#A4B5E9" fill-rule="nonzero" d="M178.371933,364.046583 L130.192564,364.046583 C129.651223,364.046583 129.245217,363.617283 129.245217,363.044882 L129.245217,356.891579 C129.245217,356.319179 129.651223,355.889879 130.192564,355.889879 L178.507268,355.889879 C179.04861,355.889879 179.454615,356.319179 179.454615,356.891579 L179.454615,363.044882 C179.31928,363.617283 178.913274,364.046583 178.371933,364.046583 Z"/>
    <ellipse cx="116.93" cy="379.072" fill="#FFF" fill-rule="nonzero" rx="6.09" ry="6.44"/>
    <path fill="#A4B5E9" fill-rule="nonzero" d="M178.371933,382.935792 L130.192564,382.935792 C129.651223,382.935792 129.245217,382.506492 129.245217,381.934092 L129.245217,375.780789 C129.245217,375.208388 129.651223,374.779088 130.192564,374.779088 L178.507268,374.779088 C179.04861,374.779088 179.454615,375.208388 179.454615,375.780789 L179.454615,381.934092 C179.31928,382.506492 178.913274,382.935792 178.371933,382.935792 Z"/>
    <path fill="#F577B6" fill-rule="nonzero" d="M144.132101,401.968102 L111.651627,401.968102 C111.110286,401.968102 110.70428,401.538802 110.70428,400.966401 L110.70428,398.8199 C110.70428,398.2475 111.110286,397.8182 111.651627,397.8182 L144.132101,397.8182 C144.673442,397.8182 145.079448,398.2475 145.079448,398.8199 L145.079448,400.966401 C145.079448,401.538802 144.673442,401.968102 144.132101,401.968102 Z"/>
    <ellipse cx="116.93" cy="416.994" fill="#A4B5E9" fill-rule="nonzero" rx="6.09" ry="6.44"/>
    <path fill="#A4B5E9" fill-rule="nonzero" d="M178.371933,420.857311 L130.192564,420.857311 C129.651223,420.857311 129.245217,420.428011 129.245217,419.855611 L129.245217,413.702308 C129.245217,413.129908 129.651223,412.700607 130.192564,412.700607 L178.507268,412.700607 C179.04861,412.700607 179.454615,413.129908 179.454615,413.702308 L179.454615,419.855611 C179.31928,420.428011 178.913274,420.857311 178.371933,420.857311 Z"/>
    <ellipse cx="116.93" cy="435.883" fill="#FFF" fill-rule="nonzero" rx="6.09" ry="6.44"/>
    <path fill="#A4B5E9" fill-rule="nonzero" d="M178.371933,439.889621 L130.192564,439.889621 C129.651223,439.889621 129.245217,439.460321 129.245217,438.88792 L129.245217,432.734617 C129.245217,432.162217 129.651223,431.732917 130.192564,431.732917 L178.507268,431.732917 C179.04861,431.732917 179.454615,432.162217 179.454615,432.734617 L179.454615,438.88792 C179.31928,439.460321 178.913274,439.889621 178.371933,439.889621 Z"/>
    <g fill-rule="nonzero" transform="translate(194.883 256.15)">
      <path fill="#FFF" d="M265.52787,91.2978459 L3.78938856,91.2978459 C1.75935898,91.2978459 0,89.580645 0,87.2910439 L0,4.29300216 C0,2.14650108 1.62402367,0.286200144 3.78938856,0.286200144 L265.663205,0.286200144 C267.693235,0.286200144 269.452594,2.00340101 269.452594,4.29300216 L269.452594,87.2910439 C269.317259,89.580645 267.693235,91.2978459 265.52787,91.2978459 Z"/>
      <path fill="#E0E9F8" d="M74.8404241 17.1720086L9.20280079 17.1720086C8.66145957 17.1720086 8.25545365 16.7427084 8.25545365 16.1703081L8.25545365 10.017005C8.25545365 9.44460474 8.66145957 9.01530453 9.20280079 9.01530453L74.8404241 9.01530453C75.3817653 9.01530453 75.7877712 9.44460474 75.7877712 10.017005L75.7877712 16.1703081C75.7877712 16.7427084 75.3817653 17.1720086 74.8404241 17.1720086zM258.89644 82.5687415L9.20280079 82.5687415C8.66145957 82.5687415 8.25545365 82.1394413 8.25545365 81.567041L8.25545365 75.4137379C8.25545365 74.8413376 8.66145957 74.4120374 9.20280079 74.4120374L258.89644 74.4120374C259.437781 74.4120374 259.843787 74.8413376 259.843787 75.4137379L259.843787 81.567041C259.843787 82.1394413 259.437781 82.5687415 258.89644 82.5687415zM150.628195 17.1720086L84.990572 17.1720086C84.4492308 17.1720086 84.0432249 16.7427084 84.0432249 16.1703081L84.0432249 10.017005C84.0432249 9.44460474 84.4492308 9.01530453 84.990572 9.01530453L150.628195 9.01530453C151.169537 9.01530453 151.575542 9.44460474 151.575542 10.017005L151.575542 16.1703081C151.575542 16.7427084 151.169537 17.1720086 150.628195 17.1720086zM226.415967 17.1720086L160.778343 17.1720086C160.237002 17.1720086 159.830996 16.7427084 159.830996 16.1703081L159.830996 10.017005C159.830996 9.44460474 160.237002 9.01530453 160.778343 9.01530453L226.415967 9.01530453C226.957308 9.01530453 227.363314 9.44460474 227.363314 10.017005L227.363314 16.1703081C227.363314 16.7427084 226.957308 17.1720086 226.415967 17.1720086z"/>
      <path fill="#CEDFE7" d="M225.603955,61.8192311 L10.1501479,61.8192311 C9.20280079,61.8192311 8.39078896,60.9606306 8.39078896,59.9589301 L8.39078896,34.7733175 C8.39078896,33.771617 9.20280079,32.9130165 10.1501479,32.9130165 L225.603955,32.9130165 C226.551302,32.9130165 227.363314,33.771617 227.363314,34.7733175 L227.363314,59.9589301 C227.363314,60.9606306 226.551302,61.8192311 225.603955,61.8192311 Z"/>
    </g>
    <g fill-rule="nonzero" transform="translate(194.883 357.75)">
      <path fill="#FFF" d="M265.52787,91.584046 L3.78938856,91.584046 C1.75935898,91.584046 0,89.8668451 0,87.577244 L0,4.5792023 C0,2.43270122 1.62402367,0.572400288 3.78938856,0.572400288 L265.663205,0.572400288 C267.693235,0.572400288 269.452594,2.28960115 269.452594,4.5792023 L269.452594,87.577244 C269.317259,89.7237451 267.693235,91.584046 265.52787,91.584046 Z"/>
      <path fill="#E0E9F8" d="M74.8404241 17.3151087L9.20280079 17.3151087C8.66145957 17.3151087 8.25545365 16.8858085 8.25545365 16.3134082L8.25545365 10.1601051C8.25545365 9.58770482 8.66145957 9.1584046 9.20280079 9.1584046L74.8404241 9.1584046C75.3817653 9.1584046 75.7877712 9.58770482 75.7877712 10.1601051L75.7877712 16.3134082C75.7877712 16.8858085 75.3817653 17.3151087 74.8404241 17.3151087zM258.89644 82.8549416L9.20280079 82.8549416C8.66145957 82.8549416 8.25545365 82.4256414 8.25545365 81.8532411L8.25545365 75.699938C8.25545365 75.1275377 8.66145957 74.6982375 9.20280079 74.6982375L258.89644 74.6982375C259.437781 74.6982375 259.843787 75.1275377 259.843787 75.699938L259.843787 81.8532411C259.843787 82.4256414 259.437781 82.8549416 258.89644 82.8549416zM150.628195 17.3151087L84.990572 17.3151087C84.4492308 17.3151087 84.0432249 16.8858085 84.0432249 16.3134082L84.0432249 10.1601051C84.0432249 9.58770482 84.4492308 9.1584046 84.990572 9.1584046L150.628195 9.1584046C151.169537 9.1584046 151.575542 9.58770482 151.575542 10.1601051L151.575542 16.3134082C151.575542 16.8858085 151.169537 17.3151087 150.628195 17.3151087zM226.415967 17.3151087L160.778343 17.3151087C160.237002 17.3151087 159.830996 16.8858085 159.830996 16.3134082L159.830996 10.1601051C159.830996 9.58770482 160.237002 9.1584046 160.778343 9.1584046L226.415967 9.1584046C226.957308 9.1584046 227.363314 9.58770482 227.363314 10.1601051L227.363314 16.3134082C227.363314 16.8858085 226.957308 17.3151087 226.415967 17.3151087z"/>
      <path fill="#CEDFE7" d="M225.603955,62.1054312 L10.1501479,62.1054312 C9.20280079,62.1054312 8.39078896,61.2468308 8.39078896,60.2451303 L8.39078896,35.0595176 C8.39078896,34.0578171 9.20280079,33.1992167 10.1501479,33.1992167 L225.603955,33.1992167 C226.551302,33.1992167 227.363314,34.0578171 227.363314,35.0595176 L227.363314,60.2451303 C227.363314,61.2468308 226.551302,62.1054312 225.603955,62.1054312 Z"/>
    </g>
    <path fill="#E0E9F8" fill-rule="nonzero" d="M537.551835,345.014273 L557.040119,345.014273 C558.122801,345.014273 558.934813,344.155673 558.934813,343.010872 C558.934813,341.866072 558.122801,341.007471 557.040119,341.007471 L537.551835,341.007471 C536.469152,341.007471 535.65714,341.866072 535.65714,343.010872 C535.521805,344.155673 536.469152,345.014273 537.551835,345.014273 Z"/>
    <g fill-rule="nonzero" transform="translate(484.5 354.888)">
      <ellipse cx="6.225" cy="6.869" fill="#7736F6" rx="6.09" ry="6.44"/>
      <path fill="#E0E9F8" d="M67.8029882,10.8756055 L19.488284,10.8756055 C18.9469428,10.8756055 18.5409369,10.4463052 18.5409369,9.87390496 L18.5409369,3.72060187 C18.5409369,3.14820158 18.9469428,2.71890137 19.488284,2.71890137 L67.8029882,2.71890137 C68.3443294,2.71890137 68.7503353,3.14820158 68.7503353,3.72060187 L68.7503353,9.87390496 C68.7503353,10.4463052 68.3443294,10.8756055 67.8029882,10.8756055 Z"/>
      <path fill="#A4B5E9" d="M67.8029882,29.764815 L1.08268245,29.764815 C0.541341223,29.764815 0.135335306,29.3355147 0.135335306,28.7631144 L0.135335306,22.6098114 C0.135335306,22.0374111 0.541341223,21.6081109 1.08268245,21.6081109 L67.8029882,21.6081109 C68.3443294,21.6081109 68.7503353,22.0374111 68.7503353,22.6098114 L68.7503353,28.7631144 C68.7503353,29.3355147 68.3443294,29.764815 67.8029882,29.764815 Z"/>
    </g>
    <g fill-rule="nonzero" transform="translate(484.5 406.106)">
      <ellipse cx="6.225" cy="6.595" fill="#7736F6" rx="6.09" ry="6.44"/>
      <path fill="#E0E9F8" d="M67.8029882,10.4583625 L19.488284,10.4583625 C18.9469428,10.4583625 18.5409369,10.0290622 18.5409369,9.45666196 L18.5409369,3.30335887 C18.5409369,2.73095858 18.9469428,2.30165836 19.488284,2.30165836 L67.8029882,2.30165836 C68.3443294,2.30165836 68.7503353,2.73095858 68.7503353,3.30335887 L68.7503353,9.45666196 C68.7503353,10.0290622 68.3443294,10.4583625 67.8029882,10.4583625 Z"/>
      <path fill="#A4B5E9" d="M67.8029882,29.490672 L1.08268245,29.490672 C0.541341223,29.490672 0.135335306,29.0613718 0.135335306,28.4889715 L0.135335306,22.3356684 C0.135335306,21.7632681 0.541341223,21.3339679 1.08268245,21.3339679 L67.8029882,21.3339679 C68.3443294,21.3339679 68.7503353,21.7632681 68.7503353,22.3356684 L68.7503353,28.4889715 C68.7503353,29.0613718 68.3443294,29.490672 67.8029882,29.490672 Z"/>
    </g>
    <path fill="#CEDFE7" fill-rule="nonzero" d="M535.38647,157.982479 L536.739823,160.844481 C537.010493,161.559981 537.68717,161.989281 538.363846,162.132381 L541.341223,162.561682 C541.882564,162.704782 542.0179,163.277182 541.747229,163.706482 L539.581864,165.996083 C539.040523,166.568484 538.905188,167.283984 538.905188,167.999484 L539.446529,171.147686 C539.581864,171.720086 539.040523,172.149386 538.499182,171.863186 L535.792476,170.432186 C535.115799,170.145985 534.439123,170.145985 533.762446,170.432186 L531.05574,171.863186 C530.649734,172.149386 529.973057,171.720086 530.108393,171.147686 L530.649734,167.999484 C530.785069,167.283984 530.514399,166.568484 529.973057,165.996083 L527.807693,163.706482 C527.401687,163.277182 527.672357,162.561682 528.213699,162.561682 L531.191075,162.132381 C531.867752,161.989281 532.544428,161.559981 532.815099,160.844481 L534.168452,157.982479 C534.439123,157.410079 535.115799,157.410079 535.38647,157.982479 Z"/>
    <g transform="translate(491.267 314.82)">
      <path fill="#001D47" fill-rule="nonzero" d="M28.1497436 162.132381L25.3077022 164.708183C24.766361 165.137483 25.0370316 166.139183 25.8490434 166.139183L36.9465385 166.139183C38.4352268 166.139183 39.7885799 164.851283 39.9239152 163.277182L40.0592505 161.846181C36.1345266 161.846181 32.2098028 161.846181 28.1497436 161.846181L28.1497436 162.132381zM48.8560454 161.703081L48.8560454 162.561682 46.5553452 164.994383C46.1493393 165.423683 46.4200099 166.139183 46.9613511 166.139183L58.870858 166.139183C60.4948817 166.139183 61.8482347 164.708183 61.8482347 162.847882L61.8482347 161.703081C57.517505 161.703081 53.1867752 161.703081 48.8560454 161.703081z"/>
      <path fill="url(#services-h)" fill-rule="nonzero" d="M59.4121992,83.4273419 C49.3973866,85.1445428 39.5179093,85.573843 29.5030967,84.5721425 L28.0144083,161.559981 C31.9391322,161.559981 35.863856,161.559981 39.9239152,161.559981 L45.0666568,93.587447 L48.8560454,161.559981 C53.1867752,161.559981 57.6528403,161.559981 61.9835701,161.559981 L59.4121992,83.4273419 Z"/>
      <path fill="#FFBCA8" fill-rule="nonzero" d="M6.9021006 2.14650108C6.22542407.572400288 4.46606509-.286200144 2.84204142.143100072.812011835.715500359-.406005917 2.86200144.270670612 5.00850252L3.51871795 14.7393074C6.22542407 13.880707 8.93213018 12.7359064 11.503501 12.5928063L6.9021006 2.14650108zM40.1945858 24.7563124L42.0892801 15.5979078C42.9012919 11.877306 46.4200099 9.73080489 49.8033925 10.7325054 53.0514399 11.7342059 54.9461342 15.1686076 54.1341223 18.6030093L51.8334221 27.7614139C51.0214103 31.1958157 47.6380276 33.1992167 44.3899803 32.1975162 41.2772683 31.1958157 39.5179093 28.0476141 40.1945858 24.7563124z"/>
      <g stroke="#7736F6" stroke-linecap="round" stroke-linejoin="round" stroke-width=".8" transform="translate(40.6 15.741)">
        <path d="M2.70670612 3.14820158C2.4360355 4.14990208 1.75935898 5.00850252 1.08268245 4.72230237.406005917 4.5792023.135335306 3.5775018.406005917 2.43270122.676676529 1.43100072 1.35335306.572400288 2.03002959.858600431 2.70670612 1.14480058 2.97737673 2.14650108 2.70670612 3.14820158zM2.70670612 3.14820158C2.70670612 3.14820158 6.49609468 3.5775018 7.0374359 4.00680201 7.57877712 4.43610223 7.17277121 5.5809028 7.17277121 5.5809028"/>
      </g>
      <path fill="#001D47" fill-rule="nonzero" d="M73.487071,66.8277336 C73.6224064,63.5364319 73.0810651,60.2451303 71.8630474,57.0969287 L63.6075937,37.3491188 C61.5775641,32.0544161 56.9761637,28.3338142 51.5627515,27.4752138 L33.9691618,25.0425126 L18.134931,23.7546119 C17.1875838,23.6115119 16.2402367,23.0391116 15.8342308,22.0374111 L11.503501,12.5928063 C8.79679488,12.8790065 6.09008876,13.880707 3.51871795,14.7393074 L7.84944774,27.904514 C8.66145957,30.4803153 10.5561539,32.3406162 12.9921894,33.1992167 L30.1797732,38.6370194 L29.3677614,84.7152426 C39.382574,85.573843 49.2620513,85.1445428 59.2768639,83.570442 L58.3295168,52.6608265 L64.4196056,63.2502318 L65.2316174,75.9861382 C67.8029882,75.9861382 70.374359,75.9861382 72.9457298,75.9861382 L73.487071,66.8277336 Z"/>
      <path fill="#FFBCA8" fill-rule="nonzero" d="M65.3669527,75.8430381 L66.1789645,88.8651446 C66.1789645,90.4392454 67.1263117,91.8702462 68.615,92.1564463 C70.374359,92.5857465 72.133718,91.2978459 72.4043886,89.2944449 L73.0810651,75.699938 C70.5096943,75.8430381 67.9383235,75.8430381 65.3669527,75.8430381 Z"/>
    </g>
    <path fill="#FFBCA8" fill-rule="nonzero" d="M222.897249 128.360764C220.055207 130.221065 217.07783 131.795166 213.965118 133.083067L217.483836 140.667371 210.987742 156.265279C210.040395 158.55488 210.987742 161.273781 213.288442 162.132381 215.318472 162.990982 217.754507 161.989281 218.701854 159.84278L225.333284 144.531073C226.821973 141.096671 226.821973 137.089869 225.333284 133.512367L222.897249 128.360764zM167.680444 131.079666L167.139103 135.801968C166.597761 139.95187 167.951114 143.958672 170.657821 146.820674L184.732692 161.559981C185.95071 162.847882 187.98074 162.990982 189.334093 161.989281 190.958116 160.701381 191.228787 158.26868 190.010769 156.551479L177.695257 139.23637 179.183945 133.512367C175.123886 133.369267 171.334497 132.510667 167.680444 131.079666z"/>
    <path fill="#F779A5" fill-rule="nonzero" d="M219.243195,119.77476 C216.401154,113.192157 210.581736,108.469854 203.679635,107.325054 L190.958116,105.178553 C182.973333,103.890652 175.123886,107.897454 171.199162,115.195558 C169.845809,117.628259 169.033797,120.34716 168.763126,123.066062 L167.815779,130.936566 C171.469832,132.367566 175.394556,133.226167 179.31928,133.226167 L179.589951,132.081366 C180.537298,128.360764 183.65001,125.641863 187.439399,125.355663 L203.950306,124.210862 C207.469024,123.924662 210.852406,126.071163 212.341095,129.362465 L213.965118,132.939967 C217.07783,131.652066 220.190543,130.077965 222.897249,128.217664 L219.243195,119.77476 Z"/>
    <path fill="#FFBCA8" fill-rule="nonzero" d="M189.740099,124.210862 L190.552111,117.485159 C190.958116,113.907657 193.935493,111.331856 197.318876,111.474956 C200.972929,111.761156 203.814971,115.195558 203.408965,119.05926 L202.732288,125.784963 C202.326282,129.934865 198.536894,132.796867 194.61217,131.652066 L194.476834,131.652066 C191.499458,130.793466 189.469428,127.502164 189.740099,124.210862 Z"/>
    <g fill-rule="nonzero" transform="translate(267.964 486.242)">
      <g transform="translate(0 .298)">
        <path fill="#DDD6FF" stroke="#7736F6" d="M60.630217,17.4582088 C61.5775641,16.3134082 62.6602466,15.3117077 63.6075937,14.1669071 C63.742929,14.023807 64.0135996,13.7376069 64.1489349,13.5945068 C65.9082939,10.1601051 69.021006,6.58260331 71.3217062,3.86370194 C72.4043886,2.43270122 73.6224064,1.14480058 74.9757594,0 L23.9543491,0 C21.7889842,0 19.6236193,0.429300216 19.2176134,1.0017005 L1.21801775,21.4650108 C0.270670612,22.6098114 2.03002959,23.4684118 5.00740631,23.4684118 L56.0288166,23.4684118 C57.3821697,21.1788106 59.0061933,19.1754096 60.630217,17.4582088 Z"/>
        <g transform="translate(14.887 2.862)">
          <path fill="#E0E9F8" d="M45.7433334,14.5962073 C46.6906805,13.4514068 47.7733629,12.4497063 48.7207101,11.3049057 C48.8560454,11.1618056 49.126716,10.8756055 49.2620513,10.7325054 C49.8033925,9.58770482 50.6154044,8.44290424 51.4274162,7.29810367 L8.39078896,7.29810367 C6.9021006,7.29810367 5.27807693,7.72740388 5.00740631,8.1567041 L0.270670612,14.5962073 C-0.135335306,15.1686076 0.947347141,15.5979078 2.70670612,15.5979078 L44.9313215,15.5979078 C45.0666568,15.1686076 45.4726627,14.8824075 45.7433334,14.5962073 Z"/>
          <g transform="translate(9.12)">
            <path fill="#A4B5E9" d="M14.4282249,2.71890137 C13.8868836,3.86370194 10.0974951,4.72230237 6.0374359,4.72230237 C1.97737673,4.72230237 -0.593994083,3.72060187 0.218017752,2.71890137 C1.03002959,1.57410079 4.68408284,0.858600431 8.47347141,0.858600431 C12.3981953,0.858600431 14.9695661,1.71720086 14.4282249,2.71890137 Z"/>
            <path fill="#E0E9F8" d="M46.7733629,1.57410079 L23.360355,1.57410079 C22.8190138,1.57410079 22.2776726,1.71720086 22.2776726,1.86030093 L21.6009961,3.72060187 C21.6009961,3.86370194 22.007002,4.00680201 22.5483432,4.00680201 L44.8786687,4.00680201 C45.4200099,3.14820158 46.0966864,2.28960115 46.7733629,1.57410079 Z"/>
          </g>
        </g>
      </g>
      <g transform="translate(51.178)">
        <path fill="#DDD6FF" stroke="#7736F6" d="M130.577012,23.6235691 L4.17383664,23.6235691 C1.06112461,23.6235691 -0.56289906,22.7649686 0.384448081,21.6201681 L18.3840438,1.15685779 C18.925385,0.5844575 20.9554146,0.155157284 23.1207795,0.155157284 L111.765405,0.155157284 C113.93077,0.155157284 116.096135,0.5844575 116.50214,1.15685779 L134.501736,21.6201681 C135.313748,22.7649686 133.554389,23.6235691 130.577012,23.6235691 Z"/>
        <g transform="translate(13.783 1.73)">
          <path fill="#E0E9F8" d="M104.208185,17.0289086 L2.84204142,17.0289086 C1.08268245,17.0289086 -4.99600361e-16,16.5996083 0.406005917,16.0272081 L5.14274162,9.58770482 C5.54874754,9.1584046 7.0374359,8.72910439 8.52612427,8.72910439 L98.3887673,8.72910439 C99.8774557,8.72910439 101.501479,9.1584046 101.77215,9.58770482 L106.508886,16.0272081 C107.050227,16.5996083 105.967544,17.0289086 104.208185,17.0289086 Z"/>
          <g fill="#C2C9E9" transform="translate(79.848)">
            <path d="M2.4360355.286200144C3.38338264.286200144 4.33072979.429300216 4.46606509.715500359 4.6014004 1.0017005 3.92472387 1.14480058 2.97737673 1.14480058 2.03002959 1.14480058 1.08268245 1.0017005.947347141.715500359.812011835.572400288 1.48868836.286200144 2.4360355.286200144zM8.79679488.286200144C9.74414202.286200144 10.6914892.429300216 10.8268245.715500359 10.9621598 1.0017005 10.2854832 1.14480058 9.3381361 1.14480058 8.39078896 1.14480058 7.44344182 1.0017005 7.30810651.715500359 7.17277121.572400288 7.84944774.286200144 8.79679488.286200144zM15.2928896.286200144C16.2402367.286200144 17.1875838.429300216 17.4582544.715500359 17.5935898 1.0017005 17.0522485 1.14480058 15.9695661 1.14480058 15.0222189 1.14480058 14.0748718 1.0017005 13.8042012.715500359 13.6688659.572400288 14.2102071.286200144 15.2928896.286200144z"/>
          </g>
          <g transform="translate(9.224 1.431)">
            <path fill="#A4B5E9" d="M14.5946552,2.71890137 C14.053314,3.86370194 10.2639254,4.72230237 6.20386623,4.72230237 C2.14380706,4.72230237 -0.427563754,3.72060187 0.384448081,2.71890137 C1.19645992,1.57410079 4.85051317,0.858600431 8.63990173,0.858600431 C12.5646256,0.858600431 15.1359964,1.71720086 14.5946552,2.71890137 Z"/>
            <path fill="#E0E9F8" d="M87.9463909,4.00680201 L22.4441029,4.00680201 C21.9027617,4.00680201 21.3614205,3.86370194 21.4967558,3.72060187 L22.1734323,1.86030093 C22.1734323,1.71720086 22.7147735,1.57410079 23.2561148,1.57410079 L86.0516966,1.57410079 C86.5930379,1.57410079 87.1343791,1.71720086 87.2697144,1.86030093 L88.6230675,3.72060187 C88.8937381,3.86370194 88.6230675,4.00680201 87.9463909,4.00680201 Z"/>
          </g>
        </g>
      </g>
      <g transform="translate(112.328)">
        <path fill="#DDD6FF" stroke="#7736F6" d="M130.463235,23.6235691 L4.06005917,23.6235691 C0.947347141,23.6235691 -0.676676529,22.7649686 0.270670612,21.6201681 L18.2702663,1.15685779 C18.8116075,0.5844575 20.8416371,0.155157284 23.007002,0.155157284 L111.651627,0.155157284 C113.816992,0.155157284 115.982357,0.5844575 116.388363,1.15685779 L134.387959,21.6201681 C135.19997,22.7649686 133.440612,23.6235691 130.463235,23.6235691 Z"/>
        <g transform="translate(13.534 1.73)">
          <path fill="#E0E9F8" d="M104.343521,17.0289086 L2.97737673,17.0289086 C1.21801775,17.0289086 0.135335306,16.5996083 0.541341223,16.0272081 L5.27807693,9.58770482 C5.68408284,9.1584046 7.17277121,8.72910439 8.66145957,8.72910439 L98.5241026,8.72910439 C100.012791,8.72910439 101.636815,9.1584046 101.907485,9.58770482 L106.644221,16.0272081 C107.050227,16.5996083 106.10288,17.0289086 104.343521,17.0289086 Z"/>
          <g fill="#C2C9E9" transform="translate(80.848)">
            <path d="M1.57137081.286200144C2.51871795.286200144 3.46606509.429300216 3.6014004.715500359 3.7367357 1.0017005 3.06005917 1.14480058 2.11271203 1.14480058 1.16536489 1.14480058.218017752 1.0017005.0826824464.715500359-.187988165.572400288.62402367.286200144 1.57137081.286200144zM7.93213018.286200144C8.87947732.286200144 9.82682446.429300216 9.96215977.715500359 10.0974951 1.0017005 9.42081855 1.14480058 8.47347141 1.14480058 7.52612427 1.14480058 6.57877712 1.0017005 6.44344182.715500359 6.30810651.572400288 6.98478304.286200144 7.93213018.286200144zM14.2928896.286200144C15.2402367.286200144 16.1875838.429300216 16.4582544.715500359 16.5935898 1.0017005 16.0522485 1.14480058 14.9695661 1.14480058 14.0222189 1.14480058 13.0748718 1.0017005 12.8042012.715500359 12.8042012.572400288 13.3455424.286200144 14.2928896.286200144z"/>
          </g>
          <g transform="translate(9.473 1.431)">
            <path fill="#A4B5E9" d="M14.4808777,2.71890137 C13.9395365,3.86370194 10.1501479,4.72230237 6.09008876,4.72230237 C2.03002959,4.72230237 -0.541341223,3.72060187 0.270670612,2.71890137 C1.08268245,1.57410079 4.7367357,0.858600431 8.52612427,0.858600431 C12.3155128,0.858600431 15.0222189,1.71720086 14.4808777,2.71890137 Z"/>
            <path fill="#E0E9F8" d="M87.8326135,4.00680201 L22.3303255,4.00680201 C21.7889842,4.00680201 21.247643,3.86370194 21.3829783,3.72060187 L22.0596548,1.86030093 C22.0596548,1.71720086 22.6009961,1.57410079 23.1423373,1.57410079 L85.9379192,1.57410079 C86.4792604,1.57410079 87.0206016,1.71720086 87.1559369,1.86030093 L88.50929,3.72060187 C88.7799606,3.86370194 88.3739547,4.00680201 87.8326135,4.00680201 Z"/>
          </g>
        </g>
      </g>
    </g>
    <g fill-rule="nonzero" transform="translate(199.296 55.395)">
      <g transform="translate(20 25)">
        <path fill="#DDD6FF" d="M108.923363,24.3270122 L5.5271897,24.3270122 C2.54981297,24.3270122 0.113777469,21.7512109 0.113777469,18.6030093 L0.113777469,6.58260331 C0.113777469,3.43440173 2.54981297,0.858600431 5.5271897,0.858600431 L108.923363,0.858600431 C111.90074,0.858600431 114.336776,3.43440173 114.336776,6.58260331 L114.336776,18.6030093 C114.336776,21.7512109 111.90074,24.3270122 108.923363,24.3270122 Z"/>
        <path fill="#F8F8F8" d="M16.2186789 16.5996083C17.166026 15.4548078 17.8427025 13.880707 17.8427025 12.1635061 17.8427025 8.44290424 15.0006611 5.29470266 11.3466079 5.29470266 7.8278899 5.29470266 4.85051317 8.29980417 4.85051317 12.1635061 4.85051317 15.884108 7.69255459 19.0323096 11.3466079 19.0323096 12.5646256 19.0323096 13.647308 18.6030093 14.5946552 18.0306091L15.8126729 19.6047098C15.9480082 19.89091 16.3540142 20.0340101 16.6246848 20.0340101 16.8953554 20.0340101 17.0306907 19.89091 17.3013613 19.7478099 17.7073672 19.3185097 17.7073672 18.7461094 17.4366966 18.1737091L16.2186789 16.5996083zM7.01587807 12.1635061C7.01587807 9.58770482 9.04590765 7.44120374 11.4819432 7.44120374 13.9179787 7.44120374 15.9480082 9.58770482 15.9480082 12.1635061 15.9480082 14.7393074 13.9179787 16.8858085 11.4819432 16.8858085 8.91057235 16.8858085 7.01587807 14.7393074 7.01587807 12.1635061zM95.6605034 16.5996083L30.0228801 16.5996083C29.4815388 16.5996083 29.0755329 16.1703081 29.0755329 15.5979078L29.0755329 9.44460474C29.0755329 8.87220446 29.4815388 8.44290424 30.0228801 8.44290424L95.6605034 8.44290424C96.2018446 8.44290424 96.6078505 8.87220446 96.6078505 9.44460474L96.6078505 15.5979078C96.4725152 16.1703081 96.0665093 16.5996083 95.6605034 16.5996083z"/>
      </g>
      <path fill="#DDD6FF" d="M109.215592,24.3270122 L5.81941815,24.3270122 C2.84204142,24.3270122 0.406005917,21.7512109 0.406005917,18.6030093 L0.406005917,6.58260331 C0.406005917,3.43440173 2.84204142,0.858600431 5.81941815,0.858600431 L109.215592,0.858600431 C112.192969,0.858600431 114.629004,3.43440173 114.629004,6.58260331 L114.629004,18.6030093 C114.629004,21.7512109 112.192969,24.3270122 109.215592,24.3270122 Z"/>
      <path fill="#F8F8F8" d="M16.5109073 16.5996083C17.4582544 15.4548078 18.134931 13.880707 18.134931 12.1635061 18.134931 8.44290424 15.2928896 5.29470266 11.6388363 5.29470266 8.12011835 5.29470266 5.14274162 8.29980417 5.14274162 12.1635061 5.14274162 15.884108 7.98478304 19.0323096 11.6388363 19.0323096 12.8568541 19.0323096 13.9395365 18.6030093 14.8868836 18.0306091L16.1049014 19.6047098C16.2402367 19.89091 16.6462426 20.0340101 16.9169132 20.0340101 17.1875838 20.0340101 17.3229191 19.89091 17.5935898 19.7478099 17.9995957 19.3185097 17.9995957 18.7461094 17.7289251 18.1737091L16.5109073 16.5996083zM7.30810651 12.1635061C7.30810651 9.58770482 9.3381361 7.44120374 11.7741716 7.44120374 14.2102071 7.44120374 16.2402367 9.58770482 16.2402367 12.1635061 16.2402367 14.7393074 14.2102071 16.8858085 11.7741716 16.8858085 9.3381361 16.8858085 7.30810651 14.7393074 7.30810651 12.1635061zM95.9527318 16.5996083L30.3151085 16.5996083C29.7737673 16.5996083 29.3677614 16.1703081 29.3677614 15.5979078L29.3677614 9.44460474C29.3677614 8.87220446 29.7737673 8.44290424 30.3151085 8.44290424L95.9527318 8.44290424C96.494073 8.44290424 96.9000789 8.87220446 96.9000789 9.44460474L96.9000789 15.5979078C96.9000789 16.1703081 96.494073 16.5996083 95.9527318 16.5996083z"/>
      <g transform="translate(38.645 50.2)">
        <path fill="#DDD6FF" d="M108.923363,23.480469 L5.5271897,23.480469 C2.54981297,23.480469 0.113777469,20.9046677 0.113777469,17.7564661 L0.113777469,5.73606009 C0.113777469,2.58785851 2.54981297,0.0120572123 5.5271897,0.0120572123 L108.923363,0.0120572123 C111.90074,0.0120572123 114.336776,2.58785851 114.336776,5.73606009 L114.336776,17.7564661 C114.336776,20.9046677 111.90074,23.480469 108.923363,23.480469 Z"/>
        <g transform="translate(4.31 4.293)">
          <path fill="#F9F9F9" d="M7.17277121,13.8927642 C3.65405326,13.8927642 0.676676529,10.8876627 0.676676529,7.02396073 C0.676676529,3.30335887 3.51871795,0.155157284 7.17277121,0.155157284 C10.6914892,0.155157284 13.6688659,3.16025879 13.6688659,7.02396073 C13.5335306,10.7445626 10.6914892,13.8927642 7.17277121,13.8927642 Z M7.17277121,2.30165836 C4.7367357,2.30165836 2.70670612,4.44815944 2.70670612,7.02396073 C2.70670612,9.59976203 4.7367357,11.7462631 7.17277121,11.7462631 C9.60880671,11.7462631 11.6388363,9.59976203 11.6388363,7.02396073 C11.503501,4.44815944 9.60880671,2.30165836 7.17277121,2.30165836 Z"/>
          <path fill="#F5F5F5" d="M12.4508481,14.7513646 C12.1801775,14.7513646 11.9095069,14.6082645 11.6388363,14.3220644 L9.87947732,12.0324633 C9.47347141,11.603163 9.60880671,10.8876627 10.0148126,10.4583625 C10.4208185,10.0290622 11.0974951,10.1721623 11.503501,10.6014625 L13.26286,12.8910637 C13.6688659,13.3203639 13.5335306,14.0358643 13.1275247,14.4651645 C12.8568541,14.6082645 12.5861834,14.7513646 12.4508481,14.7513646 Z"/>
        </g>
        <path fill="#F8F8F8" d="M95.6605034,15.7530651 L30.0228801,15.7530651 C29.4815388,15.7530651 29.0755329,15.3237649 29.0755329,14.7513646 L29.0755329,8.59806153 C29.0755329,8.02566124 29.4815388,7.59636102 30.0228801,7.59636102 L95.6605034,7.59636102 C96.2018446,7.59636102 96.6078505,8.02566124 96.6078505,8.59806153 L96.6078505,14.7513646 C96.4725152,15.3237649 96.0665093,15.7530651 95.6605034,15.7530651 Z"/>
      </g>
    </g>
    <g fill="#CFE4E9" fill-rule="nonzero" transform="translate(143.455 492.264)">
      <ellipse cx="7.579" cy="8.586" rx="7.579" ry="8.014"/>
      <path d="M29.9091026,0.572400288 C34.1044971,0.572400288 37.4878797,4.14990208 37.4878797,8.58600431 C37.4878797,13.0221065 34.1044971,16.5996083 29.9091026,16.5996083 C25.7137081,16.5996083 22.3303255,13.0221065 22.3303255,8.58600431 C22.3303255,4.14990208 25.7137081,0.572400288 29.9091026,0.572400288 Z" opacity=".6"/>
      <path d="M52.239428,0.572400288 C56.4348225,0.572400288 59.8182052,4.14990208 59.8182052,8.58600431 C59.8182052,13.0221065 56.4348225,16.5996083 52.239428,16.5996083 C48.0440336,16.5996083 44.6606509,13.0221065 44.6606509,8.58600431 C44.6606509,4.14990208 48.0440336,0.572400288 52.239428,0.572400288 Z" opacity=".35"/>
    </g>
    <g fill-rule="nonzero" transform="translate(565.702 174.582)">
      <path fill="#00C0CD" d="M10.6914892,57.9555291 L10.5561539,53.0901267 L33.8338264,43.6455219 L33.8338264,48.6540244 C33.8338264,52.3746263 33.5631558,55.9521281 33.0218146,59.67273 C25.5783728,60.8175306 17.9995957,60.1020302 10.6914892,57.9555291 Z"/>
      <path fill="#00C0CD" d="M16.1049014,40.2111202 L15.9695661,8.87220446 L26.3903846,10.7325054 C31.8037969,11.7342059 36.269862,15.884108 37.7585503,21.4650108 L40.6005917,36.7767185 C41.6832742,40.6404204 39.6532446,44.7903225 36.1345266,46.0782231 L23.5483432,52.8039265 C19.7589546,49.6557249 17.3229191,44.9334226 16.1049014,40.2111202 Z"/>
      <path fill="#FFBCA8" d="M3.11271203 51.0867257L15.9695661 40.2111202C17.1875838 44.9334226 19.6236193 49.6557249 23.4130079 52.6608265L6.9021006 61.5330309C4.06005917 62.5347314.812011835 60.8175306.135335306 57.669329-.406005917 54.9504276.812011835 52.2315262 3.11271203 51.0867257zM25.7137081 15.0255075L24.9016963 8.1567041C24.4956903 4.43610223 21.3829783 1.71720086 17.8642604 2.00340101 14.0748718 2.28960115 11.2328304 5.72400288 11.6388363 9.73080489L12.3155128 16.5996083C12.7215187 20.8926105 16.6462426 23.7546119 20.5709665 22.7529114L20.7063018 22.7529114C23.9543491 21.894311 26.119714 18.6030093 25.7137081 15.0255075z"/>
      <path fill="#042A37" d="M25.5783728,14.023807 C25.5783728,14.023807 22.4656608,12.1635061 22.1949902,7.72740388 C22.1949902,7.72740388 15.5635602,10.4463052 11.6388363,8.72910439 C7.71411243,7.01190352 8.39078896,2.00340101 11.0974951,0.715500359 C14.3455424,-1.0017005 15.9695661,2.00340101 15.9695661,2.00340101 C15.9695661,2.00340101 20.1649606,0.572400288 23.5483432,3.86370194 C26.9317259,7.29810367 25.5783728,14.023807 25.5783728,14.023807 Z"/>
      <path fill="#00C0CD" d="M16.1049014,40.2111202 L26.2550493,32.6268164 C26.9317259,32.1975162 26.3903846,31.0527156 25.5783728,31.3389157 L15.9695661,34.3440173 L16.1049014,40.2111202 Z"/>
    </g>
    <g fill-rule="nonzero" transform="translate(54.134 328.832)">
      <path fill="#FF9272" d="M16.6462426,108.195712 C17.3229191,106.478511 17.4582544,104.47511 16.9169132,102.614809 L10.8268245,82.7238988 C10.8268245,82.7238988 7.17277121,71.4189931 7.17277121,69.8448923 C7.17277121,69.8448923 32.751144,76.1412955 32.8864793,78.1446965 L33.6984911,90.4513026 C34.1044971,97.033906 32.0744675,105.47681 28.6910848,112.774914 L15.5635602,142.969029 C15.4282249,143.255229 15.4282249,143.541429 15.5635602,143.684529 C10.9621598,143.684529 6.76676529,143.684529 2.16536489,143.684529 L16.6462426,108.195712 Z"/>
      <path fill="#001D47" d="M2.03002959,143.827629 C6.63142998,143.827629 10.8268245,143.827629 15.4282249,143.827629 C15.4282249,143.97073 15.5635602,144.11383 15.5635602,144.25693 L18.4056016,147.834431 C19.2176134,148.836132 17.7289251,150.696433 16.2402367,150.696433 L2.16536489,150.839533 C0.406005917,150.839533 -0.406005917,149.408532 0.270670612,147.691331 L2.03002959,143.827629 Z"/>
      <path fill="#FFBCA8" d="M31.8037969 12.6048635L33.8338264 5.87916016C34.7811736 2.87405865 37.7585503 1.01375772 40.735927 1.87235815L41.4126036 2.01545822C44.6606509 2.87405865 46.4200099 6.45156045 45.4726627 9.7428621L43.4426332 16.7547656C42.3599507 20.3322674 38.5705622 22.0494683 35.4578501 20.4753675L34.6458383 20.0460673C32.2098028 18.7581666 30.8564497 15.609965 31.8037969 12.6048635zM45.6079981 21.477068C47.0966864 23.0511688 48.3147042 24.9114697 49.5327219 26.7717707L55.6228107 36.5025755C55.6228107 36.5025755 69.021006 21.3339679 71.4570415 20.9046677 73.893077 20.4753675 77.4117949 23.7666691 76.3291125 26.4855705 75.5171006 28.6320716 68.2089941 39.7938772 59.6828699 48.8091817 57.517505 51.0987829 54.2694576 51.384983 51.8334221 49.5246821L41.6832742 36.3594755 40.1945858 38.9352768C39.1119034 32.3526735 40.735927 24.6252696 45.6079981 21.477068z"/>
      <path fill="#001D47" d="M46.5553452,143.827629 L51.0214103,147.405131 C52.1040927,148.406832 51.5627515,150.267133 50.0740631,150.267133 L35.9991913,150.553333 C34.2398324,150.553333 32.8864793,149.122332 32.751144,147.405131 L32.8864793,143.827629 C37.4878797,143.827629 42.0892801,143.827629 46.5553452,143.827629 C46.5553452,143.827629 46.5553452,143.827629 46.5553452,143.827629 Z"/>
      <path fill="#FFBCA8" d="M32.0744675,105.19061 L16.7815779,84.1548995 C23.007002,82.5807987 29.3677614,80.7204978 35.4578501,78.2877965 C38.4352268,84.0117994 41.9539448,90.4513026 41.9539448,90.4513026 C45.2019921,96.8908059 46.6906805,105.33371 46.4200099,112.631814 L46.1493393,142.682829 C46.1493393,143.112129 46.4200099,143.541429 46.6906805,143.827629 C42.3599507,143.827629 37.623215,143.827629 33.0218146,143.827629 L33.6984911,110.342213 C33.5631558,108.481912 33.0218146,106.621611 32.0744675,105.19061 Z"/>
      <path fill="#00C0CD" d="M33.1571499,14.1789643 C33.9691618,14.1789643 37.2172091,14.8944647 39.7885799,16.4685655 C41.9539448,17.7564661 43.8486391,19.473667 45.6079981,21.477068 C40.735927,24.6252696 39.1119034,32.2095734 40.1945858,38.9352768 L39.2472387,40.3662775 C36.8112032,44.3730795 34.9165089,48.6660817 33.5631558,53.1021839 C26.6610552,52.5297836 20.3002959,49.9539823 14.616213,45.9471803 C19.3529487,32.7819737 22.3303255,15.0375648 33.1571499,14.1789643 Z"/>
      <path fill="#4836F6" d="M6.36075937,58.5399866 C8.93213018,52.3866835 13.3981953,49.381582 13.3981953,49.381582 C13.8042012,48.3798815 14.2102071,47.2350809 14.616213,46.0902804 C20.3002959,50.0970824 26.6610552,52.6728837 33.5631558,53.245284 C32.0744675,58.2537865 31.3977909,63.4053891 31.5331263,68.7000917 C31.5331263,69.272492 31.5331263,69.5586921 31.5331263,69.5586921 C31.5331263,70.4172926 33.2924852,74.1378944 35.4578501,78.2877965 C29.3677614,80.7204978 23.1423373,82.5807987 16.7815779,84.1548995 L15.6988955,82.5807987 L9.20280079,74.1378944 C5.41341223,69.5586921 4.06005917,63.9777893 6.36075937,58.5399866 Z"/>
      <path fill="#00C0CD" d="M40.8712624,88.4479016 C40.8712624,88.4479016 27.4730671,101.899308 1.89469428,98.7511068 C1.89469428,98.7511068 7.71411243,82.7238988 5.27807693,67.8414913 C3.24804734,56.2503855 13.3981953,49.2384819 13.3981953,49.2384819 C13.3981953,49.2384819 19.89429,56.1072854 32.3451381,58.1106864 C32.3451381,58.1106864 30.8564497,66.8397908 35.7285207,74.7102947 C38.8412328,79.7187973 40.8712624,88.4479016 40.8712624,88.4479016 Z"/>
      <path fill="#001D47" d="M42.7659566,9.02736174 C42.7659566,9.02736174 46.1493393,12.1755633 47.5026923,9.59976203 C48.8560454,7.16706081 47.367357,1.01375772 40.8712624,0.298257356 C34.7811736,-0.417243003 32.3451381,4.59125951 29.7737673,9.02736174 C25.5783728,16.4685655 11.2328304,21.0477678 11.6388363,31.0647728 C12.3155128,46.3764805 29.7737673,44.6592796 32.6158087,35.2146749 C34.7811736,27.9165712 31.6684616,19.3305669 34.510503,16.6116656 C37.4878797,14.0358643 40.4652564,16.4685655 42.7659566,9.02736174 Z"/>
    </g>
    <path fill="#3427F6" fill-rule="nonzero" d="M190.146105,120.633361 C190.146105,120.633361 186.627387,112.905957 189.740099,110.043955 C192.852811,107.181954 194.341499,110.043955 199.078235,106.609554 C206.386341,101.171751 217.213166,112.762857 203.5443,119.05926 C203.5443,119.05926 197.724882,121.205761 194.341499,116.912759 C194.206164,116.912759 193.529487,119.91786 190.146105,120.633361 Z"/>
  </g>
</svg>
