<svg xmlns="http://www.w3.org/2000/svg" viewBox="0 0 462 366">
  <defs>
    <linearGradient id="services-a" x1="0%" y1="49.998%" y2="49.998%">
      <stop offset="0%" stop-color="#F577B6"/>
      <stop offset="100%" stop-color="#FF8262"/>
    </linearGradient>
  </defs>
  <g fill="none" fill-rule="evenodd" transform="translate(1)">
    <path fill="#CFDDF4" fill-rule="nonzero" d="M423.439259,343.286035 L4.54942014,343.286035 C2.275787,343.286035 0.435226846,341.339874 0.435226846,338.935792 C0.435226846,336.531711 2.275787,334.58555 4.54942014,334.58555 L423.33099,334.58555 C425.604624,334.58555 427.445184,336.531711 427.445184,338.935792 C427.553452,341.339874 425.712892,343.286035 423.439259,343.286035 Z"/>
    <g transform="translate(5)">
      <path fill="#4836F6" fill-rule="nonzero" d="M418.9806,161.835143 L418.222722,142.030093 C423.960939,143.747294 430.132229,144.319695 436.086983,143.289374 C435.870446,144.663135 435.65391,146.151376 435.329105,147.525136 C426.99245,145.578975 422.445184,153.707059 418.9806,161.835143 Z"/>
      <path fill="#7736F6" fill-rule="nonzero" d="M435.220837,147.525136 C433.921618,153.249139 431.864521,158.858662 429.049547,163.895784 L419.738478,180.380913 L418.9806,161.720663 C422.445184,153.707059 426.99245,145.578975 435.220837,147.525136 Z"/>
      <g fill-rule="nonzero" transform="translate(400.9 167.788)">
        <path fill="#F577B6" d="M4.22246154,19.8050499 L50.3447338,19.8050499 C52.4018304,19.8050499 54.1341223,17.973369 54.1341223,15.7982479 L54.1341223,4.35024219 C54.1341223,2.17512109 52.4018304,0.343440173 50.3447338,0.343440173 L4.22246154,0.343440173 C2.16536489,0.343440173 0.433072979,2.17512109 0.433072979,4.35024219 L0.433072979,15.7982479 C0.433072979,17.973369 2.05709665,19.8050499 4.22246154,19.8050499 Z"/>
        <path fill="#FFF" d="M39.9509823,16.1416881 L48.1793689,16.1416881 C49.4785878,16.1416881 50.453002,14.9968875 50.453002,13.7376069 L50.453002,6.63984334 C50.453002,5.26608265 49.3703196,4.23576213 48.1793689,4.23576213 L39.9509823,4.23576213 C38.6517633,4.23576213 37.6773491,5.3805627 37.6773491,6.63984334 L37.6773491,13.7376069 C37.6773491,15.1113676 38.6517633,16.1416881 39.9509823,16.1416881 Z"/>
        <g fill="#001D47" opacity=".12" transform="translate(6.496 6.63)">
          <path d="M1.51575542.124125827L25.3347692.124125827C25.8761105.124125827 26.3091834.582046057 26.3091834 1.15444634 26.3091834 1.72684663 25.8761105 2.18476686 25.3347692 2.18476686L1.51575542 2.18476686C.974414202 2.18476686.541341223 1.72684663.541341223 1.15444634.541341223.582046057.974414202.124125827 1.51575542.124125827zM13.7500671 4.58884807L25.3347692 4.58884807C25.8761105 4.58884807 26.3091834 5.0467683 26.3091834 5.61916859 26.3091834 6.19156888 25.8761105 6.64948911 25.3347692 6.64948911L13.7500671 6.64948911C13.2087258 6.64948911 12.7756529 6.19156888 12.7756529 5.61916859 12.7756529 5.0467683 13.2087258 4.58884807 13.7500671 4.58884807z"/>
        </g>
        <g transform="translate(0 27.237)">
          <path fill="#DDD6FF" d="M4.22246154,19.5857356 L50.3447338,19.5857356 C52.4018304,19.5857356 54.1341223,17.7540547 54.1341223,15.5789336 L54.1341223,4.13092784 C54.1341223,1.95580675 52.4018304,0.124125827 50.3447338,0.124125827 L4.22246154,0.124125827 C2.16536489,0.124125827 0.433072979,1.95580675 0.433072979,4.13092784 L0.433072979,15.5789336 C0.433072979,17.7540547 2.05709665,19.5857356 4.22246154,19.5857356 Z"/>
          <path fill="#E0E9F8" d="M39.9509823,15.9223738 L48.1793689,15.9223738 C49.4785878,15.9223738 50.453002,14.7775732 50.453002,13.5182926 L50.453002,6.42052899 C50.453002,5.0467683 49.3703196,4.01644778 48.1793689,4.01644778 L39.9509823,4.01644778 C38.6517633,4.01644778 37.6773491,5.16124836 37.6773491,6.42052899 L37.6773491,13.5182926 C37.6773491,14.8920532 38.6517633,15.9223738 39.9509823,15.9223738 Z"/>
          <g fill="#001D47" opacity=".12" transform="translate(6.496 5.963)">
            <path d="M1.51575542.572400288L25.3347692.572400288C25.8761105.572400288 26.3091834 1.03032052 26.3091834 1.60272081 26.3091834 2.17512109 25.8761105 2.63304132 25.3347692 2.63304132L1.51575542 2.63304132C.974414202 2.63304132.541341223 2.17512109.541341223 1.60272081.541341223 1.03032052.974414202.572400288 1.51575542.572400288zM13.7500671 5.03712253L25.3347692 5.03712253C25.8761105 5.03712253 26.3091834 5.49504276 26.3091834 6.06744305 26.3091834 6.63984334 25.8761105 7.09776357 25.3347692 7.09776357L13.7500671 7.09776357C13.2087258 7.09776357 12.7756529 6.63984334 12.7756529 6.06744305 12.7756529 5.49504276 13.2087258 5.03712253 13.7500671 5.03712253z"/>
          </g>
        </g>
        <g transform="translate(0 53.806)">
          <path fill="#7736F6" d="M4.22246154,19.91953 L50.3447338,19.91953 C52.4018304,19.91953 54.1341223,18.0878491 54.1341223,15.912728 L54.1341223,4.46472224 C54.1341223,2.28960115 52.4018304,0.45792023 50.3447338,0.45792023 L4.22246154,0.45792023 C2.16536489,0.45792023 0.433072979,2.28960115 0.433072979,4.46472224 L0.433072979,15.912728 C0.433072979,18.2023291 2.05709665,19.91953 4.22246154,19.91953 Z"/>
          <path fill="#FFF" d="M39.9509823,16.3706482 L48.1793689,16.3706482 C49.4785878,16.3706482 50.453002,15.2258476 50.453002,13.966567 L50.453002,6.86880345 C50.453002,5.49504276 49.3703196,4.46472224 48.1793689,4.46472224 L39.9509823,4.46472224 C38.6517633,4.46472224 37.6773491,5.60952282 37.6773491,6.86880345 L37.6773491,13.966567 C37.6773491,15.2258476 38.6517633,16.3706482 39.9509823,16.3706482 Z"/>
          <g fill="#001D47" opacity=".12" transform="translate(6.496 6.869)">
            <path d="M1.51575542.114480058L25.3347692.114480058C25.8761105.114480058 26.3091834.572400288 26.3091834 1.14480058 26.3091834 1.71720086 25.8761105 2.17512109 25.3347692 2.17512109L1.51575542 2.17512109C.974414202 2.17512109.541341223 1.71720086.541341223 1.14480058.541341223.572400288.974414202.114480058 1.51575542.114480058zM13.7500671 4.5792023L25.3347692 4.5792023C25.8761105 4.5792023 26.3091834 5.03712253 26.3091834 5.60952282 26.3091834 6.18192311 25.8761105 6.63984334 25.3347692 6.63984334L13.7500671 6.63984334C13.2087258 6.63984334 12.7756529 6.18192311 12.7756529 5.60952282 12.7756529 5.03712253 13.2087258 4.5792023 13.7500671 4.5792023z"/>
          </g>
        </g>
      </g>
      <path fill="#FF9272" fill-rule="nonzero" d="M28.6735779,252.961269 L47.1874478,266.698876 C48.594935,267.729197 49.1362762,269.789838 48.4866667,271.507038 C47.6205208,273.68216 45.2386194,274.598 43.1815227,273.453199 L25.2089941,263.149994 L28.6735779,252.961269 Z"/>
      <path fill="#DDD6FF" fill-rule="nonzero" d="M413.891992,329.777388 L41.4492308,329.777388 C36.6854281,329.777388 32.7877712,325.656106 32.7877712,320.618983 L32.7877712,58.8030916 C32.7877712,53.7659691 36.6854281,49.644687 41.4492308,49.644687 L413.891992,49.644687 C418.655795,49.644687 422.553452,53.7659691 422.553452,58.8030916 L422.553452,320.618983 C422.553452,325.656106 418.655795,329.777388 413.891992,329.777388 Z"/>
      <g fill-rule="nonzero" transform="translate(334.856 160.92)">
        <path fill="#FFF" d="M71.0239685,52.4318663 L3.46458383,52.4318663 C1.84056016,52.4318663 0.433072979,51.0581056 0.433072979,49.2264247 L0.433072979,3.43440173 C0.433072979,1.71720086 1.73229191,0.228960115 3.46458383,0.228960115 L71.0239685,0.228960115 C72.6479922,0.228960115 74.0554793,1.60272081 74.0554793,3.43440173 L74.0554793,49.2264247 C74.0554793,51.0581056 72.6479922,52.4318663 71.0239685,52.4318663 Z"/>
        <path fill="#E0E9F8" d="M66.1518975,44.3037823 L8.44492308,44.3037823 C7.47050888,44.3037823 6.60436292,43.5024219 6.60436292,42.3576213 L6.60436292,29.4213748 C6.60436292,28.3910543 7.36224064,27.4752138 8.44492308,27.4752138 L66.1518975,27.4752138 C67.1263117,27.4752138 67.9924576,28.2765742 67.9924576,29.4213748 L67.9924576,42.3576213 C67.8841894,43.5024219 67.1263117,44.3037823 66.1518975,44.3037823 Z"/>
        <g fill="#C2C9E9" transform="translate(57.1 5.724)">
          <path d="M1.36536489.228960115C2.12324261.228960115 2.66458383.801360403 2.66458383 1.60272081 2.66458383 2.40408121 2.12324261 2.9764815 1.36536489 2.9764815.60748718 2.9764815.0661459571 2.40408121.0661459571 1.60272081.0661459571.801360403.60748718.228960115 1.36536489.228960115zM6.12916766.228960115C6.88704537.228960115 7.42838659.801360403 7.42838659 1.60272081 7.42838659 2.40408121 6.88704537 2.9764815 6.12916766 2.9764815 5.37128994 2.9764815 4.82994872 2.40408121 4.82994872 1.60272081 4.82994872.801360403 5.37128994.228960115 6.12916766.228960115zM10.7847022.228960115C11.5425799.228960115 12.0839211.801360403 12.0839211 1.60272081 12.0839211 2.40408121 11.5425799 2.9764815 10.7847022 2.9764815 10.0268245 2.9764815 9.48548324 2.40408121 9.48548324 1.60272081 9.48548324.801360403 10.1350927.228960115 10.7847022.228960115z"/>
        </g>
        <g transform="translate(6.496 11.448)">
          <ellipse cx="5.413" cy="5.381" fill="#A4B5E9" rx="4.872" ry="5.152"/>
          <path fill="#E0E9F8" d="M60.3054123,8.58600431 L16.0237002,8.58600431 C15.5906272,8.58600431 15.2658225,8.24256414 15.2658225,7.78464391 L15.2658225,2.86200144 C15.2658225,2.40408121 15.5906272,2.06064104 16.0237002,2.06064104 L60.3054123,2.06064104 C60.7384852,2.06064104 61.06329,2.40408121 61.06329,2.86200144 L61.06329,7.78464391 C61.06329,8.24256414 60.7384852,8.58600431 60.3054123,8.58600431 Z"/>
        </g>
      </g>
      <path fill="#7736F6" fill-rule="nonzero" d="M422.553452,72.5406985 L422.553452,58.8030916 C422.553452,53.7659691 418.655795,49.644687 413.891992,49.644687 L41.4492308,49.644687 C36.6854281,49.644687 32.7877712,53.7659691 32.7877712,58.8030916 L32.7877712,72.5406985 L422.553452,72.5406985 Z"/>
      <polygon fill="url(#services-a)" fill-rule="nonzero" points="32.788 102.878 422.553 102.878 422.553 149.815 32.788 149.815"/>
      <path fill="#FFF" fill-rule="nonzero" d="M390.61432,97.1539109 L67.0005366,97.1539109 C64.6186352,97.1539109 62.6698068,95.0932699 62.6698068,92.5747086 L62.6698068,82.9583838 C62.6698068,80.4398225 64.6186352,78.3791815 67.0005366,78.3791815 L390.61432,78.3791815 C392.996221,78.3791815 394.94505,80.4398225 394.94505,82.9583838 L394.94505,92.5747086 C394.94505,95.0932699 392.996221,97.1539109 390.61432,97.1539109 Z"/>
      <g stroke="#8DAEE6" stroke-linecap="round" stroke-linejoin="round" stroke-width="1.5" transform="translate(401.7 81.928)">
        <path d="M14.249286.114480058L.0661459571.114480058M14.249286 5.83848293L.0661459571 5.83848293M14.249286 11.5624858L.0661459571 11.5624858"/>
      </g>
      <path stroke="#8DAEE6" stroke-linecap="round" stroke-linejoin="round" stroke-width="1.5" d="M46.7543748,80.3253425 L40.3665484,85.362465 C40.1500119,85.5914251 40.0417436,86.0493453 40.0417436,86.3927855 L40.0417436,94.6353496 C40.0417436,95.2077499 40.4748166,95.6656702 41.0161578,95.6656702 L44.6972782,95.6656702 C45.2386194,95.6656702 45.6716924,95.2077499 45.6716924,94.6353496 L45.6716924,89.369267 C45.6716924,88.2244664 46.4295701,87.1941459 47.4039843,87.0796658 C48.7032032,86.8507057 49.7858857,87.8810263 49.7858857,89.2547869 L49.7858857,94.6353496 C49.7858857,95.2077499 50.2189586,95.6656702 50.7602999,95.6656702 L54.4414202,95.6656702 C54.9827614,95.6656702 55.4158344,95.2077499 55.4158344,94.6353496 L55.4158344,86.3927855 C55.4158344,86.0493453 55.3075661,85.7059052 55.0910296,85.362465 L48.7032032,80.3253425 C48.161862,79.8674222 47.295716,79.8674222 46.7543748,80.3253425 Z"/>
      <g stroke="#E0E9F8" stroke-linecap="round" stroke-linejoin="round" stroke-width="1.5" transform="translate(67.434 82.834)">
        <ellipse cx="4.331" cy="4.589" rx="4.331" ry="4.579"/>
        <path d="M8.55319133,9.85493072 L7.14570415,8.13772985"/>
      </g>
      <g transform="translate(128.064 117.178)">
        <path fill="#FFF" fill-rule="nonzero" d="M196.182059,18.326455 L3.03151085,18.326455 C1.73229191,18.326455 0.649609468,17.1816544 0.649609468,15.8078937 L0.649609468,2.52820704 C0.649609468,1.15444634 1.73229191,0.00964576981 3.03151085,0.00964576981 L196.290328,0.00964576981 C197.589546,0.00964576981 198.672229,1.15444634 198.672229,2.52820704 L198.672229,15.6934136 C198.672229,17.1816544 197.589546,18.326455 196.182059,18.326455 Z"/>
        <path fill="#E0E9F8" fill-rule="nonzero" d="M196.182059,0.00964576981 L179.725286,0.00964576981 L179.725286,18.326455 L196.182059,18.326455 C197.481278,18.326455 198.563961,17.1816544 198.563961,15.8078937 L198.563961,2.52820704 C198.672229,1.15444634 197.589546,0.00964576981 196.182059,0.00964576981 Z"/>
        <g stroke="#C2C9E9" stroke-linecap="round" stroke-linejoin="round" stroke-width="1.5" transform="translate(185.139 4.818)">
          <ellipse cx="4.114" cy="4.007" rx="3.681" ry="3.892"/>
          <path d="M7.68704537,8.58600431 L6.38782643,7.09776357"/>
        </g>
      </g>
      <ellipse cx="50.544" cy="168.246" fill="#7736F6" fill-rule="nonzero" rx="4.872" ry="5.152"/>
      <path fill="#FFF" fill-rule="nonzero" d="M405.880142,315.467381 L338.320758,315.467381 C336.696734,315.467381 335.289247,314.09362 335.289247,312.261939 L335.289247,226.172936 C335.289247,224.455735 336.588466,222.967494 338.320758,222.967494 L405.880142,222.967494 C407.504166,222.967494 408.911653,224.341255 408.911653,226.172936 L408.911653,312.261939 C408.911653,313.97914 407.504166,315.467381 405.880142,315.467381 Z"/>
      <path fill="#A4B5E9" fill-rule="nonzero" d="M99.6975464,171.336988 L61.1540513,171.336988 C60.7209784,171.336988 60.3961736,170.993548 60.3961736,170.535628 L60.3961736,165.612985 C60.3961736,165.155065 60.7209784,164.811625 61.1540513,164.811625 L99.8058147,164.811625 C100.238888,164.811625 100.563692,165.155065 100.563692,165.612985 L100.563692,170.535628 C100.455424,170.993548 100.130619,171.336988 99.6975464,171.336988 Z"/>
      <path fill="#E0E9F8" fill-rule="nonzero" d="M139.107187,90.9719878 L86.5970888,90.9719878 C86.1640159,90.9719878 85.8392111,90.6285476 85.8392111,90.1706274 L85.8392111,85.2479849 C85.8392111,84.7900647 86.1640159,84.4466245 86.5970888,84.4466245 L139.107187,84.4466245 C139.54026,84.4466245 139.865065,84.7900647 139.865065,85.2479849 L139.865065,90.1706274 C139.865065,90.6285476 139.54026,90.9719878 139.107187,90.9719878 Z"/>
      <ellipse cx="50.544" cy="183.357" fill="#A4B5E9" fill-rule="nonzero" rx="4.872" ry="5.152"/>
      <path fill="#A4B5E9" fill-rule="nonzero" d="M99.6975464,186.562836 L61.1540513,186.562836 C60.7209784,186.562836 60.3961736,186.219396 60.3961736,185.761475 L60.3961736,180.838833 C60.3961736,180.380913 60.7209784,180.037473 61.1540513,180.037473 L99.8058147,180.037473 C100.238888,180.037473 100.563692,180.380913 100.563692,180.838833 L100.563692,185.761475 C100.455424,186.219396 100.130619,186.562836 99.6975464,186.562836 Z"/>
      <path fill="#F577B6" fill-rule="nonzero" d="M72.3056805,201.674203 L46.3213018,201.674203 C45.8882288,201.674203 45.5634241,201.330763 45.5634241,200.872843 L45.5634241,199.155642 C45.5634241,198.697722 45.8882288,198.354282 46.3213018,198.354282 L72.3056805,198.354282 C72.7387535,198.354282 73.0635583,198.697722 73.0635583,199.155642 L73.0635583,200.872843 C73.0635583,201.330763 72.7387535,201.674203 72.3056805,201.674203 Z"/>
      <ellipse cx="50.544" cy="213.695" fill="#FFF" fill-rule="nonzero" rx="4.872" ry="5.152"/>
      <path fill="#A4B5E9" fill-rule="nonzero" d="M99.6975464,216.900051 L61.1540513,216.900051 C60.7209784,216.900051 60.3961736,216.556611 60.3961736,216.098691 L60.3961736,211.176048 C60.3961736,210.718128 60.7209784,210.374688 61.1540513,210.374688 L99.8058147,210.374688 C100.238888,210.374688 100.563692,210.718128 100.563692,211.176048 L100.563692,216.098691 C100.455424,216.556611 100.130619,216.900051 99.6975464,216.900051 Z"/>
      <ellipse cx="50.544" cy="228.92" fill="#A4B5E9" fill-rule="nonzero" rx="4.872" ry="5.152"/>
      <path fill="#A4B5E9" fill-rule="nonzero" d="M99.6975464,232.011419 L61.1540513,232.011419 C60.7209784,232.011419 60.3961736,231.667978 60.3961736,231.210058 L60.3961736,226.287416 C60.3961736,225.829496 60.7209784,225.486055 61.1540513,225.486055 L99.8058147,225.486055 C100.238888,225.486055 100.563692,225.829496 100.563692,226.287416 L100.563692,231.210058 C100.455424,231.667978 100.130619,232.011419 99.6975464,232.011419 Z"/>
      <ellipse cx="50.544" cy="244.032" fill="#A4B5E9" fill-rule="nonzero" rx="4.872" ry="5.152"/>
      <path fill="#A4B5E9" fill-rule="nonzero" d="M99.6975464,247.237266 L61.1540513,247.237266 C60.7209784,247.237266 60.3961736,246.893826 60.3961736,246.435906 L60.3961736,241.513263 C60.3961736,241.055343 60.7209784,240.711903 61.1540513,240.711903 L99.8058147,240.711903 C100.238888,240.711903 100.563692,241.055343 100.563692,241.513263 L100.563692,246.435906 C100.455424,246.893826 100.130619,247.237266 99.6975464,247.237266 Z"/>
      <ellipse cx="50.544" cy="259.258" fill="#FFF" fill-rule="nonzero" rx="4.872" ry="5.152"/>
      <path fill="#A4B5E9" fill-rule="nonzero" d="M99.6975464,262.348634 L61.1540513,262.348634 C60.7209784,262.348634 60.3961736,262.005194 60.3961736,261.547273 L60.3961736,256.624631 C60.3961736,256.166711 60.7209784,255.823271 61.1540513,255.823271 L99.8058147,255.823271 C100.238888,255.823271 100.563692,256.166711 100.563692,256.624631 L100.563692,261.547273 C100.455424,262.005194 100.130619,262.348634 99.6975464,262.348634 Z"/>
      <path fill="#F577B6" fill-rule="nonzero" d="M72.3056805,277.574482 L46.3213018,277.574482 C45.8882288,277.574482 45.5634241,277.231041 45.5634241,276.773121 L45.5634241,275.05592 C45.5634241,274.598 45.8882288,274.25456 46.3213018,274.25456 L72.3056805,274.25456 C72.7387535,274.25456 73.0635583,274.598 73.0635583,275.05592 L73.0635583,276.773121 C73.0635583,277.231041 72.7387535,277.574482 72.3056805,277.574482 Z"/>
      <ellipse cx="50.544" cy="289.595" fill="#A4B5E9" fill-rule="nonzero" rx="4.872" ry="5.152"/>
      <path fill="#A4B5E9" fill-rule="nonzero" d="M99.6975464,292.685849 L61.1540513,292.685849 C60.7209784,292.685849 60.3961736,292.342409 60.3961736,291.884489 L60.3961736,286.961846 C60.3961736,286.503926 60.7209784,286.160486 61.1540513,286.160486 L99.8058147,286.160486 C100.238888,286.160486 100.563692,286.503926 100.563692,286.961846 L100.563692,291.884489 C100.455424,292.342409 100.130619,292.685849 99.6975464,292.685849 Z"/>
      <ellipse cx="50.544" cy="304.706" fill="#FFF" fill-rule="nonzero" rx="4.872" ry="5.152"/>
      <path fill="#A4B5E9" fill-rule="nonzero" d="M99.6975464,307.911697 L61.1540513,307.911697 C60.7209784,307.911697 60.3961736,307.568257 60.3961736,307.110336 L60.3961736,302.187694 C60.3961736,301.729774 60.7209784,301.386334 61.1540513,301.386334 L99.8058147,301.386334 C100.238888,301.386334 100.563692,301.729774 100.563692,302.187694 L100.563692,307.110336 C100.455424,307.568257 100.130619,307.911697 99.6975464,307.911697 Z"/>
      <g fill-rule="nonzero" transform="translate(112.906 160.92)">
        <path fill="#FFF" d="M212.422296,73.0382767 L3.03151085,73.0382767 C1.40748718,73.0382767 0,71.664516 0,69.8328351 L0,3.43440173 C0,1.71720086 1.29921894,0.228960115 3.03151085,0.228960115 L212.530564,0.228960115 C214.154588,0.228960115 215.562075,1.60272081 215.562075,3.43440173 L215.562075,69.8328351 C215.453807,71.664516 214.154588,73.0382767 212.422296,73.0382767 Z"/>
        <path fill="#E0E9F8" d="M59.8723393 13.7376069L7.36224064 13.7376069C6.92916766 13.7376069 6.60436292 13.3941667 6.60436292 12.9362465L6.60436292 8.01360403C6.60436292 7.5556838 6.92916766 7.21224362 7.36224064 7.21224362L59.8723393 7.21224362C60.3054123 7.21224362 60.630217 7.5556838 60.630217 8.01360403L60.630217 12.9362465C60.630217 13.3941667 60.3054123 13.7376069 59.8723393 13.7376069zM207.117152 66.0549932L7.36224064 66.0549932C6.92916766 66.0549932 6.60436292 65.711553 6.60436292 65.2536328L6.60436292 60.3309903C6.60436292 59.8730701 6.92916766 59.5296299 7.36224064 59.5296299L207.117152 59.5296299C207.550225 59.5296299 207.87503 59.8730701 207.87503 60.3309903L207.87503 65.2536328C207.87503 65.711553 207.550225 66.0549932 207.117152 66.0549932zM120.502556 13.7376069L67.9924576 13.7376069C67.5593847 13.7376069 67.2345799 13.3941667 67.2345799 12.9362465L67.2345799 8.01360403C67.2345799 7.5556838 67.5593847 7.21224362 67.9924576 7.21224362L120.502556 7.21224362C120.935629 7.21224362 121.260434 7.5556838 121.260434 8.01360403L121.260434 12.9362465C121.260434 13.3941667 120.935629 13.7376069 120.502556 13.7376069zM181.132773 13.7376069L128.622675 13.7376069C128.189602 13.7376069 127.864797 13.3941667 127.864797 12.9362465L127.864797 8.01360403C127.864797 7.5556838 128.189602 7.21224362 128.622675 7.21224362L181.132773 7.21224362C181.565846 7.21224362 181.890651 7.5556838 181.890651 8.01360403L181.890651 12.9362465C181.890651 13.3941667 181.565846 13.7376069 181.132773 13.7376069z"/>
        <path fill="#CEDFE7" d="M180.483164,49.4553848 L8.12011835,49.4553848 C7.36224064,49.4553848 6.71263117,48.7685045 6.71263117,47.9671441 L6.71263117,27.818654 C6.71263117,27.0172936 7.36224064,26.3304132 8.12011835,26.3304132 L180.483164,26.3304132 C181.241042,26.3304132 181.890651,27.0172936 181.890651,27.818654 L181.890651,47.9671441 C181.890651,48.7685045 181.241042,49.4553848 180.483164,49.4553848 Z"/>
      </g>
      <g fill-rule="nonzero" transform="translate(112.906 242.2)">
        <path fill="#FFF" d="M212.422296,73.2672368 L3.03151085,73.2672368 C1.40748718,73.2672368 0,71.8934761 0,70.0617952 L0,3.66336184 C0,1.94616098 1.29921894,0.45792023 3.03151085,0.45792023 L212.530564,0.45792023 C214.154588,0.45792023 215.562075,1.83168092 215.562075,3.66336184 L215.562075,70.0617952 C215.453807,71.7789961 214.154588,73.2672368 212.422296,73.2672368 Z"/>
        <path fill="#E0E9F8" d="M59.8723393 13.852087L7.36224064 13.852087C6.92916766 13.852087 6.60436292 13.5086468 6.60436292 13.0507266L6.60436292 8.12808408C6.60436292 7.67016385 6.92916766 7.32672368 7.36224064 7.32672368L59.8723393 7.32672368C60.3054123 7.32672368 60.630217 7.67016385 60.630217 8.12808408L60.630217 13.0507266C60.630217 13.5086468 60.3054123 13.852087 59.8723393 13.852087zM207.117152 66.2839533L7.36224064 66.2839533C6.92916766 66.2839533 6.60436292 65.9405131 6.60436292 65.4825929L6.60436292 60.5599504C6.60436292 60.1020302 6.92916766 59.75859 7.36224064 59.75859L207.117152 59.75859C207.550225 59.75859 207.87503 60.1020302 207.87503 60.5599504L207.87503 65.4825929C207.87503 65.9405131 207.550225 66.2839533 207.117152 66.2839533zM120.502556 13.852087L67.9924576 13.852087C67.5593847 13.852087 67.2345799 13.5086468 67.2345799 13.0507266L67.2345799 8.12808408C67.2345799 7.67016385 67.5593847 7.32672368 67.9924576 7.32672368L120.502556 7.32672368C120.935629 7.32672368 121.260434 7.67016385 121.260434 8.12808408L121.260434 13.0507266C121.260434 13.5086468 120.935629 13.852087 120.502556 13.852087zM181.132773 13.852087L128.622675 13.852087C128.189602 13.852087 127.864797 13.5086468 127.864797 13.0507266L127.864797 8.12808408C127.864797 7.67016385 128.189602 7.32672368 128.622675 7.32672368L181.132773 7.32672368C181.565846 7.32672368 181.890651 7.67016385 181.890651 8.12808408L181.890651 13.0507266C181.890651 13.5086468 181.565846 13.852087 181.132773 13.852087z"/>
        <path fill="#CEDFE7" d="M180.483164,49.684345 L8.12011835,49.684345 C7.36224064,49.684345 6.71263117,48.9974646 6.71263117,48.1961042 L6.71263117,28.0476141 C6.71263117,27.2462537 7.36224064,26.5593733 8.12011835,26.5593733 L180.483164,26.5593733 C181.241042,26.5593733 181.890651,27.2462537 181.890651,28.0476141 L181.890651,48.1961042 C181.890651,48.9974646 181.241042,49.684345 180.483164,49.684345 Z"/>
      </g>
      <path fill="#E0E9F8" fill-rule="nonzero" d="M387.041468,232.011419 L402.632095,232.011419 C403.498241,232.011419 404.14785,231.324538 404.14785,230.408698 C404.14785,229.492857 403.498241,228.805977 402.632095,228.805977 L387.041468,228.805977 C386.175322,228.805977 385.525712,229.492857 385.525712,230.408698 C385.417444,231.324538 386.175322,232.011419 387.041468,232.011419 Z"/>
      <g fill-rule="nonzero" transform="translate(344.6 239.91)">
        <ellipse cx="4.98" cy="5.495" fill="#7736F6" rx="4.872" ry="5.152"/>
        <path fill="#E0E9F8" d="M54.2423906,8.70048437 L15.5906272,8.70048437 C15.1575542,8.70048437 14.8327495,8.3570442 14.8327495,7.89912397 L14.8327495,2.9764815 C14.8327495,2.51856127 15.1575542,2.17512109 15.5906272,2.17512109 L54.2423906,2.17512109 C54.6754635,2.17512109 55.0002683,2.51856127 55.0002683,2.9764815 L55.0002683,7.89912397 C55.0002683,8.3570442 54.6754635,8.70048437 54.2423906,8.70048437 Z"/>
        <path fill="#A4B5E9" d="M54.2423906,23.811852 L0.866145957,23.811852 C0.433072979,23.811852 0.108268245,23.4684118 0.108268245,23.0104916 L0.108268245,18.0878491 C0.108268245,17.6299289 0.433072979,17.2864887 0.866145957,17.2864887 L54.2423906,17.2864887 C54.6754635,17.2864887 55.0002683,17.6299289 55.0002683,18.0878491 L55.0002683,23.0104916 C55.0002683,23.4684118 54.6754635,23.811852 54.2423906,23.811852 Z"/>
      </g>
      <g fill-rule="nonzero" transform="translate(344.6 280.885)">
        <ellipse cx="4.98" cy="5.276" fill="#7736F6" rx="4.872" ry="5.152"/>
        <path fill="#E0E9F8" d="M54.2423906,8.36668997 L15.5906272,8.36668997 C15.1575542,8.36668997 14.8327495,8.0232498 14.8327495,7.56532957 L14.8327495,2.64268709 C14.8327495,2.18476686 15.1575542,1.84132669 15.5906272,1.84132669 L54.2423906,1.84132669 C54.6754635,1.84132669 55.0002683,2.18476686 55.0002683,2.64268709 L55.0002683,7.56532957 C55.0002683,8.0232498 54.6754635,8.36668997 54.2423906,8.36668997 Z"/>
        <path fill="#A4B5E9" d="M54.2423906,23.5925376 L0.866145957,23.5925376 C0.433072979,23.5925376 0.108268245,23.2490974 0.108268245,22.7911772 L0.108268245,17.8685347 C0.108268245,17.4106145 0.433072979,17.0671743 0.866145957,17.0671743 L54.2423906,17.0671743 C54.6754635,17.0671743 55.0002683,17.4106145 55.0002683,17.8685347 L55.0002683,22.7911772 C55.0002683,23.2490974 54.6754635,23.5925376 54.2423906,23.5925376 Z"/>
      </g>
      <path fill="#CEDFE7" fill-rule="nonzero" d="M385.309176,82.3859835 L386.391858,84.6755846 C386.608395,85.2479849 387.149736,85.5914251 387.691077,85.7059052 L390.072979,86.0493453 C390.506052,86.1638254 390.61432,86.6217456 390.397783,86.9651858 L388.665491,88.7968667 C388.232418,89.2547869 388.12415,89.8271872 388.12415,90.3995875 L388.557223,92.9181488 C388.665491,93.376069 388.232418,93.7195092 387.799345,93.4905491 L385.633981,92.3457485 C385.092639,92.1167884 384.551298,92.1167884 384.009957,92.3457485 L381.844592,93.4905491 C381.519787,93.7195092 380.978446,93.376069 381.086714,92.9181488 L381.519787,90.3995875 C381.628055,89.8271872 381.411519,89.2547869 380.978446,88.7968667 L379.246154,86.9651858 C378.921349,86.6217456 379.137886,86.0493453 379.570959,86.0493453 L381.95286,85.7059052 C382.494201,85.5914251 383.035543,85.2479849 383.252079,84.6755846 L384.334762,82.3859835 C384.551298,81.9280633 385.092639,81.9280633 385.309176,82.3859835 Z"/>
      <path fill="#80272B" fill-rule="nonzero" d="M135.317799 58.6886116C133.044166 60.1768523 130.662264 61.436133 128.172095 62.4664535L130.987069 68.5338965 125.790193 81.0122228C125.032316 82.8439037 125.790193 85.0190248 127.630754 85.7059052 129.254777 86.3927855 131.203606 85.5914251 131.961483 83.8742242L137.266627 71.6248581C138.457578 68.8773367 138.457578 65.6718951 137.266627 62.8098937L135.317799 58.6886116zM91.1443551 60.8637327L90.7112821 64.6415746C90.2782091 67.9614962 91.3608916 71.1669379 93.5262565 73.456539L104.786154 85.2479849C105.760568 86.2783054 107.384592 86.3927855 108.467274 85.5914251 109.766493 84.5611046 109.98303 82.6149436 109.008615 81.2411829L99.1562052 67.389096 100.347156 62.8098937C97.0991086 62.6954136 94.0675977 62.0085333 91.1443551 60.8637327z"/>
      <path fill="#F779A5" fill-rule="nonzero" d="M132.394556,51.8198081 C130.120923,46.5537255 125.465389,42.7758836 119.943708,41.8600431 L109.766493,40.1428423 C103.378667,39.1125218 97.0991086,42.3179634 93.9593295,48.1564463 C92.876647,50.1026073 92.2270376,52.2777284 92.0105011,54.4528495 L91.2526233,60.7492526 C94.175866,61.8940532 97.315645,62.5809335 100.455424,62.5809335 L100.671961,61.6650931 C101.429838,58.6886116 103.920008,56.5134905 106.951519,56.2845304 L120.160245,55.3686899 C122.975219,55.1397298 125.681925,56.8569307 126.872876,59.489972 L128.172095,62.3519734 C130.662264,61.3216529 133.152434,60.0623723 135.317799,58.5741315 L132.394556,51.8198081 Z"/>
      <path fill="#80272B" fill-rule="nonzero" d="M108.792079,55.3686899 L109.441688,49.9881272 C109.766493,47.1261258 112.148395,45.0654847 114.855101,45.1799648 C117.778343,45.4089249 120.051976,48.1564463 119.727172,51.2474078 L119.18583,56.6279706 C118.861026,59.9478922 115.829515,62.2374934 112.689736,61.3216529 L112.581468,61.3216529 C110.199566,60.6347726 108.575542,58.0017312 108.792079,55.3686899 Z"/>
      <g fill-rule="nonzero" transform="translate(171.371 344.994)">
        <g transform="translate(0 .239)">
          <path fill="#DDD6FF" stroke="#7736F6" d="M48.5041736,13.966567 C49.2620513,13.0507266 50.1281973,12.2493662 50.886075,11.3335257 C50.9943432,11.2190456 51.2108797,10.9900855 51.319148,10.8756055 C52.7266351,8.12808408 55.2168048,5.26608265 57.0573649,3.09096155 C57.9235109,1.94616098 58.8979251,0.91584046 59.9806075,0 L19.1634793,0 C17.4311874,0 15.6988955,0.343440173 15.3740907,0.801360403 L0.974414202,17.1720086 C0.216536489,18.0878491 1.62402367,18.7747294 4.00592505,18.7747294 L44.8230533,18.7747294 C45.9057357,16.9430485 47.2049547,15.3403277 48.5041736,13.966567 Z"/>
          <g transform="translate(11.91 2.29)">
            <path fill="#E0E9F8" d="M36.5946667,11.6769659 C37.3525444,10.7611254 38.2186904,9.959765 38.9765681,9.04392454 C39.0848363,8.92944449 39.3013728,8.70048437 39.409641,8.58600431 C39.842714,7.67016385 40.4923235,6.75432339 41.141933,5.83848293 L6.71263117,5.83848293 C5.52168048,5.83848293 4.22246154,6.18192311 4.00592505,6.52536328 L0.216536489,11.6769659 C-0.108268245,12.1348861 0.757877712,12.4783263 2.16536489,12.4783263 L35.9450572,12.4783263 C36.0533255,12.1348861 36.3781302,11.905926 36.5946667,11.6769659 Z"/>
            <g transform="translate(7.296)">
              <path fill="#A4B5E9" d="M11.5425799,2.17512109 C11.1095069,3.09096155 8.07799606,3.7778419 4.82994872,3.7778419 C1.58190138,3.7778419 -0.475195266,2.9764815 0.174414202,2.17512109 C0.82402367,1.25928063 3.74726627,0.686880345 6.77877712,0.686880345 C9.91855622,0.686880345 11.9756529,1.37376069 11.5425799,2.17512109 Z"/>
              <path fill="#E0E9F8" d="M37.4186904,1.25928063 L18.688284,1.25928063 C18.2552111,1.25928063 17.8221381,1.37376069 17.8221381,1.48824075 L17.2807969,2.9764815 C17.2807969,3.09096155 17.6056016,3.20544161 18.0386746,3.20544161 L35.9029349,3.20544161 C36.3360079,2.51856127 36.8773491,1.83168092 37.4186904,1.25928063 Z"/>
            </g>
          </g>
        </g>
        <g transform="translate(40.943)">
          <path fill="#DDD6FF" stroke="#7736F6" d="M104.46161,18.8988553 L3.33906931,18.8988553 C0.848899688,18.8988553 -0.450319248,18.2119749 0.307558465,17.2961345 L14.707235,0.92548623 C15.140308,0.467566 16.7643316,0.124125827 18.4966236,0.124125827 L89.4123238,0.124125827 C91.1446157,0.124125827 92.8769076,0.467566 93.2017124,0.92548623 L107.601389,17.2961345 C108.250998,18.2119749 106.843511,18.8988553 104.46161,18.8988553 Z"/>
          <g transform="translate(11.026 1.383)">
            <path fill="#E0E9F8" d="M83.3665484,13.6231268 L2.27363314,13.6231268 C0.866145957,13.6231268 -2.77555756e-16,13.2796867 0.324804734,12.8217664 L4.1141933,7.67016385 C4.43899803,7.32672368 5.62994872,6.98328351 6.82089941,6.98328351 L78.7110139,6.98328351 C79.9019645,6.98328351 81.2011835,7.32672368 81.41772,7.67016385 L85.2071085,12.8217664 C85.6401815,13.2796867 84.7740356,13.6231268 83.3665484,13.6231268 Z"/>
            <g fill="#C2C9E9" transform="translate(63.878)">
              <path d="M1.9488284.228960115C2.70670612.228960115 3.46458383.343440173 3.57285207.572400288 3.68112032.801360403 3.13977909.91584046 2.38190138.91584046 1.62402367.91584046.866145957.801360403.757877712.572400288.649609468.45792023 1.19095069.228960115 1.9488284.228960115zM7.0374359.228960115C7.79531361.228960115 8.55319133.343440173 8.66145957.572400288 8.76972782.801360403 8.22838659.91584046 7.47050888.91584046 6.71263117.91584046 5.95475346.801360403 5.84648521.572400288 5.73821697.45792023 6.27955819.228960115 7.0374359.228960115zM12.2343116.228960115C12.9921894.228960115 13.7500671.343440173 13.9666036.572400288 14.0748718.801360403 13.6417988.91584046 12.7756529.91584046 12.0177752.91584046 11.2598974.801360403 11.043361.572400288 10.9350927.45792023 11.3681657.228960115 12.2343116.228960115z"/>
            </g>
            <g transform="translate(7.38 1.145)">
              <path fill="#A4B5E9" d="M11.6757242,2.17512109 C11.2426512,3.09096155 8.21114032,3.7778419 4.96309298,3.7778419 C1.71504565,3.7778419 -0.342051003,2.9764815 0.307558465,2.17512109 C0.957167933,1.25928063 3.88041054,0.686880345 6.91192139,0.686880345 C10.0517005,0.686880345 12.1087971,1.37376069 11.6757242,2.17512109 Z"/>
              <path fill="#E0E9F8" d="M70.3571127,3.20544161 L17.9552823,3.20544161 C17.5222094,3.20544161 17.0891364,3.09096155 17.1974046,2.9764815 L17.7387459,1.48824075 C17.7387459,1.37376069 18.1718188,1.25928063 18.6048918,1.25928063 L68.8413573,1.25928063 C69.2744303,1.25928063 69.7075033,1.37376069 69.8157715,1.48824075 L70.898454,2.9764815 C71.1149905,3.09096155 70.898454,3.20544161 70.3571127,3.20544161 Z"/>
            </g>
          </g>
        </g>
        <g transform="translate(89.863)">
          <path fill="#DDD6FF" stroke="#7736F6" d="M104.370588,18.8988553 L3.24804734,18.8988553 C0.757877712,18.8988553 -0.541341223,18.2119749 0.216536489,17.2961345 L14.616213,0.92548623 C15.049286,0.467566 16.6733097,0.124125827 18.4056016,0.124125827 L89.3213018,0.124125827 C91.0535937,0.124125827 92.7858857,0.467566 93.1106904,0.92548623 L107.510367,17.2961345 C108.159976,18.2119749 106.752489,18.8988553 104.370588,18.8988553 Z"/>
          <g transform="translate(10.827 1.383)">
            <path fill="#E0E9F8" d="M83.4748166,13.6231268 L2.38190138,13.6231268 C0.974414202,13.6231268 0.108268245,13.2796867 0.433072979,12.8217664 L4.22246154,7.67016385 C4.54726627,7.32672368 5.73821697,6.98328351 6.92916766,6.98328351 L78.8192821,6.98328351 C80.0102328,6.98328351 81.3094517,7.32672368 81.5259882,7.67016385 L85.3153768,12.8217664 C85.6401815,13.2796867 84.8823038,13.6231268 83.4748166,13.6231268 Z"/>
            <g fill="#C2C9E9" transform="translate(64.678)">
              <path d="M1.25709665.228960115C2.01497436.228960115 2.77285207.343440173 2.88112032.572400288 2.98938856.801360403 2.44804734.91584046 1.69016963.91584046.932291914.91584046.174414202.801360403.0661459571.572400288-.150390532.45792023.499218936.228960115 1.25709665.228960115zM6.34570415.228960115C7.10358186.228960115 7.86145957.343440173 7.96972782.572400288 8.07799606.801360403 7.53665484.91584046 6.77877712.91584046 6.02089941.91584046 5.2630217.801360403 5.15475346.572400288 5.04648521.45792023 5.58782643.228960115 6.34570415.228960115zM11.4343116.228960115C12.1921894.228960115 12.9500671.343440173 13.1666036.572400288 13.2748718.801360403 12.8417988.91584046 11.9756529.91584046 11.2177752.91584046 10.4598974.801360403 10.243361.572400288 10.243361.45792023 10.6764339.228960115 11.4343116.228960115z"/>
            </g>
            <g transform="translate(7.579 1.145)">
              <path fill="#A4B5E9" d="M11.5847022,2.17512109 C11.1516292,3.09096155 8.12011835,3.7778419 4.87207101,3.7778419 C1.62402367,3.7778419 -0.433072979,2.9764815 0.216536489,2.17512109 C0.866145957,1.25928063 3.78938856,0.686880345 6.82089941,0.686880345 C9.85241026,0.686880345 12.0177752,1.37376069 11.5847022,2.17512109 Z"/>
              <path fill="#E0E9F8" d="M70.2660908,3.20544161 L17.8642604,3.20544161 C17.4311874,3.20544161 16.9981144,3.09096155 17.1063827,2.9764815 L17.6477239,1.48824075 C17.6477239,1.37376069 18.0807969,1.25928063 18.5138698,1.25928063 L68.7503353,1.25928063 C69.1834083,1.25928063 69.6164813,1.37376069 69.7247495,1.48824075 L70.807432,2.9764815 C71.0239685,3.09096155 70.6991637,3.20544161 70.2660908,3.20544161 Z"/>
            </g>
          </g>
        </g>
      </g>
      <g fill-rule="nonzero" transform="translate(116.437 .316)">
        <g transform="translate(16 20)">
          <path fill="#DDD6FF" d="M87.1386907,19.4616098 L4.42175176,19.4616098 C2.03985038,19.4616098 0.0910219756,17.4009687 0.0910219756,14.8824075 L0.0910219756,5.26608265 C0.0910219756,2.74752138 2.03985038,0.686880345 4.42175176,0.686880345 L87.1386907,0.686880345 C89.520592,0.686880345 91.4694204,2.74752138 91.4694204,5.26608265 L91.4694204,14.8824075 C91.4694204,17.4009687 89.520592,19.4616098 87.1386907,19.4616098 Z"/>
          <path fill="#F8F8F8" d="M12.9749431 13.2796867C13.7328208 12.3638462 14.274162 11.1045656 14.274162 9.73080489 14.274162 6.75432339 12.0005289 4.23576213 9.07728628 4.23576213 6.26231192 4.23576213 3.88041054 6.63984334 3.88041054 9.73080489 3.88041054 12.7072864 6.15404368 15.2258476 9.07728628 15.2258476 10.0517005 15.2258476 10.9178464 14.8824075 11.6757242 14.4244872L12.6501384 15.6837679C12.7584066 15.912728 13.0832113 16.0272081 13.2997478 16.0272081 13.5162843 16.0272081 13.6245526 15.912728 13.841089 15.7982479 14.1658938 15.4548078 14.1658938 14.9968875 13.9493573 14.5389673L12.9749431 13.2796867zM5.61270245 9.73080489C5.61270245 7.67016385 7.23672612 5.95296299 9.18555453 5.95296299 11.1343829 5.95296299 12.7584066 7.67016385 12.7584066 9.73080489 12.7584066 11.7914459 11.1343829 13.5086468 9.18555453 13.5086468 7.12845788 13.5086468 5.61270245 11.7914459 5.61270245 9.73080489zM76.5284027 13.2796867L24.018304 13.2796867C23.5852311 13.2796867 23.2604263 12.9362465 23.2604263 12.4783263L23.2604263 7.5556838C23.2604263 7.09776357 23.5852311 6.75432339 24.018304 6.75432339L76.5284027 6.75432339C76.9614757 6.75432339 77.2862804 7.09776357 77.2862804 7.5556838L77.2862804 12.4783263C77.1780122 12.9362465 76.8532074 13.2796867 76.5284027 13.2796867z"/>
        </g>
        <path fill="#DDD6FF" d="M87.3724734,19.4616098 L4.65553452,19.4616098 C2.27363314,19.4616098 0.324804734,17.4009687 0.324804734,14.8824075 L0.324804734,5.26608265 C0.324804734,2.74752138 2.27363314,0.686880345 4.65553452,0.686880345 L87.3724734,0.686880345 C89.7543748,0.686880345 91.7032032,2.74752138 91.7032032,5.26608265 L91.7032032,14.8824075 C91.7032032,17.4009687 89.7543748,19.4616098 87.3724734,19.4616098 Z"/>
        <path fill="#F8F8F8" d="M13.2087258 13.2796867C13.9666036 12.3638462 14.5079448 11.1045656 14.5079448 9.73080489 14.5079448 6.75432339 12.2343116 4.23576213 9.31106904 4.23576213 6.49609468 4.23576213 4.1141933 6.63984334 4.1141933 9.73080489 4.1141933 12.7072864 6.38782643 15.2258476 9.31106904 15.2258476 10.2854832 15.2258476 11.1516292 14.8824075 11.9095069 14.4244872L12.8839211 15.6837679C12.9921894 15.912728 13.3169941 16.0272081 13.5335306 16.0272081 13.7500671 16.0272081 13.8583353 15.912728 14.0748718 15.7982479 14.3996765 15.4548078 14.3996765 14.9968875 14.18314 14.5389673L13.2087258 13.2796867zM5.84648521 9.73080489C5.84648521 7.67016385 7.47050888 5.95296299 9.41933728 5.95296299 11.3681657 5.95296299 12.9921894 7.67016385 12.9921894 9.73080489 12.9921894 11.7914459 11.3681657 13.5086468 9.41933728 13.5086468 7.47050888 13.5086468 5.84648521 11.7914459 5.84648521 9.73080489zM76.7621854 13.2796867L24.2520868 13.2796867C23.8190138 13.2796867 23.4942091 12.9362465 23.4942091 12.4783263L23.4942091 7.5556838C23.4942091 7.09776357 23.8190138 6.75432339 24.2520868 6.75432339L76.7621854 6.75432339C77.1952584 6.75432339 77.5200632 7.09776357 77.5200632 7.5556838L77.5200632 12.4783263C77.5200632 12.9362465 77.1952584 13.2796867 76.7621854 13.2796867z"/>
        <g transform="translate(30.916 40.16)">
          <path fill="#DDD6FF" d="M87.1386907,18.7843752 L4.42175176,18.7843752 C2.03985038,18.7843752 0.0910219756,16.7237342 0.0910219756,14.2051729 L0.0910219756,4.58884807 C0.0910219756,2.0702868 2.03985038,0.00964576981 4.42175176,0.00964576981 L87.1386907,0.00964576981 C89.520592,0.00964576981 91.4694204,2.0702868 91.4694204,4.58884807 L91.4694204,14.2051729 C91.4694204,16.7237342 89.520592,18.7843752 87.1386907,18.7843752 Z"/>
          <g transform="translate(3.447 3.434)">
            <path fill="#F9F9F9" d="M5.73821697,11.1142113 C2.92324261,11.1142113 0.541341223,8.71013014 0.541341223,5.61916859 C0.541341223,2.64268709 2.81497436,0.124125827 5.73821697,0.124125827 C8.55319133,0.124125827 10.9350927,2.52820704 10.9350927,5.61916859 C10.8268245,8.59565008 8.55319133,11.1142113 5.73821697,11.1142113 Z M5.73821697,1.84132669 C3.78938856,1.84132669 2.16536489,3.55852755 2.16536489,5.61916859 C2.16536489,7.67980962 3.78938856,9.39701049 5.73821697,9.39701049 C7.68704537,9.39701049 9.31106904,7.67980962 9.31106904,5.61916859 C9.20280079,3.55852755 7.68704537,1.84132669 5.73821697,1.84132669 Z"/>
            <path fill="#F5F5F5" d="M9.96067851,11.8010917 C9.74414202,11.8010917 9.52760553,11.6866116 9.31106904,11.4576515 L7.90358186,9.6259706 C7.57877712,9.28253043 7.68704537,8.71013014 8.0118501,8.36668997 C8.33665484,8.0232498 8.87799606,8.13772985 9.20280079,8.48117003 L10.610288,10.3128509 C10.9350927,10.6562911 10.8268245,11.2286914 10.5020197,11.5721316 C10.2854832,11.6866116 10.0689468,11.8010917 9.96067851,11.8010917 Z"/>
          </g>
          <path fill="#F8F8F8" d="M76.5284027,12.6024521 L24.018304,12.6024521 C23.5852311,12.6024521 23.2604263,12.2590119 23.2604263,11.8010917 L23.2604263,6.87844922 C23.2604263,6.42052899 23.5852311,6.07708882 24.018304,6.07708882 L76.5284027,6.07708882 C76.9614757,6.07708882 77.2862804,6.42052899 77.2862804,6.87844922 L77.2862804,11.8010917 C77.1780122,12.2590119 76.8532074,12.6024521 76.5284027,12.6024521 Z"/>
        </g>
      </g>
      <g fill="#CFE4E9" fill-rule="nonzero" transform="translate(71.764 349.811)">
        <ellipse cx="6.063" cy="6.869" rx="6.063" ry="6.411"/>
        <path d="M23.9272821,0.45792023 C27.2835976,0.45792023 29.9903038,3.31992167 29.9903038,6.86880345 C29.9903038,10.4176852 27.2835976,13.2796867 23.9272821,13.2796867 C20.5709665,13.2796867 17.8642604,10.4176852 17.8642604,6.86880345 C17.8642604,3.31992167 20.5709665,0.45792023 23.9272821,0.45792023 Z" opacity=".6"/>
        <path d="M41.7915424,0.45792023 C45.147858,0.45792023 47.8545641,3.31992167 47.8545641,6.86880345 C47.8545641,10.4176852 45.147858,13.2796867 41.7915424,13.2796867 C38.4352268,13.2796867 35.7285207,10.4176852 35.7285207,6.86880345 C35.7285207,3.31992167 38.4352268,0.45792023 41.7915424,0.45792023 Z" opacity=".35"/>
      </g>
      <g fill-rule="nonzero" transform="translate(409.561 95.666)">
        <path fill="#00C0CD" d="M8.55319133,46.3644233 L8.44492308,42.4721013 L27.0670612,34.9164175 L27.0670612,38.9232196 C27.0670612,41.899701 26.8505247,44.7617025 26.4174517,47.738184 C20.4626982,48.6540244 14.3996765,48.0816242 8.55319133,46.3644233 Z"/>
        <path fill="#00C0CD" d="M12.8839211,32.1688962 L12.7756529,7.09776357 L21.1123077,8.58600431 C25.4430375,9.38736472 29.0158896,12.7072864 30.2068403,17.1720086 L32.4804734,29.4213748 C33.3466193,32.5123363 31.7225957,35.832258 28.9076213,36.8625785 L18.8386746,42.2431412 C15.8071637,39.72458 13.8583353,35.9467381 12.8839211,32.1688962 Z"/>
        <path fill="#8B572A" d="M2.49016963 40.8693805L12.7756529 32.1688962C13.7500671 35.9467381 15.6988955 39.72458 18.7304063 42.1286612L5.52168048 49.2264247C3.24804734 50.0277851.649609468 48.6540244.108268245 46.1354632-.324804734 43.9603421.649609468 41.785221 2.49016963 40.8693805zM20.5709665 12.020406L19.921357 6.52536328C19.5965523 3.54888178 17.1063827 1.37376069 14.2914083 1.60272081 11.2598974 1.83168092 8.9862643 4.5792023 9.31106904 7.78464391L9.85241026 13.2796867C10.177215 16.7140884 13.3169941 19.0036895 16.4567732 18.2023291L16.5650414 18.2023291C19.1634793 17.5154488 20.8957712 14.8824075 20.5709665 12.020406z"/>
        <path fill="#042A37" d="M20.4626982,11.2190456 C20.4626982,11.2190456 17.9725286,9.73080489 17.7559921,6.18192311 C17.7559921,6.18192311 12.4508481,8.3570442 9.31106904,6.98328351 C6.17128994,5.60952282 6.71263117,1.60272081 8.87799606,0.572400288 C11.4764339,-0.801360403 12.7756529,1.60272081 12.7756529,1.60272081 C12.7756529,1.60272081 16.1319685,0.45792023 18.8386746,3.09096155 C21.5453807,5.83848293 20.4626982,11.2190456 20.4626982,11.2190456 Z"/>
        <path fill="#00C0CD" d="M12.8839211,32.1688962 L21.0040395,26.1014531 C21.5453807,25.7580129 21.1123077,24.8421725 20.4626982,25.0711326 L12.7756529,27.4752138 L12.8839211,32.1688962 Z"/>
      </g>
      <g fill-rule="nonzero" transform="translate(.307 219.066)">
        <path fill="#FF9272" d="M13.3169941,86.5565692 C13.8583353,85.1828086 13.9666036,83.5800878 13.5335306,82.091847 L8.66145957,66.179119 C8.66145957,66.179119 5.73821697,57.1351945 5.73821697,55.8759138 C5.73821697,55.8759138 26.2009152,60.9130364 26.3091834,62.5157572 L26.9587929,72.3610421 C27.2835976,77.6271248 25.659574,84.3814482 22.9528679,90.2199311 L12.4508481,114.375223 C12.3425799,114.604183 12.3425799,114.833143 12.4508481,114.947624 C8.76972782,114.947624 5.41341223,114.947624 1.73229191,114.947624 L13.3169941,86.5565692 Z"/>
        <path fill="#001D47" d="M1.62402367,115.062104 C5.30514399,115.062104 8.66145957,115.062104 12.3425799,115.062104 C12.3425799,115.176584 12.4508481,115.291064 12.4508481,115.405544 L14.7244813,118.267545 C15.3740907,119.068906 14.18314,120.557146 12.9921894,120.557146 L1.73229191,120.671626 C0.324804734,120.671626 -0.324804734,119.526826 0.216536489,118.153065 L1.62402367,115.062104 Z"/>
        <path fill="#FFBCA8" d="M25.4430375 10.0838908L27.0670612 4.70332813C27.8249389 2.29924692 30.2068403.811006172 32.5887416 1.49788652L33.1300829 1.61236657C35.7285207 2.29924692 37.1360079 5.16124836 36.3781302 7.79428968L34.7541065 13.4038125C33.8879606 16.2658139 30.8564497 17.6395746 28.3662801 16.380294L27.7166706 16.0368538C25.7678422 15.0065333 24.6851598 12.487972 25.4430375 10.0838908zM36.4863984 17.1816544C37.6773491 18.440935 38.6517633 19.9291758 39.6261775 21.4174165L44.4982485 29.2020604C44.4982485 29.2020604 55.2168048 17.0671743 57.1656332 16.7237342 59.1144616 16.380294 61.9294359 19.0133353 61.06329 21.1884564 60.4136805 22.9056573 54.5671953 31.8351018 47.7462959 39.0473454 46.014004 40.8790263 43.4155661 41.1079864 41.4667377 39.6197457L33.3466193 29.0875804 32.1556687 31.1482214C31.2895227 25.8821388 32.5887416 19.7002157 36.4863984 17.1816544z"/>
        <path fill="#001D47" d="M37.2442762,115.062104 L40.8171282,117.924105 C41.6832742,118.725465 41.2502012,120.213706 40.0592505,120.213706 L28.7993531,120.442666 C27.3918659,120.442666 26.3091834,119.297866 26.2009152,117.924105 L26.3091834,115.062104 C29.9903038,115.062104 33.6714241,115.062104 37.2442762,115.062104 C37.2442762,115.062104 37.2442762,115.062104 37.2442762,115.062104 Z"/>
        <path fill="#FFBCA8" d="M25.659574,84.152488 L13.4252623,67.3239196 C18.4056016,66.064639 23.4942091,64.5763982 28.3662801,62.6302372 C30.7481815,67.2094395 33.5631558,72.3610421 33.5631558,72.3610421 C36.1615937,77.5126447 37.3525444,84.2669681 37.1360079,90.105451 L36.9194714,114.146263 C36.9194714,114.489703 37.1360079,114.833143 37.3525444,115.062104 C33.8879606,115.062104 30.098572,115.062104 26.4174517,115.062104 L26.9587929,88.2737701 C26.8505247,86.7855294 26.4174517,85.2972886 25.659574,84.152488 Z"/>
        <path fill="#00C0CD" d="M26.5257199,11.3431715 C27.1753294,11.3431715 29.7737673,11.9155718 31.8308639,13.1748524 C33.5631558,14.2051729 35.0789113,15.5789336 36.4863984,17.1816544 C32.5887416,19.7002157 31.2895227,25.7676587 32.1556687,31.1482214 L31.3977909,32.293022 C29.4489625,35.4984636 27.9332071,38.9328653 26.8505247,42.4817471 C21.3288442,42.0238269 16.2402367,39.9631858 11.6929704,36.7577442 C15.482359,26.2255789 17.8642604,12.0300518 26.5257199,11.3431715 Z"/>
        <path fill="#4836F6" d="M5.0886075,46.8319893 C7.14570415,41.9093468 10.7185562,39.5052656 10.7185562,39.5052656 C11.043361,38.7039052 11.3681657,37.7880647 11.6929704,36.8722243 C16.2402367,40.0776659 21.3288442,42.1383069 26.8505247,42.5962272 C25.659574,46.6030292 25.1182328,50.7243112 25.226501,54.9600734 C25.226501,55.4179936 25.226501,55.6469537 25.226501,55.6469537 C25.226501,56.3338341 26.6339882,59.3103156 28.3662801,62.6302372 C23.4942091,64.5763982 18.5138698,66.064639 13.4252623,67.3239196 L12.5591164,66.064639 L7.36224064,59.3103156 C4.33072979,55.6469537 3.24804734,51.1822315 5.0886075,46.8319893 Z"/>
        <path fill="#00C0CD" d="M32.6970099,70.7583213 C32.6970099,70.7583213 21.9784537,81.5194467 1.51575542,79.0008855 C1.51575542,79.0008855 6.17128994,66.179119 4.22246154,54.273193 C2.59843787,45.0003084 10.7185562,39.3907856 10.7185562,39.3907856 C10.7185562,39.3907856 15.915432,44.8858283 25.8761105,46.4885491 C25.8761105,46.4885491 24.6851598,53.4718326 28.5828166,59.7682358 C31.0729862,63.7750378 32.6970099,70.7583213 32.6970099,70.7583213 Z"/>
        <path fill="#001D47" d="M34.2127653,7.22188939 C34.2127653,7.22188939 36.9194714,9.74045066 38.0021539,7.67980962 C39.0848363,5.73364865 37.8938856,0.811006172 32.6970099,0.238605885 C27.8249389,-0.333794403 25.8761105,3.67300761 23.8190138,7.22188939 C20.4626982,13.1748524 8.9862643,16.8382142 9.31106904,24.8518182 C9.85241026,37.1011844 23.8190138,35.7274237 26.092647,28.1717399 C27.8249389,22.333257 25.3347692,15.4644535 27.6084024,13.2893324 C29.9903038,11.2286914 32.3722051,13.1748524 34.2127653,7.22188939 Z"/>
      </g>
    </g>
    <path fill="#3427F6" fill-rule="nonzero" d="M114.116884,52.5066885 C114.116884,52.5066885 111.301909,46.3247654 113.792079,44.0351642 C116.282249,41.7455631 117.473199,44.0351642 121.262588,41.2876428 C127.109073,36.9374007 135.770533,46.2102853 124.83544,51.2474078 C124.83544,51.2474078 120.179905,52.9646087 117.473199,49.530207 C117.364931,49.530207 116.82359,51.9342882 114.116884,52.5066885 Z"/>
  </g>
</svg>
